<?xml version="1.0" encoding="utf-8"?>
<svg viewBox="36 127 427 220" xmlns="http://www.w3.org/2000/svg" xmlns:xlink="http://www.w3.org/1999/xlink">
  <defs>
    <linearGradient id="SVGID_20_" gradientUnits="userSpaceOnUse" x1="44097.3398" y1="69.6689" x2="44125.8086" y2="-63.1794" gradientTransform="matrix(-1 0 0 1 44076.3555 0)">
      <stop offset="0.3836" style="stop-color:#FAA100"/>
      <stop offset="0.6584" style="stop-color:#BF73F2"/>
      <stop offset="0.6649" style="stop-color:#C370E6"/>
      <stop offset="0.6852" style="stop-color:#CC68C7"/>
      <stop offset="0.7081" style="stop-color:#D461AB"/>
      <stop offset="0.7341" style="stop-color:#DB5B95"/>
      <stop offset="0.7643" style="stop-color:#E05784"/>
      <stop offset="0.8017" style="stop-color:#E35479"/>
      <stop offset="0.8543" style="stop-color:#E55272"/>
      <stop offset="1" style="stop-color:#E65270"/>
    </linearGradient>
    <linearGradient id="SVGID_21_" gradientUnits="userSpaceOnUse" x1="44081.2695" y1="71.4424" x2="44111.5938" y2="-70.0665" gradientTransform="matrix(-1 0 0 1 44076.3555 0)">
      <stop offset="0.3836" style="stop-color:#FAA100"/>
      <stop offset="0.6584" style="stop-color:#BF73F2"/>
      <stop offset="0.6649" style="stop-color:#C370E6"/>
      <stop offset="0.6852" style="stop-color:#CC68C7"/>
      <stop offset="0.7081" style="stop-color:#D461AB"/>
      <stop offset="0.7341" style="stop-color:#DB5B95"/>
      <stop offset="0.7643" style="stop-color:#E05784"/>
      <stop offset="0.8017" style="stop-color:#E35479"/>
      <stop offset="0.8543" style="stop-color:#E55272"/>
      <stop offset="1" style="stop-color:#E65270"/>
    </linearGradient>
    <linearGradient id="SVGID_22_" gradientUnits="userSpaceOnUse" x1="44076.2969" y1="62.4639" x2="44078.1016" y2="-21.4837" gradientTransform="matrix(-1 0 0 1 44076.3555 0)">
      <stop offset="0" style="stop-color:#FAA7B5"/>
      <stop offset="0.3836" style="stop-color:#FAA100"/>
      <stop offset="0.7317" style="stop-color:#BF73F2"/>
    </linearGradient>
    <linearGradient id="SVGID_23_" gradientUnits="userSpaceOnUse" x1="44098.6875" y1="53.8359" x2="44078.4219" y2="18.9243" gradientTransform="matrix(-1 0 0 1 44076.3555 0)">
      <stop offset="0" style="stop-color:#F6E8A0"/>
      <stop offset="1" style="stop-color:#E65271"/>
    </linearGradient>
    <linearGradient id="SVGID_24_" gradientUnits="userSpaceOnUse" x1="44095.125" y1="32.8574" x2="44077.6484" y2="2.7515" gradientTransform="matrix(-1 0 0 1 44076.3555 0)">
      <stop offset="0" style="stop-color:#F6E8A0"/>
      <stop offset="1" style="stop-color:#E65271"/>
    </linearGradient>
    <linearGradient id="SVGID_25_" gradientUnits="userSpaceOnUse" x1="44056.0742" y1="55.1064" x2="44058.0898" y2="19.9353" gradientTransform="matrix(-1 0 0 1 44076.3555 0)">
      <stop offset="0" style="stop-color:#F6E8A0"/>
      <stop offset="1" style="stop-color:#E65271"/>
    </linearGradient>
    <linearGradient id="SVGID_26_" gradientUnits="userSpaceOnUse" x1="44057.9609" y1="19.9785" x2="44069.5781" y2="71.4492" gradientTransform="matrix(-1 0 0 1 44076.3555 0)">
      <stop offset="0" style="stop-color:#E65271"/>
      <stop offset="0.3836" style="stop-color:#FAA100"/>
    </linearGradient>
    <linearGradient id="SVGID_27_" gradientUnits="userSpaceOnUse" x1="44098.2734" y1="45.7383" x2="44055.2656" y2="9.103" gradientTransform="matrix(-1 0 0 1 44076.3555 0)">
      <stop offset="0" style="stop-color:#F6E8A0"/>
      <stop offset="1" style="stop-color:#E65271"/>
    </linearGradient>
    <linearGradient id="SVGID_28_" gradientUnits="userSpaceOnUse" x1="44059.4766" y1="20.1328" x2="44101.2734" y2="8.766" gradientTransform="matrix(-1 0 0 1 44076.3555 0)">
      <stop offset="0" style="stop-color:#FAA7B5"/>
      <stop offset="0.3836" style="stop-color:#FAA100"/>
      <stop offset="0.7317" style="stop-color:#BF73F2"/>
    </linearGradient>
    <linearGradient id="SVGID_29_" gradientUnits="userSpaceOnUse" x1="43948.2227" y1="68.9863" x2="44144.5391" y2="-36.272" gradientTransform="matrix(-1 0 0 1 44076.3555 0)">
      <stop offset="0" style="stop-color:#FAA7B5"/>
      <stop offset="0.3836" style="stop-color:#FAA100"/>
      <stop offset="0.7317" style="stop-color:#BF73F2"/>
    </linearGradient>
    <radialGradient id="SVGID_30_" cx="87651.25" cy="11560.2988" r="14.877" gradientTransform="matrix(-0.4579 0.1387 0.2675 0.883 37062.1875 -22360.3281)" gradientUnits="userSpaceOnUse">
      <stop offset="0.0091" style="stop-color:#FFFFFF"/>
      <stop offset="1" style="stop-color:#FFFFFF;stop-opacity:0"/>
    </radialGradient>
    <radialGradient id="SVGID_31_" cx="78312.1094" cy="34685.1992" r="23.2557" gradientTransform="matrix(-0.4785 0 0 0.4785 37453.6211 -16583.9492)" gradientUnits="userSpaceOnUse">
      <stop offset="0.0091" style="stop-color:#FFFFFF"/>
      <stop offset="1" style="stop-color:#FFFFFF;stop-opacity:0"/>
    </radialGradient>
    <radialGradient id="SVGID_32_" cx="78312.125" cy="34685.1953" r="23.246" gradientTransform="matrix(-0.4785 0 0 0.4785 37453.6211 -16583.9492)" gradientUnits="userSpaceOnUse">
      <stop offset="0.0091" style="stop-color:#FFFFFF"/>
      <stop offset="1" style="stop-color:#FFFFFF;stop-opacity:0"/>
    </radialGradient>
    <linearGradient id="SVGID_33_" gradientUnits="userSpaceOnUse" x1="44028.9219" y1="-21.6885" x2="44039.9336" y2="-46.5121" gradientTransform="matrix(-1 0 0 1 44076.3555 0)">
      <stop offset="0.0041" style="stop-color:#FAA7B5"/>
      <stop offset="0.3836" style="stop-color:#FAA100"/>
    </linearGradient>
    <linearGradient id="SVGID_34_" gradientUnits="userSpaceOnUse" x1="44102.2578" y1="49.9863" x2="44111.2852" y2="-18.6183" gradientTransform="matrix(-1 0 0 1 44076.3555 0)">
      <stop offset="0" style="stop-color:#FAA7B5"/>
      <stop offset="0.3836" style="stop-color:#FAA100"/>
      <stop offset="0.7317" style="stop-color:#BF73F2"/>
    </linearGradient>
    <linearGradient id="SVGID_35_" gradientUnits="userSpaceOnUse" x1="44109.793" y1="50.9766" x2="44118.8203" y2="-17.6278" gradientTransform="matrix(-1 0 0 1 44076.3555 0)">
      <stop offset="0" style="stop-color:#FAA7B5"/>
      <stop offset="0.3836" style="stop-color:#FAA100"/>
      <stop offset="0.7317" style="stop-color:#BF73F2"/>
    </linearGradient>
    <linearGradient id="SVGID_36_" gradientUnits="userSpaceOnUse" x1="44123.0508" y1="21.7207" x2="44118.9961" y2="-26.0176" gradientTransform="matrix(-1 0 0 1 44076.3555 0)">
      <stop offset="0" style="stop-color:#FAA7B5"/>
      <stop offset="0.3836" style="stop-color:#FAA100"/>
      <stop offset="0.7317" style="stop-color:#BF73F2"/>
    </linearGradient>
    <linearGradient id="SVGID_37_" gradientUnits="userSpaceOnUse" x1="44050.8477" y1="61.9199" x2="44052.6523" y2="-22.035" gradientTransform="matrix(-1 0 0 1 44076.3555 0)">
      <stop offset="0" style="stop-color:#FAA7B5"/>
      <stop offset="0.3836" style="stop-color:#FAA100"/>
      <stop offset="0.7317" style="stop-color:#BF73F2"/>
    </linearGradient>
    <linearGradient id="SVGID_38_" gradientUnits="userSpaceOnUse" x1="44033.8477" y1="-2.3027" x2="44038.3164" y2="-9.6765" gradientTransform="matrix(-1 0 0 1 44076.3555 0)">
      <stop offset="0" style="stop-color:#FAA7B5"/>
      <stop offset="0.3836" style="stop-color:#FAA100"/>
      <stop offset="0.7317" style="stop-color:#BF73F2"/>
    </linearGradient>
    <linearGradient id="SVGID_39_" gradientUnits="userSpaceOnUse" x1="44048.457" y1="34.6895" x2="44048.457" y2="34.6895" gradientTransform="matrix(-1 0 0 1 44076.3555 0)">
      <stop offset="0" style="stop-color:#E65271"/>
      <stop offset="0.3836" style="stop-color:#FAA100"/>
    </linearGradient>
  </defs>
  <symbol id="New_Symbol_3" viewBox="-50.452 -50.955 100.904 101.91">
    <path fill="#E65270" d="M14.113-50.012c-1.353,0.017-2.704,0.021-4.056,0.021l-3.489-0.003c0,0-9.98,0.004-14.75,0.004&#10;&#9;&#9;c-0.749,0-1.5-0.003-2.25-0.005C-11.183-49.997-11.933-50-12.684-50c-0.47,0-0.938,0.001-1.407,0.004&#10;&#9;&#9;c-2.838,0.017-5.551,0.358-8.063,1.016c-10.002,2.617-17.576,8.551-22.512,17.634c-2.366,4.354-3.711,9.225-3.995,14.473&#10;&#9;&#9;c-0.126,2.334-0.007,4.726,0.355,7.108c0.043,0.284,0.095,0.568,0.147,0.854l0.115,0.65l0.195-0.192&#10;&#9;&#9;c0.103-0.102,0.135-0.208,0.159-0.288c0.097-0.318,0.188-0.639,0.28-0.958c0.19-0.665,0.388-1.353,0.62-2.013&#10;&#9;&#9;c1.701-4.852,4.284-9.397,7.896-13.902c0.143-0.178,0.251-0.375,0.313-0.566c1.225-3.771,3.354-7.028,6.326-9.69&#10;&#9;&#9;c2.891-2.588,6.357-4.526,10.316-5.771c-2.539,1.087-4.889,2.476-7.003,4.143c-3.448,2.719-5.933,6.046-7.383,9.89&#10;&#9;&#9;c-0.145,0.386-0.267,0.852-0.071,1.368c0.065,0.176,0.111,0.358,0.158,0.541c0.032,0.126,0.063,0.252,0.102,0.377&#10;&#9;&#9;c0.781,2.553,1.967,4.555,3.626,6.117c1.545,1.456,3.513,2.521,6.017,3.257c2.338,0.688,4.778,0.998,7.137,1.298l1.011,0.13&#10;&#9;&#9;c1.321,0.173,2.66,0.377,3.954,0.577l0.779,0.12c0.29,0.044,0.578,0.107,0.876,0.172l0.727,0.152l-0.191-0.325&#10;&#9;&#9;c-0.015-0.028-0.027-0.051-0.048-0.075c-1.225-1.372-2.253-2.897-3.055-4.538c-0.068-0.139-0.214-0.267-0.354-0.312&#10;&#9;&#9;c-0.174-0.057-0.347-0.113-0.52-0.171c-0.551-0.185-1.119-0.371-1.697-0.486c-0.622-0.124-1.259-0.214-1.876-0.3&#10;&#9;&#9;c-0.494-0.07-0.988-0.139-1.479-0.229c-1.653-0.294-2.932-0.825-3.899-1.636c0.212,0.051,0.431,0.083,0.646,0.114&#10;&#9;&#9;c0.3,0.043,0.608,0.089,0.889,0.186c1.524,0.53,3.196,0.776,5.263,0.776l0.279-0.001c0.371-0.004,0.741-0.021,1.117-0.039&#10;&#9;&#9;l0.726-0.03l-0.054-0.179c-1.483-4.845-1.441-9.599,0.119-14.157c-0.653,3.091-0.772,5.962-0.368,8.737&#10;&#9;&#9;c0.618,4.241,2.486,7.896,5.556,10.863c2.07,2.001,4.667,3.681,7.938,5.133c2.841,1.263,5.801,2.021,8.589,2.691L6.099-7.35&#10;&#9;&#9;c1.988,0.478,4.044,0.972,6.036,1.557c2.987,0.875,5.583,2.314,7.716,4.284c0.319,0.295,0.682,0.63,0.968,1&#10;&#9;&#9;c2.037,2.64,4.412,4.513,7.258,5.727c0.082,0.035,0.175,0.122,0.235,0.221c0.931,1.52,2.048,2.639,3.415,3.424&#10;&#9;&#9;c0.305,0.175,0.609,0.263,0.904,0.263c0.374,0,0.748-0.144,1.113-0.421c0.138-0.106,0.264-0.217,0.375-0.33&#10;&#9;&#9;c0.479-0.481,0.863-1.073,1.211-1.859c0.043-0.094,0.082-0.124,0.187-0.137c0.347-0.046,0.705-0.093,1.06-0.163&#10;&#9;&#9;c5.812-1.15,9.859-5.622,10.562-11.673c0.019-0.161,0.032-0.324,0.045-0.486c0.031-0.384,0.062-0.78,0.177-1.137&#10;&#9;&#9;c0.144-0.451,0.361-0.895,0.573-1.321c0.093-0.189,0.188-0.382,0.276-0.575c0.075-0.166,0.154-0.33,0.232-0.494&#10;&#9;&#9;c0.185-0.389,0.374-0.786,0.531-1.193c0.241-0.621,0.269-1.263,0.084-1.908c-0.08-0.277-0.248-0.318-0.341-0.318&#10;&#9;&#9;c-0.071,0-0.147,0.023-0.224,0.071c-0.16,0.103-0.309,0.217-0.458,0.335c-0.07,0.058-0.142,0.111-0.214,0.165&#10;&#9;&#9;c-0.08,0.062-0.159,0.123-0.237,0.188c-0.187,0.146-0.362,0.288-0.557,0.395c-0.07,0.039-0.143,0.061-0.214,0.061&#10;&#9;&#9;c-0.074,0-0.145-0.022-0.211-0.065l0.274-0.245c0.489-0.434,0.977-0.869,1.457-1.31c0.101-0.092,0.168-0.261,0.159-0.4&#10;&#9;&#9;c-0.057-0.908-0.374-1.661-0.945-2.241c-0.68-0.688-1.393-1.022-2.178-1.022c-0.168,0-0.339,0.016-0.513,0.047&#10;&#9;&#9;c-0.032-0.305-0.097-0.419-0.351-0.555c-1.606-0.871-3.172-1.295-4.785-1.295l-0.252,0.002c-1.099,0-2.169-0.312-3.369-0.981&#10;&#9;&#9;c-0.413-0.229-0.778-0.386-1.119-0.476c-1.031-0.274-2.072-0.377-3.013-0.421c0.404-0.056,0.826-0.083,1.279-0.083&#10;&#9;&#9;c0.289,0,0.587,0.012,0.909,0.033l0.184,0.019c0.136,0.013,0.274,0.025,0.406,0.025c0.177,0,0.323-0.022,0.446-0.073&#10;&#9;&#9;c0.841-0.344,1.663-0.76,2.433-1.154c0.151-0.078,0.26-0.11,0.361-0.11c0.056,0,0.11,0.011,0.167,0.032l0.225,0.084&#10;&#9;&#9;c0.421,0.159,0.856,0.323,1.271,0.507c0.987,0.439,1.838,0.646,2.678,0.646c0.225,0,0.45-0.017,0.673-0.047&#10;&#9;&#9;c0.576-0.078,1.248-0.21,1.854-0.583c0.299-0.184,0.698-0.491,0.735-1.064c0.002-0.01,0.022-0.044,0.069-0.088&#10;&#9;&#9;c0.073-0.067,0.149-0.131,0.227-0.195c0.078-0.064,0.158-0.131,0.233-0.202c0.47-0.431,0.677-0.977,0.619-1.624&#10;&#9;&#9;c-0.018-0.181-0.058-0.605-0.421-0.605c-0.11,0-0.239,0.04-0.418,0.131c-0.075,0.039-0.144,0.07-0.207,0.088&#10;&#9;&#9;c0.177-0.108,0.349-0.217,0.518-0.332c0.401-0.273,0.597-0.691,0.578-1.242c-0.038-1.2-1.302-2.336-2.601-2.336&#10;&#9;&#9;c-0.154,0-0.306,0.019-0.451,0.05c-0.383,0.084-0.859,0.244-1.146,0.742c-0.009,0.014-0.042,0.036-0.049,0.038l-0.22-0.01&#10;&#9;&#9;c-0.261-0.01-0.529-0.021-0.778-0.078l-0.073-0.017c-0.423-0.098-0.859-0.195-1.305-0.195c-0.178,0-0.345,0.016-0.507,0.047&#10;&#9;&#9;c-0.199,0.037-0.396,0.086-0.598,0.136l-0.146,0.035c-0.231-0.749-0.604-1.452-1.109-2.094c-1.131-1.438-2.639-2.452-4.607-3.097&#10;&#9;&#9;c-1.427-0.47-2.961-0.705-4.562-0.705c-0.841,0-1.724,0.063-2.623,0.191c-3.546,0.507-6.021,2.435-7.359,5.729&#10;&#9;&#9;c-0.225,0.552-0.376,1.138-0.524,1.706c-0.071,0.274-0.144,0.554-0.224,0.827c-0.42,1.429-0.949,2.689-1.619,3.859&#10;&#9;&#9;c-1.216,2.123-2.72,3.636-4.599,4.625c-1.502,0.791-3.146,1.192-4.884,1.192c-0.728,0-1.489-0.069-2.264-0.208&#10;&#9;&#9;c-0.157-0.028-0.313-0.062-0.472-0.096c0.547-0.025,1.067-0.055,1.592-0.106c2.431-0.246,4.645-0.993,6.58-2.219&#10;&#9;&#9;c2.633-1.671,4.249-3.747,4.937-6.345c0.385-1.452,0.935-2.898,1.634-4.299c0.404-0.812,0.918-1.752,1.658-2.546&#10;&#9;&#9;c1.046-1.119,2.394-1.884,4.241-2.403c0.505-0.143,1.007-0.298,1.506-0.458c0.276-0.089,0.468-0.28,0.587-0.587&#10;&#9;&#9;c0.289-0.75,0.361-1.515,0.213-2.27c-0.217-1.109-0.744-2.136-1.613-3.139c-0.686-0.791-1.538-1.366-2.362-1.923&#10;&#9;&#9;c-0.414-0.277-0.803-0.572-1.157-0.875c-0.303-0.26-0.46-0.6-0.443-0.958c0.026-0.59,0.07-0.612,0.18-0.612&#10;&#9;&#9;c0.092,0,0.237,0.035,0.471,0.111c0.115,0.038,0.229,0.084,0.342,0.134l0.686,0.296c0.392,0.169,0.783,0.339,1.178,0.503&#10;&#9;&#9;c0.856,0.357,1.703,0.54,2.515,0.54c0.434,0,0.868-0.052,1.291-0.153c1.52-0.364,2.518-1.267,2.966-2.686&#10;&#9;&#9;c0.12-0.384,0.103-0.712-0.055-0.979c-0.104-0.177-0.342-0.325-0.54-0.331c-0.184,0-0.356,0.163-0.488,0.308&#10;&#9;&#9;c-0.074,0.081-0.092,0.187-0.106,0.279c-0.006,0.03-0.011,0.062-0.018,0.09c-0.135,0.505-0.322,0.835-0.604,1.056&#10;&#9;&#9;c0.504-0.685,0.73-1.417,0.689-2.23c-0.042-0.807-0.646-1.369-1.471-1.369c-0.034,0-0.067,0.001-0.103,0.003&#10;&#9;&#9;c-0.313,0.019-0.512,0.188-0.545,0.466c-0.022,0.192-0.022,0.39-0.023,0.58c0,0.079,0,0.159-0.002,0.237&#10;&#9;&#9;c-0.002,0.104-0.001,0.205,0,0.309c0,0.222,0.001,0.431-0.027,0.637c-0.062,0.444-0.326,0.744-0.785,0.891&#10;&#9;&#9;c-0.032,0.012-0.064,0.02-0.098,0.023c0.139-0.079,0.259-0.188,0.344-0.346c0.17-0.315,0.315-0.602,0.394-0.911&#10;&#9;&#9;c0.204-0.821,0.003-1.461-0.581-1.853c-0.303-0.201-0.691-0.276-1.033-0.324c-0.139-0.02-0.275-0.026-0.412-0.026&#10;&#9;&#9;c-0.511,0-1.011,0.12-1.493,0.234l-0.245,0.059c-0.457,0.105-0.862,0.158-1.251,0.159c-0.332,0-0.677-0.064-1.011-0.126&#10;&#9;&#9;l-0.155-0.028c-2.533-0.456-4.81-0.677-6.959-0.677L14.113-50.012z"/>
    <path opacity="0.2" fill="#430A1D" enable-background="new    " d="M34.73-20.451c0,0-3.735-4.456-10.078-1.903&#10;&#9;&#9;c-5.81,2.341-3.692,8.784-3.692,8.784s1.03-3.996,4.036-5.51C29.348-21.273,34.73-20.451,34.73-20.451z"/>
    <path opacity="0.2" fill="#430A1D" enable-background="new    " d="M16.327-22.359c0.809-0.822,0.824-1.663,1.078-2.688&#10;&#9;&#9;c0.479-1.928,1.068-3.602,2.296-5.188c1.181-1.524,2.594-2.602,4.419-3.303c1.581-0.606,3.614-0.427,3.311-2.781l-0.53-1.982&#10;&#9;&#9;c-4.04,0-7.825,1.844-9.367,5.854c-1.352,3.518,0.241,7.769-3.857,13.717C14.005-19.132,15.908-21.931,16.327-22.359z"/>
    <g opacity="0.2">
      <path fill="#2B2B2B" d="M14.727-20.611c0.062-0.25,0.118-0.504,0.175-0.757C14.751-21.183,14.673-20.947,14.727-20.611z"/>
    </g>
    <path fill="url(#SVGID_20_)" d="M-32.349-35.983c-15.241,1.506-17.035,16.677-17.035,16.677s-0.828,7.032,1.104,13.93&#10;&#9;&#9;c1.241-12.55,11.309-21.239,11.309-21.239S-34.759-33.766-32.349-35.983z"/>
    <path opacity="0.2" fill="#2B2B2B" enable-background="new    " d="M-36.15-30.205c0,0-3.196-0.304-7.461,4.873&#10;&#9;&#9;c4.112-7.461,9.441-7.613,9.441-7.613L-36.15-30.205z"/>
    <path fill="url(#SVGID_21_)" d="M-27.912-38.917c-0.799,14.03,7.438,7.52,11.69,14.96c1.195,6.51,4.782,10.628,4.782,10.628&#10;&#9;&#9;s-25.506,4.782-25.907-13.817c0.888-4.027,4.792-7.921,7.236-10.028c-0.478,1.078-6.567,17.833,13.711,16.467&#10;&#9;&#9;c-6.999,0.596-17.105-6.716-12.288-17.67C-28.205-38.729-27.912-38.917-27.912-38.917z"/>
    <path opacity="0.2" fill="#FFFFFF" enable-background="new    " d="M-21.017-18.684c-5.272-1.982-14.225-1.973-11.677-15.426&#10;&#9;&#9;c-0.408-0.306-2.446,2.854-1.937,2.547C-36.975-19.535-26.447-20.23-21.017-18.684z"/>
    <path opacity="0.6" fill="#8B4FBA" enable-background="new    " d="M-14.341-13.865c5.127,2.028,0.964-3.722,0.236-4.642&#10;&#9;&#9;c-1.683-2.128-5.941-1.436-8.21-2.146c-1.305-0.408-6.536-1.175-8.269-6.128c-0.77-2.194-1.06-5.781,0.581-10.146&#10;&#9;&#9;c-0.407-0.308-3.104,2.646-2.594,2.342C-36.925-15.255-16.511-22.193-14.341-13.865z"/>
    <path fill="#F9E0E7" d="M36.631-5.972c0.139,0.384,0.378,0.875,0.679,1.165c0.07-0.033,0.145-0.037,0.202-0.073&#10;&#9;&#9;c0.5,0.324,1.29,0.281,1.918,0.281c0.376,0,0.924,0.104,1.287-0.037c0.528-0.205,0.468-0.761,0.689-1.182&#10;&#9;&#9;c0.414-0.786,1.69-0.796,1.695-1.907c0.004-0.523,0.135-1.232,0.001-1.744c-0.1-0.38-0.525-0.264-0.891-0.264&#10;&#9;&#9;c-1.109,0-2.215-0.031-3.326-0.031l-1.536,1.145c-0.41-0.131-0.731,0.729-0.787,1.021C36.47-7.116,36.458-6.449,36.631-5.972z"/>
    <path fill="#FFFFFF" d="M41.756-7.494c0.188,0.077,0.465,0.378,0.581,0.555c0.084,0.127,0.06,0.208,0.24,0.203&#10;&#9;&#9;c0.469-0.013,0.473-0.646,0.449-0.973c-0.028-0.418-0.197-0.802-0.258-1.213c-0.152,0.038-0.236,0.229-0.407,0.277&#10;&#9;&#9;c-0.136,0.04-0.331,0.021-0.473,0.015c-0.208-0.009-0.496-0.149-0.684-0.069L41.756-7.494z"/>
    <path fill="url(#SVGID_22_)" d="M-18.99,13.068c0.07,0.081,0.088,0.105,0.11,0.128c2.035,1.9,3.114,4.298,3.694,6.979&#10;&#9;&#9;c0.381,1.755-0.105,3.303-0.895,4.816c-0.014,0.025-0.039,0.05-0.066,0.084c-0.158-0.494-0.302-0.979-0.47-1.456&#10;&#9;&#9;c-0.413-1.176-0.913-2.314-1.707-3.288c-0.317-0.388-13.613-7.753-12.244-24.064c0.009-0.101,0.026-0.197,0.04-0.31&#10;&#9;&#9;c0.246,0.229,0.461,0.466,0.708,0.661c0.885,0.692,1.907,1.133,2.973,1.431c1.951,0.544,3.915,1.044,5.881,1.525&#10;&#9;&#9;c2.237,0.548,4.487,1.056,6.645,1.882c1.22,0.466,2.354,1.08,3.437,1.82c1.614,1.104,3.007,2.426,4.207,3.956&#10;&#9;&#9;c0.699,0.891,1.025,1.571,1.34,2.618c0.199-0.539,0.095-2.041-0.205-2.999c-0.31-0.99-0.837-1.854-1.524-2.647&#10;&#9;&#9;c0.165,0.053,0.345,0.08,0.492,0.164c1.902,1.084,3.587,2.419,4.831,4.249c0.834,1.226,1.342,2.568,1.413,4.062&#10;&#9;&#9;c0.001,0.021,0.01,0.042,0.017,0.075c0.396-1.832,0.339-4.952-1.727-7.17c0.73,0.258,1.39,0.517,2.066,0.718&#10;&#9;&#9;c0.559,0.166,0.928,0.493,1.237,0.984c1.356,2.146,2.48,4.396,3.088,6.877c0.47,1.916,0.587,3.84,0.06,5.765&#10;&#9;&#9;c-0.598,2.176-1.912,3.851-3.7,5.182c-1.242,0.925-2.612,1.611-4.05,2.173c-0.087,0.034-0.174,0.065-0.259,0.103&#10;&#9;&#9;c-0.014,0.005-0.021,0.021-0.076,0.081c0.498-0.137,0.945-0.253,1.386-0.384c2.06-0.612,4.034-1.41,5.782-2.688&#10;&#9;&#9;c1.56-1.14,2.754-2.562,3.351-4.432c0.533-1.674,0.487-3.366,0.104-5.058C6.389,12.438,5.24,10.24,3.84,8.159&#10;&#9;&#9;C3.797,8.094,3.755,8.03,3.714,7.966c-0.006-0.01-0.005-0.026-0.013-0.062c0.058,0.021,0.104,0.036,0.146,0.059&#10;&#9;&#9;c2.931,1.499,5.537,3.416,7.613,5.992c2.016,2.5,3.483,5.284,4.18,8.438c0.877,3.98-0.085,7.514-2.663,10.631&#10;&#9;&#9;c-1.629,1.973-3.643,3.465-5.873,4.681c-2.877,1.566-5.938,2.59-9.177,3.061c-1.842,0.269-3.686,0.32-5.527-0.034&#10;&#9;&#9;c-1.012-0.192-1.668-0.458-2.79-1.106c0.142,0.121,0.277,0.249,0.426,0.358c1.007,0.765,2.168,1.16,3.387,1.407&#10;&#9;&#9;c2.016,0.408,4.049,0.403,6.082,0.166c3.148-0.368,6.149-1.24,8.991-2.646c0.278-0.14,0.553-0.283,0.86-0.441&#10;&#9;&#9;c0,0.258-0.015,0.483,0.004,0.706c0.026,0.344,0.199,0.541,0.47,0.573c0.258,0.032,0.41-0.065,0.46-0.319&#10;&#9;&#9;c0.041-0.215,0.052-0.436,0.083-0.652c0.07-0.492,0.298-0.909,0.636-1.271c0.033-0.037,0.074-0.069,0.115-0.097&#10;&#9;&#9;c0.019-0.015,0.046-0.014,0.118-0.028c0,0.177,0.001,0.34,0,0.502c-0.005,0.329-0.018,0.659-0.011,0.988&#10;&#9;&#9;c0.003,0.081,0.06,0.211,0.116,0.227c0.077,0.021,0.217-0.018,0.265-0.079c0.129-0.17,0.268-0.354,0.327-0.556&#10;&#9;&#9;c0.129-0.428,0.187-0.876,0.321-1.301c0.088-0.275,0.228-0.547,0.403-0.775c0.192-0.25,0.386-0.195,0.459,0.111&#10;&#9;&#9;c0.068,0.286,0.093,0.583,0.136,0.875c0.015,0.101,0.018,0.205,0.049,0.299c0.025,0.081,0.084,0.148,0.128,0.223&#10;&#9;&#9;c0.066-0.061,0.163-0.106,0.192-0.182c0.067-0.17,0.133-0.353,0.141-0.532c0.021-0.396-0.016-0.795,0.013-1.189&#10;&#9;&#9;c0.015-0.21,0.085-0.434,0.188-0.616c0.114-0.203,0.297-0.179,0.36,0.048c0.091,0.324,0.136,0.659,0.202,0.99&#10;&#9;&#9;c0.045,0.224,0.092,0.447,0.147,0.721c0.265-0.226,0.329-0.477,0.355-0.72c0.068-0.647,0.101-1.297,0.158-1.945&#10;&#9;&#9;c0.044-0.486,0.211-0.913,0.498-1.328c0.521-0.755,0.982-1.554,1.448-2.346c0.24-0.406,0.462-0.443,0.686-0.025&#10;&#9;&#9;c0.254,0.475,0.443,0.982,0.658,1.479c0.094,0.217,0.173,0.438,0.272,0.652c0.046,0.104,0.124,0.192,0.195,0.3&#10;&#9;&#9;c0.255-0.185,0.316-0.427,0.267-0.667c-0.073-0.361-0.206-0.712-0.3-1.069c-0.101-0.39-0.209-0.779-0.27-1.177&#10;&#9;&#9;c-0.023-0.16,0.049-0.352,0.122-0.507c0.103-0.225,0.267-0.252,0.443-0.076c0.179,0.178,0.318,0.395,0.492,0.576&#10;&#9;&#9;c0.099,0.104,0.235,0.167,0.354,0.249c0.067-0.146,0.203-0.298,0.191-0.438c-0.025-0.297-0.096-0.6-0.205-0.878&#10;&#9;&#9;c-0.222-0.565-0.521-1.103-0.712-1.676c-0.138-0.416-0.164-0.871-0.209-1.312c-0.012-0.108,0.078-0.299,0.163-0.33&#10;&#9;&#9;c0.089-0.031,0.265,0.057,0.344,0.144c0.363,0.398,0.704,0.819,1.06,1.228c0.087,0.102,0.203,0.174,0.305,0.262&#10;&#9;&#9;c0.035-0.018,0.068-0.032,0.103-0.051c-0.034-0.231-0.025-0.481-0.109-0.696c-0.143-0.357-0.32-0.708-0.524-1.033&#10;&#9;&#9;c-0.323-0.517-0.692-1.002-1.023-1.512c-0.612-0.943-1.017-1.973-1.271-3.069c-0.183-0.788-0.443-1.559-0.671-2.334&#10;&#9;&#9;c-0.027-0.096-0.061-0.189-0.065-0.296c0.199,0.317,0.393,0.641,0.599,0.957c0.431,0.664,0.928,1.274,1.596,1.714&#10;&#9;&#9;c0.336,0.22,0.697,0.418,1.073,0.556c1.933,0.711,3.887,1.372,5.73,2.299c0.524,0.267,1.025,0.588,1.502,0.936&#10;&#9;&#9;c0.603,0.438,0.826,1.049,0.646,1.789c-0.126,0.514-0.252,1.027-0.383,1.562c-0.312-0.498-0.587-0.978-0.902-1.428&#10;&#9;&#9;s-0.704-0.832-1.283-1.089c0.052,0.099,0.067,0.142,0.093,0.177c0.812,1.119,1.28,2.391,1.642,3.708&#10;&#9;&#9;c0.037,0.136-0.005,0.3-0.029,0.447c-0.166,0.96-0.086,1.922-0.043,2.885c0.01,0.191,0.01,0.39-0.017,0.58&#10;&#9;&#9;c-0.011,0.088-0.083,0.198-0.158,0.231c-0.051,0.023-0.184-0.047-0.229-0.108c-0.186-0.262-0.394-0.519-0.519-0.808&#10;&#9;&#9;c-0.503-1.169-0.985-2.348-1.465-3.524c-0.598-1.469-1.272-2.895-2.299-4.121c-0.464-0.555-0.993-1.038-1.642-1.375&#10;&#9;&#9;c-0.124-0.063-0.256-0.114-0.395-0.158c1.005,1.039,1.231,2.354,1.276,3.699c0.059,1.722,0.025,3.448,0.042,5.172&#10;&#9;&#9;c0.018,1.864,0.172,3.712,0.728,5.508c0.021,0.071-0.014,0.175-0.053,0.246c-0.157,0.306-0.356,0.592-0.486,0.908&#10;&#9;&#9;c-0.273,0.663-0.501,1.343-0.768,2.01c-0.156,0.392-0.209,0.421-0.629,0.391c-0.452-0.032-0.722,0.227-0.962,0.548&#10;&#9;&#9;c-0.183,0.243-0.258,0.237-0.384-0.048c-0.137-0.31-0.245-0.629-0.393-0.934c-0.051-0.104-0.181-0.172-0.275-0.256&#10;&#9;&#9;c-0.072,0.106-0.192,0.21-0.204,0.323c-0.039,0.369-0.029,0.741-0.055,1.111c-0.012,0.184-0.037,0.37-0.099,0.542&#10;&#9;&#9;c-0.03,0.081-0.154,0.169-0.243,0.176c-0.064,0.005-0.175-0.104-0.202-0.186c-0.091-0.263-0.145-0.537-0.228-0.802&#10;&#9;&#9;c-0.067-0.213-0.162-0.236-0.289-0.062c-0.925,1.26-2.159,2.153-3.478,2.947c-0.389,0.234-0.772,0.479-1.159,0.715&#10;&#9;&#9;c-0.027-0.009-0.054-0.019-0.079-0.026c0.049-0.429,0.1-0.857,0.149-1.285c-0.035-0.019-0.07-0.035-0.104-0.053&#10;&#9;&#9;c-0.122,0.104-0.262,0.19-0.364,0.312c-0.257,0.303-0.489,0.625-0.749,0.927c-0.514,0.604-1.162,1.036-1.785,1.179&#10;&#9;&#9;c0.197-0.675,0.385-1.314,0.571-1.955c-0.029-0.015-0.061-0.027-0.09-0.04c-0.065,0.08-0.14,0.154-0.193,0.241&#10;&#9;&#9;c-0.151,0.245-0.3,0.489-0.438,0.741c-0.594,1.075-1.51,1.695-2.712,1.868c-0.818,0.118-1.645,0.196-2.469,0.252&#10;&#9;&#9;c-0.605,0.042-1.184,0.131-1.738,0.396c-0.388,0.175-0.804,0.295-1.212,0.431c-0.069,0.024-0.159-0.005-0.239-0.01&#10;&#9;&#9;c0.006-0.087-0.012-0.188,0.023-0.26c0.192-0.376,0.401-0.743,0.594-1.119c0.071-0.135,0.117-0.284,0.173-0.427&#10;&#9;&#9;c-0.019-0.021-0.037-0.04-0.055-0.061c-0.123,0.041-0.251,0.069-0.366,0.125c-0.532,0.258-1.072,0.501-1.586,0.791&#10;&#9;&#9;c-0.524,0.296-1.1,0.32-1.668,0.368c-1.775,0.149-3.528,0.03-5.243-0.489c-1.043-0.314-2.007-0.788-2.855-1.521&#10;&#9;&#9;c0.107,0.011,0.217,0.011,0.321,0.03c1.036,0.213,2.072,0.413,3.138,0.378c0.725-0.023,1.432-0.139,2.07-0.507&#10;&#9;&#9;c0.101-0.058,0.166-0.18,0.248-0.271c-0.143-0.05-0.293-0.146-0.43-0.128c-0.331,0.039-0.655,0.162-0.988,0.189&#10;&#9;&#9;c-1.062,0.095-2.084-0.15-3.095-0.429c-2.448-0.672-4.665-1.815-6.724-3.286c-0.502-0.357-1.023-0.688-1.544-1.02&#10;&#9;&#9;c-1.016-0.646-1.839-1.481-2.489-2.492c-0.076-0.12-0.147-0.249-0.195-0.382c-0.133-0.37-0.035-0.679,0.315-0.863&#10;&#9;&#9;c0.249-0.132,0.527-0.226,0.803-0.293c3.659-0.892,6.384-3.908,6.806-7.639c0.159-1.399,0.354-2.802,0.284-4.221&#10;&#9;&#9;c-0.161-3.257-1.328-6.095-3.502-8.519c-1.293-1.442-2.822-2.589-4.495-3.554C-18.856,13.134-18.892,13.119-18.99,13.068z"/>
    <path opacity="0.2" fill="#8B4FBA" enable-background="new    " d="M27.897,34.689c-1.554-12.138-6.941-9.391-10.465-16.167&#10;&#9;&#9;c-0.193,0.256-0.637-1.816,0.251,2.031c0.889,3.851,3.436,2.112,5.847,6.516C26.583,32.636,25.973,33.135,27.897,34.689z"/>
    <path opacity="0.3" fill="#FFFFFF" enable-background="new    " d="M11.804,34.461c-0.578-3.474-5.49-3.317-9.693-1.843&#10;&#9;&#9;c-4.568,1.602-14.057,2.116-14.821,0.205c-0.381-0.438-1.146,1.363-1.146,1.363s7.207,7.863,19.272-0.436&#10;&#9;&#9;c-0.491,0.764,4.336,3,4.336,3S11.204,37.191,11.804,34.461z"/>
    <path opacity="0.2" fill="#8B4FBA" enable-background="new    " d="M-13.195,1.104c0.262-0.65,2.396-0.212,2.596,0.803&#10;&#9;&#9;c-3.148,3.566,5.14,10.119-2.504,18.672C-8.1,7.384-18.75,6.847-13.195,1.104z"/>
    <path opacity="0.6" fill="#8B4FBA" enable-background="new    " d="M-13.195,1.104c0.262-0.65,0.215-0.464,0.415,0.551&#10;&#9;&#9;c-3.148,3.567,5.237,8.768-0.323,18.924C-8.1,7.384-18.75,6.847-13.195,1.104z"/>
    <path fill="url(#SVGID_23_)" d="M-1.723,3.708c15.128,15.919-3.997,13.253-10.23,24.058c0.011,0.186,0.024,0.366,0.024,0.557&#10;&#9;&#9;c0,1.502-0.364,2.916-0.998,4.17c5.834-8.653,20.624-1.023,17.751-18.712C4.565,12.871,2.507,3.907-1.723,3.708z"/>
    <path fill="url(#SVGID_24_)" d="M-1.723,3.708c-6.229-3.057-11.674-3.146-11.416-2.239c12.375,8.397,2.385,17.05,0.056,25.201&#10;&#9;&#9;c0.159,0.658,1.154,0.903,1.154,1.65c0,0.08-0.009,0.156-0.011,0.235c0.18-0.809,0.606-1.09,1.014-1.5&#10;&#9;&#9;C-5.174,21.253,13.11,19.314-1.723,3.708z"/>
    <path fill="#E65271" d="M-3.674,3.945c9.58,14.308-8.304,17.026-8.174,21.562c-1.425-9.33,15.717-13.324-0.389-24.491&#10;&#9;&#9;C-12.495,0.11-9.903,0.888-3.674,3.945z"/>
    <path fill="url(#SVGID_25_)" d="M23.094,28.8c0.761-1.271-0.084-2.771-0.97-4.176c-0.818-1.298-2.793-0.873-4.133-4.002&#10;&#9;&#9;l0.115,2.438c1.485,2.587-1.027,6.148-1.726,8.555c-1.19,4.1-2.484,7.883-0.907,12.043c0.107,0.279,0.198,0.585,0.306,0.872&#10;&#9;&#9;c0.786-0.581,1.38-1.16,2.057-2.043c0.447-0.586,0.291,1.512,0.879,1.071c0.432-0.319-0.021-1.803,0.391-2.146&#10;&#9;&#9;c0.462-0.39,0.74,1.868,1.075,1.368c0.781-1.174,1.229-0.429,1.562-0.781c0.301-0.319,1.005-2.778,1.289-3.111&#10;&#9;&#9;c0.278-0.323,0.543-0.656,0.805-0.991c-0.158-1.79-0.506-3.802-1.082-5.417C22.212,30.954,22.186,30.318,23.094,28.8z"/>
    <path fill="#E65271" d="M1.8,47.49c0.046-0.017,0.086-0.024,0.11-0.023c0.419,0.007-1.129,1.954-0.684,1.954&#10;&#9;&#9;c0.751,0,1.812-0.776,2.547-0.833c1.552-0.119,3.161-0.084,4.536-0.713c1.318-0.604,1.904-2.479,2.199-2.558&#10;&#9;&#9;c0.297-0.082-0.717,2.167-0.426,2.067c0.493-0.166,0.887-0.41,1.212-0.68c1.3-1.861,1.722-11.084-0.185-10.846&#10;&#9;&#9;c-2.004,0.25,3.161-0.708,3.182-0.631c1.727,6.521-2.121,10.531-1.947,10.305c0.227-0.3,0.411-0.533,0.606-0.608&#10;&#9;&#9;c0.411-0.158-0.255,1.572,0.12,1.343c1.193-0.729,2.039-1.243,2.734-1.761c0.021-0.03,0.027-0.102,0.061-0.088&#10;&#9;&#9;c0.512,0.213,3.672,0.956,1.267-10.396c3.652,7.391,0.793,10.291,1.073,9.988c1.297-1.4,1.562-4.818,1.729-6.845&#10;&#9;&#9;c0.158-1.901-1.038-6.235-2.588-7.668c-1.091-1.008-1.069,0.24-1.479,1.204c-0.673,1.583-1.907,2.859-3.027,4.163&#10;&#9;&#9;c-0.834,0.97-1.846,1.679-2.763,2.547c-0.999,0.946-1.525,2.268-2.418,3.306c-0.798,0.928-1.78,1.667-2.539,2.635&#10;&#9;&#9;c-0.851,1.084-1.421,2.324-2.361,3.322C2.46,46.994,2.126,47.234,1.8,47.49z"/>
    <path fill="url(#SVGID_26_)" d="M8.803,48.526c2.232,0.007,3.633-1.062,5.48-2.084c1.531-0.851,3.412-0.859,4.705-2.031&#10;&#9;&#9;c1.717-1.559,2.46-3.104,2.783-5.386c0.369-2.598,0.413-5.91-0.078-8.499c-0.252-1.328-1.196-4.05-2.191-5.021l-1.194,0.76&#10;&#9;&#9;c-2.355,6.081-9.453,8.576-12.139,14.553c-0.792,1.759-1.09,4.045-1.109,5.967C5.039,48.797,7.177,48.521,8.803,48.526z"/>
    <path fill="#F6E8A0" d="M-13.406,33.33c-1.298,2.017-3.353,3.5-5.767,4.039c-0.614,0.137-1.714,0.519-0.625,1.83&#10;&#9;&#9;c1.165,1.818,2.839,2.516,3.74,3.184c3.623,2.69,2.125,2.965,4.239,3.209c0.826,0.096,0.608,0.168,1.027,0&#10;&#9;&#9;s-0.322,0.118-0.587,0.293c-2.358,1.561-2.188-1.553-1.174-0.88c3.018,2.334,9.97,3.972,11.919,3.638&#10;&#9;&#9;c0.284-0.048,2.243-1.18,2.543-1.175c0.419,0.007-1.129,1.954-0.684,1.954c0.751,0,1.812-0.776,2.547-0.833&#10;&#9;&#9;c1.521-0.117,6.146-2.238,6.113-7.822c-0.01-1.706,0.095-2.902-0.135-4.015C8.064,28.584-9.009,40.047-13.406,33.33z"/>
    <path fill="#FFFFFF" d="M7.03,38.365c-0.791,0.988-5.933,2.769-5.933,2.769s-8.54,2.943-16.415-5.438&#10;&#9;&#9;c4.025,3.195,11.098,1.855,16.213,1.265c0.676-0.079-1.461,0.603-0.901,0.81c1.9,0.703,3.659-1.267,5.553-0.887&#10;&#9;&#9;C6.43,37.061,6.961,37.54,7.03,38.365z"/>
    <path fill="#F6E8A0" d="M0.48,39.748c-3.136,0.826-6.271-0.383-6.875-0.42c0.284,0.427,0.747,1.412,3.07,1.752&#10;&#9;&#9;c0.534,0.079,1.604-0.007,2.165-0.006c1.004,0.002,1.627-0.24,2.513-0.667c0.565-0.272,1.931-0.562,2.365-0.494&#10;&#9;&#9;c0,0,4.806-0.362,3.214-1.992c-1.59-1.629-3.912,2.101-9.006,0.908C-2.073,38.995-0.909,39.826,0.48,39.748z"/>
    <g>
      <path fill="#F8D285" d="M-4.274,46.507c-1.982,1.312-5.447,0.187-5.897,0.193c-0.01,0.046,0.017,0.097,0.098,0.148&#10;&#9;&#9;&#9;c3.019,2.334,7.492,2.126,9.441,1.792c0.015-0.002,0.036-0.009,0.058-0.017c0.009-0.003,0.023-0.008,0.035-0.013&#10;&#9;&#9;&#9;c0.422-0.162,1.801-0.939,2.303-1.11c2.938-1.665,7.58-5.181,7.989-10.751c-1.669,0.742-2.869,1.465-3.791,2.169&#10;&#9;&#9;&#9;c-0.31,0.237-7.332,7.576-25.917-1.242c0,0-0.517,0.284-0.222,0.948c4.197,6.744,11.86,8.681,24.063,2.294&#10;&#9;&#9;&#9;C2.156,42.98,1.317,44.849-4.274,46.507z"/>
    </g>
    <path fill="url(#SVGID_27_)" d="M7.606,8.604c6.884,7.039,9.689,12.298,6.357,17.961C8.567,35.743-8.051,26.17-15.278,35.43&#10;&#9;&#9;c0.766-0.875,2.394-2.608,3.969-3.46c5.357-3.5,15.44-2.374,18.653-5.08C11.477,23.41,12.533,16.393,7.606,8.604z"/>
    <path fill="url(#SVGID_28_)" d="M-14.819,23.316c-0.008-0.472,1.072-3.195,0.903-3.822c-1.45-5.353-7.734-7.979-7.734-7.979&#10;&#9;&#9;s-7.037-2.832-8.155-15.776c-1.284-0.924-1.106,1.043-1.066,1.917C-30.072,14.632-15.949,12.734-14.819,23.316z"/>
    <path fill="url(#SVGID_29_)" d="M9.123-4.735C9.007-4.682,8.896-4.612,8.775-4.577c-0.617,0.172-1.238,0.33-1.856,0.506&#10;&#9;&#9;C6.724-4.016,6.538-3.927,6.347-3.854C6.348-3.812,6.35-3.771,6.351-3.73c0.222,0.04,0.441,0.11,0.663,0.113&#10;&#9;&#9;c0.887,0.01,1.775-0.002,2.663-0.004c1.253-0.003,2.512,0.003,3.721,0.369c0.59,0.18,1.165,0.45,1.706,0.751&#10;&#9;&#9;c5.713,3.18,9.75,7.834,12.179,13.895c0.497,1.239,0.878,2.52,1.172,3.82c0.018,0.072,0.026,0.147,0.048,0.272&#10;&#9;&#9;c-0.095-0.058-0.156-0.086-0.213-0.123c-3.496-2.395-7.314-4.019-11.481-4.808c-1.489-0.281-2.994-0.422-4.509-0.466&#10;&#9;&#9;c-0.114-0.003-0.258-0.046-0.333-0.124c-2.266-2.311-4.942-4.019-7.83-5.439C1.834,3.393-0.599,2.707-3.1,2.221&#10;&#9;&#9;c-3.207-0.623-6.422-1.215-9.63-1.832c-3.939-0.757-7.858-1.598-11.666-2.886c-2.415-0.816-4.756-1.797-6.896-3.202&#10;&#9;&#9;c-1.611-1.06-3.045-2.312-4.059-3.979c-0.356-0.588-0.609-1.239-0.915-1.858c-0.056-0.111-0.116-0.227-0.202-0.312&#10;&#9;&#9;c-2.124-2.077-2.96-4.604-2.634-7.536c0.242-2.169,1.018-4.153,2.127-6.02c0.131-0.219,0.242-0.447,0.344-0.64&#10;&#9;&#9;c0.053,0.473,0.095,1.003,0.169,1.528c0.469,3.341,2.19,5.829,5.117,7.491c1.703,0.97,3.537,1.611,5.438,2.031&#10;&#9;&#9;c2.084,0.46,4.186,0.847,6.287,1.228c2.551,0.461,5.116,0.846,7.596,1.628c0.482,0.151,0.959,0.326,1.432,0.506&#10;&#9;&#9;c0.61,0.229,1.18,0.524,1.711,0.918c1.758,1.295,3.684,2.287,5.715,3.081c0.055,0.021,0.109,0.045,0.163,0.066&#10;&#9;&#9;C-3-7.559-2.999-7.548-2.991-7.525c-0.033,0.003-0.062,0.007-0.092,0.007C-5.355-7.52-7.63-7.532-9.902-7.52&#10;&#9;&#9;c-2.032,0.013-4.058-0.05-6.074-0.315c-2.791-0.37-5.492-1.093-8.122-2.094c-3.103-1.184-6.04-2.699-8.887-4.399&#10;&#9;&#9;c-0.076-0.046-0.155-0.09-0.257-0.108c0.053,0.043,0.103,0.091,0.155,0.131c3.117,2.363,6.436,4.381,10.097,5.796&#10;&#9;&#9;c2.549,0.983,5.181,1.629,7.901,1.917c2.396,0.253,4.793,0.229,7.191,0.055c2.074-0.151,4.147-0.302,6.222-0.444&#10;&#9;&#9;c0.18-0.015,0.373,0.011,0.547,0.062c2.051,0.624,4.15,0.991,6.269,1.292c1.251,0.179,2.486,0.479,3.726,0.726&#10;&#9;&#9;C8.951-4.884,9.031-4.84,9.111-4.807C9.115-4.784,9.119-4.76,9.123-4.735z"/>
    <path opacity="0.2" fill="#FFFFFF" enable-background="new    " d="M-29.061-11.728c8.124,9.705,29.202,4.618,38.184,6.992&#10;&#9;&#9;C3.436-8.003-1.19-7.438-1.19-7.438S-20.599-5.295-29.061-11.728z"/>
    <path fill="#E65271" d="M33.056,25.101c-0.275-0.047-0.478-0.06-0.664-0.12c-0.732-0.229-1.495-0.399-2.181-0.729&#10;&#9;&#9;c-0.653-0.315-1.258-0.762-1.824-1.222c-1.097-0.892-2.144-1.841-3.226-2.744c-0.886-0.739-1.827-1.4-2.947-1.743&#10;&#9;&#9;c-0.361-0.11-0.736-0.173-1.114-0.235c1.46,0.735,2.277,2.045,3.124,3.389c-0.072-0.013-0.098-0.01-0.117-0.019&#10;&#9;&#9;c-2.226-1.089-4.407-2.252-6.388-3.759c-0.529-0.403-0.946-0.861-1.244-1.486c-0.476-0.994-1.079-1.929-1.627-2.887&#10;&#9;&#9;c-0.024-0.043-0.05-0.085-0.117-0.2c0.48,0.101,0.9,0.168,1.312,0.273c1.744,0.446,3.366,1.201,4.958,2.021&#10;&#9;&#9;c2.487,1.287,4.853,2.775,7.151,4.372c0.069,0.048,0.14,0.094,0.232,0.122c-0.021-0.029-0.038-0.061-0.063-0.085&#10;&#9;&#9;c-2.725-2.717-5.781-4.955-9.353-6.438c-1.545-0.644-3.146-1.073-4.813-1.246c-0.062-0.009-0.143-0.028-0.178-0.071&#10;&#9;&#9;c-0.371-0.449-0.733-0.903-1.143-1.41c1.016,0.218,1.973,0.409,2.924,0.63c2.66,0.618,5.268,1.403,7.759,2.535&#10;&#9;&#9;c1.84,0.836,3.593,1.819,5.07,3.217c1.948,1.846,3.382,4.03,4.218,6.588C32.928,24.229,32.966,24.637,33.056,25.101z"/>
    <path opacity="0.6" fill="#8B4FBA" enable-background="new    " d="M-12.963,0.399c0.789,0.265,1.688,0.593,2.647,0.961&#10;&#9;&#9;C0.99,4.886,4.726,7.825,4.726,7.825l11.357,8.408c0,0,1.856-1.421,4.258,0.437c-1.637-1.965-6.66-3.494-6.66-3.494&#10;&#9;&#9;s-0.232-1.546-1.87-2.747c4.47,1.519,11.979,1.084,17.189,5.775c-3.94-11.144-13.725-2.649-23.182-9.58&#10;&#9;&#9;C4.726,5.969-9.698,2.282-2.53,2.535C4.637,2.787,9.36-2.104,15.347-0.501C9.727-2.539,4.761,0.727-3.067,1.276&#10;&#9;&#9;c1.218-0.244,2.887-0.915,3.598-1.832C-2.307,1.47-7.861,1.563-9.18,1.1C-10.379,0.948-11.638,0.72-12.963,0.399z"/>
    <path opacity="0.2" fill="#2B2B2B" enable-background="new    " d="M14.155-3.038c-8.237-3.272-37.35,6.206-50.421-8.498&#10;&#9;&#9;c0,0-0.979,0.438,4.226,6.273C-11.572,4.521,3.661-4.731,14.155-3.038z"/>
    <path opacity="0.7" fill="url(#SVGID_30_)" enable-background="new    " d="M26.891,9.996c2.437,1.371,0.457-1.98-1.979-3.959&#10;&#9;&#9;c-9.594-6.7-13.933,0.924-23.448-2.745C16.023,11.317,17.449,1.316,26.891,9.996z"/>
    <path opacity="0.2" fill="#8B4FBA" enable-background="new    " d="M26.146,8.094c2.438,1.371,1.202-0.078-1.234-2.058&#10;&#9;&#9;c-9.594-6.7-13.933,0.924-23.448-2.745C10.831,8.503,16.705-0.585,26.146,8.094z"/>
    <g>
      <path opacity="0.7" fill="url(#SVGID_31_)" enable-background="new    " d="M-21.22,11.687&#10;&#9;&#9;&#9;c-4.438-4.062-0.958-12.957-0.958-12.957l-3.159-0.677C-25.337-1.947-28.525,6.652-21.22,11.687z"/>
      <path opacity="0.7" fill="url(#SVGID_32_)" enable-background="new    " d="M-13.56,18.501c3.345-5.953-5.526-14.142-0.762-17.041&#10;&#9;&#9;&#9;c-0.076-0.391-2.724-1.719-2.6-1.335c-5.879,9.021,3.817,11.172,2.544,16.812c-6.799-9.275-6.872-11.111-3.569-16.983&#10;&#9;&#9;&#9;c-0.041-0.032-0.404-0.506-0.765-0.236C-23.877,3.591-25.331,7.942-13.56,18.501z"/>
    </g>
    <path opacity="0.2" fill="#8B4FBA" enable-background="new    " d="M-2.629,6.403c0.212-2.788,2.159,1.741,2.454,4.867&#10;&#9;&#9;c0.254,11.698-11.607,8.869-12.149,18.333C-13.478,18.837-0.643,19.073-2.629,6.403z"/>
    <path opacity="0.3" fill="#FFFFFF" enable-background="new    " d="M8.871,11.043c0.21-2.788,5.808,4.388,6.104,7.513&#10;&#9;&#9;C13.097,38.627-7.561,26.42-12.962,33.814C-8.501,25.715,20.374,36.984,8.871,11.043z"/>
    <path fill="url(#SVGID_33_)" d="M46.669-28.038c-0.303-0.266-0.552-0.508-0.826-0.718c-0.22-0.167-0.461-0.315-0.709-0.438&#10;&#9;&#9;c-0.604-0.292-1.212-0.33-1.823-0.006c-0.951,0.504-1.971,0.542-3.012,0.428c-0.303-0.032-0.501-0.176-0.64-0.459&#10;&#9;&#9;c-1.043-2.146-2.781-3.524-4.958-4.396c-0.249-0.1-0.366-0.216-0.41-0.487c-0.111-0.683-0.157-1.355,0.005-2.036&#10;&#9;&#9;c0.263-1.089,0.941-1.87,1.853-2.471c0.956-0.63,2.021-1.001,3.122-1.277c1.323-0.327,2.662-0.548,4.029-0.544&#10;&#9;&#9;c0.695,0.001,1.382,0.082,2.05,0.284c1.493,0.451,2.414,1.448,2.753,2.955c0.219,0.979,0.426,1.968,0.526,2.963&#10;&#9;&#9;c0.229,2.281-0.382,4.328-1.889,6.084C46.713-28.122,46.695-28.081,46.669-28.038z"/>
    <g>
      <path opacity="0.3" fill="#F6E8A0" enable-background="new    " d="M42.355-28.207c0.113-0.685,1.399-0.871,1.996-0.851&#10;&#9;&#9;&#9;c1.051,0.035,1.731,0.648,2.414,1.444c0.11,0.13,0.196,0.258,0.271,0.389c1.19-0.949,1.855-2.234,1.672-3.545&#10;&#9;&#9;&#9;c-0.324-2.31-3.169-3.817-6.352-3.37c-2.201,0.31-3.988,1.475-4.772,2.928c0.582,0.744,0.81,1.689,1.577,2.333&#10;&#9;&#9;&#9;C39.908-28.255,41.384-28.165,42.355-28.207z"/>
    </g>
    <path fill="url(#SVGID_34_)" d="M-35.045-6.486c0.689-0.34,1.169-0.414,1.596-0.26c-0.491,2.5-0.748,5.021-0.661,7.558&#10;&#9;&#9;c0.098,2.808,0.584,5.542,1.816,8.102c0.156,0.325,0.337,0.64,0.549,0.94c-0.013-0.05-0.021-0.101-0.04-0.147&#10;&#9;&#9;c-0.663-1.665-0.969-3.403-1.07-5.187c-0.157-2.78,0.17-5.516,0.771-8.225c0.014-0.066,0.034-0.13,0.061-0.226&#10;&#9;&#9;c0.393,0.264,0.776,0.516,1.149,0.781c0.045,0.033,0.046,0.154,0.036,0.231c-0.191,1.645-0.177,3.289,0,4.934&#10;&#9;&#9;c0.254,2.35,0.834,4.615,1.661,6.821c1.153,3.08,2.714,5.94,4.622,8.613c0.044,0.062,0.089,0.124,0.131,0.187&#10;&#9;&#9;c0.009,0.014,0.008,0.031,0.021,0.082c-0.278-0.098-0.538-0.187-0.798-0.281c-1.756-0.636-3.476-1.354-5.132-2.222&#10;&#9;&#9;c-0.259-0.134-0.509-0.303-0.728-0.496c-2.331-2.064-3.705-4.674-4.326-7.701c-0.093-0.45-0.159-0.908-0.284-1.36&#10;&#9;&#9;c0.028,0.502,0.041,1.006,0.085,1.508c0.208,2.389,0.655,4.734,1.46,6.997c0.205,0.575,0.062,1.094-0.025,1.634&#10;&#9;&#9;c-0.027,0.168-0.146,0.322-0.224,0.483c-0.129-0.125-0.288-0.23-0.381-0.378c-0.662-1.053-1.088-2.209-1.438-3.395&#10;&#9;&#9;c-0.535-1.814-0.854-3.68-1.117-5.554c-0.244-1.75-0.4-3.51-0.392-5.279c0.009-1.789,0.146-3.562,0.741-5.27&#10;&#9;&#9;c0.283-0.812,0.664-1.573,1.213-2.238c0.196-0.238,0.437-0.441,0.656-0.661C-35.076-6.491-35.061-6.489-35.045-6.486z"/>
    <path opacity="0.2" fill="#2B2B2B" enable-background="new    " d="M-26.935,17.654c0,0-4.446-0.625-6.321-3.683&#10;&#9;&#9;c-1.876-3.056-2.415-8.312-2.415-8.312s-0.96-7.839,2.222-12.404C-35.465,9.995-26.935,17.654-26.935,17.654z"/>
    <path fill="url(#SVGID_35_)" d="M-35.045-6.486c-0.016-0.003-0.031-0.005-0.047-0.007c-0.917,0.358-1.634,0.975-2.219,1.75&#10;&#9;&#9;c-0.853,1.13-1.302,2.437-1.578,3.804C-39.3,1.099-39.335,3.159-39.16,5.22c0.1,1.177,0.273,2.35,0.415,3.521&#10;&#9;&#9;c0.005,0.042,0.006,0.083,0.01,0.168c-0.072-0.062-0.123-0.097-0.164-0.14C-42.3,5.244-44.856,1.185-46.53-3.422&#10;&#9;&#9;c-0.044-0.12-0.03-0.282,0.008-0.408c0.999-3.194,2.445-6.183,4.216-9.013c0.748-1.194,1.573-2.34,2.364-3.507&#10;&#9;&#9;c0.062-0.092,0.134-0.175,0.248-0.323c0.028,0.587,0.341,1.062,0.1,1.637c-0.309,0.733-0.508,1.504-0.467,2.316&#10;&#9;&#9;c0.016,0.3,0.088,0.58,0.296,0.858c0.207-0.588,0.367-1.167,0.828-1.61c0.135,0.241,0.162,0.451,0.077,0.709&#10;&#9;&#9;c-0.321,0.958-0.544,1.937-0.483,2.956c0.019,0.312,0.09,0.619,0.175,0.933c0.279-0.765,0.74-1.391,1.273-1.992&#10;&#9;&#9;c0.031,0.046,0.059,0.076,0.076,0.112c0.711,1.47,1.622,2.805,2.707,4.023C-35.063-6.673-35.066-6.568-35.045-6.486z"/>
    <path opacity="0.2" fill="#2B2B2B" enable-background="new    " d="M-38.485-10.406c0,0-5,9.785-2.66,18.188&#10;&#9;&#9;c0.291,0.23-0.469-0.363-1.374-1.404c-0.138-0.158-1.815-11.254,1.588-16.146c-4.574,5.426-2.408,15.121-2.601,14.838&#10;&#9;&#9;c-0.409-0.604-0.776-1.271-1.018-1.968c-2.339-10.956,5.745-17.55,5.745-17.55L-38.485-10.406z"/>
    <path fill="#E65270" d="M38.031-45.635c-0.207-0.314-0.446-0.63-0.636-0.978c-0.175-0.316-0.21-0.676-0.094-1.032&#10;&#9;&#9;c0.143-0.44,0.438-0.609,0.895-0.545c0.367,0.056,0.735,0.112,1.104,0.124c0.392,0.013,0.42-0.04,0.464-0.421&#10;&#9;&#9;c0.011-0.101,0.024-0.205,0.061-0.297c0.148-0.377,0.367-0.702,0.805-0.76c0.425-0.056,0.724,0.182,0.954,0.509&#10;&#9;&#9;c0.685,0.97,0.117,2.281-1.073,2.439c-0.369,0.049-0.754-0.011-1.132-0.021c-0.073-0.003-0.145-0.016-0.218-0.022&#10;&#9;&#9;c-0.018,0.021-0.036,0.045-0.055,0.066c0.102,0.119,0.181,0.277,0.309,0.352c0.272,0.153,0.562,0.216,0.896,0.178&#10;&#9;&#9;c2.037-0.233,3.98,0.008,5.708,1.229c0.959,0.679,1.667,1.57,2.209,2.604c0.003,0.007,0.01,0.014,0.013,0.021&#10;&#9;&#9;c0.068,0.188,0.207,0.417,0.022,0.56c-0.108,0.084-0.354,0.047-0.517-0.006c-0.761-0.25-1.5-0.567-2.27-0.777&#10;&#9;&#9;c-1.126-0.308-2.292-0.318-3.45-0.255c-1.565,0.084-3.103,0.333-4.581,0.888c-1.657,0.622-3.152,1.5-4.449,2.709&#10;&#9;&#9;c-0.149,0.14-0.3,0.277-0.467,0.39c-0.283,0.188-0.476,0.095-0.487-0.247c-0.008-0.242,0.016-0.491,0.071-0.729&#10;&#9;&#9;c0.554-2.417,2.021-4.117,4.188-5.24C36.868-45.193,37.478-45.402,38.031-45.635z"/>
    <path fill="url(#SVGID_36_)" d="M-48.025-0.646c-0.087-8.721,2.718-16.289,8.558-22.715c-0.082,0.592-0.191,1.184-0.241,1.775&#10;&#9;&#9;c-0.083,1.009-0.136,2.021-0.185,3.035c-0.01,0.206-0.062,0.369-0.178,0.534c-2.187,3.155-4.193,6.419-5.793,9.918&#10;&#9;&#9;c-0.812,1.775-1.506,3.598-1.878,5.522C-47.863-1.955-47.928-1.324-48.025-0.646z"/>
    <path fill="url(#SVGID_37_)" d="M23.298,28.031c1.046,1.809,2.125,3.55,2.508,5.601c0.064,0.343,0.044,0.708,0.023,1.062&#10;&#9;&#9;c-0.114,1.978,0.091,3.909,0.732,5.793c0.057,0.167,0.126,0.343,0.122,0.513c-0.003,0.141-0.076,0.304-0.17,0.415&#10;&#9;&#9;c-0.12,0.141-0.283,0.091-0.437,0.003c-0.493-0.279-0.851-0.689-1.138-1.166c-0.584-0.959-0.895-2.021-1.112-3.106&#10;&#9;&#9;c-0.595-2.975-0.685-5.983-0.568-9.007C23.259,28.123,23.269,28.109,23.298,28.031z"/>
    <path opacity="0.4" fill="#8B4FBA" enable-background="new    " d="M23.914,39.555c0.19,0.404,0.972,1.288,1.286,1.543l0.707,0.451&#10;&#9;&#9;c-0.71-1.812-0.965-3.656-0.965-5.586c0-1.626,0.501-3.136,0.58-4.754c0.064-1.333-0.517-2.003-1.209-3.088&#10;&#9;&#9;c-0.312-0.488-0.738-1.545-1.416-1.549c-0.314,0.771-0.263,1.737-0.271,2.562c-0.009,0.987-0.167,1.95-0.128,2.947&#10;&#9;&#9;C22.572,33.963,23.588,38.861,23.914,39.555z"/>
    <path fill="#E65270" d="M48.256-38.39c-0.03-0.024-0.04-0.028-0.043-0.034c-0.769-1.581-2.136-2.271-3.788-2.41&#10;&#9;&#9;c-2.729-0.232-5.347,0.279-7.831,1.421c-1.047,0.482-1.943,1.182-2.447,2.258c-0.218,0.465-0.324,0.983-0.487,1.494&#10;&#9;&#9;c-0.542,0.003-1.187-0.533-1.23-1.111c-0.014-0.188,0.065-0.398,0.15-0.574c0.343-0.709,0.894-1.246,1.495-1.732&#10;&#9;&#9;c1.545-1.247,3.314-2.034,5.232-2.498c2.519-0.61,5.038-0.628,7.53,0.127c0.59,0.179,1.149,0.479,1.697,0.771&#10;&#9;&#9;c0.424,0.227,0.64,0.615,0.577,1.12C49.043-39.014,48.761-38.624,48.256-38.39z"/>
    <path opacity="0.4" fill="#2B2B2B" enable-background="new    " d="M48.256-38.39c-0.03-0.024-0.04-0.028-0.043-0.034&#10;&#9;&#9;c-0.769-1.581-2.136-2.271-3.788-2.41c-2.729-0.232-5.347,0.279-7.831,1.421c-1.047,0.482-1.943,1.182-2.447,2.258&#10;&#9;&#9;c-0.218,0.465-0.324,0.983-0.487,1.494c-0.542,0.003-1.187-0.533-1.23-1.111c-0.014-0.188,0.065-0.398,0.15-0.574&#10;&#9;&#9;c0.343-0.709,0.894-1.246,1.495-1.732c1.545-1.247,3.314-2.034,5.232-2.498c2.519-0.61,5.038-0.628,7.53,0.127&#10;&#9;&#9;c0.59,0.179,1.149,0.479,1.697,0.771c0.424,0.227,0.64,0.615,0.577,1.12C49.043-39.014,48.761-38.624,48.256-38.39z"/>
    <g>
      <path fill="#0D0D0D" d="M20.855-13.299c-0.019-0.977,0.185-1.896,0.606-2.768c0.852-1.751,2.257-2.896,4.017-3.647&#10;&#9;&#9;&#9;c1.535-0.656,3.146-0.879,4.806-0.793c0.021,0.001,0.042,0.01,0.113,0.032c-1.161,0.179-2.242,0.468-3.286,0.885&#10;&#9;&#9;&#9;c-1.81,0.723-3.406,1.751-4.645,3.284c-0.665,0.82-1.166,1.733-1.508,2.735C20.928-13.479,20.89-13.389,20.855-13.299z"/>
      <path fill="#0D0D0D" d="M34.411,0.682c1.787,1.091,2.173,3.654,1.028,5.119C35.708,3.971,35.338,2.271,34.411,0.682z"/>
      <path fill="#0D0D0D" d="M37.358-9.376c0.874-0.716,1.925-0.914,3.022-0.895c0.438,0.011,0.874,0.083,1.312,0.104&#10;&#9;&#9;&#9;c0.237,0.011,0.485-0.004,0.718-0.055c0.442-0.101,0.639-0.033,0.79,0.391c0.342,0.967,0.503,1.969,0.388,2.99&#10;&#9;&#9;&#9;C43.532-6.351,43.43-5.849,43.236-5.4c-0.763,1.783-3.073,2.516-4.784,1.542c-0.22-0.125-0.428-0.271-0.625-0.433&#10;&#9;&#9;&#9;c-0.208-0.169-0.396-0.365-0.612-0.567c0.096-0.111,0.176-0.218,0.266-0.311c0.207-0.212,0.285-0.463,0.222-0.745&#10;&#9;&#9;&#9;C37.507-6.8,37.89-7.429,38.629-7.832c0.528-0.288,1.106-0.495,1.681-0.687c0.296-0.101,0.601-0.173,0.911-0.235&#10;&#9;&#9;&#9;c0.095,0.003,0.135,0.019,0.209,0.078c0.461,0.298,0.791,0.689,0.995,1.201c0.11-0.302,0.088-0.804-0.009-1.177&#10;&#9;&#9;&#9;c-0.06-0.23-0.021-0.794,0.096-0.958c-0.009-0.01-0.018-0.021-0.024-0.03c-0.055,0.026-0.109,0.054-0.161,0.085&#10;&#9;&#9;&#9;c-0.592,0.363-1.254,0.478-1.929,0.562c-0.835,0.106-1.647,0.297-2.358,0.778c-0.856,0.579-1.315,1.384-1.364,2.419&#10;&#9;&#9;&#9;c-0.002,0.032-0.007,0.062-0.018,0.147C35.884-7.162,36.121-8.361,37.358-9.376z"/>
    </g>
    <path fill="url(#SVGID_38_)" d="M38.491-6.119c0-0.941,0.763-1.704,1.702-1.704c0.942,0,1.705,0.763,1.705,1.704&#10;&#9;&#9;s-0.763,1.704-1.705,1.704C39.254-4.415,38.491-5.178,38.491-6.119z"/>
    <use width="6" height="7" x="-3" y="-3.5" transform="matrix(-0.2012 0 0 0.2012 39.0508 -5.1309)" overflow="visible" xlink:href="#New_Symbol_2"/>
    <path fill="#FFFFFF" d="M46.108-34.83c0.302-0.188,0.773-0.108,0.948,0.224c0.726,1.382,0.66,2.992-0.051,4.366&#10;&#9;&#9;c-0.408,0.788-1.63,0.152-1.223-0.633c0.485-0.939,0.584-2.093,0.101-3.014C45.71-34.217,45.772-34.623,46.108-34.83z"/>
    <g>
      <path opacity="0.2" fill="#430A1D" enable-background="new    " d="M-27.877-38.809c-0.43,12.319,7.165,8.312,10.544,13.513&#10;&#9;&#9;&#9;c0.276,0.324,0.437,0.688,0.563,0.97C-20.563-26.414-31.194-25.019-27.877-38.809z"/>
    </g>
    <g>
      <path opacity="0.2" fill="#2B2B2B" enable-background="new    " d="M-33.661-14.793c10.431,8.98,31.025,8,32.532,7.873&#10;&#9;&#9;&#9;c-8.638-6.161-34.552-0.369-35.502-19.122C-38.314-20.716-36.147-16.934-33.661-14.793z"/>
    </g>
    <path opacity="0.2" fill="#430A1D" enable-background="new    " d="M-16.988-24.815c0,0-0.001-2.722,0-4.645&#10;&#9;&#9;c0.001-1.922-2.416-0.874-3.348,1.765C-18.007-26.782-16.988-24.815-16.988-24.815z"/>
    <path opacity="0.2" fill="#430A1D" enable-background="new    " d="M-18.28-25.728c1.747,3.083-0.048,5.75-0.327,5.864&#10;&#9;&#9;c0.993,0.052,2.9,1.914,3.354,2.534c0.71,0.971,0.753,2.381,0.813,3.534c1.409,0.063,2.4,0.926,3.682,1.232&#10;&#9;&#9;c-1.09-1.021-2.569-2.229-3.231-3.605c-0.589-1.222-1.087-2.629-1.483-3.929c-0.323-1.065-0.624-2.123-0.824-3.222&#10;&#9;&#9;c-0.148-0.818-0.631-1.919-0.543-2.716c0,0-0.18-7.171,1.258-10.712c-2.722,0.927-4.151,3.149-4.647,4.009&#10;&#9;&#9;c-0.561,0.973-1.618,3.392-0.309,4.933C-19.691-27.497-18.765-26.583-18.28-25.728z"/>
    <path fill="#0D0D0D" d="M-43.785-35.043c5.482-7.553,12.814-12.407,21.927-14.516c3.036-0.703,6.123-0.896,9.237-0.884&#10;&#9;&#9;c7.618,0.033,15.235,0.014,22.852,0.015c5.124,0.002,10.248,0,15.371,0.013c1.219,0.002,2.435,0.083,3.601,0.489&#10;&#9;&#9;c1.144,0.396,2.027,1.097,2.518,2.232c0.705,1.639,0.103,3.701-1.417,4.812c-1.116,0.814-2.396,1.051-3.745,0.991&#10;&#9;&#9;c-0.362-0.018-0.724-0.074-1.085-0.111c-0.083-0.009-0.172-0.028-0.251-0.01c-0.116,0.025-0.226,0.083-0.338,0.125&#10;&#9;&#9;c0.064,0.094,0.11,0.208,0.194,0.277c1.393,1.185,2.352,2.645,2.811,4.417c0.167,0.645,0.216,1.3,0.156,1.961&#10;&#9;&#9;c-0.004,0.052-0.008,0.103-0.01,0.152c-0.013,0.342,0.103,0.448,0.441,0.464c0.996,0.046,1.992,0.085,2.985,0.163&#10;&#9;&#9;c0.475,0.038,0.944,0.154,1.479,0.188c-0.063-0.082-0.109-0.203-0.192-0.241c-0.794-0.367-1.313-0.979-1.573-1.795&#10;&#9;&#9;c-0.305-0.961-0.519-1.943-0.475-2.962c0.068-1.646,0.708-3.062,1.75-4.311c0.937-1.12,2.091-1.963,3.396-2.603&#10;&#9;&#9;c0.168-0.082,0.212-0.154,0.154-0.344c-0.167-0.538-0.147-1.082,0.043-1.62c0.115-0.328,0.326-0.566,0.627-0.735&#10;&#9;&#9;c0.686-0.382,1.476-0.437,2.224-0.123c0.021-0.107,0.039-0.228,0.066-0.332c0.216-0.82,0.745-1.146,1.544-1.626&#10;&#9;&#9;c0.186,0,0.372,0,0.558,0c0.023,0,0.044,0.059,0.067,0.063c1.407,0.237,1.998,1.523,1.835,2.741&#10;&#9;&#9;c-0.042,0.314-0.133,0.623-0.194,0.906c0.637,0.168,1.294,0.298,1.921,0.517c2.895,1.008,4.806,2.962,5.616,5.938&#10;&#9;&#9;c0.323,1.191,0.123,2.258-0.801,3.142c-0.058,0.058-0.063,0.198-0.049,0.293c0.179,1.125,0.457,2.242,0.53,3.374&#10;&#9;&#9;c0.173,2.686-0.671,5.041-2.538,7.004c-0.11,0.115-0.117,0.213-0.088,0.354c0.123,0.602,0.264,1.203,0.338,1.812&#10;&#9;&#9;c0.153,1.229-0.316,2.247-1.135,3.134c-0.072,0.079-0.153,0.164-0.187,0.262c-0.229,0.683-0.702,1.148-1.327,1.462&#10;&#9;&#9;c-1.26,0.635-2.596,0.764-3.973,0.535c-0.902-0.151-1.725-0.531-2.54-0.917c-0.36-0.17-0.689-0.255-1.022,0.036&#10;&#9;&#9;c-0.056,0.049-0.145,0.061-0.198,0.107c-0.092,0.087-0.247,0.208-0.229,0.281c0.024,0.112,0.156,0.239,0.272,0.285&#10;&#9;&#9;c0.634,0.25,1.289,0.385,1.976,0.385c0.515,0,1.033,0.014,1.543,0.075c1.627,0.197,3.119,0.784,4.52,1.62&#10;&#9;&#9;c0.093,0.056,0.197,0.104,0.302,0.121c1.811,0.277,3.266,1.7,3.582,3.502c0.032,0.182,0.028,0.391,0.122,0.536&#10;&#9;&#9;c0.767,1.186,0.83,2.446,0.386,3.741c-0.281,0.819-0.671,1.604-0.98,2.413C48.648-6.8,48.479-6.352,48.437-5.9&#10;&#9;&#9;c-0.112,1.283-0.282,2.554-0.626,3.793c-0.735,2.646-2.045,4.939-4.148,6.738c-2.123,1.815-4.612,2.771-7.369,3.064&#10;&#9;&#9;c-0.243,0.025-0.371,0.103-0.478,0.343c-0.602,1.365-1.592,2.324-3.017,2.822c-0.37,0.129-0.739,0.158-1.087,0.001&#10;&#9;&#9;c-0.496-0.229-1.001-0.457-1.446-0.771c-1.164-0.812-2.085-1.867-2.85-3.06c-0.059-0.09-0.126-0.208-0.215-0.238&#10;&#9;&#9;c-0.12-0.039-0.297-0.053-0.389,0.011c-0.071,0.048-0.087,0.242-0.059,0.355c0.032,0.133,0.134,0.251,0.214,0.368&#10;&#9;&#9;c2.026,2.93,3.315,6.153,3.908,9.666c0.02,0.11,0.098,0.229,0.181,0.312c0.497,0.507,1.012,0.996,1.505,1.507&#10;&#9;&#9;c0.79,0.815,1.274,1.801,1.532,2.897c0.067,0.287,0.099,0.582,0.119,0.875c0.006,0.089-0.081,0.183-0.125,0.275&#10;&#9;&#9;c-0.095-0.055-0.219-0.088-0.277-0.167c-0.135-0.184-0.23-0.395-0.354-0.585c-0.082-0.126-0.189-0.233-0.286-0.354&#10;&#9;&#9;c-0.03,0.071-0.023,0.111-0.008,0.148c0.531,1.35,0.899,2.741,1.077,4.183c0.05,0.401,0.084,0.808,0.094,1.212&#10;&#9;&#9;c0.008,0.294-0.187,0.48-0.384,0.401c-0.105-0.043-0.196-0.131-0.277-0.212c-0.788-0.78-1.717-1.359-2.669-1.907&#10;&#9;&#9;c-0.021,0.029-0.037,0.042-0.038,0.057c-0.026,0.142-0.052,0.282-0.073,0.424c-0.255,1.665-0.694,3.284-1.201,4.89&#10;&#9;&#9;c-0.388,1.226-0.607,2.479-0.393,3.771c0.128,0.769,0.401,1.467,1.054,1.957c0.05,0.037,0.083,0.096,0.14,0.162&#10;&#9;&#9;c-0.076,0.039-0.123,0.077-0.176,0.088c-0.944,0.208-1.919,0.086-2.448-0.997c-0.06-0.121-0.14-0.23-0.25-0.412&#10;&#9;&#9;c-0.119,0.238-0.237,0.394-0.275,0.564c-0.188,0.854-0.234,1.723-0.154,2.596c0.101,1.078,0.482,2.065,0.951,3.027&#10;&#9;&#9;c0.121,0.25,0.236,0.507,0.314,0.771c0.139,0.479-0.128,0.833-0.629,0.825c-0.249-0.005-0.511-0.044-0.741-0.131&#10;&#9;&#9;c-1.234-0.464-2.172-1.279-2.796-2.446c-0.051-0.095-0.097-0.189-0.153-0.303c-0.495,0.481-0.946,0.95-1.181,1.592&#10;&#9;&#9;c-0.151,0.411-0.349,0.807-0.554,1.192c-0.148,0.276-0.258,0.27-0.438,0.019c-0.049-0.068-0.092-0.142-0.145-0.207&#10;&#9;&#9;c-0.138-0.167-0.245-0.168-0.354,0.021c-0.097,0.166-0.17,0.349-0.236,0.528c-0.322,0.87-0.848,1.592-1.572,2.169&#10;&#9;&#9;c-0.049,0.037-0.105,0.066-0.22,0.137c0.042-0.275,0.077-0.488,0.105-0.702c0.03-0.219,0.055-0.438,0.083-0.669&#10;&#9;&#9;c-0.066,0.008-0.085,0.006-0.098,0.014c-0.071,0.045-0.142,0.092-0.211,0.141c-2.924,2.021-6.121,3.425-9.577,4.245&#10;&#9;&#9;c-1.053,0.25-2.157,0.338-3.108,0.936c-0.021,0.014-0.048,0.021-0.071,0.032c-0.188,0.074-0.326,0.033-0.472-0.113&#10;&#9;&#9;c-0.093-0.092-0.259-0.133-0.391-0.131c-0.423,0.01-0.844,0.103-1.265,0.138c-0.386,0.032-0.784,0.12-1.156,0.213&#10;&#9;&#9;c-0.636,0.161-1.255,0.78-1.881,0.78c-0.152,0-0.306,0-0.457,0c-0.146,0-0.319-0.42-0.437-0.567&#10;&#9;&#9;c-0.207-0.259-0.461-0.562-0.786-0.583c-2.154-0.134-4.283-0.446-6.379-0.969c-3.192-0.792-6.191-2.021-8.877-3.953&#10;&#9;&#9;c-1.963-1.413-3.647-3.091-4.841-5.218c-0.244-0.432-0.437-0.896-0.63-1.353c-0.147-0.352-0.182-0.724-0.06-1.093&#10;&#9;&#9;c0.102-0.303,0.331-0.471,0.639-0.423c1.755,0.276,3.24-0.365,4.61-1.36c1.362-0.991,2.4-2.261,2.992-3.849&#10;&#9;&#9;c0.872-2.346,0.4-4.446-1.244-6.305c-0.166-0.188-0.354-0.358-0.556-0.562c-0.076,0.285-0.139,0.544-0.214,0.803&#10;&#9;&#9;c-0.372,1.27-0.903,2.455-1.807,3.445c-0.525,0.577-0.733-0.106-0.601-1.151c0.284-2.222-0.398-4.133-1.945-5.739&#10;&#9;&#9;c-0.094-0.099-0.236-0.16-0.369-0.207c-1.63-0.578-3.271-1.126-4.892-1.729c-2.894-1.076-5.688-2.371-8.336-3.965&#10;&#9;&#9;c-0.036-0.021-0.074-0.041-0.113-0.062c-0.251,0.162-0.354,0.404-0.343,0.674c0.014,0.36,0.073,0.72,0.115,1.079&#10;&#9;&#9;c0.004,0.043,0.018,0.083,0.022,0.125c0.086,0.635-0.162,0.842-0.747,0.558c-0.293-0.143-0.562-0.38-0.773-0.631&#10;&#9;&#9;c-0.674-0.807-1.092-1.763-1.493-2.721c-0.212-0.506-0.38-1.03-0.594-1.535c-0.078-0.185-0.201-0.371-0.353-0.5&#10;&#9;&#9;c-2.293-1.95-4.429-4.048-6.24-6.464c-1.551-2.07-2.875-4.271-3.95-6.625c-0.027-0.062-0.058-0.122-0.088-0.182&#10;&#9;&#9;c-0.008-0.014-0.024-0.021-0.058-0.052c-0.352,2.063-0.422,4.117-0.215,6.192c-0.165-0.616-0.348-1.229-0.492-1.85&#10;&#9;&#9;c-0.588-2.504-0.771-5.039-0.596-7.604c0.009-0.13-0.024-0.27-0.064-0.396c-0.763-2.398-1.291-4.849-1.515-7.354&#10;&#9;&#9;C-51.077-19.923-48.95-27.925-43.785-35.043z M-45.864-8.099c1.6-3.499,3.606-6.763,5.793-9.918&#10;&#9;&#9;c0.115-0.166,0.168-0.329,0.178-0.534c0.049-1.014,0.102-2.025,0.185-3.035c0.05-0.594,0.159-1.186,0.241-1.775&#10;&#9;&#9;c-5.84,6.426-8.645,13.994-8.558,22.715c0.098-0.677,0.162-1.309,0.283-1.929C-47.37-4.501-46.676-6.322-45.864-8.099z&#10;&#9;&#9; M-24.403,17.72c-0.013-0.051-0.012-0.068-0.021-0.082c-0.042-0.062-0.087-0.124-0.131-0.187c-1.908-2.673-3.469-5.534-4.622-8.613&#10;&#9;&#9;c-0.827-2.206-1.407-4.473-1.661-6.821c-0.177-1.645-0.191-3.289,0-4.934c0.01-0.077,0.009-0.198-0.036-0.231&#10;&#9;&#9;c-0.373-0.267-0.757-0.519-1.149-0.781c-0.026,0.095-0.047,0.158-0.061,0.226c-0.602,2.709-0.929,5.443-0.771,8.225&#10;&#9;&#9;c0.102,1.782,0.407,3.521,1.07,5.187c0.019,0.048,0.027,0.099,0.04,0.147c-0.212-0.303-0.393-0.615-0.549-0.94&#10;&#9;&#9;c-1.232-2.561-1.719-5.294-1.816-8.102c-0.087-2.536,0.17-5.058,0.661-7.558c-0.427-0.153-0.906-0.08-1.596,0.26&#10;&#9;&#9;c-0.021-0.083-0.019-0.188-0.067-0.244c-1.085-1.22-1.996-2.555-2.707-4.023c-0.018-0.037-0.045-0.066-0.076-0.112&#10;&#9;&#9;c-0.533,0.604-0.994,1.229-1.273,1.992c-0.085-0.312-0.156-0.62-0.175-0.933c-0.061-1.021,0.162-1.998,0.483-2.956&#10;&#9;&#9;c0.085-0.258,0.058-0.468-0.077-0.709c-0.461,0.442-0.621,1.022-0.828,1.61c-0.208-0.278-0.28-0.56-0.296-0.858&#10;&#9;&#9;c-0.041-0.812,0.158-1.583,0.467-2.316c0.241-0.573-0.071-1.05-0.1-1.637c-0.114,0.148-0.187,0.23-0.248,0.323&#10;&#9;&#9;c-0.791,1.167-1.616,2.312-2.364,3.507c-1.771,2.831-3.217,5.817-4.216,9.013c-0.038,0.126-0.052,0.288-0.008,0.408&#10;&#9;&#9;c1.674,4.605,4.229,8.666,7.631,12.191c0.041,0.043,0.092,0.078,0.164,0.14c-0.004-0.084-0.005-0.126-0.01-0.168&#10;&#9;&#9;c-0.142-1.173-0.315-2.346-0.415-3.521c-0.175-2.062-0.14-4.121,0.271-6.159c0.276-1.367,0.726-2.673,1.578-3.804&#10;&#9;&#9;c0.585-0.774,1.302-1.392,2.22-1.75c-0.221,0.22-0.461,0.422-0.657,0.661c-0.549,0.665-0.93,1.427-1.213,2.238&#10;&#9;&#9;c-0.596,1.707-0.732,3.479-0.741,5.27c-0.009,1.771,0.147,3.528,0.392,5.279c0.263,1.874,0.582,3.737,1.117,5.554&#10;&#9;&#9;c0.35,1.186,0.775,2.342,1.438,3.395c0.093,0.146,0.252,0.253,0.381,0.378c0.077-0.161,0.196-0.315,0.224-0.483&#10;&#9;&#9;c0.088-0.541,0.23-1.06,0.025-1.634c-0.805-2.264-1.252-4.607-1.46-6.997c-0.044-0.502-0.057-1.006-0.085-1.508&#10;&#9;&#9;c0.125,0.452,0.191,0.91,0.284,1.36c0.621,3.027,1.995,5.637,4.326,7.701c0.219,0.193,0.469,0.362,0.728,0.496&#10;&#9;&#9;c1.656,0.866,3.376,1.586,5.132,2.222C-24.941,17.533-24.682,17.623-24.403,17.72z M26.684,40.999&#10;&#9;&#9;c0.004-0.17-0.065-0.346-0.122-0.513c-0.642-1.884-0.847-3.816-0.732-5.793c0.021-0.354,0.041-0.72-0.023-1.062&#10;&#9;&#9;c-0.383-2.05-1.462-3.792-2.508-5.601c-0.029,0.078-0.039,0.092-0.039,0.104c-0.116,3.021-0.026,6.032,0.568,9.007&#10;&#9;&#9;c0.218,1.087,0.528,2.147,1.112,3.106c0.287,0.476,0.645,0.886,1.138,1.166c0.153,0.087,0.316,0.138,0.437-0.003&#10;&#9;&#9;C26.607,41.303,26.681,41.14,26.684,40.999z M27.933,24.981c-0.477-0.345-0.978-0.669-1.502-0.934&#10;&#9;&#9;c-1.844-0.927-3.798-1.587-5.73-2.299c-0.376-0.138-0.737-0.336-1.073-0.556c-0.668-0.438-1.165-1.052-1.596-1.716&#10;&#9;&#9;c-0.206-0.314-0.399-0.638-0.599-0.957c0.005,0.107,0.038,0.201,0.065,0.298c0.228,0.776,0.488,1.546,0.671,2.334&#10;&#9;&#9;c0.255,1.099,0.659,2.126,1.271,3.068c0.331,0.509,0.7,0.996,1.023,1.513c0.204,0.324,0.382,0.676,0.524,1.032&#10;&#9;&#9;c0.084,0.214,0.075,0.464,0.109,0.697c-0.034,0.017-0.067,0.034-0.103,0.05c-0.102-0.086-0.218-0.161-0.305-0.261&#10;&#9;&#9;c-0.355-0.407-0.696-0.828-1.06-1.228c-0.079-0.089-0.255-0.176-0.344-0.144c-0.085,0.031-0.175,0.22-0.163,0.33&#10;&#9;&#9;c0.045,0.441,0.071,0.896,0.209,1.312c0.19,0.573,0.49,1.11,0.712,1.677c0.109,0.276,0.18,0.582,0.205,0.878&#10;&#9;&#9;c0.012,0.14-0.124,0.292-0.191,0.437c-0.119-0.081-0.256-0.146-0.354-0.249c-0.174-0.183-0.313-0.397-0.492-0.577&#10;&#9;&#9;c-0.177-0.175-0.341-0.146-0.443,0.077c-0.073,0.156-0.146,0.348-0.122,0.506c0.061,0.397,0.169,0.787,0.27,1.179&#10;&#9;&#9;c0.094,0.356,0.227,0.708,0.3,1.067c0.05,0.243-0.012,0.484-0.267,0.667c-0.071-0.104-0.149-0.193-0.195-0.298&#10;&#9;&#9;c-0.1-0.214-0.179-0.438-0.272-0.652c-0.215-0.494-0.404-1.005-0.658-1.479c-0.224-0.417-0.445-0.38-0.686,0.025&#10;&#9;&#9;c-0.466,0.792-0.927,1.59-1.448,2.346c-0.287,0.415-0.454,0.842-0.498,1.328c-0.058,0.646-0.09,1.298-0.158,1.945&#10;&#9;&#9;c-0.026,0.241-0.091,0.492-0.355,0.72c-0.056-0.273-0.103-0.497-0.147-0.722c-0.066-0.33-0.111-0.666-0.202-0.989&#10;&#9;&#9;c-0.063-0.228-0.246-0.251-0.36-0.048c-0.103,0.184-0.173,0.404-0.188,0.614c-0.028,0.396,0.008,0.794-0.013,1.191&#10;&#9;&#9;c-0.008,0.18-0.073,0.361-0.141,0.532c-0.029,0.073-0.126,0.122-0.192,0.182c-0.044-0.074-0.103-0.142-0.128-0.223&#10;&#9;&#9;c-0.031-0.095-0.034-0.198-0.049-0.299c-0.043-0.292-0.067-0.591-0.136-0.875c-0.073-0.309-0.267-0.361-0.459-0.111&#10;&#9;&#9;c-0.176,0.229-0.315,0.5-0.403,0.774c-0.135,0.426-0.192,0.872-0.321,1.302c-0.06,0.201-0.198,0.385-0.327,0.556&#10;&#9;&#9;c-0.048,0.062-0.188,0.102-0.265,0.079c-0.057-0.015-0.113-0.146-0.116-0.228c-0.007-0.328,0.006-0.658,0.011-0.987&#10;&#9;&#9;c0.001-0.163,0-0.326,0-0.502c-0.072,0.016-0.1,0.015-0.118,0.026c-0.041,0.028-0.082,0.062-0.115,0.099&#10;&#9;&#9;c-0.338,0.359-0.565,0.776-0.636,1.271c-0.031,0.219-0.042,0.438-0.083,0.653c-0.05,0.254-0.202,0.351-0.46,0.319&#10;&#9;&#9;c-0.271-0.032-0.443-0.229-0.47-0.573c-0.019-0.224-0.004-0.448-0.004-0.706c-0.308,0.158-0.582,0.303-0.86,0.44&#10;&#9;&#9;c-2.842,1.407-5.843,2.279-8.991,2.647c-2.033,0.237-4.066,0.243-6.082-0.166c-1.219-0.247-2.38-0.644-3.387-1.407&#10;&#9;&#9;c-0.148-0.11-0.284-0.238-0.426-0.358c1.122,0.649,1.778,0.914,2.79,1.106c1.842,0.354,3.686,0.301,5.527,0.034&#10;&#9;&#9;c3.239-0.471,6.3-1.492,9.177-3.062c2.23-1.216,4.244-2.707,5.873-4.68c0.123-0.146,0.239-0.299,0.354-0.449&#10;&#9;&#9;c-3.335,1.593-7.102-1.404-10.87-0.074c5.164-2.662,8.222,0.767,11.134-1.452c0.741-0.564,0.873-2.019-0.821-1.775&#10;&#9;&#9;c-1.616,0.231,2.434-0.569,3.16-4.778c-0.041-0.687-0.137-1.386-0.294-2.101c-0.696-3.153-2.164-5.938-4.18-8.438&#10;&#9;&#9;C9.384,11.367,6.777,9.45,3.847,7.951c-0.042-0.01-0.088-0.025-0.146-0.049c0.008,0.035,0.007,0.053,0.013,0.062&#10;&#9;&#9;c0.041,0.065,0.083,0.129,0.125,0.192c1.4,2.081,2.55,4.278,3.109,6.746c0.384,1.69,0.43,3.384-0.104,5.058&#10;&#9;&#9;c-0.597,1.869-1.791,3.292-3.351,4.432C1.745,25.67-0.23,26.468-2.289,27.08c-0.44,0.131-0.888,0.247-1.386,0.384&#10;&#9;&#9;c0.056-0.06,0.062-0.076,0.076-0.081c0.085-0.036,0.172-0.069,0.259-0.103c1.438-0.562,2.808-1.248,4.05-2.175&#10;&#9;&#9;c1.788-1.329,3.103-3.003,3.7-5.18c0.527-1.925,0.41-3.85-0.06-5.765C3.743,11.68,2.619,9.433,1.262,7.285&#10;&#9;&#9;c-0.31-0.491-0.679-0.818-1.237-0.984C-0.65,6.102-1.31,5.843-2.04,5.585c2.066,2.218,2.123,5.338,1.727,7.169&#10;&#9;&#9;c-0.007-0.032-0.016-0.053-0.017-0.075c-0.071-1.492-0.579-2.836-1.413-4.062c-1.244-1.83-2.929-3.164-4.831-4.249&#10;&#9;&#9;c-0.147-0.084-0.327-0.111-0.492-0.164c0.688,0.793,1.215,1.657,1.524,2.647c0.3,0.958,0.404,2.46,0.205,2.999&#10;&#9;&#9;c-0.314-1.047-0.641-1.729-1.34-2.62c-1.2-1.528-2.593-2.851-4.208-3.951c-1.083-0.741-2.217-1.354-3.437-1.82&#10;&#9;&#9;c-2.157-0.827-4.407-1.334-6.645-1.882c-1.966-0.481-3.93-0.98-5.881-1.525c-1.065-0.298-2.088-0.737-2.973-1.431&#10;&#9;&#9;c-0.158,0.352-0.455,1.596-0.466,2.584c-0.129,11.646,9.138,17.871,11.962,21.129c0.822,0.949,1.294,2.112,1.707,3.288&#10;&#9;&#9;c0.168,0.477,0.312,0.961,0.47,1.456c0.027-0.035,0.053-0.059,0.066-0.084c0.789-1.515,1.275-3.062,0.895-4.816&#10;&#9;&#9;c-0.58-2.683-1.659-5.079-3.694-6.979c-0.022-0.021-0.04-0.048-0.11-0.128c0.099,0.051,0.134,0.064,0.167,0.086&#10;&#9;&#9;c1.673,0.964,3.202,2.11,4.495,3.554c2.174,2.424,3.341,5.261,3.502,8.519c0.07,1.419-0.125,2.82-0.284,4.221&#10;&#9;&#9;c-0.422,3.729-3.146,6.748-6.806,7.639c-0.275,0.067-0.554,0.162-0.803,0.293c-0.351,0.187-0.448,0.493-0.315,0.863&#10;&#9;&#9;c0.048,0.133,0.119,0.262,0.195,0.382c0.65,1.01,1.474,1.845,2.489,2.492c0.521,0.331,1.042,0.661,1.544,1.02&#10;&#9;&#9;c2.059,1.472,4.275,2.614,6.724,3.286c1.011,0.277,2.033,0.522,3.095,0.429c0.333-0.027,0.657-0.15,0.988-0.189&#10;&#9;&#9;c0.137-0.018,0.287,0.079,0.432,0.123C-3.65,45.878-3.715,46-3.816,46.057c-0.639,0.368-1.346,0.482-2.07,0.506&#10;&#9;&#9;c-1.065,0.036-2.102-0.166-3.138-0.377c-0.104-0.021-0.214-0.021-0.321-0.03c0.849,0.734,1.812,1.208,2.855,1.521&#10;&#9;&#9;c1.715,0.521,3.468,0.638,5.243,0.489c0.568-0.048,1.144-0.071,1.668-0.368c0.514-0.29,1.054-0.533,1.586-0.791&#10;&#9;&#9;c0.115-0.056,0.243-0.084,0.366-0.125c0.018,0.021,0.036,0.039,0.055,0.06c-0.056,0.144-0.102,0.292-0.173,0.428&#10;&#9;&#9;c-0.192,0.376-0.401,0.743-0.594,1.119c-0.035,0.071-0.018,0.173-0.023,0.26c0.08,0.004,0.17,0.034,0.239,0.01&#10;&#9;&#9;c0.408-0.136,0.824-0.256,1.212-0.438c0.555-0.264,1.133-0.354,1.738-0.395c0.824-0.057,1.65-0.135,2.469-0.252&#10;&#9;&#9;c1.202-0.173,2.118-0.793,2.712-1.868c0.139-0.251,0.287-0.497,0.438-0.742c0.054-0.087,0.128-0.161,0.193-0.24&#10;&#9;&#9;c0.029,0.013,0.061,0.024,0.09,0.04c-0.187,0.64-0.374,1.279-0.571,1.954c0.623-0.142,1.271-0.573,1.785-1.178&#10;&#9;&#9;c0.26-0.302,0.492-0.625,0.749-0.927c0.103-0.12,0.242-0.208,0.364-0.312c0.034,0.019,0.069,0.034,0.104,0.054&#10;&#9;&#9;c-0.05,0.428-0.101,0.855-0.149,1.285c0.025,0.009,0.052,0.019,0.079,0.026c0.387-0.236,0.771-0.479,1.159-0.715&#10;&#9;&#9;c1.318-0.794,2.553-1.688,3.478-2.948c0.127-0.174,0.222-0.149,0.289,0.062c0.083,0.265,0.137,0.539,0.228,0.802&#10;&#9;&#9;c0.027,0.08,0.138,0.189,0.202,0.185c0.089-0.007,0.213-0.095,0.243-0.176c0.062-0.17,0.087-0.357,0.099-0.542&#10;&#9;&#9;c0.025-0.37,0.016-0.742,0.055-1.11c0.012-0.113,0.132-0.218,0.204-0.323c0.095,0.084,0.225,0.15,0.275,0.256&#10;&#9;&#9;c0.147,0.303,0.256,0.624,0.393,0.933c0.126,0.286,0.201,0.291,0.384,0.048c0.24-0.321,0.51-0.58,0.962-0.548&#10;&#9;&#9;c0.42,0.032,0.473,0.001,0.629-0.39c0.267-0.667,0.494-1.347,0.768-2.01c0.13-0.316,0.329-0.604,0.486-0.908&#10;&#9;&#9;c0.039-0.072,0.073-0.175,0.053-0.246c-0.556-1.795-0.71-3.644-0.728-5.508c-0.017-1.725,0.017-3.45-0.042-5.172&#10;&#9;&#9;c-0.045-1.347-0.271-2.661-1.276-3.699c0.139,0.044,0.271,0.094,0.395,0.158c0.648,0.336,1.178,0.819,1.642,1.375&#10;&#9;&#9;c1.026,1.228,1.701,2.65,2.299,4.121c0.479,1.178,0.962,2.355,1.465,3.523c0.125,0.29,0.333,0.546,0.519,0.809&#10;&#9;&#9;c0.045,0.062,0.178,0.133,0.229,0.107c0.075-0.033,0.147-0.145,0.158-0.23c0.026-0.19,0.026-0.39,0.017-0.58&#10;&#9;&#9;c-0.043-0.963-0.123-1.925,0.043-2.885c0.024-0.147,0.066-0.312,0.029-0.447c-0.361-1.317-0.83-2.589-1.642-3.708&#10;&#9;&#9;c-0.025-0.035-0.041-0.078-0.093-0.177c0.579,0.258,0.968,0.64,1.283,1.089c0.315,0.451,0.591,0.93,0.902,1.428&#10;&#9;&#9;c0.131-0.534,0.257-1.048,0.383-1.562C28.759,26.031,28.535,25.42,27.933,24.981z M28.587,17.264&#10;&#9;&#9;c-1.478-1.396-3.23-2.381-5.07-3.217c-2.491-1.132-5.099-1.917-7.759-2.535c-0.951-0.221-1.908-0.412-2.924-0.63&#10;&#9;&#9;c0.409,0.507,0.771,0.961,1.143,1.41c0.035,0.043,0.115,0.062,0.178,0.071c1.667,0.173,3.269,0.604,4.813,1.246&#10;&#9;&#9;c3.571,1.482,6.628,3.722,9.353,6.438c0.025,0.025,0.043,0.057,0.063,0.085c-0.093-0.028-0.163-0.074-0.232-0.122&#10;&#9;&#9;c-2.299-1.596-4.664-3.084-7.151-4.372c-1.592-0.82-3.214-1.575-4.958-2.021c-0.411-0.105-0.831-0.175-1.312-0.273&#10;&#9;&#9;c0.067,0.114,0.093,0.156,0.117,0.2c0.548,0.958,1.151,1.893,1.627,2.887c0.298,0.625,0.715,1.083,1.244,1.486&#10;&#9;&#9;c1.98,1.507,4.162,2.67,6.388,3.759c0.02,0.009,0.045,0.006,0.117,0.019c-0.847-1.344-1.664-2.652-3.124-3.389&#10;&#9;&#9;c0.378,0.062,0.753,0.125,1.114,0.235c1.12,0.343,2.062,1.003,2.947,1.743c1.082,0.903,2.129,1.854,3.226,2.744&#10;&#9;&#9;c0.566,0.46,1.171,0.904,1.824,1.222c0.686,0.331,1.448,0.502,2.181,0.729c0.187,0.062,0.389,0.072,0.664,0.12&#10;&#9;&#9;c-0.09-0.464-0.128-0.871-0.251-1.249C31.969,21.294,30.535,19.108,28.587,17.264z M15.104-2.501&#10;&#9;&#9;c-0.541-0.301-1.116-0.571-1.706-0.751c-1.209-0.366-2.468-0.372-3.721-0.369C8.789-3.619,7.901-3.607,7.014-3.617&#10;&#9;&#9;C6.792-3.62,6.572-3.69,6.351-3.73C6.35-3.771,6.348-3.812,6.347-3.854c0.191-0.073,0.377-0.162,0.572-0.218&#10;&#9;&#9;c0.618-0.176,1.239-0.334,1.856-0.506c0.12-0.035,0.231-0.104,0.348-0.158C9.119-4.76,9.115-4.784,9.111-4.808&#10;&#9;&#9;c-0.08-0.032-0.16-0.077-0.245-0.096C7.626-5.149,6.391-5.449,5.14-5.627C3.022-5.929,0.922-6.296-1.129-6.92&#10;&#9;&#9;c-0.174-0.052-0.367-0.077-0.547-0.065C-3.75-6.842-5.823-6.692-7.898-6.541c-2.398,0.175-4.796,0.198-7.191-0.055&#10;&#9;&#9;c-2.721-0.287-5.353-0.933-7.901-1.917c-3.661-1.415-6.979-3.433-10.097-5.796c-0.053-0.04-0.103-0.088-0.155-0.131&#10;&#9;&#9;c0.102,0.02,0.181,0.062,0.257,0.108c2.847,1.7,5.784,3.217,8.887,4.399c2.63,1.001,5.331,1.724,8.122,2.094&#10;&#9;&#9;c2.017,0.267,4.042,0.328,6.074,0.315c2.272-0.012,4.547,0,6.819,0.001c0.03,0,0.059-0.004,0.092-0.007&#10;&#9;&#9;C-2.999-7.548-3-7.559-3.004-7.562c-0.054-0.022-0.108-0.046-0.163-0.067c-2.031-0.794-3.957-1.786-5.715-3.081&#10;&#9;&#9;c-0.531-0.394-1.101-0.689-1.711-0.918c-0.473-0.179-0.949-0.354-1.432-0.506c-2.479-0.783-5.045-1.167-7.596-1.628&#10;&#9;&#9;c-2.102-0.379-4.203-0.768-6.287-1.228c-1.9-0.419-3.734-1.062-5.438-2.031c-2.927-1.662-4.648-4.15-5.117-7.491&#10;&#9;&#9;c-0.074-0.525-0.116-1.057-0.169-1.528c-0.102,0.19-0.213,0.42-0.344,0.64c-1.109,1.865-1.885,3.851-2.127,6.02&#10;&#9;&#9;c-0.326,2.931,0.51,5.459,2.634,7.536c0.086,0.085,0.146,0.199,0.202,0.312c0.306,0.62,0.559,1.271,0.915,1.858&#10;&#9;&#9;c1.014,1.665,2.447,2.919,4.059,3.979c2.141,1.405,4.481,2.386,6.896,3.202c3.808,1.288,7.727,2.129,11.666,2.886&#10;&#9;&#9;c3.208,0.617,6.423,1.209,9.63,1.832c2.502,0.484,4.935,1.17,7.238,2.305c2.889,1.422,5.564,3.13,7.829,5.439&#10;&#9;&#9;c0.075,0.078,0.219,0.12,0.333,0.124c1.515,0.043,3.02,0.185,4.509,0.466c4.167,0.79,7.985,2.413,11.481,4.808&#10;&#9;&#9;c0.057,0.037,0.118,0.065,0.213,0.123c-0.021-0.125-0.03-0.2-0.048-0.272c-0.294-1.303-0.675-2.581-1.172-3.82&#10;&#9;&#9;C24.854,5.333,20.816,0.679,15.104-2.501z M48.629-34.238c-0.101-0.996-0.308-1.983-0.526-2.963&#10;&#9;&#9;c-0.339-1.507-1.26-2.504-2.753-2.955c-0.668-0.202-1.354-0.282-2.05-0.284c-1.367-0.003-2.706,0.217-4.029,0.544&#10;&#9;&#9;c-1.102,0.276-2.166,0.647-3.122,1.277c-0.911,0.601-1.59,1.382-1.853,2.471c-0.162,0.681-0.116,1.354-0.005,2.036&#10;&#9;&#9;c0.044,0.271,0.161,0.39,0.41,0.487c2.177,0.869,3.915,2.248,4.958,4.396c0.139,0.284,0.337,0.428,0.64,0.459&#10;&#9;&#9;c1.041,0.115,2.061,0.077,3.012-0.428c0.611-0.324,1.22-0.287,1.823,0.006c0.248,0.121,0.489,0.271,0.709,0.438&#10;&#9;&#9;c0.274,0.209,0.523,0.452,0.826,0.718c0.026-0.044,0.044-0.084,0.071-0.116C48.247-29.91,48.857-31.957,48.629-34.238z&#10;&#9;&#9; M32.529-38.686c0.167-0.109,0.317-0.25,0.467-0.388c1.297-1.209,2.792-2.087,4.449-2.709c1.479-0.555,3.016-0.804,4.581-0.888&#10;&#9;&#9;c1.158-0.062,2.324-0.052,3.45,0.255c0.77,0.21,1.509,0.527,2.27,0.777c0.162,0.053,0.408,0.09,0.517,0.006&#10;&#9;&#9;c0.185-0.143,0.046-0.37-0.022-0.56c-0.003-0.008-0.01-0.015-0.013-0.021c-0.542-1.033-1.25-1.926-2.209-2.604&#10;&#9;&#9;c-1.728-1.221-3.671-1.462-5.708-1.229c-0.334,0.038-0.623-0.023-0.896-0.178c-0.128-0.073-0.207-0.231-0.309-0.352&#10;&#9;&#9;c0.019-0.021,0.037-0.045,0.055-0.066c0.073,0.008,0.145,0.021,0.218,0.022c0.378,0.012,0.763,0.07,1.132,0.021&#10;&#9;&#9;c1.19-0.158,1.758-1.471,1.073-2.439c-0.23-0.327-0.529-0.562-0.954-0.509c-0.438,0.058-0.656,0.383-0.805,0.76&#10;&#9;&#9;c-0.036,0.092-0.05,0.196-0.061,0.297c-0.044,0.381-0.072,0.434-0.464,0.421c-0.369-0.011-0.737-0.068-1.104-0.124&#10;&#9;&#9;c-0.456-0.064-0.752,0.104-0.895,0.545c-0.116,0.356-0.081,0.716,0.094,1.032c0.189,0.346,0.429,0.661,0.636,0.978&#10;&#9;&#9;c-0.554,0.231-1.163,0.44-1.729,0.734c-2.167,1.123-3.635,2.823-4.188,5.24c-0.056,0.236-0.079,0.486-0.071,0.729&#10;&#9;&#9;C32.054-38.59,32.246-38.497,32.529-38.686z M33.659-35.661c0.163-0.511,0.27-1.029,0.487-1.494c0.504-1.076,1.4-1.774,2.447-2.258&#10;&#9;&#9;c2.484-1.142,5.103-1.653,7.831-1.421c1.652,0.14,3.02,0.83,3.788,2.41c0.003,0.006,0.013,0.01,0.043,0.034&#10;&#9;&#9;c0.505-0.234,0.787-0.624,0.855-1.172c0.062-0.504-0.153-0.894-0.577-1.119c-0.548-0.292-1.107-0.593-1.697-0.771&#10;&#9;&#9;c-2.492-0.755-5.012-0.737-7.53-0.127c-1.918,0.464-3.688,1.251-5.232,2.498c-0.602,0.486-1.152,1.022-1.495,1.732&#10;&#9;&#9;c-0.085,0.176-0.164,0.388-0.15,0.574C32.473-36.194,33.117-35.658,33.659-35.661z M-45.488-22.973&#10;&#9;&#9;c-2.023,3.519-3.076,7.254-3.077,7.827c-0.006,1.791,0.132,3.576,0.401,5.354c0.062,0.412,0.144,0.821,0.215,1.232&#10;&#9;&#9;c0.076-0.075,0.101-0.151,0.124-0.229c0.299-0.993,0.559-2,0.901-2.978c1.798-5.125,4.533-9.722,7.92-13.945&#10;&#9;&#9;c0.123-0.154,0.229-0.336,0.29-0.523c0.736-2.267,1.792-4.324,3.146-6.188c-1.518,0.647-3.248,0.88-5.308,3.251&#10;&#9;&#9;c2.531-4.881,8.527-6.815,8.527-6.815c3.337-2.985,7.219-4.958,11.52-6.139c0.347-0.095,0.698-0.171,1.049-0.255&#10;&#9;&#9;c-0.077,0.074-0.163,0.104-0.249,0.138c-3.2,1.145-6.15,2.741-8.82,4.846c-3.323,2.62-5.835,5.848-7.337,9.828&#10;&#9;&#9;c-0.161,0.428-0.237,0.827-0.072,1.269c0.112,0.3,0.17,0.619,0.263,0.926c0.706,2.307,1.811,4.381,3.588,6.055&#10;&#9;&#9;c1.7,1.604,3.743,2.573,5.959,3.227c2.654,0.778,5.396,1.065,8.125,1.423c1.583,0.206,3.158,0.456,4.736,0.697&#10;&#9;&#9;c0.424,0.063,0.843,0.168,1.294,0.261c-0.034-0.056-0.044-0.081-0.061-0.101c-1.233-1.383-2.259-2.902-3.075-4.568&#10;&#9;&#9;c-0.049-0.103-0.162-0.205-0.27-0.239c-0.729-0.23-1.453-0.503-2.201-0.653c-1.109-0.221-2.243-0.306-3.352-0.524&#10;&#9;&#9;c-5.947-1.181-7.78-4.367-7.753-4.338c1.806,1.918,4.696,2.459,5.459,2.725c1.78,0.619,3.624,0.787,5.493,0.769&#10;&#9;&#9;c0.546-0.008,1.091-0.04,1.653-0.062c-1.676-5.474-1.456-10.81,0.816-16.037c0.002,0.098-0.02,0.193-0.044,0.287&#10;&#9;&#9;c-0.889,3.376-1.249,6.791-0.741,10.267c0.613,4.221,2.448,7.817,5.513,10.78c2.297,2.22,4.998,3.818,7.896,5.106&#10;&#9;&#9;c2.753,1.224,5.647,1.981,8.565,2.685c2.196,0.529,4.401,1.048,6.569,1.687c2.904,0.851,5.533,2.249,7.773,4.315&#10;&#9;&#9;c0.347,0.32,0.697,0.647,0.983,1.021c1.887,2.442,4.188,4.354,7.019,5.6c0.179,0.599,0.492,1.231,0.979,1.891&#10;&#9;&#9;c0.692,0.926,1.548,1.689,2.47,2.374c0.261,0.193,0.608,0.304,0.933,0.368c0.354,0.073,0.567-0.098,0.688-0.441&#10;&#9;&#9;c0.032-0.097,0.054-0.194,0.073-0.293c0.189-0.065,0.377-0.167,0.562-0.311c0.127-0.098,0.249-0.204,0.361-0.315&#10;&#9;&#9;c0.521-0.524,0.886-1.148,1.182-1.817c0.064-0.145,0.15-0.202,0.299-0.221c0.351-0.046,0.703-0.095,1.05-0.162&#10;&#9;&#9;c5.632-1.114,9.733-5.394,10.448-11.548c0.064-0.555,0.06-1.13,0.226-1.65c0.212-0.661,0.564-1.277,0.856-1.913&#10;&#9;&#9;c0.257-0.559,0.539-1.107,0.761-1.681c0.228-0.587,0.257-1.199,0.079-1.816c-0.061-0.212-0.185-0.268-0.35-0.165&#10;&#9;&#9;c-0.232,0.146-0.441,0.329-0.662,0.494c-0.269,0.201-0.52,0.431-0.811,0.59c-0.237,0.131-0.506,0.104-0.718-0.139&#10;&#9;&#9;c0.049-0.037,0.09-0.066,0.126-0.1c0.58-0.517,1.162-1.029,1.733-1.556c0.068-0.062,0.117-0.188,0.111-0.285&#10;&#9;&#9;c-0.051-0.817-0.322-1.558-0.903-2.146c-0.747-0.757-1.626-1.161-2.718-0.905c-0.028-0.407-0.056-0.477-0.29-0.603&#10;&#9;&#9;c-1.519-0.823-3.129-1.308-4.87-1.275c-1.281,0.022-2.436-0.384-3.538-1c-0.342-0.191-0.709-0.363-1.086-0.463&#10;&#9;&#9;c-1.19-0.316-2.412-0.407-3.64-0.439c-0.101-0.002-0.2-0.008-0.3-0.013c0.063-0.071,0.126-0.093,0.189-0.108&#10;&#9;&#9;c0.98-0.231,1.973-0.261,2.974-0.188c0.324,0.023,0.689,0.093,0.971-0.021c0.826-0.336,1.627-0.738,2.422-1.147&#10;&#9;&#9;c0.223-0.115,0.419-0.17,0.645-0.086c0.505,0.189,1.012,0.376,1.504,0.595c1.046,0.465,2.117,0.745,3.272,0.586&#10;&#9;&#9;c0.632-0.086,1.248-0.225,1.799-0.562c0.357-0.22,0.639-0.5,0.667-0.956c0.005-0.064,0.063-0.135,0.115-0.183&#10;&#9;&#9;c0.148-0.137,0.312-0.26,0.461-0.396c0.44-0.406,0.626-0.91,0.572-1.505c-0.047-0.5-0.195-0.583-0.63-0.362&#10;&#9;&#9;c-0.21,0.106-0.429,0.193-0.649,0.025c0.279-0.178,0.552-0.338,0.813-0.518c0.391-0.268,0.53-0.654,0.516-1.119&#10;&#9;&#9;c-0.041-1.294-1.567-2.439-2.877-2.15c-0.432,0.095-0.818,0.266-1.054,0.675c-0.031,0.054-0.12,0.111-0.18,0.107&#10;&#9;&#9;c-0.342-0.019-0.691-0.017-1.021-0.091c-0.605-0.137-1.204-0.282-1.827-0.164c-0.287,0.055-0.57,0.134-0.867,0.202&#10;&#9;&#9;c-0.232-0.808-0.614-1.526-1.124-2.177c-1.185-1.506-2.743-2.46-4.54-3.049c-2.33-0.765-4.724-0.849-7.121-0.505&#10;&#9;&#9;c-3.465,0.495-5.921,2.376-7.246,5.639c-0.328,0.807-0.497,1.678-0.744,2.521c-0.397,1.356-0.927,2.66-1.631,3.892&#10;&#9;&#9;c-1.133,1.978-2.62,3.606-4.657,4.68c-2.288,1.206-4.72,1.447-7.239,0.999c-0.478-0.085-0.948-0.208-1.477-0.327&#10;&#9;&#9;c0.921-0.055,1.768-0.074,2.607-0.159c2.337-0.235,4.527-0.937,6.517-2.197c2.367-1.501,4.137-3.469,4.877-6.261&#10;&#9;&#9;c0.395-1.491,0.95-2.938,1.643-4.324c0.461-0.928,0.971-1.817,1.683-2.58c1.183-1.268,2.669-1.983,4.307-2.444&#10;&#9;&#9;c0.504-0.141,1.004-0.297,1.501-0.457c0.246-0.08,0.4-0.254,0.497-0.503c0.274-0.712,0.353-1.439,0.205-2.188&#10;&#9;&#9;c-0.229-1.178-0.805-2.178-1.58-3.072c-0.666-0.771-1.5-1.334-2.334-1.897c-0.406-0.271-0.8-0.566-1.17-0.885&#10;&#9;&#9;c-0.32-0.272-0.515-0.646-0.495-1.073c0.035-0.763,0.08-0.884,0.84-0.631c0.119,0.04,0.237,0.087,0.353,0.138&#10;&#9;&#9;c0.621,0.267,1.239,0.539,1.863,0.8c1.198,0.501,2.441,0.686,3.717,0.379c1.415-0.338,2.413-1.169,2.862-2.589&#10;&#9;&#9;c0.092-0.291,0.114-0.6-0.042-0.861c-0.075-0.129-0.268-0.256-0.411-0.26c-0.129-0.004-0.281,0.143-0.387,0.258&#10;&#9;&#9;c-0.065,0.072-0.063,0.206-0.092,0.312c-0.146,0.548-0.385,1.032-0.923,1.298c-0.102,0.051-0.218,0.064-0.328,0.097&#10;&#9;&#9;c0.717-0.744,1.105-1.586,1.053-2.601c-0.039-0.771-0.643-1.273-1.42-1.229c-0.226,0.013-0.385,0.119-0.41,0.339&#10;&#9;&#9;c-0.031,0.267-0.019,0.537-0.024,0.806c-0.009,0.32,0.015,0.646-0.03,0.96c-0.071,0.515-0.388,0.85-0.883,1.009&#10;&#9;&#9;c-0.239,0.076-0.469,0.035-0.691-0.078c0.312-0.064,0.61-0.158,0.767-0.45c0.151-0.28,0.305-0.572,0.381-0.877&#10;&#9;&#9;c0.163-0.658,0.084-1.293-0.521-1.697c-0.272-0.181-0.64-0.256-0.974-0.302c-0.717-0.1-1.405,0.103-2.098,0.263&#10;&#9;&#9;c-0.416,0.097-0.847,0.161-1.271,0.162c-0.401,0.001-0.806-0.084-1.203-0.155c-2.418-0.436-4.848-0.251-7.31-0.222&#10;&#9;&#9;c-2.663,0.033-5.326,0.017-7.989,0.019c-4.767,0-9.535,0.002-14.305,0.002c-1.969,0-3.939-0.02-5.908-0.007&#10;&#9;&#9;c-2.715,0.017-5.401,0.323-8.027,1.012c-10.003,2.616-17.489,8.031-22.423,17.108c-2.175,4.004-3.417,8.287-3.854,12.784&#10;&#9;&#9;C-48.447-17.957-45.459-23.519-45.488-22.973z"/>
    <path fill="#E65270" d="M32.721,0.608c-0.839,1.789-0.849,2.545,0.079,4.238c0.7,1.278,2.56,0.141,2.308,1.568&#10;&#9;&#9;c-0.106,1.24-1.405,2.602-1.646,2.898c-0.296,0.351-0.461,0.696-0.898,0.607c-0.4-0.082-0.779-0.275-1.101-0.514&#10;&#9;&#9;c-1.137-0.845-2.191-1.787-3.045-2.928c-1.543-2.059-0.907-3.308,0.9-4.95C30.083,0.835,32.811,0.417,32.721,0.608z"/>
    <path opacity="0.2" fill="#2B2B2B" enable-background="new    " d="M31.048,7.399c0.445,0.486,1.138,0.956,1.861,1.438&#10;&#9;&#9;c0.384,0.254-0.759-2.867-1.092-3.7c-1.092-2.729,0.339-4.42-0.055-4.211c-0.866,0.46-2.103,2.067-2.189,3.06&#10;&#9;&#9;C29.477,5.061,30.312,6.594,31.048,7.399z"/>
    <g>
      <path fill="#0D0D0D" d="M32.375,0.775c-0.84,1.788-0.849,2.544,0.08,4.237c0.699,1.277,1.023,2.564,0.771,3.993&#10;&#9;&#9;&#9;c-0.028,0.159-0.059,0.321-0.111,0.475c-0.149,0.429-0.412,0.639-0.849,0.549c-0.4-0.082-0.83-0.217-1.15-0.455&#10;&#9;&#9;&#9;c-1.137-0.845-2.191-1.787-3.045-2.928c-1.184-1.579-1.054-2.657-0.157-3.854c0.257-0.342,0.415-0.332,0.746-0.394&#10;&#9;&#9;&#9;c0.428-0.081,0.515,0.515,0.379,0.756c-0.313,0.554-0.519,1.111-0.558,1.549c-0.095,1.076,0.507,2.244,1.243,3.049&#10;&#9;&#9;&#9;c0.682,0.746,2.061,1.904,3.002,2.185c0.227-0.871-0.257-2.609-0.564-3.453c-0.374-1.031-1.506-2.912-1.222-4.138&#10;&#9;&#9;&#9;c0,0,0.399-1.134,0.822-1.422C32.185,0.638,32.375,0.775,32.375,0.775z"/>
    </g>
    <path fill="url(#SVGID_39_)" d="M27.897,34.689"/>
    <g opacity="0.2">
      <path fill="#8B4FBA" d="M-18.607-19.863c-0.115-0.006-0.221,0.006-0.308,0.053C-18.806-19.804-18.703-19.824-18.607-19.863z"/>
    </g>
    <path opacity="0.2" fill="#430A1D" enable-background="new    " d="M33.088-34.854c0.981,1.49,2.084,1.994,3.33,3.167&#10;&#9;&#9;c1.185,1.113,2.095,2.456,3.275,3.549c0.924-0.193,1.963-0.037,2.911-0.085c0.678-1.674,3.97-0.081,4.271,0.999l0.437-0.655&#10;&#9;&#9;c0.949-1.869-2.455-1.994-4.393-1.8c-1.36,0.135-7.23-1.408-7.037-8.979c-0.661-1.015-2.218-0.024-2.22-1.347&#10;&#9;&#9;c-0.001-1.354,0.021-3.742,1.191-4.604c-0.335-1.181-1.498,0.068-1.819,0.541c-0.718,1.059-1.744,2.934-1.977,4.189&#10;&#9;&#9;C30.663-37.735,32.015-36.483,33.088-34.854z"/>
  </symbol>
  <symbol id="New_Symbol_2" viewBox="-3 -3.5 6 7">
    <path fill="#FFFFFF" d="M0-3.5c-0.184,0-0.368,0.051-0.53,0.152l-2,1.25C-2.822-1.915-3-1.595-3-1.25v2.5&#10;&#9;&#9;c0,0.345,0.178,0.666,0.47,0.848l2,1.25C-0.368,3.449-0.184,3.5,0,3.5s0.368-0.051,0.53-0.152l2-1.25C2.822,1.916,3,1.595,3,1.25&#10;&#9;&#9;v-2.5c0-0.345-0.178-0.665-0.47-0.848l-2-1.25C0.368-3.449,0.184-3.5,0-3.5z"/>
    <polygon display="none" fill="none" points="-3,3 3,3 3,-3 -3,-3 &#9;"/>
  </symbol>
  <g transform="matrix(0.609758, 0, 0, 0.573533, -690.608643, 73.553665)">
    <use width="100.904" height="101.91" x="-50.452" y="-50.955" transform="matrix(3.5035 0 0 -3.5035 1370.3418 277.1992)" overflow="visible" xlink:href="#New_Symbol_3"/>
    <g>
      <path d="M1566.941,352.545h67.404v16.225h-48.82v28.613h46.019v15.635h-46.019v43.954h-18.584V352.545L1566.941,352.545z"/>
      <path d="M1650.865,345.465h17.699v111.507h-17.699V345.465z"/>
      <path d="M1687.885,362.132c0-2.851,1.057-5.333,3.172-7.448c2.113-2.112,4.793-3.172,8.039-3.172c3.244,0,5.975,1.012,8.188,3.024&#10;&#9;&#9;&#9;c2.213,2.017,3.318,4.549,3.318,7.596c0,3.05-1.105,5.582-3.318,7.597c-2.213,2.017-4.94,3.023-8.188,3.023&#10;&#9;&#9;&#9;s-5.926-1.056-8.039-3.172C1688.941,367.467,1687.885,364.985,1687.885,362.132z M1690.393,386.174h17.699v70.798h-17.699V386.174&#10;&#9;&#9;&#9;z"/>
      <path d="M1729.625,386.174h16.814v11.356h0.295c1.57-3.539,4.301-6.659,8.186-9.365c3.885-2.704,8.48-4.057,13.791-4.057&#10;&#9;&#9;&#9;c4.621,0,8.578,0.812,11.873,2.434c3.294,1.623,5.997,3.762,8.113,6.416c2.113,2.655,3.662,5.704,4.646,9.145&#10;&#9;&#9;&#9;c0.98,3.443,1.477,6.983,1.477,10.62v44.249h-17.7v-39.232c0-2.065-0.146-4.229-0.44-6.49c-0.295-2.261-0.938-4.301-1.918-6.121&#10;&#9;&#9;&#9;c-0.983-1.818-2.336-3.318-4.058-4.499c-1.722-1.18-4.007-1.77-6.856-1.77c-2.854,0-5.312,0.566-7.375,1.695&#10;&#9;&#9;&#9;c-2.064,1.131-3.763,2.581-5.088,4.353c-1.328,1.77-2.339,3.812-3.023,6.12c-0.688,2.312-1.033,4.646-1.033,7.006v38.938h-17.697&#10;&#9;&#9;&#9;v-70.798H1729.625L1729.625,386.174z"/>
      <path d="M1815.76,345.465h17.699v70.503h0.443l26.844-29.794h22.714l-30.679,32.007l32.597,38.791h-23.452l-28.021-36.284h-0.443&#10;&#9;&#9;&#9;v36.284h-17.697V345.465H1815.76z"/>
    </g>
  </g>
</svg>
