<?xml version="1.0" encoding="UTF-8" standalone="no"?>
<!--
Licensed to the Apache Software Foundation (ASF) under one
or more contributor license agreements.  See the NOTICE file
distributed with this work for additional information
regarding copyright ownership.  The ASF licenses this file
to you under the Apache License, Version 2.0 (the
"License"); you may not use this file except in compliance
with the License.  You may obtain a copy of the License at

http://www.apache.org/licenses/LICENSE-2.0

Unless required by applicable law or agreed to in writing,
software distributed under the License is distributed on an
"AS IS" BASIS, WITHOUT WARRANTIES OR CONDITIONS OF ANY
KIND, either express or implied.  See the License for the
specific language governing permissions and limitations
under the License.
-->

<svg
   xmlns:dc="http://purl.org/dc/elements/1.1/"
   xmlns:cc="http://creativecommons.org/ns#"
   xmlns:rdf="http://www.w3.org/1999/02/22-rdf-syntax-ns#"
   xmlns:svg="http://www.w3.org/2000/svg"
   xmlns="http://www.w3.org/2000/svg"
   version="1.1"
   width="1116.3304"
   height="896.67767"
   id="svg2">
  <defs
     id="defs4" />
  <metadata
     id="metadata7">
    <rdf:RDF>
      <cc:Work
         rdf:about="">
        <dc:format>image/svg+xml</dc:format>
        <dc:type
           rdf:resource="http://purl.org/dc/dcmitype/StillImage" />
        <dc:title></dc:title>
      </cc:Work>
    </rdf:RDF>
  </metadata>
  <g
     transform="translate(255.30809,4.5480758)"
     id="layer1">
    <g
       transform="translate(-274.66659,45.499311)"
       id="g2989">
      <path
         d="m 106.07643,701.83735 1003.26247,0 0,1.87546 -1003.26247,0 0,-1.87546 z m 1002.02467,-2.81321 7.5018,3.75094 -7.5018,3.75093 0,-7.50187 z"
         id="path2991"
         style="fill:#000000;fill-opacity:1;fill-rule:nonzero;stroke:#000000;stroke-width:0.03750934px;stroke-linecap:butt;stroke-linejoin:round;stroke-opacity:1;stroke-dasharray:none" />
      <text
         x="1094.0844"
         y="738.86139"
         id="text2993"
         xml:space="preserve"
         style="font-size:22.5056076px;font-style:normal;font-weight:normal;text-align:start;text-anchor:start;fill:#000000;font-family:Arial">time</text>
      <path
         d="m 106.07643,664.17796 0,28.91971 210.05233,0 0,-28.91971 -210.05233,0 z"
         id="path2995"
         style="fill:#ffc000;fill-opacity:1;fill-rule:evenodd;stroke:none" />
      <path
         d="m 316.12876,664.17796 0,28.91971 106.11393,0 0,-28.91971 -106.11393,0 z"
         id="path2997"
         style="fill:#70ad47;fill-opacity:1;fill-rule:evenodd;stroke:none" />
      <path
         d="m 422.24269,664.17796 0,28.91971 210.05233,0 0,-28.91971 -210.05233,0 z"
         id="path2999"
         style="fill:#ffc000;fill-opacity:1;fill-rule:evenodd;stroke:none" />
      <path
         d="m 632.29502,664.17796 0,28.91971 106.11394,0 0,-28.91971 -106.11394,0 z"
         id="path3001"
         style="fill:#70ad47;fill-opacity:1;fill-rule:evenodd;stroke:none" />
      <path
         d="m 738.40896,664.17796 0,28.91971 210.05233,0 0,-28.91971 -210.05233,0 z"
         id="path3003"
         style="fill:#ffc000;fill-opacity:1;fill-rule:evenodd;stroke:none" />
      <path
         d="m 948.46129,664.17796 0,28.91971 105.96391,0 0,-28.91971 -105.96391,0 z"
         id="path3005"
         style="fill:#70ad47;fill-opacity:1;fill-rule:evenodd;stroke:none" />
      <path
         d="m 106.07643,388.78436 1003.26247,0 0,1.87546 -1003.26247,0 0,-1.87546 z m 1002.02467,-2.8132 7.5018,3.75093 -7.5018,3.75093 0,-7.50186 z"
         id="path3007"
         style="fill:#000000;fill-opacity:1;fill-rule:nonzero;stroke:#000000;stroke-width:0.03750934px;stroke-linecap:butt;stroke-linejoin:round;stroke-opacity:1;stroke-dasharray:none" />
      <text
         x="1094.0844"
         y="425.83395"
         id="text3009"
         xml:space="preserve"
         style="font-size:22.5056076px;font-style:normal;font-weight:normal;text-align:start;text-anchor:start;fill:#000000;font-family:Arial">time</text>
      <path
         d="m 106.05767,351.10622 0,28.9197 210.05233,0 0,-28.9197 -210.05233,0 z"
         id="path3011"
         style="fill:#ffc000;fill-opacity:1;fill-rule:evenodd;stroke:none" />
      <path
         d="m 316.11,351.10622 0,28.9197 4.51988,0 0,-28.9197 -4.51988,0 z"
         id="path3013"
         style="fill:#70ad47;fill-opacity:1;fill-rule:evenodd;stroke:none" />
      <path
         d="m 319.22328,351.10622 0,28.9197 210.05233,0 0,-28.9197 -210.05233,0 z"
         id="path3015"
         style="fill:#ffc000;fill-opacity:1;fill-rule:evenodd;stroke:none" />
      <path
         d="m 106.07643,145.61128 1003.26247,0 0,1.87546 -1003.26247,0 0,-1.87546 z m 1002.02467,-2.81321 7.5018,3.75094 -7.5018,3.75093 0,-7.50187 z"
         id="path3017"
         style="fill:#000000;fill-opacity:1;fill-rule:nonzero;stroke:#000000;stroke-width:0.03750934px;stroke-linecap:butt;stroke-linejoin:round;stroke-opacity:1;stroke-dasharray:none" />
      <text
         x="1094.0844"
         y="182.71945"
         id="text3019"
         xml:space="preserve"
         style="font-size:22.5056076px;font-style:normal;font-weight:normal;text-align:start;text-anchor:start;fill:#000000;font-family:Arial">time</text>
      <path
         d="m 106.04829,108.08318 0,28.91032 28.91033,0 0,-28.91032 -28.91033,0 z"
         id="path3021"
         style="fill:#ffc000;fill-opacity:1;fill-rule:evenodd;stroke:none" />
      <path
         d="m 134.95862,108.08318 0,28.91032 106.12331,0 0,-28.91032 -106.12331,0 z"
         id="path3023"
         style="fill:#70ad47;fill-opacity:1;fill-rule:evenodd;stroke:none" />
      <path
         d="m 106.04829,161.53399 0,22.73066"
         id="path3025"
         style="fill:none;stroke:#000000;stroke-width:2.81320095px;stroke-linecap:butt;stroke-linejoin:miter;stroke-miterlimit:4;stroke-opacity:1;stroke-dasharray:none" />
      <path
         d="m 239.98479,161.53399 0,22.73066"
         id="path3027"
         style="fill:none;stroke:#000000;stroke-width:2.81320095px;stroke-linecap:butt;stroke-linejoin:miter;stroke-miterlimit:4;stroke-opacity:1;stroke-dasharray:none" />
      <path
         d="m 241.08193,172.93683 -135.03364,0"
         id="path3029"
         style="fill:none;stroke:#000000;stroke-width:2.81320095px;stroke-linecap:butt;stroke-linejoin:miter;stroke-miterlimit:4;stroke-opacity:1;stroke-dasharray:none" />
      <text
         x="452.19522"
         y="-31.805758"
         id="text3031"
         xml:space="preserve"
         style="font-size:25.05624199px;font-style:normal;font-weight:bold;text-align:start;text-anchor:start;fill:#000000;font-family:Arial">Regular Operation</text>
      <text
         x="407.03397"
         y="-4.1988807"
         id="text3033"
         xml:space="preserve"
         style="font-size:22.5056076px;font-style:normal;font-weight:normal;text-align:start;text-anchor:start;fill:#000000;font-family:Arial">(some </text>
      <text
         x="475.7511"
         y="-4.1988807"
         id="text3035"
         xml:space="preserve"
         style="font-size:22.5056076px;font-style:normal;font-weight:normal;text-align:start;text-anchor:start;fill:#000000;font-family:Arial">checkpointing</text>
      <text
         x="612.88525"
         y="-4.1988807"
         id="text3037"
         xml:space="preserve"
         style="font-size:22.5056076px;font-style:normal;font-weight:normal;text-align:start;text-anchor:start;fill:#000000;font-family:Arial">-</text>
      <text
         x="620.38715"
         y="-4.1988807"
         id="text3039"
         xml:space="preserve"
         style="font-size:22.5056076px;font-style:normal;font-weight:normal;text-align:start;text-anchor:start;fill:#000000;font-family:Arial">free time)</text>
      <path
         d="m 241.08193,108.08318 0,28.91032 28.91033,0 0,-28.91032 -28.91033,0 z"
         id="path3041"
         style="fill:#ffc000;fill-opacity:1;fill-rule:evenodd;stroke:none" />
      <path
         d="m 269.99226,108.08318 0,28.9197 106.13269,0 0,-28.9197 -106.13269,0 z"
         id="path3043"
         style="fill:#70ad47;fill-opacity:1;fill-rule:evenodd;stroke:none" />
      <path
         d="m 376.12495,108.08318 0,28.9197 28.90095,0 0,-28.9197 -28.90095,0 z"
         id="path3045"
         style="fill:#ffc000;fill-opacity:1;fill-rule:evenodd;stroke:none" />
      <path
         d="m 405.0259,108.08318 0,28.9197 106.13269,0 0,-28.9197 -106.13269,0 z"
         id="path3047"
         style="fill:#70ad47;fill-opacity:1;fill-rule:evenodd;stroke:none" />
      <path
         d="m 106.05767,406.75133 0,22.73066"
         id="path3049"
         style="fill:none;stroke:#000000;stroke-width:2.81320095px;stroke-linecap:butt;stroke-linejoin:miter;stroke-miterlimit:4;stroke-opacity:1;stroke-dasharray:none" />
      <path
         d="m 239.98479,406.75133 0,22.73066"
         id="path3051"
         style="fill:none;stroke:#000000;stroke-width:2.81320095px;stroke-linecap:butt;stroke-linejoin:miter;stroke-miterlimit:4;stroke-opacity:1;stroke-dasharray:none" />
      <path
         d="m 241.09131,418.15417 -135.03364,0"
         id="path3053"
         style="fill:none;stroke:#000000;stroke-width:2.81320095px;stroke-linecap:butt;stroke-linejoin:miter;stroke-miterlimit:4;stroke-opacity:1;stroke-dasharray:none" />
      <text
         x="88.081291"
         y="213.86913"
         id="text3055"
         xml:space="preserve"
         style="font-size:19.95497131px;font-style:normal;font-weight:normal;text-align:start;text-anchor:start;fill:#000000;font-family:Arial">Checkpoint Interval</text>
      <path
         d="m 241.08193,161.53399 0,22.73066"
         id="path3057"
         style="fill:none;stroke:#000000;stroke-width:2.81320095px;stroke-linecap:butt;stroke-linejoin:miter;stroke-miterlimit:4;stroke-opacity:1;stroke-dasharray:none" />
      <path
         d="m 375.01843,161.53399 0,22.73066"
         id="path3059"
         style="fill:none;stroke:#000000;stroke-width:2.81320095px;stroke-linecap:butt;stroke-linejoin:miter;stroke-miterlimit:4;stroke-opacity:1;stroke-dasharray:none" />
      <path
         d="m 376.12495,172.93683 -135.03364,0"
         id="path3061"
         style="fill:none;stroke:#000000;stroke-width:2.81320095px;stroke-linecap:butt;stroke-linejoin:miter;stroke-miterlimit:4;stroke-opacity:1;stroke-dasharray:none" />
      <path
         d="m 373.93066,161.53399 0,22.73066"
         id="path3063"
         style="fill:none;stroke:#000000;stroke-width:2.81320095px;stroke-linecap:butt;stroke-linejoin:miter;stroke-miterlimit:4;stroke-opacity:1;stroke-dasharray:none" />
      <path
         d="m 507.87652,161.53399 0,22.73066"
         id="path3065"
         style="fill:none;stroke:#000000;stroke-width:2.81320095px;stroke-linecap:butt;stroke-linejoin:miter;stroke-miterlimit:4;stroke-opacity:1;stroke-dasharray:none" />
      <path
         d="m 508.9643,172.93683 -135.03364,0"
         id="path3067"
         style="fill:none;stroke:#000000;stroke-width:2.81320095px;stroke-linecap:butt;stroke-linejoin:miter;stroke-miterlimit:4;stroke-opacity:1;stroke-dasharray:none" />
      <path
         d="m 508.9643,161.53399 0,22.73066"
         id="path3069"
         style="fill:none;stroke:#000000;stroke-width:2.81320095px;stroke-linecap:butt;stroke-linejoin:miter;stroke-miterlimit:4;stroke-opacity:1;stroke-dasharray:none" />
      <path
         d="m 642.91017,161.55275 0,22.73066"
         id="path3071"
         style="fill:none;stroke:#000000;stroke-width:2.81320095px;stroke-linecap:butt;stroke-linejoin:miter;stroke-miterlimit:4;stroke-opacity:1;stroke-dasharray:none" />
      <path
         d="m 643.99794,172.95559 -135.03364,0"
         id="path3073"
         style="fill:none;stroke:#000000;stroke-width:2.81320095px;stroke-linecap:butt;stroke-linejoin:miter;stroke-miterlimit:4;stroke-opacity:1;stroke-dasharray:none" />
      <path
         d="m 507.87652,108.08318 0,28.9197 28.90095,0 0,-28.9197 -28.90095,0 z"
         id="path3075"
         style="fill:#ffc000;fill-opacity:1;fill-rule:evenodd;stroke:none" />
      <path
         d="m 536.79623,108.10193 0,28.91971 106.11394,0 0,-28.91971 -106.11394,0 z"
         id="path3077"
         style="fill:#70ad47;fill-opacity:1;fill-rule:evenodd;stroke:none" />
      <text
         x="17.819006"
         y="47.55584"
         id="text3079"
         xml:space="preserve"
         style="font-size:19.95497131px;font-style:normal;font-weight:normal;text-align:start;text-anchor:start;fill:#000000;font-family:Arial">Duration of Checkpoint</text>
      <text
         x="266.45242"
         y="59.093952"
         id="text3081"
         xml:space="preserve"
         style="font-size:19.95497131px;font-style:normal;font-weight:normal;text-align:start;text-anchor:start;fill:#000000;font-family:Arial">Processing without</text>
      <text
         x="266.45242"
         y="83.099937"
         id="text3083"
         xml:space="preserve"
         style="font-size:19.95497131px;font-style:normal;font-weight:normal;text-align:start;text-anchor:start;fill:#000000;font-family:Arial">a checkpoint in progress </text>
      <path
         d="m 106.07643,719.16666 0,22.76817"
         id="path3085"
         style="fill:none;stroke:#000000;stroke-width:2.81320095px;stroke-linecap:butt;stroke-linejoin:miter;stroke-miterlimit:4;stroke-opacity:1;stroke-dasharray:none" />
      <path
         d="m 239.98479,719.16666 0,22.76817"
         id="path3087"
         style="fill:none;stroke:#000000;stroke-width:2.81320095px;stroke-linecap:butt;stroke-linejoin:miter;stroke-miterlimit:4;stroke-opacity:1;stroke-dasharray:none" />
      <path
         d="m 241.11007,730.60701 -135.03364,0"
         id="path3089"
         style="fill:none;stroke:#000000;stroke-width:2.81320095px;stroke-linecap:butt;stroke-linejoin:miter;stroke-miterlimit:4;stroke-opacity:1;stroke-dasharray:none" />
      <path
         d="m 318.60437,646.96117 0,11.25281 -2.8132,0 0,-11.25281 2.8132,0 z m 0,19.69241 0,11.2528 -2.8132,0 0,-11.2528 2.8132,0 z m 0,19.69241 0,11.2528 -2.8132,0 0,-11.2528 2.8132,0 z m 0,19.6924 0,11.25281 -2.8132,0 0,-11.25281 2.8132,0 z m 0,19.69241 0,11.2528 -2.8132,0 0,-11.2528 2.8132,0 z m 0,19.6924 0,11.25281 -2.8132,0 0,-11.25281 2.8132,0 z"
         id="path3091"
         style="fill:#000000;fill-opacity:1;fill-rule:nonzero;stroke:#000000;stroke-width:0.03750934px;stroke-linecap:butt;stroke-linejoin:round;stroke-opacity:1;stroke-dasharray:none" />
      <text
         x="88.37674"
         y="456.98352"
         id="text3093"
         xml:space="preserve"
         style="font-size:19.95497131px;font-style:normal;font-weight:normal;text-align:start;text-anchor:start;fill:#000000;font-family:Arial">Checkpoint Interval</text>
      <text
         x="285.33713"
         y="475.22153"
         id="text3095"
         xml:space="preserve"
         style="font-size:19.95497131px;font-style:normal;font-weight:normal;text-align:start;text-anchor:start;fill:#000000;font-family:Arial">Checkpoint completes late,</text>
      <text
         x="285.33713"
         y="499.22751"
         id="text3097"
         xml:space="preserve"
         style="font-size:19.95497131px;font-style:normal;font-weight:normal;text-align:start;text-anchor:start;fill:#000000;font-family:Arial">Immediately triggers next</text>
      <path
         d="m 321.60512,453.07537 -4.36984,-21.17402 2.75694,-0.56264 4.36984,21.15527 -2.75694,0.58139 z m -6.8267,-19.22354 2.41935,-9.13352 5.8327,7.42685 -8.25205,1.70667 z"
         id="path3099"
         style="fill:#000000;fill-opacity:1;fill-rule:nonzero;stroke:#000000;stroke-width:0.01875467px;stroke-linecap:butt;stroke-linejoin:round;stroke-opacity:1;stroke-dasharray:none" />
      <text
         x="102.75316"
         y="767.70654"
         id="text3101"
         xml:space="preserve"
         style="font-size:19.95497131px;font-style:normal;font-weight:normal;text-align:start;text-anchor:start;fill:#000000;font-family:Arial">Base Checkpoint</text>
      <text
         x="145.66385"
         y="791.71252"
         id="text3103"
         xml:space="preserve"
         style="font-size:19.95497131px;font-style:normal;font-weight:normal;text-align:start;text-anchor:start;fill:#000000;font-family:Arial">Interval</text>
      <path
         d="m 107.38925,55.288774 12.26556,37.20927 -2.67254,0.881469 -12.26556,-37.218647 2.67254,-0.872092 z m 14.49737,34.986841 -1.3691,9.339827 -6.64853,-6.695418 8.01763,-2.644409 z"
         id="path3105"
         style="fill:#000000;fill-opacity:1;fill-rule:nonzero;stroke:#000000;stroke-width:0.00937734px;stroke-linecap:butt;stroke-linejoin:round;stroke-opacity:1;stroke-dasharray:none" />
      <path
         d="m 255.01666,76.303384 -50.33754,20.948969 1.08777,2.597522 50.32816,-20.948969 -1.07839,-2.597522 z m -50.12187,17.816939 -6.17028,7.136157 9.41484,0.65641 -3.24456,-7.792567 z"
         id="path3107"
         style="fill:#000000;fill-opacity:1;fill-rule:nonzero;stroke:#000000;stroke-width:0.00937734px;stroke-linecap:butt;stroke-linejoin:round;stroke-opacity:1;stroke-dasharray:none" />
      <path
         d="m 642.91017,161.55275 0,22.73066"
         id="path3109"
         style="fill:none;stroke:#000000;stroke-width:2.81320095px;stroke-linecap:butt;stroke-linejoin:miter;stroke-miterlimit:4;stroke-opacity:1;stroke-dasharray:none" />
      <path
         d="m 776.85603,161.55275 0,22.73066"
         id="path3111"
         style="fill:none;stroke:#000000;stroke-width:2.81320095px;stroke-linecap:butt;stroke-linejoin:miter;stroke-miterlimit:4;stroke-opacity:1;stroke-dasharray:none" />
      <path
         d="m 777.94381,172.95559 -135.03364,0"
         id="path3113"
         style="fill:none;stroke:#000000;stroke-width:2.81320095px;stroke-linecap:butt;stroke-linejoin:miter;stroke-miterlimit:4;stroke-opacity:1;stroke-dasharray:none" />
      <path
         d="m 641.82239,108.10193 0,28.91971 29.06975,0 0,-28.91971 -29.06975,0 z"
         id="path3115"
         style="fill:#ffc000;fill-opacity:1;fill-rule:evenodd;stroke:none" />
      <path
         d="m 670.89214,108.10193 0,28.91971 105.96389,0 0,-28.91971 -105.96389,0 z"
         id="path3117"
         style="fill:#70ad47;fill-opacity:1;fill-rule:evenodd;stroke:none" />
      <path
         d="m 777.94381,161.55275 0,22.73066"
         id="path3119"
         style="fill:none;stroke:#000000;stroke-width:2.81320095px;stroke-linecap:butt;stroke-linejoin:miter;stroke-miterlimit:4;stroke-opacity:1;stroke-dasharray:none" />
      <path
         d="m 911.88967,161.55275 0,22.73066"
         id="path3121"
         style="fill:none;stroke:#000000;stroke-width:2.81320095px;stroke-linecap:butt;stroke-linejoin:miter;stroke-miterlimit:4;stroke-opacity:1;stroke-dasharray:none" />
      <path
         d="m 912.97745,172.95559 -135.03364,0"
         id="path3123"
         style="fill:none;stroke:#000000;stroke-width:2.81320095px;stroke-linecap:butt;stroke-linejoin:miter;stroke-miterlimit:4;stroke-opacity:1;stroke-dasharray:none" />
      <path
         d="m 776.85603,108.10193 0,28.91971 29.06975,0 0,-28.91971 -29.06975,0 z"
         id="path3125"
         style="fill:#ffc000;fill-opacity:1;fill-rule:evenodd;stroke:none" />
      <path
         d="m 805.92578,108.10193 0,28.91971 105.96389,0 0,-28.91971 -105.96389,0 z"
         id="path3127"
         style="fill:#70ad47;fill-opacity:1;fill-rule:evenodd;stroke:none" />
      <path
         d="m 911.88967,161.55275 0,22.73066"
         id="path3129"
         style="fill:none;stroke:#000000;stroke-width:2.81320095px;stroke-linecap:butt;stroke-linejoin:miter;stroke-miterlimit:4;stroke-opacity:1;stroke-dasharray:none" />
      <path
         d="m 1045.9856,161.55275 0,22.73066"
         id="path3131"
         style="fill:none;stroke:#000000;stroke-width:2.81320095px;stroke-linecap:butt;stroke-linejoin:miter;stroke-miterlimit:4;stroke-opacity:1;stroke-dasharray:none" />
      <path
         d="m 1046.9233,172.95559 -135.03363,0"
         id="path3133"
         style="fill:none;stroke:#000000;stroke-width:2.81320095px;stroke-linecap:butt;stroke-linejoin:miter;stroke-miterlimit:4;stroke-opacity:1;stroke-dasharray:none" />
      <path
         d="m 910.95194,108.10193 0,28.91971 28.91971,0 0,-28.91971 -28.91971,0 z"
         id="path3135"
         style="fill:#ffc000;fill-opacity:1;fill-rule:evenodd;stroke:none" />
      <path
         d="m 939.87165,108.10193 0,28.91971 106.11395,0 0,-28.91971 -106.11395,0 z"
         id="path3137"
         style="fill:#70ad47;fill-opacity:1;fill-rule:evenodd;stroke:none" />
      <path
         d="m 527.40014,351.10622 0,28.9197 4.53863,0 0,-28.9197 -4.53863,0 z"
         id="path3139"
         style="fill:#70ad47;fill-opacity:1;fill-rule:evenodd;stroke:none" />
      <path
         d="m 530.68221,351.12497 0,28.91971 210.05233,0 0,-28.91971 -210.05233,0 z"
         id="path3141"
         style="fill:#ffc000;fill-opacity:1;fill-rule:evenodd;stroke:none" />
      <path
         d="m 738.85907,351.12497 0,28.91971 4.38859,0 0,-28.91971 -4.38859,0 z"
         id="path3143"
         style="fill:#70ad47;fill-opacity:1;fill-rule:evenodd;stroke:none" />
      <path
         d="m 742.00985,351.12497 0,28.91971 210.05233,0 0,-28.91971 -210.05233,0 z"
         id="path3145"
         style="fill:#ffc000;fill-opacity:1;fill-rule:evenodd;stroke:none" />
      <path
         d="m 950.18672,351.12497 0,28.91971 4.53863,0 0,-28.91971 -4.53863,0 z"
         id="path3147"
         style="fill:#70ad47;fill-opacity:1;fill-rule:evenodd;stroke:none" />
      <path
         d="m 953.29999,351.12497 0,28.91971 92.68561,0 0,-28.91971 -92.68561,0 z"
         id="path3149"
         style="fill:#ffc000;fill-opacity:1;fill-rule:evenodd;stroke:none" />
      <path
         d="m 318.60437,329.70714 0,11.2528 -2.8132,0 0,-11.2528 2.8132,0 z m 0,19.6924 0,11.25281 -2.8132,0 0,-11.25281 2.8132,0 z m 0,19.69241 0,11.2528 -2.8132,0 0,-11.2528 2.8132,0 z m 0,19.69241 0,11.2528 -2.8132,0 0,-11.2528 2.8132,0 z m 0,19.6924 0,7.14553 -2.8132,0 0,-7.14553 2.8132,0 z"
         id="path3151"
         style="fill:#000000;fill-opacity:1;fill-rule:nonzero;stroke:#000000;stroke-width:0.01875467px;stroke-linecap:butt;stroke-linejoin:round;stroke-opacity:1;stroke-dasharray:none" />
      <path
         d="m 530.0633,329.70714 0,11.2528 -2.8132,0 0,-11.2528 2.8132,0 z m 0,19.6924 0,11.25281 -2.8132,0 0,-11.25281 2.8132,0 z m 0,19.69241 0,11.2528 -2.8132,0 0,-11.2528 2.8132,0 z m 0,19.69241 0,11.2528 -2.8132,0 0,-11.2528 2.8132,0 z m 0,19.6924 0,7.14553 -2.8132,0 0,-7.14553 2.8132,0 z"
         id="path3153"
         style="fill:#000000;fill-opacity:1;fill-rule:nonzero;stroke:#000000;stroke-width:0.01875467px;stroke-linecap:butt;stroke-linejoin:round;stroke-opacity:1;stroke-dasharray:none" />
      <path
         d="m 741.37219,329.70714 0,11.2528 -2.8132,0 0,-11.2528 2.8132,0 z m 0,19.6924 0,11.25281 -2.8132,0 0,-11.25281 2.8132,0 z m 0,19.69241 0,11.2528 -2.8132,0 0,-11.2528 2.8132,0 z m 0,19.69241 0,11.2528 -2.8132,0 0,-11.2528 2.8132,0 z m 0,19.6924 0,7.16429 -2.8132,0 0,-7.16429 2.8132,0 z"
         id="path3155"
         style="fill:#000000;fill-opacity:1;fill-rule:nonzero;stroke:#000000;stroke-width:0.03750934px;stroke-linecap:butt;stroke-linejoin:round;stroke-opacity:1;stroke-dasharray:none" />
      <path
         d="m 952.66233,329.70714 0,11.2528 -2.8132,0 0,-11.2528 2.8132,0 z m 0,19.6924 0,11.25281 -2.8132,0 0,-11.25281 2.8132,0 z m 0,19.69241 0,11.2528 -2.8132,0 0,-11.2528 2.8132,0 z m 0,19.69241 0,11.2528 -2.8132,0 0,-11.2528 2.8132,0 z m 0,19.6924 0,7.16429 -2.8132,0 0,-7.16429 2.8132,0 z"
         id="path3157"
         style="fill:#000000;fill-opacity:1;fill-rule:nonzero;stroke:#000000;stroke-width:0.03750934px;stroke-linecap:butt;stroke-linejoin:round;stroke-opacity:1;stroke-dasharray:none" />
      <text
         x="148.77711"
         y="842.66461"
         id="text3159"
         xml:space="preserve"
         style="font-size:19.95497131px;font-style:normal;font-weight:normal;text-align:start;text-anchor:start;fill:#000000;font-family:Arial">Checkpoint completes late</text>
      <path
         d="m 287.35909,819.16657 26.78167,-53.8259 -2.51313,-1.27532 -26.78167,53.82591 2.51313,1.27531 z m 28.69465,-51.31278 -0.0375,-9.45235 -7.53938,5.70142 7.57689,3.75093 z"
         id="path3161"
         style="fill:#000000;fill-opacity:1;fill-rule:nonzero;stroke:#000000;stroke-width:0.03750934px;stroke-linecap:butt;stroke-linejoin:round;stroke-opacity:1;stroke-dasharray:none" />
      <text
         x="395.0498"
         y="800.99463"
         id="text3163"
         xml:space="preserve"
         style="font-size:19.95497131px;font-style:normal;font-weight:normal;text-align:start;text-anchor:start;fill:#000000;font-family:Arial">Min. </text>
      <text
         x="438.56064"
         y="800.99463"
         id="text3165"
         xml:space="preserve"
         style="font-size:19.95497131px;font-style:normal;font-weight:normal;text-align:start;text-anchor:start;fill:#000000;font-family:Arial">t</text>
      <text
         x="444.11203"
         y="800.99463"
         id="text3167"
         xml:space="preserve"
         style="font-size:19.95497131px;font-style:normal;font-weight:normal;text-align:start;text-anchor:start;fill:#000000;font-family:Arial">ime between checkpoints</text>
      <path
         d="m 387.20896,784.77051 -9.48986,-10.09002 2.06301,-1.95048 9.48987,10.12752 -2.06302,1.91298 z m -10.57763,-7.16429 -2.70067,-9.03975 8.8522,3.26331 -6.15153,5.77644 z"
         id="path3169"
         style="fill:#000000;fill-opacity:1;fill-rule:nonzero;stroke:#000000;stroke-width:0.03750934px;stroke-linecap:butt;stroke-linejoin:round;stroke-opacity:1;stroke-dasharray:none" />
      <text
         x="441.10461"
         y="276.30859"
         id="text3171"
         xml:space="preserve"
         style="font-size:25.05624199px;font-style:normal;font-weight:bold;text-align:start;text-anchor:start;fill:#000000;font-family:Arial">Degraded Operation</text>
      <text
         x="431.65225"
         y="303.91547"
         id="text3173"
         xml:space="preserve"
         style="font-size:22.5056076px;font-style:normal;font-weight:normal;text-align:start;text-anchor:start;fill:#000000;font-family:Arial">(constantly </text>
      <text
         x="546.73096"
         y="303.91547"
         id="text3175"
         xml:space="preserve"
         style="font-size:22.5056076px;font-style:normal;font-weight:normal;text-align:start;text-anchor:start;fill:#000000;font-family:Arial">checkpointing</text>
      <text
         x="683.86511"
         y="303.91547"
         id="text3177"
         xml:space="preserve"
         style="font-size:22.5056076px;font-style:normal;font-weight:normal;text-align:start;text-anchor:start;fill:#000000;font-family:Arial">)</text>
      <text
         x="423.17554"
         y="599.56708"
         id="text3179"
         xml:space="preserve"
         style="font-size:25.05624199px;font-style:normal;font-weight:bold;text-align:start;text-anchor:start;fill:#000000;font-family:Arial">Guaranteeing Progress</text>
      <text
         x="375.76373"
         y="627.17395"
         id="text3181"
         xml:space="preserve"
         style="font-size:22.5056076px;font-style:normal;font-weight:normal;text-align:start;text-anchor:start;fill:#000000;font-family:Arial">(ensuring some checkpoint</text>
      <text
         x="644.33063"
         y="627.17395"
         id="text3183"
         xml:space="preserve"
         style="font-size:22.5056076px;font-style:normal;font-weight:normal;text-align:start;text-anchor:start;fill:#000000;font-family:Arial">-</text>
      <text
         x="651.83246"
         y="627.17395"
         id="text3185"
         xml:space="preserve"
         style="font-size:22.5056076px;font-style:normal;font-weight:normal;text-align:start;text-anchor:start;fill:#000000;font-family:Arial">free time)</text>
      <path
         d="m 422.24269,722.16741 c 0,9.18979 -11.36533,16.61664 -25.35632,16.61664 l 0,0 c -13.99098,0 -25.35631,7.46436 -25.35631,16.65415 0,-9.18979 -11.32782,-16.65415 -25.31881,-16.65415 l -4.76369,0 c -13.99098,0 -25.3188,-7.42685 -25.3188,-16.61664"
         id="path3187"
         style="fill:none;stroke:#000000;stroke-width:1.87546718px;stroke-linecap:butt;stroke-linejoin:miter;stroke-miterlimit:4;stroke-opacity:1;stroke-dasharray:none" />
    </g>
  </g>
</svg>
