<?xml version="1.0" encoding="UTF-8" standalone="no"?>
<!--
Licensed to the Apache Software Foundation (ASF) under one
or more contributor license agreements.  See the NOTICE file
distributed with this work for additional information
regarding copyright ownership.  The ASF licenses this file
to you under the Apache License, Version 2.0 (the
"License"); you may not use this file except in compliance
with the License.  You may obtain a copy of the License at

http://www.apache.org/licenses/LICENSE-2.0

Unless required by applicable law or agreed to in writing,
software distributed under the License is distributed on an
"AS IS" BASIS, WITHOUT WARRANTIES OR CONDITIONS OF ANY
KIND, either express or implied.  See the License for the
specific language governing permissions and limitations
under the License.
-->

<svg
   xmlns:dc="http://purl.org/dc/elements/1.1/"
   xmlns:cc="http://creativecommons.org/ns#"
   xmlns:rdf="http://www.w3.org/1999/02/22-rdf-syntax-ns#"
   xmlns:svg="http://www.w3.org/2000/svg"
   xmlns="http://www.w3.org/2000/svg"
   xmlns:sodipodi="http://sodipodi.sourceforge.net/DTD/sodipodi-0.dtd"
   xmlns:inkscape="http://www.inkscape.org/namespaces/inkscape"
   version="1.1"
   viewBox="0 0 714.5274 341.0361"
   stroke-miterlimit="10"
   id="svg2"
   inkscape:version="0.91 r13725"
   sodipodi:docname="global-windows.svg"
   width="714.5274"
   height="341.0361"
   style="fill:none;stroke:none;stroke-linecap:square;stroke-miterlimit:10">
  <metadata
     id="metadata195">
    <rdf:RDF>
      <cc:Work
         rdf:about="">
        <dc:format>image/svg+xml</dc:format>
        <dc:type
           rdf:resource="http://purl.org/dc/dcmitype/StillImage" />
        <dc:title />
      </cc:Work>
    </rdf:RDF>
  </metadata>
  <defs
     id="defs193">
    <clipPath
       clipPathUnits="userSpaceOnUse"
       id="clipPath3525">
      <rect
         style="fill:#0000ff;fill-rule:evenodd;stroke:#000000;stroke-width:1px;stroke-linecap:butt;stroke-linejoin:miter;stroke-opacity:1"
         id="rect3527"
         width="615.2345"
         height="457.29678"
         x="45.419998"
         y="83.863663" />
    </clipPath>
    <clipPath
       clipPathUnits="userSpaceOnUse"
       id="clipPath3704">
      <rect
         style="fill:#0000ff;fill-rule:evenodd;stroke:#000000;stroke-width:1.08086026px;stroke-linecap:butt;stroke-linejoin:miter;stroke-opacity:1"
         id="rect3706"
         width="755.94531"
         height="400.11456"
         x="41.297459"
         y="5.6154351" />
    </clipPath>
    <clipPath
       clipPathUnits="userSpaceOnUse"
       id="clipPath3708">
      <rect
         style="fill:#0000ff;fill-rule:evenodd;stroke:#000000;stroke-width:1px;stroke-linecap:butt;stroke-linejoin:miter;stroke-opacity:1"
         id="rect3710"
         width="744.4068"
         height="347.7966"
         x="52.881355"
         y="6.1016951" />
    </clipPath>
    <clipPath
       clipPathUnits="userSpaceOnUse"
       id="clipPath3712">
      <rect
         style="fill:#0000ff;fill-rule:evenodd;stroke:#000000;stroke-width:1px;stroke-linecap:butt;stroke-linejoin:miter;stroke-opacity:1"
         id="rect3714"
         width="744.4068"
         height="347.7966"
         x="52.881355"
         y="6.1016951" />
    </clipPath>
    <clipPath
       clipPathUnits="userSpaceOnUse"
       id="clipPath3716">
      <rect
         style="fill:#0000ff;fill-rule:evenodd;stroke:#000000;stroke-width:1px;stroke-linecap:butt;stroke-linejoin:miter;stroke-opacity:1"
         id="rect3718"
         width="744.4068"
         height="347.7966"
         x="52.881355"
         y="6.1016951" />
    </clipPath>
    <clipPath
       clipPathUnits="userSpaceOnUse"
       id="clipPath3720">
      <rect
         style="fill:#0000ff;fill-rule:evenodd;stroke:#000000;stroke-width:1px;stroke-linecap:butt;stroke-linejoin:miter;stroke-opacity:1"
         id="rect3722"
         width="744.4068"
         height="347.7966"
         x="52.881355"
         y="6.1016951" />
    </clipPath>
    <clipPath
       clipPathUnits="userSpaceOnUse"
       id="clipPath3724">
      <rect
         style="fill:#0000ff;fill-rule:evenodd;stroke:#000000;stroke-width:1px;stroke-linecap:butt;stroke-linejoin:miter;stroke-opacity:1"
         id="rect3726"
         width="744.4068"
         height="347.7966"
         x="52.881355"
         y="6.1016951" />
    </clipPath>
    <clipPath
       clipPathUnits="userSpaceOnUse"
       id="clipPath3728">
      <rect
         style="fill:#0000ff;fill-rule:evenodd;stroke:#000000;stroke-width:1px;stroke-linecap:butt;stroke-linejoin:miter;stroke-opacity:1"
         id="rect3730"
         width="744.4068"
         height="347.7966"
         x="52.881355"
         y="6.1016951" />
    </clipPath>
    <clipPath
       clipPathUnits="userSpaceOnUse"
       id="clipPath3732">
      <rect
         style="fill:#0000ff;fill-rule:evenodd;stroke:#000000;stroke-width:1px;stroke-linecap:butt;stroke-linejoin:miter;stroke-opacity:1"
         id="rect3734"
         width="744.4068"
         height="347.7966"
         x="52.881355"
         y="6.1016951" />
    </clipPath>
    <clipPath
       clipPathUnits="userSpaceOnUse"
       id="clipPath3736">
      <rect
         style="fill:#0000ff;fill-rule:evenodd;stroke:#000000;stroke-width:1px;stroke-linecap:butt;stroke-linejoin:miter;stroke-opacity:1"
         id="rect3738"
         width="744.4068"
         height="347.7966"
         x="52.881355"
         y="6.1016951" />
    </clipPath>
    <clipPath
       clipPathUnits="userSpaceOnUse"
       id="clipPath3740">
      <rect
         style="fill:#0000ff;fill-rule:evenodd;stroke:#000000;stroke-width:1px;stroke-linecap:butt;stroke-linejoin:miter;stroke-opacity:1"
         id="rect3742"
         width="744.4068"
         height="347.7966"
         x="52.881355"
         y="6.1016951" />
    </clipPath>
    <clipPath
       clipPathUnits="userSpaceOnUse"
       id="clipPath3744">
      <rect
         style="fill:#0000ff;fill-rule:evenodd;stroke:#000000;stroke-width:1px;stroke-linecap:butt;stroke-linejoin:miter;stroke-opacity:1"
         id="rect3746"
         width="744.4068"
         height="347.7966"
         x="52.881355"
         y="6.1016951" />
    </clipPath>
  </defs>
  <sodipodi:namedview
     pagecolor="#ffffff"
     bordercolor="#666666"
     borderopacity="1"
     objecttolerance="10"
     gridtolerance="10"
     guidetolerance="10"
     inkscape:pageopacity="0"
     inkscape:pageshadow="2"
     inkscape:window-width="1280"
     inkscape:window-height="756"
     id="namedview191"
     showgrid="false"
     inkscape:zoom="1.0505816"
     inkscape:cx="413.7996"
     inkscape:cy="162.22157"
     inkscape:window-x="0"
     inkscape:window-y="1"
     inkscape:window-maximized="1"
     inkscape:current-layer="svg2"
     fit-margin-top="0"
     fit-margin-left="0"
     fit-margin-right="0"
     fit-margin-bottom="0" />
  <clipPath
     id="p.0">
    <path
       d="M 0,0 800,0 800,600 0,600 0,0 Z"
       id="path5"
       inkscape:connector-curvature="0"
       style="clip-rule:nonzero" />
  </clipPath>
  <path
     style="fill:#000000;fill-opacity:0;fill-rule:nonzero"
     inkscape:connector-curvature="0"
     id="path9"
     d="m -98.622751,-176.45227 1030.090001,0 0,774.79283 -1030.090001,0 z" />
  <path
     style="fill:#000000;fill-opacity:0;fill-rule:nonzero"
     inkscape:connector-curvature="0"
     id="path147"
     d="M 160.75036,549.11674 229.89617,380.08581"
     clip-path="url(#clipPath3716)"
     transform="translate(-45.254306,-74.732865)" />
  <path
     style="fill:#000000;fill-opacity:0;fill-rule:nonzero"
     inkscape:connector-curvature="0"
     id="path153"
     d="m 81.303655,549.11674 158.893405,0 0,55.51666 -158.893405,0 z"
     clip-path="url(#clipPath3712)"
     transform="translate(-45.254306,-74.732865)" />
  <path
     style="fill:#000000;fill-opacity:0;fill-rule:nonzero"
     inkscape:connector-curvature="0"
     id="path171"
     d="m 270.72501,557.67132 192.83774,0 0,55.51669 -192.83774,0 z"
     clip-path="url(#clipPath3708)"
     transform="translate(-45.254306,-74.732865)" />
  <path
     style="fill:#000000;fill-opacity:0;fill-rule:nonzero"
     inkscape:connector-curvature="0"
     id="path27"
     d="m -62.193769,52.756165 103.992586,0 0,48.257445 -103.992586,0 z" />
  <path
     style="fill:#000000;fill-opacity:0;fill-rule:nonzero"
     inkscape:connector-curvature="0"
     id="path31"
     d="m -62.193769,107.75727 103.992586,0 0,48.25744 -103.992586,0 z" />
  <path
     style="fill:#000000;fill-opacity:0;fill-rule:nonzero"
     inkscape:connector-curvature="0"
     id="path35"
     d="m -62.193769,171.73815 103.992586,0 0,48.25744 -103.992586,0 z" />
  <path
     style="fill:#000000;fill-opacity:0;fill-rule:nonzero"
     inkscape:connector-curvature="0"
     id="path135"
     d="m 594.51778,0 130.58978,0 0,43.767555 -130.58978,0 z" />
  <path
     style="fill:#000000;fill-opacity:0;fill-rule:nonzero"
     inkscape:connector-curvature="0"
     id="path11"
     d="m 69.034964,312.26431 645.401046,0" />
  <path
     style="fill-rule:evenodd;stroke:#000000;stroke-width:1.19299948;stroke-linecap:butt;stroke-linejoin:round"
     inkscape:connector-curvature="0"
     id="path13"
     d="m 69.034964,312.26431 637.793286,0" />
  <path
     style="fill:#000000;fill-rule:evenodd;stroke:#000000;stroke-width:1.19299948;stroke-linecap:butt"
     inkscape:connector-curvature="0"
     id="path15"
     d="m 706.82826,314.11832 5.75411,-1.85401 -5.75411,-1.85404 z" />
  <path
     style="fill-rule:evenodd;stroke:#000000;stroke-width:0.99090773;stroke-linecap:butt;stroke-linejoin:round"
     inkscape:connector-curvature="0"
     id="path19"
     d="m 69.034964,312.46623 0,-301.23268" />
  <path
     style="fill:#000000;fill-rule:evenodd;stroke:#000000;stroke-width:1.19299948;stroke-linecap:butt"
     inkscape:connector-curvature="0"
     id="path21"
     d="m 71.129304,11.23355 -2.09433,-5.093882 -2.09433,5.093882 z" />
  <path
     style="fill:#000000;fill-opacity:0;fill-rule:nonzero"
     inkscape:connector-curvature="0"
     id="path23"
     d="m 628.84376,303.28454 76.07753,0 0,48.25744 -76.07753,0 z" />
  <path
     style="fill:#000000;fill-rule:nonzero"
     inkscape:connector-curvature="0"
     id="path25"
     d="m 646.47631,331.81774 0.29718,1.66616 q -0.89153,0.15785 -1.60476,0.15785 -1.14909,0 -1.78306,-0.3157 -0.63399,-0.33324 -0.89154,-0.84186 -0.25755,-0.52614 -0.25755,-2.22741 l 0,-6.34897 -1.56514,0 0,-1.47324 1.56514,0 0,-2.73603 2.10006,-1.12247 0,3.8585 2.13967,0 0,1.47324 -2.13967,0 0,6.4542 q 0,0.80678 0.099,1.03479 0.11881,0.228 0.37644,0.3683 0.25755,0.14032 0.73303,0.14032 0.3368,0 0.93116,-0.0877 z m 1.95603,-11.43518 0,-2.13972 2.11988,0 0,2.13972 -2.11988,0 z m 0,13.11888 0,-11.06687 2.11988,0 0,11.06687 -2.11988,0 z m 5.23567,0 0,-11.06687 1.90194,0 0,1.56094 q 0.57455,-0.80678 1.54532,-1.29786 0.9906,-0.50862 2.23875,-0.50862 1.38683,0 2.27836,0.50862 0.89154,0.50861 1.24815,1.43816 1.48589,-1.94679 3.86331,-1.94679 1.86231,0 2.85291,0.91201 1.01041,0.91201 1.01041,2.80618 l 0,7.59422 -2.11987,0 0,-6.96283 q 0,-1.12247 -0.19812,-1.61355 -0.19812,-0.50862 -0.75285,-0.80678 -0.53492,-0.29815 -1.26797,-0.29815 -1.30758,0 -2.1793,0.7717 -0.87172,0.77169 -0.87172,2.49048 l 0,6.41913 -2.11986,0 0,-7.19083 q 0,-1.24525 -0.51512,-1.85909 -0.5151,-0.63139 -1.70382,-0.63139 -0.89154,0 -1.66419,0.42092 -0.75285,0.40338 -1.08966,1.21016 -0.33679,0.80678 -0.33679,2.3151 l 0,5.73513 -2.11988,0 z m 28.26379,-3.56034 2.17931,0.24554 q -0.51511,1.68371 -1.92176,2.63079 -1.38682,0.92955 -3.56613,0.92955 -2.73404,0 -4.33879,-1.49078 -1.60477,-1.49078 -1.60477,-4.19172 0,-2.78866 1.60477,-4.33205 1.62457,-1.5434 4.21992,-1.5434 2.51611,0 4.10106,1.50832 1.58494,1.50833 1.58494,4.26189 0,0.15784 -0.0198,0.49108 l -9.31157,0 q 0.11881,1.82402 1.1689,2.78864 1.05003,0.96462 2.61518,0.96462 1.14908,0 1.96136,-0.52615 0.8321,-0.5437 1.3274,-1.73633 z m -6.95396,-3.03418 6.97376,0 q -0.13867,-1.38556 -0.79246,-2.08711 -1.0104,-1.08739 -2.63498,-1.08739 -1.44627,0 -2.45667,0.87693 -0.99059,0.8594 -1.08965,2.29756 z" />
  <path
     style="fill:#000000;fill-rule:nonzero"
     inkscape:connector-curvature="0"
     id="path29"
     d="m 8.221921,82.973095 0,-1.6311 q -1.446265,1.87664 -3.962372,1.87664 -1.089652,0 -2.060433,-0.36832 Q 1.248148,82.464465 0.772663,81.903235 0.31699,81.341995 0.118872,80.517685 0,79.956455 0,78.763825 l 0,-6.8576 2.119869,0 0,6.13851 q 0,1.47325 0.118871,1.98187 0.198119,0.73663 0.85191,1.15755 0.653791,0.42093 1.60476,0.42093 0.95097,0 1.783067,-0.42093 0.832098,-0.43847 1.1689,-1.17509 0.356613,-0.75415 0.356613,-2.17479 l 0,-5.92805 2.119869,0 0,11.06687 -1.901938,0 z m 4.121775,-3.29726 2.100057,-0.29816 q 0.178306,1.12247 0.970781,1.71878 0.812286,0.57879 2.258552,0.57879 1.466077,0 2.159492,-0.52617 0.713227,-0.52616 0.713227,-1.2277 0,-0.63139 -0.614169,-0.9997 -0.43586,-0.24555 -2.159492,-0.6314 -2.337798,-0.52615 -3.249144,-0.89446 -0.891533,-0.38585 -1.367018,-1.05232 -0.455673,-0.68401 -0.455673,-1.49078 0,-0.73663 0.376425,-1.36802 0.396237,-0.63139 1.050029,-1.05231 0.495296,-0.3157 1.347206,-0.5437 0.85191,-0.228 1.822691,-0.228 1.48589,0 2.595354,0.38585 1.109463,0.36831 1.624571,1.01724 0.534921,0.63139 0.733039,1.70125 l -2.060433,0.24554 q -0.138683,-0.84186 -0.832098,-1.3154 -0.673603,-0.49108 -1.901938,-0.49108 -1.466078,0 -2.080245,0.43847 -0.614167,0.42092 -0.614167,0.98216 0,0.3683 0.257553,0.66647 0.257554,0.29815 0.812287,0.49108 0.316989,0.10517 1.862314,0.49108 2.238739,0.52616 3.130273,0.85939 0.891534,0.33324 1.38683,0.98216 0.515109,0.64893 0.515109,1.61355 0,0.92956 -0.614168,1.77141 -0.614168,0.82431 -1.783067,1.28031 -1.168899,0.43847 -2.634977,0.43847 -2.436859,0 -3.724629,-0.89447 -1.267959,-0.89447 -1.624572,-2.64833 z m 21.23831,-0.26309 2.179304,0.24555 q -0.515109,1.6837 -1.92175,2.63079 -1.38683,0.92955 -3.566134,0.92955 -2.734037,0 -4.338797,-1.49079 -1.60476,-1.49078 -1.60476,-4.19172 0,-2.78865 1.60476,-4.33204 1.624572,-1.5434 4.219925,-1.5434 2.516106,0 4.101055,1.50832 1.584953,1.50832 1.584953,4.26189 0,0.15784 -0.01979,0.49108 l -9.311576,0 q 0.118872,1.82402 1.1689,2.78863 1.050028,0.96464 2.615164,0.96464 1.149088,0 1.961374,-0.52617 0.832099,-0.5437 1.327394,-1.73633 z m -6.953962,-3.03417 6.973774,0 q -0.138684,-1.38556 -0.792475,-2.0871 -1.010404,-1.08739 -2.634977,-1.08739 -1.446265,0 -2.45667,0.87693 -0.990592,0.85939 -1.089652,2.29756 z m 11.531414,6.59452 0,-11.06687 1.90193,0 0,1.68371 q 0.733047,-1.17509 1.347207,-1.5434 0.614171,-0.38585 1.367021,-0.38585 1.069837,0 2.1793,0.61385 l -0.733037,1.73632 q -0.772664,-0.40338 -1.56513,-0.40338 -0.693422,0 -1.248154,0.3683 -0.534918,0.36832 -0.772663,1.01724 -0.356612,0.99971 -0.356612,2.19234 l 0,5.78774 -2.119862,0 z m 21.859266,0 -2.11987,0 0,-11.9438 q -0.75285,0.64893 -2.001,1.29785 -1.248149,0.6314 -2.238735,0.96463 l 0,-1.82401 q 1.783065,-0.73662 3.110455,-1.78894 1.3274,-1.05232 1.88213,-2.03448 l 1.36702,0 0,15.32875 z" />
  <path
     style="fill:#000000;fill-rule:nonzero"
     inkscape:connector-curvature="0"
     id="path33"
     d="m 8.221921,137.97421 0,-1.6311 q -1.446265,1.87663 -3.962372,1.87663 -1.089652,0 -2.060433,-0.36831 Q 1.248148,137.46558 0.772663,136.90435 0.31699,136.34311 0.118872,135.5188 0,134.95756 0,133.76494 l 0,-6.85761 2.119869,0 0,6.13852 q 0,1.47324 0.118871,1.98187 0.198119,0.73662 0.85191,1.15754 0.653791,0.42093 1.60476,0.42093 0.95097,0 1.783067,-0.42093 0.832098,-0.43847 1.1689,-1.17509 0.356613,-0.75415 0.356613,-2.17478 l 0,-5.92806 2.119869,0 0,11.06688 -1.901938,0 z m 4.121775,-3.29726 2.100057,-0.29816 q 0.178306,1.12247 0.970781,1.71878 0.812286,0.57878 2.258552,0.57878 1.466077,0 2.159492,-0.52616 0.713227,-0.52616 0.713227,-1.2277 0,-0.63139 -0.614169,-0.99971 -0.43586,-0.24554 -2.159492,-0.63139 -2.337798,-0.52616 -3.249144,-0.89447 -0.891533,-0.38585 -1.367018,-1.05231 -0.455673,-0.68402 -0.455673,-1.49079 0,-0.73662 0.376425,-1.36801 0.396237,-0.63139 1.050029,-1.05231 0.495296,-0.3157 1.347206,-0.5437 0.85191,-0.22801 1.822691,-0.22801 1.48589,0 2.595354,0.38585 1.109463,0.36831 1.624571,1.01723 0.534921,0.63139 0.733039,1.70125 l -2.060433,0.24555 q -0.138683,-0.84186 -0.832098,-1.31541 -0.673603,-0.49108 -1.901938,-0.49108 -1.466078,0 -2.080245,0.43847 -0.614167,0.42093 -0.614167,0.98216 0,0.36831 0.257553,0.66648 0.257554,0.29815 0.812287,0.49107 0.316989,0.10518 1.862314,0.49108 2.238739,0.52616 3.130273,0.85939 0.891534,0.33324 1.38683,0.98216 0.515109,0.64894 0.515109,1.61355 0,0.92956 -0.614168,1.77141 -0.614168,0.82432 -1.783067,1.28031 -1.168899,0.43847 -2.634977,0.43847 -2.436859,0 -3.724629,-0.89446 -1.267959,-0.89447 -1.624572,-2.64833 z m 21.23831,-0.26309 2.179304,0.24554 q -0.515109,1.68371 -1.92175,2.63079 -1.38683,0.92955 -3.566134,0.92955 -2.734037,0 -4.338797,-1.49078 -1.60476,-1.49078 -1.60476,-4.19172 0,-2.78865 1.60476,-4.33205 1.624572,-1.5434 4.219925,-1.5434 2.516106,0 4.101055,1.50833 1.584953,1.50832 1.584953,4.26189 0,0.15783 -0.01979,0.49107 l -9.311576,0 q 0.118872,1.82402 1.1689,2.78864 1.050028,0.96463 2.615164,0.96463 1.149088,0 1.961374,-0.52616 0.832099,-0.5437 1.327394,-1.73634 z m -6.953962,-3.03418 6.973774,0 q -0.138684,-1.38555 -0.792475,-2.08709 -1.010404,-1.0874 -2.634977,-1.0874 -1.446265,0 -2.45667,0.87693 -0.990592,0.8594 -1.089652,2.29756 z m 11.531414,6.59453 0,-11.06688 1.90193,0 0,1.68371 q 0.733047,-1.17509 1.347207,-1.5434 0.614171,-0.38585 1.367021,-0.38585 1.069837,0 2.1793,0.61386 l -0.733037,1.73632 q -0.772664,-0.40339 -1.56513,-0.40339 -0.693422,0 -1.248154,0.36831 -0.534918,0.36831 -0.772663,1.01724 -0.356612,0.9997 -0.356612,2.19233 l 0,5.78774 -2.119862,0 z m 25.009346,-1.80649 0,1.80649 -11.391812,0 q -0.01979,-0.68402 0.237735,-1.29786 0.435864,-1.03479 1.386834,-2.03448 0.970783,-0.99971 2.773653,-2.3151 2.81329,-2.03447 3.80388,-3.2271 0.9906,-1.19263 0.9906,-2.26249 0,-1.10493 -0.91134,-1.87664 -0.89155,-0.77169 -2.33781,-0.77169 -1.52551,0 -2.45667,0.8243 -0.911343,0.80678 -0.911343,2.24495 l -2.1793,-0.19292 q 0.217932,-2.15726 1.684007,-3.27973 1.466076,-1.14 3.922746,-1.14 2.47648,0 3.92275,1.2277 1.44627,1.21017 1.44627,3.01664 0,0.91202 -0.43586,1.80647 -0.41606,0.87694 -1.40665,1.85909 -0.97078,0.96464 -3.24915,2.68342 -1.90194,1.42063 -2.45667,1.92924 -0.53492,0.49109 -0.891531,0.9997 l 8.459661,0 z" />
  <path
     style="fill:#000000;fill-rule:nonzero"
     inkscape:connector-curvature="0"
     id="path37"
     d="m 8.221921,201.95506 0,-1.6311 q -1.446265,1.87664 -3.962372,1.87664 -1.089652,0 -2.060433,-0.36831 Q 1.248148,201.44643 0.772663,200.8852 0.31699,200.32396 0.118872,199.49966 0,198.93841 0,197.7458 l 0,-6.85761 2.119869,0 0,6.13852 q 0,1.47324 0.118871,1.98186 0.198119,0.73662 0.85191,1.15755 0.653791,0.42093 1.60476,0.42093 0.95097,0 1.783067,-0.42093 0.832098,-0.43847 1.1689,-1.17509 0.356613,-0.75415 0.356613,-2.17479 l 0,-5.92805 2.119869,0 0,11.06687 -1.901938,0 z m 4.121775,-3.29726 2.100057,-0.29816 q 0.178306,1.12247 0.970781,1.71879 0.812286,0.57877 2.258552,0.57877 1.466077,0 2.159492,-0.52616 0.713227,-0.52615 0.713227,-1.2277 0,-0.63139 -0.614169,-0.99971 -0.43586,-0.24554 -2.159492,-0.63139 -2.337798,-0.52615 -3.249144,-0.89446 -0.891533,-0.38585 -1.367018,-1.05232 -0.455673,-0.68401 -0.455673,-1.49079 0,-0.73662 0.376425,-1.36801 0.396237,-0.63139 1.050029,-1.05231 0.495296,-0.31569 1.347206,-0.5437 0.85191,-0.22798 1.822691,-0.22798 1.48589,0 2.595354,0.38583 1.109463,0.36831 1.624571,1.01724 0.534921,0.63139 0.733039,1.70125 l -2.060433,0.24554 q -0.138683,-0.84185 -0.832098,-1.3154 -0.673603,-0.49109 -1.901938,-0.49109 -1.466078,0 -2.080245,0.43847 -0.614167,0.42094 -0.614167,0.98217 0,0.36831 0.257553,0.66647 0.257554,0.29815 0.812287,0.49108 0.316989,0.10517 1.862314,0.49108 2.238739,0.52615 3.130273,0.85939 0.891534,0.33324 1.38683,0.98215 0.515109,0.64895 0.515109,1.61356 0,0.92955 -0.614168,1.77141 -0.614168,0.82431 -1.783067,1.28031 -1.168899,0.43847 -2.634977,0.43847 -2.436859,0 -3.724629,-0.89447 -1.267959,-0.89447 -1.624572,-2.64833 z m 21.23831,-0.26309 2.179304,0.24555 q -0.515109,1.6837 -1.92175,2.63079 -1.38683,0.92955 -3.566134,0.92955 -2.734037,0 -4.338797,-1.49079 -1.60476,-1.49078 -1.60476,-4.19172 0,-2.78865 1.60476,-4.33205 1.624572,-1.54337 4.219925,-1.54337 2.516106,0 4.101055,1.5083 1.584953,1.50832 1.584953,4.26189 0,0.15784 -0.01979,0.49108 l -9.311576,0 q 0.118872,1.82401 1.1689,2.78863 1.050028,0.96463 2.615164,0.96463 1.149088,0 1.961374,-0.52616 0.832099,-0.5437 1.327394,-1.73633 z m -6.953962,-3.03417 6.973774,0 q -0.138684,-1.38555 -0.792475,-2.0871 -1.010404,-1.0874 -2.634977,-1.0874 -1.446265,0 -2.45667,0.87694 -0.990592,0.85939 -1.089652,2.29756 z m 11.531414,6.59452 0,-11.06687 1.90193,0 0,1.6837 q 0.733047,-1.17508 1.347207,-1.54339 0.614171,-0.38583 1.367021,-0.38583 1.069837,0 2.1793,0.61383 l -0.733037,1.73632 q -0.772664,-0.40338 -1.56513,-0.40338 -0.693422,0 -1.248154,0.36831 -0.534918,0.36831 -0.772663,1.01724 -0.356612,0.9997 -0.356612,2.19232 l 0,5.78775 -2.119862,0 z m 13.894895,-4.03388 2.119872,-0.24554 q 0.356612,1.59601 1.228329,2.29756 0.89154,0.70154 2.13969,0.70154 1.5057,0 2.53591,-0.91201 1.03022,-0.92955 1.03022,-2.28002 0,-1.28031 -0.97078,-2.12217 -0.95097,-0.84185 -2.41705,-0.84185 -0.59436,0 -1.48589,0.21046 l 0.23775,-1.64863 q 0.19812,0.0176 0.3368,0.0176 1.34721,0 2.41704,-0.61385 1.08965,-0.63139 1.08965,-1.92923 0,-1.03478 -0.79247,-1.70125 -0.77266,-0.68401 -2.02081,-0.68401 -1.22833,0 -2.06043,0.68401 -0.812292,0.68401 -1.050027,2.06954 l -2.119872,-0.33319 q 0.376425,-1.89417 1.743446,-2.92895 1.386823,-1.03477 3.447253,-1.03477 1.40665,0 2.59537,0.54369 1.18871,0.52615 1.80287,1.45571 0.63398,0.92954 0.63398,1.96432 0,0.99968 -0.59435,1.80646 -0.59436,0.80677 -1.78308,1.29785 1.54533,0.29816 2.37743,1.29786 0.85192,0.98216 0.85192,2.4554 0,1.99941 -1.64439,3.38496 -1.64438,1.38555 -4.16049,1.38555 -2.27837,0 -3.784071,-1.19263 -1.485888,-1.19262 -1.70382,-3.10433 z" />
  <path
     style="fill:#9900ff;fill-rule:nonzero"
     inkscape:connector-curvature="0"
     id="path39"
     d="m 108.98067,76.884875 0,0 c 0,-5.88684 5.39076,-10.65905 12.0406,-10.65905 l 0,0 c 3.19337,0 6.25595,1.12299 8.51402,3.12195 2.25804,1.99897 3.52661,4.71015 3.52661,7.5371 l 0,0 c 0,5.88685 -5.39076,10.65906 -12.04063,10.65906 l 0,0 c -6.64984,0 -12.0406,-4.77221 -12.0406,-10.65906 z" />
  <path
     style="fill:#9900ff;fill-rule:nonzero"
     inkscape:connector-curvature="0"
     id="path41"
     d="m 142.57658,76.884875 0,0 c 0,-5.88684 5.39076,-10.65905 12.04061,-10.65905 l 0,0 c 3.19337,0 6.25594,1.12299 8.51401,3.12195 2.25805,1.99897 3.52661,4.71015 3.52661,7.5371 l 0,0 c 0,5.88685 -5.39076,10.65906 -12.04062,10.65906 l 0,0 c -6.64985,0 -12.04061,-4.77221 -12.04061,-10.65906 z" />
  <path
     style="fill:#9900ff;fill-rule:nonzero"
     inkscape:connector-curvature="0"
     id="path43"
     d="m 252.26001,76.884875 0,0 c 0,-5.88684 5.39076,-10.65905 12.04061,-10.65905 l 0,0 c 3.19339,0 6.25594,1.12299 8.51398,3.12195 2.25806,1.99897 3.52664,4.71015 3.52664,7.5371 l 0,0 c 0,5.88685 -5.39076,10.65906 -12.04062,10.65906 l 0,0 c -6.64985,0 -12.04061,-4.77221 -12.04061,-10.65906 z" />
  <path
     style="fill:#9900ff;fill-rule:nonzero"
     inkscape:connector-curvature="0"
     id="path45"
     d="m 294.10264,76.884875 0,0 c 0,-5.88684 5.39077,-10.65905 12.04062,-10.65905 l 0,0 c 3.19339,0 6.25594,1.12299 8.51399,3.12195 2.25805,1.99897 3.52664,4.71015 3.52664,7.5371 l 0,0 c 0,5.88685 -5.39078,10.65906 -12.04063,10.65906 l 0,0 c -6.64985,0 -12.04062,-4.77221 -12.04062,-10.65906 z" />
  <path
     style="fill:#9900ff;fill-rule:nonzero"
     inkscape:connector-curvature="0"
     id="path47"
     d="m 325.80161,76.884875 0,0 c 0,-5.88684 5.39077,-10.65905 12.04062,-10.65905 l 0,0 c 3.19339,0 6.25594,1.12299 8.51399,3.12195 2.25806,1.99897 3.52663,4.71015 3.52663,7.5371 l 0,0 c 0,5.88685 -5.39076,10.65906 -12.04062,10.65906 l 0,0 c -6.64985,0 -12.04062,-4.77221 -12.04062,-10.65906 z" />
  <path
     style="fill:#9900ff;fill-rule:nonzero"
     inkscape:connector-curvature="0"
     id="path49"
     d="m 357.50059,76.884875 0,0 c 0,-5.88684 5.39076,-10.65905 12.0406,-10.65905 l 0,0 c 3.1934,0 6.25595,1.12299 8.51399,3.12195 2.25806,1.99897 3.52664,4.71015 3.52664,7.5371 l 0,0 c 0,5.88685 -5.39076,10.65906 -12.04063,10.65906 l 0,0 c -6.64984,0 -12.0406,-4.77221 -12.0406,-10.65906 z" />
  <path
     style="fill:#9900ff;fill-rule:nonzero"
     inkscape:connector-curvature="0"
     id="path51"
     d="m 445.62872,76.884875 0,0 c 0,-5.88684 5.39076,-10.65905 12.04061,-10.65905 l 0,0 c 3.19339,0 6.25594,1.12299 8.51398,3.12195 2.25806,1.99897 3.52664,4.71015 3.52664,7.5371 l 0,0 c 0,5.88685 -5.39076,10.65906 -12.04062,10.65906 l 0,0 c -6.64985,0 -12.04061,-4.77221 -12.04061,-10.65906 z" />
  <path
     style="fill:#9900ff;fill-rule:nonzero"
     inkscape:connector-curvature="0"
     id="path53"
     d="m 479.22463,76.884875 0,0 c 0,-5.88684 5.39076,-10.65905 12.04061,-10.65905 l 0,0 c 3.19339,0 6.25595,1.12299 8.51399,3.12195 2.25806,1.99897 3.52663,4.71015 3.52663,7.5371 l 0,0 c 0,5.88685 -5.39076,10.65906 -12.04062,10.65906 l 0,0 c -6.64985,0 -12.04061,-4.77221 -12.04061,-10.65906 z" />
  <path
     style="fill:#9900ff;fill-rule:nonzero"
     inkscape:connector-curvature="0"
     id="path55"
     d="m 509.02665,76.884875 0,0 c 0,-5.88684 5.39077,-10.65905 12.04062,-10.65905 l 0,0 c 3.19339,0 6.25594,1.12299 8.51399,3.12195 2.25806,1.99897 3.52663,4.71015 3.52663,7.5371 l 0,0 c 0,5.88685 -5.39076,10.65906 -12.04062,10.65906 l 0,0 c -6.64985,0 -12.04062,-4.77221 -12.04062,-10.65906 z" />
  <path
     style="fill:#9900ff;fill-rule:nonzero"
     inkscape:connector-curvature="0"
     id="path57"
     d="m 548.96237,76.884875 0,0 c 0,-5.88684 5.39076,-10.65905 12.04056,-10.65905 l 0,0 c 3.19343,0 6.25598,1.12299 8.51408,3.12195 2.25801,1.99897 3.52659,4.71015 3.52659,7.5371 l 0,0 c 0,5.88685 -5.39076,10.65906 -12.04067,10.65906 l 0,0 c -6.6498,0 -12.04056,-4.77221 -12.04056,-10.65906 z" />
  <path
     style="fill:#9900ff;fill-rule:nonzero"
     inkscape:connector-curvature="0"
     id="path59"
     d="m 649.14112,76.884875 0,0 c 0,-5.88684 5.39077,-10.65905 12.04065,-10.65905 l 0,0 c 3.19335,0 6.2559,1.12299 8.514,3.12195 2.25801,1.99897 3.52659,4.71015 3.52659,7.5371 l 0,0 c 0,5.88685 -5.39076,10.65906 -12.04059,10.65906 l 0,0 c -6.64988,0 -12.04065,-4.77221 -12.04065,-10.65906 z" />
  <path
     style="fill:#9900ff;fill-rule:nonzero"
     inkscape:connector-curvature="0"
     id="path61"
     d="m 360.00655,131.88599 0,0 c 0,-5.88685 5.39077,-10.65906 12.04061,-10.65906 l 0,0 c 3.1934,0 6.25595,1.123 8.51399,3.12195 2.25806,1.99898 3.52664,4.71015 3.52664,7.53711 l 0,0 c 0,5.88684 -5.39076,10.65905 -12.04063,10.65905 l 0,0 c -6.64984,0 -12.04061,-4.77221 -12.04061,-10.65905 z" />
  <path
     style="fill:#9900ff;fill-rule:nonzero"
     inkscape:connector-curvature="0"
     id="path63"
     d="m 393.60247,131.88599 0,0 c 0,-5.88685 5.39076,-10.65906 12.0406,-10.65906 l 0,0 c 3.1934,0 6.25596,1.123 8.514,3.12195 2.25805,1.99898 3.52663,4.71015 3.52663,7.53711 l 0,0 c 0,5.88684 -5.39076,10.65905 -12.04063,10.65905 l 0,0 c -6.64984,0 -12.0406,-4.77221 -12.0406,-10.65905 z" />
  <path
     style="fill:#9900ff;fill-rule:nonzero"
     inkscape:connector-curvature="0"
     id="path65"
     d="m 149.55535,131.88599 0,0 c 0,-5.88685 5.39076,-10.65906 12.0406,-10.65906 l 0,0 c 3.19338,0 6.25595,1.123 8.51402,3.12195 2.25804,1.99898 3.52661,4.71015 3.52661,7.53711 l 0,0 c 0,5.88684 -5.39076,10.65905 -12.04063,10.65905 l 0,0 c -6.64984,0 -12.0406,-4.77221 -12.0406,-10.65905 z" />
  <path
     style="fill:#9900ff;fill-rule:nonzero"
     inkscape:connector-curvature="0"
     id="path67"
     d="m 191.39798,131.88599 0,0 c 0,-5.88685 5.39077,-10.65906 12.04062,-10.65906 l 0,0 c 3.19336,0 6.25594,1.123 8.51398,3.12195 2.25806,1.99898 3.52664,4.71015 3.52664,7.53711 l 0,0 c 0,5.88684 -5.39076,10.65905 -12.04062,10.65905 l 0,0 c -6.64985,0 -12.04062,-4.77221 -12.04062,-10.65905 z" />
  <path
     style="fill:#9900ff;fill-rule:nonzero"
     inkscape:connector-curvature="0"
     id="path69"
     d="m 223.09695,131.88599 0,0 c 0,-5.88685 5.39077,-10.65906 12.04062,-10.65906 l 0,0 c 3.19339,0 6.25594,1.123 8.51399,3.12195 2.25805,1.99898 3.52663,4.71015 3.52663,7.53711 l 0,0 c 0,5.88684 -5.39077,10.65905 -12.04062,10.65905 l 0,0 c -6.64985,0 -12.04062,-4.77221 -12.04062,-10.65905 z" />
  <path
     style="fill:#9900ff;fill-rule:nonzero"
     inkscape:connector-curvature="0"
     id="path71"
     d="m 254.79593,131.88599 0,0 c 0,-5.88685 5.39076,-10.65906 12.0406,-10.65906 l 0,0 c 3.1934,0 6.25595,1.123 8.514,3.12195 2.25806,1.99898 3.52663,4.71015 3.52663,7.53711 l 0,0 c 0,5.88684 -5.39076,10.65905 -12.04063,10.65905 l 0,0 c -6.64984,0 -12.0406,-4.77221 -12.0406,-10.65905 z" />
  <path
     style="fill:#9900ff;fill-rule:nonzero"
     inkscape:connector-curvature="0"
     id="path73"
     d="m 605.36155,131.88599 0,0 c 0,-5.88685 5.39084,-10.65906 12.04065,-10.65906 l 0,0 c 3.19335,0 6.25598,1.123 8.514,3.12195 2.25808,1.99898 3.52659,4.71015 3.52659,7.53711 l 0,0 c 0,5.88684 -5.39077,10.65905 -12.04059,10.65905 l 0,0 c -6.64981,0 -12.04065,-4.77221 -12.04065,-10.65905 z" />
  <path
     style="fill:#9900ff;fill-rule:nonzero"
     inkscape:connector-curvature="0"
     id="path75"
     d="m 638.95751,131.88599 0,0 c 0,-5.88685 5.39077,-10.65906 12.04057,-10.65906 l 0,0 c 3.19343,0 6.25598,1.123 8.51408,3.12195 2.25801,1.99898 3.52659,4.71015 3.52659,7.53711 l 0,0 c 0,5.88684 -5.39076,10.65905 -12.04067,10.65905 l 0,0 c -6.6498,0 -12.04057,-4.77221 -12.04057,-10.65905 z" />
  <path
     style="fill:#9900ff;fill-rule:nonzero"
     inkscape:connector-curvature="0"
     id="path77"
     d="m 668.75949,131.88599 0,0 c 0,-5.88685 5.39084,-10.65906 12.04064,-10.65906 l 0,0 c 3.19336,0 6.25599,1.123 8.514,3.12195 2.25809,1.99898 3.52659,4.71015 3.52659,7.53711 l 0,0 c 0,5.88684 -5.39076,10.65905 -12.04059,10.65905 l 0,0 c -6.6498,0 -12.04064,-4.77221 -12.04064,-10.65905 z" />
  <path
     style="fill:#9900ff;fill-rule:nonzero"
     inkscape:connector-curvature="0"
     id="path79"
     d="m 489.3683,131.88599 0,0 c 0,-5.88685 5.39076,-10.65906 12.04061,-10.65906 l 0,0 c 3.19339,0 6.25595,1.123 8.51399,3.12195 2.25806,1.99898 3.52663,4.71015 3.52663,7.53711 l 0,0 c 0,5.88684 -5.39076,10.65905 -12.04062,10.65905 l 0,0 c -6.64985,0 -12.04061,-4.77221 -12.04061,-10.65905 z" />
  <path
     style="fill:#9900ff;fill-rule:nonzero"
     inkscape:connector-curvature="0"
     id="path81"
     d="m 503.30586,195.86687 0,0 c 0,-5.88685 5.39077,-10.65906 12.04062,-10.65906 l 0,0 c 3.19339,0 6.25594,1.123 8.51398,3.12195 2.25806,1.99897 3.52665,4.71014 3.52665,7.53711 l 0,0 c 0,5.88684 -5.39077,10.65905 -12.04063,10.65905 l 0,0 c -6.64985,0 -12.04062,-4.77221 -12.04062,-10.65905 z" />
  <path
     style="fill:#9900ff;fill-rule:nonzero"
     inkscape:connector-curvature="0"
     id="path83"
     d="m 536.90174,195.86687 0,0 c 0,-5.88685 5.39084,-10.65906 12.04065,-10.65906 l 0,0 c 3.19336,0 6.25599,1.123 8.51401,3.12195 2.25807,1.99897 3.52657,4.71014 3.52657,7.53711 l 0,0 c 0,5.88684 -5.39076,10.65905 -12.04058,10.65905 l 0,0 c -6.64981,0 -12.04065,-4.77221 -12.04065,-10.65905 z" />
  <path
     style="fill:#9900ff;fill-rule:nonzero"
     inkscape:connector-curvature="0"
     id="path85"
     d="m 120.09277,195.86687 0,0 c 0,-5.88685 5.39077,-10.65906 12.04062,-10.65906 l 0,0 c 3.19336,0 6.25594,1.123 8.51401,3.12195 2.25804,1.99897 3.52661,4.71014 3.52661,7.53711 l 0,0 c 0,5.88684 -5.39076,10.65905 -12.04062,10.65905 l 0,0 c -6.64985,0 -12.04062,-4.77221 -12.04062,-10.65905 z" />
  <path
     style="fill:#9900ff;fill-rule:nonzero"
     inkscape:connector-curvature="0"
     id="path87"
     d="m 220.56104,195.86687 0,0 c 0,-5.88685 5.39076,-10.65906 12.04061,-10.65906 l 0,0 c 3.19339,0 6.25595,1.123 8.51399,3.12195 2.25806,1.99897 3.52663,4.71014 3.52663,7.53711 l 0,0 c 0,5.88684 -5.39076,10.65905 -12.04062,10.65905 l 0,0 c -6.64985,0 -12.04061,-4.77221 -12.04061,-10.65905 z" />
  <path
     style="fill:#9900ff;fill-rule:nonzero"
     inkscape:connector-curvature="0"
     id="path89"
     d="m 254.15695,195.86687 0,0 c 0,-5.88685 5.39076,-10.65906 12.04061,-10.65906 l 0,0 c 3.19339,0 6.25594,1.123 8.51399,3.12195 2.25806,1.99897 3.52664,4.71014 3.52664,7.53711 l 0,0 c 0,5.88684 -5.39077,10.65905 -12.04063,10.65905 l 0,0 c -6.64985,0 -12.04061,-4.77221 -12.04061,-10.65905 z" />
  <path
     style="fill:#9900ff;fill-rule:nonzero"
     inkscape:connector-curvature="0"
     id="path91"
     d="m 283.95897,195.86687 0,0 c 0,-5.88685 5.39077,-10.65906 12.04062,-10.65906 l 0,0 c 3.19339,0 6.25594,1.123 8.51399,3.12195 2.25805,1.99897 3.52664,4.71014 3.52664,7.53711 l 0,0 c 0,5.88684 -5.39078,10.65905 -12.04063,10.65905 l 0,0 c -6.64985,0 -12.04062,-4.77221 -12.04062,-10.65905 z" />
  <path
     style="fill:#9900ff;fill-rule:nonzero"
     inkscape:connector-curvature="0"
     id="path93"
     d="m 592.09293,195.86687 0,0 c 0,-5.88685 5.39076,-10.65906 12.04065,-10.65906 l 0,0 c 3.19336,0 6.25591,1.123 8.514,3.12195 2.25801,1.99897 3.52658,4.71014 3.52658,7.53711 l 0,0 c 0,5.88684 -5.39076,10.65905 -12.04058,10.65905 l 0,0 c -6.64989,0 -12.04065,-4.77221 -12.04065,-10.65905 z" />
  <path
     style="fill:#000000;fill-opacity:0;fill-rule:nonzero"
     inkscape:connector-curvature="0"
     id="path119"
     d="m 121.34326,0 130.58977,0 0,43.767555 -130.58977,0 z" />
  <path
     style="fill:#000000;fill-opacity:0;fill-rule:nonzero"
     inkscape:connector-curvature="0"
     id="path123"
     d="m 238.28208,0 130.58978,0 0,43.767555 -130.58978,0 z" />
  <path
     style="fill:#000000;fill-opacity:0;fill-rule:nonzero"
     inkscape:connector-curvature="0"
     id="path127"
     d="m 357.28633,0 130.58977,0 0,43.767555 -130.58977,0 z" />
  <path
     style="fill:#000000;fill-opacity:0;fill-rule:nonzero"
     inkscape:connector-curvature="0"
     id="path131"
     d="m 477.38677,0 130.58978,0 0,43.767555 -130.58978,0 z" />
  <path
     style="fill:#000000;fill-opacity:0;fill-rule:nonzero"
     inkscape:connector-curvature="0"
     id="path139"
     d="m 236.28407,274.20732 91.29303,0" />
  <path
     style="fill:#000000;fill-opacity:0;fill-rule:nonzero"
     inkscape:connector-curvature="0"
     id="path157"
     d="m 108.97068,250.60101 225.71664,0" />
  <path
     style="fill:#000000;fill-opacity:0;fill-rule:nonzero"
     inkscape:connector-curvature="0"
     id="path165"
     d="m 298.64571,341.03611 -1.15813,-99.62596" />
  <path
     style="fill:#000000;fill-opacity:0;fill-rule:nonzero"
     inkscape:connector-curvature="0"
     id="path175"
     d="m 106.44474,49.388745 234.82197,0 0,170.615675 -234.82197,0 z" />
  <path
     style="fill:#000000;fill-opacity:0;fill-rule:nonzero"
     inkscape:connector-curvature="0"
     id="path179"
     d="m 220.30478,53.033095 240.93214,0 0,163.332895 -240.93214,0 z" />
  <path
     style="fill:#000000;fill-opacity:0;fill-rule:nonzero"
     inkscape:connector-curvature="0"
     id="path183"
     d="m 344.36174,49.385805 234.822,0 0,170.615675 -234.822,0 z" />
  <path
     style="fill:#000000;fill-opacity:0;fill-rule:nonzero"
     inkscape:connector-curvature="0"
     id="path187"
     d="m 465.18389,53.033095 228.67185,0 0,163.332895 -228.67185,0 z" />
  <path
     d="m 69.034964,312.26431 645.401046,0"
     id="path4239"
     inkscape:connector-curvature="0"
     style="fill:#000000;fill-opacity:0;fill-rule:nonzero" />
  <path
     d="m 69.034964,312.26431 637.793286,0"
     id="path4241"
     inkscape:connector-curvature="0"
     style="fill-rule:evenodd;stroke:#000000;stroke-width:1.19299948;stroke-linecap:butt;stroke-linejoin:round" />
  <path
     d="m 706.82826,314.11832 5.75411,-1.85401 -5.75411,-1.85404 z"
     id="path4243"
     inkscape:connector-curvature="0"
     style="fill:#000000;fill-rule:evenodd;stroke:#000000;stroke-width:1.19299948;stroke-linecap:butt" />
  <path
     d="m 69.034964,312.46623 0,-301.23268"
     id="path4245"
     inkscape:connector-curvature="0"
     style="fill-rule:evenodd;stroke:#000000;stroke-width:0.99090773;stroke-linecap:butt;stroke-linejoin:round" />
  <path
     d="m 71.129304,11.23355 -2.09433,-5.093882 -2.09433,5.093882 z"
     id="path4247"
     inkscape:connector-curvature="0"
     style="fill:#000000;fill-rule:evenodd;stroke:#000000;stroke-width:1.19299948;stroke-linecap:butt" />
  <path
     d="m 628.84376,303.28454 76.07753,0 0,48.25744 -76.07753,0 z"
     id="path4249"
     inkscape:connector-curvature="0"
     style="fill:#000000;fill-opacity:0;fill-rule:nonzero" />
  <path
     d="m 646.47631,331.81774 0.29718,1.66616 q -0.89153,0.15785 -1.60476,0.15785 -1.14909,0 -1.78306,-0.3157 -0.63399,-0.33324 -0.89154,-0.84186 -0.25755,-0.52614 -0.25755,-2.22741 l 0,-6.34897 -1.56514,0 0,-1.47324 1.56514,0 0,-2.73603 2.10006,-1.12247 0,3.8585 2.13967,0 0,1.47324 -2.13967,0 0,6.4542 q 0,0.80678 0.099,1.03479 0.11881,0.228 0.37644,0.3683 0.25755,0.14032 0.73303,0.14032 0.3368,0 0.93116,-0.0877 z m 1.95603,-11.43518 0,-2.13972 2.11988,0 0,2.13972 -2.11988,0 z m 0,13.11888 0,-11.06687 2.11988,0 0,11.06687 -2.11988,0 z m 5.23567,0 0,-11.06687 1.90194,0 0,1.56094 q 0.57455,-0.80678 1.54532,-1.29786 0.9906,-0.50862 2.23875,-0.50862 1.38683,0 2.27836,0.50862 0.89154,0.50861 1.24815,1.43816 1.48589,-1.94679 3.86331,-1.94679 1.86231,0 2.85291,0.91201 1.01041,0.91201 1.01041,2.80618 l 0,7.59422 -2.11987,0 0,-6.96283 q 0,-1.12247 -0.19812,-1.61355 -0.19812,-0.50862 -0.75285,-0.80678 -0.53492,-0.29815 -1.26797,-0.29815 -1.30758,0 -2.1793,0.7717 -0.87172,0.77169 -0.87172,2.49048 l 0,6.41913 -2.11986,0 0,-7.19083 q 0,-1.24525 -0.51512,-1.85909 -0.5151,-0.63139 -1.70382,-0.63139 -0.89154,0 -1.66419,0.42092 -0.75285,0.40338 -1.08966,1.21016 -0.33679,0.80678 -0.33679,2.3151 l 0,5.73513 -2.11988,0 z m 28.26379,-3.56034 2.17931,0.24554 q -0.51511,1.68371 -1.92176,2.63079 -1.38682,0.92955 -3.56613,0.92955 -2.73404,0 -4.33879,-1.49078 -1.60477,-1.49078 -1.60477,-4.19172 0,-2.78866 1.60477,-4.33205 1.62457,-1.5434 4.21992,-1.5434 2.51611,0 4.10106,1.50832 1.58494,1.50833 1.58494,4.26189 0,0.15784 -0.0198,0.49108 l -9.31157,0 q 0.11881,1.82402 1.1689,2.78864 1.05003,0.96462 2.61518,0.96462 1.14908,0 1.96136,-0.52615 0.8321,-0.5437 1.3274,-1.73633 z m -6.95396,-3.03418 6.97376,0 q -0.13867,-1.38556 -0.79246,-2.08711 -1.0104,-1.08739 -2.63498,-1.08739 -1.44627,0 -2.45667,0.87693 -0.99059,0.8594 -1.08965,2.29756 z"
     id="path4251"
     inkscape:connector-curvature="0"
     style="fill:#000000;fill-rule:nonzero" />
  <path
     d="m 8.221921,82.973095 0,-1.6311 q -1.446265,1.87664 -3.962372,1.87664 -1.089652,0 -2.060433,-0.36832 Q 1.248148,82.464465 0.772663,81.903235 0.31699,81.341995 0.118872,80.517685 0,79.956455 0,78.763825 l 0,-6.8576 2.119869,0 0,6.13851 q 0,1.47325 0.118871,1.98187 0.198119,0.73663 0.85191,1.15755 0.653791,0.42093 1.60476,0.42093 0.95097,0 1.783067,-0.42093 0.832098,-0.43847 1.1689,-1.17509 0.356613,-0.75415 0.356613,-2.17479 l 0,-5.92805 2.119869,0 0,11.06687 -1.901938,0 z m 4.121775,-3.29726 2.100057,-0.29816 q 0.178306,1.12247 0.970781,1.71878 0.812286,0.57879 2.258552,0.57879 1.466077,0 2.159492,-0.52617 0.713227,-0.52616 0.713227,-1.2277 0,-0.63139 -0.614169,-0.9997 -0.43586,-0.24555 -2.159492,-0.6314 -2.337798,-0.52615 -3.249144,-0.89446 -0.891533,-0.38585 -1.367018,-1.05232 -0.455673,-0.68401 -0.455673,-1.49078 0,-0.73663 0.376425,-1.36802 0.396237,-0.63139 1.050029,-1.05231 0.495296,-0.3157 1.347206,-0.5437 0.85191,-0.228 1.822691,-0.228 1.48589,0 2.595354,0.38585 1.109463,0.36831 1.624571,1.01724 0.534921,0.63139 0.733039,1.70125 l -2.060433,0.24554 q -0.138683,-0.84186 -0.832098,-1.3154 -0.673603,-0.49108 -1.901938,-0.49108 -1.466078,0 -2.080245,0.43847 -0.614167,0.42092 -0.614167,0.98216 0,0.3683 0.257553,0.66647 0.257554,0.29815 0.812287,0.49108 0.316989,0.10517 1.862314,0.49108 2.238739,0.52616 3.130273,0.85939 0.891534,0.33324 1.38683,0.98216 0.515109,0.64893 0.515109,1.61355 0,0.92956 -0.614168,1.77141 -0.614168,0.82431 -1.783067,1.28031 -1.168899,0.43847 -2.634977,0.43847 -2.436859,0 -3.724629,-0.89447 -1.267959,-0.89447 -1.624572,-2.64833 z m 21.23831,-0.26309 2.179304,0.24555 q -0.515109,1.6837 -1.92175,2.63079 -1.38683,0.92955 -3.566134,0.92955 -2.734037,0 -4.338797,-1.49079 -1.60476,-1.49078 -1.60476,-4.19172 0,-2.78865 1.60476,-4.33204 1.624572,-1.5434 4.219925,-1.5434 2.516106,0 4.101055,1.50832 1.584953,1.50832 1.584953,4.26189 0,0.15784 -0.01979,0.49108 l -9.311576,0 q 0.118872,1.82402 1.1689,2.78863 1.050028,0.96464 2.615164,0.96464 1.149088,0 1.961374,-0.52617 0.832099,-0.5437 1.327394,-1.73633 z m -6.953962,-3.03417 6.973774,0 q -0.138684,-1.38556 -0.792475,-2.0871 -1.010404,-1.08739 -2.634977,-1.08739 -1.446265,0 -2.45667,0.87693 -0.990592,0.85939 -1.089652,2.29756 z m 11.531414,6.59452 0,-11.06687 1.90193,0 0,1.68371 q 0.733047,-1.17509 1.347207,-1.5434 0.614171,-0.38585 1.367021,-0.38585 1.069837,0 2.1793,0.61385 l -0.733037,1.73632 q -0.772664,-0.40338 -1.56513,-0.40338 -0.693422,0 -1.248154,0.3683 -0.534918,0.36832 -0.772663,1.01724 -0.356612,0.99971 -0.356612,2.19234 l 0,5.78774 -2.119862,0 z m 21.859266,0 -2.11987,0 0,-11.9438 q -0.75285,0.64893 -2.001,1.29785 -1.248149,0.6314 -2.238735,0.96463 l 0,-1.82401 q 1.783065,-0.73662 3.110455,-1.78894 1.3274,-1.05232 1.88213,-2.03448 l 1.36702,0 0,15.32875 z"
     id="path4253"
     inkscape:connector-curvature="0"
     style="fill:#000000;fill-rule:nonzero" />
  <path
     d="m 8.221921,137.97421 0,-1.6311 q -1.446265,1.87663 -3.962372,1.87663 -1.089652,0 -2.060433,-0.36831 Q 1.248148,137.46558 0.772663,136.90435 0.31699,136.34311 0.118872,135.5188 0,134.95756 0,133.76494 l 0,-6.85761 2.119869,0 0,6.13852 q 0,1.47324 0.118871,1.98187 0.198119,0.73662 0.85191,1.15754 0.653791,0.42093 1.60476,0.42093 0.95097,0 1.783067,-0.42093 0.832098,-0.43847 1.1689,-1.17509 0.356613,-0.75415 0.356613,-2.17478 l 0,-5.92806 2.119869,0 0,11.06688 -1.901938,0 z m 4.121775,-3.29726 2.100057,-0.29816 q 0.178306,1.12247 0.970781,1.71878 0.812286,0.57878 2.258552,0.57878 1.466077,0 2.159492,-0.52616 0.713227,-0.52616 0.713227,-1.2277 0,-0.63139 -0.614169,-0.99971 -0.43586,-0.24554 -2.159492,-0.63139 -2.337798,-0.52616 -3.249144,-0.89447 -0.891533,-0.38585 -1.367018,-1.05231 -0.455673,-0.68402 -0.455673,-1.49079 0,-0.73662 0.376425,-1.36801 0.396237,-0.63139 1.050029,-1.05231 0.495296,-0.3157 1.347206,-0.5437 0.85191,-0.22801 1.822691,-0.22801 1.48589,0 2.595354,0.38585 1.109463,0.36831 1.624571,1.01723 0.534921,0.63139 0.733039,1.70125 l -2.060433,0.24555 q -0.138683,-0.84186 -0.832098,-1.31541 -0.673603,-0.49108 -1.901938,-0.49108 -1.466078,0 -2.080245,0.43847 -0.614167,0.42093 -0.614167,0.98216 0,0.36831 0.257553,0.66648 0.257554,0.29815 0.812287,0.49107 0.316989,0.10518 1.862314,0.49108 2.238739,0.52616 3.130273,0.85939 0.891534,0.33324 1.38683,0.98216 0.515109,0.64894 0.515109,1.61355 0,0.92956 -0.614168,1.77141 -0.614168,0.82432 -1.783067,1.28031 -1.168899,0.43847 -2.634977,0.43847 -2.436859,0 -3.724629,-0.89446 -1.267959,-0.89447 -1.624572,-2.64833 z m 21.23831,-0.26309 2.179304,0.24554 q -0.515109,1.68371 -1.92175,2.63079 -1.38683,0.92955 -3.566134,0.92955 -2.734037,0 -4.338797,-1.49078 -1.60476,-1.49078 -1.60476,-4.19172 0,-2.78865 1.60476,-4.33205 1.624572,-1.5434 4.219925,-1.5434 2.516106,0 4.101055,1.50833 1.584953,1.50832 1.584953,4.26189 0,0.15783 -0.01979,0.49107 l -9.311576,0 q 0.118872,1.82402 1.1689,2.78864 1.050028,0.96463 2.615164,0.96463 1.149088,0 1.961374,-0.52616 0.832099,-0.5437 1.327394,-1.73634 z m -6.953962,-3.03418 6.973774,0 q -0.138684,-1.38555 -0.792475,-2.08709 -1.010404,-1.0874 -2.634977,-1.0874 -1.446265,0 -2.45667,0.87693 -0.990592,0.8594 -1.089652,2.29756 z m 11.531414,6.59453 0,-11.06688 1.90193,0 0,1.68371 q 0.733047,-1.17509 1.347207,-1.5434 0.614171,-0.38585 1.367021,-0.38585 1.069837,0 2.1793,0.61386 l -0.733037,1.73632 q -0.772664,-0.40339 -1.56513,-0.40339 -0.693422,0 -1.248154,0.36831 -0.534918,0.36831 -0.772663,1.01724 -0.356612,0.9997 -0.356612,2.19233 l 0,5.78774 -2.119862,0 z m 25.009346,-1.80649 0,1.80649 -11.391812,0 q -0.01979,-0.68402 0.237735,-1.29786 0.435864,-1.03479 1.386834,-2.03448 0.970783,-0.99971 2.773653,-2.3151 2.81329,-2.03447 3.80388,-3.2271 0.9906,-1.19263 0.9906,-2.26249 0,-1.10493 -0.91134,-1.87664 -0.89155,-0.77169 -2.33781,-0.77169 -1.52551,0 -2.45667,0.8243 -0.911343,0.80678 -0.911343,2.24495 l -2.1793,-0.19292 q 0.217932,-2.15726 1.684007,-3.27973 1.466076,-1.14 3.922746,-1.14 2.47648,0 3.92275,1.2277 1.44627,1.21017 1.44627,3.01664 0,0.91202 -0.43586,1.80647 -0.41606,0.87694 -1.40665,1.85909 -0.97078,0.96464 -3.24915,2.68342 -1.90194,1.42063 -2.45667,1.92924 -0.53492,0.49109 -0.891531,0.9997 l 8.459661,0 z"
     id="path4255"
     inkscape:connector-curvature="0"
     style="fill:#000000;fill-rule:nonzero" />
  <path
     d="m 8.221921,201.95506 0,-1.6311 q -1.446265,1.87664 -3.962372,1.87664 -1.089652,0 -2.060433,-0.36831 Q 1.248148,201.44643 0.772663,200.8852 0.31699,200.32396 0.118872,199.49966 0,198.93841 0,197.7458 l 0,-6.85761 2.119869,0 0,6.13852 q 0,1.47324 0.118871,1.98186 0.198119,0.73662 0.85191,1.15755 0.653791,0.42093 1.60476,0.42093 0.95097,0 1.783067,-0.42093 0.832098,-0.43847 1.1689,-1.17509 0.356613,-0.75415 0.356613,-2.17479 l 0,-5.92805 2.119869,0 0,11.06687 -1.901938,0 z m 4.121775,-3.29726 2.100057,-0.29816 q 0.178306,1.12247 0.970781,1.71879 0.812286,0.57877 2.258552,0.57877 1.466077,0 2.159492,-0.52616 0.713227,-0.52615 0.713227,-1.2277 0,-0.63139 -0.614169,-0.99971 -0.43586,-0.24554 -2.159492,-0.63139 -2.337798,-0.52615 -3.249144,-0.89446 -0.891533,-0.38585 -1.367018,-1.05232 -0.455673,-0.68401 -0.455673,-1.49079 0,-0.73662 0.376425,-1.36801 0.396237,-0.63139 1.050029,-1.05231 0.495296,-0.31569 1.347206,-0.5437 0.85191,-0.22798 1.822691,-0.22798 1.48589,0 2.595354,0.38583 1.109463,0.36831 1.624571,1.01724 0.534921,0.63139 0.733039,1.70125 l -2.060433,0.24554 q -0.138683,-0.84185 -0.832098,-1.3154 -0.673603,-0.49109 -1.901938,-0.49109 -1.466078,0 -2.080245,0.43847 -0.614167,0.42094 -0.614167,0.98217 0,0.36831 0.257553,0.66647 0.257554,0.29815 0.812287,0.49108 0.316989,0.10517 1.862314,0.49108 2.238739,0.52615 3.130273,0.85939 0.891534,0.33324 1.38683,0.98215 0.515109,0.64895 0.515109,1.61356 0,0.92955 -0.614168,1.77141 -0.614168,0.82431 -1.783067,1.28031 -1.168899,0.43847 -2.634977,0.43847 -2.436859,0 -3.724629,-0.89447 -1.267959,-0.89447 -1.624572,-2.64833 z m 21.23831,-0.26309 2.179304,0.24555 q -0.515109,1.6837 -1.92175,2.63079 -1.38683,0.92955 -3.566134,0.92955 -2.734037,0 -4.338797,-1.49079 -1.60476,-1.49078 -1.60476,-4.19172 0,-2.78865 1.60476,-4.33205 1.624572,-1.54337 4.219925,-1.54337 2.516106,0 4.101055,1.5083 1.584953,1.50832 1.584953,4.26189 0,0.15784 -0.01979,0.49108 l -9.311576,0 q 0.118872,1.82401 1.1689,2.78863 1.050028,0.96463 2.615164,0.96463 1.149088,0 1.961374,-0.52616 0.832099,-0.5437 1.327394,-1.73633 z m -6.953962,-3.03417 6.973774,0 q -0.138684,-1.38555 -0.792475,-2.0871 -1.010404,-1.0874 -2.634977,-1.0874 -1.446265,0 -2.45667,0.87694 -0.990592,0.85939 -1.089652,2.29756 z m 11.531414,6.59452 0,-11.06687 1.90193,0 0,1.6837 q 0.733047,-1.17508 1.347207,-1.54339 0.614171,-0.38583 1.367021,-0.38583 1.069837,0 2.1793,0.61383 l -0.733037,1.73632 q -0.772664,-0.40338 -1.56513,-0.40338 -0.693422,0 -1.248154,0.36831 -0.534918,0.36831 -0.772663,1.01724 -0.356612,0.9997 -0.356612,2.19232 l 0,5.78775 -2.119862,0 z m 13.894895,-4.03388 2.119872,-0.24554 q 0.356612,1.59601 1.228329,2.29756 0.89154,0.70154 2.13969,0.70154 1.5057,0 2.53591,-0.91201 1.03022,-0.92955 1.03022,-2.28002 0,-1.28031 -0.97078,-2.12217 -0.95097,-0.84185 -2.41705,-0.84185 -0.59436,0 -1.48589,0.21046 l 0.23775,-1.64863 q 0.19812,0.0176 0.3368,0.0176 1.34721,0 2.41704,-0.61385 1.08965,-0.63139 1.08965,-1.92923 0,-1.03478 -0.79247,-1.70125 -0.77266,-0.68401 -2.02081,-0.68401 -1.22833,0 -2.06043,0.68401 -0.812292,0.68401 -1.050027,2.06954 l -2.119872,-0.33319 q 0.376425,-1.89417 1.743446,-2.92895 1.386823,-1.03477 3.447253,-1.03477 1.40665,0 2.59537,0.54369 1.18871,0.52615 1.80287,1.45571 0.63398,0.92954 0.63398,1.96432 0,0.99968 -0.59435,1.80646 -0.59436,0.80677 -1.78308,1.29785 1.54533,0.29816 2.37743,1.29786 0.85192,0.98216 0.85192,2.4554 0,1.99941 -1.64439,3.38496 -1.64438,1.38555 -4.16049,1.38555 -2.27837,0 -3.784071,-1.19263 -1.485888,-1.19262 -1.70382,-3.10433 z"
     id="path4257"
     inkscape:connector-curvature="0"
     style="fill:#000000;fill-rule:nonzero" />
  <path
     d="m 108.98067,76.884875 0,0 c 0,-5.88684 5.39076,-10.65905 12.0406,-10.65905 l 0,0 c 3.19337,0 6.25595,1.12299 8.51402,3.12195 2.25804,1.99897 3.52661,4.71015 3.52661,7.5371 l 0,0 c 0,5.88685 -5.39076,10.65906 -12.04063,10.65906 l 0,0 c -6.64984,0 -12.0406,-4.77221 -12.0406,-10.65906 z"
     id="path4259"
     inkscape:connector-curvature="0"
     style="fill:#9900ff;fill-rule:nonzero" />
  <path
     d="m 142.57658,76.884875 0,0 c 0,-5.88684 5.39076,-10.65905 12.04061,-10.65905 l 0,0 c 3.19337,0 6.25594,1.12299 8.51401,3.12195 2.25805,1.99897 3.52661,4.71015 3.52661,7.5371 l 0,0 c 0,5.88685 -5.39076,10.65906 -12.04062,10.65906 l 0,0 c -6.64985,0 -12.04061,-4.77221 -12.04061,-10.65906 z"
     id="path4261"
     inkscape:connector-curvature="0"
     style="fill:#9900ff;fill-rule:nonzero" />
  <path
     d="m 252.26001,76.884875 0,0 c 0,-5.88684 5.39076,-10.65905 12.04061,-10.65905 l 0,0 c 3.19339,0 6.25594,1.12299 8.51398,3.12195 2.25806,1.99897 3.52664,4.71015 3.52664,7.5371 l 0,0 c 0,5.88685 -5.39076,10.65906 -12.04062,10.65906 l 0,0 c -6.64985,0 -12.04061,-4.77221 -12.04061,-10.65906 z"
     id="path4263"
     inkscape:connector-curvature="0"
     style="fill:#9900ff;fill-rule:nonzero" />
  <path
     d="m 294.10264,76.884875 0,0 c 0,-5.88684 5.39077,-10.65905 12.04062,-10.65905 l 0,0 c 3.19339,0 6.25594,1.12299 8.51399,3.12195 2.25805,1.99897 3.52664,4.71015 3.52664,7.5371 l 0,0 c 0,5.88685 -5.39078,10.65906 -12.04063,10.65906 l 0,0 c -6.64985,0 -12.04062,-4.77221 -12.04062,-10.65906 z"
     id="path4265"
     inkscape:connector-curvature="0"
     style="fill:#9900ff;fill-rule:nonzero" />
  <path
     d="m 325.80161,76.884875 0,0 c 0,-5.88684 5.39077,-10.65905 12.04062,-10.65905 l 0,0 c 3.19339,0 6.25594,1.12299 8.51399,3.12195 2.25806,1.99897 3.52663,4.71015 3.52663,7.5371 l 0,0 c 0,5.88685 -5.39076,10.65906 -12.04062,10.65906 l 0,0 c -6.64985,0 -12.04062,-4.77221 -12.04062,-10.65906 z"
     id="path4267"
     inkscape:connector-curvature="0"
     style="fill:#9900ff;fill-rule:nonzero" />
  <path
     d="m 357.50059,76.884875 0,0 c 0,-5.88684 5.39076,-10.65905 12.0406,-10.65905 l 0,0 c 3.1934,0 6.25595,1.12299 8.51399,3.12195 2.25806,1.99897 3.52664,4.71015 3.52664,7.5371 l 0,0 c 0,5.88685 -5.39076,10.65906 -12.04063,10.65906 l 0,0 c -6.64984,0 -12.0406,-4.77221 -12.0406,-10.65906 z"
     id="path4269"
     inkscape:connector-curvature="0"
     style="fill:#9900ff;fill-rule:nonzero" />
  <path
     d="m 445.62872,76.884875 0,0 c 0,-5.88684 5.39076,-10.65905 12.04061,-10.65905 l 0,0 c 3.19339,0 6.25594,1.12299 8.51398,3.12195 2.25806,1.99897 3.52664,4.71015 3.52664,7.5371 l 0,0 c 0,5.88685 -5.39076,10.65906 -12.04062,10.65906 l 0,0 c -6.64985,0 -12.04061,-4.77221 -12.04061,-10.65906 z"
     id="path4271"
     inkscape:connector-curvature="0"
     style="fill:#9900ff;fill-rule:nonzero" />
  <path
     d="m 479.22463,76.884875 0,0 c 0,-5.88684 5.39076,-10.65905 12.04061,-10.65905 l 0,0 c 3.19339,0 6.25595,1.12299 8.51399,3.12195 2.25806,1.99897 3.52663,4.71015 3.52663,7.5371 l 0,0 c 0,5.88685 -5.39076,10.65906 -12.04062,10.65906 l 0,0 c -6.64985,0 -12.04061,-4.77221 -12.04061,-10.65906 z"
     id="path4273"
     inkscape:connector-curvature="0"
     style="fill:#9900ff;fill-rule:nonzero" />
  <path
     d="m 548.96237,76.884875 0,0 c 0,-5.88684 5.39076,-10.65905 12.04056,-10.65905 l 0,0 c 3.19343,0 6.25598,1.12299 8.51408,3.12195 2.25801,1.99897 3.52659,4.71015 3.52659,7.5371 l 0,0 c 0,5.88685 -5.39076,10.65906 -12.04067,10.65906 l 0,0 c -6.6498,0 -12.04056,-4.77221 -12.04056,-10.65906 z"
     id="path4277"
     inkscape:connector-curvature="0"
     style="fill:#9900ff;fill-rule:nonzero" />
  <path
     d="m 649.14112,76.884875 0,0 c 0,-5.88684 5.39077,-10.65905 12.04065,-10.65905 l 0,0 c 3.19335,0 6.2559,1.12299 8.514,3.12195 2.25801,1.99897 3.52659,4.71015 3.52659,7.5371 l 0,0 c 0,5.88685 -5.39076,10.65906 -12.04059,10.65906 l 0,0 c -6.64988,0 -12.04065,-4.77221 -12.04065,-10.65906 z"
     id="path4279"
     inkscape:connector-curvature="0"
     style="fill:#9900ff;fill-rule:nonzero" />
  <path
     d="m 360.00655,131.88599 0,0 c 0,-5.88685 5.39077,-10.65906 12.04061,-10.65906 l 0,0 c 3.1934,0 6.25595,1.123 8.51399,3.12195 2.25806,1.99898 3.52664,4.71015 3.52664,7.53711 l 0,0 c 0,5.88684 -5.39076,10.65905 -12.04063,10.65905 l 0,0 c -6.64984,0 -12.04061,-4.77221 -12.04061,-10.65905 z"
     id="path4281"
     inkscape:connector-curvature="0"
     style="fill:#9900ff;fill-rule:nonzero" />
  <path
     d="m 393.60247,131.88599 0,0 c 0,-5.88685 5.39076,-10.65906 12.0406,-10.65906 l 0,0 c 3.1934,0 6.25596,1.123 8.514,3.12195 2.25805,1.99898 3.52663,4.71015 3.52663,7.53711 l 0,0 c 0,5.88684 -5.39076,10.65905 -12.04063,10.65905 l 0,0 c -6.64984,0 -12.0406,-4.77221 -12.0406,-10.65905 z"
     id="path4283"
     inkscape:connector-curvature="0"
     style="fill:#9900ff;fill-rule:nonzero" />
  <path
     d="m 149.55535,131.88599 0,0 c 0,-5.88685 5.39076,-10.65906 12.0406,-10.65906 l 0,0 c 3.19338,0 6.25595,1.123 8.51402,3.12195 2.25804,1.99898 3.52661,4.71015 3.52661,7.53711 l 0,0 c 0,5.88684 -5.39076,10.65905 -12.04063,10.65905 l 0,0 c -6.64984,0 -12.0406,-4.77221 -12.0406,-10.65905 z"
     id="path4285"
     inkscape:connector-curvature="0"
     style="fill:#9900ff;fill-rule:nonzero" />
  <path
     d="m 191.39798,131.88599 0,0 c 0,-5.88685 5.39077,-10.65906 12.04062,-10.65906 l 0,0 c 3.19336,0 6.25594,1.123 8.51398,3.12195 2.25806,1.99898 3.52664,4.71015 3.52664,7.53711 l 0,0 c 0,5.88684 -5.39076,10.65905 -12.04062,10.65905 l 0,0 c -6.64985,0 -12.04062,-4.77221 -12.04062,-10.65905 z"
     id="path4287"
     inkscape:connector-curvature="0"
     style="fill:#9900ff;fill-rule:nonzero" />
  <path
     d="m 223.09695,131.88599 0,0 c 0,-5.88685 5.39077,-10.65906 12.04062,-10.65906 l 0,0 c 3.19339,0 6.25594,1.123 8.51399,3.12195 2.25805,1.99898 3.52663,4.71015 3.52663,7.53711 l 0,0 c 0,5.88684 -5.39077,10.65905 -12.04062,10.65905 l 0,0 c -6.64985,0 -12.04062,-4.77221 -12.04062,-10.65905 z"
     id="path4289"
     inkscape:connector-curvature="0"
     style="fill:#9900ff;fill-rule:nonzero" />
  <path
     d="m 254.79593,131.88599 0,0 c 0,-5.88685 5.39076,-10.65906 12.0406,-10.65906 l 0,0 c 3.1934,0 6.25595,1.123 8.514,3.12195 2.25806,1.99898 3.52663,4.71015 3.52663,7.53711 l 0,0 c 0,5.88684 -5.39076,10.65905 -12.04063,10.65905 l 0,0 c -6.64984,0 -12.0406,-4.77221 -12.0406,-10.65905 z"
     id="path4291"
     inkscape:connector-curvature="0"
     style="fill:#9900ff;fill-rule:nonzero" />
  <path
     d="m 605.36155,131.88599 0,0 c 0,-5.88685 5.39084,-10.65906 12.04065,-10.65906 l 0,0 c 3.19335,0 6.25598,1.123 8.514,3.12195 2.25808,1.99898 3.52659,4.71015 3.52659,7.53711 l 0,0 c 0,5.88684 -5.39077,10.65905 -12.04059,10.65905 l 0,0 c -6.64981,0 -12.04065,-4.77221 -12.04065,-10.65905 z"
     id="path4293"
     inkscape:connector-curvature="0"
     style="fill:#9900ff;fill-rule:nonzero" />
  <path
     d="m 638.95751,131.88599 0,0 c 0,-5.88685 5.39077,-10.65906 12.04057,-10.65906 l 0,0 c 3.19343,0 6.25598,1.123 8.51408,3.12195 2.25801,1.99898 3.52659,4.71015 3.52659,7.53711 l 0,0 c 0,5.88684 -5.39076,10.65905 -12.04067,10.65905 l 0,0 c -6.6498,0 -12.04057,-4.77221 -12.04057,-10.65905 z"
     id="path4295"
     inkscape:connector-curvature="0"
     style="fill:#9900ff;fill-rule:nonzero" />
  <path
     d="m 668.75949,131.88599 0,0 c 0,-5.88685 5.39084,-10.65906 12.04064,-10.65906 l 0,0 c 3.19336,0 6.25599,1.123 8.514,3.12195 2.25809,1.99898 3.52659,4.71015 3.52659,7.53711 l 0,0 c 0,5.88684 -5.39076,10.65905 -12.04059,10.65905 l 0,0 c -6.6498,0 -12.04064,-4.77221 -12.04064,-10.65905 z"
     id="path4297"
     inkscape:connector-curvature="0"
     style="fill:#9900ff;fill-rule:nonzero" />
  <path
     d="m 489.3683,131.88599 0,0 c 0,-5.88685 5.39076,-10.65906 12.04061,-10.65906 l 0,0 c 3.19339,0 6.25595,1.123 8.51399,3.12195 2.25806,1.99898 3.52663,4.71015 3.52663,7.53711 l 0,0 c 0,5.88684 -5.39076,10.65905 -12.04062,10.65905 l 0,0 c -6.64985,0 -12.04061,-4.77221 -12.04061,-10.65905 z"
     id="path4299"
     inkscape:connector-curvature="0"
     style="fill:#9900ff;fill-rule:nonzero" />
  <path
     d="m 503.30586,195.86687 0,0 c 0,-5.88685 5.39077,-10.65906 12.04062,-10.65906 l 0,0 c 3.19339,0 6.25594,1.123 8.51398,3.12195 2.25806,1.99897 3.52665,4.71014 3.52665,7.53711 l 0,0 c 0,5.88684 -5.39077,10.65905 -12.04063,10.65905 l 0,0 c -6.64985,0 -12.04062,-4.77221 -12.04062,-10.65905 z"
     id="path4301"
     inkscape:connector-curvature="0"
     style="fill:#9900ff;fill-rule:nonzero" />
  <path
     d="m 536.90174,195.86687 0,0 c 0,-5.88685 5.39084,-10.65906 12.04065,-10.65906 l 0,0 c 3.19336,0 6.25599,1.123 8.51401,3.12195 2.25807,1.99897 3.52657,4.71014 3.52657,7.53711 l 0,0 c 0,5.88684 -5.39076,10.65905 -12.04058,10.65905 l 0,0 c -6.64981,0 -12.04065,-4.77221 -12.04065,-10.65905 z"
     id="path4303"
     inkscape:connector-curvature="0"
     style="fill:#9900ff;fill-rule:nonzero" />
  <path
     d="m 120.09277,195.86687 0,0 c 0,-5.88685 5.39077,-10.65906 12.04062,-10.65906 l 0,0 c 3.19336,0 6.25594,1.123 8.51401,3.12195 2.25804,1.99897 3.52661,4.71014 3.52661,7.53711 l 0,0 c 0,5.88684 -5.39076,10.65905 -12.04062,10.65905 l 0,0 c -6.64985,0 -12.04062,-4.77221 -12.04062,-10.65905 z"
     id="path4305"
     inkscape:connector-curvature="0"
     style="fill:#9900ff;fill-rule:nonzero" />
  <path
     d="m 220.56104,195.86687 0,0 c 0,-5.88685 5.39076,-10.65906 12.04061,-10.65906 l 0,0 c 3.19339,0 6.25595,1.123 8.51399,3.12195 2.25806,1.99897 3.52663,4.71014 3.52663,7.53711 l 0,0 c 0,5.88684 -5.39076,10.65905 -12.04062,10.65905 l 0,0 c -6.64985,0 -12.04061,-4.77221 -12.04061,-10.65905 z"
     id="path4307"
     inkscape:connector-curvature="0"
     style="fill:#9900ff;fill-rule:nonzero" />
  <path
     d="m 254.15695,195.86687 0,0 c 0,-5.88685 5.39076,-10.65906 12.04061,-10.65906 l 0,0 c 3.19339,0 6.25594,1.123 8.51399,3.12195 2.25806,1.99897 3.52664,4.71014 3.52664,7.53711 l 0,0 c 0,5.88684 -5.39077,10.65905 -12.04063,10.65905 l 0,0 c -6.64985,0 -12.04061,-4.77221 -12.04061,-10.65905 z"
     id="path4309"
     inkscape:connector-curvature="0"
     style="fill:#9900ff;fill-rule:nonzero" />
  <path
     d="m 283.95897,195.86687 0,0 c 0,-5.88685 5.39077,-10.65906 12.04062,-10.65906 l 0,0 c 3.19339,0 6.25594,1.123 8.51399,3.12195 2.25805,1.99897 3.52664,4.71014 3.52664,7.53711 l 0,0 c 0,5.88684 -5.39078,10.65905 -12.04063,10.65905 l 0,0 c -6.64985,0 -12.04062,-4.77221 -12.04062,-10.65905 z"
     id="path4311"
     inkscape:connector-curvature="0"
     style="fill:#9900ff;fill-rule:nonzero" />
  <path
     d="m 592.09293,195.86687 0,0 c 0,-5.88685 5.39076,-10.65906 12.04065,-10.65906 l 0,0 c 3.19336,0 6.25591,1.123 8.514,3.12195 2.25801,1.99897 3.52658,4.71014 3.52658,7.53711 l 0,0 c 0,5.88684 -5.39076,10.65905 -12.04058,10.65905 l 0,0 c -6.64989,0 -12.04065,-4.77221 -12.04065,-10.65905 z"
     id="path4313"
     inkscape:connector-curvature="0"
     style="fill:#9900ff;fill-rule:nonzero" />
  <path
     d="m 121.34326,0 130.58977,0 0,43.767555 -130.58977,0 z"
     id="path4327"
     inkscape:connector-curvature="0"
     style="fill:#000000;fill-opacity:0;fill-rule:nonzero" />
  <path
     d="m 238.28208,0 130.58978,0 0,43.767555 -130.58978,0 z"
     id="path4331"
     inkscape:connector-curvature="0"
     style="fill:#000000;fill-opacity:0;fill-rule:nonzero" />
  <path
     d="m 357.28633,0 130.58977,0 0,43.767555 -130.58977,0 z"
     id="path4335"
     inkscape:connector-curvature="0"
     style="fill:#000000;fill-opacity:0;fill-rule:nonzero" />
  <path
     d="m 477.38677,0 130.58978,0 0,43.767555 -130.58978,0 z"
     id="path4339"
     inkscape:connector-curvature="0"
     style="fill:#000000;fill-opacity:0;fill-rule:nonzero" />
  <path
     d="m 236.28407,274.20732 91.29303,0"
     id="path4345"
     inkscape:connector-curvature="0"
     style="fill:#000000;fill-opacity:0;fill-rule:nonzero" />
  <path
     d="m 108.97068,250.60101 225.71664,0"
     id="path4359"
     inkscape:connector-curvature="0"
     style="fill:#000000;fill-opacity:0;fill-rule:nonzero" />
  <path
     d="m 298.64571,341.03611 -1.15813,-99.62596"
     id="path4367"
     inkscape:connector-curvature="0"
     style="fill:#000000;fill-opacity:0;fill-rule:nonzero" />
  <path
     d="m 106.44474,49.388745 234.82197,0 0,170.615675 -234.82197,0 z"
     id="path4377"
     inkscape:connector-curvature="0"
     style="fill:#000000;fill-opacity:0;fill-rule:nonzero" />
  <path
     d="m 220.30478,53.033095 240.93214,0 0,163.332895 -240.93214,0 z"
     id="path4379"
     inkscape:connector-curvature="0"
     style="fill:#000000;fill-opacity:0;fill-rule:nonzero" />
  <path
     d="m 344.36174,49.385805 234.822,0 0,170.615675 -234.822,0 z"
     id="path4385"
     inkscape:connector-curvature="0"
     style="fill:#000000;fill-opacity:0;fill-rule:nonzero" />
  <path
     d="m 465.18389,53.033095 228.67185,0 0,163.332895 -228.67185,0 z"
     id="path4387"
     inkscape:connector-curvature="0"
     style="fill:#000000;fill-opacity:0;fill-rule:nonzero" />
</svg>
