<?xml version="1.0" encoding="UTF-8" standalone="no"?>
<!--
Licensed to the Apache Software Foundation (ASF) under one
or more contributor license agreements.  See the NOTICE file
distributed with this work for additional information
regarding copyright ownership.  The ASF licenses this file
to you under the Apache License, Version 2.0 (the
"License"); you may not use this file except in compliance
with the License.  You may obtain a copy of the License at

http://www.apache.org/licenses/LICENSE-2.0

Unless required by applicable law or agreed to in writing,
software distributed under the License is distributed on an
"AS IS" BASIS, WITHOUT WARRANTIES OR CONDITIONS OF ANY
KIND, either express or implied.  See the License for the
specific language governing permissions and limitations
under the License.
-->

<svg
   xmlns:dc="http://purl.org/dc/elements/1.1/"
   xmlns:cc="http://creativecommons.org/ns#"
   xmlns:rdf="http://www.w3.org/1999/02/22-rdf-syntax-ns#"
   xmlns:svg="http://www.w3.org/2000/svg"
   xmlns="http://www.w3.org/2000/svg"
   xmlns:sodipodi="http://sodipodi.sourceforge.net/DTD/sodipodi-0.dtd"
   xmlns:inkscape="http://www.inkscape.org/namespaces/inkscape"
   version="1.1"
   viewBox="0 0 725.10754 351.54196"
   stroke-miterlimit="10"
   id="svg2"
   inkscape:version="0.91 r13725"
   sodipodi:docname="sliding-windows.svg"
   width="725.10754"
   height="351.54196"
   style="fill:none;stroke:none;stroke-linecap:square;stroke-miterlimit:10">
  <metadata
     id="metadata195">
    <rdf:RDF>
      <cc:Work
         rdf:about="">
        <dc:format>image/svg+xml</dc:format>
        <dc:type
           rdf:resource="http://purl.org/dc/dcmitype/StillImage" />
        <dc:title></dc:title>
      </cc:Work>
    </rdf:RDF>
  </metadata>
  <defs
     id="defs193">
    <clipPath
       clipPathUnits="userSpaceOnUse"
       id="clipPath3525">
      <rect
         style="fill:#0000ff;fill-rule:evenodd;stroke:#000000;stroke-width:1px;stroke-linecap:butt;stroke-linejoin:miter;stroke-opacity:1"
         id="rect3527"
         width="615.2345"
         height="457.29678"
         x="45.419998"
         y="83.863663" />
    </clipPath>
    <clipPath
       clipPathUnits="userSpaceOnUse"
       id="clipPath3704">
      <rect
         style="fill:#0000ff;fill-rule:evenodd;stroke:#000000;stroke-width:1.08086026px;stroke-linecap:butt;stroke-linejoin:miter;stroke-opacity:1"
         id="rect3706"
         width="755.94531"
         height="400.11456"
         x="41.297459"
         y="5.6154351" />
    </clipPath>
    <clipPath
       clipPathUnits="userSpaceOnUse"
       id="clipPath3708">
      <rect
         style="fill:#0000ff;fill-rule:evenodd;stroke:#000000;stroke-width:1px;stroke-linecap:butt;stroke-linejoin:miter;stroke-opacity:1"
         id="rect3710"
         width="744.4068"
         height="347.7966"
         x="52.881355"
         y="6.1016951" />
    </clipPath>
    <clipPath
       clipPathUnits="userSpaceOnUse"
       id="clipPath3712">
      <rect
         style="fill:#0000ff;fill-rule:evenodd;stroke:#000000;stroke-width:1px;stroke-linecap:butt;stroke-linejoin:miter;stroke-opacity:1"
         id="rect3714"
         width="744.4068"
         height="347.7966"
         x="52.881355"
         y="6.1016951" />
    </clipPath>
    <clipPath
       clipPathUnits="userSpaceOnUse"
       id="clipPath3716">
      <rect
         style="fill:#0000ff;fill-rule:evenodd;stroke:#000000;stroke-width:1px;stroke-linecap:butt;stroke-linejoin:miter;stroke-opacity:1"
         id="rect3718"
         width="744.4068"
         height="347.7966"
         x="52.881355"
         y="6.1016951" />
    </clipPath>
    <clipPath
       clipPathUnits="userSpaceOnUse"
       id="clipPath3720">
      <rect
         style="fill:#0000ff;fill-rule:evenodd;stroke:#000000;stroke-width:1px;stroke-linecap:butt;stroke-linejoin:miter;stroke-opacity:1"
         id="rect3722"
         width="744.4068"
         height="347.7966"
         x="52.881355"
         y="6.1016951" />
    </clipPath>
    <clipPath
       clipPathUnits="userSpaceOnUse"
       id="clipPath3724">
      <rect
         style="fill:#0000ff;fill-rule:evenodd;stroke:#000000;stroke-width:1px;stroke-linecap:butt;stroke-linejoin:miter;stroke-opacity:1"
         id="rect3726"
         width="744.4068"
         height="347.7966"
         x="52.881355"
         y="6.1016951" />
    </clipPath>
    <clipPath
       clipPathUnits="userSpaceOnUse"
       id="clipPath3728">
      <rect
         style="fill:#0000ff;fill-rule:evenodd;stroke:#000000;stroke-width:1px;stroke-linecap:butt;stroke-linejoin:miter;stroke-opacity:1"
         id="rect3730"
         width="744.4068"
         height="347.7966"
         x="52.881355"
         y="6.1016951" />
    </clipPath>
    <clipPath
       clipPathUnits="userSpaceOnUse"
       id="clipPath3732">
      <rect
         style="fill:#0000ff;fill-rule:evenodd;stroke:#000000;stroke-width:1px;stroke-linecap:butt;stroke-linejoin:miter;stroke-opacity:1"
         id="rect3734"
         width="744.4068"
         height="347.7966"
         x="52.881355"
         y="6.1016951" />
    </clipPath>
    <clipPath
       clipPathUnits="userSpaceOnUse"
       id="clipPath3736">
      <rect
         style="fill:#0000ff;fill-rule:evenodd;stroke:#000000;stroke-width:1px;stroke-linecap:butt;stroke-linejoin:miter;stroke-opacity:1"
         id="rect3738"
         width="744.4068"
         height="347.7966"
         x="52.881355"
         y="6.1016951" />
    </clipPath>
    <clipPath
       clipPathUnits="userSpaceOnUse"
       id="clipPath3740">
      <rect
         style="fill:#0000ff;fill-rule:evenodd;stroke:#000000;stroke-width:1px;stroke-linecap:butt;stroke-linejoin:miter;stroke-opacity:1"
         id="rect3742"
         width="744.4068"
         height="347.7966"
         x="52.881355"
         y="6.1016951" />
    </clipPath>
    <clipPath
       clipPathUnits="userSpaceOnUse"
       id="clipPath3744">
      <rect
         style="fill:#0000ff;fill-rule:evenodd;stroke:#000000;stroke-width:1px;stroke-linecap:butt;stroke-linejoin:miter;stroke-opacity:1"
         id="rect3746"
         width="744.4068"
         height="347.7966"
         x="52.881355"
         y="6.1016951" />
    </clipPath>
  </defs>
  <sodipodi:namedview
     pagecolor="#ffffff"
     bordercolor="#666666"
     borderopacity="1"
     objecttolerance="10"
     gridtolerance="10"
     guidetolerance="10"
     inkscape:pageopacity="0"
     inkscape:pageshadow="2"
     inkscape:window-width="1280"
     inkscape:window-height="756"
     id="namedview191"
     showgrid="false"
     inkscape:zoom="0.74287339"
     inkscape:cx="412.62446"
     inkscape:cy="135.90506"
     inkscape:window-x="0"
     inkscape:window-y="1"
     inkscape:window-maximized="1"
     inkscape:current-layer="svg2"
     fit-margin-top="0"
     fit-margin-left="0"
     fit-margin-right="0"
     fit-margin-bottom="0" />
  <clipPath
     id="p.0">
    <path
       d="M 0,0 800,0 800,600 0,600 0,0 Z"
       id="path5"
       inkscape:connector-curvature="0"
       style="clip-rule:nonzero" />
  </clipPath>
  <path
     style="fill:#000000;fill-opacity:0;fill-rule:nonzero"
     inkscape:connector-curvature="0"
     id="path9"
     d="m -98.622751,-176.45227 1030.090001,0 0,774.79283 -1030.090001,0 z" />
  <path
     style="fill:#000000;fill-opacity:0;fill-rule:nonzero"
     inkscape:connector-curvature="0"
     id="path147"
     d="M 160.75036,549.11674 229.89617,380.08581"
     clip-path="url(#clipPath3716)"
     transform="translate(-45.254306,-74.732865)" />
  <path
     style="fill:#000000;fill-opacity:0;fill-rule:nonzero"
     inkscape:connector-curvature="0"
     id="path153"
     d="m 81.303655,549.11674 158.893405,0 0,55.51666 -158.893405,0 z"
     clip-path="url(#clipPath3712)"
     transform="translate(-45.254306,-74.732865)" />
  <path
     style="fill:#000000;fill-opacity:0;fill-rule:nonzero"
     inkscape:connector-curvature="0"
     id="path171"
     d="m 270.72501,557.67132 192.83774,0 0,55.51669 -192.83774,0 z"
     clip-path="url(#clipPath3708)"
     transform="translate(-45.254306,-74.732865)" />
  <path
     style="fill:#000000;fill-opacity:0;fill-rule:nonzero"
     inkscape:connector-curvature="0"
     id="path27"
     d="m -62.193769,52.756165 103.992586,0 0,48.257445 -103.992586,0 z" />
  <path
     style="fill:#000000;fill-opacity:0;fill-rule:nonzero"
     inkscape:connector-curvature="0"
     id="path31"
     d="m -62.193769,107.75727 103.992586,0 0,48.25744 -103.992586,0 z" />
  <path
     style="fill:#000000;fill-opacity:0;fill-rule:nonzero"
     inkscape:connector-curvature="0"
     id="path35"
     d="m -62.193769,171.73815 103.992586,0 0,48.25744 -103.992586,0 z" />
  <path
     style="fill:#000000;fill-opacity:0;fill-rule:nonzero"
     inkscape:connector-curvature="0"
     id="path135"
     d="m 594.51778,0 130.58978,0 0,43.767555 -130.58978,0 z" />
  <path
     style="fill:#000000;fill-opacity:0;fill-rule:nonzero"
     inkscape:connector-curvature="0"
     id="path11"
     d="m 69.034964,312.26431 645.401046,0" />
  <path
     style="fill-rule:evenodd;stroke:#000000;stroke-width:1.19299948;stroke-linecap:butt;stroke-linejoin:round"
     inkscape:connector-curvature="0"
     id="path13"
     d="m 69.034964,312.26431 637.793286,0" />
  <path
     style="fill:#000000;fill-rule:evenodd;stroke:#000000;stroke-width:1.19299948;stroke-linecap:butt"
     inkscape:connector-curvature="0"
     id="path15"
     d="m 706.82826,314.11832 5.75411,-1.85401 -5.75411,-1.85404 z" />
  <path
     style="fill-rule:evenodd;stroke:#000000;stroke-width:0.99090773;stroke-linecap:butt;stroke-linejoin:round"
     inkscape:connector-curvature="0"
     id="path19"
     d="m 69.034964,312.46623 0,-301.23268" />
  <path
     style="fill:#000000;fill-rule:evenodd;stroke:#000000;stroke-width:1.19299948;stroke-linecap:butt"
     inkscape:connector-curvature="0"
     id="path21"
     d="m 71.129304,11.23355 -2.09433,-5.093882 -2.09433,5.093882 z" />
  <path
     style="fill:#000000;fill-opacity:0;fill-rule:nonzero"
     inkscape:connector-curvature="0"
     id="path23"
     d="m 628.84376,303.28454 76.07753,0 0,48.25744 -76.07753,0 z" />
  <path
     style="fill:#000000;fill-rule:nonzero"
     inkscape:connector-curvature="0"
     id="path25"
     d="m 646.47631,331.81774 0.29718,1.66616 q -0.89153,0.15785 -1.60476,0.15785 -1.14909,0 -1.78306,-0.3157 -0.63399,-0.33324 -0.89154,-0.84186 -0.25755,-0.52614 -0.25755,-2.22741 l 0,-6.34897 -1.56514,0 0,-1.47324 1.56514,0 0,-2.73603 2.10006,-1.12247 0,3.8585 2.13967,0 0,1.47324 -2.13967,0 0,6.4542 q 0,0.80678 0.099,1.03479 0.11881,0.228 0.37644,0.3683 0.25755,0.14032 0.73303,0.14032 0.3368,0 0.93116,-0.0877 z m 1.95603,-11.43518 0,-2.13972 2.11988,0 0,2.13972 -2.11988,0 z m 0,13.11888 0,-11.06687 2.11988,0 0,11.06687 -2.11988,0 z m 5.23567,0 0,-11.06687 1.90194,0 0,1.56094 q 0.57455,-0.80678 1.54532,-1.29786 0.9906,-0.50862 2.23875,-0.50862 1.38683,0 2.27836,0.50862 0.89154,0.50861 1.24815,1.43816 1.48589,-1.94679 3.86331,-1.94679 1.86231,0 2.85291,0.91201 1.01041,0.91201 1.01041,2.80618 l 0,7.59422 -2.11987,0 0,-6.96283 q 0,-1.12247 -0.19812,-1.61355 -0.19812,-0.50862 -0.75285,-0.80678 -0.53492,-0.29815 -1.26797,-0.29815 -1.30758,0 -2.1793,0.7717 -0.87172,0.77169 -0.87172,2.49048 l 0,6.41913 -2.11986,0 0,-7.19083 q 0,-1.24525 -0.51512,-1.85909 -0.5151,-0.63139 -1.70382,-0.63139 -0.89154,0 -1.66419,0.42092 -0.75285,0.40338 -1.08966,1.21016 -0.33679,0.80678 -0.33679,2.3151 l 0,5.73513 -2.11988,0 z m 28.26379,-3.56034 2.17931,0.24554 q -0.51511,1.68371 -1.92176,2.63079 -1.38682,0.92955 -3.56613,0.92955 -2.73404,0 -4.33879,-1.49078 -1.60477,-1.49078 -1.60477,-4.19172 0,-2.78866 1.60477,-4.33205 1.62457,-1.5434 4.21992,-1.5434 2.51611,0 4.10106,1.50832 1.58494,1.50833 1.58494,4.26189 0,0.15784 -0.0198,0.49108 l -9.31157,0 q 0.11881,1.82402 1.1689,2.78864 1.05003,0.96462 2.61518,0.96462 1.14908,0 1.96136,-0.52615 0.8321,-0.5437 1.3274,-1.73633 z m -6.95396,-3.03418 6.97376,0 q -0.13867,-1.38556 -0.79246,-2.08711 -1.0104,-1.08739 -2.63498,-1.08739 -1.44627,0 -2.45667,0.87693 -0.99059,0.8594 -1.08965,2.29756 z" />
  <path
     style="fill:#000000;fill-rule:nonzero"
     inkscape:connector-curvature="0"
     id="path29"
     d="m 8.221921,82.973095 0,-1.6311 q -1.446265,1.87664 -3.962372,1.87664 -1.089652,0 -2.060433,-0.36832 Q 1.248148,82.464465 0.772663,81.903235 0.31699,81.341995 0.118872,80.517685 0,79.956455 0,78.763825 l 0,-6.8576 2.119869,0 0,6.13851 q 0,1.47325 0.118871,1.98187 0.198119,0.73663 0.85191,1.15755 0.653791,0.42093 1.60476,0.42093 0.95097,0 1.783067,-0.42093 0.832098,-0.43847 1.1689,-1.17509 0.356613,-0.75415 0.356613,-2.17479 l 0,-5.92805 2.119869,0 0,11.06687 -1.901938,0 z m 4.121775,-3.29726 2.100057,-0.29816 q 0.178306,1.12247 0.970781,1.71878 0.812286,0.57879 2.258552,0.57879 1.466077,0 2.159492,-0.52617 0.713227,-0.52616 0.713227,-1.2277 0,-0.63139 -0.614169,-0.9997 -0.43586,-0.24555 -2.159492,-0.6314 -2.337798,-0.52615 -3.249144,-0.89446 -0.891533,-0.38585 -1.367018,-1.05232 -0.455673,-0.68401 -0.455673,-1.49078 0,-0.73663 0.376425,-1.36802 0.396237,-0.63139 1.050029,-1.05231 0.495296,-0.3157 1.347206,-0.5437 0.85191,-0.228 1.822691,-0.228 1.48589,0 2.595354,0.38585 1.109463,0.36831 1.624571,1.01724 0.534921,0.63139 0.733039,1.70125 l -2.060433,0.24554 q -0.138683,-0.84186 -0.832098,-1.3154 -0.673603,-0.49108 -1.901938,-0.49108 -1.466078,0 -2.080245,0.43847 -0.614167,0.42092 -0.614167,0.98216 0,0.3683 0.257553,0.66647 0.257554,0.29815 0.812287,0.49108 0.316989,0.10517 1.862314,0.49108 2.238739,0.52616 3.130273,0.85939 0.891534,0.33324 1.38683,0.98216 0.515109,0.64893 0.515109,1.61355 0,0.92956 -0.614168,1.77141 -0.614168,0.82431 -1.783067,1.28031 -1.168899,0.43847 -2.634977,0.43847 -2.436859,0 -3.724629,-0.89447 -1.267959,-0.89447 -1.624572,-2.64833 z m 21.23831,-0.26309 2.179304,0.24555 q -0.515109,1.6837 -1.92175,2.63079 -1.38683,0.92955 -3.566134,0.92955 -2.734037,0 -4.338797,-1.49079 -1.60476,-1.49078 -1.60476,-4.19172 0,-2.78865 1.60476,-4.33204 1.624572,-1.5434 4.219925,-1.5434 2.516106,0 4.101055,1.50832 1.584953,1.50832 1.584953,4.26189 0,0.15784 -0.01979,0.49108 l -9.311576,0 q 0.118872,1.82402 1.1689,2.78863 1.050028,0.96464 2.615164,0.96464 1.149088,0 1.961374,-0.52617 0.832099,-0.5437 1.327394,-1.73633 z m -6.953962,-3.03417 6.973774,0 q -0.138684,-1.38556 -0.792475,-2.0871 -1.010404,-1.08739 -2.634977,-1.08739 -1.446265,0 -2.45667,0.87693 -0.990592,0.85939 -1.089652,2.29756 z m 11.531414,6.59452 0,-11.06687 1.90193,0 0,1.68371 q 0.733047,-1.17509 1.347207,-1.5434 0.614171,-0.38585 1.367021,-0.38585 1.069837,0 2.1793,0.61385 l -0.733037,1.73632 q -0.772664,-0.40338 -1.56513,-0.40338 -0.693422,0 -1.248154,0.3683 -0.534918,0.36832 -0.772663,1.01724 -0.356612,0.99971 -0.356612,2.19234 l 0,5.78774 -2.119862,0 z m 21.859266,0 -2.11987,0 0,-11.9438 q -0.75285,0.64893 -2.001,1.29785 -1.248149,0.6314 -2.238735,0.96463 l 0,-1.82401 q 1.783065,-0.73662 3.110455,-1.78894 1.3274,-1.05232 1.88213,-2.03448 l 1.36702,0 0,15.32875 z" />
  <path
     style="fill:#000000;fill-rule:nonzero"
     inkscape:connector-curvature="0"
     id="path33"
     d="m 8.221921,137.97421 0,-1.6311 q -1.446265,1.87663 -3.962372,1.87663 -1.089652,0 -2.060433,-0.36831 Q 1.248148,137.46558 0.772663,136.90435 0.31699,136.34311 0.118872,135.5188 0,134.95756 0,133.76494 l 0,-6.85761 2.119869,0 0,6.13852 q 0,1.47324 0.118871,1.98187 0.198119,0.73662 0.85191,1.15754 0.653791,0.42093 1.60476,0.42093 0.95097,0 1.783067,-0.42093 0.832098,-0.43847 1.1689,-1.17509 0.356613,-0.75415 0.356613,-2.17478 l 0,-5.92806 2.119869,0 0,11.06688 -1.901938,0 z m 4.121775,-3.29726 2.100057,-0.29816 q 0.178306,1.12247 0.970781,1.71878 0.812286,0.57878 2.258552,0.57878 1.466077,0 2.159492,-0.52616 0.713227,-0.52616 0.713227,-1.2277 0,-0.63139 -0.614169,-0.99971 -0.43586,-0.24554 -2.159492,-0.63139 -2.337798,-0.52616 -3.249144,-0.89447 -0.891533,-0.38585 -1.367018,-1.05231 -0.455673,-0.68402 -0.455673,-1.49079 0,-0.73662 0.376425,-1.36801 0.396237,-0.63139 1.050029,-1.05231 0.495296,-0.3157 1.347206,-0.5437 0.85191,-0.22801 1.822691,-0.22801 1.48589,0 2.595354,0.38585 1.109463,0.36831 1.624571,1.01723 0.534921,0.63139 0.733039,1.70125 l -2.060433,0.24555 q -0.138683,-0.84186 -0.832098,-1.31541 -0.673603,-0.49108 -1.901938,-0.49108 -1.466078,0 -2.080245,0.43847 -0.614167,0.42093 -0.614167,0.98216 0,0.36831 0.257553,0.66648 0.257554,0.29815 0.812287,0.49107 0.316989,0.10518 1.862314,0.49108 2.238739,0.52616 3.130273,0.85939 0.891534,0.33324 1.38683,0.98216 0.515109,0.64894 0.515109,1.61355 0,0.92956 -0.614168,1.77141 -0.614168,0.82432 -1.783067,1.28031 -1.168899,0.43847 -2.634977,0.43847 -2.436859,0 -3.724629,-0.89446 -1.267959,-0.89447 -1.624572,-2.64833 z m 21.23831,-0.26309 2.179304,0.24554 q -0.515109,1.68371 -1.92175,2.63079 -1.38683,0.92955 -3.566134,0.92955 -2.734037,0 -4.338797,-1.49078 -1.60476,-1.49078 -1.60476,-4.19172 0,-2.78865 1.60476,-4.33205 1.624572,-1.5434 4.219925,-1.5434 2.516106,0 4.101055,1.50833 1.584953,1.50832 1.584953,4.26189 0,0.15783 -0.01979,0.49107 l -9.311576,0 q 0.118872,1.82402 1.1689,2.78864 1.050028,0.96463 2.615164,0.96463 1.149088,0 1.961374,-0.52616 0.832099,-0.5437 1.327394,-1.73634 z m -6.953962,-3.03418 6.973774,0 q -0.138684,-1.38555 -0.792475,-2.08709 -1.010404,-1.0874 -2.634977,-1.0874 -1.446265,0 -2.45667,0.87693 -0.990592,0.8594 -1.089652,2.29756 z m 11.531414,6.59453 0,-11.06688 1.90193,0 0,1.68371 q 0.733047,-1.17509 1.347207,-1.5434 0.614171,-0.38585 1.367021,-0.38585 1.069837,0 2.1793,0.61386 l -0.733037,1.73632 q -0.772664,-0.40339 -1.56513,-0.40339 -0.693422,0 -1.248154,0.36831 -0.534918,0.36831 -0.772663,1.01724 -0.356612,0.9997 -0.356612,2.19233 l 0,5.78774 -2.119862,0 z m 25.009346,-1.80649 0,1.80649 -11.391812,0 q -0.01979,-0.68402 0.237735,-1.29786 0.435864,-1.03479 1.386834,-2.03448 0.970783,-0.99971 2.773653,-2.3151 2.81329,-2.03447 3.80388,-3.2271 0.9906,-1.19263 0.9906,-2.26249 0,-1.10493 -0.91134,-1.87664 -0.89155,-0.77169 -2.33781,-0.77169 -1.52551,0 -2.45667,0.8243 -0.911343,0.80678 -0.911343,2.24495 l -2.1793,-0.19292 q 0.217932,-2.15726 1.684007,-3.27973 1.466076,-1.14 3.922746,-1.14 2.47648,0 3.92275,1.2277 1.44627,1.21017 1.44627,3.01664 0,0.91202 -0.43586,1.80647 -0.41606,0.87694 -1.40665,1.85909 -0.97078,0.96464 -3.24915,2.68342 -1.90194,1.42063 -2.45667,1.92924 -0.53492,0.49109 -0.891531,0.9997 l 8.459661,0 z" />
  <path
     style="fill:#000000;fill-rule:nonzero"
     inkscape:connector-curvature="0"
     id="path37"
     d="m 8.221921,201.95506 0,-1.6311 q -1.446265,1.87664 -3.962372,1.87664 -1.089652,0 -2.060433,-0.36831 Q 1.248148,201.44643 0.772663,200.8852 0.31699,200.32396 0.118872,199.49966 0,198.93841 0,197.7458 l 0,-6.85761 2.119869,0 0,6.13852 q 0,1.47324 0.118871,1.98186 0.198119,0.73662 0.85191,1.15755 0.653791,0.42093 1.60476,0.42093 0.95097,0 1.783067,-0.42093 0.832098,-0.43847 1.1689,-1.17509 0.356613,-0.75415 0.356613,-2.17479 l 0,-5.92805 2.119869,0 0,11.06687 -1.901938,0 z m 4.121775,-3.29726 2.100057,-0.29816 q 0.178306,1.12247 0.970781,1.71879 0.812286,0.57877 2.258552,0.57877 1.466077,0 2.159492,-0.52616 0.713227,-0.52615 0.713227,-1.2277 0,-0.63139 -0.614169,-0.99971 -0.43586,-0.24554 -2.159492,-0.63139 -2.337798,-0.52615 -3.249144,-0.89446 -0.891533,-0.38585 -1.367018,-1.05232 -0.455673,-0.68401 -0.455673,-1.49079 0,-0.73662 0.376425,-1.36801 0.396237,-0.63139 1.050029,-1.05231 0.495296,-0.31569 1.347206,-0.5437 0.85191,-0.22798 1.822691,-0.22798 1.48589,0 2.595354,0.38583 1.109463,0.36831 1.624571,1.01724 0.534921,0.63139 0.733039,1.70125 l -2.060433,0.24554 q -0.138683,-0.84185 -0.832098,-1.3154 -0.673603,-0.49109 -1.901938,-0.49109 -1.466078,0 -2.080245,0.43847 -0.614167,0.42094 -0.614167,0.98217 0,0.36831 0.257553,0.66647 0.257554,0.29815 0.812287,0.49108 0.316989,0.10517 1.862314,0.49108 2.238739,0.52615 3.130273,0.85939 0.891534,0.33324 1.38683,0.98215 0.515109,0.64895 0.515109,1.61356 0,0.92955 -0.614168,1.77141 -0.614168,0.82431 -1.783067,1.28031 -1.168899,0.43847 -2.634977,0.43847 -2.436859,0 -3.724629,-0.89447 -1.267959,-0.89447 -1.624572,-2.64833 z m 21.23831,-0.26309 2.179304,0.24555 q -0.515109,1.6837 -1.92175,2.63079 -1.38683,0.92955 -3.566134,0.92955 -2.734037,0 -4.338797,-1.49079 -1.60476,-1.49078 -1.60476,-4.19172 0,-2.78865 1.60476,-4.33205 1.624572,-1.54337 4.219925,-1.54337 2.516106,0 4.101055,1.5083 1.584953,1.50832 1.584953,4.26189 0,0.15784 -0.01979,0.49108 l -9.311576,0 q 0.118872,1.82401 1.1689,2.78863 1.050028,0.96463 2.615164,0.96463 1.149088,0 1.961374,-0.52616 0.832099,-0.5437 1.327394,-1.73633 z m -6.953962,-3.03417 6.973774,0 q -0.138684,-1.38555 -0.792475,-2.0871 -1.010404,-1.0874 -2.634977,-1.0874 -1.446265,0 -2.45667,0.87694 -0.990592,0.85939 -1.089652,2.29756 z m 11.531414,6.59452 0,-11.06687 1.90193,0 0,1.6837 q 0.733047,-1.17508 1.347207,-1.54339 0.614171,-0.38583 1.367021,-0.38583 1.069837,0 2.1793,0.61383 l -0.733037,1.73632 q -0.772664,-0.40338 -1.56513,-0.40338 -0.693422,0 -1.248154,0.36831 -0.534918,0.36831 -0.772663,1.01724 -0.356612,0.9997 -0.356612,2.19232 l 0,5.78775 -2.119862,0 z m 13.894895,-4.03388 2.119872,-0.24554 q 0.356612,1.59601 1.228329,2.29756 0.89154,0.70154 2.13969,0.70154 1.5057,0 2.53591,-0.91201 1.03022,-0.92955 1.03022,-2.28002 0,-1.28031 -0.97078,-2.12217 -0.95097,-0.84185 -2.41705,-0.84185 -0.59436,0 -1.48589,0.21046 l 0.23775,-1.64863 q 0.19812,0.0176 0.3368,0.0176 1.34721,0 2.41704,-0.61385 1.08965,-0.63139 1.08965,-1.92923 0,-1.03478 -0.79247,-1.70125 -0.77266,-0.68401 -2.02081,-0.68401 -1.22833,0 -2.06043,0.68401 -0.812292,0.68401 -1.050027,2.06954 l -2.119872,-0.33319 q 0.376425,-1.89417 1.743446,-2.92895 1.386823,-1.03477 3.447253,-1.03477 1.40665,0 2.59537,0.54369 1.18871,0.52615 1.80287,1.45571 0.63398,0.92954 0.63398,1.96432 0,0.99968 -0.59435,1.80646 -0.59436,0.80677 -1.78308,1.29785 1.54533,0.29816 2.37743,1.29786 0.85192,0.98216 0.85192,2.4554 0,1.99941 -1.64439,3.38496 -1.64438,1.38555 -4.16049,1.38555 -2.27837,0 -3.784071,-1.19263 -1.485888,-1.19262 -1.70382,-3.10433 z" />
  <path
     style="fill:#9900ff;fill-rule:nonzero"
     inkscape:connector-curvature="0"
     id="path39"
     d="m 108.98067,76.884875 0,0 c 0,-5.88684 5.39076,-10.65905 12.0406,-10.65905 l 0,0 c 3.19337,0 6.25595,1.12299 8.51402,3.12195 2.25804,1.99897 3.52661,4.71015 3.52661,7.5371 l 0,0 c 0,5.88685 -5.39076,10.65906 -12.04063,10.65906 l 0,0 c -6.64984,0 -12.0406,-4.77221 -12.0406,-10.65906 z" />
  <path
     style="fill:#9900ff;fill-rule:nonzero"
     inkscape:connector-curvature="0"
     id="path41"
     d="m 142.57658,76.884875 0,0 c 0,-5.88684 5.39076,-10.65905 12.04061,-10.65905 l 0,0 c 3.19337,0 6.25594,1.12299 8.51401,3.12195 2.25805,1.99897 3.52661,4.71015 3.52661,7.5371 l 0,0 c 0,5.88685 -5.39076,10.65906 -12.04062,10.65906 l 0,0 c -6.64985,0 -12.04061,-4.77221 -12.04061,-10.65906 z" />
  <path
     style="fill:#9900ff;fill-rule:nonzero"
     inkscape:connector-curvature="0"
     id="path43"
     d="m 252.26001,76.884875 0,0 c 0,-5.88684 5.39076,-10.65905 12.04061,-10.65905 l 0,0 c 3.19339,0 6.25594,1.12299 8.51398,3.12195 2.25806,1.99897 3.52664,4.71015 3.52664,7.5371 l 0,0 c 0,5.88685 -5.39076,10.65906 -12.04062,10.65906 l 0,0 c -6.64985,0 -12.04061,-4.77221 -12.04061,-10.65906 z" />
  <path
     style="fill:#9900ff;fill-rule:nonzero"
     inkscape:connector-curvature="0"
     id="path45"
     d="m 294.10264,76.884875 0,0 c 0,-5.88684 5.39077,-10.65905 12.04062,-10.65905 l 0,0 c 3.19339,0 6.25594,1.12299 8.51399,3.12195 2.25805,1.99897 3.52664,4.71015 3.52664,7.5371 l 0,0 c 0,5.88685 -5.39078,10.65906 -12.04063,10.65906 l 0,0 c -6.64985,0 -12.04062,-4.77221 -12.04062,-10.65906 z" />
  <path
     style="fill:#9900ff;fill-rule:nonzero"
     inkscape:connector-curvature="0"
     id="path47"
     d="m 325.80161,76.884875 0,0 c 0,-5.88684 5.39077,-10.65905 12.04062,-10.65905 l 0,0 c 3.19339,0 6.25594,1.12299 8.51399,3.12195 2.25806,1.99897 3.52663,4.71015 3.52663,7.5371 l 0,0 c 0,5.88685 -5.39076,10.65906 -12.04062,10.65906 l 0,0 c -6.64985,0 -12.04062,-4.77221 -12.04062,-10.65906 z" />
  <path
     style="fill:#9900ff;fill-rule:nonzero"
     inkscape:connector-curvature="0"
     id="path49"
     d="m 357.50059,76.884875 0,0 c 0,-5.88684 5.39076,-10.65905 12.0406,-10.65905 l 0,0 c 3.1934,0 6.25595,1.12299 8.51399,3.12195 2.25806,1.99897 3.52664,4.71015 3.52664,7.5371 l 0,0 c 0,5.88685 -5.39076,10.65906 -12.04063,10.65906 l 0,0 c -6.64984,0 -12.0406,-4.77221 -12.0406,-10.65906 z" />
  <path
     style="fill:#9900ff;fill-rule:nonzero"
     inkscape:connector-curvature="0"
     id="path51"
     d="m 445.62872,76.884875 0,0 c 0,-5.88684 5.39076,-10.65905 12.04061,-10.65905 l 0,0 c 3.19339,0 6.25594,1.12299 8.51398,3.12195 2.25806,1.99897 3.52664,4.71015 3.52664,7.5371 l 0,0 c 0,5.88685 -5.39076,10.65906 -12.04062,10.65906 l 0,0 c -6.64985,0 -12.04061,-4.77221 -12.04061,-10.65906 z" />
  <path
     style="fill:#9900ff;fill-rule:nonzero"
     inkscape:connector-curvature="0"
     id="path53"
     d="m 479.22463,76.884875 0,0 c 0,-5.88684 5.39076,-10.65905 12.04061,-10.65905 l 0,0 c 3.19339,0 6.25595,1.12299 8.51399,3.12195 2.25806,1.99897 3.52663,4.71015 3.52663,7.5371 l 0,0 c 0,5.88685 -5.39076,10.65906 -12.04062,10.65906 l 0,0 c -6.64985,0 -12.04061,-4.77221 -12.04061,-10.65906 z" />
  <path
     style="fill:#9900ff;fill-rule:nonzero"
     inkscape:connector-curvature="0"
     id="path55"
     d="m 509.02665,76.884875 0,0 c 0,-5.88684 5.39077,-10.65905 12.04062,-10.65905 l 0,0 c 3.19339,0 6.25594,1.12299 8.51399,3.12195 2.25806,1.99897 3.52663,4.71015 3.52663,7.5371 l 0,0 c 0,5.88685 -5.39076,10.65906 -12.04062,10.65906 l 0,0 c -6.64985,0 -12.04062,-4.77221 -12.04062,-10.65906 z" />
  <path
     style="fill:#9900ff;fill-rule:nonzero"
     inkscape:connector-curvature="0"
     id="path57"
     d="m 548.96237,76.884875 0,0 c 0,-5.88684 5.39076,-10.65905 12.04056,-10.65905 l 0,0 c 3.19343,0 6.25598,1.12299 8.51408,3.12195 2.25801,1.99897 3.52659,4.71015 3.52659,7.5371 l 0,0 c 0,5.88685 -5.39076,10.65906 -12.04067,10.65906 l 0,0 c -6.6498,0 -12.04056,-4.77221 -12.04056,-10.65906 z" />
  <path
     style="fill:#9900ff;fill-rule:nonzero"
     inkscape:connector-curvature="0"
     id="path59"
     d="m 649.14112,76.884875 0,0 c 0,-5.88684 5.39077,-10.65905 12.04065,-10.65905 l 0,0 c 3.19335,0 6.2559,1.12299 8.514,3.12195 2.25801,1.99897 3.52659,4.71015 3.52659,7.5371 l 0,0 c 0,5.88685 -5.39076,10.65906 -12.04059,10.65906 l 0,0 c -6.64988,0 -12.04065,-4.77221 -12.04065,-10.65906 z" />
  <path
     style="fill:#9900ff;fill-rule:nonzero"
     inkscape:connector-curvature="0"
     id="path61"
     d="m 360.00655,131.88599 0,0 c 0,-5.88685 5.39077,-10.65906 12.04061,-10.65906 l 0,0 c 3.1934,0 6.25595,1.123 8.51399,3.12195 2.25806,1.99898 3.52664,4.71015 3.52664,7.53711 l 0,0 c 0,5.88684 -5.39076,10.65905 -12.04063,10.65905 l 0,0 c -6.64984,0 -12.04061,-4.77221 -12.04061,-10.65905 z" />
  <path
     style="fill:#9900ff;fill-rule:nonzero"
     inkscape:connector-curvature="0"
     id="path63"
     d="m 393.60247,131.88599 0,0 c 0,-5.88685 5.39076,-10.65906 12.0406,-10.65906 l 0,0 c 3.1934,0 6.25596,1.123 8.514,3.12195 2.25805,1.99898 3.52663,4.71015 3.52663,7.53711 l 0,0 c 0,5.88684 -5.39076,10.65905 -12.04063,10.65905 l 0,0 c -6.64984,0 -12.0406,-4.77221 -12.0406,-10.65905 z" />
  <path
     style="fill:#9900ff;fill-rule:nonzero"
     inkscape:connector-curvature="0"
     id="path65"
     d="m 149.55535,131.88599 0,0 c 0,-5.88685 5.39076,-10.65906 12.0406,-10.65906 l 0,0 c 3.19338,0 6.25595,1.123 8.51402,3.12195 2.25804,1.99898 3.52661,4.71015 3.52661,7.53711 l 0,0 c 0,5.88684 -5.39076,10.65905 -12.04063,10.65905 l 0,0 c -6.64984,0 -12.0406,-4.77221 -12.0406,-10.65905 z" />
  <path
     style="fill:#9900ff;fill-rule:nonzero"
     inkscape:connector-curvature="0"
     id="path67"
     d="m 191.39798,131.88599 0,0 c 0,-5.88685 5.39077,-10.65906 12.04062,-10.65906 l 0,0 c 3.19336,0 6.25594,1.123 8.51398,3.12195 2.25806,1.99898 3.52664,4.71015 3.52664,7.53711 l 0,0 c 0,5.88684 -5.39076,10.65905 -12.04062,10.65905 l 0,0 c -6.64985,0 -12.04062,-4.77221 -12.04062,-10.65905 z" />
  <path
     style="fill:#9900ff;fill-rule:nonzero"
     inkscape:connector-curvature="0"
     id="path69"
     d="m 223.09695,131.88599 0,0 c 0,-5.88685 5.39077,-10.65906 12.04062,-10.65906 l 0,0 c 3.19339,0 6.25594,1.123 8.51399,3.12195 2.25805,1.99898 3.52663,4.71015 3.52663,7.53711 l 0,0 c 0,5.88684 -5.39077,10.65905 -12.04062,10.65905 l 0,0 c -6.64985,0 -12.04062,-4.77221 -12.04062,-10.65905 z" />
  <path
     style="fill:#9900ff;fill-rule:nonzero"
     inkscape:connector-curvature="0"
     id="path71"
     d="m 254.79593,131.88599 0,0 c 0,-5.88685 5.39076,-10.65906 12.0406,-10.65906 l 0,0 c 3.1934,0 6.25595,1.123 8.514,3.12195 2.25806,1.99898 3.52663,4.71015 3.52663,7.53711 l 0,0 c 0,5.88684 -5.39076,10.65905 -12.04063,10.65905 l 0,0 c -6.64984,0 -12.0406,-4.77221 -12.0406,-10.65905 z" />
  <path
     style="fill:#9900ff;fill-rule:nonzero"
     inkscape:connector-curvature="0"
     id="path73"
     d="m 605.36155,131.88599 0,0 c 0,-5.88685 5.39084,-10.65906 12.04065,-10.65906 l 0,0 c 3.19335,0 6.25598,1.123 8.514,3.12195 2.25808,1.99898 3.52659,4.71015 3.52659,7.53711 l 0,0 c 0,5.88684 -5.39077,10.65905 -12.04059,10.65905 l 0,0 c -6.64981,0 -12.04065,-4.77221 -12.04065,-10.65905 z" />
  <path
     style="fill:#9900ff;fill-rule:nonzero"
     inkscape:connector-curvature="0"
     id="path75"
     d="m 638.95751,131.88599 0,0 c 0,-5.88685 5.39077,-10.65906 12.04057,-10.65906 l 0,0 c 3.19343,0 6.25598,1.123 8.51408,3.12195 2.25801,1.99898 3.52659,4.71015 3.52659,7.53711 l 0,0 c 0,5.88684 -5.39076,10.65905 -12.04067,10.65905 l 0,0 c -6.6498,0 -12.04057,-4.77221 -12.04057,-10.65905 z" />
  <path
     style="fill:#9900ff;fill-rule:nonzero"
     inkscape:connector-curvature="0"
     id="path77"
     d="m 668.75949,131.88599 0,0 c 0,-5.88685 5.39084,-10.65906 12.04064,-10.65906 l 0,0 c 3.19336,0 6.25599,1.123 8.514,3.12195 2.25809,1.99898 3.52659,4.71015 3.52659,7.53711 l 0,0 c 0,5.88684 -5.39076,10.65905 -12.04059,10.65905 l 0,0 c -6.6498,0 -12.04064,-4.77221 -12.04064,-10.65905 z" />
  <path
     style="fill:#9900ff;fill-rule:nonzero"
     inkscape:connector-curvature="0"
     id="path79"
     d="m 489.3683,131.88599 0,0 c 0,-5.88685 5.39076,-10.65906 12.04061,-10.65906 l 0,0 c 3.19339,0 6.25595,1.123 8.51399,3.12195 2.25806,1.99898 3.52663,4.71015 3.52663,7.53711 l 0,0 c 0,5.88684 -5.39076,10.65905 -12.04062,10.65905 l 0,0 c -6.64985,0 -12.04061,-4.77221 -12.04061,-10.65905 z" />
  <path
     style="fill:#9900ff;fill-rule:nonzero"
     inkscape:connector-curvature="0"
     id="path81"
     d="m 503.30586,195.86687 0,0 c 0,-5.88685 5.39077,-10.65906 12.04062,-10.65906 l 0,0 c 3.19339,0 6.25594,1.123 8.51398,3.12195 2.25806,1.99897 3.52665,4.71014 3.52665,7.53711 l 0,0 c 0,5.88684 -5.39077,10.65905 -12.04063,10.65905 l 0,0 c -6.64985,0 -12.04062,-4.77221 -12.04062,-10.65905 z" />
  <path
     style="fill:#9900ff;fill-rule:nonzero"
     inkscape:connector-curvature="0"
     id="path83"
     d="m 536.90174,195.86687 0,0 c 0,-5.88685 5.39084,-10.65906 12.04065,-10.65906 l 0,0 c 3.19336,0 6.25599,1.123 8.51401,3.12195 2.25807,1.99897 3.52657,4.71014 3.52657,7.53711 l 0,0 c 0,5.88684 -5.39076,10.65905 -12.04058,10.65905 l 0,0 c -6.64981,0 -12.04065,-4.77221 -12.04065,-10.65905 z" />
  <path
     style="fill:#9900ff;fill-rule:nonzero"
     inkscape:connector-curvature="0"
     id="path85"
     d="m 120.09277,195.86687 0,0 c 0,-5.88685 5.39077,-10.65906 12.04062,-10.65906 l 0,0 c 3.19336,0 6.25594,1.123 8.51401,3.12195 2.25804,1.99897 3.52661,4.71014 3.52661,7.53711 l 0,0 c 0,5.88684 -5.39076,10.65905 -12.04062,10.65905 l 0,0 c -6.64985,0 -12.04062,-4.77221 -12.04062,-10.65905 z" />
  <path
     style="fill:#9900ff;fill-rule:nonzero"
     inkscape:connector-curvature="0"
     id="path87"
     d="m 220.56104,195.86687 0,0 c 0,-5.88685 5.39076,-10.65906 12.04061,-10.65906 l 0,0 c 3.19339,0 6.25595,1.123 8.51399,3.12195 2.25806,1.99897 3.52663,4.71014 3.52663,7.53711 l 0,0 c 0,5.88684 -5.39076,10.65905 -12.04062,10.65905 l 0,0 c -6.64985,0 -12.04061,-4.77221 -12.04061,-10.65905 z" />
  <path
     style="fill:#9900ff;fill-rule:nonzero"
     inkscape:connector-curvature="0"
     id="path89"
     d="m 254.15695,195.86687 0,0 c 0,-5.88685 5.39076,-10.65906 12.04061,-10.65906 l 0,0 c 3.19339,0 6.25594,1.123 8.51399,3.12195 2.25806,1.99897 3.52664,4.71014 3.52664,7.53711 l 0,0 c 0,5.88684 -5.39077,10.65905 -12.04063,10.65905 l 0,0 c -6.64985,0 -12.04061,-4.77221 -12.04061,-10.65905 z" />
  <path
     style="fill:#9900ff;fill-rule:nonzero"
     inkscape:connector-curvature="0"
     id="path91"
     d="m 283.95897,195.86687 0,0 c 0,-5.88685 5.39077,-10.65906 12.04062,-10.65906 l 0,0 c 3.19339,0 6.25594,1.123 8.51399,3.12195 2.25805,1.99897 3.52664,4.71014 3.52664,7.53711 l 0,0 c 0,5.88684 -5.39078,10.65905 -12.04063,10.65905 l 0,0 c -6.64985,0 -12.04062,-4.77221 -12.04062,-10.65905 z" />
  <path
     style="fill:#9900ff;fill-rule:nonzero"
     inkscape:connector-curvature="0"
     id="path93"
     d="m 592.09293,195.86687 0,0 c 0,-5.88685 5.39076,-10.65906 12.04065,-10.65906 l 0,0 c 3.19336,0 6.25591,1.123 8.514,3.12195 2.25801,1.99897 3.52658,4.71014 3.52658,7.53711 l 0,0 c 0,5.88684 -5.39076,10.65905 -12.04058,10.65905 l 0,0 c -6.64989,0 -12.04065,-4.77221 -12.04065,-10.65905 z" />
  <path
     style="fill-rule:nonzero;stroke:#000000;stroke-width:1.00398374;stroke-linecap:butt;stroke-linejoin:round;stroke-dasharray:4.01593496, 3.01195122"
     inkscape:connector-curvature="0"
     id="path97"
     d="m 103.90883,28.061785 0,282.206475" />
  <path
     style="fill-rule:nonzero;stroke:#000000;stroke-width:1.00731385;stroke-linecap:butt;stroke-linejoin:round;stroke-dasharray:4.02925534, 3.02194151"
     inkscape:connector-curvature="0"
     id="path101"
     d="m 222.58943,26.948155 0,284.081655" />
  <path
     style="fill-rule:nonzero;stroke:#000000;stroke-width:1.00398374;stroke-linecap:butt;stroke-linejoin:round;stroke-dasharray:4.01593495, 3.01195122"
     inkscape:connector-curvature="0"
     id="path105"
     d="m 341.27002,26.948155 0,282.206465" />
  <path
     style="fill-rule:nonzero;stroke:#000000;stroke-width:1.00620496;stroke-linecap:butt;stroke-linejoin:round;stroke-dasharray:4.02482011, 3.01861508"
     inkscape:connector-curvature="0"
     id="path109"
     d="m 459.95066,26.948155 0,283.456585" />
  <path
     style="fill-rule:nonzero;stroke:#000000;stroke-width:1.00509501;stroke-linecap:butt;stroke-linejoin:round;stroke-dasharray:4.02038, 3.01528499"
     inkscape:connector-curvature="0"
     id="path113"
     d="m 578.6312,28.061785 0,282.831535" />
  <path
     style="fill-rule:nonzero;stroke:#000000;stroke-width:1.0017575;stroke-linecap:butt;stroke-linejoin:round;stroke-dasharray:4.00703011, 3.00527258"
     inkscape:connector-curvature="0"
     id="path117"
     d="m 695.18749,28.061785 0,280.956335" />
  <path
     style="fill:#000000;fill-opacity:0;fill-rule:nonzero"
     inkscape:connector-curvature="0"
     id="path119"
     d="m 121.34326,0 130.58977,0 0,43.767555 -130.58977,0 z" />
  <path
     style="fill:#000000;fill-opacity:0;fill-rule:nonzero"
     inkscape:connector-curvature="0"
     id="path123"
     d="m 238.28208,0 130.58978,0 0,43.767555 -130.58978,0 z" />
  <path
     style="fill:#000000;fill-opacity:0;fill-rule:nonzero"
     inkscape:connector-curvature="0"
     id="path127"
     d="m 357.28633,0 130.58977,0 0,43.767555 -130.58977,0 z" />
  <path
     style="fill:#000000;fill-opacity:0;fill-rule:nonzero"
     inkscape:connector-curvature="0"
     id="path131"
     d="m 477.38677,0 130.58978,0 0,43.767555 -130.58978,0 z" />
  <path
     style="fill:#000000;fill-opacity:0;fill-rule:nonzero"
     inkscape:connector-curvature="0"
     id="path139"
     d="m 236.28407,284.20732 91.29303,0" />
  <path
     style="fill-rule:evenodd;stroke:#000000;stroke-width:1.19299948;stroke-linecap:butt;stroke-linejoin:round"
     inkscape:connector-curvature="0"
     id="path141"
     d="m 240.62944,284.20732 82.60223,0" />
  <path
     style="fill:#000000;fill-rule:evenodd;stroke:#000000;stroke-width:1.19299948;stroke-linecap:butt"
     inkscape:connector-curvature="0"
     id="path143"
     d="m 240.62947,284.20732 1.42591,-1.26233 -3.9177,1.26233 3.9177,1.2623 z" />
  <path
     style="fill:#000000;fill-rule:evenodd;stroke:#000000;stroke-width:1.19299948;stroke-linecap:butt"
     inkscape:connector-curvature="0"
     id="path145"
     d="m 323.23169,284.20732 -1.4259,1.2623 3.91767,-1.2623 -3.91767,-1.26233 z" />
  <path
     style="fill-rule:evenodd;stroke:#000000;stroke-width:0.61585641;stroke-linecap:butt;stroke-linejoin:round"
     inkscape:connector-curvature="0"
     id="path149"
     d="m 117.10262,318.22327 43.75424,-55.87439" />
  <path
     style="fill:#000000;fill-rule:evenodd;stroke:#000000;stroke-width:1.19299948;stroke-linecap:butt"
     inkscape:connector-curvature="0"
     id="path151"
     d="m 162.54298,263.1452 0.24638,-5.41642 -4.1216,4.00901 z" />
  <path
     style="fill:#000000;fill-rule:nonzero"
     inkscape:connector-curvature="0"
     id="path155"
     d="m 32.48304,337.73975 -3.823695,-11.06689 2.179305,0 1.981185,6.38406 0.75285,2.38525 q 0.03956,-0.17539 0.63398,-2.28002 l 2.001006,-6.48929 2.1793,0 1.862314,6.41913 0.61416,2.12218 0.733048,-2.1397 2.139684,-6.4016 2.060433,0 -3.902943,11.06688 -2.199113,0 -2.001004,-6.6296 -0.47548,-1.87664 -2.535921,8.50624 -2.199109,0 z m 14.784953,-13.1189 0,-2.1397 2.119862,0 0,2.1397 -2.119862,0 z m 0,13.1189 0,-11.06689 2.119862,0 0,11.06689 -2.119862,0 z m 5.235646,0 0,-11.06689 1.90194,0 0,1.57849 q 1.386835,-1.82403 3.982185,-1.82403 1.12928,0 2.08025,0.36831 0.95096,0.35078 1.40664,0.9471 0.47548,0.57876 0.6736,1.368 0.11881,0.52616 0.11881,1.82402 l 0,6.80499 -2.11987,0 0,-6.73483 q 0,-1.14002 -0.25755,-1.70126 -0.23775,-0.57877 -0.87173,-0.91201 -0.63397,-0.33322 -1.48589,-0.33322 -1.3472,0 -2.3378,0.75415 -0.970773,0.75417 -0.970773,2.89388 l 0,6.0333 -2.119871,0 z m 21.259035,0 0,-1.4031 q -1.1887,1.64862 -3.48688,1.64862 -1.4859,0 -2.75385,-0.71909 -1.24815,-0.7366 -1.94157,-2.03447 -0.6736,-1.31539 -0.6736,-3.01663 0,-1.64864 0.61417,-2.9991 0.63399,-1.35049 1.86232,-2.06957 1.24814,-0.71909 2.79347,-0.71909 1.12927,0 2.001,0.42093 0.89152,0.42093 1.44625,1.10494 l 0,-5.47205 2.10006,0 0,15.2586 -1.96137,0 z m -6.6964,-5.52467 q 0,2.12216 1.0104,3.17448 1.03021,1.05233 2.39724,1.05233 1.38682,0 2.35761,-0.99971 0.97078,-0.99971 0.97078,-3.06926 0,-2.26249 -0.9906,-3.31479 -0.99058,-1.06987 -2.43685,-1.06987 -1.40664,0 -2.35761,1.01725 -0.95097,1.01724 -0.95097,3.20957 z m 10.95687,0 q 0,-3.06926 1.94155,-4.56005 1.60476,-1.22771 3.92275,-1.22771 2.57555,0 4.20011,1.50833 1.64439,1.49078 1.64439,4.12158 0,2.1397 -0.73304,3.36741 -0.71323,1.21016 -2.10006,1.89417 -1.36702,0.66646 -3.0114,0.66646 -2.61517,0 -4.23974,-1.49078 -1.62456,-1.49078 -1.62456,-4.27942 z m 2.1793,0 q 0,2.12216 1.05002,3.17448 1.05003,1.05233 2.63498,1.05233 1.58495,0 2.61517,-1.05233 1.05002,-1.06986 1.05002,-3.24464 0,-2.05201 -1.05002,-3.10433 -1.05004,-1.05233 -2.61517,-1.05233 -1.58495,0 -2.63498,1.05233 -1.05002,1.05232 -1.05002,3.17449 z m 14.08713,5.52467 -3.82368,-11.06689 2.17931,0 1.98118,6.38406 0.75285,2.38525 q 0.0396,-0.17539 0.63398,-2.28002 l 2.00099,-6.48929 2.179306,0 1.86231,6.41913 0.61417,2.12218 0.73304,-2.1397 2.13967,-6.4016 2.06044,0 -3.90293,11.06688 -2.19912,0 -2.000986,-6.6296 -0.47548,-1.87664 -2.53593,8.50624 -2.19912,0 z m 20.485456,-3.29728 2.10006,-0.29816 q 0.17832,1.12248 0.97078,1.71878 0.81228,0.5788 2.25855,0.5788 1.46609,0 2.15949,-0.52617 0.71323,-0.52616 0.71323,-1.2277 0,-0.63139 -0.61416,-0.99971 -0.43586,-0.24554 -2.1595,-0.63139 -2.3378,-0.52616 -3.24915,-0.89447 -0.89152,-0.38585 -1.36701,-1.05231 -0.45568,-0.68401 -0.45568,-1.49079 0,-0.73662 0.37644,-1.36801 0.39624,-0.6314 1.05002,-1.05232 0.49531,-0.3157 1.3472,-0.54369 0.85193,-0.22801 1.8227,-0.22801 1.48589,0 2.59536,0.38585 1.10946,0.36832 1.62457,1.01724 0.53491,0.63139 0.73303,1.70125 l -2.06044,0.24555 q -0.13867,-0.84186 -0.83209,-1.31541 -0.67361,-0.49108 -1.90194,-0.49108 -1.46607,0 -2.08023,0.43847 -0.61418,0.42092 -0.61418,0.98216 0,0.36831 0.25755,0.66647 0.25755,0.29815 0.81228,0.49108 0.317,0.10518 1.86233,0.49108 2.23874,0.52616 3.13027,0.8594 0.89154,0.33323 1.38683,0.98216 0.51511,0.64893 0.51511,1.61356 0,0.92955 -0.61416,1.7714 -0.61418,0.82431 -1.78308,1.28032 -1.1689,0.43846 -2.63497,0.43846 -2.43686,0 -3.72464,-0.89447 -1.26796,-0.89446 -1.62457,-2.64833 z m 12.69941,-9.82162 0,-2.1397 2.11986,0 0,2.1397 -2.11986,0 z m 0,13.1189 0,-11.06689 2.11986,0 0,11.06689 -2.11986,0 z m 4.12618,0 0,-1.52587 7.94456,-8.06777 q -1.34721,0.0527 -2.37742,0.0527 l -5.09166,0 0,-1.52587 10.20311,0 0,1.24525 -6.77565,7.01545 -1.28778,1.28032 q 1.40665,-0.0877 2.65479,-0.0877 l 5.78506,0 0,1.61355 -11.05501,0 z m 21.49587,-3.56036 2.1793,0.24554 q -0.51511,1.68372 -1.92175,2.63079 -1.38684,0.92955 -3.56614,0.92955 -2.73404,0 -4.33879,-1.49077 -1.60477,-1.49078 -1.60477,-4.19173 0,-2.78864 1.60477,-4.33204 1.62457,-1.54341 4.21991,-1.54341 2.51612,0 4.10107,1.50833 1.58495,1.50831 1.58495,4.26189 0,0.15784 -0.0198,0.49108 l -9.31157,0 q 0.11881,1.82402 1.1689,2.78864 1.05002,0.96463 2.61516,0.96463 1.14909,0 1.96137,-0.52617 0.8321,-0.5437 1.32741,-1.73633 z m -6.95397,-3.03418 6.97377,0 q -0.13867,-1.38555 -0.79248,-2.08708 -1.01039,-1.0874 -2.63496,-1.0874 -1.44628,0 -2.45667,0.87693 -0.9906,0.8594 -1.08966,2.29755 z" />
  <path
     style="fill:#000000;fill-opacity:0;fill-rule:nonzero"
     inkscape:connector-curvature="0"
     id="path157"
     d="m 108.97068,250.60101 225.71664,0" />
  <path
     style="fill-rule:evenodd;stroke:#000000;stroke-width:1.19299948;stroke-linecap:butt;stroke-linejoin:round"
     inkscape:connector-curvature="0"
     id="path159"
     d="m 113.31607,250.60101 217.02582,0" />
  <path
     style="fill:#000000;fill-rule:evenodd;stroke:#000000;stroke-width:1.19299948;stroke-linecap:butt"
     inkscape:connector-curvature="0"
     id="path161"
     d="m 113.31609,250.60101 1.42591,-1.26229 -3.91769,1.26229 3.91769,1.26233 z" />
  <path
     style="fill:#000000;fill-rule:evenodd;stroke:#000000;stroke-width:1.19299948;stroke-linecap:butt"
     inkscape:connector-curvature="0"
     id="path163"
     d="m 330.34189,250.60101 -1.4259,1.26233 3.91767,-1.26233 -3.91767,-1.26229 z" />
  <path
     style="fill:#000000;fill-opacity:0;fill-rule:nonzero"
     inkscape:connector-curvature="0"
     id="path165"
     d="m 298.64571,341.03611 -1.15813,-99.62596" />
  <path
     style="fill-rule:evenodd;stroke:#000000;stroke-width:0.68675512;stroke-linecap:butt;stroke-linejoin:round"
     inkscape:connector-curvature="0"
     id="path167"
     d="m 298.64218,322.89657 -1.07274,-30.98479" />
  <path
     style="fill:#000000;fill-rule:evenodd;stroke:#000000;stroke-width:1.19299948;stroke-linecap:butt"
     inkscape:connector-curvature="0"
     id="path169"
     d="m 299.66011,295.58763 -2.15345,-5.07452 -2.03502,5.11268 z" />
  <path
     style="fill:#000000;fill-rule:nonzero"
     inkscape:connector-curvature="0"
     id="path173"
     d="m 219.01311,337.73974 -3.82369,-11.06688 2.1793,0 1.98119,6.38405 0.75285,2.38525 q 0.0396,-0.17538 0.63397,-2.28002 l 2.00101,-6.48928 2.17931,0 1.86231,6.41914 0.61416,2.12218 0.73305,-2.13971 2.13967,-6.40161 2.06044,0 -3.90295,11.06688 -2.1991,0 -2.001,-6.6296 -0.47549,-1.87664 -2.53592,8.50624 -2.19911,0 z m 14.78498,-13.11889 0,-2.13971 2.11988,0 0,2.13971 -2.11988,0 z m 0,13.11889 0,-11.06688 2.11988,0 0,11.06688 -2.11988,0 z m 5.23564,0 0,-11.06688 1.90194,0 0,1.57848 q 1.38682,-1.82401 3.98218,-1.82401 1.12927,0 2.08024,0.36831 0.95097,0.35078 1.40665,0.94709 0.47548,0.57876 0.6736,1.36801 0.11881,0.52616 0.11881,1.82402 l 0,6.80498 -2.11987,0 0,-6.73483 q 0,-1.14001 -0.25755,-1.70125 -0.23774,-0.57877 -0.87173,-0.91201 -0.63397,-0.33323 -1.4859,-0.33323 -1.34719,0 -2.33779,0.75415 -0.97077,0.75418 -0.97077,2.89389 l 0,6.03328 -2.11988,0 z m 21.25904,0 0,-1.40309 q -1.1887,1.64863 -3.48688,1.64863 -1.4859,0 -2.75385,-0.71909 -1.24815,-0.73662 -1.94157,-2.03448 -0.6736,-1.31539 -0.6736,-3.01664 0,-1.64863 0.61417,-2.9991 0.63399,-1.35048 1.86232,-2.06955 1.24814,-0.71909 2.79347,-0.71909 1.12927,0 2.001,0.42092 0.89152,0.42093 1.44625,1.10494 l 0,-5.47205 2.10006,0 0,15.2586 -1.96137,0 z m -6.6964,-5.52467 q 0,2.12217 1.0104,3.1745 1.03021,1.05231 2.39724,1.05231 1.38683,0 2.35761,-0.99971 0.97078,-0.9997 0.97078,-3.06925 0,-2.26249 -0.99059,-3.3148 -0.99059,-1.06985 -2.43686,-1.06985 -1.40664,0 -2.35761,1.01724 -0.95097,1.01724 -0.95097,3.20956 z m 10.95685,0 q 0,-3.06926 1.94156,-4.56004 1.60476,-1.22771 3.92275,-1.22771 2.57554,0 4.20012,1.50833 1.64437,1.49077 1.64437,4.12158 0,2.1397 -0.73303,3.36741 -0.71323,1.21015 -2.10006,1.89418 -1.36702,0.66645 -3.0114,0.66645 -2.61517,0 -4.23973,-1.49077 -1.62458,-1.49078 -1.62458,-4.27943 z m 2.17931,0 q 0,2.12217 1.05002,3.1745 1.05004,1.05231 2.63498,1.05231 1.58495,0 2.61516,-1.05231 1.05003,-1.06987 1.05003,-3.24466 0,-2.05201 -1.05003,-3.10433 -1.05003,-1.05231 -2.61516,-1.05231 -1.58494,0 -2.63498,1.05231 -1.05002,1.05232 -1.05002,3.17449 z m 14.08714,5.52467 -3.82368,-11.06688 2.17931,0 1.98118,6.38405 0.75285,2.38525 q 0.0396,-0.17538 0.63399,-2.28002 l 2.00098,-6.48928 2.17931,0 1.86231,6.41914 0.61417,2.12218 0.73304,-2.13971 2.13968,-6.40161 2.06043,0 -3.90293,11.06688 -2.19912,0 -2.00099,-6.6296 -0.47548,-1.87664 -2.53592,8.50624 -2.19913,0 z m 20.48546,-3.29727 2.10006,-0.29816 q 0.17832,1.12248 0.97078,1.71878 0.81228,0.57878 2.25855,0.57878 1.46609,0 2.15949,-0.52616 0.71323,-0.52615 0.71323,-1.2277 0,-0.63139 -0.61416,-0.99971 -0.43586,-0.24553 -2.1595,-0.63139 -2.33779,-0.52615 -3.24915,-0.89446 -0.89152,-0.38585 -1.36701,-1.05232 -0.45568,-0.68401 -0.45568,-1.49079 0,-0.73662 0.37644,-1.36801 0.39624,-0.63139 1.05002,-1.05232 0.49531,-0.31569 1.3472,-0.54369 0.85193,-0.228 1.8227,-0.228 1.48589,0 2.59536,0.38585 1.10946,0.36831 1.62457,1.01724 0.53491,0.63139 0.73303,1.70124 l -2.06044,0.24555 q -0.13867,-0.84186 -0.83209,-1.3154 -0.67361,-0.49109 -1.90194,-0.49109 -1.46607,0 -2.08023,0.43847 -0.61418,0.42093 -0.61418,0.98217 0,0.36831 0.25755,0.66646 0.25755,0.29815 0.81229,0.49108 0.31699,0.10518 1.86232,0.49109 2.23874,0.52615 3.13027,0.85939 0.89154,0.33324 1.38683,0.98215 0.51511,0.64894 0.51511,1.61356 0,0.92955 -0.61416,1.7714 -0.61418,0.82431 -1.78308,1.28032 -1.1689,0.43847 -2.63497,0.43847 -2.43686,0 -3.72464,-0.89448 -1.26796,-0.89446 -1.62457,-2.64833 z m 12.63997,3.29727 0,-15.2586 2.11987,0 0,15.2586 -2.11987,0 z m 5.31488,-13.11889 0,-2.13971 2.11987,0 0,2.13971 -2.11987,0 z m 0,13.11889 0,-11.06688 2.11987,0 0,11.06688 -2.11987,0 z m 13.33871,0 0,-1.40309 q -1.1887,1.64863 -3.48688,1.64863 -1.48588,0 -2.75384,-0.71909 -1.24816,-0.73662 -1.94156,-2.03448 -0.67361,-1.31539 -0.67361,-3.01664 0,-1.64863 0.61416,-2.9991 0.63399,-1.35048 1.86232,-2.06955 1.24815,-0.71909 2.79348,-0.71909 1.12927,0 2.00099,0.42092 0.89154,0.42093 1.44627,1.10494 l 0,-5.47205 2.10006,0 0,15.2586 -1.96139,0 z m -6.6964,-5.52467 q 0,2.12217 1.01041,3.1745 1.03022,1.05231 2.39723,1.05231 1.38683,0 2.35762,-0.99971 0.97077,-0.9997 0.97077,-3.06925 0,-2.26249 -0.99059,-3.3148 -0.99059,-1.06985 -2.43685,-1.06985 -1.40665,0 -2.35762,1.01724 -0.95097,1.01724 -0.95097,3.20956 z m 20.30805,1.96432 2.1793,0.24554 q -0.51511,1.68371 -1.92175,2.6308 -1.38684,0.92955 -3.56614,0.92955 -2.73404,0 -4.33879,-1.49078 -1.60477,-1.49078 -1.60477,-4.19174 0,-2.78864 1.60477,-4.33204 1.62457,-1.54339 4.21992,-1.54339 2.51611,0 4.10106,1.50832 1.58495,1.50831 1.58495,4.26188 0,0.15785 -0.0198,0.49109 l -9.31157,0 q 0.11881,1.82401 1.1689,2.78864 1.05003,0.96462 2.61517,0.96462 1.14908,0 1.96136,-0.52616 0.83211,-0.5437 1.32741,-1.73633 z m -6.95397,-3.03418 6.97377,0 q -0.13868,-1.38555 -0.79247,-2.0871 -1.0104,-1.0874 -2.63497,-1.0874 -1.44627,0 -2.45667,0.87694 -0.9906,0.85939 -1.08966,2.29756 z" />
  <path
     style="fill-rule:nonzero;stroke:#ff0000;stroke-width:4.77199793;stroke-linecap:butt;stroke-linejoin:round"
     inkscape:connector-curvature="0"
     id="path177"
     d="m 106.44474,49.388745 234.82197,0 0,170.615675 -234.82197,0 z" />
  <path
     style="fill:#000000;fill-opacity:0;fill-rule:nonzero"
     inkscape:connector-curvature="0"
     id="path175"
     d="m 106.44474,49.388745 234.82197,0 0,170.615675 -234.82197,0 z" />
  <path
     style="fill:#000000;fill-opacity:0;fill-rule:nonzero"
     inkscape:connector-curvature="0"
     id="path179"
     d="m 220.30478,53.033095 240.93214,0 0,163.332895 -240.93214,0 z" />
  <path
     style="fill-rule:nonzero;stroke:#4a86e8;stroke-width:4.90868521;stroke-linecap:butt;stroke-linejoin:round"
     inkscape:connector-curvature="0"
     id="path181"
     d="m 220.37752,61.789735 240.78666,0 0,172.928195 -240.78666,0 z" />
  <path
     style="fill-rule:nonzero;stroke:#00ff00;stroke-width:4.77199793;stroke-linecap:butt;stroke-linejoin:round"
     inkscape:connector-curvature="0"
     id="path185"
     d="m 345.36317,49.385805 234.82199,0 0,170.615675 -234.82199,0 z" />
  <path
     style="fill:#000000;fill-opacity:0;fill-rule:nonzero"
     inkscape:connector-curvature="0"
     id="path183"
     d="m 344.36174,49.385805 234.822,0 0,170.615675 -234.822,0 z" />
  <path
     style="fill:#000000;fill-opacity:0;fill-rule:nonzero"
     inkscape:connector-curvature="0"
     id="path187"
     d="m 465.18389,53.033095 228.67185,0 0,163.332895 -228.67185,0 z" />
  <path
     style="fill-rule:nonzero;stroke:#ff00ff;stroke-width:4.90860748;stroke-linecap:butt;stroke-linejoin:round"
     inkscape:connector-curvature="0"
     id="path189"
     d="m 465.25659,61.789695 228.52644,0 0,172.928275 -228.52644,0 z" />
  <path
     d="m 69.034964,312.26431 645.401046,0"
     id="path4239"
     inkscape:connector-curvature="0"
     style="fill:#000000;fill-opacity:0;fill-rule:nonzero" />
  <path
     d="m 69.034964,312.26431 637.793286,0"
     id="path4241"
     inkscape:connector-curvature="0"
     style="fill-rule:evenodd;stroke:#000000;stroke-width:1.19299948;stroke-linecap:butt;stroke-linejoin:round" />
  <path
     d="m 706.82826,314.11832 5.75411,-1.85401 -5.75411,-1.85404 z"
     id="path4243"
     inkscape:connector-curvature="0"
     style="fill:#000000;fill-rule:evenodd;stroke:#000000;stroke-width:1.19299948;stroke-linecap:butt" />
  <path
     d="m 69.034964,312.46623 0,-301.23268"
     id="path4245"
     inkscape:connector-curvature="0"
     style="fill-rule:evenodd;stroke:#000000;stroke-width:0.99090773;stroke-linecap:butt;stroke-linejoin:round" />
  <path
     d="m 71.129304,11.23355 -2.09433,-5.093882 -2.09433,5.093882 z"
     id="path4247"
     inkscape:connector-curvature="0"
     style="fill:#000000;fill-rule:evenodd;stroke:#000000;stroke-width:1.19299948;stroke-linecap:butt" />
  <path
     d="m 628.84376,303.28454 76.07753,0 0,48.25744 -76.07753,0 z"
     id="path4249"
     inkscape:connector-curvature="0"
     style="fill:#000000;fill-opacity:0;fill-rule:nonzero" />
  <path
     d="m 646.47631,331.81774 0.29718,1.66616 q -0.89153,0.15785 -1.60476,0.15785 -1.14909,0 -1.78306,-0.3157 -0.63399,-0.33324 -0.89154,-0.84186 -0.25755,-0.52614 -0.25755,-2.22741 l 0,-6.34897 -1.56514,0 0,-1.47324 1.56514,0 0,-2.73603 2.10006,-1.12247 0,3.8585 2.13967,0 0,1.47324 -2.13967,0 0,6.4542 q 0,0.80678 0.099,1.03479 0.11881,0.228 0.37644,0.3683 0.25755,0.14032 0.73303,0.14032 0.3368,0 0.93116,-0.0877 z m 1.95603,-11.43518 0,-2.13972 2.11988,0 0,2.13972 -2.11988,0 z m 0,13.11888 0,-11.06687 2.11988,0 0,11.06687 -2.11988,0 z m 5.23567,0 0,-11.06687 1.90194,0 0,1.56094 q 0.57455,-0.80678 1.54532,-1.29786 0.9906,-0.50862 2.23875,-0.50862 1.38683,0 2.27836,0.50862 0.89154,0.50861 1.24815,1.43816 1.48589,-1.94679 3.86331,-1.94679 1.86231,0 2.85291,0.91201 1.01041,0.91201 1.01041,2.80618 l 0,7.59422 -2.11987,0 0,-6.96283 q 0,-1.12247 -0.19812,-1.61355 -0.19812,-0.50862 -0.75285,-0.80678 -0.53492,-0.29815 -1.26797,-0.29815 -1.30758,0 -2.1793,0.7717 -0.87172,0.77169 -0.87172,2.49048 l 0,6.41913 -2.11986,0 0,-7.19083 q 0,-1.24525 -0.51512,-1.85909 -0.5151,-0.63139 -1.70382,-0.63139 -0.89154,0 -1.66419,0.42092 -0.75285,0.40338 -1.08966,1.21016 -0.33679,0.80678 -0.33679,2.3151 l 0,5.73513 -2.11988,0 z m 28.26379,-3.56034 2.17931,0.24554 q -0.51511,1.68371 -1.92176,2.63079 -1.38682,0.92955 -3.56613,0.92955 -2.73404,0 -4.33879,-1.49078 -1.60477,-1.49078 -1.60477,-4.19172 0,-2.78866 1.60477,-4.33205 1.62457,-1.5434 4.21992,-1.5434 2.51611,0 4.10106,1.50832 1.58494,1.50833 1.58494,4.26189 0,0.15784 -0.0198,0.49108 l -9.31157,0 q 0.11881,1.82402 1.1689,2.78864 1.05003,0.96462 2.61518,0.96462 1.14908,0 1.96136,-0.52615 0.8321,-0.5437 1.3274,-1.73633 z m -6.95396,-3.03418 6.97376,0 q -0.13867,-1.38556 -0.79246,-2.08711 -1.0104,-1.08739 -2.63498,-1.08739 -1.44627,0 -2.45667,0.87693 -0.99059,0.8594 -1.08965,2.29756 z"
     id="path4251"
     inkscape:connector-curvature="0"
     style="fill:#000000;fill-rule:nonzero" />
  <path
     d="m 8.221921,82.973095 0,-1.6311 q -1.446265,1.87664 -3.962372,1.87664 -1.089652,0 -2.060433,-0.36832 Q 1.248148,82.464465 0.772663,81.903235 0.31699,81.341995 0.118872,80.517685 0,79.956455 0,78.763825 l 0,-6.8576 2.119869,0 0,6.13851 q 0,1.47325 0.118871,1.98187 0.198119,0.73663 0.85191,1.15755 0.653791,0.42093 1.60476,0.42093 0.95097,0 1.783067,-0.42093 0.832098,-0.43847 1.1689,-1.17509 0.356613,-0.75415 0.356613,-2.17479 l 0,-5.92805 2.119869,0 0,11.06687 -1.901938,0 z m 4.121775,-3.29726 2.100057,-0.29816 q 0.178306,1.12247 0.970781,1.71878 0.812286,0.57879 2.258552,0.57879 1.466077,0 2.159492,-0.52617 0.713227,-0.52616 0.713227,-1.2277 0,-0.63139 -0.614169,-0.9997 -0.43586,-0.24555 -2.159492,-0.6314 -2.337798,-0.52615 -3.249144,-0.89446 -0.891533,-0.38585 -1.367018,-1.05232 -0.455673,-0.68401 -0.455673,-1.49078 0,-0.73663 0.376425,-1.36802 0.396237,-0.63139 1.050029,-1.05231 0.495296,-0.3157 1.347206,-0.5437 0.85191,-0.228 1.822691,-0.228 1.48589,0 2.595354,0.38585 1.109463,0.36831 1.624571,1.01724 0.534921,0.63139 0.733039,1.70125 l -2.060433,0.24554 q -0.138683,-0.84186 -0.832098,-1.3154 -0.673603,-0.49108 -1.901938,-0.49108 -1.466078,0 -2.080245,0.43847 -0.614167,0.42092 -0.614167,0.98216 0,0.3683 0.257553,0.66647 0.257554,0.29815 0.812287,0.49108 0.316989,0.10517 1.862314,0.49108 2.238739,0.52616 3.130273,0.85939 0.891534,0.33324 1.38683,0.98216 0.515109,0.64893 0.515109,1.61355 0,0.92956 -0.614168,1.77141 -0.614168,0.82431 -1.783067,1.28031 -1.168899,0.43847 -2.634977,0.43847 -2.436859,0 -3.724629,-0.89447 -1.267959,-0.89447 -1.624572,-2.64833 z m 21.23831,-0.26309 2.179304,0.24555 q -0.515109,1.6837 -1.92175,2.63079 -1.38683,0.92955 -3.566134,0.92955 -2.734037,0 -4.338797,-1.49079 -1.60476,-1.49078 -1.60476,-4.19172 0,-2.78865 1.60476,-4.33204 1.624572,-1.5434 4.219925,-1.5434 2.516106,0 4.101055,1.50832 1.584953,1.50832 1.584953,4.26189 0,0.15784 -0.01979,0.49108 l -9.311576,0 q 0.118872,1.82402 1.1689,2.78863 1.050028,0.96464 2.615164,0.96464 1.149088,0 1.961374,-0.52617 0.832099,-0.5437 1.327394,-1.73633 z m -6.953962,-3.03417 6.973774,0 q -0.138684,-1.38556 -0.792475,-2.0871 -1.010404,-1.08739 -2.634977,-1.08739 -1.446265,0 -2.45667,0.87693 -0.990592,0.85939 -1.089652,2.29756 z m 11.531414,6.59452 0,-11.06687 1.90193,0 0,1.68371 q 0.733047,-1.17509 1.347207,-1.5434 0.614171,-0.38585 1.367021,-0.38585 1.069837,0 2.1793,0.61385 l -0.733037,1.73632 q -0.772664,-0.40338 -1.56513,-0.40338 -0.693422,0 -1.248154,0.3683 -0.534918,0.36832 -0.772663,1.01724 -0.356612,0.99971 -0.356612,2.19234 l 0,5.78774 -2.119862,0 z m 21.859266,0 -2.11987,0 0,-11.9438 q -0.75285,0.64893 -2.001,1.29785 -1.248149,0.6314 -2.238735,0.96463 l 0,-1.82401 q 1.783065,-0.73662 3.110455,-1.78894 1.3274,-1.05232 1.88213,-2.03448 l 1.36702,0 0,15.32875 z"
     id="path4253"
     inkscape:connector-curvature="0"
     style="fill:#000000;fill-rule:nonzero" />
  <path
     d="m 8.221921,137.97421 0,-1.6311 q -1.446265,1.87663 -3.962372,1.87663 -1.089652,0 -2.060433,-0.36831 Q 1.248148,137.46558 0.772663,136.90435 0.31699,136.34311 0.118872,135.5188 0,134.95756 0,133.76494 l 0,-6.85761 2.119869,0 0,6.13852 q 0,1.47324 0.118871,1.98187 0.198119,0.73662 0.85191,1.15754 0.653791,0.42093 1.60476,0.42093 0.95097,0 1.783067,-0.42093 0.832098,-0.43847 1.1689,-1.17509 0.356613,-0.75415 0.356613,-2.17478 l 0,-5.92806 2.119869,0 0,11.06688 -1.901938,0 z m 4.121775,-3.29726 2.100057,-0.29816 q 0.178306,1.12247 0.970781,1.71878 0.812286,0.57878 2.258552,0.57878 1.466077,0 2.159492,-0.52616 0.713227,-0.52616 0.713227,-1.2277 0,-0.63139 -0.614169,-0.99971 -0.43586,-0.24554 -2.159492,-0.63139 -2.337798,-0.52616 -3.249144,-0.89447 -0.891533,-0.38585 -1.367018,-1.05231 -0.455673,-0.68402 -0.455673,-1.49079 0,-0.73662 0.376425,-1.36801 0.396237,-0.63139 1.050029,-1.05231 0.495296,-0.3157 1.347206,-0.5437 0.85191,-0.22801 1.822691,-0.22801 1.48589,0 2.595354,0.38585 1.109463,0.36831 1.624571,1.01723 0.534921,0.63139 0.733039,1.70125 l -2.060433,0.24555 q -0.138683,-0.84186 -0.832098,-1.31541 -0.673603,-0.49108 -1.901938,-0.49108 -1.466078,0 -2.080245,0.43847 -0.614167,0.42093 -0.614167,0.98216 0,0.36831 0.257553,0.66648 0.257554,0.29815 0.812287,0.49107 0.316989,0.10518 1.862314,0.49108 2.238739,0.52616 3.130273,0.85939 0.891534,0.33324 1.38683,0.98216 0.515109,0.64894 0.515109,1.61355 0,0.92956 -0.614168,1.77141 -0.614168,0.82432 -1.783067,1.28031 -1.168899,0.43847 -2.634977,0.43847 -2.436859,0 -3.724629,-0.89446 -1.267959,-0.89447 -1.624572,-2.64833 z m 21.23831,-0.26309 2.179304,0.24554 q -0.515109,1.68371 -1.92175,2.63079 -1.38683,0.92955 -3.566134,0.92955 -2.734037,0 -4.338797,-1.49078 -1.60476,-1.49078 -1.60476,-4.19172 0,-2.78865 1.60476,-4.33205 1.624572,-1.5434 4.219925,-1.5434 2.516106,0 4.101055,1.50833 1.584953,1.50832 1.584953,4.26189 0,0.15783 -0.01979,0.49107 l -9.311576,0 q 0.118872,1.82402 1.1689,2.78864 1.050028,0.96463 2.615164,0.96463 1.149088,0 1.961374,-0.52616 0.832099,-0.5437 1.327394,-1.73634 z m -6.953962,-3.03418 6.973774,0 q -0.138684,-1.38555 -0.792475,-2.08709 -1.010404,-1.0874 -2.634977,-1.0874 -1.446265,0 -2.45667,0.87693 -0.990592,0.8594 -1.089652,2.29756 z m 11.531414,6.59453 0,-11.06688 1.90193,0 0,1.68371 q 0.733047,-1.17509 1.347207,-1.5434 0.614171,-0.38585 1.367021,-0.38585 1.069837,0 2.1793,0.61386 l -0.733037,1.73632 q -0.772664,-0.40339 -1.56513,-0.40339 -0.693422,0 -1.248154,0.36831 -0.534918,0.36831 -0.772663,1.01724 -0.356612,0.9997 -0.356612,2.19233 l 0,5.78774 -2.119862,0 z m 25.009346,-1.80649 0,1.80649 -11.391812,0 q -0.01979,-0.68402 0.237735,-1.29786 0.435864,-1.03479 1.386834,-2.03448 0.970783,-0.99971 2.773653,-2.3151 2.81329,-2.03447 3.80388,-3.2271 0.9906,-1.19263 0.9906,-2.26249 0,-1.10493 -0.91134,-1.87664 -0.89155,-0.77169 -2.33781,-0.77169 -1.52551,0 -2.45667,0.8243 -0.911343,0.80678 -0.911343,2.24495 l -2.1793,-0.19292 q 0.217932,-2.15726 1.684007,-3.27973 1.466076,-1.14 3.922746,-1.14 2.47648,0 3.92275,1.2277 1.44627,1.21017 1.44627,3.01664 0,0.91202 -0.43586,1.80647 -0.41606,0.87694 -1.40665,1.85909 -0.97078,0.96464 -3.24915,2.68342 -1.90194,1.42063 -2.45667,1.92924 -0.53492,0.49109 -0.891531,0.9997 l 8.459661,0 z"
     id="path4255"
     inkscape:connector-curvature="0"
     style="fill:#000000;fill-rule:nonzero" />
  <path
     d="m 8.221921,201.95506 0,-1.6311 q -1.446265,1.87664 -3.962372,1.87664 -1.089652,0 -2.060433,-0.36831 Q 1.248148,201.44643 0.772663,200.8852 0.31699,200.32396 0.118872,199.49966 0,198.93841 0,197.7458 l 0,-6.85761 2.119869,0 0,6.13852 q 0,1.47324 0.118871,1.98186 0.198119,0.73662 0.85191,1.15755 0.653791,0.42093 1.60476,0.42093 0.95097,0 1.783067,-0.42093 0.832098,-0.43847 1.1689,-1.17509 0.356613,-0.75415 0.356613,-2.17479 l 0,-5.92805 2.119869,0 0,11.06687 -1.901938,0 z m 4.121775,-3.29726 2.100057,-0.29816 q 0.178306,1.12247 0.970781,1.71879 0.812286,0.57877 2.258552,0.57877 1.466077,0 2.159492,-0.52616 0.713227,-0.52615 0.713227,-1.2277 0,-0.63139 -0.614169,-0.99971 -0.43586,-0.24554 -2.159492,-0.63139 -2.337798,-0.52615 -3.249144,-0.89446 -0.891533,-0.38585 -1.367018,-1.05232 -0.455673,-0.68401 -0.455673,-1.49079 0,-0.73662 0.376425,-1.36801 0.396237,-0.63139 1.050029,-1.05231 0.495296,-0.31569 1.347206,-0.5437 0.85191,-0.22798 1.822691,-0.22798 1.48589,0 2.595354,0.38583 1.109463,0.36831 1.624571,1.01724 0.534921,0.63139 0.733039,1.70125 l -2.060433,0.24554 q -0.138683,-0.84185 -0.832098,-1.3154 -0.673603,-0.49109 -1.901938,-0.49109 -1.466078,0 -2.080245,0.43847 -0.614167,0.42094 -0.614167,0.98217 0,0.36831 0.257553,0.66647 0.257554,0.29815 0.812287,0.49108 0.316989,0.10517 1.862314,0.49108 2.238739,0.52615 3.130273,0.85939 0.891534,0.33324 1.38683,0.98215 0.515109,0.64895 0.515109,1.61356 0,0.92955 -0.614168,1.77141 -0.614168,0.82431 -1.783067,1.28031 -1.168899,0.43847 -2.634977,0.43847 -2.436859,0 -3.724629,-0.89447 -1.267959,-0.89447 -1.624572,-2.64833 z m 21.23831,-0.26309 2.179304,0.24555 q -0.515109,1.6837 -1.92175,2.63079 -1.38683,0.92955 -3.566134,0.92955 -2.734037,0 -4.338797,-1.49079 -1.60476,-1.49078 -1.60476,-4.19172 0,-2.78865 1.60476,-4.33205 1.624572,-1.54337 4.219925,-1.54337 2.516106,0 4.101055,1.5083 1.584953,1.50832 1.584953,4.26189 0,0.15784 -0.01979,0.49108 l -9.311576,0 q 0.118872,1.82401 1.1689,2.78863 1.050028,0.96463 2.615164,0.96463 1.149088,0 1.961374,-0.52616 0.832099,-0.5437 1.327394,-1.73633 z m -6.953962,-3.03417 6.973774,0 q -0.138684,-1.38555 -0.792475,-2.0871 -1.010404,-1.0874 -2.634977,-1.0874 -1.446265,0 -2.45667,0.87694 -0.990592,0.85939 -1.089652,2.29756 z m 11.531414,6.59452 0,-11.06687 1.90193,0 0,1.6837 q 0.733047,-1.17508 1.347207,-1.54339 0.614171,-0.38583 1.367021,-0.38583 1.069837,0 2.1793,0.61383 l -0.733037,1.73632 q -0.772664,-0.40338 -1.56513,-0.40338 -0.693422,0 -1.248154,0.36831 -0.534918,0.36831 -0.772663,1.01724 -0.356612,0.9997 -0.356612,2.19232 l 0,5.78775 -2.119862,0 z m 13.894895,-4.03388 2.119872,-0.24554 q 0.356612,1.59601 1.228329,2.29756 0.89154,0.70154 2.13969,0.70154 1.5057,0 2.53591,-0.91201 1.03022,-0.92955 1.03022,-2.28002 0,-1.28031 -0.97078,-2.12217 -0.95097,-0.84185 -2.41705,-0.84185 -0.59436,0 -1.48589,0.21046 l 0.23775,-1.64863 q 0.19812,0.0176 0.3368,0.0176 1.34721,0 2.41704,-0.61385 1.08965,-0.63139 1.08965,-1.92923 0,-1.03478 -0.79247,-1.70125 -0.77266,-0.68401 -2.02081,-0.68401 -1.22833,0 -2.06043,0.68401 -0.812292,0.68401 -1.050027,2.06954 l -2.119872,-0.33319 q 0.376425,-1.89417 1.743446,-2.92895 1.386823,-1.03477 3.447253,-1.03477 1.40665,0 2.59537,0.54369 1.18871,0.52615 1.80287,1.45571 0.63398,0.92954 0.63398,1.96432 0,0.99968 -0.59435,1.80646 -0.59436,0.80677 -1.78308,1.29785 1.54533,0.29816 2.37743,1.29786 0.85192,0.98216 0.85192,2.4554 0,1.99941 -1.64439,3.38496 -1.64438,1.38555 -4.16049,1.38555 -2.27837,0 -3.784071,-1.19263 -1.485888,-1.19262 -1.70382,-3.10433 z"
     id="path4257"
     inkscape:connector-curvature="0"
     style="fill:#000000;fill-rule:nonzero" />
  <path
     d="m 108.98067,76.884875 0,0 c 0,-5.88684 5.39076,-10.65905 12.0406,-10.65905 l 0,0 c 3.19337,0 6.25595,1.12299 8.51402,3.12195 2.25804,1.99897 3.52661,4.71015 3.52661,7.5371 l 0,0 c 0,5.88685 -5.39076,10.65906 -12.04063,10.65906 l 0,0 c -6.64984,0 -12.0406,-4.77221 -12.0406,-10.65906 z"
     id="path4259"
     inkscape:connector-curvature="0"
     style="fill:#9900ff;fill-rule:nonzero" />
  <path
     d="m 142.57658,76.884875 0,0 c 0,-5.88684 5.39076,-10.65905 12.04061,-10.65905 l 0,0 c 3.19337,0 6.25594,1.12299 8.51401,3.12195 2.25805,1.99897 3.52661,4.71015 3.52661,7.5371 l 0,0 c 0,5.88685 -5.39076,10.65906 -12.04062,10.65906 l 0,0 c -6.64985,0 -12.04061,-4.77221 -12.04061,-10.65906 z"
     id="path4261"
     inkscape:connector-curvature="0"
     style="fill:#9900ff;fill-rule:nonzero" />
  <path
     d="m 252.26001,76.884875 0,0 c 0,-5.88684 5.39076,-10.65905 12.04061,-10.65905 l 0,0 c 3.19339,0 6.25594,1.12299 8.51398,3.12195 2.25806,1.99897 3.52664,4.71015 3.52664,7.5371 l 0,0 c 0,5.88685 -5.39076,10.65906 -12.04062,10.65906 l 0,0 c -6.64985,0 -12.04061,-4.77221 -12.04061,-10.65906 z"
     id="path4263"
     inkscape:connector-curvature="0"
     style="fill:#9900ff;fill-rule:nonzero" />
  <path
     d="m 294.10264,76.884875 0,0 c 0,-5.88684 5.39077,-10.65905 12.04062,-10.65905 l 0,0 c 3.19339,0 6.25594,1.12299 8.51399,3.12195 2.25805,1.99897 3.52664,4.71015 3.52664,7.5371 l 0,0 c 0,5.88685 -5.39078,10.65906 -12.04063,10.65906 l 0,0 c -6.64985,0 -12.04062,-4.77221 -12.04062,-10.65906 z"
     id="path4265"
     inkscape:connector-curvature="0"
     style="fill:#9900ff;fill-rule:nonzero" />
  <path
     d="m 325.80161,76.884875 0,0 c 0,-5.88684 5.39077,-10.65905 12.04062,-10.65905 l 0,0 c 3.19339,0 6.25594,1.12299 8.51399,3.12195 2.25806,1.99897 3.52663,4.71015 3.52663,7.5371 l 0,0 c 0,5.88685 -5.39076,10.65906 -12.04062,10.65906 l 0,0 c -6.64985,0 -12.04062,-4.77221 -12.04062,-10.65906 z"
     id="path4267"
     inkscape:connector-curvature="0"
     style="fill:#9900ff;fill-rule:nonzero" />
  <path
     d="m 357.50059,76.884875 0,0 c 0,-5.88684 5.39076,-10.65905 12.0406,-10.65905 l 0,0 c 3.1934,0 6.25595,1.12299 8.51399,3.12195 2.25806,1.99897 3.52664,4.71015 3.52664,7.5371 l 0,0 c 0,5.88685 -5.39076,10.65906 -12.04063,10.65906 l 0,0 c -6.64984,0 -12.0406,-4.77221 -12.0406,-10.65906 z"
     id="path4269"
     inkscape:connector-curvature="0"
     style="fill:#9900ff;fill-rule:nonzero" />
  <path
     d="m 445.62872,76.884875 0,0 c 0,-5.88684 5.39076,-10.65905 12.04061,-10.65905 l 0,0 c 3.19339,0 6.25594,1.12299 8.51398,3.12195 2.25806,1.99897 3.52664,4.71015 3.52664,7.5371 l 0,0 c 0,5.88685 -5.39076,10.65906 -12.04062,10.65906 l 0,0 c -6.64985,0 -12.04061,-4.77221 -12.04061,-10.65906 z"
     id="path4271"
     inkscape:connector-curvature="0"
     style="fill:#9900ff;fill-rule:nonzero" />
  <path
     d="m 479.22463,76.884875 0,0 c 0,-5.88684 5.39076,-10.65905 12.04061,-10.65905 l 0,0 c 3.19339,0 6.25595,1.12299 8.51399,3.12195 2.25806,1.99897 3.52663,4.71015 3.52663,7.5371 l 0,0 c 0,5.88685 -5.39076,10.65906 -12.04062,10.65906 l 0,0 c -6.64985,0 -12.04061,-4.77221 -12.04061,-10.65906 z"
     id="path4273"
     inkscape:connector-curvature="0"
     style="fill:#9900ff;fill-rule:nonzero" />
  <path
     d="m 509.02665,76.884875 0,0 c 0,-5.88684 5.39077,-10.65905 12.04062,-10.65905 l 0,0 c 3.19339,0 6.25594,1.12299 8.51399,3.12195 2.25806,1.99897 3.52663,4.71015 3.52663,7.5371 l 0,0 c 0,5.88685 -5.39076,10.65906 -12.04062,10.65906 l 0,0 c -6.64985,0 -12.04062,-4.77221 -12.04062,-10.65906 z"
     id="path4275"
     inkscape:connector-curvature="0"
     style="fill:#9900ff;fill-rule:nonzero" />
  <path
     d="m 548.96237,76.884875 0,0 c 0,-5.88684 5.39076,-10.65905 12.04056,-10.65905 l 0,0 c 3.19343,0 6.25598,1.12299 8.51408,3.12195 2.25801,1.99897 3.52659,4.71015 3.52659,7.5371 l 0,0 c 0,5.88685 -5.39076,10.65906 -12.04067,10.65906 l 0,0 c -6.6498,0 -12.04056,-4.77221 -12.04056,-10.65906 z"
     id="path4277"
     inkscape:connector-curvature="0"
     style="fill:#9900ff;fill-rule:nonzero" />
  <path
     d="m 649.14112,76.884875 0,0 c 0,-5.88684 5.39077,-10.65905 12.04065,-10.65905 l 0,0 c 3.19335,0 6.2559,1.12299 8.514,3.12195 2.25801,1.99897 3.52659,4.71015 3.52659,7.5371 l 0,0 c 0,5.88685 -5.39076,10.65906 -12.04059,10.65906 l 0,0 c -6.64988,0 -12.04065,-4.77221 -12.04065,-10.65906 z"
     id="path4279"
     inkscape:connector-curvature="0"
     style="fill:#9900ff;fill-rule:nonzero" />
  <path
     d="m 360.00655,131.88599 0,0 c 0,-5.88685 5.39077,-10.65906 12.04061,-10.65906 l 0,0 c 3.1934,0 6.25595,1.123 8.51399,3.12195 2.25806,1.99898 3.52664,4.71015 3.52664,7.53711 l 0,0 c 0,5.88684 -5.39076,10.65905 -12.04063,10.65905 l 0,0 c -6.64984,0 -12.04061,-4.77221 -12.04061,-10.65905 z"
     id="path4281"
     inkscape:connector-curvature="0"
     style="fill:#9900ff;fill-rule:nonzero" />
  <path
     d="m 393.60247,131.88599 0,0 c 0,-5.88685 5.39076,-10.65906 12.0406,-10.65906 l 0,0 c 3.1934,0 6.25596,1.123 8.514,3.12195 2.25805,1.99898 3.52663,4.71015 3.52663,7.53711 l 0,0 c 0,5.88684 -5.39076,10.65905 -12.04063,10.65905 l 0,0 c -6.64984,0 -12.0406,-4.77221 -12.0406,-10.65905 z"
     id="path4283"
     inkscape:connector-curvature="0"
     style="fill:#9900ff;fill-rule:nonzero" />
  <path
     d="m 149.55535,131.88599 0,0 c 0,-5.88685 5.39076,-10.65906 12.0406,-10.65906 l 0,0 c 3.19338,0 6.25595,1.123 8.51402,3.12195 2.25804,1.99898 3.52661,4.71015 3.52661,7.53711 l 0,0 c 0,5.88684 -5.39076,10.65905 -12.04063,10.65905 l 0,0 c -6.64984,0 -12.0406,-4.77221 -12.0406,-10.65905 z"
     id="path4285"
     inkscape:connector-curvature="0"
     style="fill:#9900ff;fill-rule:nonzero" />
  <path
     d="m 191.39798,131.88599 0,0 c 0,-5.88685 5.39077,-10.65906 12.04062,-10.65906 l 0,0 c 3.19336,0 6.25594,1.123 8.51398,3.12195 2.25806,1.99898 3.52664,4.71015 3.52664,7.53711 l 0,0 c 0,5.88684 -5.39076,10.65905 -12.04062,10.65905 l 0,0 c -6.64985,0 -12.04062,-4.77221 -12.04062,-10.65905 z"
     id="path4287"
     inkscape:connector-curvature="0"
     style="fill:#9900ff;fill-rule:nonzero" />
  <path
     d="m 223.09695,131.88599 0,0 c 0,-5.88685 5.39077,-10.65906 12.04062,-10.65906 l 0,0 c 3.19339,0 6.25594,1.123 8.51399,3.12195 2.25805,1.99898 3.52663,4.71015 3.52663,7.53711 l 0,0 c 0,5.88684 -5.39077,10.65905 -12.04062,10.65905 l 0,0 c -6.64985,0 -12.04062,-4.77221 -12.04062,-10.65905 z"
     id="path4289"
     inkscape:connector-curvature="0"
     style="fill:#9900ff;fill-rule:nonzero" />
  <path
     d="m 254.79593,131.88599 0,0 c 0,-5.88685 5.39076,-10.65906 12.0406,-10.65906 l 0,0 c 3.1934,0 6.25595,1.123 8.514,3.12195 2.25806,1.99898 3.52663,4.71015 3.52663,7.53711 l 0,0 c 0,5.88684 -5.39076,10.65905 -12.04063,10.65905 l 0,0 c -6.64984,0 -12.0406,-4.77221 -12.0406,-10.65905 z"
     id="path4291"
     inkscape:connector-curvature="0"
     style="fill:#9900ff;fill-rule:nonzero" />
  <path
     d="m 605.36155,131.88599 0,0 c 0,-5.88685 5.39084,-10.65906 12.04065,-10.65906 l 0,0 c 3.19335,0 6.25598,1.123 8.514,3.12195 2.25808,1.99898 3.52659,4.71015 3.52659,7.53711 l 0,0 c 0,5.88684 -5.39077,10.65905 -12.04059,10.65905 l 0,0 c -6.64981,0 -12.04065,-4.77221 -12.04065,-10.65905 z"
     id="path4293"
     inkscape:connector-curvature="0"
     style="fill:#9900ff;fill-rule:nonzero" />
  <path
     d="m 638.95751,131.88599 0,0 c 0,-5.88685 5.39077,-10.65906 12.04057,-10.65906 l 0,0 c 3.19343,0 6.25598,1.123 8.51408,3.12195 2.25801,1.99898 3.52659,4.71015 3.52659,7.53711 l 0,0 c 0,5.88684 -5.39076,10.65905 -12.04067,10.65905 l 0,0 c -6.6498,0 -12.04057,-4.77221 -12.04057,-10.65905 z"
     id="path4295"
     inkscape:connector-curvature="0"
     style="fill:#9900ff;fill-rule:nonzero" />
  <path
     d="m 668.75949,131.88599 0,0 c 0,-5.88685 5.39084,-10.65906 12.04064,-10.65906 l 0,0 c 3.19336,0 6.25599,1.123 8.514,3.12195 2.25809,1.99898 3.52659,4.71015 3.52659,7.53711 l 0,0 c 0,5.88684 -5.39076,10.65905 -12.04059,10.65905 l 0,0 c -6.6498,0 -12.04064,-4.77221 -12.04064,-10.65905 z"
     id="path4297"
     inkscape:connector-curvature="0"
     style="fill:#9900ff;fill-rule:nonzero" />
  <path
     d="m 489.3683,131.88599 0,0 c 0,-5.88685 5.39076,-10.65906 12.04061,-10.65906 l 0,0 c 3.19339,0 6.25595,1.123 8.51399,3.12195 2.25806,1.99898 3.52663,4.71015 3.52663,7.53711 l 0,0 c 0,5.88684 -5.39076,10.65905 -12.04062,10.65905 l 0,0 c -6.64985,0 -12.04061,-4.77221 -12.04061,-10.65905 z"
     id="path4299"
     inkscape:connector-curvature="0"
     style="fill:#9900ff;fill-rule:nonzero" />
  <path
     d="m 503.30586,195.86687 0,0 c 0,-5.88685 5.39077,-10.65906 12.04062,-10.65906 l 0,0 c 3.19339,0 6.25594,1.123 8.51398,3.12195 2.25806,1.99897 3.52665,4.71014 3.52665,7.53711 l 0,0 c 0,5.88684 -5.39077,10.65905 -12.04063,10.65905 l 0,0 c -6.64985,0 -12.04062,-4.77221 -12.04062,-10.65905 z"
     id="path4301"
     inkscape:connector-curvature="0"
     style="fill:#9900ff;fill-rule:nonzero" />
  <path
     d="m 536.90174,195.86687 0,0 c 0,-5.88685 5.39084,-10.65906 12.04065,-10.65906 l 0,0 c 3.19336,0 6.25599,1.123 8.51401,3.12195 2.25807,1.99897 3.52657,4.71014 3.52657,7.53711 l 0,0 c 0,5.88684 -5.39076,10.65905 -12.04058,10.65905 l 0,0 c -6.64981,0 -12.04065,-4.77221 -12.04065,-10.65905 z"
     id="path4303"
     inkscape:connector-curvature="0"
     style="fill:#9900ff;fill-rule:nonzero" />
  <path
     d="m 120.09277,195.86687 0,0 c 0,-5.88685 5.39077,-10.65906 12.04062,-10.65906 l 0,0 c 3.19336,0 6.25594,1.123 8.51401,3.12195 2.25804,1.99897 3.52661,4.71014 3.52661,7.53711 l 0,0 c 0,5.88684 -5.39076,10.65905 -12.04062,10.65905 l 0,0 c -6.64985,0 -12.04062,-4.77221 -12.04062,-10.65905 z"
     id="path4305"
     inkscape:connector-curvature="0"
     style="fill:#9900ff;fill-rule:nonzero" />
  <path
     d="m 220.56104,195.86687 0,0 c 0,-5.88685 5.39076,-10.65906 12.04061,-10.65906 l 0,0 c 3.19339,0 6.25595,1.123 8.51399,3.12195 2.25806,1.99897 3.52663,4.71014 3.52663,7.53711 l 0,0 c 0,5.88684 -5.39076,10.65905 -12.04062,10.65905 l 0,0 c -6.64985,0 -12.04061,-4.77221 -12.04061,-10.65905 z"
     id="path4307"
     inkscape:connector-curvature="0"
     style="fill:#9900ff;fill-rule:nonzero" />
  <path
     d="m 254.15695,195.86687 0,0 c 0,-5.88685 5.39076,-10.65906 12.04061,-10.65906 l 0,0 c 3.19339,0 6.25594,1.123 8.51399,3.12195 2.25806,1.99897 3.52664,4.71014 3.52664,7.53711 l 0,0 c 0,5.88684 -5.39077,10.65905 -12.04063,10.65905 l 0,0 c -6.64985,0 -12.04061,-4.77221 -12.04061,-10.65905 z"
     id="path4309"
     inkscape:connector-curvature="0"
     style="fill:#9900ff;fill-rule:nonzero" />
  <path
     d="m 283.95897,195.86687 0,0 c 0,-5.88685 5.39077,-10.65906 12.04062,-10.65906 l 0,0 c 3.19339,0 6.25594,1.123 8.51399,3.12195 2.25805,1.99897 3.52664,4.71014 3.52664,7.53711 l 0,0 c 0,5.88684 -5.39078,10.65905 -12.04063,10.65905 l 0,0 c -6.64985,0 -12.04062,-4.77221 -12.04062,-10.65905 z"
     id="path4311"
     inkscape:connector-curvature="0"
     style="fill:#9900ff;fill-rule:nonzero" />
  <path
     d="m 592.09293,195.86687 0,0 c 0,-5.88685 5.39076,-10.65906 12.04065,-10.65906 l 0,0 c 3.19336,0 6.25591,1.123 8.514,3.12195 2.25801,1.99897 3.52658,4.71014 3.52658,7.53711 l 0,0 c 0,5.88684 -5.39076,10.65905 -12.04058,10.65905 l 0,0 c -6.64989,0 -12.04065,-4.77221 -12.04065,-10.65905 z"
     id="path4313"
     inkscape:connector-curvature="0"
     style="fill:#9900ff;fill-rule:nonzero" />
  <path
     d="m 103.90883,28.061785 0,282.206475"
     id="path4315"
     inkscape:connector-curvature="0"
     style="fill-rule:nonzero;stroke:#000000;stroke-width:1.00398374;stroke-linecap:butt;stroke-linejoin:round;stroke-dasharray:4.01593496, 3.01195122" />
  <path
     d="m 222.58943,26.948155 0,284.081655"
     id="path4317"
     inkscape:connector-curvature="0"
     style="fill-rule:nonzero;stroke:#000000;stroke-width:1.00731385;stroke-linecap:butt;stroke-linejoin:round;stroke-dasharray:4.02925534, 3.02194151" />
  <path
     d="m 341.27002,26.948155 0,282.206465"
     id="path4319"
     inkscape:connector-curvature="0"
     style="fill-rule:nonzero;stroke:#000000;stroke-width:1.00398374;stroke-linecap:butt;stroke-linejoin:round;stroke-dasharray:4.01593495, 3.01195122" />
  <path
     d="m 459.95066,26.948155 0,283.456585"
     id="path4321"
     inkscape:connector-curvature="0"
     style="fill-rule:nonzero;stroke:#000000;stroke-width:1.00620496;stroke-linecap:butt;stroke-linejoin:round;stroke-dasharray:4.02482011, 3.01861508" />
  <path
     d="m 578.6312,28.061785 0,282.831535"
     id="path4323"
     inkscape:connector-curvature="0"
     style="fill-rule:nonzero;stroke:#000000;stroke-width:1.00509501;stroke-linecap:butt;stroke-linejoin:round;stroke-dasharray:4.02038, 3.01528499" />
  <path
     d="m 695.18749,28.061785 0,280.956335"
     id="path4325"
     inkscape:connector-curvature="0"
     style="fill-rule:nonzero;stroke:#000000;stroke-width:1.0017575;stroke-linecap:butt;stroke-linejoin:round;stroke-dasharray:4.00703011, 3.00527258" />
  <path
     d="m 121.34326,0 130.58977,0 0,43.767555 -130.58977,0 z"
     id="path4327"
     inkscape:connector-curvature="0"
     style="fill:#000000;fill-opacity:0;fill-rule:nonzero" />
  <path
     d="m 238.28208,0 130.58978,0 0,43.767555 -130.58978,0 z"
     id="path4331"
     inkscape:connector-curvature="0"
     style="fill:#000000;fill-opacity:0;fill-rule:nonzero" />
  <path
     d="m 357.28633,0 130.58977,0 0,43.767555 -130.58977,0 z"
     id="path4335"
     inkscape:connector-curvature="0"
     style="fill:#000000;fill-opacity:0;fill-rule:nonzero" />
  <path
     d="m 477.38677,0 130.58978,0 0,43.767555 -130.58978,0 z"
     id="path4339"
     inkscape:connector-curvature="0"
     style="fill:#000000;fill-opacity:0;fill-rule:nonzero" />
  <path
     d="m 236.28407,284.20732 91.29303,0"
     id="path4345"
     inkscape:connector-curvature="0"
     style="fill:#000000;fill-opacity:0;fill-rule:nonzero" />
  <path
     d="m 240.62944,284.20732 82.60223,0"
     id="path4347"
     inkscape:connector-curvature="0"
     style="fill-rule:evenodd;stroke:#000000;stroke-width:1.19299948;stroke-linecap:butt;stroke-linejoin:round" />
  <path
     d="m 240.62947,284.20732 1.42591,-1.26233 -3.9177,1.26233 3.9177,1.2623 z"
     id="path4349"
     inkscape:connector-curvature="0"
     style="fill:#000000;fill-rule:evenodd;stroke:#000000;stroke-width:1.19299948;stroke-linecap:butt" />
  <path
     d="m 323.23169,284.20732 -1.4259,1.2623 3.91767,-1.2623 -3.91767,-1.26233 z"
     id="path4351"
     inkscape:connector-curvature="0"
     style="fill:#000000;fill-rule:evenodd;stroke:#000000;stroke-width:1.19299948;stroke-linecap:butt" />
  <path
     d="m 117.10262,318.22327 43.75424,-55.87439"
     id="path4353"
     inkscape:connector-curvature="0"
     style="fill-rule:evenodd;stroke:#000000;stroke-width:0.61585641;stroke-linecap:butt;stroke-linejoin:round" />
  <path
     d="m 162.54298,263.1452 0.24638,-5.41642 -4.1216,4.00901 z"
     id="path4355"
     inkscape:connector-curvature="0"
     style="fill:#000000;fill-rule:evenodd;stroke:#000000;stroke-width:1.19299948;stroke-linecap:butt" />
  <path
     d="m 32.48304,337.73975 -3.823695,-11.06689 2.179305,0 1.981185,6.38406 0.75285,2.38525 q 0.03956,-0.17539 0.63398,-2.28002 l 2.001006,-6.48929 2.1793,0 1.862314,6.41913 0.61416,2.12218 0.733048,-2.1397 2.139684,-6.4016 2.060433,0 -3.902943,11.06688 -2.199113,0 -2.001004,-6.6296 -0.47548,-1.87664 -2.535921,8.50624 -2.199109,0 z m 14.784953,-13.1189 0,-2.1397 2.119862,0 0,2.1397 -2.119862,0 z m 0,13.1189 0,-11.06689 2.119862,0 0,11.06689 -2.119862,0 z m 5.235646,0 0,-11.06689 1.90194,0 0,1.57849 q 1.386835,-1.82403 3.982185,-1.82403 1.12928,0 2.08025,0.36831 0.95096,0.35078 1.40664,0.9471 0.47548,0.57876 0.6736,1.368 0.11881,0.52616 0.11881,1.82402 l 0,6.80499 -2.11987,0 0,-6.73483 q 0,-1.14002 -0.25755,-1.70126 -0.23775,-0.57877 -0.87173,-0.91201 -0.63397,-0.33322 -1.48589,-0.33322 -1.3472,0 -2.3378,0.75415 -0.970773,0.75417 -0.970773,2.89388 l 0,6.0333 -2.119871,0 z m 21.259035,0 0,-1.4031 q -1.1887,1.64862 -3.48688,1.64862 -1.4859,0 -2.75385,-0.71909 -1.24815,-0.7366 -1.94157,-2.03447 -0.6736,-1.31539 -0.6736,-3.01663 0,-1.64864 0.61417,-2.9991 0.63399,-1.35049 1.86232,-2.06957 1.24814,-0.71909 2.79347,-0.71909 1.12927,0 2.001,0.42093 0.89152,0.42093 1.44625,1.10494 l 0,-5.47205 2.10006,0 0,15.2586 -1.96137,0 z m -6.6964,-5.52467 q 0,2.12216 1.0104,3.17448 1.03021,1.05233 2.39724,1.05233 1.38682,0 2.35761,-0.99971 0.97078,-0.99971 0.97078,-3.06926 0,-2.26249 -0.9906,-3.31479 -0.99058,-1.06987 -2.43685,-1.06987 -1.40664,0 -2.35761,1.01725 -0.95097,1.01724 -0.95097,3.20957 z m 10.95687,0 q 0,-3.06926 1.94155,-4.56005 1.60476,-1.22771 3.92275,-1.22771 2.57555,0 4.20011,1.50833 1.64439,1.49078 1.64439,4.12158 0,2.1397 -0.73304,3.36741 -0.71323,1.21016 -2.10006,1.89417 -1.36702,0.66646 -3.0114,0.66646 -2.61517,0 -4.23974,-1.49078 -1.62456,-1.49078 -1.62456,-4.27942 z m 2.1793,0 q 0,2.12216 1.05002,3.17448 1.05003,1.05233 2.63498,1.05233 1.58495,0 2.61517,-1.05233 1.05002,-1.06986 1.05002,-3.24464 0,-2.05201 -1.05002,-3.10433 -1.05004,-1.05233 -2.61517,-1.05233 -1.58495,0 -2.63498,1.05233 -1.05002,1.05232 -1.05002,3.17449 z m 14.08713,5.52467 -3.82368,-11.06689 2.17931,0 1.98118,6.38406 0.75285,2.38525 q 0.0396,-0.17539 0.63398,-2.28002 l 2.00099,-6.48929 2.179306,0 1.86231,6.41913 0.61417,2.12218 0.73304,-2.1397 2.13967,-6.4016 2.06044,0 -3.90293,11.06688 -2.19912,0 -2.000986,-6.6296 -0.47548,-1.87664 -2.53593,8.50624 -2.19912,0 z m 20.485456,-3.29728 2.10006,-0.29816 q 0.17832,1.12248 0.97078,1.71878 0.81228,0.5788 2.25855,0.5788 1.46609,0 2.15949,-0.52617 0.71323,-0.52616 0.71323,-1.2277 0,-0.63139 -0.61416,-0.99971 -0.43586,-0.24554 -2.1595,-0.63139 -2.3378,-0.52616 -3.24915,-0.89447 -0.89152,-0.38585 -1.36701,-1.05231 -0.45568,-0.68401 -0.45568,-1.49079 0,-0.73662 0.37644,-1.36801 0.39624,-0.6314 1.05002,-1.05232 0.49531,-0.3157 1.3472,-0.54369 0.85193,-0.22801 1.8227,-0.22801 1.48589,0 2.59536,0.38585 1.10946,0.36832 1.62457,1.01724 0.53491,0.63139 0.73303,1.70125 l -2.06044,0.24555 q -0.13867,-0.84186 -0.83209,-1.31541 -0.67361,-0.49108 -1.90194,-0.49108 -1.46607,0 -2.08023,0.43847 -0.61418,0.42092 -0.61418,0.98216 0,0.36831 0.25755,0.66647 0.25755,0.29815 0.81228,0.49108 0.317,0.10518 1.86233,0.49108 2.23874,0.52616 3.13027,0.8594 0.89154,0.33323 1.38683,0.98216 0.51511,0.64893 0.51511,1.61356 0,0.92955 -0.61416,1.7714 -0.61418,0.82431 -1.78308,1.28032 -1.1689,0.43846 -2.63497,0.43846 -2.43686,0 -3.72464,-0.89447 -1.26796,-0.89446 -1.62457,-2.64833 z m 12.69941,-9.82162 0,-2.1397 2.11986,0 0,2.1397 -2.11986,0 z m 0,13.1189 0,-11.06689 2.11986,0 0,11.06689 -2.11986,0 z m 4.12618,0 0,-1.52587 7.94456,-8.06777 q -1.34721,0.0527 -2.37742,0.0527 l -5.09166,0 0,-1.52587 10.20311,0 0,1.24525 -6.77565,7.01545 -1.28778,1.28032 q 1.40665,-0.0877 2.65479,-0.0877 l 5.78506,0 0,1.61355 -11.05501,0 z m 21.49587,-3.56036 2.1793,0.24554 q -0.51511,1.68372 -1.92175,2.63079 -1.38684,0.92955 -3.56614,0.92955 -2.73404,0 -4.33879,-1.49077 -1.60477,-1.49078 -1.60477,-4.19173 0,-2.78864 1.60477,-4.33204 1.62457,-1.54341 4.21991,-1.54341 2.51612,0 4.10107,1.50833 1.58495,1.50831 1.58495,4.26189 0,0.15784 -0.0198,0.49108 l -9.31157,0 q 0.11881,1.82402 1.1689,2.78864 1.05002,0.96463 2.61516,0.96463 1.14909,0 1.96137,-0.52617 0.8321,-0.5437 1.32741,-1.73633 z m -6.95397,-3.03418 6.97377,0 q -0.13867,-1.38555 -0.79248,-2.08708 -1.01039,-1.0874 -2.63496,-1.0874 -1.44628,0 -2.45667,0.87693 -0.9906,0.8594 -1.08966,2.29755 z"
     id="path4357"
     inkscape:connector-curvature="0"
     style="fill:#000000;fill-rule:nonzero" />
  <path
     d="m 108.97068,250.60101 225.71664,0"
     id="path4359"
     inkscape:connector-curvature="0"
     style="fill:#000000;fill-opacity:0;fill-rule:nonzero" />
  <path
     d="m 113.31607,250.60101 217.02582,0"
     id="path4361"
     inkscape:connector-curvature="0"
     style="fill-rule:evenodd;stroke:#000000;stroke-width:1.19299948;stroke-linecap:butt;stroke-linejoin:round" />
  <path
     d="m 113.31609,250.60101 1.42591,-1.26229 -3.91769,1.26229 3.91769,1.26233 z"
     id="path4363"
     inkscape:connector-curvature="0"
     style="fill:#000000;fill-rule:evenodd;stroke:#000000;stroke-width:1.19299948;stroke-linecap:butt" />
  <path
     d="m 330.34189,250.60101 -1.4259,1.26233 3.91767,-1.26233 -3.91767,-1.26229 z"
     id="path4365"
     inkscape:connector-curvature="0"
     style="fill:#000000;fill-rule:evenodd;stroke:#000000;stroke-width:1.19299948;stroke-linecap:butt" />
  <path
     d="m 298.64571,341.03611 -1.15813,-99.62596"
     id="path4367"
     inkscape:connector-curvature="0"
     style="fill:#000000;fill-opacity:0;fill-rule:nonzero" />
  <path
     d="m 298.64218,322.89657 -1.07274,-30.98479"
     id="path4369"
     inkscape:connector-curvature="0"
     style="fill-rule:evenodd;stroke:#000000;stroke-width:0.68675512;stroke-linecap:butt;stroke-linejoin:round" />
  <path
     d="m 219.01311,337.73974 -3.82369,-11.06688 2.1793,0 1.98119,6.38405 0.75285,2.38525 q 0.0396,-0.17538 0.63397,-2.28002 l 2.00101,-6.48928 2.17931,0 1.86231,6.41914 0.61416,2.12218 0.73305,-2.13971 2.13967,-6.40161 2.06044,0 -3.90295,11.06688 -2.1991,0 -2.001,-6.6296 -0.47549,-1.87664 -2.53592,8.50624 -2.19911,0 z m 14.78498,-13.11889 0,-2.13971 2.11988,0 0,2.13971 -2.11988,0 z m 0,13.11889 0,-11.06688 2.11988,0 0,11.06688 -2.11988,0 z m 5.23564,0 0,-11.06688 1.90194,0 0,1.57848 q 1.38682,-1.82401 3.98218,-1.82401 1.12927,0 2.08024,0.36831 0.95097,0.35078 1.40665,0.94709 0.47548,0.57876 0.6736,1.36801 0.11881,0.52616 0.11881,1.82402 l 0,6.80498 -2.11987,0 0,-6.73483 q 0,-1.14001 -0.25755,-1.70125 -0.23774,-0.57877 -0.87173,-0.91201 -0.63397,-0.33323 -1.4859,-0.33323 -1.34719,0 -2.33779,0.75415 -0.97077,0.75418 -0.97077,2.89389 l 0,6.03328 -2.11988,0 z m 21.25904,0 0,-1.40309 q -1.1887,1.64863 -3.48688,1.64863 -1.4859,0 -2.75385,-0.71909 -1.24815,-0.73662 -1.94157,-2.03448 -0.6736,-1.31539 -0.6736,-3.01664 0,-1.64863 0.61417,-2.9991 0.63399,-1.35048 1.86232,-2.06955 1.24814,-0.71909 2.79347,-0.71909 1.12927,0 2.001,0.42092 0.89152,0.42093 1.44625,1.10494 l 0,-5.47205 2.10006,0 0,15.2586 -1.96137,0 z m -6.6964,-5.52467 q 0,2.12217 1.0104,3.1745 1.03021,1.05231 2.39724,1.05231 1.38683,0 2.35761,-0.99971 0.97078,-0.9997 0.97078,-3.06925 0,-2.26249 -0.99059,-3.3148 -0.99059,-1.06985 -2.43686,-1.06985 -1.40664,0 -2.35761,1.01724 -0.95097,1.01724 -0.95097,3.20956 z m 10.95685,0 q 0,-3.06926 1.94156,-4.56004 1.60476,-1.22771 3.92275,-1.22771 2.57554,0 4.20012,1.50833 1.64437,1.49077 1.64437,4.12158 0,2.1397 -0.73303,3.36741 -0.71323,1.21015 -2.10006,1.89418 -1.36702,0.66645 -3.0114,0.66645 -2.61517,0 -4.23973,-1.49077 -1.62458,-1.49078 -1.62458,-4.27943 z m 2.17931,0 q 0,2.12217 1.05002,3.1745 1.05004,1.05231 2.63498,1.05231 1.58495,0 2.61516,-1.05231 1.05003,-1.06987 1.05003,-3.24466 0,-2.05201 -1.05003,-3.10433 -1.05003,-1.05231 -2.61516,-1.05231 -1.58494,0 -2.63498,1.05231 -1.05002,1.05232 -1.05002,3.17449 z m 14.08714,5.52467 -3.82368,-11.06688 2.17931,0 1.98118,6.38405 0.75285,2.38525 q 0.0396,-0.17538 0.63399,-2.28002 l 2.00098,-6.48928 2.17931,0 1.86231,6.41914 0.61417,2.12218 0.73304,-2.13971 2.13968,-6.40161 2.06043,0 -3.90293,11.06688 -2.19912,0 -2.00099,-6.6296 -0.47548,-1.87664 -2.53592,8.50624 -2.19913,0 z m 20.48546,-3.29727 2.10006,-0.29816 q 0.17832,1.12248 0.97078,1.71878 0.81228,0.57878 2.25855,0.57878 1.46609,0 2.15949,-0.52616 0.71323,-0.52615 0.71323,-1.2277 0,-0.63139 -0.61416,-0.99971 -0.43586,-0.24553 -2.1595,-0.63139 -2.33779,-0.52615 -3.24915,-0.89446 -0.89152,-0.38585 -1.36701,-1.05232 -0.45568,-0.68401 -0.45568,-1.49079 0,-0.73662 0.37644,-1.36801 0.39624,-0.63139 1.05002,-1.05232 0.49531,-0.31569 1.3472,-0.54369 0.85193,-0.228 1.8227,-0.228 1.48589,0 2.59536,0.38585 1.10946,0.36831 1.62457,1.01724 0.53491,0.63139 0.73303,1.70124 l -2.06044,0.24555 q -0.13867,-0.84186 -0.83209,-1.3154 -0.67361,-0.49109 -1.90194,-0.49109 -1.46607,0 -2.08023,0.43847 -0.61418,0.42093 -0.61418,0.98217 0,0.36831 0.25755,0.66646 0.25755,0.29815 0.81229,0.49108 0.31699,0.10518 1.86232,0.49109 2.23874,0.52615 3.13027,0.85939 0.89154,0.33324 1.38683,0.98215 0.51511,0.64894 0.51511,1.61356 0,0.92955 -0.61416,1.7714 -0.61418,0.82431 -1.78308,1.28032 -1.1689,0.43847 -2.63497,0.43847 -2.43686,0 -3.72464,-0.89448 -1.26796,-0.89446 -1.62457,-2.64833 z m 12.63997,3.29727 0,-15.2586 2.11987,0 0,15.2586 -2.11987,0 z m 5.31488,-13.11889 0,-2.13971 2.11987,0 0,2.13971 -2.11987,0 z m 0,13.11889 0,-11.06688 2.11987,0 0,11.06688 -2.11987,0 z m 13.33871,0 0,-1.40309 q -1.1887,1.64863 -3.48688,1.64863 -1.48588,0 -2.75384,-0.71909 -1.24816,-0.73662 -1.94156,-2.03448 -0.67361,-1.31539 -0.67361,-3.01664 0,-1.64863 0.61416,-2.9991 0.63399,-1.35048 1.86232,-2.06955 1.24815,-0.71909 2.79348,-0.71909 1.12927,0 2.00099,0.42092 0.89154,0.42093 1.44627,1.10494 l 0,-5.47205 2.10006,0 0,15.2586 -1.96139,0 z m -6.6964,-5.52467 q 0,2.12217 1.01041,3.1745 1.03022,1.05231 2.39723,1.05231 1.38683,0 2.35762,-0.99971 0.97077,-0.9997 0.97077,-3.06925 0,-2.26249 -0.99059,-3.3148 -0.99059,-1.06985 -2.43685,-1.06985 -1.40665,0 -2.35762,1.01724 -0.95097,1.01724 -0.95097,3.20956 z m 20.30805,1.96432 2.1793,0.24554 q -0.51511,1.68371 -1.92175,2.6308 -1.38684,0.92955 -3.56614,0.92955 -2.73404,0 -4.33879,-1.49078 -1.60477,-1.49078 -1.60477,-4.19174 0,-2.78864 1.60477,-4.33204 1.62457,-1.54339 4.21992,-1.54339 2.51611,0 4.10106,1.50832 1.58495,1.50831 1.58495,4.26188 0,0.15785 -0.0198,0.49109 l -9.31157,0 q 0.11881,1.82401 1.1689,2.78864 1.05003,0.96462 2.61517,0.96462 1.14908,0 1.96136,-0.52616 0.83211,-0.5437 1.32741,-1.73633 z m -6.95397,-3.03418 6.97377,0 q -0.13868,-1.38555 -0.79247,-2.0871 -1.0104,-1.0874 -2.63497,-1.0874 -1.44627,0 -2.45667,0.87694 -0.9906,0.85939 -1.08966,2.29756 z"
     id="path4373"
     inkscape:connector-curvature="0"
     style="fill:#000000;fill-rule:nonzero" />
  <path
     d="m 106.44474,49.388745 234.82197,0 0,170.615675 -234.82197,0 z"
     id="path4375"
     inkscape:connector-curvature="0"
     style="fill-rule:nonzero;stroke:#ff0000;stroke-width:4.77199793;stroke-linecap:butt;stroke-linejoin:round" />
  <path
     d="m 106.44474,49.388745 234.82197,0 0,170.615675 -234.82197,0 z"
     id="path4377"
     inkscape:connector-curvature="0"
     style="fill:#000000;fill-opacity:0;fill-rule:nonzero" />
  <path
     d="m 220.30478,53.033095 240.93214,0 0,163.332895 -240.93214,0 z"
     id="path4379"
     inkscape:connector-curvature="0"
     style="fill:#000000;fill-opacity:0;fill-rule:nonzero" />
  <path
     d="m 220.37752,61.789735 240.78666,0 0,172.928195 -240.78666,0 z"
     id="path4381"
     inkscape:connector-curvature="0"
     style="fill-rule:nonzero;stroke:#4a86e8;stroke-width:4.90868521;stroke-linecap:butt;stroke-linejoin:round" />
  <path
     d="m 345.36317,49.385805 234.82199,0 0,170.615675 -234.82199,0 z"
     id="path4383"
     inkscape:connector-curvature="0"
     style="fill-rule:nonzero;stroke:#00ff00;stroke-width:4.77199793;stroke-linecap:butt;stroke-linejoin:round" />
  <path
     d="m 344.36174,49.385805 234.822,0 0,170.615675 -234.822,0 z"
     id="path4385"
     inkscape:connector-curvature="0"
     style="fill:#000000;fill-opacity:0;fill-rule:nonzero" />
  <path
     d="m 465.18389,53.033095 228.67185,0 0,163.332895 -228.67185,0 z"
     id="path4387"
     inkscape:connector-curvature="0"
     style="fill:#000000;fill-opacity:0;fill-rule:nonzero" />
  <path
     d="m 465.25659,61.789695 228.52644,0 0,172.928275 -228.52644,0 z"
     id="path4389"
     inkscape:connector-curvature="0"
     style="fill-rule:nonzero;stroke:#ff00ff;stroke-width:4.90860748;stroke-linecap:butt;stroke-linejoin:round" />
  <text
     xml:space="preserve"
     style="font-style:normal;font-weight:normal;font-size:28.87577248px;line-height:125%;font-family:sans-serif;letter-spacing:0px;word-spacing:0px;fill:#ff0000;fill-opacity:1;stroke:none;stroke-width:1px;stroke-linecap:butt;stroke-linejoin:miter;stroke-opacity:1"
     x="148.27007"
     y="40.309956"
     id="text4475"
     sodipodi:linespacing="125%"
     transform="scale(1.0424102,0.95931525)"><tspan
       sodipodi:role="line"
       id="tspan4477"
       x="148.27007"
       y="40.309956">window 1</tspan></text>
  <text
     xml:space="preserve"
     style="font-style:normal;font-weight:normal;font-size:33.11576462px;line-height:125%;font-family:sans-serif;letter-spacing:0px;word-spacing:0px;fill:#4986e9;fill-opacity:0.89019608;stroke:none;stroke-width:1px;stroke-linecap:butt;stroke-linejoin:miter;stroke-opacity:1"
     x="246.26546"
     y="292.3587"
     id="text4500"
     sodipodi:linespacing="125%"
     transform="scale(1.0579011,0.94526794)"><tspan
       sodipodi:role="line"
       id="tspan4502"
       x="246.26546"
       y="292.3587">window 2</tspan></text>
  <text
     xml:space="preserve"
     style="font-style:normal;font-weight:normal;font-size:33.32024002px;line-height:125%;font-family:sans-serif;letter-spacing:0px;word-spacing:0px;fill:#00ff00;fill-opacity:1;stroke:none;stroke-width:1px;stroke-linecap:butt;stroke-linejoin:miter;stroke-opacity:1"
     x="394.57419"
     y="39.745895"
     id="text4504"
     sodipodi:linespacing="125%"
     transform="scale(1.0084019,0.9916681)"><tspan
       sodipodi:role="line"
       id="tspan4506"
       x="394.57419"
       y="39.745895">window 3</tspan></text>
  <text
     xml:space="preserve"
     style="font-style:normal;font-weight:normal;font-size:34.0813446px;line-height:125%;font-family:sans-serif;letter-spacing:0px;word-spacing:0px;fill:#ff00ff;fill-opacity:1;stroke:none;stroke-width:1px;stroke-linecap:butt;stroke-linejoin:miter;stroke-opacity:1"
     x="466.70566"
     y="300.88315"
     id="text4508"
     sodipodi:linespacing="125%"
     transform="scale(1.088747,0.91848704)"><tspan
       sodipodi:role="line"
       id="tspan4510"
       x="466.70566"
       y="300.88315">window 4</tspan></text>
</svg>
