<?xml version="1.0" encoding="UTF-8" standalone="no"?>
<!--
Licensed to the Apache Software Foundation (ASF) under one
or more contributor license agreements.  See the NOTICE file
distributed with this work for additional information
regarding copyright ownership.  The ASF licenses this file
to you under the Apache License, Version 2.0 (the
"License"); you may not use this file except in compliance
with the License.  You may obtain a copy of the License at

http://www.apache.org/licenses/LICENSE-2.0

Unless required by applicable law or agreed to in writing,
software distributed under the License is distributed on an
"AS IS" BASIS, WITHOUT WARRANTIES OR CONDITIONS OF ANY
KIND, either express or implied.  See the License for the
specific language governing permissions and limitations
under the License.
-->
<svg
   xmlns:dc="http://purl.org/dc/elements/1.1/"
   xmlns:cc="http://creativecommons.org/ns#"
   xmlns:rdf="http://www.w3.org/1999/02/22-rdf-syntax-ns#"
   xmlns:svg="http://www.w3.org/2000/svg"
   xmlns="http://www.w3.org/2000/svg"
   xmlns:sodipodi="http://sodipodi.sourceforge.net/DTD/sodipodi-0.dtd"
   xmlns:inkscape="http://www.inkscape.org/namespaces/inkscape"
   width="831.19"
   height="364.59875"
   id="svg2"
   version="1.1"
   inkscape:version="0.48.5 r10040">
  <defs
     id="defs4" />
  <sodipodi:namedview
     id="base"
     pagecolor="#ffffff"
     bordercolor="#666666"
     borderopacity="1.0"
     inkscape:pageopacity="0.0"
     inkscape:pageshadow="2"
     inkscape:zoom="0.35"
     inkscape:cx="514.76354"
     inkscape:cy="76.03094"
     inkscape:document-units="px"
     inkscape:current-layer="layer1"
     showgrid="false"
     fit-margin-top="0"
     fit-margin-left="0"
     fit-margin-right="0"
     fit-margin-bottom="0"
     inkscape:window-width="1920"
     inkscape:window-height="1178"
     inkscape:window-x="-8"
     inkscape:window-y="-8"
     inkscape:window-maximized="1" />
  <metadata
     id="metadata7">
    <rdf:RDF>
      <cc:Work
         rdf:about="">
        <dc:format>image/svg+xml</dc:format>
        <dc:type
           rdf:resource="http://purl.org/dc/dcmitype/StillImage" />
        <dc:title></dc:title>
      </cc:Work>
    </rdf:RDF>
  </metadata>
  <g
     inkscape:label="Layer 1"
     inkscape:groupmode="layer"
     id="layer1"
     transform="translate(139.76354,-243.79437)">
    <g
       id="g3138"
       transform="translate(-199.38854,144.82812)">
      <path
         id="path3140"
         d="m 649.32426,123.89336 c 0,-6.97673 5.66391,-12.67815 12.67816,-12.67815 l 148.1244,0 c 7.01425,0 12.67816,5.70142 12.67816,12.67815 l 0,50.75015 c 0,7.01425 -5.66391,12.67816 -12.67816,12.67816 l -148.1244,0 c -7.01425,0 -12.67816,-5.66391 -12.67816,-12.67816 z"
         style="fill:#afabab;fill-opacity:1;fill-rule:evenodd;stroke:none"
         inkscape:connector-curvature="0" />
      <text
         id="text3142"
         style="font-size:22.5056076px;font-style:normal;font-weight:normal;text-align:start;text-anchor:start;fill:#000000;font-family:Verdana"
         y="144.70425"
         x="711.15765"
         xml:space="preserve">Task </text>
      <text
         id="text3144"
         style="font-size:22.5056076px;font-style:normal;font-weight:normal;text-align:start;text-anchor:start;fill:#000000;font-family:Verdana"
         y="171.71098"
         x="687.45178"
         xml:space="preserve">Manager</text>
      <path
         id="path3146"
         d="m 649.32426,256.45139 c 0,-7.01425 5.66391,-12.71567 12.67816,-12.71567 l 148.1244,0 c 7.01425,0 12.67816,5.70142 12.67816,12.71567 l 0,50.71263 c 0,7.01425 -5.66391,12.71567 -12.67816,12.71567 l -148.1244,0 c -7.01425,0 -12.67816,-5.70142 -12.67816,-12.71567 z"
         style="fill:#afabab;fill-opacity:1;fill-rule:evenodd;stroke:none"
         inkscape:connector-curvature="0" />
      <text
         id="text3148"
         style="font-size:22.5056076px;font-style:normal;font-weight:normal;text-align:start;text-anchor:start;fill:#000000;font-family:Verdana"
         y="277.28275"
         x="711.15765"
         xml:space="preserve">Task </text>
      <text
         id="text3150"
         style="font-size:22.5056076px;font-style:normal;font-weight:normal;text-align:start;text-anchor:start;fill:#000000;font-family:Verdana"
         y="304.28949"
         x="687.45178"
         xml:space="preserve">Manager</text>
      <path
         id="path3152"
         d="m 649.32426,389.12194 c 0,-7.01425 5.66391,-12.67816 12.67816,-12.67816 l 148.1244,0 c 7.01425,0 12.67816,5.66391 12.67816,12.67816 l 0,50.75014 c 0,7.01425 -5.66391,12.67816 -12.67816,12.67816 l -148.1244,0 c -7.01425,0 -12.67816,-5.66391 -12.67816,-12.67816 z"
         style="fill:#afabab;fill-opacity:1;fill-rule:evenodd;stroke:none"
         inkscape:connector-curvature="0" />
      <text
         id="text3154"
         style="font-size:22.5056076px;font-style:normal;font-weight:normal;text-align:start;text-anchor:start;fill:#000000;font-family:Verdana"
         y="409.86127"
         x="711.15765"
         xml:space="preserve">Task </text>
      <text
         id="text3156"
         style="font-size:22.5056076px;font-style:normal;font-weight:normal;text-align:start;text-anchor:start;fill:#000000;font-family:Verdana"
         y="436.86801"
         x="687.45178"
         xml:space="preserve">Manager</text>
      <path
         id="path3158"
         d="m 330.47608,331.77015 c 0,-6.15153 4.98874,-11.14027 11.14028,-11.14027 l 126.68781,0 c 6.15153,0 11.12152,4.98874 11.12152,11.14027 l 0,44.48608 c 0,6.13278 -4.96999,11.12153 -11.12152,11.12153 l -126.68781,0 c -6.15154,0 -11.14028,-4.98875 -11.14028,-11.12153 z"
         style="fill:#afabab;fill-opacity:1;fill-rule:evenodd;stroke:none"
         inkscape:connector-curvature="0" />
      <text
         id="text3160"
         style="font-size:19.95497131px;font-style:normal;font-weight:normal;text-align:start;text-anchor:start;fill:#000000;font-family:Verdana"
         y="349.87692"
         x="359.48764"
         xml:space="preserve">Resource</text>
      <text
         id="text3162"
         style="font-size:19.95497131px;font-style:normal;font-weight:normal;text-align:start;text-anchor:start;fill:#000000;font-family:Verdana"
         y="373.8829"
         x="361.88824"
         xml:space="preserve">Manager</text>
      <path
         id="path3164"
         d="m 330.47608,184.84605 c 0,-6.13278 4.98874,-11.12152 11.14028,-11.12152 l 126.68781,0 c 6.15153,0 11.12152,4.98874 11.12152,11.12152 l 0,44.48608 c 0,6.15153 -4.96999,11.12152 -11.12152,11.12152 l -126.68781,0 c -6.15154,0 -11.14028,-4.96999 -11.14028,-11.12152 z"
         style="fill:#afabab;fill-opacity:1;fill-rule:evenodd;stroke:none"
         inkscape:connector-curvature="0" />
      <text
         id="text3166"
         style="font-size:19.95497131px;font-style:normal;font-weight:normal;text-align:start;text-anchor:start;fill:#000000;font-family:Verdana"
         y="202.97752"
         x="388.14163"
         xml:space="preserve">Job</text>
      <text
         id="text3168"
         style="font-size:19.95497131px;font-style:normal;font-weight:normal;text-align:start;text-anchor:start;fill:#000000;font-family:Verdana"
         y="226.98351"
         x="361.8851"
         xml:space="preserve">Manager</text>
      <path
         id="path3170"
         d="m 315.00348,164.49723 173.48071,0 0,230.68247 -173.48071,0 z"
         style="fill:none;stroke:#000000;stroke-width:1.25656307px;stroke-linecap:butt;stroke-linejoin:miter;stroke-miterlimit:4;stroke-opacity:1;stroke-dasharray:none"
         inkscape:connector-curvature="0" />
      <text
         id="text3172"
         style="font-size:19.95497131px;font-style:italic;font-weight:normal;text-align:start;text-anchor:start;fill:#000000;font-family:Verdana"
         y="418.32153"
         x="334.40732"
         xml:space="preserve">Master Process</text>
      <path
         id="path3174"
         d="m 730.41947,194.37342 0,39.87244 -1.87547,0 0,-39.87244 z m 4.27606,32.85819 -5.2138,8.88971 -5.17629,-8.88971 c -0.26256,-0.45011 -0.11253,-1.05026 0.33759,-1.31283 0.45011,-0.26256 1.01275,-0.075 1.27531,0.33759 l 4.3886,7.50187 -1.6129,0 4.38859,-7.50187 c 0.22506,-0.41261 0.8252,-0.60015 1.27532,-0.33759 0.45011,0.26257 0.60015,0.86272 0.33758,1.31283 z"
         style="fill:#000000;fill-opacity:1;fill-rule:nonzero;stroke:#000000;stroke-width:0.03750934px;stroke-linecap:butt;stroke-linejoin:round;stroke-opacity:1;stroke-dasharray:none"
         inkscape:connector-curvature="0" />
      <path
         id="path3176"
         d="m 743.54774,196.21138 0,39.90994 -1.87547,0 0,-39.90994 z m -6.11403,7.05176 5.17629,-8.88972 5.2138,8.88972 c 0.26257,0.45011 0.11253,1.01275 -0.33758,1.27532 -0.45011,0.26256 -1.05026,0.11252 -1.27532,-0.33759 l -4.38859,-7.50187 1.6129,0 -4.38859,7.50187 c -0.26257,0.45011 -0.82521,0.60015 -1.27532,0.33759 -0.45011,-0.26257 -0.60015,-0.82521 -0.33759,-1.27532 z"
         style="fill:#000000;fill-opacity:1;fill-rule:nonzero;stroke:#000000;stroke-width:0.03750934px;stroke-linecap:butt;stroke-linejoin:round;stroke-opacity:1;stroke-dasharray:none"
         inkscape:connector-curvature="0" />
      <path
         id="path3178"
         d="m 730.41947,326.89394 0,39.87243 -1.87547,0 0,-39.87243 z m 4.27606,32.85818 -5.2138,8.88972 -5.17629,-8.88972 c -0.26256,-0.45011 -0.11253,-1.01275 0.33759,-1.27531 0.45011,-0.26257 1.01275,-0.11253 1.27531,0.33758 l 4.3886,7.50187 -1.6129,0 4.38859,-7.50187 c 0.22506,-0.45011 0.8252,-0.60015 1.27532,-0.33758 0.45011,0.26256 0.60015,0.8252 0.33758,1.27531 z"
         style="fill:#000000;fill-opacity:1;fill-rule:nonzero;stroke:#000000;stroke-width:0.03750934px;stroke-linecap:butt;stroke-linejoin:round;stroke-opacity:1;stroke-dasharray:none"
         inkscape:connector-curvature="0" />
      <path
         id="path3180"
         d="m 743.54774,328.7694 0,39.87244 -1.87547,0 0,-39.87244 z m -6.11403,7.01425 5.17629,-8.88971 5.2138,8.88971 c 0.26257,0.45011 0.11253,1.01275 -0.33758,1.27532 -0.45011,0.26257 -1.05026,0.11253 -1.27532,-0.33758 l -4.38859,-7.50187 1.6129,0 -4.38859,7.50187 c -0.26257,0.45011 -0.82521,0.60015 -1.27532,0.33758 -0.45011,-0.26257 -0.60015,-0.82521 -0.33759,-1.27532 z"
         style="fill:#000000;fill-opacity:1;fill-rule:nonzero;stroke:#000000;stroke-width:0.03750934px;stroke-linecap:butt;stroke-linejoin:round;stroke-opacity:1;stroke-dasharray:none"
         inkscape:connector-curvature="0" />
      <path
         id="path3182"
         d="m 614.32804,151.98786 -103.30073,62.04046 -0.93773,-1.6129 103.26322,-62.04046 z m -95.08618,62.07797 -10.27756,0.11253 4.95123,-9.03975 c 0.26256,-0.45012 0.8252,-0.60015 1.27532,-0.33759 0.45011,0.22506 0.60015,0.7877 0.37509,1.27532 l 0,0 -4.20105,7.6144 -0.8252,-1.38785 8.70217,-0.11253 c 0.48762,-0.0375 0.93773,0.3751 0.93773,0.90023 0,0.52513 -0.4126,0.93773 -0.93773,0.97524 z"
         style="fill:#000000;fill-opacity:1;fill-rule:nonzero;stroke:#000000;stroke-width:0.03750934px;stroke-linecap:butt;stroke-linejoin:round;stroke-opacity:1;stroke-dasharray:none"
         inkscape:connector-curvature="0" />
      <path
         id="path3184"
         d="m 620.74214,166.24141 -103.30073,62.07797 -0.93774,-1.6129 103.26323,-62.04046 z m -9.18979,-1.6129 10.31507,-0.15003 -4.95123,9.03975 c -0.26257,0.45011 -0.82521,0.63766 -1.27532,0.37509 -0.45011,-0.26256 -0.63766,-0.8252 -0.37509,-1.27532 l 4.16354,-7.61439 0.8252,1.38784 -8.66466,0.11253 c -0.52513,0 -0.93773,-0.4126 -0.93773,-0.93773 -0.0375,-0.48762 0.37509,-0.93774 0.90022,-0.93774 z"
         style="fill:#000000;fill-opacity:1;fill-rule:nonzero;stroke:#000000;stroke-width:0.03750934px;stroke-linecap:butt;stroke-linejoin:round;stroke-opacity:1;stroke-dasharray:none"
         inkscape:connector-curvature="0" />
      <path
         id="path3186"
         d="m 629.29427,273.29308 -120.48001,0 0,-1.87546 120.48001,0 z m -113.46576,4.23856 -8.88972,-5.17629 8.88972,-5.17629 c 0.45011,-0.26256 1.01275,-0.11253 1.27531,0.33759 0.26257,0.45011 0.11253,1.01275 -0.33758,1.27531 l 0,0 -7.50187,4.3886 0,-1.65042 7.50187,4.3886 c 0.45011,0.26256 0.60015,0.8252 0.33758,1.27532 -0.26256,0.45011 -0.8252,0.60015 -1.27531,0.33758 z"
         style="fill:#000000;fill-opacity:1;fill-rule:nonzero;stroke:#000000;stroke-width:0.03750934px;stroke-linecap:butt;stroke-linejoin:round;stroke-opacity:1;stroke-dasharray:none"
         inkscape:connector-curvature="0" />
      <path
         id="path3188"
         d="m 627.41881,288.93448 -120.48002,0 0,-1.87547 120.48002,0 z m -7.01425,-6.15153 8.88971,5.2138 -8.88971,5.17629 c -0.45011,0.26256 -1.01275,0.11252 -1.27532,-0.33759 -0.26256,-0.45011 -0.11253,-1.01275 0.33758,-1.27532 l 7.50187,-4.38859 0,1.6129 -7.50187,-4.35108 c -0.45011,-0.26257 -0.60014,-0.86272 -0.33758,-1.31283 0.26257,-0.45011 0.82521,-0.60015 1.27532,-0.33758 z"
         style="fill:#000000;fill-opacity:1;fill-rule:nonzero;stroke:#000000;stroke-width:0.03750934px;stroke-linecap:butt;stroke-linejoin:round;stroke-opacity:1;stroke-dasharray:none"
         inkscape:connector-curvature="0" />
      <path
         id="path3190"
         d="m 620.25452,393.28548 -104.351,-60.24001 0.93774,-1.6129 104.35099,60.24001 z m -100.375,-53.03822 -5.13879,-8.92722 10.31507,-0.075 c 0.52514,0 0.93774,0.4126 0.93774,0.93774 0,0.52513 -0.4126,0.93773 -0.93774,0.93773 l 0,0 -8.66465,0.0375 0.78769,-1.38785 4.31358,7.53938 c 0.26256,0.45011 0.11252,1.01275 -0.33759,1.27532 -0.45011,0.26256 -1.05026,0.11253 -1.27531,-0.33759 z"
         style="fill:#000000;fill-opacity:1;fill-rule:nonzero;stroke:#000000;stroke-width:0.03750934px;stroke-linecap:butt;stroke-linejoin:round;stroke-opacity:1;stroke-dasharray:none"
         inkscape:connector-curvature="0" />
      <path
         id="path3192"
         d="m 610.87718,405.8136 -104.35099,-60.24001 0.93773,-1.6129 104.351,60.24001 z m -3.03825,-8.8147 5.10127,8.96474 -10.27756,0.0375 c -0.52513,0 -0.93774,-0.41261 -0.93774,-0.93774 0,-0.52513 0.41261,-0.93773 0.93774,-0.93773 l 8.66466,-0.0375 -0.7877,1.38784 -4.31357,-7.53937 c -0.26257,-0.45012 -0.11253,-1.01276 0.33758,-1.27532 0.45011,-0.26257 1.01275,-0.11253 1.27532,0.33758 z"
         style="fill:#000000;fill-opacity:1;fill-rule:nonzero;stroke:#000000;stroke-width:0.03750934px;stroke-linecap:butt;stroke-linejoin:round;stroke-opacity:1;stroke-dasharray:none"
         inkscape:connector-curvature="0" />
      <text
         id="text3194"
         style="font-size:19.95497131px;font-style:italic;font-weight:normal;text-align:start;text-anchor:start;fill:#000000;font-family:Verdana"
         y="254.02786"
         x="506.90329"
         xml:space="preserve">RPC / BLOB</text>
      <text
         id="text3196"
         style="font-size:19.95497131px;font-style:italic;font-weight:normal;text-align:start;text-anchor:start;fill:#000000;font-family:Verdana"
         y="222.93466"
         x="772.27954"
         xml:space="preserve">Data Plane</text>
      <text
         id="text3198"
         style="font-size:19.95497131px;font-style:italic;font-weight:normal;text-align:start;text-anchor:start;fill:#000000;font-family:Verdana"
         y="355.45471"
         x="772.27954"
         xml:space="preserve">Data Plane</text>
      <path
         id="path3200"
         d="m 300.93747,462.86531 0,-3.75093 1.27532,0 0,3.75093 -1.27532,0 z m 0,-4.98874 0,-3.75094 1.27532,0 0,3.75094 -1.27532,0 z m 0,-5.02625 0,-3.75094 1.27532,0 0,3.75094 -1.27532,0 z m 0,-4.98875 0,-3.75093 1.27532,0 0,3.75093 -1.27532,0 z m 0,-4.98874 0,-3.75093 1.27532,0 0,3.75093 -1.27532,0 z m 0,-5.02625 0,-3.75094 1.27532,0 0,3.75094 -1.27532,0 z m 0,-4.98874 0,-3.75094 1.27532,0 0,3.75094 -1.27532,0 z m 0,-4.98875 0,-3.75093 1.27532,0 0,3.75093 -1.27532,0 z m 0,-5.02625 0,-3.75093 1.27532,0 0,3.75093 -1.27532,0 z m 0,-4.98874 0,-3.75094 1.27532,0 0,3.75094 -1.27532,0 z m 0,-4.98874 0,-3.75094 1.27532,0 0,3.75094 -1.27532,0 z m 0,-5.02626 0,-3.75093 1.27532,0 0,3.75093 -1.27532,0 z m 0,-4.98874 0,-3.75093 1.27532,0 0,3.75093 -1.27532,0 z m 0,-4.98874 0,-3.75094 1.27532,0 0,3.75094 -1.27532,0 z m 0,-5.02625 0,-3.75094 1.27532,0 0,3.75094 -1.27532,0 z m 0,-4.98875 0,-3.75093 1.27532,0 0,3.75093 -1.27532,0 z m 0,-4.98874 0,-3.75093 1.27532,0 0,3.75093 -1.27532,0 z m 0,-5.02625 0,-3.75094 1.27532,0 0,3.75094 -1.27532,0 z m 0,-4.98875 0,-3.75093 1.27532,0 0,3.75093 -1.27532,0 z m 0,-4.98874 0,-3.75093 1.27532,0 0,3.75093 -1.27532,0 z m 0,-5.02625 0,-3.75093 1.27532,0 0,3.75093 -1.27532,0 z m 0,-4.98874 0,-3.75094 1.27532,0 0,3.75094 -1.27532,0 z m 0,-4.98875 0,-3.75093 1.27532,0 0,3.75093 -1.27532,0 z m 0,-5.02625 0,-3.75093 1.27532,0 0,3.75093 -1.27532,0 z m 0,-4.98874 0,-3.75094 1.27532,0 0,3.75094 -1.27532,0 z m 0,-4.98874 0,-3.75094 1.27532,0 0,3.75094 -1.27532,0 z m 0,-5.02626 0,-3.75093 1.27532,0 0,3.75093 -1.27532,0 z m 0,-4.98874 0,-3.75093 1.27532,0 0,3.75093 -1.27532,0 z m 0,-4.98874 0,-3.75094 1.27532,0 0,3.75094 -1.27532,0 z m 0,-5.02625 0,-3.75094 1.27532,0 0,3.75094 -1.27532,0 z m 0,-4.98875 0,-3.75093 1.27532,0 0,3.75093 -1.27532,0 z m 0,-4.98874 0,-3.75093 1.27532,0 0,3.75093 -1.27532,0 z m 0,-5.02625 0,-3.75094 1.27532,0 0,3.75094 -1.27532,0 z m 0,-4.98874 0,-3.75094 1.27532,0 0,3.75094 -1.27532,0 z m 0,-4.98875 0,-3.75093 1.27532,0 0,3.75093 -1.27532,0 z m 0,-5.02625 0,-3.75093 1.27532,0 0,3.75093 -1.27532,0 z m 0,-4.98874 0,-3.75094 1.27532,0 0,3.75094 -1.27532,0 z m 0,-4.98875 0,-3.75093 1.27532,0 0,3.75093 -1.27532,0 z m 0,-5.02625 0,-3.75093 1.27532,0 0,3.75093 -1.27532,0 z m 0,-4.98874 0,-3.75093 1.27532,0 0,3.75093 -1.27532,0 z m 0,-4.98874 0,-3.75094 1.27532,0 0,3.75094 -1.27532,0 z m 0,-5.02626 0,-3.75093 1.27532,0 0,3.75093 -1.27532,0 z m 0,-4.98874 0,-3.75093 1.27532,0 0,3.75093 -1.27532,0 z m 0,-4.98874 0,-3.75094 1.27532,0 0,3.75094 -1.27532,0 z m 0,-5.02625 0,-3.75094 1.27532,0 0,3.75094 -1.27532,0 z m 0,-4.98875 0,-3.75093 1.27532,0 0,3.75093 -1.27532,0 z m 0,-4.98874 0,-3.75093 1.27532,0 0,3.75093 -1.27532,0 z m 0,-5.02625 0,-3.75094 1.27532,0 0,3.75094 -1.27532,0 z m 0,-4.98874 0,-3.75094 1.27532,0 0,3.75094 -1.27532,0 z m 0,-4.98875 0,-3.75093 1.27532,0 0,3.75093 -1.27532,0 z m 0,-5.02625 0,-3.75093 1.27532,0 0,3.75093 -1.27532,0 z m 0,-4.98874 0,-3.75094 1.27532,0 0,3.75094 -1.27532,0 z m 0,-4.98874 0,-3.75094 1.27532,0 0,3.75094 -1.27532,0 z m 0,-5.02626 0,-3.75093 1.27532,0 0,3.75093 -1.27532,0 z m 0,-4.98874 0,-3.75093 1.27532,0 0,3.75093 -1.27532,0 z m 0,-4.98874 0,-3.75094 1.27532,0 0,3.75094 -1.27532,0 z m 0,-5.02625 0,-3.75094 1.27532,0 0,3.75094 -1.27532,0 z m 0,-4.98875 0,-3.75093 1.27532,0 0,3.75093 -1.27532,0 z m 0,-4.98874 0,-3.75093 1.27532,0 0,3.75093 -1.27532,0 z m 0,-5.02625 0,-3.75094 1.27532,0 0,3.75094 -1.27532,0 z m 0,-4.98874 0,-3.75094 1.27532,0 0,3.75094 -1.27532,0 z m 0,-4.98875 0,-3.75093 1.27532,0 0,3.75093 -1.27532,0 z m 0,-5.02625 0,-3.75093 1.27532,0 0,3.75093 -1.27532,0 z m 0,-4.98874 0,-3.75094 1.27532,0 0,3.75094 -1.27532,0 z m 0,-4.98875 0,-3.75093 1.27532,0 0,3.75093 -1.27532,0 z m 0,-5.02625 0,-3.75093 1.27532,0 0,3.75093 -1.27532,0 z m 0,-4.98874 0,-3.75093 1.27532,0 0,3.75093 -1.27532,0 z m 0,-4.98874 0,-3.75094 1.27532,0 0,3.75094 -1.27532,0 z m 0,-5.02626 0,-3.75093 1.27532,0 0,3.75093 -1.27532,0 z m 0,-4.98874 0,-3.75093 1.27532,0 0,3.75093 -1.27532,0 z m 0,-4.98874 0,-3.75094 1.27532,0 0,3.75094 -1.27532,0 z m 0,-5.02625 0,-3.75094 1.27532,0 0,3.75094 -1.27532,0 z m 0,-4.98875 0,-3.75093 1.27532,0 0,1.23781 -0.63766,0 0.63766,-0.600152 0,3.113272 -1.27532,0 z m 2.51313,-3.75093 3.75093,0 0,1.23781 -3.75093,0 0,-1.23781 z m 4.98874,0 3.75093,0 0,1.23781 -3.75093,0 0,-1.23781 z m 5.02625,0 3.75094,0 0,1.23781 -3.75094,0 0,-1.23781 z m 4.98874,0 3.75094,0 0,1.23781 -3.75094,0 0,-1.23781 z m 4.98875,0 3.75093,0 0,1.23781 -3.75093,0 0,-1.23781 z m 5.02625,0 3.75093,0 0,1.23781 -3.75093,0 0,-1.23781 z m 4.98874,0 3.75094,0 0,1.23781 -3.75094,0 0,-1.23781 z m 4.98875,0 3.75093,0 0,1.23781 -3.75093,0 0,-1.23781 z m 5.02625,0 3.75093,0 0,1.23781 -3.75093,0 0,-1.23781 z m 4.98874,0 3.75094,0 0,1.23781 -3.75094,0 0,-1.23781 z m 4.98874,0 3.75094,0 0,1.23781 -3.75094,0 0,-1.23781 z m 5.02626,0 3.75093,0 0,1.23781 -3.75093,0 0,-1.23781 z m 4.98874,0 3.75093,0 0,1.23781 -3.75093,0 0,-1.23781 z m 4.98874,0 3.75094,0 0,1.23781 -3.75094,0 0,-1.23781 z m 5.02625,0 3.75094,0 0,1.23781 -3.75094,0 0,-1.23781 z m 4.98875,0 3.75093,0 0,1.23781 -3.75093,0 0,-1.23781 z m 4.98874,0 3.75093,0 0,1.23781 -3.75093,0 0,-1.23781 z m 5.02625,0 3.75094,0 0,1.23781 -3.75094,0 0,-1.23781 z m 4.98874,0 3.75094,0 0,1.23781 -3.75094,0 0,-1.23781 z m 4.98875,0 3.75093,0 0,1.23781 -3.75093,0 0,-1.23781 z m 5.02625,0 3.75093,0 0,1.23781 -3.75093,0 0,-1.23781 z m 4.98874,0 3.75094,0 0,1.23781 -3.75094,0 0,-1.23781 z m 4.98874,0 3.75094,0 0,1.23781 -3.75094,0 0,-1.23781 z m 5.02626,0 3.75093,0 0,1.23781 -3.75093,0 0,-1.23781 z m 4.98874,0 3.75093,0 0,1.23781 -3.75093,0 0,-1.23781 z m 4.98874,0 3.75094,0 0,1.23781 -3.75094,0 0,-1.23781 z m 5.02625,0 3.75094,0 0,1.23781 -3.75094,0 0,-1.23781 z m 4.98875,0 3.75093,0 0,1.23781 -3.75093,0 0,-1.23781 z m 4.98874,0 3.75093,0 0,1.23781 -3.75093,0 0,-1.23781 z m 5.02625,0 3.75094,0 0,1.23781 -3.75094,0 0,-1.23781 z m 4.98875,0 3.75093,0 0,1.23781 -3.75093,0 0,-1.23781 z m 4.98874,0 3.75093,0 0,1.23781 -3.75093,0 0,-1.23781 z m 5.02625,0 3.75093,0 0,1.23781 -3.75093,0 0,-1.23781 z m 4.98874,0 3.75094,0 0,1.23781 -3.75094,0 0,-1.23781 z m 4.98875,0 3.75093,0 0,1.23781 -3.75093,0 0,-1.23781 z m 5.02625,0 3.75093,0 0,1.23781 -3.75093,0 0,-1.23781 z m 4.98874,0 3.75094,0 0,1.23781 -3.75094,0 0,-1.23781 z m 4.98874,0 3.75094,0 0,1.23781 -3.75094,0 0,-1.23781 z m 5.02626,0 3.75093,0 0,1.23781 -3.75093,0 0,-1.23781 z m 4.98874,0 3.75093,0 0,1.23781 -3.75093,0 0,-1.23781 z m 4.98874,0 3.75094,0 0,1.23781 -3.75094,0 0,-1.23781 z m 5.02625,0 3.75094,0 0,1.23781 -3.75094,0 0,-1.23781 z m 4.98875,0 3.75093,0 0,1.23781 -3.75093,0 0,-1.23781 z m 4.98874,0 3.75093,0 0,1.23781 -3.75093,0 0,-1.23781 z m 5.02625,0 3.75094,0 0,1.23781 -3.75094,0 0,-1.23781 z m 4.98874,0 3.75094,0 0,1.23781 -3.75094,0 0,-1.23781 z m 4.98875,0 3.75093,0 0,1.23781 -3.75093,0 0,-1.23781 z m 5.02625,0 3.75093,0 0,1.23781 -3.75093,0 0,-1.23781 z m 4.98874,0 3.75094,0 0,1.23781 -3.75094,0 0,-1.23781 z m 4.98874,0 3.75094,0 0,1.23781 -3.75094,0 0,-1.23781 z m 5.02626,0 3.75093,0 0,1.23781 -3.75093,0 0,-1.23781 z m 4.98874,0 3.75093,0 0,1.23781 -3.75093,0 0,-1.23781 z m 4.98874,0 3.75094,0 0,1.23781 -3.75094,0 0,-1.23781 z m 5.02625,0 3.75094,0 0,1.23781 -3.75094,0 0,-1.23781 z m 4.98875,0 3.75093,0 0,1.23781 -3.75093,0 0,-1.23781 z m 4.98874,0 3.75093,0 0,1.23781 -3.75093,0 0,-1.23781 z m 5.02625,0 3.75094,0 0,1.23781 -3.75094,0 0,-1.23781 z m 4.98875,0 3.75093,0 0,1.23781 -3.75093,0 0,-1.23781 z m 4.98874,0 3.75093,0 0,1.23781 -3.75093,0 0,-1.23781 z m 5.02625,0 3.75093,0 0,1.23781 -3.75093,0 0,-1.23781 z m 4.98874,0 3.75094,0 0,1.23781 -3.75094,0 0,-1.23781 z m 4.98875,0 3.75093,0 0,1.23781 -3.75093,0 0,-1.23781 z m 5.02625,0 3.75093,0 0,1.23781 -3.75093,0 0,-1.23781 z m 4.98874,0 3.75094,0 0,1.23781 -3.75094,0 0,-1.23781 z m 4.98874,0 3.75094,0 0,1.23781 -3.75094,0 0,-1.23781 z m 5.02626,0 3.75093,0 0,1.23781 -3.75093,0 0,-1.23781 z m 4.98874,0 3.75093,0 0,1.23781 -3.75093,0 0,-1.23781 z m 4.98874,0 3.75094,0 0,1.23781 -3.75094,0 0,-1.23781 z m 5.02625,0 3.75094,0 0,1.23781 -3.75094,0 0,-1.23781 z m 4.98875,0 3.75093,0 0,1.23781 -3.75093,0 0,-1.23781 z m 4.98874,0 3.75093,0 0,1.23781 -3.75093,0 0,-1.23781 z m 5.02625,0 3.75094,0 0,1.23781 -3.75094,0 0,-1.23781 z m 4.98874,0 3.75094,0 0,1.23781 -3.75094,0 0,-1.23781 z m 4.98875,0 3.75093,0 0,1.23781 -3.75093,0 0,-1.23781 z m 5.02625,0 3.75093,0 0,1.23781 -3.75093,0 0,-1.23781 z m 4.98874,0 3.75094,0 0,1.23781 -3.75094,0 0,-1.23781 z m 4.98875,0 3.75093,0 0,1.23781 -3.75093,0 0,-1.23781 z m 5.02625,0 3.75093,0 0,1.23781 -3.75093,0 0,-1.23781 z m 4.98874,0 3.75093,0 0,1.23781 -3.75093,0 0,-1.23781 z m 4.98874,0 3.75094,0 0,1.23781 -3.75094,0 0,-1.23781 z m 5.02626,0 3.75093,0 0,1.23781 -3.75093,0 0,-1.23781 z m 4.98874,0 3.75093,0 0,1.23781 -3.75093,0 0,-1.23781 z m 4.98874,0 3.75094,0 0,1.23781 -3.75094,0 0,-1.23781 z m 5.02625,0 3.75094,0 0,1.23781 -3.75094,0 0,-1.23781 z m 4.98875,0 3.75093,0 0,1.23781 -3.75093,0 0,-1.23781 z m 4.98874,0 3.75093,0 0,1.23781 -3.75093,0 0,-1.23781 z m 5.02625,0 3.75094,0 0,1.23781 -3.75094,0 0,-1.23781 z m 4.98874,0 3.75094,0 0,1.23781 -3.75094,0 0,-1.23781 z m 4.98875,0 3.75093,0 0,1.23781 -3.75093,0 0,-1.23781 z m 5.02625,0 3.75093,0 0,1.23781 -3.75093,0 0,-1.23781 z m 4.98874,0 3.75094,0 0,1.23781 -3.75094,0 0,-1.23781 z m 4.98874,0 3.75094,0 0,1.23781 -3.75094,0 0,-1.23781 z m 5.02626,0 3.75093,0 0,1.23781 -3.75093,0 0,-1.23781 z m 4.98874,0 3.75093,0 0,1.23781 -3.75093,0 0,-1.23781 z m 4.98874,0 3.75094,0 0,1.23781 -3.75094,0 0,-1.23781 z m 5.02625,0 3.75094,0 0,1.23781 -3.75094,0 0,-1.23781 z m 4.98875,0 3.75093,0 0,1.23781 -3.75093,0 0,-1.23781 z m 4.98874,0 3.75093,0 0,1.23781 -3.75093,0 0,-1.23781 z m 5.02625,0 3.75094,0 0,1.23781 -3.75094,0 0,-1.23781 z m 4.98874,0 3.75094,0 0,1.23781 -3.75094,0 0,-1.23781 z m 4.98875,0 3.75093,0 0,1.23781 -3.75093,0 0,-1.23781 z m 5.02625,0 3.75093,0 0,1.23781 -3.75093,0 0,-1.23781 z m 4.98874,0 3.75094,0 0,1.23781 -3.75094,0 0,-1.23781 z m 4.98875,0 3.75093,0 0,1.23781 -3.75093,0 0,-1.23781 z m 5.02625,0 3.75093,0 0,1.23781 -3.75093,0 0,-1.23781 z m 4.98874,0 3.75093,0 0,1.23781 -3.75093,0 0,-1.23781 z m 4.98874,0 3.75094,0 0,1.23781 -3.75094,0 0,-1.23781 z m 5.02626,0 3.75093,0 0,1.23781 -3.75093,0 0,-1.23781 z m 4.98874,0 3.75093,0 0,1.23781 -3.75093,0 0,-1.23781 z m 4.98874,0 3.75094,0 0,1.23781 -3.75094,0 0,-1.23781 z m 5.02625,0 3.75094,0 0,1.23781 -3.75094,0 0,-1.23781 z m 4.98875,0 3.75093,0 0,1.23781 -3.75093,0 0,-1.23781 z m 4.98874,0 3.75093,0 0,1.23781 -3.75093,0 0,-1.23781 z m 5.02625,0 3.75094,0 0,1.23781 -3.75094,0 0,-1.23781 z m 4.98874,0 3.75094,0 0,1.23781 -3.75094,0 0,-1.23781 z m 4.98875,0 3.75093,0 0,1.23781 -3.75093,0 0,-1.23781 z m 5.02625,0 3.75093,0 0,1.23781 -3.75093,0 0,-1.23781 z m 4.98874,0 2.17554,0 0,2.8132 -1.2378,0 0,-2.175542 0.63765,0.600152 -1.57539,0 0,-1.23781 z m 2.17554,4.05101 0,3.75093 -1.2378,0 0,-3.75093 1.2378,0 z m 0,5.02625 0,3.75094 -1.2378,0 0,-3.75094 1.2378,0 z m 0,4.98874 0,3.75094 -1.2378,0 0,-3.75094 1.2378,0 z m 0,4.98875 0,3.75093 -1.2378,0 0,-3.75093 1.2378,0 z m 0,5.02625 0,3.75093 -1.2378,0 0,-3.75093 1.2378,0 z m 0,4.98874 0,3.75094 -1.2378,0 0,-3.75094 1.2378,0 z m 0,4.98874 0,3.75094 -1.2378,0 0,-3.75094 1.2378,0 z m 0,5.02626 0,3.75093 -1.2378,0 0,-3.75093 1.2378,0 z m 0,4.98874 0,3.75093 -1.2378,0 0,-3.75093 1.2378,0 z m 0,4.98874 0,3.75094 -1.2378,0 0,-3.75094 1.2378,0 z m 0,5.02625 0,3.75094 -1.2378,0 0,-3.75094 1.2378,0 z m 0,4.98875 0,3.75093 -1.2378,0 0,-3.75093 1.2378,0 z m 0,4.98874 0,3.75093 -1.2378,0 0,-3.75093 1.2378,0 z m 0,5.02625 0,3.75094 -1.2378,0 0,-3.75094 1.2378,0 z m 0,4.98874 0,3.75094 -1.2378,0 0,-3.75094 1.2378,0 z m 0,4.98875 0,3.75093 -1.2378,0 0,-3.75093 1.2378,0 z m 0,5.02625 0,3.75093 -1.2378,0 0,-3.75093 1.2378,0 z m 0,4.98874 0,3.75094 -1.2378,0 0,-3.75094 1.2378,0 z m 0,4.98875 0,3.75093 -1.2378,0 0,-3.75093 1.2378,0 z m 0,5.02625 0,3.75093 -1.2378,0 0,-3.75093 1.2378,0 z m 0,4.98874 0,3.75094 -1.2378,0 0,-3.75094 1.2378,0 z m 0,4.98874 0,3.75094 -1.2378,0 0,-3.75094 1.2378,0 z m 0,5.02626 0,3.75093 -1.2378,0 0,-3.75093 1.2378,0 z m 0,4.98874 0,3.75093 -1.2378,0 0,-3.75093 1.2378,0 z m 0,4.98874 0,3.75094 -1.2378,0 0,-3.75094 1.2378,0 z m 0,5.02625 0,3.75094 -1.2378,0 0,-3.75094 1.2378,0 z m 0,4.98875 0,3.75093 -1.2378,0 0,-3.75093 1.2378,0 z m 0,4.98874 0,3.75093 -1.2378,0 0,-3.75093 1.2378,0 z m 0,5.02625 0,3.75094 -1.2378,0 0,-3.75094 1.2378,0 z m 0,4.98874 0,3.75094 -1.2378,0 0,-3.75094 1.2378,0 z m 0,4.98875 0,3.75093 -1.2378,0 0,-3.75093 1.2378,0 z m 0,5.02625 0,3.75093 -1.2378,0 0,-3.75093 1.2378,0 z m 0,4.98874 0,3.75094 -1.2378,0 0,-3.75094 1.2378,0 z m 0,4.98874 0,3.75094 -1.2378,0 0,-3.75094 1.2378,0 z m 0,5.02626 0,3.75093 -1.2378,0 0,-3.75093 1.2378,0 z m 0,4.98874 0,3.75093 -1.2378,0 0,-3.75093 1.2378,0 z m 0,4.98874 0,3.75094 -1.2378,0 0,-3.75094 1.2378,0 z m 0,5.02625 0,3.75094 -1.2378,0 0,-3.75094 1.2378,0 z m 0,4.98875 0,3.75093 -1.2378,0 0,-3.75093 1.2378,0 z m 0,4.98874 0,3.75093 -1.2378,0 0,-3.75093 1.2378,0 z m 0,5.02625 0,3.75094 -1.2378,0 0,-3.75094 1.2378,0 z m 0,4.98875 0,3.75093 -1.2378,0 0,-3.75093 1.2378,0 z m 0,4.98874 0,3.75093 -1.2378,0 0,-3.75093 1.2378,0 z m 0,5.02625 0,3.75093 -1.2378,0 0,-3.75093 1.2378,0 z m 0,4.98874 0,3.75094 -1.2378,0 0,-3.75094 1.2378,0 z m 0,4.98875 0,3.75093 -1.2378,0 0,-3.75093 1.2378,0 z m 0,5.02625 0,3.75093 -1.2378,0 0,-3.75093 1.2378,0 z m 0,4.98874 0,3.75094 -1.2378,0 0,-3.75094 1.2378,0 z m 0,4.98874 0,3.75094 -1.2378,0 0,-3.75094 1.2378,0 z m 0,5.02626 0,3.75093 -1.2378,0 0,-3.75093 1.2378,0 z m 0,4.98874 0,3.75093 -1.2378,0 0,-3.75093 1.2378,0 z m 0,4.98874 0,3.75094 -1.2378,0 0,-3.75094 1.2378,0 z m 0,5.02625 0,3.75094 -1.2378,0 0,-3.75094 1.2378,0 z m 0,4.98875 0,3.75093 -1.2378,0 0,-3.75093 1.2378,0 z m 0,4.98874 0,3.75093 -1.2378,0 0,-3.75093 1.2378,0 z m 0,5.02625 0,3.75094 -1.2378,0 0,-3.75094 1.2378,0 z m 0,4.98874 0,3.75094 -1.2378,0 0,-3.75094 1.2378,0 z m 0,4.98875 0,3.75093 -1.2378,0 0,-3.75093 1.2378,0 z m 0,5.02625 0,3.75093 -1.2378,0 0,-3.75093 1.2378,0 z m 0,4.98874 0,3.75094 -1.2378,0 0,-3.75094 1.2378,0 z m 0,4.98874 0,3.75094 -1.2378,0 0,-3.75094 1.2378,0 z m 0,5.02626 0,3.75093 -1.2378,0 0,-3.75093 1.2378,0 z m 0,4.98874 0,3.75093 -1.2378,0 0,-3.75093 1.2378,0 z m 0,4.98874 0,3.75094 -1.2378,0 0,-3.75094 1.2378,0 z m 0,5.02625 0,3.75094 -1.2378,0 0,-3.75094 1.2378,0 z m 0,4.98875 0,3.75093 -1.2378,0 0,-3.75093 1.2378,0 z m 0,4.98874 0,3.75093 -1.2378,0 0,-3.75093 1.2378,0 z m 0,5.02625 0,3.75094 -1.2378,0 0,-3.75094 1.2378,0 z m 0,4.98875 0,3.75093 -1.2378,0 0,-3.75093 1.2378,0 z m 0,4.98874 0,3.75093 -1.2378,0 0,-3.75093 1.2378,0 z m 0,5.02625 0,3.75093 -1.2378,0 0,-3.75093 1.2378,0 z m 0,4.98874 0,3.75094 -1.2378,0 0,-3.75094 1.2378,0 z m -0.93773,5.32633 -3.75093,0 0,-1.27532 3.75093,0 0,1.27532 z m -4.98874,0 -3.75094,0 0,-1.27532 3.75094,0 0,1.27532 z m -4.98875,0 -3.75093,0 0,-1.27532 3.75093,0 0,1.27532 z m -5.02625,0 -3.75093,0 0,-1.27532 3.75093,0 0,1.27532 z m -4.98874,0 -3.75094,0 0,-1.27532 3.75094,0 0,1.27532 z m -4.98874,0 -3.75094,0 0,-1.27532 3.75094,0 0,1.27532 z m -5.02626,0 -3.75093,0 0,-1.27532 3.75093,0 0,1.27532 z m -4.98874,0 -3.75093,0 0,-1.27532 3.75093,0 0,1.27532 z m -4.98874,0 -3.75094,0 0,-1.27532 3.75094,0 0,1.27532 z m -5.02625,0 -3.75094,0 0,-1.27532 3.75094,0 0,1.27532 z m -4.98875,0 -3.75093,0 0,-1.27532 3.75093,0 0,1.27532 z m -4.98874,0 -3.75093,0 0,-1.27532 3.75093,0 0,1.27532 z m -5.02625,0 -3.75094,0 0,-1.27532 3.75094,0 0,1.27532 z m -4.98874,0 -3.75094,0 0,-1.27532 3.75094,0 0,1.27532 z m -4.98875,0 -3.75093,0 0,-1.27532 3.75093,0 0,1.27532 z m -5.02625,0 -3.75093,0 0,-1.27532 3.75093,0 0,1.27532 z m -4.98874,0 -3.75094,0 0,-1.27532 3.75094,0 0,1.27532 z m -4.98874,0 -3.75094,0 0,-1.27532 3.75094,0 0,1.27532 z m -5.02626,0 -3.75093,0 0,-1.27532 3.75093,0 0,1.27532 z m -4.98874,0 -3.75093,0 0,-1.27532 3.75093,0 0,1.27532 z m -4.98874,0 -3.75094,0 0,-1.27532 3.75094,0 0,1.27532 z m -5.02625,0 -3.75094,0 0,-1.27532 3.75094,0 0,1.27532 z m -4.98875,0 -3.75093,0 0,-1.27532 3.75093,0 0,1.27532 z m -4.98874,0 -3.75093,0 0,-1.27532 3.75093,0 0,1.27532 z m -5.02625,0 -3.75094,0 0,-1.27532 3.75094,0 0,1.27532 z m -4.98875,0 -3.75093,0 0,-1.27532 3.75093,0 0,1.27532 z m -4.98874,0 -3.75093,0 0,-1.27532 3.75093,0 0,1.27532 z m -5.02625,0 -3.75093,0 0,-1.27532 3.75093,0 0,1.27532 z m -4.98874,0 -3.75094,0 0,-1.27532 3.75094,0 0,1.27532 z m -4.98875,0 -3.75093,0 0,-1.27532 3.75093,0 0,1.27532 z m -5.02625,0 -3.75093,0 0,-1.27532 3.75093,0 0,1.27532 z m -4.98874,0 -3.75094,0 0,-1.27532 3.75094,0 0,1.27532 z m -4.98874,0 -3.75094,0 0,-1.27532 3.75094,0 0,1.27532 z m -5.02626,0 -3.75093,0 0,-1.27532 3.75093,0 0,1.27532 z m -4.98874,0 -3.75093,0 0,-1.27532 3.75093,0 0,1.27532 z m -4.98874,0 -3.75094,0 0,-1.27532 3.75094,0 0,1.27532 z m -5.02625,0 -3.75094,0 0,-1.27532 3.75094,0 0,1.27532 z m -4.98875,0 -3.75093,0 0,-1.27532 3.75093,0 0,1.27532 z m -4.98874,0 -3.75093,0 0,-1.27532 3.75093,0 0,1.27532 z m -5.02625,0 -3.75094,0 0,-1.27532 3.75094,0 0,1.27532 z m -4.98874,0 -3.75094,0 0,-1.27532 3.75094,0 0,1.27532 z m -4.98875,0 -3.75093,0 0,-1.27532 3.75093,0 0,1.27532 z m -5.02625,0 -3.75093,0 0,-1.27532 3.75093,0 0,1.27532 z m -4.98874,0 -3.75094,0 0,-1.27532 3.75094,0 0,1.27532 z m -4.98874,0 -3.75094,0 0,-1.27532 3.75094,0 0,1.27532 z m -5.02626,0 -3.75093,0 0,-1.27532 3.75093,0 0,1.27532 z m -4.98874,0 -3.75093,0 0,-1.27532 3.75093,0 0,1.27532 z m -4.98874,0 -3.75094,0 0,-1.27532 3.75094,0 0,1.27532 z m -5.02625,0 -3.75094,0 0,-1.27532 3.75094,0 0,1.27532 z m -4.98875,0 -3.75093,0 0,-1.27532 3.75093,0 0,1.27532 z m -4.98874,0 -3.75094,0 0,-1.27532 3.75094,0 0,1.27532 z m -5.02625,0 -3.75094,0 0,-1.27532 3.75094,0 0,1.27532 z m -4.98875,0 -3.75093,0 0,-1.27532 3.75093,0 0,1.27532 z m -4.98874,0 -3.75093,0 0,-1.27532 3.75093,0 0,1.27532 z m -5.02625,0 -3.75093,0 0,-1.27532 3.75093,0 0,1.27532 z m -4.98874,0 -3.75094,0 0,-1.27532 3.75094,0 0,1.27532 z m -4.98875,0 -3.75093,0 0,-1.27532 3.75093,0 0,1.27532 z m -5.02625,0 -3.75093,0 0,-1.27532 3.75093,0 0,1.27532 z m -4.98874,0 -3.75094,0 0,-1.27532 3.75094,0 0,1.27532 z m -4.98874,0 -3.75094,0 0,-1.27532 3.75094,0 0,1.27532 z m -5.02626,0 -3.75093,0 0,-1.27532 3.75093,0 0,1.27532 z m -4.98874,0 -3.75093,0 0,-1.27532 3.75093,0 0,1.27532 z m -4.98874,0 -3.75094,0 0,-1.27532 3.75094,0 0,1.27532 z m -5.02625,0 -3.75094,0 0,-1.27532 3.75094,0 0,1.27532 z m -4.98875,0 -3.75093,0 0,-1.27532 3.75093,0 0,1.27532 z m -4.98874,0 -3.75093,0 0,-1.27532 3.75093,0 0,1.27532 z m -5.02625,0 -3.75094,0 0,-1.27532 3.75094,0 0,1.27532 z m -4.98874,0 -3.75094,0 0,-1.27532 3.75094,0 0,1.27532 z m -4.98875,0 -3.75093,0 0,-1.27532 3.75093,0 0,1.27532 z m -5.02625,0 -3.75093,0 0,-1.27532 3.75093,0 0,1.27532 z m -4.98874,0 -3.75094,0 0,-1.27532 3.75094,0 0,1.27532 z m -4.98875,0 -3.75093,0 0,-1.27532 3.75093,0 0,1.27532 z m -5.02625,0 -3.75093,0 0,-1.27532 3.75093,0 0,1.27532 z m -4.98874,0 -3.75093,0 0,-1.27532 3.75093,0 0,1.27532 z m -4.98874,0 -3.75094,0 0,-1.27532 3.75094,0 0,1.27532 z m -5.02626,0 -3.75093,0 0,-1.27532 3.75093,0 0,1.27532 z m -4.98874,0 -3.75093,0 0,-1.27532 3.75093,0 0,1.27532 z m -4.98874,0 -3.75094,0 0,-1.27532 3.75094,0 0,1.27532 z m -5.02625,0 -3.75094,0 0,-1.27532 3.75094,0 0,1.27532 z m -4.98875,0 -3.75093,0 0,-1.27532 3.75093,0 0,1.27532 z m -4.98874,0 -3.75093,0 0,-1.27532 3.75093,0 0,1.27532 z m -5.02625,0 -3.75094,0 0,-1.27532 3.75094,0 0,1.27532 z m -4.98874,0 -3.75094,0 0,-1.27532 3.75094,0 0,1.27532 z m -4.98875,0 -3.75093,0 0,-1.27532 3.75093,0 0,1.27532 z m -5.02625,0 -3.75093,0 0,-1.27532 3.75093,0 0,1.27532 z m -4.98874,0 -3.75094,0 0,-1.27532 3.75094,0 0,1.27532 z m -4.98874,0 -3.75094,0 0,-1.27532 3.75094,0 0,1.27532 z m -5.02626,0 -3.75093,0 0,-1.27532 3.75093,0 0,1.27532 z m -4.98874,0 -3.75093,0 0,-1.27532 3.75093,0 0,1.27532 z m -4.98874,0 -3.75094,0 0,-1.27532 3.75094,0 0,1.27532 z m -5.02625,0 -3.75094,0 0,-1.27532 3.75094,0 0,1.27532 z m -4.98875,0 -3.75093,0 0,-1.27532 3.75093,0 0,1.27532 z m -4.98874,0 -3.75093,0 0,-1.27532 3.75093,0 0,1.27532 z m -5.02625,0 -3.75094,0 0,-1.27532 3.75094,0 0,1.27532 z m -4.98874,0 -3.75094,0 0,-1.27532 3.75094,0 0,1.27532 z m -4.98875,0 -3.75093,0 0,-1.27532 3.75093,0 0,1.27532 z m -5.02625,0 -3.75093,0 0,-1.27532 3.75093,0 0,1.27532 z m -4.98874,0 -3.75094,0 0,-1.27532 3.75094,0 0,1.27532 z m -4.98875,0 -3.75093,0 0,-1.27532 3.75093,0 0,1.27532 z m -5.02625,0 -3.75093,0 0,-1.27532 3.75093,0 0,1.27532 z m -4.98874,0 -3.75093,0 0,-1.27532 3.75093,0 0,1.27532 z m -4.98874,0 -3.75094,0 0,-1.27532 3.75094,0 0,1.27532 z m -5.02626,0 -3.75093,0 0,-1.27532 3.75093,0 0,1.27532 z m -4.98874,0 -3.75093,0 0,-1.27532 3.75093,0 0,1.27532 z m -4.98874,0 -3.75094,0 0,-1.27532 3.75094,0 0,1.27532 z m -5.02625,0 -3.75094,0 0,-1.27532 3.75094,0 0,1.27532 z m -4.98875,0 -3.75093,0 0,-1.27532 3.75093,0 0,1.27532 z m -4.98874,0 -3.75093,0 0,-1.27532 3.75093,0 0,1.27532 z m -5.02625,0 -3.75094,0 0,-1.27532 3.75094,0 0,1.27532 z m -4.98874,0 -3.75094,0 0,-1.27532 3.75094,0 0,1.27532 z m -4.98875,0 -3.75093,0 0,-1.27532 3.75093,0 0,1.27532 z m -5.02625,0 -3.75093,0 0,-1.27532 3.75093,0 0,1.27532 z m -4.98874,0 -3.75094,0 0,-1.27532 3.75094,0 0,1.27532 z m -4.98874,0 -3.75094,0 0,-1.27532 3.75094,0 0,1.27532 z m -5.02626,0 -3.75093,0 0,-1.27532 3.75093,0 0,1.27532 z m -4.98874,0 -3.75093,0 0,-1.27532 3.75093,0 0,1.27532 z m -4.98874,0 -3.75094,0 0,-1.27532 3.75094,0 0,1.27532 z m -5.02625,0 -3.11328,0 0,-1.27532 3.11328,0 0,1.27532 z"
         style="fill:#000000;fill-opacity:1;fill-rule:nonzero;stroke:#000000;stroke-width:0.03750934px;stroke-linecap:butt;stroke-linejoin:round;stroke-opacity:1;stroke-dasharray:none"
         inkscape:connector-curvature="0" />
      <path
         id="path3202"
         d="m 293.13553,229.20085 0,101.91289 29.68864,0 0,-101.91289 -29.68864,0 z"
         style="fill:#ffffff;fill-opacity:1;fill-rule:evenodd;stroke:none"
         inkscape:connector-curvature="0" />
      <path
         id="path3204"
         d="m 293.13553,229.20085 29.68864,0 0,101.91289 -29.68864,0 z"
         style="fill:none;stroke:#000000;stroke-width:1.25656307px;stroke-linecap:butt;stroke-linejoin:miter;stroke-miterlimit:4;stroke-opacity:1;stroke-dasharray:none"
         inkscape:connector-curvature="0" />
      <text
         id="text3206"
         style="font-size:22.5056076px;font-style:normal;font-weight:normal;text-align:start;text-anchor:start;fill:#000000;font-family:Calibri"
         y="302.33319"
         x="315.52737"
         xml:space="preserve">REST</text>
      <text
         id="text3208"
         style="font-size:19.95497131px;font-style:italic;font-weight:normal;text-align:start;text-anchor:start;fill:#000000;font-family:Verdana"
         y="130.10928"
         x="316.13495"
         xml:space="preserve">Internal</text>
      <text
         id="text3210"
         style="font-size:19.95497131px;font-style:italic;font-weight:normal;text-align:start;text-anchor:start;fill:#000000;font-family:Verdana"
         y="130.10928"
         x="200.44704"
         xml:space="preserve">External</text>
      <path
         id="path3212"
         d="m 60.258762,197.50545 c 0,-4.50112 3.647784,-8.15828 8.148905,-8.15828 l 119.664183,0 c 4.5105,0 8.15829,3.65716 8.15829,8.15828 l 0,32.61438 c 0,4.50112 -3.64779,8.1489 -8.15829,8.1489 l -119.664183,0 c -4.501121,0 -8.148905,-3.64778 -8.148905,-8.1489 z"
         style="fill:none;stroke:#7f7f7f;stroke-width:1.24718571px;stroke-linecap:butt;stroke-linejoin:miter;stroke-miterlimit:4;stroke-opacity:1;stroke-dasharray:none"
         inkscape:connector-curvature="0" />
      <text
         id="text3214"
         style="font-size:19.95497131px;font-style:normal;font-weight:normal;text-align:start;text-anchor:start;fill:#000000;font-family:Verdana"
         y="221.69411"
         x="87.575058"
         xml:space="preserve">Browser</text>
      <path
         id="path3216"
         d="m 60.258762,260.51178 c 0,-4.5105 3.657161,-8.17704 8.177037,-8.17704 l 119.617301,0 c 4.5105,0 8.17704,3.66654 8.17704,8.17704 l 0,32.71752 c 0,4.51988 -3.66654,8.17704 -8.17704,8.17704 l -119.617301,0 c -4.519876,0 -8.177037,-3.65716 -8.177037,-8.17704 z"
         style="fill:none;stroke:#7f7f7f;stroke-width:1.24718571px;stroke-linecap:butt;stroke-linejoin:miter;stroke-miterlimit:4;stroke-opacity:1;stroke-dasharray:none"
         inkscape:connector-curvature="0" />
      <text
         id="text3218"
         style="font-size:19.95497131px;font-style:normal;font-weight:normal;text-align:start;text-anchor:start;fill:#000000;font-family:Verdana"
         y="284.72891"
         x="111.5811"
         xml:space="preserve">CLI</text>
      <path
         id="path3220"
         d="m 60.258762,323.49934 c 0,-4.51987 3.657161,-8.17704 8.177037,-8.17704 l 119.617301,0 c 4.51987,0 8.17704,3.65717 8.17704,8.17704 l 0,32.7269 c 0,4.51988 -3.65717,8.17704 -8.17704,8.17704 l -119.617301,0 c -4.519876,0 -8.177037,-3.65716 -8.177037,-8.17704 z"
         style="fill:none;stroke:#7f7f7f;stroke-width:1.25656307px;stroke-linecap:butt;stroke-linejoin:miter;stroke-miterlimit:4;stroke-opacity:1;stroke-dasharray:none"
         inkscape:connector-curvature="0" />
      <text
         id="text3222"
         style="font-size:19.95497131px;font-style:normal;font-weight:normal;text-align:start;text-anchor:start;fill:#000000;font-family:Verdana"
         y="347.7637"
         x="103.17585"
         xml:space="preserve">Tools</text>
      <path
         id="path3224"
         d="m 273.97763,266.09129 -59.94931,0 0,-1.87547 59.94931,0 z m -52.92569,4.24793 -8.88971,-5.18566 8.88971,-5.18567 c 0.45012,-0.26257 1.02213,-0.11253 1.2847,0.33758 0.26257,0.44074 0.11253,1.02213 -0.33758,1.2847 l -7.50187,4.36984 0,-1.62228 7.50187,4.37921 c 0.45011,0.26257 0.60015,0.83459 0.33758,1.2847 -0.26257,0.45011 -0.83458,0.60015 -1.2847,0.33758 z"
         style="fill:#000000;fill-opacity:1;fill-rule:nonzero;stroke:#000000;stroke-width:0.00937734px;stroke-linecap:butt;stroke-linejoin:round;stroke-opacity:1;stroke-dasharray:none"
         inkscape:connector-curvature="0" />
      <path
         id="path3226"
         d="m 272.13029,295.94873 -59.95868,0 0,-1.87547 59.95868,0 z m -7.033,-6.13278 8.88972,5.19504 -8.88972,5.17629 c -0.45011,0.26257 -1.0315,0.11253 -1.29407,-0.33758 -0.24381,-0.45011 -0.0938,-1.01275 0.33758,-1.27532 l 7.50187,-4.36984 0,1.61291 -7.50187,-4.36984 c -0.43135,-0.26257 -0.58139,-0.84396 -0.33758,-1.29408 0.26257,-0.45011 0.84396,-0.60014 1.29407,-0.33758 z"
         style="fill:#000000;fill-opacity:1;fill-rule:nonzero;stroke:#000000;stroke-width:0.01875467px;stroke-linecap:butt;stroke-linejoin:round;stroke-opacity:1;stroke-dasharray:none"
         inkscape:connector-curvature="0" />
      <text
         id="text3228"
         style="font-size:19.95497131px;font-style:italic;font-weight:normal;text-align:start;text-anchor:start;fill:#000000;font-family:Verdana"
         y="288.96088"
         x="218.86954"
         xml:space="preserve">HTTP</text>
      <path
         id="path3230"
         d="m 330.47608,258.3081 c 0,-6.15153 4.98874,-11.12152 11.14028,-11.12152 l 126.68781,0 c 6.15153,0 11.12152,4.96999 11.12152,11.12152 l 0,44.48608 c 0,6.15154 -4.96999,11.12152 -11.12152,11.12152 l -126.68781,0 c -6.15154,0 -11.14028,-4.96998 -11.14028,-11.12152 z"
         style="fill:#afabab;fill-opacity:1;fill-rule:evenodd;stroke:none"
         inkscape:connector-curvature="0" />
      <text
         id="text3232"
         style="font-size:19.95497131px;font-style:normal;font-weight:normal;text-align:start;text-anchor:start;fill:#000000;font-family:Verdana"
         y="288.43024"
         x="351.6857"
         xml:space="preserve">Dispatcher</text>
    </g>
  </g>
</svg>
