<?xml version="1.0" encoding="UTF-8" standalone="no"?>
<!--
Licensed to the Apache Software Foundation (ASF) under one
or more contributor license agreements.  See the NOTICE file
distributed with this work for additional information
regarding copyright ownership.  The ASF licenses this file
to you under the Apache License, Version 2.0 (the
"License"); you may not use this file except in compliance
with the License.  You may obtain a copy of the License at

http://www.apache.org/licenses/LICENSE-2.0

Unless required by applicable law or agreed to in writing,
software distributed under the License is distributed on an
"AS IS" BASIS, WITHOUT WARRANTIES OR CONDITIONS OF ANY
KIND, either express or implied.  See the License for the
specific language governing permissions and limitations
under the License.
-->

<svg
   xmlns:dc="http://purl.org/dc/elements/1.1/"
   xmlns:cc="http://creativecommons.org/ns#"
   xmlns:rdf="http://www.w3.org/1999/02/22-rdf-syntax-ns#"
   xmlns:svg="http://www.w3.org/2000/svg"
   xmlns="http://www.w3.org/2000/svg"
   version="1.1"
   width="1238.8232"
   height="221.09566"
   id="svg2">
  <defs
     id="defs4" />
  <metadata
     id="metadata7">
    <rdf:RDF>
      <cc:Work
         rdf:about="">
        <dc:format>image/svg+xml</dc:format>
        <dc:type
           rdf:resource="http://purl.org/dc/dcmitype/StillImage" />
        <dc:title></dc:title>
      </cc:Work>
    </rdf:RDF>
  </metadata>
  <g
     transform="translate(307.98305,-396.10006)"
     id="layer1">
    <g
       transform="translate(-313.94491,396.17508)"
       id="g2989">
      <path
         d="m 150.43123,97.139825 c 0,-28.47897 23.13388,-51.575349 51.65974,-51.575349 28.52586,0 51.65037,23.096379 51.65037,51.575349 0,28.488345 -23.12451,51.575345 -51.65037,51.575345 -28.52586,0 -51.65974,-23.087 -51.65974,-51.575345"
         id="path2991"
         style="fill:#8a3142;fill-opacity:1;fill-rule:evenodd;stroke:none" />
      <path
         d="M 23.368322,-0.07501869 162.13414,64.047206 151.37834,87.312377 12.612517,23.190152 z"
         id="path2993"
         style="fill:#e4eaf4;fill-opacity:1;fill-rule:evenodd;stroke:none" />
      <path
         d="m 156.39521,63.156359 2.52251,1.16279 -9.41485,20.376951 -2.53188,-1.172167 z"
         id="path2995"
         style="fill:#6e7277;fill-opacity:1;fill-rule:evenodd;stroke:none" />
      <path
         d="m 143.23881,63.944055 7.9426,3.666538 -4.18229,9.058507 -7.9426,-3.666538 z"
         id="path2997"
         style="fill:#f5a030;fill-opacity:1;fill-rule:evenodd;stroke:none" />
      <path
         d="m 145.30182,74.193483 -3.11327,-1.434732 0.27194,-0.590772 1.2003,0.553263 1.77232,-3.844708 -1.19093,-0.553263 0.24382,-0.525131 c 0.15941,0.07502 0.33758,0.14066 0.5345,0.196924 0.19693,0.05626 0.35634,0.0844 0.47825,0.07502 0.15003,-0.0094 0.28132,-0.04689 0.39385,-0.112528 0.11252,-0.06564 0.21567,-0.187547 0.30007,-0.346962 l 0.60015,0.281321 -2.39122,5.176289 1.17217,0.534508 z"
         id="path2999"
         style="fill:#000000;fill-opacity:1;fill-rule:nonzero;stroke:none" />
      <path
         d="m 127.49426,56.667242 7.95198,3.666539 -4.19167,9.067884 -7.9426,-3.675916 z"
         id="path3001"
         style="fill:#f5a030;fill-opacity:1;fill-rule:evenodd;stroke:none" />
      <path
         d="m 129.88548,67.066708 -3.89159,-1.791071 0.37509,-0.806451 c 0.3751,-0.112528 0.75019,-0.215679 1.13466,-0.31883 0.37509,-0.112528 0.73143,-0.225056 1.07839,-0.346961 0.71268,-0.243811 1.22843,-0.468867 1.53789,-0.665791 0.30945,-0.196924 0.54388,-0.459489 0.69392,-0.787696 0.14066,-0.300075 0.15004,-0.581395 0.0281,-0.834583 -0.1219,-0.262565 -0.35634,-0.468867 -0.7033,-0.637659 -0.23443,-0.103151 -0.50638,-0.178169 -0.81583,-0.225056 -0.30945,-0.04689 -0.63766,-0.03751 -0.97524,0.0094 l -0.0375,-0.01875 0.37509,-0.806451 c 0.22506,-0.0094 0.50638,0.01875 0.84396,0.0844 0.33759,0.06564 0.64704,0.168792 0.93774,0.300075 0.58139,0.271942 0.98462,0.628281 1.18154,1.069016 0.2063,0.431357 0.19693,0.900224 -0.0281,1.387846 -0.10315,0.215678 -0.22506,0.403225 -0.36572,0.572017 -0.14066,0.159415 -0.30945,0.300075 -0.497,0.42198 -0.16879,0.112528 -0.36571,0.215679 -0.57201,0.309452 -0.2063,0.09377 -0.44074,0.187547 -0.72206,0.28132 -0.40322,0.150038 -0.80645,0.271943 -1.21905,0.393849 -0.4126,0.121905 -0.7877,0.225056 -1.14404,0.328206 l 3.08515,1.425355 z"
         id="path3003"
         style="fill:#000000;fill-opacity:1;fill-rule:nonzero;stroke:none" />
      <path
         d="m 109.69608,48.443318 7.9426,3.666539 -4.18229,9.058507 -7.95198,-3.666539 z"
         id="path3005"
         style="fill:#f5a030;fill-opacity:1;fill-rule:evenodd;stroke:none" />
      <path
         d="m 112.85624,55.842037 c 0.075,0.168792 0.11253,0.356338 0.11253,0.56264 0,0.196924 -0.0563,0.431357 -0.17817,0.7033 -0.12191,0.253188 -0.28132,0.478244 -0.47825,0.647036 -0.19692,0.17817 -0.42198,0.309452 -0.66579,0.393848 -0.28132,0.0844 -0.56264,0.112528 -0.86271,0.0844 -0.30008,-0.03751 -0.60953,-0.131282 -0.91898,-0.271942 -0.31883,-0.150038 -0.6189,-0.328207 -0.89085,-0.543886 -0.27194,-0.225056 -0.48762,-0.42198 -0.64703,-0.600149 l 0.37509,-0.806451 0.0563,0.01875 c 0.15004,0.253188 0.35634,0.487622 0.60953,0.722055 0.25319,0.225056 0.51575,0.412603 0.7877,0.534508 0.15941,0.07502 0.34696,0.131283 0.55326,0.159415 0.2063,0.02813 0.39385,0.01875 0.55326,-0.03751 0.1688,-0.05626 0.31883,-0.14066 0.44074,-0.253188 0.1219,-0.103151 0.22505,-0.262566 0.3282,-0.468867 0.0938,-0.206301 0.14066,-0.393848 0.13129,-0.56264 0,-0.159415 -0.0469,-0.309452 -0.12191,-0.440735 -0.075,-0.131283 -0.19692,-0.253188 -0.34696,-0.356339 -0.15004,-0.112528 -0.31883,-0.206301 -0.50638,-0.290697 l -0.34696,-0.159415 0.2907,-0.647036 0.27194,0.131283 c 0.39385,0.178169 0.74081,0.24381 1.05026,0.187546 0.30946,-0.05626 0.53451,-0.24381 0.67517,-0.553263 0.0656,-0.14066 0.0938,-0.28132 0.0844,-0.412602 -0.009,-0.131283 -0.0563,-0.253188 -0.13128,-0.365716 -0.075,-0.121906 -0.17817,-0.225057 -0.2907,-0.309453 -0.11253,-0.07502 -0.25319,-0.159414 -0.4126,-0.234433 -0.24381,-0.112528 -0.52513,-0.187547 -0.83459,-0.225056 -0.31883,-0.03751 -0.63766,-0.03751 -0.95649,0.0094 l -0.0375,-0.01875 0.37509,-0.806451 c 0.22506,-0.0094 0.50638,0.02813 0.84396,0.09377 0.33758,0.05626 0.65641,0.159415 0.93773,0.290698 0.28132,0.131282 0.51576,0.271942 0.7033,0.42198 0.19693,0.150037 0.34696,0.318829 0.46887,0.515753 0.13128,0.206302 0.19692,0.42198 0.21568,0.637659 0.009,0.215679 -0.0375,0.450112 -0.14066,0.675168 -0.15004,0.31883 -0.39385,0.553263 -0.72206,0.684546 -0.33758,0.131282 -0.67516,0.159414 -1.01275,0.0844 l -0.0187,0.04689 c 0.11252,0.0844 0.23443,0.187547 0.36571,0.328207 0.12191,0.14066 0.22506,0.28132 0.2907,0.431358 z"
         id="path3007"
         style="fill:#000000;fill-opacity:1;fill-rule:nonzero;stroke:none" />
      <path
         d="m 79.969923,34.705521 7.951981,3.675916 -4.19167,9.058506 -7.942603,-3.675915 z"
         id="path3009"
         style="fill:#f5a030;fill-opacity:1;fill-rule:evenodd;stroke:none" />
      <path
         d="m 83.242613,43.548349 -0.853338,-0.393848 -0.750187,1.622279 -0.740809,-0.346961 0.750187,-1.612902 -2.756937,-1.275318 0.412603,-0.88147 4.276065,-1.959863 0.712677,0.328207 -1.622279,3.516501 0.853338,0.393848 -0.28132,0.609527 z m -1.312827,-1.350336 1.200299,-2.588145 -3.422728,1.556638 2.222429,1.031507 z"
         id="path3011"
         style="fill:#000000;fill-opacity:1;fill-rule:nonzero;stroke:none" />
      <path
         d="m 48.696507,20.255046 7.942603,3.666538 -4.182292,9.058507 -7.951981,-3.666538 z"
         id="path3013"
         style="fill:#f5a030;fill-opacity:1;fill-rule:evenodd;stroke:none" />
      <path
         d="m 51.875423,28.807177 c -0.121905,0.271942 -0.290697,0.496998 -0.496998,0.7033 -0.215679,0.196924 -0.440735,0.337584 -0.684546,0.431357 -0.271943,0.09377 -0.553263,0.131283 -0.853337,0.103151 -0.300075,-0.01875 -0.618905,-0.103151 -0.956489,-0.262565 -0.318829,-0.14066 -0.600149,-0.31883 -0.862715,-0.515754 -0.262565,-0.196924 -0.468866,-0.393848 -0.628281,-0.581395 l 0.375093,-0.815828 0.05626,0.02813 c 0.150038,0.234433 0.346962,0.459489 0.581395,0.684546 0.243811,0.225056 0.496999,0.403225 0.768942,0.52513 0.187546,0.0844 0.375093,0.14066 0.56264,0.168792 0.196924,0.02813 0.393848,0.0094 0.581395,-0.05626 0.168792,-0.05626 0.318829,-0.150037 0.440734,-0.28132 0.131283,-0.131282 0.243811,-0.290697 0.337585,-0.496999 0.09377,-0.196924 0.131282,-0.38447 0.131282,-0.543885 -0.0094,-0.168792 -0.04689,-0.328207 -0.131282,-0.459489 -0.09377,-0.159415 -0.225056,-0.309453 -0.393849,-0.431358 -0.178169,-0.131283 -0.375093,-0.253188 -0.618904,-0.356339 -0.225056,-0.112528 -0.450112,-0.196924 -0.675168,-0.262565 -0.215679,-0.06564 -0.412603,-0.112528 -0.581395,-0.159415 l 1.369091,-2.953861 3.45086,1.594147 -0.309452,0.675169 -2.71005,-1.247186 -0.7033,1.528506 c 0.112528,0.03751 0.225056,0.0844 0.346961,0.131282 0.121905,0.04689 0.215679,0.09377 0.300075,0.131283 0.318829,0.14066 0.572017,0.290698 0.787696,0.45949 0.206301,0.159414 0.375093,0.346961 0.515753,0.572017 0.140661,0.234433 0.215679,0.496999 0.225057,0.768942 0.0094,0.28132 -0.06564,0.581394 -0.225057,0.918979 z"
         id="path3015"
         style="fill:#000000;fill-opacity:1;fill-rule:nonzero;stroke:none" />
      <path
         d="m 35.821424,14.300438 7.942604,3.675915 -4.182292,9.058507 -7.942604,-3.675916 z"
         id="path3017"
         style="fill:#f5a030;fill-opacity:1;fill-rule:evenodd;stroke:none" />
      <path
         d="m 39.150378,22.8807 c -0.262565,0.581395 -0.675168,0.975243 -1.237808,1.16279 -0.553263,0.187547 -1.106526,0.159415 -1.669166,-0.103151 -0.28132,-0.131283 -0.515753,-0.290697 -0.7033,-0.487621 -0.196924,-0.187547 -0.337584,-0.412603 -0.440735,-0.665791 -0.121905,-0.31883 -0.159415,-0.684546 -0.112528,-1.087771 0.03751,-0.412603 0.178169,-0.862715 0.403226,-1.359714 0.234433,-0.506376 0.506376,-0.928356 0.797073,-1.275318 0.290698,-0.337584 0.618904,-0.609526 1.003375,-0.806451 0.356339,-0.187546 0.759564,-0.28132 1.190922,-0.271942 0.431357,0 0.890847,0.112528 1.359714,0.328206 0.150037,0.06564 0.28132,0.131283 0.375093,0.196925 0.09377,0.05626 0.187547,0.131282 0.28132,0.215678 l -0.337584,0.731432 -0.03751,-0.01875 c -0.05626,-0.06564 -0.150038,-0.159415 -0.28132,-0.253188 -0.131283,-0.103151 -0.271943,-0.196924 -0.421981,-0.262566 -0.553262,-0.253188 -1.069016,-0.290697 -1.556637,-0.09377 -0.496999,0.196924 -0.900225,0.572017 -1.228431,1.134658 0.28132,-0.02813 0.534508,-0.02813 0.778318,0 0.243811,0.02813 0.496999,0.10315 0.778319,0.234433 0.243811,0.112528 0.440735,0.234433 0.609527,0.365716 0.168792,0.131283 0.31883,0.309452 0.450112,0.534508 0.150038,0.262566 0.234434,0.534508 0.234434,0.834583 0,0.290698 -0.07502,0.609527 -0.234434,0.947111 z m -0.797073,-0.328207 c 0.112528,-0.24381 0.168792,-0.459489 0.168792,-0.647036 0.0094,-0.187547 -0.04689,-0.375093 -0.159415,-0.572017 -0.07502,-0.131283 -0.187547,-0.243811 -0.318829,-0.337584 -0.131283,-0.09377 -0.271943,-0.17817 -0.431358,-0.253188 -0.215679,-0.09377 -0.431357,-0.168793 -0.647036,-0.196925 -0.206301,-0.03751 -0.440735,-0.04689 -0.684546,-0.02813 -0.03751,0.04689 -0.06564,0.103151 -0.09377,0.150038 -0.01875,0.05626 -0.05626,0.121905 -0.09377,0.196924 -0.187547,0.412603 -0.290698,0.750187 -0.31883,1.02213 -0.01875,0.271942 0.0094,0.515753 0.09377,0.722054 0.06564,0.168792 0.150037,0.309453 0.262565,0.421981 0.112528,0.121905 0.253188,0.215678 0.412603,0.290697 0.375093,0.168792 0.722055,0.187547 1.040884,0.06564 0.31883,-0.131282 0.572018,-0.412602 0.768942,-0.834583 z"
         id="path3019"
         style="fill:#000000;fill-opacity:1;fill-rule:nonzero;stroke:none" />
      <path
         d="M 7.5487556,164.28155 148.8277,104.0603 158.91772,127.74745 17.638769,187.9687 z"
         id="path3021"
         style="fill:#e4eaf4;fill-opacity:1;fill-rule:evenodd;stroke:none" />
      <path
         d="m 93.116948,129.59479 2.578767,-1.10653 8.842825,20.75204 -2.57876,1.09715 z"
         id="path3023"
         style="fill:#6e7277;fill-opacity:1;fill-rule:evenodd;stroke:none" />
      <path
         d="m 136.01826,118.07004 8.08326,-3.45086 3.93849,9.2273 -8.09265,3.44148 z"
         id="path3025"
         style="fill:#f5a030;fill-opacity:1;fill-rule:evenodd;stroke:none" />
      <path
         d="m 145.04864,123.41512 -0.73144,0.30945 -0.19692,-0.45949 c -0.0469,0.0656 -0.10315,0.1688 -0.18755,0.2907 -0.075,0.13128 -0.15004,0.24381 -0.23443,0.32821 -0.10315,0.11253 -0.21568,0.22505 -0.35634,0.33758 -0.15004,0.10315 -0.32821,0.2063 -0.53451,0.2907 -0.39385,0.16879 -0.78769,0.18755 -1.17217,0.0375 -0.38447,-0.14066 -0.65641,-0.4126 -0.83458,-0.81583 -0.14066,-0.33758 -0.17817,-0.62828 -0.13128,-0.90022 0.0563,-0.26257 0.18755,-0.50638 0.40322,-0.74081 0.21568,-0.22506 0.50638,-0.44074 0.86272,-0.64704 0.34696,-0.19692 0.74081,-0.40323 1.15341,-0.60015 l -0.0469,-0.11253 c -0.075,-0.16879 -0.15942,-0.30007 -0.26257,-0.38447 -0.10315,-0.0844 -0.22506,-0.13128 -0.36572,-0.15004 -0.13128,-0.009 -0.27194,0 -0.42198,0.0375 -0.15941,0.0469 -0.31883,0.10315 -0.46886,0.1688 -0.19693,0.0844 -0.40323,0.19692 -0.61891,0.34696 -0.21568,0.15941 -0.43135,0.33758 -0.63766,0.53451 l -0.0375,0.0188 -0.31882,-0.75019 c 0.1219,-0.0938 0.30945,-0.22505 0.56264,-0.39384 0.25318,-0.15942 0.50637,-0.2907 0.76894,-0.40323 0.30945,-0.13128 0.59077,-0.22506 0.84396,-0.27194 0.24381,-0.0469 0.47824,-0.0375 0.7033,0.009 0.2063,0.0469 0.40322,0.15004 0.57201,0.30946 0.1688,0.15003 0.30946,0.36571 0.43136,0.64703 z m -1.19093,-0.75956 -0.51575,-1.21906 c -0.21568,0.11253 -0.46887,0.24381 -0.76894,0.39385 -0.2907,0.15942 -0.51575,0.30008 -0.66579,0.42198 -0.18755,0.15004 -0.31883,0.31883 -0.39385,0.497 -0.075,0.18755 -0.0656,0.38447 0.0281,0.60953 0.10315,0.24381 0.26257,0.40322 0.46887,0.46886 0.19692,0.0563 0.45949,0.0281 0.76894,-0.11252 0.25319,-0.10316 0.46887,-0.25319 0.64704,-0.45012 0.16879,-0.18754 0.30945,-0.39384 0.43135,-0.60952 z"
         id="path3027"
         style="fill:#000000;fill-opacity:1;fill-rule:nonzero;stroke:none" />
      <path
         d="m 119.98302,124.89674 8.09264,-3.45086 3.9291,9.2273 -8.08326,3.45086 z"
         id="path3029"
         style="fill:#f5a030;fill-opacity:1;fill-rule:evenodd;stroke:none" />
      <path
         d="m 128.45075,127.86936 c 0.15942,0.36571 0.25319,0.71267 0.27194,1.05026 0.0188,0.33758 -0.0188,0.63766 -0.10315,0.9096 -0.10315,0.2907 -0.23443,0.53451 -0.4126,0.73143 -0.17817,0.19692 -0.40323,0.34696 -0.66579,0.45949 -0.25319,0.11253 -0.47825,0.16879 -0.68455,0.18755 -0.21568,0.0281 -0.43135,0.0187 -0.64703,0 l 0.0375,0.22505 -0.69393,0.2907 -2.58814,-6.07651 0.73143,-0.31883 0.92836,2.17554 c 0.13128,-0.26257 0.29069,-0.48762 0.47824,-0.69392 0.18755,-0.2063 0.42198,-0.3751 0.71268,-0.497 0.51575,-0.22506 1.01275,-0.19693 1.48162,0.075 0.45949,0.26256 0.85334,0.75956 1.15341,1.48162 z m -0.74081,0.34696 c -0.22506,-0.52513 -0.47824,-0.88147 -0.76894,-1.0784 -0.2907,-0.19692 -0.6189,-0.21568 -1.00338,-0.0469 -0.21567,0.0844 -0.4126,0.22505 -0.59077,0.4126 -0.17817,0.18755 -0.3282,0.39385 -0.45949,0.6189 l 1.06902,2.50375 c 0.24381,0 0.45949,-0.009 0.6189,-0.0375 0.1688,-0.0281 0.34696,-0.0844 0.53451,-0.15941 0.40323,-0.17817 0.66579,-0.45011 0.7877,-0.81583 0.11253,-0.36572 0.0469,-0.82521 -0.18755,-1.39722 z"
         id="path3031"
         style="fill:#000000;fill-opacity:1;fill-rule:nonzero;stroke:none" />
      <path
         d="m 101.866,132.62366 8.08327,-3.45085 3.93848,9.22729 -8.09264,3.45086 z"
         id="path3033"
         style="fill:#f5a030;fill-opacity:1;fill-rule:evenodd;stroke:none" />
      <path
         d="m 110.98077,137.61241 c -0.19692,0.22505 -0.39385,0.4126 -0.58139,0.57202 -0.19693,0.15941 -0.4126,0.29069 -0.66579,0.40322 -0.30945,0.13128 -0.61891,0.2063 -0.92836,0.22506 -0.30007,0.0187 -0.58139,-0.0188 -0.85334,-0.13129 -0.27194,-0.10315 -0.51575,-0.28132 -0.74081,-0.52513 -0.22505,-0.23443 -0.42198,-0.55326 -0.59077,-0.93773 -0.30007,-0.71268 -0.34696,-1.35034 -0.1219,-1.93173 0.21568,-0.57202 0.64703,-0.994 1.29407,-1.26594 0.24381,-0.11253 0.50637,-0.17817 0.77832,-0.2063 0.27194,-0.0375 0.52513,-0.0469 0.76894,-0.0281 l 0.35634,0.81583 -0.0469,0.0188 c -0.2907,-0.0844 -0.58139,-0.11253 -0.86271,-0.11253 -0.28132,0.009 -0.53451,0.0656 -0.75957,0.15941 -0.4126,0.17817 -0.68454,0.45949 -0.80645,0.84396 -0.1219,0.38448 -0.0656,0.84396 0.16879,1.38785 0.22506,0.52513 0.51576,0.88147 0.8721,1.05964 0.35633,0.18755 0.74081,0.18755 1.17216,0 0.15004,-0.0656 0.2907,-0.15004 0.43136,-0.25319 0.13128,-0.10315 0.25319,-0.21568 0.34696,-0.32821 0.0844,-0.10315 0.15942,-0.19692 0.22506,-0.30007 0.0656,-0.10315 0.1219,-0.18755 0.15941,-0.25319 l 0.0375,-0.0188 z"
         id="path3035"
         style="fill:#000000;fill-opacity:1;fill-rule:nonzero;stroke:none" />
      <path
         d="m 71.605339,145.5175 8.083263,-3.44148 3.938482,9.21792 -8.092641,3.45086 z"
         id="path3037"
         style="fill:#f5a030;fill-opacity:1;fill-rule:evenodd;stroke:none" />
      <path
         d="m 80.710732,150.83445 -0.731432,0.31883 -0.196924,-0.45949 c -0.131283,0.27194 -0.290698,0.50638 -0.478244,0.71268 -0.187547,0.19692 -0.412603,0.34696 -0.684546,0.46887 -0.515753,0.21567 -1.012752,0.19692 -1.490996,-0.075 -0.478244,-0.27195 -0.872093,-0.75957 -1.172167,-1.47224 -0.159415,-0.3751 -0.243811,-0.72206 -0.262566,-1.05964 -0.01875,-0.33759 0.01875,-0.63766 0.112528,-0.91898 0.09377,-0.27195 0.234434,-0.51576 0.42198,-0.72206 0.196924,-0.19692 0.412603,-0.35634 0.665791,-0.46886 0.234434,-0.0938 0.450112,-0.15942 0.647036,-0.18755 0.196925,-0.0281 0.412603,-0.0281 0.656414,-0.009 l -0.806451,-1.89422 0.731432,-0.30945 z m -1.190922,-0.75956 -1.069016,-2.50375 c -0.234433,0 -0.440735,0.009 -0.609527,0.0469 -0.168792,0.0281 -0.346961,0.0844 -0.534508,0.15941 -0.412603,0.17817 -0.665791,0.45949 -0.778319,0.84396 -0.103151,0.38447 -0.04689,0.84396 0.17817,1.36909 0.225056,0.51575 0.478244,0.87209 0.768941,1.06902 0.290698,0.18754 0.637659,0.2063 1.02213,0.0375 0.215678,-0.0844 0.403225,-0.22506 0.581395,-0.40323 0.168792,-0.18755 0.318829,-0.39385 0.440734,-0.6189 z"
         id="path3039"
         style="fill:#000000;fill-opacity:1;fill-rule:nonzero;stroke:none" />
      <path
         d="m 39.759905,159.09588 8.083264,-3.45085 3.938481,9.22729 -8.092641,3.45086 z"
         id="path3041"
         style="fill:#f5a030;fill-opacity:1;fill-rule:evenodd;stroke:none" />
      <path
         d="m 48.22764,162.19978 -3.216427,1.36909 c 0.112528,0.26257 0.253188,0.48763 0.421981,0.64704 0.159414,0.16879 0.346961,0.28132 0.534508,0.34696 0.196924,0.0656 0.393848,0.0938 0.609527,0.075 0.206301,-0.009 0.431357,-0.0656 0.656413,-0.16879 0.290698,-0.12191 0.572018,-0.30945 0.815828,-0.55326 0.253188,-0.25319 0.412603,-0.45949 0.496999,-0.62829 l 0.03751,-0.0188 0.337585,0.80645 c -0.196924,0.2063 -0.412603,0.40323 -0.637659,0.5814 -0.234434,0.17816 -0.487622,0.3282 -0.768942,0.45011 -0.731432,0.30945 -1.378468,0.35634 -1.950486,0.14066 -0.572017,-0.22506 -1.012752,-0.69393 -1.322204,-1.41598 -0.300075,-0.71268 -0.346962,-1.35971 -0.14066,-1.95049 0.215679,-0.58139 0.637659,-1.01275 1.26594,-1.28469 0.590772,-0.24381 1.115903,-0.27194 1.58477,-0.0656 0.468867,0.21568 0.834583,0.63766 1.106526,1.26594 z m -0.956489,-0.26256 c -0.168792,-0.38447 -0.393848,-0.63766 -0.675168,-0.76894 -0.28132,-0.13129 -0.609527,-0.11253 -1.003375,0.0563 -0.393848,0.16879 -0.656413,0.4126 -0.797073,0.75019 -0.131283,0.3282 -0.14066,0.67517 -0.02813,1.0315 z"
         id="path3043"
         style="fill:#000000;fill-opacity:1;fill-rule:nonzero;stroke:none" />
      <path
         d="m 26.650389,164.68478 8.092641,-3.45086 3.929104,9.2273 -8.092641,3.44148 z"
         id="path3045"
         style="fill:#f5a030;fill-opacity:1;fill-rule:evenodd;stroke:none" />
      <path
         d="m 33.355185,164.6754 -0.03751,0.0188 c -0.09377,0.009 -0.206301,0.0281 -0.346961,0.0657 -0.14066,0.0281 -0.262566,0.0656 -0.356339,0.10315 -0.318829,0.14066 -0.515753,0.30007 -0.600149,0.50637 -0.0844,0.19693 -0.04689,0.47825 0.112528,0.84396 l 0.05626,0.15004 1.331581,-0.56264 0.262566,0.6189 -1.30345,0.55327 1.594147,3.74155 -0.731432,0.31883 -1.594147,-3.75093 -0.496999,0.21568 -0.262565,-0.61891 0.496998,-0.21567 -0.06564,-0.14067 c -0.225056,-0.51575 -0.262565,-0.97524 -0.121905,-1.35971 0.14066,-0.38447 0.450112,-0.68454 0.937733,-0.89085 0.168792,-0.075 0.31883,-0.13128 0.45949,-0.16879 0.131282,-0.0375 0.262565,-0.075 0.384471,-0.10315 z"
         id="path3047"
         style="fill:#000000;fill-opacity:1;fill-rule:nonzero;stroke:none" />
      <text
         x="126.48644"
         y="217.39491"
         id="text3049"
         xml:space="preserve"
         style="font-size:17.55437279px;font-style:normal;font-weight:normal;text-align:start;text-anchor:start;fill:#000000;font-family:Verdana">begin aligning</text>
      <path
         d="M 46.633493,3.0288796 147.84308,50.51571 146.65216,53.066345 45.433194,5.579515 46.633493,3.0288796 z m 101.134567,44.3454224 5.84208,7.408096 -9.4336,0.234433 3.59152,-7.642529 z"
         id="path3051"
         style="fill:#000000;fill-opacity:1;fill-rule:nonzero;stroke:#000000;stroke-width:0.00937734px;stroke-linecap:butt;stroke-linejoin:round;stroke-opacity:1;stroke-dasharray:none" />
      <path
         d="m 38.306418,188.70013 105.110562,-44.84242 -1.09715,-2.58814 -105.119938,44.84242 1.106526,2.58814 z m 104.923012,-41.70101 6.10465,-7.19242 -9.41485,-0.57201 3.3102,7.76443 z"
         id="path3053"
         style="fill:#000000;fill-opacity:1;fill-rule:nonzero;stroke:#000000;stroke-width:0.00937734px;stroke-linecap:butt;stroke-linejoin:round;stroke-opacity:1;stroke-dasharray:none" />
      <text
         x="5.2541633"
         y="98.157814"
         id="text3055"
         xml:space="preserve"
         style="font-size:13.80343914px;font-style:normal;font-weight:normal;text-align:start;text-anchor:start;fill:#000000;font-family:Verdana">c</text>
      <text
         x="12.455957"
         y="98.157814"
         id="text3057"
         xml:space="preserve"
         style="font-size:13.80343914px;font-style:normal;font-weight:normal;text-align:start;text-anchor:start;fill:#000000;font-family:Verdana">heckpoint</text>
      <text
         x="12.30592"
         y="114.66193"
         id="text3059"
         xml:space="preserve"
         style="font-size:13.80343914px;font-style:normal;font-weight:normal;text-align:start;text-anchor:start;fill:#000000;font-family:Verdana">barrier </text>
      <text
         x="63.768742"
         y="114.66193"
         id="text3061"
         xml:space="preserve"
         style="font-size:13.80343914px;font-style:italic;font-weight:normal;text-align:start;text-anchor:start;fill:#000000;font-family:Verdana">n</text>
      <path
         d="M 85.68072,95.930149 148.36821,84.780496 148.15253,83.552065 85.465041,94.69234 z m 63.0157,-9.302318 c 1.35971,-0.234433 2.26931,-1.537883 2.0255,-2.897597 -0.24381,-1.359713 -1.53788,-2.269315 -2.89759,-2.025504 -1.35972,0.24381 -2.26932,1.537883 -2.02551,2.897597 0.24381,1.359713 1.53789,2.269315 2.8976,2.025504 z"
         id="path3063"
         style="fill:#000000;fill-opacity:1;fill-rule:nonzero;stroke:#000000;stroke-width:0.00937734px;stroke-linecap:butt;stroke-linejoin:round;stroke-opacity:1;stroke-dasharray:none" />
      <path
         d="m 80.129337,109.72421 14.769305,18.93284 -0.984621,0.76894 -14.769304,-18.93284 z m 16.250924,17.77943 c 0.84396,1.08777 0.656413,2.66316 -0.431358,3.50712 -1.097148,0.85334 -2.663163,0.65642 -3.516501,-0.43135 -0.84396,-1.08778 -0.656413,-2.66317 0.431358,-3.50713 1.097148,-0.85334 2.663163,-0.65641 3.516501,0.43136 z"
         id="path3065"
         style="fill:#000000;fill-opacity:1;fill-rule:nonzero;stroke:#000000;stroke-width:0.00937734px;stroke-linecap:butt;stroke-linejoin:round;stroke-opacity:1;stroke-dasharray:none" />
      <path
         d="m 252.64419,84.170969 0,25.628261 48.61211,0 0,-25.628261 -48.61211,0 z"
         id="path3067"
         style="fill:#e4eaf4;fill-opacity:1;fill-rule:evenodd;stroke:none" />
      <path
         d="m 284.3771,91.98229 0,10.00562 8.74905,0 0,-10.00562 -8.74905,0 z"
         id="path3069"
         style="fill:#f5a030;fill-opacity:1;fill-rule:evenodd;stroke:none" />
      <text
         x="286.25586"
         y="100.50925"
         id="text3071"
         xml:space="preserve"
         style="font-size:8.70216751px;font-style:normal;font-weight:normal;text-align:start;text-anchor:start;fill:#000000;font-family:Verdana">x</text>
      <path
         d="m 270.15168,91.98229 0,10.00562 8.74905,0 0,-10.00562 -8.74905,0 z"
         id="path3073"
         style="fill:#f5a030;fill-opacity:1;fill-rule:evenodd;stroke:none" />
      <text
         x="272.00772"
         y="100.50934"
         id="text3075"
         xml:space="preserve"
         style="font-size:8.70216751px;font-style:normal;font-weight:normal;text-align:start;text-anchor:start;fill:#000000;font-family:Verdana">y</text>
      <path
         d="m 253.75072,77.288004 42.5731,0 0,2.813201 -42.5731,0 0,-2.813201 z m 41.1665,-2.8132 8.4396,4.219801 -8.4396,4.219801 0,-8.439602 z"
         id="path3077"
         style="fill:#000000;fill-opacity:1;fill-rule:nonzero;stroke:#000000;stroke-width:0.01875467px;stroke-linecap:butt;stroke-linejoin:round;stroke-opacity:1;stroke-dasharray:none" />
      <text
         x="166.75418"
         y="123.98857"
         id="text3079"
         xml:space="preserve"
         style="font-size:17.55437279px;font-style:normal;font-weight:normal;text-align:start;text-anchor:start;fill:#000000;font-family:Verdana">operator</text>
      <path
         d="m 455.04461,97.149202 c 0,-28.488347 23.087,-51.575348 51.57535,-51.575348 28.48835,0 51.57535,23.087001 51.57535,51.575348 0,28.488348 -23.087,51.575348 -51.57535,51.575348 -28.48835,0 -51.57535,-23.087 -51.57535,-51.575348"
         id="path3081"
         style="fill:#8a3142;fill-opacity:1;fill-rule:evenodd;stroke:none" />
      <path
         d="M 327.86918,-0.07501869 466.635,64.047206 455.88857,87.321754 317.12275,23.19953 z"
         id="path3083"
         style="fill:#e4eaf4;fill-opacity:1;fill-rule:evenodd;stroke:none" />
      <path
         d="m 384.47078,34.714898 7.95198,3.675916 -4.18229,9.058507 -7.95198,-3.675916 z"
         id="path3085"
         style="fill:#f5a030;fill-opacity:1;fill-rule:evenodd;stroke:none" />
      <path
         d="m 389.14069,40.228772 -4.85746,3.69467 -0.8252,-0.393848 5.10127,-3.788443 -3.26331,-1.500374 0.30007,-0.675168 3.93848,1.819203 z"
         id="path3087"
         style="fill:#000000;fill-opacity:1;fill-rule:nonzero;stroke:none" />
      <path
         d="m 353.20674,20.255046 7.93323,3.675916 -4.18229,9.058507 -7.95198,-3.675916 z"
         id="path3089"
         style="fill:#f5a030;fill-opacity:1;fill-rule:evenodd;stroke:none" />
      <path
         d="m 356.37628,29.069742 c -0.24381,0.506376 -0.6189,0.825206 -1.16279,0.975243 -0.54388,0.150037 -1.10652,0.09377 -1.68792,-0.187547 -0.6189,-0.28132 -1.05026,-0.675168 -1.25656,-1.162789 -0.22506,-0.487622 -0.22506,-0.993998 0.0188,-1.48162 0.13129,-0.318829 0.3751,-0.56264 0.67517,-0.750186 0.30008,-0.168792 0.65642,-0.243811 1.06902,-0.243811 l 0,-0.01875 c -0.22506,-0.318829 -0.3751,-0.600149 -0.43136,-0.862715 -0.0563,-0.262565 -0.0188,-0.543885 0.11253,-0.84396 0.2063,-0.431357 0.54388,-0.693923 1.03151,-0.825206 0.48762,-0.131282 1.01275,-0.05626 1.55663,0.187547 0.5814,0.262566 0.97525,0.618904 1.18155,1.050262 0.22505,0.431357 0.22505,0.862715 0.0375,1.294072 -0.13129,0.262566 -0.31883,0.468867 -0.60015,0.656414 -0.28132,0.168792 -0.61891,0.24381 -0.994,0.24381 l 0,0.03751 c 0.28132,0.318829 0.46887,0.637659 0.56264,0.937733 0.075,0.31883 0.0375,0.656414 -0.11253,0.993998 z m 0.3751,-3.225804 c 0.13128,-0.262565 0.11252,-0.543885 -0.0188,-0.806451 -0.13128,-0.24381 -0.37509,-0.468866 -0.69392,-0.618904 -0.31883,-0.150037 -0.61891,-0.187546 -0.90023,-0.131282 -0.28132,0.05626 -0.48762,0.225056 -0.60015,0.487621 -0.0938,0.187547 -0.11252,0.356339 -0.075,0.543886 0.0375,0.187546 0.15003,0.375093 0.31883,0.581394 0.075,0.09377 0.16879,0.225056 0.31882,0.375094 0.15004,0.150037 0.28132,0.300075 0.43136,0.431357 0.33759,-0.05626 0.60015,-0.150037 0.7877,-0.300074 0.16879,-0.131283 0.31883,-0.31883 0.43136,-0.562641 z m -1.21906,2.944484 c 0.11253,-0.243811 0.15004,-0.450112 0.11253,-0.637659 -0.0375,-0.206301 -0.16879,-0.431357 -0.4126,-0.712677 -0.0938,-0.112529 -0.2063,-0.243811 -0.31883,-0.356339 -0.13128,-0.112528 -0.28132,-0.262566 -0.48762,-0.468867 -0.28132,0.01875 -0.54389,0.112528 -0.7877,0.262565 -0.24381,0.150038 -0.43136,0.356339 -0.54389,0.637659 -0.16879,0.337584 -0.18754,0.693923 -0.0375,1.012753 0.13128,0.337584 0.37509,0.600149 0.75018,0.768941 0.3751,0.168792 0.71268,0.225056 1.03151,0.131283 0.31883,-0.09377 0.54388,-0.300075 0.69392,-0.637659 z"
         id="path3091"
         style="fill:#000000;fill-opacity:1;fill-rule:nonzero;stroke:none" />
      <path
         d="m 340.32228,14.309815 7.95198,3.675916 -4.18229,9.058506 -7.95198,-3.675915 z"
         id="path3093"
         style="fill:#f5a030;fill-opacity:1;fill-rule:evenodd;stroke:none" />
      <path
         d="m 344.18575,21.492854 c -0.22506,0.506377 -0.48763,0.918979 -0.80646,1.275318 -0.30007,0.356339 -0.6189,0.637659 -0.99399,0.806451 -0.3751,0.187547 -0.76894,0.28132 -1.2003,0.28132 -0.41261,0 -0.86272,-0.112528 -1.35034,-0.337584 -0.13128,-0.05626 -0.24381,-0.131283 -0.35634,-0.187547 -0.11253,-0.07502 -0.2063,-0.150037 -0.28132,-0.225056 l 0.33759,-0.731432 0.0375,0.01875 c 0.0563,0.07502 0.13128,0.150037 0.26256,0.24381 0.11253,0.112528 0.26257,0.187547 0.43136,0.262566 0.56264,0.262565 1.08777,0.300075 1.57539,0.112528 0.46887,-0.187547 0.88147,-0.581395 1.2003,-1.144035 -0.30007,0.03751 -0.56264,0.03751 -0.80645,0 -0.24381,-0.03751 -0.48762,-0.112528 -0.73143,-0.225056 -0.24381,-0.112528 -0.45011,-0.243811 -0.61891,-0.375094 -0.16879,-0.131282 -0.31883,-0.318829 -0.45011,-0.543885 -0.15004,-0.262566 -0.22506,-0.525131 -0.22506,-0.825206 -0.0188,-0.300074 0.0563,-0.618904 0.22506,-0.956488 0.26257,-0.581395 0.67517,-0.956488 1.23781,-1.16279 0.56264,-0.187546 1.10652,-0.150037 1.66917,0.112528 0.28132,0.131283 0.50637,0.28132 0.71267,0.487622 0.18755,0.187547 0.33759,0.412603 0.43136,0.675168 0.13128,0.300075 0.16879,0.656414 0.13128,1.050262 -0.0375,0.393848 -0.18754,0.84396 -0.43135,1.387845 z m -0.69393,-0.52513 c 0.18755,-0.393849 0.28132,-0.750187 0.31883,-1.012753 0.0188,-0.28132 0,-0.525131 -0.075,-0.731432 -0.075,-0.168792 -0.16879,-0.318829 -0.28132,-0.431357 -0.11252,-0.112528 -0.26256,-0.206302 -0.4126,-0.28132 -0.37509,-0.168793 -0.71268,-0.187547 -1.05026,-0.05626 -0.31883,0.131282 -0.56264,0.412602 -0.76894,0.825205 -0.11253,0.243811 -0.16879,0.468867 -0.16879,0.656414 0,0.168792 0.0563,0.375093 0.16879,0.56264 0.075,0.131282 0.18754,0.243811 0.30007,0.337584 0.13128,0.09377 0.28132,0.168792 0.45011,0.243811 0.20631,0.09377 0.41261,0.168792 0.63766,0.206301 0.24381,0.03751 0.46887,0.05626 0.69393,0.03751 0.0375,-0.05626 0.0563,-0.112528 0.0938,-0.168792 0.0188,-0.03751 0.0563,-0.112528 0.0938,-0.187546 z"
         id="path3095"
         style="fill:#000000;fill-opacity:1;fill-rule:nonzero;stroke:none" />
      <path
         d="m 312.05899,164.29093 141.27895,-60.22125 10.09001,23.68715 -141.27894,60.22125 z"
         id="path3097"
         style="fill:#e4eaf4;fill-opacity:1;fill-rule:evenodd;stroke:none" />
      <path
         d="m 433.19542,113.80335 2.58814,-1.08777 8.83346,20.74267 -2.56939,1.08777 z"
         id="path3099"
         style="fill:#6e7277;fill-opacity:1;fill-rule:evenodd;stroke:none" />
      <path
         d="m 440.5285,118.07942 8.08326,-3.45086 3.93848,9.20854 -8.10202,3.45086 z"
         id="path3101"
         style="fill:#f5a030;fill-opacity:1;fill-rule:evenodd;stroke:none" />
      <path
         d="m 449.64327,123.06816 c -0.2063,0.22506 -0.39385,0.4126 -0.5814,0.56264 -0.2063,0.16879 -0.4126,0.30007 -0.67517,0.39385 -0.30007,0.15004 -0.6189,0.22505 -0.91897,0.24381 -0.30008,0.0187 -0.5814,-0.0375 -0.86272,-0.13128 -0.26256,-0.11253 -0.50638,-0.28132 -0.73143,-0.52514 -0.22506,-0.24381 -0.43136,-0.56264 -0.60015,-0.93773 -0.30008,-0.71268 -0.33759,-1.36909 -0.11253,-1.93173 0.2063,-0.58139 0.63766,-0.994 1.29407,-1.27532 0.24381,-0.11253 0.50638,-0.16879 0.76894,-0.2063 0.28132,-0.0375 0.52514,-0.0375 0.76895,-0.0375 l 0.35634,0.82521 -0.0375,0.0187 c -0.30008,-0.075 -0.5814,-0.11253 -0.86272,-0.11253 -0.28132,0.0188 -0.54388,0.0563 -0.76894,0.1688 -0.4126,0.16879 -0.67517,0.45011 -0.80645,0.8252 -0.11253,0.39385 -0.0563,0.86272 0.16879,1.38785 0.22506,0.52513 0.50638,0.88147 0.86272,1.06901 0.35633,0.18755 0.75018,0.18755 1.18154,0 0.15004,-0.0563 0.30007,-0.15003 0.43136,-0.24381 0.13128,-0.11253 0.26256,-0.22505 0.35634,-0.33758 0.075,-0.0938 0.15003,-0.2063 0.22505,-0.30008 0.0563,-0.0938 0.11253,-0.18754 0.15004,-0.26256 l 0.0375,0 z"
         id="path3103"
         style="fill:#000000;fill-opacity:1;fill-rule:nonzero;stroke:none" />
      <path
         d="m 424.49325,124.90612 8.08327,-3.45086 3.93848,9.2273 -8.08327,3.45086 z"
         id="path3105"
         style="fill:#f5a030;fill-opacity:1;fill-rule:evenodd;stroke:none" />
      <path
         d="m 433.60802,130.21369 -0.73143,0.31883 -0.2063,-0.45011 c -0.13128,0.26256 -0.28132,0.50637 -0.46887,0.69392 -0.18754,0.2063 -0.4126,0.35634 -0.69392,0.46887 -0.52513,0.22505 -1.01275,0.2063 -1.50037,-0.0563 -0.46887,-0.28132 -0.86272,-0.76894 -1.16279,-1.48162 -0.15004,-0.37509 -0.24381,-0.71267 -0.26257,-1.05026 -0.0188,-0.33758 0.0188,-0.65641 0.11253,-0.91898 0.0938,-0.28132 0.24381,-0.52513 0.43136,-0.73143 0.18754,-0.2063 0.4126,-0.35634 0.65641,-0.46887 0.22506,-0.0938 0.45011,-0.15003 0.63766,-0.18754 0.2063,-0.0188 0.43136,-0.0188 0.65641,0 l -0.80645,-1.89422 0.75019,-0.31883 z m -1.2003,-0.75019 -1.06901,-2.51312 c -0.22506,0 -0.43136,0.0188 -0.60015,0.0375 -0.16879,0.0375 -0.35634,0.0938 -0.54389,0.16879 -0.4126,0.18754 -0.67517,0.46886 -0.76894,0.84396 -0.11253,0.39385 -0.0563,0.84396 0.16879,1.36909 0.22506,0.52513 0.48762,0.88147 0.76894,1.06902 0.30008,0.18754 0.63766,0.2063 1.03151,0.0375 0.2063,-0.0938 0.39385,-0.22505 0.56264,-0.4126 0.18755,-0.16879 0.33759,-0.37509 0.45011,-0.60015 z"
         id="path3107"
         style="fill:#000000;fill-opacity:1;fill-rule:nonzero;stroke:none" />
      <path
         d="m 406.35748,132.63304 8.10202,-3.45086 3.91973,9.2273 -8.08326,3.45086 z"
         id="path3109"
         style="fill:#f5a030;fill-opacity:1;fill-rule:evenodd;stroke:none" />
      <path
         d="m 414.8346,135.72756 -3.20705,1.36909 c 0.11252,0.26257 0.24381,0.48763 0.4126,0.65642 0.16879,0.16879 0.33758,0.28132 0.54389,0.33758 0.18754,0.075 0.39384,0.0938 0.60014,0.075 0.20631,0 0.43136,-0.0563 0.65642,-0.16879 0.30007,-0.11253 0.56264,-0.30008 0.8252,-0.54389 0.24381,-0.26256 0.41261,-0.46886 0.48763,-0.63766 l 0.0375,-0.0187 0.33759,0.80645 c -0.18755,0.2063 -0.4126,0.4126 -0.63766,0.5814 -0.22506,0.18754 -0.48762,0.33758 -0.76894,0.45011 -0.73143,0.31883 -1.36909,0.35634 -1.95049,0.15003 -0.56264,-0.22505 -1.01275,-0.69392 -1.31282,-1.42535 -0.31883,-0.71268 -0.35634,-1.35034 -0.15004,-1.95049 0.2063,-0.58139 0.63766,-1.01275 1.27532,-1.27531 0.58139,-0.24381 1.10652,-0.28132 1.57539,-0.0563 0.46886,0.2063 0.84396,0.61891 1.10652,1.25657 z m -0.95649,-0.26256 c -0.16879,-0.3751 -0.39385,-0.63766 -0.67517,-0.76894 -0.28132,-0.13129 -0.6189,-0.11253 -0.994,0.0563 -0.39385,0.16879 -0.65641,0.4126 -0.80645,0.75019 -0.13128,0.33758 -0.13128,0.67517 -0.0188,1.0315 z"
         id="path3111"
         style="fill:#000000;fill-opacity:1;fill-rule:nonzero;stroke:none" />
      <path
         d="m 376.1062,145.5175 8.08326,-3.4321 3.93848,9.20854 -8.08326,3.45086 z"
         id="path3113"
         style="fill:#f5a030;fill-opacity:1;fill-rule:evenodd;stroke:none" />
      <path
         d="m 382.82037,145.5175 -0.0375,0.0188 c -0.0938,0.0188 -0.2063,0.0375 -0.35634,0.0563 -0.13128,0.0375 -0.26256,0.075 -0.35634,0.11253 -0.31883,0.13128 -0.50637,0.30007 -0.60015,0.50637 -0.075,0.20631 -0.0375,0.48763 0.11253,0.84397 l 0.0563,0.15003 1.33158,-0.56264 0.26256,0.61891 -1.29407,0.54388 1.59415,3.75094 -0.73143,0.31883 -1.61291,-3.75094 -0.48762,0.2063 -0.26256,-0.60015 0.48762,-0.22505 -0.0563,-0.13129 c -0.22505,-0.52513 -0.26256,-0.97524 -0.11252,-1.36909 0.13128,-0.39384 0.45011,-0.67516 0.93773,-0.90022 0.15004,-0.0563 0.31883,-0.11253 0.45011,-0.15004 0.13128,-0.0563 0.26257,-0.075 0.3751,-0.11253 z"
         id="path3115"
         style="fill:#000000;fill-opacity:1;fill-rule:nonzero;stroke:none" />
      <path
         d="m 344.26076,159.09588 8.08327,-3.45085 3.93848,9.22729 -8.08326,3.45086 z"
         id="path3117"
         style="fill:#f5a030;fill-opacity:1;fill-rule:evenodd;stroke:none" />
      <path
         d="m 353.16923,163.91584 c 0.30008,0.75018 0.3751,1.35033 0.18755,1.85671 -0.18755,0.48762 -0.63766,0.88147 -1.33158,1.18154 -0.24381,0.0938 -0.46887,0.16879 -0.69392,0.22506 -0.24382,0.075 -0.48763,0.11253 -0.71268,0.15004 l -0.31883,-0.75019 0.0375,-0.0188 c 0.13128,0 0.35634,-0.0375 0.63766,-0.075 0.30007,-0.0375 0.56264,-0.11253 0.8252,-0.22506 0.24381,-0.11253 0.45011,-0.22506 0.5814,-0.35634 0.15003,-0.13128 0.22505,-0.26256 0.28132,-0.4126 0.0375,-0.15004 0.0563,-0.30008 0.0375,-0.45011 -0.0188,-0.1688 -0.075,-0.33759 -0.15004,-0.50638 l -0.16879,-0.39385 c -0.15004,0.26257 -0.30008,0.48762 -0.46887,0.65642 -0.15004,0.18754 -0.39385,0.33758 -0.71268,0.46886 -0.52513,0.22506 -1.01275,0.2063 -1.48162,-0.0375 -0.46886,-0.24381 -0.84396,-0.71267 -1.14403,-1.4066 -0.15004,-0.37509 -0.24381,-0.71268 -0.24381,-1.0315 -0.0188,-0.31883 0.0375,-0.61891 0.13128,-0.88147 0.0938,-0.26257 0.22506,-0.48763 0.43136,-0.69393 0.18754,-0.2063 0.4126,-0.37509 0.65641,-0.46886 0.24381,-0.11253 0.46887,-0.1688 0.67517,-0.20631 0.18755,-0.0187 0.39385,-0.0187 0.63766,0.0188 l -0.0375,-0.2063 0.69392,-0.30008 z m -1.05026,-0.39385 -1.01275,-2.38185 c -0.22506,0 -0.43136,0.0188 -0.6189,0.0563 -0.18755,0.0375 -0.35634,0.075 -0.52514,0.15004 -0.4126,0.16879 -0.67516,0.45011 -0.78769,0.8252 -0.11253,0.35634 -0.0563,0.80645 0.15004,1.31283 0.22505,0.48762 0.46886,0.8252 0.75018,1.01275 0.26257,0.16879 0.61891,0.18755 1.01275,0.0188 0.20631,-0.0938 0.41261,-0.22506 0.5814,-0.41261 0.18755,-0.16879 0.33758,-0.35634 0.45011,-0.58139 z"
         id="path3119"
         style="fill:#000000;fill-opacity:1;fill-rule:nonzero;stroke:none" />
      <path
         d="m 331.15125,164.68478 8.08326,-3.45086 3.93848,9.2273 -8.08326,3.45086 z"
         id="path3121"
         style="fill:#f5a030;fill-opacity:1;fill-rule:evenodd;stroke:none" />
      <path
         d="m 340.37855,169.95484 -0.73144,0.31883 -1.06901,-2.49437 c -0.075,-0.18755 -0.16879,-0.3751 -0.28132,-0.54389 -0.0938,-0.16879 -0.18755,-0.28132 -0.30008,-0.35634 -0.11252,-0.075 -0.24381,-0.13128 -0.37509,-0.13128 -0.15004,0 -0.31883,0.0375 -0.52513,0.13128 -0.18755,0.075 -0.37509,0.22506 -0.56264,0.41261 -0.16879,0.18754 -0.33759,0.4126 -0.46887,0.65641 l 1.38785,3.24456 -0.73143,0.31883 -2.58815,-6.07652 0.73143,-0.31883 0.93774,2.1943 c 0.15003,-0.28132 0.31883,-0.52513 0.52513,-0.75019 0.2063,-0.2063 0.43136,-0.35633 0.67517,-0.46886 0.48762,-0.2063 0.90022,-0.22506 1.27531,-0.0375 0.35634,0.18754 0.65642,0.54388 0.88147,1.06901 z"
         id="path3123"
         style="fill:#000000;fill-opacity:1;fill-rule:nonzero;stroke:none" />
      <text
         x="458.11777"
         y="217.39491"
         id="text3125"
         xml:space="preserve"
         style="font-size:17.55437279px;font-style:normal;font-weight:normal;text-align:start;text-anchor:start;fill:#000000;font-family:Verdana">aligning</text>
      <path
         d="m 351.08746,3.0382569 101.21897,47.4868301 -1.2003,2.550635 -101.21896,-47.4868297 1.20029,-2.5506354 z m 101.1252,44.3360451 5.85146,7.408096 -9.4336,0.24381 3.58214,-7.651906 z"
         id="path3127"
         style="fill:#000000;fill-opacity:1;fill-rule:nonzero;stroke:#000000;stroke-width:0.01875467px;stroke-linecap:butt;stroke-linejoin:round;stroke-opacity:1;stroke-dasharray:none" />
      <path
         d="m 342.76039,188.70951 105.11994,-44.84242 -1.10653,-2.58814 -105.11994,44.84242 1.10653,2.58814 z m 104.93239,-41.71039 6.09527,-7.18304 -9.41485,-0.58139 3.31958,7.76443 z"
         id="path3129"
         style="fill:#000000;fill-opacity:1;fill-rule:nonzero;stroke:#000000;stroke-width:0.01875467px;stroke-linecap:butt;stroke-linejoin:round;stroke-opacity:1;stroke-dasharray:none" />
      <path
         d="m 557.27633,84.170969 0,25.656391 67.17924,0 0,-25.656391 -67.17924,0 z"
         id="path3131"
         style="fill:#e4eaf4;fill-opacity:1;fill-rule:evenodd;stroke:none" />
      <path
         d="m 588.82169,91.991667 0,9.996243 8.90847,0 0,-9.996243 -8.90847,0 z"
         id="path3133"
         style="fill:#f5a030;fill-opacity:1;fill-rule:evenodd;stroke:none" />
      <text
         x="590.67731"
         y="100.50925"
         id="text3135"
         xml:space="preserve"
         style="font-size:8.70216751px;font-style:normal;font-weight:normal;text-align:start;text-anchor:start;fill:#000000;font-family:Verdana">a</text>
      <path
         d="m 574.60565,91.991667 0,9.996243 8.75843,0 0,-9.996243 -8.75843,0 z"
         id="path3137"
         style="fill:#f5a030;fill-opacity:1;fill-rule:evenodd;stroke:none" />
      <text
         x="576.35101"
         y="100.50934"
         id="text3139"
         xml:space="preserve"
         style="font-size:8.70216751px;font-style:normal;font-weight:normal;text-align:start;text-anchor:start;fill:#000000;font-family:Verdana">b</text>
      <path
         d="m 558.21407,77.306759 42.5731,0 0,2.813201 -42.5731,0 0,-2.813201 z m 41.14775,-2.813201 8.4396,4.201047 -8.4396,4.238556 0,-8.439603 z"
         id="path3141"
         style="fill:#000000;fill-opacity:1;fill-rule:nonzero;stroke:#000000;stroke-width:0.03750934px;stroke-linecap:butt;stroke-linejoin:round;stroke-opacity:1;stroke-dasharray:none" />
      <text
         x="471.25378"
         y="123.98857"
         id="text3143"
         xml:space="preserve"
         style="font-size:17.55437279px;font-style:normal;font-weight:normal;text-align:start;text-anchor:start;fill:#000000;font-family:Verdana">operator</text>
      <path
         d="m 480.04459,70.104965 0,19.542368 57.05171,0 0,-19.542368 -57.05171,0 z"
         id="path3145"
         style="fill:#b8bec6;fill-opacity:1;fill-rule:evenodd;stroke:none" />
      <path
         d="m 497.56146,74.94367 0,10.014995 8.73967,0 0,-10.014995 -8.73967,0 z"
         id="path3147"
         style="fill:#f5a030;fill-opacity:1;fill-rule:evenodd;stroke:none" />
      <text
         x="499.1666"
         y="83.519676"
         id="text3149"
         xml:space="preserve"
         style="font-size:8.70216751px;font-style:normal;font-weight:normal;text-align:start;text-anchor:start;fill:#000000;font-family:Verdana">2</text>
      <path
         d="m 483.32666,74.94367 0,10.014995 8.75843,0 0,-10.014995 -8.75843,0 z"
         id="path3151"
         style="fill:#f5a030;fill-opacity:1;fill-rule:evenodd;stroke:none" />
      <text
         x="484.91843"
         y="83.519775"
         id="text3153"
         xml:space="preserve"
         style="font-size:8.70216751px;font-style:normal;font-weight:normal;text-align:start;text-anchor:start;fill:#000000;font-family:Verdana">3</text>
      <path
         d="m 510.83976,74.793633 0,9.99624 8.75843,0 0,-9.99624 -8.75843,0 z"
         id="path3155"
         style="fill:#f5a030;fill-opacity:1;fill-rule:evenodd;stroke:none" />
      <text
         x="512.43573"
         y="83.345718"
         id="text3157"
         xml:space="preserve"
         style="font-size:8.70216751px;font-style:normal;font-weight:normal;text-align:start;text-anchor:start;fill:#000000;font-family:Verdana">1</text>
      <path
         d="m 446.64252,63.146981 7.93323,3.675916 -4.1823,9.058507 -7.93322,-3.657161 z"
         id="path3159"
         style="fill:#f5a030;fill-opacity:1;fill-rule:evenodd;stroke:none" />
      <path
         d="m 449.90583,71.999187 -0.86271,-0.393848 -0.73143,1.612901 -0.75019,-0.337584 0.75019,-1.612901 -2.75694,-1.275318 0.4126,-0.88147 4.27607,-1.950486 0.71267,0.31883 -1.6129,3.507124 0.84396,0.393848 -0.28132,0.618904 z m -1.31282,-1.350337 1.20029,-2.588144 -3.4321,1.556637 2.23181,1.031507 z"
         id="path3161"
         style="fill:#000000;fill-opacity:1;fill-rule:nonzero;stroke:none" />
      <path
         d="m 415.35973,48.705884 7.95198,3.675916 -4.20105,9.058506 -7.93323,-3.675915 z"
         id="path3163"
         style="fill:#f5a030;fill-opacity:1;fill-rule:evenodd;stroke:none" />
      <path
         d="m 418.54802,57.258014 c -0.13128,0.262566 -0.30007,0.506377 -0.50638,0.693923 -0.2063,0.206302 -0.43135,0.356339 -0.69392,0.431358 -0.26256,0.09377 -0.54388,0.131282 -0.84396,0.112528 -0.30007,-0.01875 -0.6189,-0.112528 -0.95649,-0.262566 -0.31883,-0.150037 -0.60015,-0.318829 -0.86271,-0.52513 -0.26257,-0.187547 -0.46887,-0.393849 -0.61891,-0.562641 l 0.3751,-0.825205 0.0563,0.03751 c 0.13128,0.225056 0.33759,0.450112 0.5814,0.675168 0.22505,0.225056 0.48762,0.393848 0.76894,0.525131 0.16879,0.07502 0.35634,0.131283 0.56264,0.168792 0.18754,0.01875 0.37509,0 0.58139,-0.05626 0.1688,-0.05626 0.30008,-0.150037 0.43136,-0.28132 0.13128,-0.131283 0.24381,-0.300075 0.33758,-0.487621 0.0938,-0.206302 0.13129,-0.393848 0.13129,-0.562641 0,-0.168792 -0.0563,-0.318829 -0.13129,-0.450112 -0.0938,-0.168792 -0.22505,-0.300074 -0.39384,-0.431357 -0.1688,-0.131283 -0.3751,-0.243811 -0.61891,-0.356339 -0.22505,-0.112528 -0.45011,-0.187547 -0.67517,-0.262565 -0.22505,-0.05626 -0.4126,-0.112528 -0.58139,-0.150038 l 1.36909,-2.963238 3.45086,1.594147 -0.30007,0.675168 -2.71943,-1.256563 -0.71268,1.537884 c 0.13128,0.03751 0.24381,0.07502 0.35634,0.131282 0.11253,0.03751 0.22506,0.09377 0.30007,0.131283 0.31883,0.150037 0.5814,0.300075 0.7877,0.450112 0.2063,0.168792 0.37509,0.356339 0.50638,0.581395 0.15003,0.243811 0.22505,0.487621 0.22505,0.768941 0.0188,0.281321 -0.0563,0.581395 -0.2063,0.918979 z"
         id="path3165"
         style="fill:#000000;fill-opacity:1;fill-rule:nonzero;stroke:none" />
      <path
         d="m 402.49402,42.760653 7.93323,3.657161 -4.18229,9.058507 -7.95199,-3.657162 z"
         id="path3167"
         style="fill:#f5a030;fill-opacity:1;fill-rule:evenodd;stroke:none" />
      <path
         d="m 405.8136,51.331538 c -0.26257,0.581395 -0.67517,0.975243 -1.23781,1.16279 -0.54389,0.187546 -1.10653,0.150037 -1.66917,-0.09377 -0.28132,-0.131282 -0.50637,-0.300074 -0.71267,-0.487621 -0.18755,-0.206302 -0.33759,-0.431358 -0.43136,-0.675168 -0.11253,-0.31883 -0.15004,-0.675169 -0.11253,-1.087771 0.0375,-0.412603 0.16879,-0.862715 0.4126,-1.350337 0.22506,-0.525131 0.48763,-0.937733 0.7877,-1.294072 0.28132,-0.337584 0.6189,-0.60015 1.01275,-0.806451 0.35634,-0.168792 0.75019,-0.262565 1.18155,-0.262565 0.43135,0 0.88147,0.112528 1.36909,0.318829 0.15004,0.07502 0.26256,0.150037 0.37509,0.206301 0.0938,0.05626 0.18755,0.131283 0.26257,0.206302 l -0.33759,0.750187 -0.0375,-0.01875 c -0.0563,-0.07502 -0.15003,-0.168792 -0.26256,-0.262565 -0.13128,-0.112528 -0.28132,-0.187547 -0.43136,-0.262566 -0.54389,-0.262565 -1.06902,-0.28132 -1.55664,-0.09377 -0.48762,0.187546 -0.90022,0.581395 -1.21905,1.144035 0.26256,-0.03751 0.52513,-0.03751 0.76894,-0.01875 0.24381,0.03751 0.50638,0.112528 0.76894,0.243811 0.24381,0.112528 0.45011,0.225056 0.61891,0.356339 0.16879,0.131282 0.31883,0.318829 0.45011,0.543885 0.15004,0.262566 0.22505,0.543886 0.24381,0.825206 0,0.300074 -0.075,0.618904 -0.24381,0.956488 z m -0.7877,-0.337584 c 0.11253,-0.225056 0.16879,-0.450112 0.16879,-0.637659 0,-0.187547 -0.0563,-0.375093 -0.16879,-0.56264 -0.075,-0.150038 -0.18754,-0.262566 -0.31883,-0.356339 -0.13128,-0.09377 -0.28132,-0.168792 -0.43135,-0.243811 -0.22506,-0.09377 -0.43136,-0.168792 -0.63766,-0.206301 -0.22506,-0.03751 -0.45012,-0.03751 -0.69393,-0.01875 -0.0375,0.05626 -0.0563,0.09377 -0.0938,0.150038 -0.0188,0.05626 -0.0563,0.112528 -0.0938,0.206301 -0.18755,0.393848 -0.30008,0.731432 -0.31883,1.012752 -0.0188,0.28132 0,0.506376 0.0938,0.712678 0.0563,0.168792 0.15004,0.318829 0.26257,0.431357 0.11252,0.112528 0.26256,0.206302 0.4126,0.28132 0.37509,0.187547 0.71268,0.206302 1.03151,0.07502 0.31883,-0.131283 0.58139,-0.412603 0.78769,-0.84396 z"
         id="path3169"
         style="fill:#000000;fill-opacity:1;fill-rule:nonzero;stroke:none" />
      <text
         x="486.90817"
         y="30.892836"
         id="text3171"
         xml:space="preserve"
         style="font-size:13.80343914px;font-style:normal;font-weight:normal;text-align:start;text-anchor:start;fill:#000000;font-family:Verdana">input buffer</text>
      <path
         d="m 525.2246,37.077987 2.86946,34.733653 -1.23781,0.09377 -2.88822,-34.714898 z m 4.74493,34.564861 c 0.11253,1.387846 -0.90023,2.588145 -2.28807,2.700673 -1.36909,0.112528 -2.58815,-0.900224 -2.70067,-2.28807 -0.11253,-1.369091 0.91897,-2.56939 2.28807,-2.681918 1.38784,-0.131283 2.58814,0.900224 2.70067,2.269315 z"
         id="path3173"
         style="fill:#000000;fill-opacity:1;fill-rule:nonzero;stroke:#000000;stroke-width:0.01875467px;stroke-linecap:butt;stroke-linejoin:round;stroke-opacity:1;stroke-dasharray:none" />
      <path
         d="m 767.17862,97.149202 c 0,-28.469592 23.06825,-51.575348 51.57535,-51.575348 28.46959,0 51.57535,23.105756 51.57535,51.575348 0,28.507098 -23.10576,51.575348 -51.57535,51.575348 -28.5071,0 -51.57535,-23.06825 -51.57535,-51.575348"
         id="path3175"
         style="fill:#8a3142;fill-opacity:1;fill-rule:evenodd;stroke:none" />
      <path
         d="M 640.05945,-0.07501869 778.80652,64.06596 768.07885,87.321754 629.29427,23.218284 z"
         id="path3177"
         style="fill:#e4eaf4;fill-opacity:1;fill-rule:evenodd;stroke:none" />
      <path
         d="m 724.75555,48.274526 7.95199,3.675916 -4.20105,9.039752 -7.95198,-3.638406 z"
         id="path3179"
         style="fill:#f5a030;fill-opacity:1;fill-rule:evenodd;stroke:none" />
      <path
         d="m 729.40671,53.7884 -4.8387,3.675916 -0.82521,-0.375094 5.10127,-3.788443 -3.26331,-1.500374 0.30008,-0.675168 3.93848,1.800448 z"
         id="path3181"
         style="fill:#000000;fill-opacity:1;fill-rule:nonzero;stroke:none" />
      <path
         d="m 693.47276,33.833429 7.95198,3.675916 -4.20104,9.039752 -7.91448,-3.675916 z"
         id="path3183"
         style="fill:#f5a030;fill-opacity:1;fill-rule:evenodd;stroke:none" />
      <path
         d="m 696.66106,42.648125 c -0.22506,0.487621 -0.63766,0.825205 -1.16279,0.975243 -0.52513,0.150037 -1.08777,0.07502 -1.68792,-0.187547 -0.63766,-0.300075 -1.05027,-0.675168 -1.27532,-1.16279 -0.22506,-0.487621 -0.22506,-1.012752 0.0375,-1.500374 0.15003,-0.337584 0.37509,-0.56264 0.67517,-0.750186 0.30007,-0.150038 0.63765,-0.262566 1.05026,-0.225056 l 0,-0.03751 c -0.22506,-0.300075 -0.3751,-0.600149 -0.41261,-0.862715 -0.075,-0.262565 -0.0375,-0.525131 0.11253,-0.825205 0.18755,-0.450112 0.52513,-0.712678 1.01275,-0.825206 0.48763,-0.150037 1.01276,-0.07502 1.5754,0.187547 0.56264,0.262565 0.97524,0.600149 1.16279,1.050261 0.22505,0.412603 0.22505,0.862715 0.0375,1.275318 -0.11253,0.262566 -0.30008,0.487622 -0.60015,0.637659 -0.26257,0.187547 -0.60015,0.262565 -0.97525,0.262565 l 0,0.03751 c 0.26257,0.300075 0.45012,0.637659 0.56264,0.937733 0.075,0.337585 0.0375,0.637659 -0.11252,1.012753 z m 0.37509,-3.225804 c 0.11253,-0.300075 0.11253,-0.56264 -0.0375,-0.825205 -0.11253,-0.262566 -0.33758,-0.450113 -0.67517,-0.60015 -0.33758,-0.150037 -0.63766,-0.187547 -0.90022,-0.150037 -0.30008,0.07502 -0.48762,0.225056 -0.60015,0.487621 -0.11253,0.187547 -0.11253,0.375094 -0.075,0.56264 0.0375,0.187547 0.15004,0.375094 0.30007,0.56264 0.075,0.112528 0.18755,0.225057 0.33759,0.375094 0.15004,0.150037 0.30007,0.300075 0.45011,0.412603 0.30007,-0.03751 0.56264,-0.112528 0.75019,-0.262566 0.18754,-0.150037 0.33758,-0.337584 0.45011,-0.56264 z m -1.2003,2.925729 c 0.075,-0.225056 0.11253,-0.450112 0.075,-0.637659 -0.0375,-0.187547 -0.15004,-0.450112 -0.4126,-0.712677 -0.075,-0.112528 -0.18755,-0.225057 -0.30008,-0.337585 -0.11253,-0.112528 -0.30007,-0.262565 -0.48762,-0.487621 -0.30007,0.03751 -0.56264,0.112528 -0.7877,0.262565 -0.26256,0.150038 -0.4126,0.375094 -0.56264,0.637659 -0.15003,0.337584 -0.15003,0.675168 -0.0375,1.012753 0.15004,0.337584 0.3751,0.600149 0.75019,0.787696 0.37509,0.150037 0.71268,0.187547 1.05026,0.112528 0.30008,-0.07502 0.52513,-0.300075 0.71268,-0.637659 z"
         id="path3185"
         style="fill:#000000;fill-opacity:1;fill-rule:nonzero;stroke:none" />
      <path
         d="m 680.60706,27.869443 7.95198,3.675916 -4.20105,9.039752 -7.95198,-3.638407 z"
         id="path3187"
         style="fill:#f5a030;fill-opacity:1;fill-rule:evenodd;stroke:none" />
      <path
         d="m 684.47052,35.071237 c -0.22506,0.487622 -0.48762,0.900224 -0.7877,1.275318 -0.30007,0.337584 -0.63766,0.600149 -1.01275,0.787696 -0.37509,0.187547 -0.7877,0.300075 -1.2003,0.300075 -0.4126,-0.03751 -0.86271,-0.150038 -1.35034,-0.337584 -0.15003,-0.07502 -0.26256,-0.150038 -0.37509,-0.225056 -0.11253,-0.03751 -0.18755,-0.112528 -0.26256,-0.187547 l 0.33758,-0.750187 0.0375,0.03751 c 0.0375,0.03751 0.15004,0.150038 0.26256,0.225056 0.11253,0.112528 0.26257,0.187547 0.41261,0.262566 0.56264,0.262565 1.08777,0.300075 1.57539,0.112528 0.48762,-0.187547 0.90022,-0.56264 1.23781,-1.12528 -0.33759,0 -0.60015,0 -0.82521,-0.03751 -0.26256,-0.03751 -0.48762,-0.112528 -0.75018,-0.225056 -0.22506,-0.112528 -0.45012,-0.225056 -0.60015,-0.337584 -0.18755,-0.150037 -0.33759,-0.337584 -0.45012,-0.56264 -0.15003,-0.262566 -0.22505,-0.525131 -0.22505,-0.825206 0,-0.300074 0.075,-0.600149 0.22505,-0.937733 0.26257,-0.60015 0.67517,-0.975243 1.23781,-1.16279 0.56264,-0.187547 1.08777,-0.150037 1.65041,0.112528 0.30008,0.112528 0.52513,0.262565 0.71268,0.450112 0.18755,0.225056 0.33759,0.450112 0.45011,0.675168 0.11253,0.337584 0.15004,0.675169 0.11253,1.087771 -0.0375,0.375094 -0.15004,0.825206 -0.4126,1.387846 z m -0.71268,-0.56264 c 0.18755,-0.375093 0.30008,-0.712678 0.33759,-1.012752 0.0375,-0.262566 0,-0.487622 -0.075,-0.712678 -0.075,-0.150037 -0.18755,-0.300075 -0.30008,-0.412603 -0.11253,-0.112528 -0.22505,-0.225056 -0.4126,-0.300074 -0.37509,-0.150038 -0.71268,-0.187547 -1.01275,-0.03751 -0.33759,0.112528 -0.60015,0.375094 -0.7877,0.825206 -0.11253,0.225056 -0.18755,0.450112 -0.18755,0.637659 0,0.187546 0.075,0.375093 0.18755,0.56264 0.075,0.150037 0.18755,0.262565 0.30008,0.337584 0.11252,0.07502 0.26256,0.187547 0.45011,0.262565 0.18754,0.07502 0.4126,0.150038 0.63766,0.187547 0.22505,0.03751 0.45011,0.03751 0.67516,0.03751 0.0375,-0.03751 0.075,-0.112528 0.11253,-0.150037 0,-0.07502 0.0375,-0.112528 0.075,-0.225056 z"
         id="path3189"
         style="fill:#000000;fill-opacity:1;fill-rule:nonzero;stroke:none" />
      <path
         d="m 624.23051,164.29093 141.2977,-60.2025 10.09002,23.6684 -141.2977,60.24 z"
         id="path3191"
         style="fill:#e4eaf4;fill-opacity:1;fill-rule:evenodd;stroke:none" />
      <path
         d="m 768.82903,104.80111 2.58815,-1.08777 8.8147,20.74267 -2.55064,1.08777 z"
         id="path3193"
         style="fill:#6e7277;fill-opacity:1;fill-rule:evenodd;stroke:none" />
      <path
         d="m 752.39994,118.26696 8.06451,-3.45086 3.93848,9.2273 -8.10202,3.41335 z"
         id="path3195"
         style="fill:#f5a030;fill-opacity:1;fill-rule:evenodd;stroke:none" />
      <path
         d="m 761.4772,123.55578 -0.71267,0.33758 -0.18755,-0.48762 c -0.15004,0.30008 -0.30008,0.52513 -0.48762,0.71268 -0.18755,0.22506 -0.41261,0.37509 -0.67517,0.48762 -0.52513,0.22506 -1.01275,0.18755 -1.50037,-0.075 -0.48763,-0.26256 -0.86272,-0.75018 -1.16279,-1.46286 -0.18755,-0.37509 -0.26257,-0.75019 -0.26257,-1.08777 -0.0375,-0.30008 0,-0.63766 0.11253,-0.90023 0.075,-0.26256 0.22505,-0.52513 0.4126,-0.71267 0.18755,-0.22506 0.4126,-0.3751 0.67517,-0.48762 0.22506,-0.075 0.45011,-0.15004 0.63766,-0.18755 0.18754,0 0.4126,-0.0375 0.63766,0 l -0.7877,-1.91298 0.71268,-0.30007 z m -1.16279,-0.75019 -1.08777,-2.51312 c -0.22505,0 -0.45011,0 -0.60015,0.0375 -0.18754,0.0375 -0.33758,0.11253 -0.52513,0.18754 -0.4126,0.15004 -0.67517,0.45012 -0.78769,0.82521 -0.11253,0.37509 -0.0375,0.86271 0.18754,1.38785 0.22506,0.48762 0.45011,0.86271 0.75019,1.05026 0.30007,0.18754 0.63766,0.22505 1.01275,0.0375 0.22506,-0.075 0.4126,-0.22506 0.60015,-0.41261 0.15004,-0.18754 0.30008,-0.37509 0.45011,-0.60015 z"
         id="path3197"
         style="fill:#000000;fill-opacity:1;fill-rule:nonzero;stroke:none" />
      <path
         d="m 734.24542,125.95638 8.10202,-3.41335 3.93848,9.18979 -8.10202,3.45086 z"
         id="path3199"
         style="fill:#f5a030;fill-opacity:1;fill-rule:evenodd;stroke:none" />
      <path
         d="m 742.72253,129.06965 -3.2258,1.38785 c 0.11253,0.26257 0.26256,0.48762 0.45011,0.63766 0.15004,0.15004 0.33758,0.30007 0.52513,0.33758 0.18755,0.075 0.37509,0.11253 0.60015,0.075 0.22506,0 0.45011,-0.075 0.67517,-0.15004 0.26256,-0.15003 0.56264,-0.30007 0.78769,-0.56264 0.26257,-0.26256 0.45012,-0.45011 0.52513,-0.63765 l 0.0375,0 0.33759,0.78769 c -0.22506,0.22506 -0.4126,0.4126 -0.63766,0.60015 -0.26257,0.18755 -0.48762,0.33759 -0.7877,0.45011 -0.71267,0.30008 -1.38784,0.33759 -1.95048,0.11253 -0.56264,-0.18755 -1.01275,-0.67517 -1.31283,-1.38784 -0.30007,-0.71268 -0.33758,-1.38785 -0.15004,-1.95049 0.22506,-0.60015 0.63766,-1.01275 1.27532,-1.27532 0.60015,-0.26256 1.12528,-0.30007 1.57539,-0.075 0.48762,0.18755 0.82521,0.63766 1.12528,1.27532 z m -0.93773,-0.26256 c -0.18755,-0.37509 -0.41261,-0.63766 -0.67517,-0.75019 -0.30008,-0.15004 -0.63766,-0.11253 -1.01275,0.0375 -0.41261,0.18755 -0.67517,0.4126 -0.7877,0.75019 -0.15004,0.33758 -0.15004,0.67517 -0.0375,1.05026 z"
         id="path3201"
         style="fill:#000000;fill-opacity:1;fill-rule:nonzero;stroke:none" />
      <path
         d="m 704.01289,138.85959 8.06451,-3.45086 3.93848,9.2273 -8.10202,3.45086 z"
         id="path3203"
         style="fill:#f5a030;fill-opacity:1;fill-rule:evenodd;stroke:none" />
      <path
         d="m 710.68955,138.85959 -0.0375,0.0375 c -0.075,0 -0.18755,0 -0.33758,0.0375 -0.15004,0.0375 -0.26257,0.075 -0.33759,0.11253 -0.33758,0.15004 -0.52513,0.30007 -0.60015,0.52513 -0.11252,0.18755 -0.075,0.45011 0.11253,0.82521 l 0.0375,0.15003 1.35034,-0.56264 0.26256,0.63766 -1.31282,0.52513 1.57539,3.75094 -0.71268,0.33758 -1.6129,-3.75093 -0.48762,0.18754 -0.26257,-0.60015 0.48762,-0.22505 -0.0375,-0.15004 c -0.22505,-0.48762 -0.26256,-0.97524 -0.15003,-1.35034 0.15003,-0.37509 0.45011,-0.67516 0.93773,-0.90022 0.18755,-0.075 0.33758,-0.11253 0.48762,-0.15004 0.11253,-0.0375 0.26257,-0.075 0.3751,-0.11252 z"
         id="path3205"
         style="fill:#000000;fill-opacity:1;fill-rule:nonzero;stroke:none" />
      <path
         d="m 672.16745,152.43798 8.06451,-3.45086 3.93848,9.2273 -8.10201,3.45085 z"
         id="path3207"
         style="fill:#f5a030;fill-opacity:1;fill-rule:evenodd;stroke:none" />
      <path
         d="m 681.05717,157.27668 c 0.30007,0.71268 0.37509,1.35034 0.18755,1.83796 -0.18755,0.48762 -0.63766,0.86271 -1.35034,1.16279 -0.22506,0.11253 -0.45011,0.18755 -0.67517,0.26256 -0.22506,0.0375 -0.48762,0.11253 -0.71268,0.15004 l -0.33758,-0.75018 0.0375,-0.0375 c 0.15004,0 0.37509,-0.0375 0.67517,-0.075 0.26256,-0.0375 0.56264,-0.11253 0.8252,-0.22506 0.22506,-0.11253 0.4126,-0.22506 0.56264,-0.33758 0.15004,-0.15004 0.22506,-0.30008 0.30008,-0.41261 0.0375,-0.15003 0.0375,-0.30007 0.0375,-0.45011 -0.0375,-0.18754 -0.075,-0.33758 -0.15004,-0.52513 l -0.18755,-0.4126 c -0.15004,0.30007 -0.30007,0.52513 -0.45011,0.67517 -0.18755,0.18754 -0.4126,0.33758 -0.71268,0.48762 -0.52513,0.18754 -1.01275,0.18754 -1.50037,-0.0375 -0.45011,-0.26257 -0.82521,-0.71268 -1.12528,-1.42536 -0.15004,-0.37509 -0.26257,-0.71267 -0.26257,-1.01275 0,-0.33758 0.0375,-0.63766 0.11253,-0.90022 0.11253,-0.26257 0.26257,-0.48762 0.45011,-0.71268 0.18755,-0.18755 0.41261,-0.33758 0.67517,-0.45011 0.22506,-0.11253 0.45011,-0.18755 0.63766,-0.18755 0.18755,-0.0375 0.4126,-0.0375 0.63766,0 l 0,-0.22506 0.67517,-0.26256 z m -1.05026,-0.4126 -1.01276,-2.36309 c -0.22505,0 -0.45011,0 -0.60015,0.0375 -0.18754,0.0375 -0.37509,0.075 -0.56264,0.15004 -0.37509,0.18754 -0.63765,0.45011 -0.75018,0.8252 -0.11253,0.3751 -0.075,0.82521 0.15004,1.31283 0.18754,0.48762 0.45011,0.82521 0.71267,1.01275 0.30008,0.18755 0.63766,0.18755 1.01276,0 0.22505,-0.075 0.4126,-0.22505 0.60014,-0.37509 0.18755,-0.18755 0.33759,-0.3751 0.45012,-0.60015 z"
         id="path3209"
         style="fill:#000000;fill-opacity:1;fill-rule:nonzero;stroke:none" />
      <path
         d="m 659.03918,158.02687 8.10202,-3.45086 3.93848,9.2273 -8.10202,3.45086 z"
         id="path3211"
         style="fill:#f5a030;fill-opacity:1;fill-rule:evenodd;stroke:none" />
      <path
         d="m 668.26648,163.31569 -0.75018,0.30007 -1.05027,-2.47562 c -0.075,-0.22505 -0.18754,-0.37509 -0.26256,-0.56264 -0.11253,-0.15003 -0.22506,-0.30007 -0.30008,-0.33758 -0.11252,-0.11253 -0.26256,-0.15004 -0.4126,-0.15004 -0.15004,0 -0.30007,0.0375 -0.48762,0.15004 -0.22506,0.075 -0.4126,0.22506 -0.56264,0.4126 -0.18755,0.18755 -0.33759,0.41261 -0.48762,0.63766 l 1.38784,3.26331 -0.71267,0.30008 -2.58815,-6.07651 0.71268,-0.30008 0.93773,2.17554 c 0.15004,-0.26256 0.33759,-0.52513 0.52513,-0.75018 0.18755,-0.18755 0.41261,-0.3751 0.67517,-0.45012 0.48762,-0.22505 0.90023,-0.22505 1.27532,-0.0375 0.37509,0.15004 0.67517,0.52514 0.90022,1.05027 z"
         id="path3213"
         style="fill:#000000;fill-opacity:1;fill-rule:nonzero;stroke:none" />
      <path
         d="m 663.35276,3.0382569 101.23772,47.4868301 -1.2003,2.550635 -101.23772,-47.4868297 1.2003,-2.5506354 z m 101.12519,44.3360451 5.85146,7.42685 -9.41485,0.225056 3.56339,-7.651906 z"
         id="path3215"
         style="fill:#000000;fill-opacity:1;fill-rule:nonzero;stroke:#000000;stroke-width:0.03750934px;stroke-linecap:butt;stroke-linejoin:round;stroke-opacity:1;stroke-dasharray:none" />
      <path
         d="m 654.87565,188.70951 105.10118,-44.82366 -1.08777,-2.58815 -105.10119,44.82367 1.08778,2.58814 z m 104.91363,-41.71039 6.11403,-7.16428 -9.41485,-0.60015 3.30082,7.76443 z"
         id="path3217"
         style="fill:#000000;fill-opacity:1;fill-rule:nonzero;stroke:#000000;stroke-width:0.03750934px;stroke-linecap:butt;stroke-linejoin:round;stroke-opacity:1;stroke-dasharray:none" />
      <path
         d="m 869.39159,84.170969 0,25.656391 69.99243,0 0,-25.656391 -69.99243,0 z"
         id="path3219"
         style="fill:#e4eaf4;fill-opacity:1;fill-rule:evenodd;stroke:none" />
      <path
         d="m 901.08698,92.010422 0,9.977488 8.77719,0 0,-9.977488 -8.77719,0 z"
         id="path3221"
         style="fill:#f5a030;fill-opacity:1;fill-rule:evenodd;stroke:none" />
      <text
         x="902.7738"
         y="100.50934"
         id="text3223"
         xml:space="preserve"
         style="font-size:8.70216751px;font-style:normal;font-weight:normal;text-align:start;text-anchor:start;fill:#000000;font-family:Verdana">b</text>
      <path
         d="m 886.87094,92.010422 0,9.977488 8.77719,0 0,-9.977488 -8.77719,0 z"
         id="path3225"
         style="fill:#f5a030;fill-opacity:1;fill-rule:evenodd;stroke:none" />
      <text
         x="888.99445"
         y="100.50944"
         id="text3227"
         xml:space="preserve"
         style="font-size:8.70216751px;font-style:normal;font-weight:normal;text-align:start;text-anchor:start;fill:#000000;font-family:Verdana">c</text>
      <path
         d="m 870.32932,77.306759 42.57311,0 0,2.813201 -42.57311,0 0,-2.813201 z m 41.14775,-2.813201 8.4396,4.201047 -8.4396,4.238556 0,-8.439603 z"
         id="path3229"
         style="fill:#000000;fill-opacity:1;fill-rule:nonzero;stroke:#000000;stroke-width:0.03750934px;stroke-linecap:butt;stroke-linejoin:round;stroke-opacity:1;stroke-dasharray:none" />
      <text
         x="783.42834"
         y="123.98867"
         id="text3231"
         xml:space="preserve"
         style="font-size:17.55437279px;font-style:normal;font-weight:normal;text-align:start;text-anchor:start;fill:#000000;font-family:Verdana">operator</text>
      <path
         d="m 792.30988,70.104965 0,19.542368 57.05172,0 0,-19.542368 -57.05172,0 z"
         id="path3233"
         style="fill:#b8bec6;fill-opacity:1;fill-rule:evenodd;stroke:none" />
      <path
         d="m 823.25509,74.94367 0,10.014995 8.77719,0 0,-10.014995 -8.77719,0 z"
         id="path3235"
         style="fill:#f5a030;fill-opacity:1;fill-rule:evenodd;stroke:none" />
      <text
         x="824.888"
         y="83.519775"
         id="text3237"
         xml:space="preserve"
         style="font-size:8.70216751px;font-style:normal;font-weight:normal;text-align:start;text-anchor:start;fill:#000000;font-family:Verdana">2</text>
      <path
         d="m 809.03905,74.94367 0,10.014995 8.77719,0 0,-10.014995 -8.77719,0 z"
         id="path3239"
         style="fill:#f5a030;fill-opacity:1;fill-rule:evenodd;stroke:none" />
      <text
         x="810.63989"
         y="83.519875"
         id="text3241"
         xml:space="preserve"
         style="font-size:8.70216751px;font-style:normal;font-weight:normal;text-align:start;text-anchor:start;fill:#000000;font-family:Verdana">3</text>
      <path
         d="m 836.57091,74.793633 0,10.014995 8.73968,0 0,-10.014995 -8.73968,0 z"
         id="path3243"
         style="fill:#f5a030;fill-opacity:1;fill-rule:evenodd;stroke:none" />
      <text
         x="838.15717"
         y="83.34581"
         id="text3245"
         xml:space="preserve"
         style="font-size:8.70216751px;font-style:normal;font-weight:normal;text-align:start;text-anchor:start;fill:#000000;font-family:Verdana">1</text>
      <path
         d="m 755.62575,62.265512 7.95198,3.675916 -4.16354,9.039752 -7.95198,-3.638407 z"
         id="path3247"
         style="fill:#f5a030;fill-opacity:1;fill-rule:evenodd;stroke:none" />
      <path
         d="m 758.81404,70.817642 c -0.11253,0.262566 -0.30008,0.487622 -0.48762,0.712678 -0.22506,0.187547 -0.45011,0.337584 -0.67517,0.412603 -0.30007,0.112528 -0.56264,0.150037 -0.86272,0.112528 -0.30007,0 -0.63765,-0.112528 -0.97524,-0.262566 -0.30007,-0.150037 -0.60015,-0.300074 -0.86271,-0.52513 -0.26257,-0.187547 -0.45012,-0.375094 -0.60015,-0.562641 l 0.37509,-0.825205 0.0375,0.03751 c 0.15004,0.225056 0.33758,0.450112 0.60015,0.675168 0.22506,0.225056 0.48762,0.412603 0.75019,0.525131 0.18754,0.07502 0.37509,0.150038 0.56264,0.187547 0.18754,0 0.4126,0 0.60015,-0.07502 0.15003,-0.07502 0.30007,-0.150037 0.4126,-0.262565 0.15004,-0.150038 0.26256,-0.300075 0.33758,-0.525131 0.11253,-0.187547 0.15004,-0.375093 0.15004,-0.525131 0,-0.187547 -0.0375,-0.337584 -0.15004,-0.450112 -0.075,-0.187547 -0.22505,-0.337584 -0.37509,-0.450112 -0.18755,-0.112528 -0.37509,-0.262565 -0.63766,-0.375094 -0.22506,-0.07502 -0.45011,-0.187546 -0.67517,-0.225056 -0.18754,-0.07502 -0.4126,-0.112528 -0.56264,-0.187546 l 1.35034,-2.925729 3.45086,1.575392 -0.30008,0.675168 -2.70067,-1.237808 -0.71268,1.500374 c 0.11253,0.07502 0.22506,0.112528 0.33759,0.150037 0.15004,0.03751 0.22505,0.112528 0.30007,0.150038 0.33759,0.112528 0.60015,0.262565 0.7877,0.450112 0.22505,0.150037 0.37509,0.337584 0.52513,0.56264 0.15004,0.225056 0.22506,0.487621 0.22506,0.787696 0,0.262566 -0.075,0.56264 -0.22506,0.900224 z"
         id="path3249"
         style="fill:#000000;fill-opacity:1;fill-rule:nonzero;stroke:none" />
      <path
         d="m 742.76004,56.301526 7.95198,3.675916 -4.20105,9.077261 -7.91447,-3.675916 z"
         id="path3251"
         style="fill:#f5a030;fill-opacity:1;fill-rule:evenodd;stroke:none" />
      <path
         d="m 746.09837,64.891166 c -0.26256,0.60015 -0.67517,0.975243 -1.23781,1.16279 -0.56264,0.187546 -1.12528,0.150037 -1.68792,-0.112528 -0.26256,-0.112528 -0.48762,-0.262566 -0.67517,-0.487622 -0.22505,-0.187547 -0.33758,-0.412603 -0.45011,-0.637659 -0.11253,-0.337584 -0.15003,-0.712677 -0.11253,-1.087771 0.0375,-0.412602 0.18755,-0.862715 0.41261,-1.387845 0.22505,-0.487622 0.48762,-0.900225 0.78769,-1.275318 0.30008,-0.337584 0.60015,-0.60015 1.01276,-0.787696 0.33758,-0.187547 0.75018,-0.300075 1.16279,-0.300075 0.45011,0.03751 0.90022,0.112528 1.38784,0.337584 0.15004,0.07502 0.26257,0.150037 0.37509,0.225056 0.075,0.03751 0.18755,0.112528 0.26257,0.187547 l -0.33758,0.750187 -0.0375,-0.03751 c -0.0375,-0.03751 -0.15004,-0.150037 -0.26257,-0.262565 -0.15004,-0.07502 -0.30007,-0.187547 -0.45011,-0.225056 -0.52513,-0.262566 -1.05026,-0.300075 -1.53788,-0.112528 -0.48763,0.187547 -0.90023,0.56264 -1.23781,1.12528 0.30007,0 0.52513,0 0.78769,0 0.22506,0.03751 0.48763,0.112528 0.7877,0.262566 0.22506,0.112528 0.4126,0.225056 0.60015,0.337584 0.15004,0.150037 0.30007,0.337584 0.45011,0.56264 0.15004,0.262565 0.22506,0.525131 0.22506,0.825205 0,0.300075 -0.075,0.60015 -0.22506,0.937734 z m -0.78769,-0.337584 c 0.11252,-0.225056 0.15003,-0.450112 0.15003,-0.637659 0,-0.187547 -0.0375,-0.375093 -0.15003,-0.56264 -0.075,-0.150037 -0.18755,-0.262566 -0.33759,-0.337584 -0.11253,-0.112528 -0.26256,-0.187547 -0.4126,-0.262566 -0.22506,-0.112528 -0.45011,-0.150037 -0.63766,-0.187546 -0.22506,-0.03751 -0.45011,-0.03751 -0.71268,-0.03751 -0.0375,0.03751 -0.0375,0.112528 -0.075,0.150038 -0.0375,0.07502 -0.075,0.112528 -0.11252,0.187546 -0.18755,0.412603 -0.26257,0.750187 -0.30008,1.050262 -0.0375,0.262565 0,0.487622 0.075,0.712678 0.075,0.150037 0.15004,0.300074 0.26256,0.412602 0.11253,0.112528 0.26257,0.225056 0.41261,0.300075 0.37509,0.150038 0.75018,0.187547 1.05026,0.07502 0.33758,-0.150038 0.56264,-0.412603 0.7877,-0.862715 z"
         id="path3253"
         style="fill:#000000;fill-opacity:1;fill-rule:nonzero;stroke:none" />
      <text
         x="794.7132"
         y="31.091112"
         id="text3255"
         xml:space="preserve"
         style="font-size:13.80343914px;font-style:normal;font-weight:normal;text-align:start;text-anchor:start;fill:#000000;font-family:Verdana">emit barrier </text>
      <text
         x="881.73486"
         y="31.091112"
         id="text3257"
         xml:space="preserve"
         style="font-size:13.80343914px;font-style:italic;font-weight:normal;text-align:start;text-anchor:start;fill:#000000;font-family:Verdana">n</text>
      <path
         d="m 862.63991,84.658591 0,22.505609 2.8132,0 0,-22.505609 -2.8132,0 z"
         id="path3259"
         style="fill:#6e7277;fill-opacity:1;fill-rule:evenodd;stroke:none" />
      <path
         d="m 1071.0043,97.149202 c 0,-28.469592 23.0683,-51.575348 51.5754,-51.575348 28.4696,0 51.5753,23.105756 51.5753,51.575348 0,28.507098 -23.1057,51.575348 -51.5753,51.575348 -28.5071,0 -51.5754,-23.06825 -51.5754,-51.575348"
         id="path3261"
         style="fill:#8a3142;fill-opacity:1;fill-rule:evenodd;stroke:none" />
      <path
         d="M 943.81013,-0.07501869 1082.5947,64.06596 1071.8295,87.321754 933.08245,23.218284 z"
         id="path3263"
         style="fill:#e4eaf4;fill-opacity:1;fill-rule:evenodd;stroke:none" />
      <path
         d="m 1034.3202,51.162746 7.952,3.675916 -4.2011,9.077261 -7.9145,-3.675916 z"
         id="path3265"
         style="fill:#f5a030;fill-opacity:1;fill-rule:evenodd;stroke:none" />
      <path
         d="m 1038.9713,56.714129 -4.8387,3.675916 -0.8252,-0.375094 5.1013,-3.788444 -3.2633,-1.537883 0.3001,-0.675168 3.9384,1.837958 z"
         id="path3267"
         style="fill:#000000;fill-opacity:1;fill-rule:nonzero;stroke:none" />
      <path
         d="m 1003.0374,36.721648 7.952,3.675916 -4.2011,9.039752 -7.91446,-3.675916 z"
         id="path3269"
         style="fill:#f5a030;fill-opacity:1;fill-rule:evenodd;stroke:none" />
      <path
         d="m 1006.2257,45.536344 c -0.2251,0.487622 -0.6377,0.825206 -1.1628,0.975243 -0.5251,0.150038 -1.0878,0.07502 -1.6879,-0.187547 -0.6377,-0.300074 -1.0503,-0.675168 -1.2754,-1.162789 -0.225,-0.487622 -0.1875,-0.975243 0.038,-1.500374 0.15,-0.300075 0.3751,-0.56264 0.6751,-0.712678 0.3001,-0.187546 0.6377,-0.262565 1.0503,-0.262565 l 0.037,-0.03751 c -0.2626,-0.300075 -0.4126,-0.60015 -0.4501,-0.862715 -0.075,-0.262566 -0.038,-0.525131 0.1125,-0.825206 0.1876,-0.412603 0.5627,-0.712677 1.0503,-0.825205 0.4876,-0.112528 0.9752,-0.07502 1.5379,0.187546 0.5626,0.262566 0.9752,0.60015 1.1627,1.050262 0.2251,0.450112 0.2251,0.862715 0.038,1.275318 -0.1126,0.262565 -0.3001,0.487621 -0.6002,0.675168 -0.2626,0.150037 -0.6001,0.262565 -0.9752,0.262565 l 0,0 c 0.2625,0.337584 0.4501,0.637659 0.5626,0.975243 0.075,0.300075 0.038,0.637659 -0.1125,0.975243 z m 0.3751,-3.225803 c 0.1125,-0.262566 0.1125,-0.525131 0,-0.787697 -0.1501,-0.262565 -0.3751,-0.487621 -0.7127,-0.637658 -0.3376,-0.150038 -0.6377,-0.187547 -0.9002,-0.150038 -0.3001,0.07502 -0.4877,0.225056 -0.6002,0.487622 -0.075,0.187546 -0.1125,0.375093 -0.075,0.56264 0.038,0.187547 0.15,0.375093 0.3001,0.56264 0.075,0.112528 0.1875,0.225056 0.3376,0.375093 0.15,0.187547 0.3,0.300075 0.4501,0.450113 0.3,-0.07502 0.5626,-0.150038 0.7502,-0.300075 0.1875,-0.150038 0.3375,-0.337584 0.4501,-0.56264 z m -1.2003,2.925728 c 0.1125,-0.225056 0.1125,-0.450112 0.075,-0.637658 -0.038,-0.187547 -0.15,-0.412603 -0.4126,-0.712678 -0.075,-0.112528 -0.1876,-0.225056 -0.3001,-0.337584 -0.1125,-0.112528 -0.3001,-0.262565 -0.4876,-0.450112 -0.3001,0 -0.5627,0.07502 -0.7877,0.225056 -0.2626,0.150037 -0.4126,0.375093 -0.5626,0.637659 -0.1501,0.375093 -0.1501,0.712677 -0.038,1.050261 0.1501,0.337585 0.3751,0.562641 0.7502,0.750187 0.3751,0.187547 0.7127,0.225056 1.0503,0.112528 0.3001,-0.07502 0.5251,-0.300074 0.7127,-0.637659 z"
         id="path3271"
         style="fill:#000000;fill-opacity:1;fill-rule:nonzero;stroke:none" />
      <path
         d="m 990.17168,30.757663 7.95198,3.675915 -4.20105,9.077262 -7.95198,-3.675916 z"
         id="path3273"
         style="fill:#f5a030;fill-opacity:1;fill-rule:evenodd;stroke:none" />
      <path
         d="m 994.03514,37.959457 c -0.22506,0.487621 -0.48762,0.937733 -0.7877,1.275317 -0.30007,0.375094 -0.63766,0.637659 -1.01275,0.825206 -0.37509,0.187547 -0.75019,0.262565 -1.2003,0.262565 -0.4126,0 -0.86271,-0.112528 -1.35033,-0.337584 -0.11253,-0.07502 -0.26257,-0.112528 -0.3751,-0.187546 -0.11253,-0.07502 -0.18755,-0.150038 -0.26256,-0.225057 l 0.33758,-0.750186 0.0375,0.03751 c 0.0375,0.07502 0.15004,0.150037 0.26257,0.262565 0.11252,0.07502 0.26256,0.187547 0.4126,0.262566 0.60015,0.262565 1.08777,0.300075 1.57539,0.112528 0.48762,-0.225056 0.90022,-0.60015 1.23781,-1.16279 -0.33759,0.03751 -0.60015,0.03751 -0.82521,0 -0.26256,-0.03751 -0.48762,-0.112528 -0.75018,-0.225056 -0.22506,-0.112528 -0.41261,-0.225056 -0.60015,-0.375093 -0.18755,-0.150038 -0.33759,-0.300075 -0.45012,-0.525131 -0.15003,-0.262566 -0.22505,-0.56264 -0.22505,-0.862715 0,-0.262566 0.075,-0.60015 0.22505,-0.937734 0.26257,-0.56264 0.67517,-0.975243 1.23781,-1.162789 0.56264,-0.187547 1.08777,-0.150038 1.65041,0.112528 0.30008,0.112528 0.52513,0.300074 0.71268,0.487621 0.22506,0.187547 0.33759,0.412603 0.45011,0.675168 0.11253,0.300075 0.15004,0.675168 0.11253,1.050262 -0.0375,0.375093 -0.15004,0.862715 -0.4126,1.387846 z m -0.71268,-0.525131 c 0.18755,-0.412603 0.30008,-0.750187 0.33759,-1.012752 0.0375,-0.300075 0,-0.525131 -0.075,-0.750187 -0.075,-0.150038 -0.15004,-0.300075 -0.30008,-0.412603 -0.11253,-0.112528 -0.22505,-0.225056 -0.4126,-0.300075 -0.37509,-0.150037 -0.71268,-0.187547 -1.01275,-0.03751 -0.33759,0.112528 -0.60015,0.412603 -0.7877,0.825205 -0.11253,0.225056 -0.15004,0.450112 -0.18755,0.637659 0,0.187547 0.075,0.375094 0.18755,0.56264 0.075,0.150038 0.18755,0.262566 0.30008,0.337584 0.11252,0.112528 0.26256,0.187547 0.45011,0.262566 0.18754,0.112528 0.4126,0.150037 0.63766,0.187547 0.22505,0.07502 0.45011,0.07502 0.67516,0.03751 0.0375,-0.03751 0.075,-0.112528 0.11253,-0.150037 0,-0.03751 0.0375,-0.112528 0.075,-0.187547 z"
         id="path3275"
         style="fill:#000000;fill-opacity:1;fill-rule:nonzero;stroke:none" />
      <path
         d="m 927.98118,164.29093 141.29772,-60.2025 10.09,23.6684 -141.26019,60.24 z"
         id="path3277"
         style="fill:#e4eaf4;fill-opacity:1;fill-rule:evenodd;stroke:none" />
      <path
         d="m 1057.501,117.44176 8.102,-3.45086 3.9384,9.2273 -8.102,3.45086 z"
         id="path3279"
         style="fill:#f5a030;fill-opacity:1;fill-rule:evenodd;stroke:none" />
      <path
         d="m 1066.6157,122.76808 -0.7502,0.30008 -0.1875,-0.45011 c -0.1125,0.26256 -0.3001,0.52513 -0.4501,0.71267 -0.1876,0.18755 -0.4126,0.33759 -0.7127,0.48763 -0.5251,0.18754 -1.0128,0.18754 -1.5004,-0.075 -0.4501,-0.30008 -0.8627,-0.7877 -1.1628,-1.50038 -0.15,-0.37509 -0.225,-0.71267 -0.2625,-1.05026 0,-0.33758 0.037,-0.63766 0.1125,-0.90022 0.1125,-0.30008 0.2251,-0.52513 0.4501,-0.75019 0.1876,-0.18755 0.4126,-0.33758 0.6377,-0.45011 0.225,-0.11253 0.4501,-0.15004 0.6376,-0.18755 0.2251,-0.0375 0.4501,-0.0375 0.6752,0 l -0.8252,-1.91297 0.7502,-0.30008 z m -1.2003,-0.75018 -1.0502,-2.51313 c -0.2251,0 -0.4502,0 -0.6002,0.0375 -0.1875,0.0375 -0.3751,0.075 -0.5626,0.15004 -0.4126,0.18755 -0.6752,0.48762 -0.7502,0.86271 -0.1125,0.3751 -0.075,0.82521 0.15,1.35034 0.2251,0.52513 0.4876,0.90022 0.7877,1.08777 0.3001,0.18755 0.6377,0.18755 1.0128,0.0375 0.225,-0.075 0.4126,-0.22506 0.5626,-0.4126 0.1876,-0.18755 0.3376,-0.3751 0.4501,-0.60015 z"
         id="path3281"
         style="fill:#000000;fill-opacity:1;fill-rule:nonzero;stroke:none" />
      <path
         d="m 1039.3839,125.16868 8.1021,-3.45086 3.9009,9.2273 -8.0645,3.45086 z"
         id="path3283"
         style="fill:#f5a030;fill-opacity:1;fill-rule:evenodd;stroke:none" />
      <path
         d="m 1047.861,128.28196 -3.2258,1.35033 c 0.1126,0.30008 0.2626,0.48763 0.4126,0.67517 0.1876,0.15004 0.3376,0.26257 0.5627,0.33759 0.1875,0.075 0.3751,0.075 0.6001,0.075 0.1876,0 0.4126,-0.075 0.6377,-0.15004 0.3001,-0.15004 0.5626,-0.33759 0.8252,-0.56264 0.2626,-0.26257 0.4126,-0.48762 0.4876,-0.63766 l 0.037,0 0.3376,0.7877 c -0.1875,0.18754 -0.4126,0.4126 -0.6376,0.56264 -0.2251,0.18754 -0.4877,0.33758 -0.7502,0.48762 -0.7502,0.30007 -1.3879,0.33758 -1.9505,0.11253 -0.6002,-0.22506 -1.0128,-0.67517 -1.3128,-1.38785 -0.3376,-0.75019 -0.3751,-1.38785 -0.1501,-1.95049 0.1876,-0.60015 0.6377,-1.01275 1.2753,-1.31282 0.5627,-0.22506 1.0878,-0.26257 1.5754,-0.0375 0.4501,0.18754 0.8252,0.60015 1.0878,1.23781 z m -0.9752,-0.26257 c -0.15,-0.37509 -0.3751,-0.63766 -0.6752,-0.78769 -0.2625,-0.11253 -0.6001,-0.11253 -0.9752,0.075 -0.4126,0.15003 -0.6752,0.4126 -0.8252,0.75018 -0.1125,0.33759 -0.1125,0.67517 0,1.01275 z"
         id="path3285"
         style="fill:#000000;fill-opacity:1;fill-rule:nonzero;stroke:none" />
      <path
         d="m 1009.1139,138.0719 8.102,-3.45086 3.9385,9.2273 -8.102,3.45086 z"
         id="path3287"
         style="fill:#f5a030;fill-opacity:1;fill-rule:evenodd;stroke:none" />
      <path
         d="m 1015.8281,138.0719 -0.037,0 c -0.075,0.0375 -0.1876,0.0375 -0.3376,0.075 -0.1501,0.0375 -0.2626,0.075 -0.3751,0.11252 -0.3001,0.11253 -0.5251,0.30008 -0.6002,0.48763 -0.075,0.22505 -0.038,0.48762 0.1126,0.86271 l 0.075,0.15004 1.3128,-0.56264 0.2626,0.60015 -1.2753,0.56264 1.5753,3.75093 -0.7126,0.30008 -1.6129,-3.75094 -0.4877,0.22506 -0.2625,-0.60015 0.4876,-0.22506 -0.075,-0.15003 c -0.2251,-0.52514 -0.2626,-0.97525 -0.1125,-1.35034 0.15,-0.4126 0.4501,-0.67517 0.9377,-0.90023 0.15,-0.075 0.3376,-0.11252 0.4501,-0.15003 0.15,-0.0375 0.2626,-0.075 0.3751,-0.11253 z"
         id="path3289"
         style="fill:#000000;fill-opacity:1;fill-rule:nonzero;stroke:none" />
      <path
         d="m 977.26846,151.65028 8.10202,-3.45086 3.93848,9.2273 -8.10202,3.45086 z"
         id="path3291"
         style="fill:#f5a030;fill-opacity:1;fill-rule:evenodd;stroke:none" />
      <path
         d="m 986.15818,156.45148 c 0.33758,0.75018 0.4126,1.38784 0.22505,1.87546 -0.18754,0.48762 -0.63766,0.86272 -1.35033,1.16279 -0.22506,0.11253 -0.45012,0.18755 -0.71268,0.22506 -0.22506,0.075 -0.45011,0.11253 -0.67517,0.15004 l -0.33758,-0.75019 0.0375,0 c 0.15003,0 0.37509,-0.0375 0.63765,-0.075 0.30008,-0.0375 0.56264,-0.11253 0.82521,-0.22506 0.26257,-0.11252 0.45011,-0.22505 0.60015,-0.37509 0.15004,-0.11253 0.22506,-0.26256 0.26257,-0.4126 0.0375,-0.11253 0.075,-0.26257 0.0375,-0.45011 0,-0.15004 -0.075,-0.30008 -0.15003,-0.48763 l -0.15004,-0.4126 c -0.15004,0.26257 -0.30007,0.48762 -0.48762,0.67517 -0.15004,0.18755 -0.3751,0.33758 -0.71268,0.45011 -0.52513,0.22506 -1.01275,0.22506 -1.46286,-0.0375 -0.48763,-0.22505 -0.86272,-0.71267 -1.16279,-1.38784 -0.15004,-0.3751 -0.22506,-0.71268 -0.22506,-1.05026 -0.0375,-0.30008 0,-0.60015 0.11253,-0.86272 0.11253,-0.26256 0.22505,-0.48762 0.45011,-0.71268 0.18755,-0.18754 0.4126,-0.37509 0.63766,-0.45011 0.26257,-0.11253 0.48762,-0.18755 0.67517,-0.18755 0.18754,-0.0375 0.4126,-0.0375 0.63766,0 l -0.0375,-0.22505 0.71267,-0.30008 z m -1.01276,-0.3751 -1.01275,-2.36309 c -0.22505,-0.0375 -0.45011,0 -0.63766,0.0375 -0.18754,0.0375 -0.33758,0.075 -0.52513,0.15004 -0.4126,0.15004 -0.67517,0.45011 -0.78769,0.82521 -0.11253,0.33758 -0.0375,0.78769 0.15003,1.31282 0.22506,0.48762 0.48763,0.82521 0.75019,1.01276 0.26257,0.18754 0.63766,0.18754 1.01275,0 0.22506,-0.075 0.41261,-0.22506 0.60015,-0.3751 0.18755,-0.18754 0.33759,-0.37509 0.45011,-0.60015 z"
         id="path3293"
         style="fill:#000000;fill-opacity:1;fill-rule:nonzero;stroke:none" />
      <path
         d="m 964.1777,157.23917 8.06451,-3.45086 3.93848,9.2273 -8.06451,3.45086 z"
         id="path3295"
         style="fill:#f5a030;fill-opacity:1;fill-rule:evenodd;stroke:none" />
      <path
         d="m 973.405,162.49048 -0.75019,0.33758 -1.05026,-2.51312 c -0.11253,-0.18755 -0.18755,-0.37509 -0.30007,-0.52513 -0.075,-0.18755 -0.18755,-0.30008 -0.30008,-0.3751 -0.11253,-0.075 -0.22505,-0.11252 -0.37509,-0.11252 -0.15004,0 -0.30008,0.0375 -0.52513,0.11252 -0.18755,0.075 -0.3751,0.22506 -0.56264,0.41261 -0.15004,0.18754 -0.33759,0.4126 -0.45012,0.67517 l 1.38785,3.2258 -0.75019,0.33758 -2.58814,-6.07651 0.75019,-0.33758 0.93773,2.21305 c 0.15004,-0.30008 0.30007,-0.52513 0.52513,-0.75019 0.18755,-0.22506 0.4126,-0.37509 0.67517,-0.48762 0.48762,-0.18755 0.90022,-0.18755 1.27532,-0.0375 0.33758,0.18755 0.63766,0.56264 0.86271,1.08777 z"
         id="path3297"
         style="fill:#000000;fill-opacity:1;fill-rule:nonzero;stroke:none" />
      <path
         d="m 967.02841,3.0382569 101.20019,47.4868301 -1.2003,2.550635 -101.20019,-47.4868297 1.2003,-2.5506354 z m 101.12519,44.3360451 5.8515,7.42685 -9.4149,0.225056 3.5634,-7.651906 z"
         id="path3299"
         style="fill:#000000;fill-opacity:1;fill-rule:nonzero;stroke:#000000;stroke-width:0.03750934px;stroke-linecap:butt;stroke-linejoin:round;stroke-opacity:1;stroke-dasharray:none" />
      <path
         d="m 958.70134,188.70951 105.10116,-44.82366 -1.0878,-2.58815 -105.10113,44.82367 1.08777,2.58814 z m 104.91366,-41.71039 6.114,-7.16428 -9.4148,-0.60015 3.3008,7.76443 z"
         id="path3301"
         style="fill:#000000;fill-opacity:1;fill-rule:nonzero;stroke:#000000;stroke-width:0.03750934px;stroke-linecap:butt;stroke-linejoin:round;stroke-opacity:1;stroke-dasharray:none" />
      <path
         d="m 1173.2173,84.170969 0,25.656391 71.5678,0 0,-25.656391 -71.5678,0 z"
         id="path3303"
         style="fill:#e4eaf4;fill-opacity:1;fill-rule:evenodd;stroke:none" />
      <path
         d="m 1232.482,91.672838 0,10.052502 8.7022,0 0,-10.052502 -8.7022,0 z"
         id="path3305"
         style="fill:#f5a030;fill-opacity:1;fill-rule:evenodd;stroke:none" />
      <text
         x="1234.6501"
         y="100.24077"
         id="text3307"
         xml:space="preserve"
         style="font-size:8.70216751px;font-style:normal;font-weight:normal;text-align:start;text-anchor:start;fill:#000000;font-family:Verdana">c</text>
      <path
         d="m 1174.1925,77.344268 42.5356,0 0,2.775692 -42.5356,0 0,-2.775692 z m 41.1103,-2.85071 8.4771,4.201047 -8.4771,4.276065 0,-8.477112 z"
         id="path3309"
         style="fill:#000000;fill-opacity:1;fill-rule:nonzero;stroke:#000000;stroke-width:0.07501869px;stroke-linecap:butt;stroke-linejoin:round;stroke-opacity:1;stroke-dasharray:none" />
      <text
         x="1087.1899"
         y="123.98876"
         id="text3311"
         xml:space="preserve"
         style="font-size:17.55437279px;font-style:normal;font-weight:normal;text-align:start;text-anchor:start;fill:#000000;font-family:Verdana">operator</text>
      <path
         d="m 1095.9855,70.104965 0,19.542368 57.0518,0 0,-19.542368 -57.0518,0 z"
         id="path3313"
         style="fill:#b8bec6;fill-opacity:1;fill-rule:evenodd;stroke:none" />
      <path
         d="m 1195.7229,91.822875 0,10.014995 8.8897,0 0,-10.014995 -8.8897,0 z"
         id="path3315"
         style="fill:#f5a030;fill-opacity:1;fill-rule:evenodd;stroke:none" />
      <text
         x="1197.3989"
         y="100.41473"
         id="text3317"
         xml:space="preserve"
         style="font-size:8.70216751px;font-style:normal;font-weight:normal;text-align:start;text-anchor:start;fill:#000000;font-family:Verdana">2</text>
      <path
         d="m 1181.4693,91.822875 0,10.014995 8.7772,0 0,-10.014995 -8.7772,0 z"
         id="path3319"
         style="fill:#f5a030;fill-opacity:1;fill-rule:evenodd;stroke:none" />
      <text
         x="1183.1508"
         y="100.41483"
         id="text3321"
         xml:space="preserve"
         style="font-size:8.70216751px;font-style:normal;font-weight:normal;text-align:start;text-anchor:start;fill:#000000;font-family:Verdana">3</text>
      <path
         d="m 1209.0012,91.672838 0,10.014992 8.7397,0 0,-10.014992 -8.7397,0 z"
         id="path3323"
         style="fill:#f5a030;fill-opacity:1;fill-rule:evenodd;stroke:none" />
      <text
         x="1210.668"
         y="100.24077"
         id="text3325"
         xml:space="preserve"
         style="font-size:8.70216751px;font-style:normal;font-weight:normal;text-align:start;text-anchor:start;fill:#000000;font-family:Verdana">1</text>
      <path
         d="m 1065.1904,65.153731 7.9519,3.675916 -4.1635,9.077262 -7.952,-3.675916 z"
         id="path3327"
         style="fill:#f5a030;fill-opacity:1;fill-rule:evenodd;stroke:none" />
      <path
         d="m 1068.3787,73.705862 c -0.1126,0.300075 -0.2626,0.525131 -0.4877,0.712678 -0.225,0.187546 -0.4501,0.337584 -0.6751,0.450112 -0.3001,0.07502 -0.5627,0.112528 -0.8627,0.112528 -0.3001,-0.03751 -0.6377,-0.112528 -0.9753,-0.300075 -0.3001,-0.112528 -0.6001,-0.300075 -0.8627,-0.487622 -0.2626,-0.225056 -0.4501,-0.412602 -0.6002,-0.600149 l 0.3751,-0.787696 0.038,0 c 0.15,0.225056 0.3375,0.450112 0.6001,0.675168 0.2251,0.225056 0.4876,0.412603 0.7502,0.525131 0.1875,0.112528 0.3751,0.150037 0.5626,0.187546 0.1876,0.03751 0.4126,0 0.6002,-0.07502 0.15,-0.03751 0.3001,-0.150038 0.4501,-0.262566 0.1125,-0.112528 0.225,-0.300074 0.3001,-0.487621 0.1125,-0.225056 0.15,-0.375094 0.15,-0.56264 0,-0.150038 -0.037,-0.337584 -0.15,-0.450112 -0.075,-0.150038 -0.1876,-0.300075 -0.3751,-0.450113 -0.1876,-0.112528 -0.3751,-0.225056 -0.6002,-0.337584 -0.2625,-0.112528 -0.4876,-0.187546 -0.6751,-0.262565 -0.2251,-0.07502 -0.4502,-0.112528 -0.6002,-0.150037 l 1.3503,-2.963239 3.4884,1.575393 -0.3376,0.675168 -2.7006,-1.237808 -0.7127,1.537883 c 0.1125,0.03751 0.225,0.07502 0.3376,0.112528 0.15,0.07502 0.225,0.112528 0.3375,0.150037 0.3001,0.150038 0.5627,0.300075 0.7502,0.450112 0.2251,0.150038 0.4126,0.337584 0.5252,0.56264 0.15,0.262566 0.225,0.525131 0.225,0.787697 0,0.262565 -0.075,0.56264 -0.225,0.900224 z"
         id="path3329"
         style="fill:#000000;fill-opacity:1;fill-rule:nonzero;stroke:none" />
      <path
         d="m 1052.3247,59.227255 7.9519,3.675916 -4.201,9.039752 -7.9145,-3.675916 z"
         id="path3331"
         style="fill:#f5a030;fill-opacity:1;fill-rule:evenodd;stroke:none" />
      <path
         d="m 1055.663,67.779386 c -0.2626,0.600149 -0.6752,0.975243 -1.2378,1.162789 -0.5627,0.225056 -1.1253,0.187547 -1.6504,-0.07502 -0.3001,-0.150038 -0.5252,-0.300075 -0.7127,-0.487622 -0.1876,-0.187547 -0.3376,-0.412603 -0.4501,-0.675168 -0.1125,-0.337584 -0.1501,-0.675168 -0.1125,-1.087771 0.038,-0.412603 0.1875,-0.862715 0.4126,-1.350337 0.225,-0.52513 0.4876,-0.937733 0.7877,-1.275317 0.3,-0.337584 0.6376,-0.637659 1.0127,-0.825206 0.3376,-0.187547 0.7502,-0.262565 1.1628,-0.262565 0.4501,0 0.9002,0.112528 1.3878,0.337584 0.1501,0.07502 0.2626,0.112528 0.3751,0.187547 0.075,0.03751 0.1876,0.112528 0.2626,0.225056 l -0.3376,0.712677 -0.038,0 c -0.037,-0.07502 -0.15,-0.187547 -0.2626,-0.262565 -0.15,-0.112528 -0.2625,-0.187547 -0.4501,-0.262566 -0.5251,-0.262565 -1.0502,-0.300074 -1.5379,-0.112528 -0.4876,0.225056 -0.9002,0.60015 -1.2378,1.16279 0.3001,-0.03751 0.5627,-0.03751 0.7877,0 0.2251,0 0.4877,0.07502 0.7877,0.225056 0.2251,0.112528 0.4501,0.225056 0.6002,0.375094 0.15,0.112528 0.3001,0.300074 0.4501,0.52513 0.15,0.262566 0.225,0.525131 0.225,0.825206 0,0.300075 -0.075,0.600149 -0.225,0.937734 z m -0.7877,-0.300075 c 0.1125,-0.262566 0.15,-0.450112 0.15,-0.675168 0,-0.187547 -0.037,-0.375094 -0.15,-0.562641 -0.075,-0.112528 -0.1876,-0.225056 -0.3001,-0.337584 -0.15,-0.07502 -0.3001,-0.187546 -0.4501,-0.262565 -0.225,-0.07502 -0.4501,-0.150037 -0.6376,-0.187547 -0.2251,-0.03751 -0.4502,-0.03751 -0.7127,-0.03751 0,0.07502 -0.037,0.112528 -0.075,0.187547 -0.038,0.03751 -0.075,0.112528 -0.075,0.187546 -0.225,0.412603 -0.3,0.750187 -0.3375,1.012753 -0.038,0.262565 0,0.52513 0.075,0.712677 0.075,0.187547 0.15,0.300075 0.2625,0.412603 0.1501,0.150037 0.2626,0.225056 0.4126,0.300075 0.3751,0.187546 0.7502,0.187546 1.0503,0.07502 0.3376,-0.150037 0.6001,-0.412602 0.7877,-0.825205 z"
         id="path3333"
         style="fill:#000000;fill-opacity:1;fill-rule:nonzero;stroke:none" />
      <text
         x="1102.8444"
         y="30.893032"
         id="text3335"
         xml:space="preserve"
         style="font-size:13.80343914px;font-style:normal;font-weight:normal;text-align:start;text-anchor:start;fill:#000000;font-family:Verdana">input buffer</text>
      <path
         d="m 1141.1468,37.096742 2.8882,34.733653 -1.2378,0.07502 -2.8882,-34.696143 z m 4.7637,34.546106 c 0.1125,1.387846 -0.9002,2.588145 -2.2881,2.700673 -1.3878,0.112528 -2.5881,-0.900224 -2.7007,-2.28807 -0.1125,-1.350337 0.9003,-2.550636 2.2881,-2.663164 1.3878,-0.150037 2.5881,0.900225 2.7007,2.250561 z"
         id="path3337"
         style="fill:#000000;fill-opacity:1;fill-rule:nonzero;stroke:#000000;stroke-width:0.03750934px;stroke-linecap:butt;stroke-linejoin:round;stroke-opacity:1;stroke-dasharray:none" />
      <path
         d="m 1226.0304,87.171717 0,22.505603 2.8507,0 0,-22.505603 -2.8507,0 z"
         id="path3339"
         style="fill:#6e7277;fill-opacity:1;fill-rule:evenodd;stroke:none" />
      <text
         x="1078.7684"
         y="217.39491"
         id="text3341"
         xml:space="preserve"
         style="font-size:17.55437279px;font-style:normal;font-weight:normal;text-align:start;text-anchor:start;fill:#000000;font-family:Verdana">continue</text>
      <text
         x="743.72571"
         y="217.39491"
         id="text3343"
         xml:space="preserve"
         style="font-size:17.55437279px;font-style:normal;font-weight:normal;text-align:start;text-anchor:start;fill:#000000;font-family:Verdana">checkpoint</text>
      <path
         d="m 797.1861,74.94367 0,10.014995 8.73968,0 0,-10.014995 -8.73968,0 z"
         id="path3345"
         style="fill:#f5a030;fill-opacity:1;fill-rule:evenodd;stroke:none" />
      <text
         x="798.82666"
         y="83.519875"
         id="text3347"
         xml:space="preserve"
         style="font-size:8.70216751px;font-style:normal;font-weight:normal;text-align:start;text-anchor:start;fill:#000000;font-family:Verdana">4</text>
      <path
         d="m 860.46436,34.733653 4.08852,54.201003 -1.23781,0.07502 -4.08852,-54.163494 z m 5.96399,54.050965 c 0.11253,1.387846 -0.93773,2.588145 -2.28807,2.700673 -1.38785,0.07502 -2.58815,-0.937733 -2.70067,-2.325579 -0.11253,-1.350336 0.93773,-2.550636 2.32558,-2.663164 1.35033,-0.112528 2.55063,0.900225 2.66316,2.28807 z"
         id="path3349"
         style="fill:#000000;fill-opacity:1;fill-rule:nonzero;stroke:#000000;stroke-width:0.03750934px;stroke-linecap:butt;stroke-linejoin:round;stroke-opacity:1;stroke-dasharray:none" />
      <path
         d="m 1099.8865,74.94367 0,10.014995 8.9272,0 0,-10.014995 -8.9272,0 z"
         id="path3351"
         style="fill:#f5a030;fill-opacity:1;fill-rule:evenodd;stroke:none" />
      <text
         x="1101.621"
         y="83.519875"
         id="text3353"
         xml:space="preserve"
         style="font-size:8.70216751px;font-style:normal;font-weight:normal;text-align:start;text-anchor:start;fill:#000000;font-family:Verdana">4</text>
      <path
         d="m 948.46129,164.32844 8.10201,-3.45086 3.93849,9.2273 -8.10202,3.45086 z"
         id="path3355"
         style="fill:#f5a030;fill-opacity:1;fill-rule:evenodd;stroke:none" />
      <path
         d="m 954.08769,165.11613 -0.82521,0.33759 -0.30007,-0.75019 0.8252,-0.37509 0.30008,0.78769 z m 2.13803,5.10128 -0.75019,0.30007 -1.83795,-4.35108 0.71267,-0.30008 1.87547,4.35109 z"
         id="path3357"
         style="fill:#000000;fill-opacity:1;fill-rule:nonzero;stroke:none" />
      <path
         d="m 915.49057,92.010422 0,9.977488 8.73968,0 0,-9.977488 -8.73968,0 z"
         id="path3359"
         style="fill:#f5a030;fill-opacity:1;fill-rule:evenodd;stroke:none" />
      <text
         x="917.28796"
         y="100.50934"
         id="text3361"
         xml:space="preserve"
         style="font-size:8.70216751px;font-style:normal;font-weight:normal;text-align:start;text-anchor:start;fill:#000000;font-family:Verdana">a</text>
      <path
         d="m 605.40082,91.991667 0,9.996243 8.73968,0 0,-9.996243 -8.73968,0 z"
         id="path3363"
         style="fill:#f5a030;fill-opacity:1;fill-rule:evenodd;stroke:none" />
      <text
         x="607.2179"
         y="100.50934"
         id="text3365"
         xml:space="preserve"
         style="font-size:8.70216751px;font-style:normal;font-weight:normal;text-align:start;text-anchor:start;fill:#000000;font-family:Verdana">y</text>
    </g>
  </g>
</svg>
