<?xml version="1.0" encoding="UTF-8" standalone="no"?>
<!--
Licensed to the Apache Software Foundation (ASF) under one
or more contributor license agreements.  See the NOTICE file
distributed with this work for additional information
regarding copyright ownership.  The ASF licenses this file
to you under the Apache License, Version 2.0 (the
"License"); you may not use this file except in compliance
with the License.  You may obtain a copy of the License at

http://www.apache.org/licenses/LICENSE-2.0

Unless required by applicable law or agreed to in writing,
software distributed under the License is distributed on an
"AS IS" BASIS, WITHOUT WARRANTIES OR CONDITIONS OF ANY
KIND, either express or implied.  See the License for the
specific language governing permissions and limitations
under the License.
-->

<svg
   xmlns:dc="http://purl.org/dc/elements/1.1/"
   xmlns:cc="http://creativecommons.org/ns#"
   xmlns:rdf="http://www.w3.org/1999/02/22-rdf-syntax-ns#"
   xmlns:svg="http://www.w3.org/2000/svg"
   xmlns="http://www.w3.org/2000/svg"
   xmlns:sodipodi="http://sodipodi.sourceforge.net/DTD/sodipodi-0.dtd"
   xmlns:inkscape="http://www.inkscape.org/namespaces/inkscape"
   version="1.1"
   viewBox="0 0 714.5274 341.0361"
   stroke-miterlimit="10"
   id="svg2"
   inkscape:version="0.91 r13725"
   sodipodi:docname="tumbling-windows.svg"
   width="714.5274"
   height="341.0361"
   style="fill:none;stroke:none;stroke-linecap:square;stroke-miterlimit:10">
  <metadata
     id="metadata195">
    <rdf:RDF>
      <cc:Work
         rdf:about="">
        <dc:format>image/svg+xml</dc:format>
        <dc:type
           rdf:resource="http://purl.org/dc/dcmitype/StillImage" />
        <dc:title></dc:title>
      </cc:Work>
    </rdf:RDF>
  </metadata>
  <defs
     id="defs193">
    <clipPath
       clipPathUnits="userSpaceOnUse"
       id="clipPath3525">
      <rect
         style="fill:#0000ff;fill-rule:evenodd;stroke:#000000;stroke-width:1px;stroke-linecap:butt;stroke-linejoin:miter;stroke-opacity:1"
         id="rect3527"
         width="615.2345"
         height="457.29678"
         x="45.419998"
         y="83.863663" />
    </clipPath>
    <clipPath
       clipPathUnits="userSpaceOnUse"
       id="clipPath3704">
      <rect
         style="fill:#0000ff;fill-rule:evenodd;stroke:#000000;stroke-width:1.08086026px;stroke-linecap:butt;stroke-linejoin:miter;stroke-opacity:1"
         id="rect3706"
         width="755.94531"
         height="400.11456"
         x="41.297459"
         y="5.6154351" />
    </clipPath>
    <clipPath
       clipPathUnits="userSpaceOnUse"
       id="clipPath3708">
      <rect
         style="fill:#0000ff;fill-rule:evenodd;stroke:#000000;stroke-width:1px;stroke-linecap:butt;stroke-linejoin:miter;stroke-opacity:1"
         id="rect3710"
         width="744.4068"
         height="347.7966"
         x="52.881355"
         y="6.1016951" />
    </clipPath>
    <clipPath
       clipPathUnits="userSpaceOnUse"
       id="clipPath3712">
      <rect
         style="fill:#0000ff;fill-rule:evenodd;stroke:#000000;stroke-width:1px;stroke-linecap:butt;stroke-linejoin:miter;stroke-opacity:1"
         id="rect3714"
         width="744.4068"
         height="347.7966"
         x="52.881355"
         y="6.1016951" />
    </clipPath>
    <clipPath
       clipPathUnits="userSpaceOnUse"
       id="clipPath3716">
      <rect
         style="fill:#0000ff;fill-rule:evenodd;stroke:#000000;stroke-width:1px;stroke-linecap:butt;stroke-linejoin:miter;stroke-opacity:1"
         id="rect3718"
         width="744.4068"
         height="347.7966"
         x="52.881355"
         y="6.1016951" />
    </clipPath>
    <clipPath
       clipPathUnits="userSpaceOnUse"
       id="clipPath3720">
      <rect
         style="fill:#0000ff;fill-rule:evenodd;stroke:#000000;stroke-width:1px;stroke-linecap:butt;stroke-linejoin:miter;stroke-opacity:1"
         id="rect3722"
         width="744.4068"
         height="347.7966"
         x="52.881355"
         y="6.1016951" />
    </clipPath>
    <clipPath
       clipPathUnits="userSpaceOnUse"
       id="clipPath3724">
      <rect
         style="fill:#0000ff;fill-rule:evenodd;stroke:#000000;stroke-width:1px;stroke-linecap:butt;stroke-linejoin:miter;stroke-opacity:1"
         id="rect3726"
         width="744.4068"
         height="347.7966"
         x="52.881355"
         y="6.1016951" />
    </clipPath>
    <clipPath
       clipPathUnits="userSpaceOnUse"
       id="clipPath3728">
      <rect
         style="fill:#0000ff;fill-rule:evenodd;stroke:#000000;stroke-width:1px;stroke-linecap:butt;stroke-linejoin:miter;stroke-opacity:1"
         id="rect3730"
         width="744.4068"
         height="347.7966"
         x="52.881355"
         y="6.1016951" />
    </clipPath>
    <clipPath
       clipPathUnits="userSpaceOnUse"
       id="clipPath3732">
      <rect
         style="fill:#0000ff;fill-rule:evenodd;stroke:#000000;stroke-width:1px;stroke-linecap:butt;stroke-linejoin:miter;stroke-opacity:1"
         id="rect3734"
         width="744.4068"
         height="347.7966"
         x="52.881355"
         y="6.1016951" />
    </clipPath>
    <clipPath
       clipPathUnits="userSpaceOnUse"
       id="clipPath3736">
      <rect
         style="fill:#0000ff;fill-rule:evenodd;stroke:#000000;stroke-width:1px;stroke-linecap:butt;stroke-linejoin:miter;stroke-opacity:1"
         id="rect3738"
         width="744.4068"
         height="347.7966"
         x="52.881355"
         y="6.1016951" />
    </clipPath>
    <clipPath
       clipPathUnits="userSpaceOnUse"
       id="clipPath3740">
      <rect
         style="fill:#0000ff;fill-rule:evenodd;stroke:#000000;stroke-width:1px;stroke-linecap:butt;stroke-linejoin:miter;stroke-opacity:1"
         id="rect3742"
         width="744.4068"
         height="347.7966"
         x="52.881355"
         y="6.1016951" />
    </clipPath>
    <clipPath
       clipPathUnits="userSpaceOnUse"
       id="clipPath3744">
      <rect
         style="fill:#0000ff;fill-rule:evenodd;stroke:#000000;stroke-width:1px;stroke-linecap:butt;stroke-linejoin:miter;stroke-opacity:1"
         id="rect3746"
         width="744.4068"
         height="347.7966"
         x="52.881355"
         y="6.1016951" />
    </clipPath>
  </defs>
  <sodipodi:namedview
     pagecolor="#ffffff"
     bordercolor="#666666"
     borderopacity="1"
     objecttolerance="10"
     gridtolerance="10"
     guidetolerance="10"
     inkscape:pageopacity="0"
     inkscape:pageshadow="2"
     inkscape:window-width="1280"
     inkscape:window-height="756"
     id="namedview191"
     showgrid="false"
     inkscape:zoom="1.0505816"
     inkscape:cx="413.7996"
     inkscape:cy="162.22157"
     inkscape:window-x="0"
     inkscape:window-y="1"
     inkscape:window-maximized="1"
     inkscape:current-layer="svg2"
     fit-margin-top="0"
     fit-margin-left="0"
     fit-margin-right="0"
     fit-margin-bottom="0" />
  <clipPath
     id="p.0">
    <path
       d="M 0,0 800,0 800,600 0,600 0,0 Z"
       id="path5"
       inkscape:connector-curvature="0"
       style="clip-rule:nonzero" />
  </clipPath>
  <path
     style="fill:#000000;fill-opacity:0;fill-rule:nonzero"
     inkscape:connector-curvature="0"
     id="path9"
     d="m -98.622751,-176.45227 1030.090001,0 0,774.79283 -1030.090001,0 z" />
  <path
     style="fill:#000000;fill-opacity:0;fill-rule:nonzero"
     inkscape:connector-curvature="0"
     id="path147"
     d="M 160.75036,549.11674 229.89617,380.08581"
     clip-path="url(#clipPath3716)"
     transform="translate(-45.254306,-74.732865)" />
  <path
     style="fill:#000000;fill-opacity:0;fill-rule:nonzero"
     inkscape:connector-curvature="0"
     id="path153"
     d="m 81.303655,549.11674 158.893405,0 0,55.51666 -158.893405,0 z"
     clip-path="url(#clipPath3712)"
     transform="translate(-45.254306,-74.732865)" />
  <path
     style="fill:#000000;fill-opacity:0;fill-rule:nonzero"
     inkscape:connector-curvature="0"
     id="path171"
     d="m 270.72501,557.67132 192.83774,0 0,55.51669 -192.83774,0 z"
     clip-path="url(#clipPath3708)"
     transform="translate(-45.254306,-74.732865)" />
  <path
     style="fill:#000000;fill-opacity:0;fill-rule:nonzero"
     inkscape:connector-curvature="0"
     id="path27"
     d="m -62.193769,52.756165 103.992586,0 0,48.257445 -103.992586,0 z" />
  <path
     style="fill:#000000;fill-opacity:0;fill-rule:nonzero"
     inkscape:connector-curvature="0"
     id="path31"
     d="m -62.193769,107.75727 103.992586,0 0,48.25744 -103.992586,0 z" />
  <path
     style="fill:#000000;fill-opacity:0;fill-rule:nonzero"
     inkscape:connector-curvature="0"
     id="path35"
     d="m -62.193769,171.73815 103.992586,0 0,48.25744 -103.992586,0 z" />
  <path
     style="fill:#000000;fill-opacity:0;fill-rule:nonzero"
     inkscape:connector-curvature="0"
     id="path135"
     d="m 594.51778,0 130.58978,0 0,43.767555 -130.58978,0 z" />
  <path
     style="fill:#000000;fill-opacity:0;fill-rule:nonzero"
     inkscape:connector-curvature="0"
     id="path11"
     d="m 69.034964,312.26431 645.401046,0" />
  <path
     style="fill-rule:evenodd;stroke:#000000;stroke-width:1.19299948;stroke-linecap:butt;stroke-linejoin:round"
     inkscape:connector-curvature="0"
     id="path13"
     d="m 69.034964,312.26431 637.793286,0" />
  <path
     style="fill:#000000;fill-rule:evenodd;stroke:#000000;stroke-width:1.19299948;stroke-linecap:butt"
     inkscape:connector-curvature="0"
     id="path15"
     d="m 706.82826,314.11832 5.75411,-1.85401 -5.75411,-1.85404 z" />
  <path
     style="fill-rule:evenodd;stroke:#000000;stroke-width:0.99090773;stroke-linecap:butt;stroke-linejoin:round"
     inkscape:connector-curvature="0"
     id="path19"
     d="m 69.034964,312.46623 0,-301.23268" />
  <path
     style="fill:#000000;fill-rule:evenodd;stroke:#000000;stroke-width:1.19299948;stroke-linecap:butt"
     inkscape:connector-curvature="0"
     id="path21"
     d="m 71.129304,11.23355 -2.09433,-5.093882 -2.09433,5.093882 z" />
  <path
     style="fill:#000000;fill-opacity:0;fill-rule:nonzero"
     inkscape:connector-curvature="0"
     id="path23"
     d="m 628.84376,303.28454 76.07753,0 0,48.25744 -76.07753,0 z" />
  <path
     style="fill:#000000;fill-rule:nonzero"
     inkscape:connector-curvature="0"
     id="path25"
     d="m 646.47631,331.81774 0.29718,1.66616 q -0.89153,0.15785 -1.60476,0.15785 -1.14909,0 -1.78306,-0.3157 -0.63399,-0.33324 -0.89154,-0.84186 -0.25755,-0.52614 -0.25755,-2.22741 l 0,-6.34897 -1.56514,0 0,-1.47324 1.56514,0 0,-2.73603 2.10006,-1.12247 0,3.8585 2.13967,0 0,1.47324 -2.13967,0 0,6.4542 q 0,0.80678 0.099,1.03479 0.11881,0.228 0.37644,0.3683 0.25755,0.14032 0.73303,0.14032 0.3368,0 0.93116,-0.0877 z m 1.95603,-11.43518 0,-2.13972 2.11988,0 0,2.13972 -2.11988,0 z m 0,13.11888 0,-11.06687 2.11988,0 0,11.06687 -2.11988,0 z m 5.23567,0 0,-11.06687 1.90194,0 0,1.56094 q 0.57455,-0.80678 1.54532,-1.29786 0.9906,-0.50862 2.23875,-0.50862 1.38683,0 2.27836,0.50862 0.89154,0.50861 1.24815,1.43816 1.48589,-1.94679 3.86331,-1.94679 1.86231,0 2.85291,0.91201 1.01041,0.91201 1.01041,2.80618 l 0,7.59422 -2.11987,0 0,-6.96283 q 0,-1.12247 -0.19812,-1.61355 -0.19812,-0.50862 -0.75285,-0.80678 -0.53492,-0.29815 -1.26797,-0.29815 -1.30758,0 -2.1793,0.7717 -0.87172,0.77169 -0.87172,2.49048 l 0,6.41913 -2.11986,0 0,-7.19083 q 0,-1.24525 -0.51512,-1.85909 -0.5151,-0.63139 -1.70382,-0.63139 -0.89154,0 -1.66419,0.42092 -0.75285,0.40338 -1.08966,1.21016 -0.33679,0.80678 -0.33679,2.3151 l 0,5.73513 -2.11988,0 z m 28.26379,-3.56034 2.17931,0.24554 q -0.51511,1.68371 -1.92176,2.63079 -1.38682,0.92955 -3.56613,0.92955 -2.73404,0 -4.33879,-1.49078 -1.60477,-1.49078 -1.60477,-4.19172 0,-2.78866 1.60477,-4.33205 1.62457,-1.5434 4.21992,-1.5434 2.51611,0 4.10106,1.50832 1.58494,1.50833 1.58494,4.26189 0,0.15784 -0.0198,0.49108 l -9.31157,0 q 0.11881,1.82402 1.1689,2.78864 1.05003,0.96462 2.61518,0.96462 1.14908,0 1.96136,-0.52615 0.8321,-0.5437 1.3274,-1.73633 z m -6.95396,-3.03418 6.97376,0 q -0.13867,-1.38556 -0.79246,-2.08711 -1.0104,-1.08739 -2.63498,-1.08739 -1.44627,0 -2.45667,0.87693 -0.99059,0.8594 -1.08965,2.29756 z" />
  <path
     style="fill:#000000;fill-rule:nonzero"
     inkscape:connector-curvature="0"
     id="path29"
     d="m 8.221921,82.973095 0,-1.6311 q -1.446265,1.87664 -3.962372,1.87664 -1.089652,0 -2.060433,-0.36832 Q 1.248148,82.464465 0.772663,81.903235 0.31699,81.341995 0.118872,80.517685 0,79.956455 0,78.763825 l 0,-6.8576 2.119869,0 0,6.13851 q 0,1.47325 0.118871,1.98187 0.198119,0.73663 0.85191,1.15755 0.653791,0.42093 1.60476,0.42093 0.95097,0 1.783067,-0.42093 0.832098,-0.43847 1.1689,-1.17509 0.356613,-0.75415 0.356613,-2.17479 l 0,-5.92805 2.119869,0 0,11.06687 -1.901938,0 z m 4.121775,-3.29726 2.100057,-0.29816 q 0.178306,1.12247 0.970781,1.71878 0.812286,0.57879 2.258552,0.57879 1.466077,0 2.159492,-0.52617 0.713227,-0.52616 0.713227,-1.2277 0,-0.63139 -0.614169,-0.9997 -0.43586,-0.24555 -2.159492,-0.6314 -2.337798,-0.52615 -3.249144,-0.89446 -0.891533,-0.38585 -1.367018,-1.05232 -0.455673,-0.68401 -0.455673,-1.49078 0,-0.73663 0.376425,-1.36802 0.396237,-0.63139 1.050029,-1.05231 0.495296,-0.3157 1.347206,-0.5437 0.85191,-0.228 1.822691,-0.228 1.48589,0 2.595354,0.38585 1.109463,0.36831 1.624571,1.01724 0.534921,0.63139 0.733039,1.70125 l -2.060433,0.24554 q -0.138683,-0.84186 -0.832098,-1.3154 -0.673603,-0.49108 -1.901938,-0.49108 -1.466078,0 -2.080245,0.43847 -0.614167,0.42092 -0.614167,0.98216 0,0.3683 0.257553,0.66647 0.257554,0.29815 0.812287,0.49108 0.316989,0.10517 1.862314,0.49108 2.238739,0.52616 3.130273,0.85939 0.891534,0.33324 1.38683,0.98216 0.515109,0.64893 0.515109,1.61355 0,0.92956 -0.614168,1.77141 -0.614168,0.82431 -1.783067,1.28031 -1.168899,0.43847 -2.634977,0.43847 -2.436859,0 -3.724629,-0.89447 -1.267959,-0.89447 -1.624572,-2.64833 z m 21.23831,-0.26309 2.179304,0.24555 q -0.515109,1.6837 -1.92175,2.63079 -1.38683,0.92955 -3.566134,0.92955 -2.734037,0 -4.338797,-1.49079 -1.60476,-1.49078 -1.60476,-4.19172 0,-2.78865 1.60476,-4.33204 1.624572,-1.5434 4.219925,-1.5434 2.516106,0 4.101055,1.50832 1.584953,1.50832 1.584953,4.26189 0,0.15784 -0.01979,0.49108 l -9.311576,0 q 0.118872,1.82402 1.1689,2.78863 1.050028,0.96464 2.615164,0.96464 1.149088,0 1.961374,-0.52617 0.832099,-0.5437 1.327394,-1.73633 z m -6.953962,-3.03417 6.973774,0 q -0.138684,-1.38556 -0.792475,-2.0871 -1.010404,-1.08739 -2.634977,-1.08739 -1.446265,0 -2.45667,0.87693 -0.990592,0.85939 -1.089652,2.29756 z m 11.531414,6.59452 0,-11.06687 1.90193,0 0,1.68371 q 0.733047,-1.17509 1.347207,-1.5434 0.614171,-0.38585 1.367021,-0.38585 1.069837,0 2.1793,0.61385 l -0.733037,1.73632 q -0.772664,-0.40338 -1.56513,-0.40338 -0.693422,0 -1.248154,0.3683 -0.534918,0.36832 -0.772663,1.01724 -0.356612,0.99971 -0.356612,2.19234 l 0,5.78774 -2.119862,0 z m 21.859266,0 -2.11987,0 0,-11.9438 q -0.75285,0.64893 -2.001,1.29785 -1.248149,0.6314 -2.238735,0.96463 l 0,-1.82401 q 1.783065,-0.73662 3.110455,-1.78894 1.3274,-1.05232 1.88213,-2.03448 l 1.36702,0 0,15.32875 z" />
  <path
     style="fill:#000000;fill-rule:nonzero"
     inkscape:connector-curvature="0"
     id="path33"
     d="m 8.221921,137.97421 0,-1.6311 q -1.446265,1.87663 -3.962372,1.87663 -1.089652,0 -2.060433,-0.36831 Q 1.248148,137.46558 0.772663,136.90435 0.31699,136.34311 0.118872,135.5188 0,134.95756 0,133.76494 l 0,-6.85761 2.119869,0 0,6.13852 q 0,1.47324 0.118871,1.98187 0.198119,0.73662 0.85191,1.15754 0.653791,0.42093 1.60476,0.42093 0.95097,0 1.783067,-0.42093 0.832098,-0.43847 1.1689,-1.17509 0.356613,-0.75415 0.356613,-2.17478 l 0,-5.92806 2.119869,0 0,11.06688 -1.901938,0 z m 4.121775,-3.29726 2.100057,-0.29816 q 0.178306,1.12247 0.970781,1.71878 0.812286,0.57878 2.258552,0.57878 1.466077,0 2.159492,-0.52616 0.713227,-0.52616 0.713227,-1.2277 0,-0.63139 -0.614169,-0.99971 -0.43586,-0.24554 -2.159492,-0.63139 -2.337798,-0.52616 -3.249144,-0.89447 -0.891533,-0.38585 -1.367018,-1.05231 -0.455673,-0.68402 -0.455673,-1.49079 0,-0.73662 0.376425,-1.36801 0.396237,-0.63139 1.050029,-1.05231 0.495296,-0.3157 1.347206,-0.5437 0.85191,-0.22801 1.822691,-0.22801 1.48589,0 2.595354,0.38585 1.109463,0.36831 1.624571,1.01723 0.534921,0.63139 0.733039,1.70125 l -2.060433,0.24555 q -0.138683,-0.84186 -0.832098,-1.31541 -0.673603,-0.49108 -1.901938,-0.49108 -1.466078,0 -2.080245,0.43847 -0.614167,0.42093 -0.614167,0.98216 0,0.36831 0.257553,0.66648 0.257554,0.29815 0.812287,0.49107 0.316989,0.10518 1.862314,0.49108 2.238739,0.52616 3.130273,0.85939 0.891534,0.33324 1.38683,0.98216 0.515109,0.64894 0.515109,1.61355 0,0.92956 -0.614168,1.77141 -0.614168,0.82432 -1.783067,1.28031 -1.168899,0.43847 -2.634977,0.43847 -2.436859,0 -3.724629,-0.89446 -1.267959,-0.89447 -1.624572,-2.64833 z m 21.23831,-0.26309 2.179304,0.24554 q -0.515109,1.68371 -1.92175,2.63079 -1.38683,0.92955 -3.566134,0.92955 -2.734037,0 -4.338797,-1.49078 -1.60476,-1.49078 -1.60476,-4.19172 0,-2.78865 1.60476,-4.33205 1.624572,-1.5434 4.219925,-1.5434 2.516106,0 4.101055,1.50833 1.584953,1.50832 1.584953,4.26189 0,0.15783 -0.01979,0.49107 l -9.311576,0 q 0.118872,1.82402 1.1689,2.78864 1.050028,0.96463 2.615164,0.96463 1.149088,0 1.961374,-0.52616 0.832099,-0.5437 1.327394,-1.73634 z m -6.953962,-3.03418 6.973774,0 q -0.138684,-1.38555 -0.792475,-2.08709 -1.010404,-1.0874 -2.634977,-1.0874 -1.446265,0 -2.45667,0.87693 -0.990592,0.8594 -1.089652,2.29756 z m 11.531414,6.59453 0,-11.06688 1.90193,0 0,1.68371 q 0.733047,-1.17509 1.347207,-1.5434 0.614171,-0.38585 1.367021,-0.38585 1.069837,0 2.1793,0.61386 l -0.733037,1.73632 q -0.772664,-0.40339 -1.56513,-0.40339 -0.693422,0 -1.248154,0.36831 -0.534918,0.36831 -0.772663,1.01724 -0.356612,0.9997 -0.356612,2.19233 l 0,5.78774 -2.119862,0 z m 25.009346,-1.80649 0,1.80649 -11.391812,0 q -0.01979,-0.68402 0.237735,-1.29786 0.435864,-1.03479 1.386834,-2.03448 0.970783,-0.99971 2.773653,-2.3151 2.81329,-2.03447 3.80388,-3.2271 0.9906,-1.19263 0.9906,-2.26249 0,-1.10493 -0.91134,-1.87664 -0.89155,-0.77169 -2.33781,-0.77169 -1.52551,0 -2.45667,0.8243 -0.911343,0.80678 -0.911343,2.24495 l -2.1793,-0.19292 q 0.217932,-2.15726 1.684007,-3.27973 1.466076,-1.14 3.922746,-1.14 2.47648,0 3.92275,1.2277 1.44627,1.21017 1.44627,3.01664 0,0.91202 -0.43586,1.80647 -0.41606,0.87694 -1.40665,1.85909 -0.97078,0.96464 -3.24915,2.68342 -1.90194,1.42063 -2.45667,1.92924 -0.53492,0.49109 -0.891531,0.9997 l 8.459661,0 z" />
  <path
     style="fill:#000000;fill-rule:nonzero"
     inkscape:connector-curvature="0"
     id="path37"
     d="m 8.221921,201.95506 0,-1.6311 q -1.446265,1.87664 -3.962372,1.87664 -1.089652,0 -2.060433,-0.36831 Q 1.248148,201.44643 0.772663,200.8852 0.31699,200.32396 0.118872,199.49966 0,198.93841 0,197.7458 l 0,-6.85761 2.119869,0 0,6.13852 q 0,1.47324 0.118871,1.98186 0.198119,0.73662 0.85191,1.15755 0.653791,0.42093 1.60476,0.42093 0.95097,0 1.783067,-0.42093 0.832098,-0.43847 1.1689,-1.17509 0.356613,-0.75415 0.356613,-2.17479 l 0,-5.92805 2.119869,0 0,11.06687 -1.901938,0 z m 4.121775,-3.29726 2.100057,-0.29816 q 0.178306,1.12247 0.970781,1.71879 0.812286,0.57877 2.258552,0.57877 1.466077,0 2.159492,-0.52616 0.713227,-0.52615 0.713227,-1.2277 0,-0.63139 -0.614169,-0.99971 -0.43586,-0.24554 -2.159492,-0.63139 -2.337798,-0.52615 -3.249144,-0.89446 -0.891533,-0.38585 -1.367018,-1.05232 -0.455673,-0.68401 -0.455673,-1.49079 0,-0.73662 0.376425,-1.36801 0.396237,-0.63139 1.050029,-1.05231 0.495296,-0.31569 1.347206,-0.5437 0.85191,-0.22798 1.822691,-0.22798 1.48589,0 2.595354,0.38583 1.109463,0.36831 1.624571,1.01724 0.534921,0.63139 0.733039,1.70125 l -2.060433,0.24554 q -0.138683,-0.84185 -0.832098,-1.3154 -0.673603,-0.49109 -1.901938,-0.49109 -1.466078,0 -2.080245,0.43847 -0.614167,0.42094 -0.614167,0.98217 0,0.36831 0.257553,0.66647 0.257554,0.29815 0.812287,0.49108 0.316989,0.10517 1.862314,0.49108 2.238739,0.52615 3.130273,0.85939 0.891534,0.33324 1.38683,0.98215 0.515109,0.64895 0.515109,1.61356 0,0.92955 -0.614168,1.77141 -0.614168,0.82431 -1.783067,1.28031 -1.168899,0.43847 -2.634977,0.43847 -2.436859,0 -3.724629,-0.89447 -1.267959,-0.89447 -1.624572,-2.64833 z m 21.23831,-0.26309 2.179304,0.24555 q -0.515109,1.6837 -1.92175,2.63079 -1.38683,0.92955 -3.566134,0.92955 -2.734037,0 -4.338797,-1.49079 -1.60476,-1.49078 -1.60476,-4.19172 0,-2.78865 1.60476,-4.33205 1.624572,-1.54337 4.219925,-1.54337 2.516106,0 4.101055,1.5083 1.584953,1.50832 1.584953,4.26189 0,0.15784 -0.01979,0.49108 l -9.311576,0 q 0.118872,1.82401 1.1689,2.78863 1.050028,0.96463 2.615164,0.96463 1.149088,0 1.961374,-0.52616 0.832099,-0.5437 1.327394,-1.73633 z m -6.953962,-3.03417 6.973774,0 q -0.138684,-1.38555 -0.792475,-2.0871 -1.010404,-1.0874 -2.634977,-1.0874 -1.446265,0 -2.45667,0.87694 -0.990592,0.85939 -1.089652,2.29756 z m 11.531414,6.59452 0,-11.06687 1.90193,0 0,1.6837 q 0.733047,-1.17508 1.347207,-1.54339 0.614171,-0.38583 1.367021,-0.38583 1.069837,0 2.1793,0.61383 l -0.733037,1.73632 q -0.772664,-0.40338 -1.56513,-0.40338 -0.693422,0 -1.248154,0.36831 -0.534918,0.36831 -0.772663,1.01724 -0.356612,0.9997 -0.356612,2.19232 l 0,5.78775 -2.119862,0 z m 13.894895,-4.03388 2.119872,-0.24554 q 0.356612,1.59601 1.228329,2.29756 0.89154,0.70154 2.13969,0.70154 1.5057,0 2.53591,-0.91201 1.03022,-0.92955 1.03022,-2.28002 0,-1.28031 -0.97078,-2.12217 -0.95097,-0.84185 -2.41705,-0.84185 -0.59436,0 -1.48589,0.21046 l 0.23775,-1.64863 q 0.19812,0.0176 0.3368,0.0176 1.34721,0 2.41704,-0.61385 1.08965,-0.63139 1.08965,-1.92923 0,-1.03478 -0.79247,-1.70125 -0.77266,-0.68401 -2.02081,-0.68401 -1.22833,0 -2.06043,0.68401 -0.812292,0.68401 -1.050027,2.06954 l -2.119872,-0.33319 q 0.376425,-1.89417 1.743446,-2.92895 1.386823,-1.03477 3.447253,-1.03477 1.40665,0 2.59537,0.54369 1.18871,0.52615 1.80287,1.45571 0.63398,0.92954 0.63398,1.96432 0,0.99968 -0.59435,1.80646 -0.59436,0.80677 -1.78308,1.29785 1.54533,0.29816 2.37743,1.29786 0.85192,0.98216 0.85192,2.4554 0,1.99941 -1.64439,3.38496 -1.64438,1.38555 -4.16049,1.38555 -2.27837,0 -3.784071,-1.19263 -1.485888,-1.19262 -1.70382,-3.10433 z" />
  <path
     style="fill:#9900ff;fill-rule:nonzero"
     inkscape:connector-curvature="0"
     id="path39"
     d="m 108.98067,76.884875 0,0 c 0,-5.88684 5.39076,-10.65905 12.0406,-10.65905 l 0,0 c 3.19337,0 6.25595,1.12299 8.51402,3.12195 2.25804,1.99897 3.52661,4.71015 3.52661,7.5371 l 0,0 c 0,5.88685 -5.39076,10.65906 -12.04063,10.65906 l 0,0 c -6.64984,0 -12.0406,-4.77221 -12.0406,-10.65906 z" />
  <path
     style="fill:#9900ff;fill-rule:nonzero"
     inkscape:connector-curvature="0"
     id="path41"
     d="m 142.57658,76.884875 0,0 c 0,-5.88684 5.39076,-10.65905 12.04061,-10.65905 l 0,0 c 3.19337,0 6.25594,1.12299 8.51401,3.12195 2.25805,1.99897 3.52661,4.71015 3.52661,7.5371 l 0,0 c 0,5.88685 -5.39076,10.65906 -12.04062,10.65906 l 0,0 c -6.64985,0 -12.04061,-4.77221 -12.04061,-10.65906 z" />
  <path
     style="fill:#9900ff;fill-rule:nonzero"
     inkscape:connector-curvature="0"
     id="path43"
     d="m 252.26001,76.884875 0,0 c 0,-5.88684 5.39076,-10.65905 12.04061,-10.65905 l 0,0 c 3.19339,0 6.25594,1.12299 8.51398,3.12195 2.25806,1.99897 3.52664,4.71015 3.52664,7.5371 l 0,0 c 0,5.88685 -5.39076,10.65906 -12.04062,10.65906 l 0,0 c -6.64985,0 -12.04061,-4.77221 -12.04061,-10.65906 z" />
  <path
     style="fill:#9900ff;fill-rule:nonzero"
     inkscape:connector-curvature="0"
     id="path45"
     d="m 294.10264,76.884875 0,0 c 0,-5.88684 5.39077,-10.65905 12.04062,-10.65905 l 0,0 c 3.19339,0 6.25594,1.12299 8.51399,3.12195 2.25805,1.99897 3.52664,4.71015 3.52664,7.5371 l 0,0 c 0,5.88685 -5.39078,10.65906 -12.04063,10.65906 l 0,0 c -6.64985,0 -12.04062,-4.77221 -12.04062,-10.65906 z" />
  <path
     style="fill:#9900ff;fill-rule:nonzero"
     inkscape:connector-curvature="0"
     id="path47"
     d="m 325.80161,76.884875 0,0 c 0,-5.88684 5.39077,-10.65905 12.04062,-10.65905 l 0,0 c 3.19339,0 6.25594,1.12299 8.51399,3.12195 2.25806,1.99897 3.52663,4.71015 3.52663,7.5371 l 0,0 c 0,5.88685 -5.39076,10.65906 -12.04062,10.65906 l 0,0 c -6.64985,0 -12.04062,-4.77221 -12.04062,-10.65906 z" />
  <path
     style="fill:#9900ff;fill-rule:nonzero"
     inkscape:connector-curvature="0"
     id="path49"
     d="m 357.50059,76.884875 0,0 c 0,-5.88684 5.39076,-10.65905 12.0406,-10.65905 l 0,0 c 3.1934,0 6.25595,1.12299 8.51399,3.12195 2.25806,1.99897 3.52664,4.71015 3.52664,7.5371 l 0,0 c 0,5.88685 -5.39076,10.65906 -12.04063,10.65906 l 0,0 c -6.64984,0 -12.0406,-4.77221 -12.0406,-10.65906 z" />
  <path
     style="fill:#9900ff;fill-rule:nonzero"
     inkscape:connector-curvature="0"
     id="path51"
     d="m 445.62872,76.884875 0,0 c 0,-5.88684 5.39076,-10.65905 12.04061,-10.65905 l 0,0 c 3.19339,0 6.25594,1.12299 8.51398,3.12195 2.25806,1.99897 3.52664,4.71015 3.52664,7.5371 l 0,0 c 0,5.88685 -5.39076,10.65906 -12.04062,10.65906 l 0,0 c -6.64985,0 -12.04061,-4.77221 -12.04061,-10.65906 z" />
  <path
     style="fill:#9900ff;fill-rule:nonzero"
     inkscape:connector-curvature="0"
     id="path53"
     d="m 479.22463,76.884875 0,0 c 0,-5.88684 5.39076,-10.65905 12.04061,-10.65905 l 0,0 c 3.19339,0 6.25595,1.12299 8.51399,3.12195 2.25806,1.99897 3.52663,4.71015 3.52663,7.5371 l 0,0 c 0,5.88685 -5.39076,10.65906 -12.04062,10.65906 l 0,0 c -6.64985,0 -12.04061,-4.77221 -12.04061,-10.65906 z" />
  <path
     style="fill:#9900ff;fill-rule:nonzero"
     inkscape:connector-curvature="0"
     id="path55"
     d="m 509.02665,76.884875 0,0 c 0,-5.88684 5.39077,-10.65905 12.04062,-10.65905 l 0,0 c 3.19339,0 6.25594,1.12299 8.51399,3.12195 2.25806,1.99897 3.52663,4.71015 3.52663,7.5371 l 0,0 c 0,5.88685 -5.39076,10.65906 -12.04062,10.65906 l 0,0 c -6.64985,0 -12.04062,-4.77221 -12.04062,-10.65906 z" />
  <path
     style="fill:#9900ff;fill-rule:nonzero"
     inkscape:connector-curvature="0"
     id="path57"
     d="m 548.96237,76.884875 0,0 c 0,-5.88684 5.39076,-10.65905 12.04056,-10.65905 l 0,0 c 3.19343,0 6.25598,1.12299 8.51408,3.12195 2.25801,1.99897 3.52659,4.71015 3.52659,7.5371 l 0,0 c 0,5.88685 -5.39076,10.65906 -12.04067,10.65906 l 0,0 c -6.6498,0 -12.04056,-4.77221 -12.04056,-10.65906 z" />
  <path
     style="fill:#9900ff;fill-rule:nonzero"
     inkscape:connector-curvature="0"
     id="path59"
     d="m 649.14112,76.884875 0,0 c 0,-5.88684 5.39077,-10.65905 12.04065,-10.65905 l 0,0 c 3.19335,0 6.2559,1.12299 8.514,3.12195 2.25801,1.99897 3.52659,4.71015 3.52659,7.5371 l 0,0 c 0,5.88685 -5.39076,10.65906 -12.04059,10.65906 l 0,0 c -6.64988,0 -12.04065,-4.77221 -12.04065,-10.65906 z" />
  <path
     style="fill:#9900ff;fill-rule:nonzero"
     inkscape:connector-curvature="0"
     id="path61"
     d="m 360.00655,131.88599 0,0 c 0,-5.88685 5.39077,-10.65906 12.04061,-10.65906 l 0,0 c 3.1934,0 6.25595,1.123 8.51399,3.12195 2.25806,1.99898 3.52664,4.71015 3.52664,7.53711 l 0,0 c 0,5.88684 -5.39076,10.65905 -12.04063,10.65905 l 0,0 c -6.64984,0 -12.04061,-4.77221 -12.04061,-10.65905 z" />
  <path
     style="fill:#9900ff;fill-rule:nonzero"
     inkscape:connector-curvature="0"
     id="path63"
     d="m 393.60247,131.88599 0,0 c 0,-5.88685 5.39076,-10.65906 12.0406,-10.65906 l 0,0 c 3.1934,0 6.25596,1.123 8.514,3.12195 2.25805,1.99898 3.52663,4.71015 3.52663,7.53711 l 0,0 c 0,5.88684 -5.39076,10.65905 -12.04063,10.65905 l 0,0 c -6.64984,0 -12.0406,-4.77221 -12.0406,-10.65905 z" />
  <path
     style="fill:#9900ff;fill-rule:nonzero"
     inkscape:connector-curvature="0"
     id="path65"
     d="m 149.55535,131.88599 0,0 c 0,-5.88685 5.39076,-10.65906 12.0406,-10.65906 l 0,0 c 3.19338,0 6.25595,1.123 8.51402,3.12195 2.25804,1.99898 3.52661,4.71015 3.52661,7.53711 l 0,0 c 0,5.88684 -5.39076,10.65905 -12.04063,10.65905 l 0,0 c -6.64984,0 -12.0406,-4.77221 -12.0406,-10.65905 z" />
  <path
     style="fill:#9900ff;fill-rule:nonzero"
     inkscape:connector-curvature="0"
     id="path67"
     d="m 191.39798,131.88599 0,0 c 0,-5.88685 5.39077,-10.65906 12.04062,-10.65906 l 0,0 c 3.19336,0 6.25594,1.123 8.51398,3.12195 2.25806,1.99898 3.52664,4.71015 3.52664,7.53711 l 0,0 c 0,5.88684 -5.39076,10.65905 -12.04062,10.65905 l 0,0 c -6.64985,0 -12.04062,-4.77221 -12.04062,-10.65905 z" />
  <path
     style="fill:#9900ff;fill-rule:nonzero"
     inkscape:connector-curvature="0"
     id="path69"
     d="m 223.09695,131.88599 0,0 c 0,-5.88685 5.39077,-10.65906 12.04062,-10.65906 l 0,0 c 3.19339,0 6.25594,1.123 8.51399,3.12195 2.25805,1.99898 3.52663,4.71015 3.52663,7.53711 l 0,0 c 0,5.88684 -5.39077,10.65905 -12.04062,10.65905 l 0,0 c -6.64985,0 -12.04062,-4.77221 -12.04062,-10.65905 z" />
  <path
     style="fill:#9900ff;fill-rule:nonzero"
     inkscape:connector-curvature="0"
     id="path71"
     d="m 254.79593,131.88599 0,0 c 0,-5.88685 5.39076,-10.65906 12.0406,-10.65906 l 0,0 c 3.1934,0 6.25595,1.123 8.514,3.12195 2.25806,1.99898 3.52663,4.71015 3.52663,7.53711 l 0,0 c 0,5.88684 -5.39076,10.65905 -12.04063,10.65905 l 0,0 c -6.64984,0 -12.0406,-4.77221 -12.0406,-10.65905 z" />
  <path
     style="fill:#9900ff;fill-rule:nonzero"
     inkscape:connector-curvature="0"
     id="path73"
     d="m 605.36155,131.88599 0,0 c 0,-5.88685 5.39084,-10.65906 12.04065,-10.65906 l 0,0 c 3.19335,0 6.25598,1.123 8.514,3.12195 2.25808,1.99898 3.52659,4.71015 3.52659,7.53711 l 0,0 c 0,5.88684 -5.39077,10.65905 -12.04059,10.65905 l 0,0 c -6.64981,0 -12.04065,-4.77221 -12.04065,-10.65905 z" />
  <path
     style="fill:#9900ff;fill-rule:nonzero"
     inkscape:connector-curvature="0"
     id="path75"
     d="m 638.95751,131.88599 0,0 c 0,-5.88685 5.39077,-10.65906 12.04057,-10.65906 l 0,0 c 3.19343,0 6.25598,1.123 8.51408,3.12195 2.25801,1.99898 3.52659,4.71015 3.52659,7.53711 l 0,0 c 0,5.88684 -5.39076,10.65905 -12.04067,10.65905 l 0,0 c -6.6498,0 -12.04057,-4.77221 -12.04057,-10.65905 z" />
  <path
     style="fill:#9900ff;fill-rule:nonzero"
     inkscape:connector-curvature="0"
     id="path77"
     d="m 668.75949,131.88599 0,0 c 0,-5.88685 5.39084,-10.65906 12.04064,-10.65906 l 0,0 c 3.19336,0 6.25599,1.123 8.514,3.12195 2.25809,1.99898 3.52659,4.71015 3.52659,7.53711 l 0,0 c 0,5.88684 -5.39076,10.65905 -12.04059,10.65905 l 0,0 c -6.6498,0 -12.04064,-4.77221 -12.04064,-10.65905 z" />
  <path
     style="fill:#9900ff;fill-rule:nonzero"
     inkscape:connector-curvature="0"
     id="path79"
     d="m 489.3683,131.88599 0,0 c 0,-5.88685 5.39076,-10.65906 12.04061,-10.65906 l 0,0 c 3.19339,0 6.25595,1.123 8.51399,3.12195 2.25806,1.99898 3.52663,4.71015 3.52663,7.53711 l 0,0 c 0,5.88684 -5.39076,10.65905 -12.04062,10.65905 l 0,0 c -6.64985,0 -12.04061,-4.77221 -12.04061,-10.65905 z" />
  <path
     style="fill:#9900ff;fill-rule:nonzero"
     inkscape:connector-curvature="0"
     id="path81"
     d="m 503.30586,195.86687 0,0 c 0,-5.88685 5.39077,-10.65906 12.04062,-10.65906 l 0,0 c 3.19339,0 6.25594,1.123 8.51398,3.12195 2.25806,1.99897 3.52665,4.71014 3.52665,7.53711 l 0,0 c 0,5.88684 -5.39077,10.65905 -12.04063,10.65905 l 0,0 c -6.64985,0 -12.04062,-4.77221 -12.04062,-10.65905 z" />
  <path
     style="fill:#9900ff;fill-rule:nonzero"
     inkscape:connector-curvature="0"
     id="path83"
     d="m 536.90174,195.86687 0,0 c 0,-5.88685 5.39084,-10.65906 12.04065,-10.65906 l 0,0 c 3.19336,0 6.25599,1.123 8.51401,3.12195 2.25807,1.99897 3.52657,4.71014 3.52657,7.53711 l 0,0 c 0,5.88684 -5.39076,10.65905 -12.04058,10.65905 l 0,0 c -6.64981,0 -12.04065,-4.77221 -12.04065,-10.65905 z" />
  <path
     style="fill:#9900ff;fill-rule:nonzero"
     inkscape:connector-curvature="0"
     id="path85"
     d="m 120.09277,195.86687 0,0 c 0,-5.88685 5.39077,-10.65906 12.04062,-10.65906 l 0,0 c 3.19336,0 6.25594,1.123 8.51401,3.12195 2.25804,1.99897 3.52661,4.71014 3.52661,7.53711 l 0,0 c 0,5.88684 -5.39076,10.65905 -12.04062,10.65905 l 0,0 c -6.64985,0 -12.04062,-4.77221 -12.04062,-10.65905 z" />
  <path
     style="fill:#9900ff;fill-rule:nonzero"
     inkscape:connector-curvature="0"
     id="path87"
     d="m 220.56104,195.86687 0,0 c 0,-5.88685 5.39076,-10.65906 12.04061,-10.65906 l 0,0 c 3.19339,0 6.25595,1.123 8.51399,3.12195 2.25806,1.99897 3.52663,4.71014 3.52663,7.53711 l 0,0 c 0,5.88684 -5.39076,10.65905 -12.04062,10.65905 l 0,0 c -6.64985,0 -12.04061,-4.77221 -12.04061,-10.65905 z" />
  <path
     style="fill:#9900ff;fill-rule:nonzero"
     inkscape:connector-curvature="0"
     id="path89"
     d="m 254.15695,195.86687 0,0 c 0,-5.88685 5.39076,-10.65906 12.04061,-10.65906 l 0,0 c 3.19339,0 6.25594,1.123 8.51399,3.12195 2.25806,1.99897 3.52664,4.71014 3.52664,7.53711 l 0,0 c 0,5.88684 -5.39077,10.65905 -12.04063,10.65905 l 0,0 c -6.64985,0 -12.04061,-4.77221 -12.04061,-10.65905 z" />
  <path
     style="fill:#9900ff;fill-rule:nonzero"
     inkscape:connector-curvature="0"
     id="path91"
     d="m 283.95897,195.86687 0,0 c 0,-5.88685 5.39077,-10.65906 12.04062,-10.65906 l 0,0 c 3.19339,0 6.25594,1.123 8.51399,3.12195 2.25805,1.99897 3.52664,4.71014 3.52664,7.53711 l 0,0 c 0,5.88684 -5.39078,10.65905 -12.04063,10.65905 l 0,0 c -6.64985,0 -12.04062,-4.77221 -12.04062,-10.65905 z" />
  <path
     style="fill:#9900ff;fill-rule:nonzero"
     inkscape:connector-curvature="0"
     id="path93"
     d="m 592.09293,195.86687 0,0 c 0,-5.88685 5.39076,-10.65906 12.04065,-10.65906 l 0,0 c 3.19336,0 6.25591,1.123 8.514,3.12195 2.25801,1.99897 3.52658,4.71014 3.52658,7.53711 l 0,0 c 0,5.88684 -5.39076,10.65905 -12.04058,10.65905 l 0,0 c -6.64989,0 -12.04065,-4.77221 -12.04065,-10.65905 z" />
  <path
     style="fill-rule:nonzero;stroke:#000000;stroke-width:1.00398374;stroke-linecap:butt;stroke-linejoin:round;stroke-dasharray:4.01593496, 3.01195122"
     inkscape:connector-curvature="0"
     id="path97"
     d="m 103.90883,28.061785 0,282.206475" />
  <path
     style="fill-rule:nonzero;stroke:#000000;stroke-width:1.00731385;stroke-linecap:butt;stroke-linejoin:round;stroke-dasharray:4.02925534, 3.02194151"
     inkscape:connector-curvature="0"
     id="path101"
     d="m 222.58943,26.948155 0,284.081655" />
  <path
     style="fill-rule:nonzero;stroke:#000000;stroke-width:1.00398374;stroke-linecap:butt;stroke-linejoin:round;stroke-dasharray:4.01593495, 3.01195122"
     inkscape:connector-curvature="0"
     id="path105"
     d="m 341.27002,26.948155 0,282.206465" />
  <path
     style="fill-rule:nonzero;stroke:#000000;stroke-width:1.00620496;stroke-linecap:butt;stroke-linejoin:round;stroke-dasharray:4.02482011, 3.01861508"
     inkscape:connector-curvature="0"
     id="path109"
     d="m 459.95066,26.948155 0,283.456585" />
  <path
     style="fill-rule:nonzero;stroke:#000000;stroke-width:1.00509501;stroke-linecap:butt;stroke-linejoin:round;stroke-dasharray:4.02038, 3.01528499"
     inkscape:connector-curvature="0"
     id="path113"
     d="m 578.6312,28.061785 0,282.831535" />
  <path
     style="fill-rule:nonzero;stroke:#000000;stroke-width:1.0017575;stroke-linecap:butt;stroke-linejoin:round;stroke-dasharray:4.00703011, 3.00527258"
     inkscape:connector-curvature="0"
     id="path117"
     d="m 695.18749,28.061785 0,280.956335" />
  <path
     style="fill:#000000;fill-opacity:0;fill-rule:nonzero"
     inkscape:connector-curvature="0"
     id="path119"
     d="m 121.34326,0 130.58977,0 0,43.767555 -130.58977,0 z" />
  <path
     style="fill:#000000;fill-rule:nonzero"
     inkscape:connector-curvature="0"
     id="path121"
     d="m 135.40968,24.46988 -2.61517,-7.55915 1.50571,0 1.36701,4.367122 0.4953,1.613552 q 0.0396,-0.122776 0.45567,-1.560942 l 1.3472,-4.419732 1.4859,0 1.28776,4.384654 0.43587,1.438167 0.47548,-1.455699 1.46607,-4.367122 1.40666,0 -2.67462,7.55915 -1.48587,0 -1.36703,-4.524963 -0.33679,-1.297858 -1.72365,5.822821 -1.5255,0 z m 10.63916,-8.962233 0,-1.490784 1.44626,0 0,1.490784 -1.44626,0 z m 0,8.962233 0,-7.55915 1.44626,0 0,7.55915 -1.44626,0 z m 3.75454,0 0,-7.55915 1.30758,0 0,1.069861 q 0.93115,-1.245247 2.71422,-1.245247 0.77268,0 1.40665,0.24554 0.65379,0.245541 0.97077,0.648935 0.33681,0.38585 0.45569,0.947086 0.0793,0.350772 0.0793,1.245236 l 0,4.647739 -1.44627,0 0,-4.595118 q 0,-0.789244 -0.1783,-1.175093 -0.15849,-0.385849 -0.59436,-0.613846 -0.41606,-0.245541 -0.99059,-0.245541 -0.93116,0 -1.60477,0.526159 -0.6736,0.508614 -0.6736,1.964325 l 0,4.139114 -1.44626,0 z m 14.94602,0 0,-0.947086 q -0.81228,1.122472 -2.39722,1.122472 -1.01041,0 -1.88213,-0.491081 -0.85191,-0.508626 -1.32739,-1.40309 -0.47549,-0.894475 -0.47549,-2.052023 0,-1.140005 0.43586,-2.052013 0.43587,-0.929553 1.28777,-1.420634 0.85192,-0.491081 1.90193,-0.491081 0.77268,0 1.36703,0.298162 0.61416,0.280618 0.9906,0.736622 l 0,-3.753265 1.44625,0 0,10.453017 -1.34721,0 z m -4.57653,-3.770808 q 0,1.455711 0.67361,2.174788 0.6934,0.719089 1.64437,0.719089 0.95097,0 1.60478,-0.684011 0.6736,-0.701545 0.6736,-2.104635 0,-1.560931 -0.6736,-2.280021 -0.67361,-0.736621 -1.66421,-0.736621 -0.97078,0 -1.62457,0.701545 -0.63398,0.701545 -0.63398,2.209866 z m 7.89301,-0.01752 q 0,-2.104634 1.30758,-3.10434 1.10946,-0.841854 2.69442,-0.841854 1.76325,0 2.87272,1.01724 1.12927,1.01724 1.12927,2.823723 0,1.4557 -0.49529,2.297553 -0.4953,0.841854 -1.44627,1.315402 -0.95097,0.456004 -2.06043,0.456004 -1.80288,0 -2.91234,-1.017239 -1.08966,-1.01724 -1.08966,-2.946489 z m 1.4859,0 q 0,1.4557 0.71322,2.192322 0.71323,0.719089 1.80288,0.719089 1.06983,0 1.78307,-0.719089 0.73304,-0.736622 0.73304,-2.227399 0,-1.40309 -0.73304,-2.122178 -0.71324,-0.736622 -1.78307,-0.736622 -1.08965,0 -1.80288,0.719089 -0.71322,0.719078 -0.71322,2.174788 z m 10.01287,3.788342 -2.61516,-7.55915 1.5057,0 1.36703,4.367122 0.49528,1.613552 q 0.0396,-0.122776 0.45569,-1.560942 l 1.3472,-4.419732 1.48589,0 1.28778,4.384655 0.43585,1.438166 0.47549,-1.455699 1.46608,-4.367122 1.40663,0 -2.67459,7.55915 -1.4859,0 -1.36701,-4.524964 -0.33681,-1.297857 -1.72362,5.822821 -1.52553,0 z m 20.38643,0 -1.44626,0 0,-8.172996 q -0.53493,0.43846 -1.38684,0.894464 -0.83209,0.438471 -1.5057,0.648935 l 0,-1.245248 q 1.20852,-0.491082 2.11987,-1.210159 0.91135,-0.719084 1.28777,-1.40309 l 0.93116,0 0,10.488094 z" />
  <path
     style="fill:#000000;fill-opacity:0;fill-rule:nonzero"
     inkscape:connector-curvature="0"
     id="path123"
     d="m 238.28208,0 130.58978,0 0,43.767555 -130.58978,0 z" />
  <path
     style="fill:#000000;fill-rule:nonzero"
     inkscape:connector-curvature="0"
     id="path125"
     d="m 252.34851,24.46988 -2.61517,-7.55915 1.5057,0 1.36702,4.367122 0.4953,1.613552 q 0.0396,-0.122776 0.45566,-1.560942 l 1.34721,-4.419732 1.4859,0 1.28777,4.384654 0.43585,1.438167 0.47549,-1.455699 1.46608,-4.367122 1.40664,0 -2.6746,7.55915 -1.48589,0 -1.36702,-4.524963 -0.3368,-1.297858 -1.72363,5.822821 -1.52551,0 z m 10.63916,-8.962233 0,-1.490784 1.44627,0 0,1.490784 -1.44627,0 z m 0,8.962233 0,-7.55915 1.44627,0 0,7.55915 -1.44627,0 z m 3.75455,0 0,-7.55915 1.30758,0 0,1.069861 q 0.93115,-1.245247 2.71421,-1.245247 0.77267,0 1.40665,0.24554 0.65378,0.245541 0.97078,0.648935 0.33681,0.38585 0.45567,0.947086 0.0793,0.350772 0.0793,1.245236 l 0,4.647739 -1.44628,0 0,-4.595118 q 0,-0.789244 -0.1783,-1.175093 -0.1585,-0.385849 -0.59436,-0.613846 -0.41605,-0.245541 -0.99059,-0.245541 -0.93116,0 -1.60476,0.526159 -0.67361,0.508614 -0.67361,1.964325 l 0,4.139114 -1.44625,0 z m 14.94602,0 0,-0.947086 q -0.81228,1.122472 -2.39723,1.122472 -1.01041,0 -1.88213,-0.491081 -0.8519,-0.508626 -1.32739,-1.40309 -0.47548,-0.894475 -0.47548,-2.052023 0,-1.140005 0.43586,-2.052013 0.43585,-0.929553 1.28776,-1.420634 0.85191,-0.491081 1.90194,-0.491081 0.77266,0 1.36702,0.298162 0.61416,0.280618 0.99059,0.736622 l 0,-3.753265 1.44627,0 0,10.453017 -1.34721,0 z m -4.57653,-3.770808 q 0,1.455711 0.6736,2.174788 0.69341,0.719089 1.64438,0.719089 0.95097,0 1.60476,-0.684011 0.6736,-0.701545 0.6736,-2.104635 0,-1.560931 -0.6736,-2.280021 -0.6736,-0.736621 -1.66419,-0.736621 -0.97079,0 -1.62457,0.701545 -0.63398,0.701545 -0.63398,2.209866 z m 7.893,-0.01752 q 0,-2.104634 1.30759,-3.10434 1.10946,-0.841854 2.6944,-0.841854 1.76327,0 2.87273,1.01724 1.12927,1.01724 1.12927,2.823723 0,1.4557 -0.49529,2.297553 -0.49531,0.841854 -1.44627,1.315402 -0.95097,0.456004 -2.06044,0.456004 -1.80286,0 -2.91233,-1.017239 -1.08966,-1.01724 -1.08966,-2.946489 z m 1.4859,0 q 0,1.4557 0.71323,2.192322 0.71322,0.719089 1.80286,0.719089 1.06985,0 1.78307,-0.719089 0.73305,-0.736622 0.73305,-2.227399 0,-1.40309 -0.73305,-2.122178 -0.71322,-0.736622 -1.78307,-0.736622 -1.08964,0 -1.80286,0.719089 -0.71323,0.719078 -0.71323,2.174788 z m 10.01288,3.788342 -2.61517,-7.55915 1.50571,0 1.36702,4.367122 0.49529,1.613552 q 0.0396,-0.122776 0.45568,-1.560942 l 1.3472,-4.419732 1.48588,0 1.28778,4.384655 0.43587,1.438166 0.47548,-1.455699 1.46607,-4.367122 1.40664,0 -2.6746,7.55915 -1.48589,0 -1.36701,-4.524964 -0.3368,-1.297857 -1.72364,5.822821 -1.52551,0 z m 22.54593,-1.227703 0,1.227703 -7.80588,0 q -0.0198,-0.456004 0.17832,-0.894475 0.29717,-0.701545 0.95097,-1.385546 0.65379,-0.684011 1.90194,-1.578475 1.92174,-1.403089 2.59534,-2.209866 0.67361,-0.82432 0.67361,-1.543398 0,-0.771699 -0.61416,-1.280319 -0.61418,-0.526159 -1.60478,-0.526159 -1.05001,0 -1.68399,0.561236 -0.61417,0.543697 -0.63399,1.52586 l -1.48589,-0.140309 q 0.1585,-1.473244 1.14909,-2.244943 0.99059,-0.7717 2.67461,-0.7717 1.70382,0 2.69441,0.841854 0.99059,0.824316 0.99059,2.052013 0,0.63139 -0.29719,1.245247 -0.27736,0.596314 -0.95097,1.280314 -0.67359,0.666467 -2.23872,1.824016 -1.30759,0.964629 -1.68402,1.315402 -0.35661,0.350772 -0.59436,0.701545 l 5.78507,0 z" />
  <path
     style="fill:#000000;fill-opacity:0;fill-rule:nonzero"
     inkscape:connector-curvature="0"
     id="path127"
     d="m 357.28633,0 130.58977,0 0,43.767555 -130.58977,0 z" />
  <path
     style="fill:#000000;fill-rule:nonzero"
     inkscape:connector-curvature="0"
     id="path129"
     d="m 371.35274,24.46988 -2.61516,-7.55915 1.5057,0 1.36702,4.367122 0.49529,1.613552 q 0.0396,-0.122776 0.45568,-1.560942 l 1.34721,-4.419732 1.48588,0 1.28778,4.384654 0.43586,1.438167 0.47548,-1.455699 1.46608,-4.367122 1.40663,0 -2.67459,7.55915 -1.4859,0 -1.36701,-4.524963 -0.33681,-1.297858 -1.72362,5.822821 -1.52552,0 z m 10.63916,-8.962233 0,-1.490784 1.44627,0 0,1.490784 -1.44627,0 z m 0,8.962233 0,-7.55915 1.44627,0 0,7.55915 -1.44627,0 z m 3.75455,0 0,-7.55915 1.30758,0 0,1.069861 q 0.93115,-1.245247 2.71422,-1.245247 0.77266,0 1.40665,0.24554 0.65378,0.245541 0.97077,0.648935 0.33681,0.38585 0.45567,0.947086 0.0793,0.350772 0.0793,1.245236 l 0,4.647739 -1.44628,0 0,-4.595118 q 0,-0.789244 -0.1783,-1.175093 -0.1585,-0.385849 -0.59435,-0.613846 -0.41606,-0.245541 -0.9906,-0.245541 -0.93116,0 -1.60476,0.526159 -0.67361,0.508614 -0.67361,1.964325 l 0,4.139114 -1.44625,0 z m 14.94602,0 0,-0.947086 q -0.81228,1.122472 -2.39722,1.122472 -1.01042,0 -1.88214,-0.491081 -0.8519,-0.508626 -1.32738,-1.40309 -0.47549,-0.894475 -0.47549,-2.052023 0,-1.140005 0.43586,-2.052013 0.43586,-0.929553 1.28776,-1.420634 0.85191,-0.491081 1.90194,-0.491081 0.77267,0 1.36703,0.298162 0.61416,0.280618 0.99059,0.736622 l 0,-3.753265 1.44626,0 0,10.453017 -1.34721,0 z m -4.57653,-3.770808 q 0,1.455711 0.67361,2.174788 0.6934,0.719089 1.64437,0.719089 0.95097,0 1.60476,-0.684011 0.67361,-0.701545 0.67361,-2.104635 0,-1.560931 -0.67361,-2.280021 -0.67359,-0.736621 -1.66419,-0.736621 -0.97078,0 -1.62457,0.701545 -0.63398,0.701545 -0.63398,2.209866 z m 7.893,-0.01752 q 0,-2.104634 1.30759,-3.10434 1.10946,-0.841854 2.69441,-0.841854 1.76326,0 2.87272,1.01724 1.12927,1.01724 1.12927,2.823723 0,1.4557 -0.49528,2.297553 -0.49531,0.841854 -1.44628,1.315402 -0.95097,0.456004 -2.06043,0.456004 -1.80287,0 -2.91234,-1.017239 -1.08966,-1.01724 -1.08966,-2.946489 z m 1.4859,0 q 0,1.4557 0.71323,2.192322 0.71322,0.719089 1.80287,0.719089 1.06984,0 1.78306,-0.719089 0.73305,-0.736622 0.73305,-2.227399 0,-1.40309 -0.73305,-2.122178 -0.71322,-0.736622 -1.78306,-0.736622 -1.08965,0 -1.80287,0.719089 -0.71323,0.719078 -0.71323,2.174788 z m 10.01288,3.788342 -2.61516,-7.55915 1.5057,0 1.36702,4.367122 0.49529,1.613552 q 0.0396,-0.122776 0.45568,-1.560942 l 1.34721,-4.419732 1.48588,0 1.28777,4.384655 0.43587,1.438166 0.47548,-1.455699 1.46608,-4.367122 1.40664,0 -2.6746,7.55915 -1.48589,0 -1.36701,-4.524964 -0.33681,-1.297857 -1.72363,5.822821 -1.52552,0 z m 14.93817,-2.753569 1.44628,-0.175385 q 0.25754,1.087393 0.8519,1.578475 0.59436,0.473548 1.46608,0.473548 1.01041,0 1.70382,-0.613857 0.71323,-0.63139 0.71323,-1.560931 0,-0.894476 -0.65378,-1.455711 -0.63399,-0.578769 -1.6444,-0.578769 -0.41604,0 -1.03022,0.140309 l 0.1585,-1.122472 q 0.1585,0.01751 0.23774,0.01751 0.93117,0 1.6642,-0.420926 0.75285,-0.43846 0.75285,-1.332936 0,-0.701544 -0.55474,-1.157542 -0.5349,-0.473544 -1.38682,-0.473544 -0.8519,0 -1.40664,0.473544 -0.55473,0.473542 -0.73304,1.403083 l -1.44627,-0.227996 q 0.27737,-1.280319 1.20852,-1.981864 0.95097,-0.719083 2.33781,-0.719083 0.97078,0 1.78306,0.36831 0.8123,0.368311 1.24815,0.999702 0.43586,0.63139 0.43586,1.350468 0,0.666467 -0.41605,1.227703 -0.41605,0.561236 -1.20851,0.876931 1.03021,0.228008 1.60474,0.894475 0.59436,0.666468 0.59436,1.683707 0,1.368013 -1.12927,2.332631 -1.12928,0.947085 -2.85291,0.947085 -1.54532,0 -2.57553,-0.824309 -1.03023,-0.824321 -1.16892,-2.122178 z" />
  <path
     style="fill:#000000;fill-opacity:0;fill-rule:nonzero"
     inkscape:connector-curvature="0"
     id="path131"
     d="m 477.38677,0 130.58978,0 0,43.767555 -130.58978,0 z" />
  <path
     style="fill:#000000;fill-rule:nonzero"
     inkscape:connector-curvature="0"
     id="path133"
     d="m 491.4532,24.46988 -2.61516,-7.55915 1.5057,0 1.36701,4.367122 0.4953,1.613552 q 0.0396,-0.122776 0.45567,-1.560942 l 1.34721,-4.419732 1.48589,0 1.28777,4.384654 0.43586,1.438167 0.47548,-1.455699 1.46608,-4.367122 1.40664,0 -2.6746,7.55915 -1.48588,0 -1.36703,-4.524963 -0.33679,-1.297858 -1.72364,5.822821 -1.52551,0 z m 10.63916,-8.962233 0,-1.490784 1.44627,0 0,1.490784 -1.44627,0 z m 0,8.962233 0,-7.55915 1.44627,0 0,7.55915 -1.44627,0 z m 3.75455,0 0,-7.55915 1.30758,0 0,1.069861 q 0.93115,-1.245247 2.71422,-1.245247 0.77266,0 1.40664,0.24554 0.65379,0.245541 0.97078,0.648935 0.33681,0.38585 0.45567,0.947086 0.0793,0.350772 0.0793,1.245236 l 0,4.647739 -1.44628,0 0,-4.595118 q 0,-0.789244 -0.17829,-1.175093 -0.15851,-0.385849 -0.59436,-0.613846 -0.41606,-0.245541 -0.9906,-0.245541 -0.93116,0 -1.60476,0.526159 -0.6736,0.508614 -0.6736,1.964325 l 0,4.139114 -1.44626,0 z m 14.94602,0 0,-0.947086 q -0.81228,1.122472 -2.39722,1.122472 -1.01042,0 -1.88214,-0.491081 -0.8519,-0.508626 -1.32738,-1.40309 -0.47549,-0.894475 -0.47549,-2.052023 0,-1.140005 0.43586,-2.052013 0.43586,-0.929553 1.28776,-1.420634 0.85192,-0.491081 1.90194,-0.491081 0.77267,0 1.36703,0.298162 0.61416,0.280618 0.99058,0.736622 l 0,-3.753265 1.44627,0 0,10.453017 -1.34721,0 z m -4.57653,-3.770808 q 0,1.455711 0.67361,2.174788 0.6934,0.719089 1.64437,0.719089 0.95097,0 1.60476,-0.684011 0.67361,-0.701545 0.67361,-2.104635 0,-1.560931 -0.67361,-2.280021 -0.6736,-0.736621 -1.66419,-0.736621 -0.97078,0 -1.62457,0.701545 -0.63398,0.701545 -0.63398,2.209866 z m 7.893,-0.01752 q 0,-2.104634 1.30759,-3.10434 1.10946,-0.841854 2.69441,-0.841854 1.76326,0 2.87272,1.01724 1.12928,1.01724 1.12928,2.823723 0,1.4557 -0.49529,2.297553 -0.49531,0.841854 -1.44628,1.315402 -0.95097,0.456004 -2.06043,0.456004 -1.80287,0 -2.91234,-1.017239 -1.08966,-1.01724 -1.08966,-2.946489 z m 1.4859,0 q 0,1.4557 0.71323,2.192322 0.71322,0.719089 1.80287,0.719089 1.06984,0 1.78306,-0.719089 0.73305,-0.736622 0.73305,-2.227399 0,-1.40309 -0.73305,-2.122178 -0.71322,-0.736622 -1.78306,-0.736622 -1.08965,0 -1.80287,0.719089 -0.71323,0.719078 -0.71323,2.174788 z m 10.01288,3.788342 -2.61517,-7.55915 1.50571,0 1.36702,4.367122 0.49529,1.613552 q 0.0396,-0.122776 0.45568,-1.560942 l 1.3472,-4.419732 1.48589,0 1.28777,4.384655 0.43587,1.438166 0.47549,-1.455699 1.46607,-4.367122 1.40664,0 -2.6746,7.55915 -1.48589,0 -1.36701,-4.524964 -0.33681,-1.297857 -1.72363,5.822821 -1.52552,0 z m 19.57411,0 0,-2.508028 -5.11146,0 0,-1.175082 5.36902,-6.769906 1.18872,0 0,6.769906 1.60475,0 0,1.175082 -1.60475,0 0,2.508028 -1.44628,0 z m 0,-3.68311 0,-4.700349 -3.70481,4.700349 3.70481,0 z" />
  <path
     style="fill:#000000;fill-rule:nonzero"
     inkscape:connector-curvature="0"
     id="path137"
     d="m 608.58419,24.46988 -2.61516,-7.55915 1.5057,0 1.36701,4.367122 0.4953,1.613552 q 0.0396,-0.122776 0.45567,-1.560942 l 1.34721,-4.419732 1.48589,0 1.28776,4.384654 0.43587,1.438167 0.47548,-1.455699 1.46607,-4.367122 1.40666,0 -2.67461,7.55915 -1.48588,0 -1.36703,-4.524963 -0.33679,-1.297858 -1.72365,5.822821 -1.5255,0 z m 10.63913,-8.962233 0,-1.490784 1.44625,0 0,1.490784 -1.44625,0 z m 0,8.962233 0,-7.55915 1.44625,0 0,7.55915 -1.44625,0 z m 3.75457,0 0,-7.55915 1.30759,0 0,1.069861 q 0.93115,-1.245247 2.71421,-1.245247 0.77268,0 1.40665,0.24554 0.65379,0.245541 0.97077,0.648935 0.33681,0.38585 0.45569,0.947086 0.0793,0.350772 0.0793,1.245236 l 0,4.647739 -1.44627,0 0,-4.595118 q 0,-0.789244 -0.1783,-1.175093 -0.15849,-0.385849 -0.59435,-0.613846 -0.41606,-0.245541 -0.9906,-0.245541 -0.93116,0 -1.60477,0.526159 -0.67359,0.508614 -0.67359,1.964325 l 0,4.139114 -1.44627,0 z m 14.94603,0 0,-0.947086 q -0.81228,1.122472 -2.39723,1.122472 -1.0104,0 -1.88213,-0.491081 -0.85191,-0.508626 -1.32739,-1.40309 -0.47549,-0.894475 -0.47549,-2.052023 0,-1.140005 0.43587,-2.052013 0.43586,-0.929553 1.28777,-1.420634 0.85191,-0.491081 1.90193,-0.491081 0.77267,0 1.36703,0.298162 0.61416,0.280618 0.99059,0.736622 l 0,-3.753265 1.44625,0 0,10.453017 -1.3472,0 z m -4.57654,-3.770808 q 0,1.455711 0.67361,2.174788 0.69341,0.719089 1.64437,0.719089 0.95097,0 1.60478,-0.684011 0.6736,-0.701545 0.6736,-2.104635 0,-1.560931 -0.6736,-2.280021 -0.67361,-0.736621 -1.6642,-0.736621 -0.97079,0 -1.62457,0.701545 -0.63399,0.701545 -0.63399,2.209866 z m 7.89301,-0.01752 q 0,-2.104634 1.30758,-3.10434 1.10947,-0.841854 2.69442,-0.841854 1.76326,0 2.87272,1.01724 1.12928,1.01724 1.12928,2.823723 0,1.4557 -0.4953,2.297553 -0.4953,0.841854 -1.44627,1.315402 -0.95097,0.456004 -2.06043,0.456004 -1.80288,0 -2.91234,-1.017239 -1.08966,-1.01724 -1.08966,-2.946489 z m 1.4859,0 q 0,1.4557 0.71322,2.192322 0.71324,0.719089 1.80288,0.719089 1.06983,0 1.78307,-0.719089 0.73304,-0.736622 0.73304,-2.227399 0,-1.40309 -0.73304,-2.122178 -0.71324,-0.736622 -1.78307,-0.736622 -1.08964,0 -1.80288,0.719089 -0.71322,0.719078 -0.71322,2.174788 z m 10.01288,3.788342 -2.61517,-7.55915 1.5057,0 1.36701,4.367122 0.49531,1.613552 q 0.0396,-0.122776 0.45566,-1.560942 l 1.34721,-4.419732 1.4859,0 1.28776,4.384655 0.43586,1.438166 0.47549,-1.455699 1.46608,-4.367122 1.40664,0 -2.67461,7.55915 -1.48588,0 -1.36702,-4.524964 -0.3368,-1.297857 -1.72363,5.822821 -1.52551,0 z m 14.93814,-2.736024 1.5057,-0.122776 q 0.1783,0.999707 0.79248,1.490788 0.61416,0.491081 1.48588,0.491081 1.05003,0 1.76326,-0.701545 0.73303,-0.701545 0.73303,-1.84156 0,-1.104928 -0.69341,-1.736318 -0.69342,-0.63139 -1.82269,-0.63139 -0.71322,0 -1.28778,0.280618 -0.55473,0.280617 -0.87171,0.719077 l -1.34721,-0.157841 1.12927,-5.349279 5.86432,0 0,1.210165 -4.69541,0 -0.63399,2.806179 q 1.05004,-0.648935 2.21893,-0.648935 1.54533,0 2.59536,0.947085 1.06984,0.947086 1.06984,2.437875 0,1.420622 -0.93116,2.455406 -1.12928,1.26278 -3.09065,1.26278 -1.60476,0 -2.63497,-0.789243 -1.01042,-0.806776 -1.14909,-2.122167 z" />
  <path
     style="fill:#000000;fill-opacity:0;fill-rule:nonzero"
     inkscape:connector-curvature="0"
     id="path139"
     d="m 236.28407,274.20732 91.29303,0" />
  <path
     style="fill-rule:evenodd;stroke:#000000;stroke-width:1.19299948;stroke-linecap:butt;stroke-linejoin:round"
     inkscape:connector-curvature="0"
     id="path141"
     d="m 240.62944,274.20732 82.60223,0" />
  <path
     style="fill:#000000;fill-rule:evenodd;stroke:#000000;stroke-width:1.19299948;stroke-linecap:butt"
     inkscape:connector-curvature="0"
     id="path143"
     d="m 240.62947,274.20732 1.42591,-1.26233 -3.9177,1.26233 3.9177,1.2623 z" />
  <path
     style="fill:#000000;fill-rule:evenodd;stroke:#000000;stroke-width:1.19299948;stroke-linecap:butt"
     inkscape:connector-curvature="0"
     id="path145"
     d="m 323.23169,274.20732 -1.4259,1.2623 3.91767,-1.2623 -3.91767,-1.26233 z" />
  <path
     style="fill:#000000;fill-opacity:0;fill-rule:nonzero"
     inkscape:connector-curvature="0"
     id="path157"
     d="m 108.97068,250.60101 225.71664,0" />
  <path
     style="fill:#000000;fill-opacity:0;fill-rule:nonzero"
     inkscape:connector-curvature="0"
     id="path165"
     d="m 298.64571,341.03611 -1.15813,-99.62596" />
  <path
     style="fill-rule:evenodd;stroke:#000000;stroke-width:0.68675512;stroke-linecap:butt;stroke-linejoin:round"
     inkscape:connector-curvature="0"
     id="path167"
     d="m 298.64218,322.89657 -1.07274,-30.98479" />
  <path
     style="fill:#000000;fill-rule:evenodd;stroke:#000000;stroke-width:1.19299948;stroke-linecap:butt"
     inkscape:connector-curvature="0"
     id="path169"
     d="m 299.66011,291.58763 -2.15345,-5.07452 -2.03502,5.11268 z" />
  <path
     style="fill:#000000;fill-opacity:0;fill-rule:nonzero"
     inkscape:connector-curvature="0"
     id="path175"
     d="m 106.44474,49.388745 234.82197,0 0,170.615675 -234.82197,0 z" />
  <path
     style="fill:#000000;fill-opacity:0;fill-rule:nonzero"
     inkscape:connector-curvature="0"
     id="path179"
     d="m 220.30478,53.033095 240.93214,0 0,163.332895 -240.93214,0 z" />
  <path
     style="fill:#000000;fill-opacity:0;fill-rule:nonzero"
     inkscape:connector-curvature="0"
     id="path183"
     d="m 344.36174,49.385805 234.822,0 0,170.615675 -234.822,0 z" />
  <path
     style="fill:#000000;fill-opacity:0;fill-rule:nonzero"
     inkscape:connector-curvature="0"
     id="path187"
     d="m 465.18389,53.033095 228.67185,0 0,163.332895 -228.67185,0 z" />
  <path
     d="m 69.034964,312.26431 645.401046,0"
     id="path4239"
     inkscape:connector-curvature="0"
     style="fill:#000000;fill-opacity:0;fill-rule:nonzero" />
  <path
     d="m 69.034964,312.26431 637.793286,0"
     id="path4241"
     inkscape:connector-curvature="0"
     style="fill-rule:evenodd;stroke:#000000;stroke-width:1.19299948;stroke-linecap:butt;stroke-linejoin:round" />
  <path
     d="m 706.82826,314.11832 5.75411,-1.85401 -5.75411,-1.85404 z"
     id="path4243"
     inkscape:connector-curvature="0"
     style="fill:#000000;fill-rule:evenodd;stroke:#000000;stroke-width:1.19299948;stroke-linecap:butt" />
  <path
     d="m 69.034964,312.46623 0,-301.23268"
     id="path4245"
     inkscape:connector-curvature="0"
     style="fill-rule:evenodd;stroke:#000000;stroke-width:0.99090773;stroke-linecap:butt;stroke-linejoin:round" />
  <path
     d="m 71.129304,11.23355 -2.09433,-5.093882 -2.09433,5.093882 z"
     id="path4247"
     inkscape:connector-curvature="0"
     style="fill:#000000;fill-rule:evenodd;stroke:#000000;stroke-width:1.19299948;stroke-linecap:butt" />
  <path
     d="m 628.84376,303.28454 76.07753,0 0,48.25744 -76.07753,0 z"
     id="path4249"
     inkscape:connector-curvature="0"
     style="fill:#000000;fill-opacity:0;fill-rule:nonzero" />
  <path
     d="m 646.47631,331.81774 0.29718,1.66616 q -0.89153,0.15785 -1.60476,0.15785 -1.14909,0 -1.78306,-0.3157 -0.63399,-0.33324 -0.89154,-0.84186 -0.25755,-0.52614 -0.25755,-2.22741 l 0,-6.34897 -1.56514,0 0,-1.47324 1.56514,0 0,-2.73603 2.10006,-1.12247 0,3.8585 2.13967,0 0,1.47324 -2.13967,0 0,6.4542 q 0,0.80678 0.099,1.03479 0.11881,0.228 0.37644,0.3683 0.25755,0.14032 0.73303,0.14032 0.3368,0 0.93116,-0.0877 z m 1.95603,-11.43518 0,-2.13972 2.11988,0 0,2.13972 -2.11988,0 z m 0,13.11888 0,-11.06687 2.11988,0 0,11.06687 -2.11988,0 z m 5.23567,0 0,-11.06687 1.90194,0 0,1.56094 q 0.57455,-0.80678 1.54532,-1.29786 0.9906,-0.50862 2.23875,-0.50862 1.38683,0 2.27836,0.50862 0.89154,0.50861 1.24815,1.43816 1.48589,-1.94679 3.86331,-1.94679 1.86231,0 2.85291,0.91201 1.01041,0.91201 1.01041,2.80618 l 0,7.59422 -2.11987,0 0,-6.96283 q 0,-1.12247 -0.19812,-1.61355 -0.19812,-0.50862 -0.75285,-0.80678 -0.53492,-0.29815 -1.26797,-0.29815 -1.30758,0 -2.1793,0.7717 -0.87172,0.77169 -0.87172,2.49048 l 0,6.41913 -2.11986,0 0,-7.19083 q 0,-1.24525 -0.51512,-1.85909 -0.5151,-0.63139 -1.70382,-0.63139 -0.89154,0 -1.66419,0.42092 -0.75285,0.40338 -1.08966,1.21016 -0.33679,0.80678 -0.33679,2.3151 l 0,5.73513 -2.11988,0 z m 28.26379,-3.56034 2.17931,0.24554 q -0.51511,1.68371 -1.92176,2.63079 -1.38682,0.92955 -3.56613,0.92955 -2.73404,0 -4.33879,-1.49078 -1.60477,-1.49078 -1.60477,-4.19172 0,-2.78866 1.60477,-4.33205 1.62457,-1.5434 4.21992,-1.5434 2.51611,0 4.10106,1.50832 1.58494,1.50833 1.58494,4.26189 0,0.15784 -0.0198,0.49108 l -9.31157,0 q 0.11881,1.82402 1.1689,2.78864 1.05003,0.96462 2.61518,0.96462 1.14908,0 1.96136,-0.52615 0.8321,-0.5437 1.3274,-1.73633 z m -6.95396,-3.03418 6.97376,0 q -0.13867,-1.38556 -0.79246,-2.08711 -1.0104,-1.08739 -2.63498,-1.08739 -1.44627,0 -2.45667,0.87693 -0.99059,0.8594 -1.08965,2.29756 z"
     id="path4251"
     inkscape:connector-curvature="0"
     style="fill:#000000;fill-rule:nonzero" />
  <path
     d="m 8.221921,82.973095 0,-1.6311 q -1.446265,1.87664 -3.962372,1.87664 -1.089652,0 -2.060433,-0.36832 Q 1.248148,82.464465 0.772663,81.903235 0.31699,81.341995 0.118872,80.517685 0,79.956455 0,78.763825 l 0,-6.8576 2.119869,0 0,6.13851 q 0,1.47325 0.118871,1.98187 0.198119,0.73663 0.85191,1.15755 0.653791,0.42093 1.60476,0.42093 0.95097,0 1.783067,-0.42093 0.832098,-0.43847 1.1689,-1.17509 0.356613,-0.75415 0.356613,-2.17479 l 0,-5.92805 2.119869,0 0,11.06687 -1.901938,0 z m 4.121775,-3.29726 2.100057,-0.29816 q 0.178306,1.12247 0.970781,1.71878 0.812286,0.57879 2.258552,0.57879 1.466077,0 2.159492,-0.52617 0.713227,-0.52616 0.713227,-1.2277 0,-0.63139 -0.614169,-0.9997 -0.43586,-0.24555 -2.159492,-0.6314 -2.337798,-0.52615 -3.249144,-0.89446 -0.891533,-0.38585 -1.367018,-1.05232 -0.455673,-0.68401 -0.455673,-1.49078 0,-0.73663 0.376425,-1.36802 0.396237,-0.63139 1.050029,-1.05231 0.495296,-0.3157 1.347206,-0.5437 0.85191,-0.228 1.822691,-0.228 1.48589,0 2.595354,0.38585 1.109463,0.36831 1.624571,1.01724 0.534921,0.63139 0.733039,1.70125 l -2.060433,0.24554 q -0.138683,-0.84186 -0.832098,-1.3154 -0.673603,-0.49108 -1.901938,-0.49108 -1.466078,0 -2.080245,0.43847 -0.614167,0.42092 -0.614167,0.98216 0,0.3683 0.257553,0.66647 0.257554,0.29815 0.812287,0.49108 0.316989,0.10517 1.862314,0.49108 2.238739,0.52616 3.130273,0.85939 0.891534,0.33324 1.38683,0.98216 0.515109,0.64893 0.515109,1.61355 0,0.92956 -0.614168,1.77141 -0.614168,0.82431 -1.783067,1.28031 -1.168899,0.43847 -2.634977,0.43847 -2.436859,0 -3.724629,-0.89447 -1.267959,-0.89447 -1.624572,-2.64833 z m 21.23831,-0.26309 2.179304,0.24555 q -0.515109,1.6837 -1.92175,2.63079 -1.38683,0.92955 -3.566134,0.92955 -2.734037,0 -4.338797,-1.49079 -1.60476,-1.49078 -1.60476,-4.19172 0,-2.78865 1.60476,-4.33204 1.624572,-1.5434 4.219925,-1.5434 2.516106,0 4.101055,1.50832 1.584953,1.50832 1.584953,4.26189 0,0.15784 -0.01979,0.49108 l -9.311576,0 q 0.118872,1.82402 1.1689,2.78863 1.050028,0.96464 2.615164,0.96464 1.149088,0 1.961374,-0.52617 0.832099,-0.5437 1.327394,-1.73633 z m -6.953962,-3.03417 6.973774,0 q -0.138684,-1.38556 -0.792475,-2.0871 -1.010404,-1.08739 -2.634977,-1.08739 -1.446265,0 -2.45667,0.87693 -0.990592,0.85939 -1.089652,2.29756 z m 11.531414,6.59452 0,-11.06687 1.90193,0 0,1.68371 q 0.733047,-1.17509 1.347207,-1.5434 0.614171,-0.38585 1.367021,-0.38585 1.069837,0 2.1793,0.61385 l -0.733037,1.73632 q -0.772664,-0.40338 -1.56513,-0.40338 -0.693422,0 -1.248154,0.3683 -0.534918,0.36832 -0.772663,1.01724 -0.356612,0.99971 -0.356612,2.19234 l 0,5.78774 -2.119862,0 z m 21.859266,0 -2.11987,0 0,-11.9438 q -0.75285,0.64893 -2.001,1.29785 -1.248149,0.6314 -2.238735,0.96463 l 0,-1.82401 q 1.783065,-0.73662 3.110455,-1.78894 1.3274,-1.05232 1.88213,-2.03448 l 1.36702,0 0,15.32875 z"
     id="path4253"
     inkscape:connector-curvature="0"
     style="fill:#000000;fill-rule:nonzero" />
  <path
     d="m 8.221921,137.97421 0,-1.6311 q -1.446265,1.87663 -3.962372,1.87663 -1.089652,0 -2.060433,-0.36831 Q 1.248148,137.46558 0.772663,136.90435 0.31699,136.34311 0.118872,135.5188 0,134.95756 0,133.76494 l 0,-6.85761 2.119869,0 0,6.13852 q 0,1.47324 0.118871,1.98187 0.198119,0.73662 0.85191,1.15754 0.653791,0.42093 1.60476,0.42093 0.95097,0 1.783067,-0.42093 0.832098,-0.43847 1.1689,-1.17509 0.356613,-0.75415 0.356613,-2.17478 l 0,-5.92806 2.119869,0 0,11.06688 -1.901938,0 z m 4.121775,-3.29726 2.100057,-0.29816 q 0.178306,1.12247 0.970781,1.71878 0.812286,0.57878 2.258552,0.57878 1.466077,0 2.159492,-0.52616 0.713227,-0.52616 0.713227,-1.2277 0,-0.63139 -0.614169,-0.99971 -0.43586,-0.24554 -2.159492,-0.63139 -2.337798,-0.52616 -3.249144,-0.89447 -0.891533,-0.38585 -1.367018,-1.05231 -0.455673,-0.68402 -0.455673,-1.49079 0,-0.73662 0.376425,-1.36801 0.396237,-0.63139 1.050029,-1.05231 0.495296,-0.3157 1.347206,-0.5437 0.85191,-0.22801 1.822691,-0.22801 1.48589,0 2.595354,0.38585 1.109463,0.36831 1.624571,1.01723 0.534921,0.63139 0.733039,1.70125 l -2.060433,0.24555 q -0.138683,-0.84186 -0.832098,-1.31541 -0.673603,-0.49108 -1.901938,-0.49108 -1.466078,0 -2.080245,0.43847 -0.614167,0.42093 -0.614167,0.98216 0,0.36831 0.257553,0.66648 0.257554,0.29815 0.812287,0.49107 0.316989,0.10518 1.862314,0.49108 2.238739,0.52616 3.130273,0.85939 0.891534,0.33324 1.38683,0.98216 0.515109,0.64894 0.515109,1.61355 0,0.92956 -0.614168,1.77141 -0.614168,0.82432 -1.783067,1.28031 -1.168899,0.43847 -2.634977,0.43847 -2.436859,0 -3.724629,-0.89446 -1.267959,-0.89447 -1.624572,-2.64833 z m 21.23831,-0.26309 2.179304,0.24554 q -0.515109,1.68371 -1.92175,2.63079 -1.38683,0.92955 -3.566134,0.92955 -2.734037,0 -4.338797,-1.49078 -1.60476,-1.49078 -1.60476,-4.19172 0,-2.78865 1.60476,-4.33205 1.624572,-1.5434 4.219925,-1.5434 2.516106,0 4.101055,1.50833 1.584953,1.50832 1.584953,4.26189 0,0.15783 -0.01979,0.49107 l -9.311576,0 q 0.118872,1.82402 1.1689,2.78864 1.050028,0.96463 2.615164,0.96463 1.149088,0 1.961374,-0.52616 0.832099,-0.5437 1.327394,-1.73634 z m -6.953962,-3.03418 6.973774,0 q -0.138684,-1.38555 -0.792475,-2.08709 -1.010404,-1.0874 -2.634977,-1.0874 -1.446265,0 -2.45667,0.87693 -0.990592,0.8594 -1.089652,2.29756 z m 11.531414,6.59453 0,-11.06688 1.90193,0 0,1.68371 q 0.733047,-1.17509 1.347207,-1.5434 0.614171,-0.38585 1.367021,-0.38585 1.069837,0 2.1793,0.61386 l -0.733037,1.73632 q -0.772664,-0.40339 -1.56513,-0.40339 -0.693422,0 -1.248154,0.36831 -0.534918,0.36831 -0.772663,1.01724 -0.356612,0.9997 -0.356612,2.19233 l 0,5.78774 -2.119862,0 z m 25.009346,-1.80649 0,1.80649 -11.391812,0 q -0.01979,-0.68402 0.237735,-1.29786 0.435864,-1.03479 1.386834,-2.03448 0.970783,-0.99971 2.773653,-2.3151 2.81329,-2.03447 3.80388,-3.2271 0.9906,-1.19263 0.9906,-2.26249 0,-1.10493 -0.91134,-1.87664 -0.89155,-0.77169 -2.33781,-0.77169 -1.52551,0 -2.45667,0.8243 -0.911343,0.80678 -0.911343,2.24495 l -2.1793,-0.19292 q 0.217932,-2.15726 1.684007,-3.27973 1.466076,-1.14 3.922746,-1.14 2.47648,0 3.92275,1.2277 1.44627,1.21017 1.44627,3.01664 0,0.91202 -0.43586,1.80647 -0.41606,0.87694 -1.40665,1.85909 -0.97078,0.96464 -3.24915,2.68342 -1.90194,1.42063 -2.45667,1.92924 -0.53492,0.49109 -0.891531,0.9997 l 8.459661,0 z"
     id="path4255"
     inkscape:connector-curvature="0"
     style="fill:#000000;fill-rule:nonzero" />
  <path
     d="m 8.221921,201.95506 0,-1.6311 q -1.446265,1.87664 -3.962372,1.87664 -1.089652,0 -2.060433,-0.36831 Q 1.248148,201.44643 0.772663,200.8852 0.31699,200.32396 0.118872,199.49966 0,198.93841 0,197.7458 l 0,-6.85761 2.119869,0 0,6.13852 q 0,1.47324 0.118871,1.98186 0.198119,0.73662 0.85191,1.15755 0.653791,0.42093 1.60476,0.42093 0.95097,0 1.783067,-0.42093 0.832098,-0.43847 1.1689,-1.17509 0.356613,-0.75415 0.356613,-2.17479 l 0,-5.92805 2.119869,0 0,11.06687 -1.901938,0 z m 4.121775,-3.29726 2.100057,-0.29816 q 0.178306,1.12247 0.970781,1.71879 0.812286,0.57877 2.258552,0.57877 1.466077,0 2.159492,-0.52616 0.713227,-0.52615 0.713227,-1.2277 0,-0.63139 -0.614169,-0.99971 -0.43586,-0.24554 -2.159492,-0.63139 -2.337798,-0.52615 -3.249144,-0.89446 -0.891533,-0.38585 -1.367018,-1.05232 -0.455673,-0.68401 -0.455673,-1.49079 0,-0.73662 0.376425,-1.36801 0.396237,-0.63139 1.050029,-1.05231 0.495296,-0.31569 1.347206,-0.5437 0.85191,-0.22798 1.822691,-0.22798 1.48589,0 2.595354,0.38583 1.109463,0.36831 1.624571,1.01724 0.534921,0.63139 0.733039,1.70125 l -2.060433,0.24554 q -0.138683,-0.84185 -0.832098,-1.3154 -0.673603,-0.49109 -1.901938,-0.49109 -1.466078,0 -2.080245,0.43847 -0.614167,0.42094 -0.614167,0.98217 0,0.36831 0.257553,0.66647 0.257554,0.29815 0.812287,0.49108 0.316989,0.10517 1.862314,0.49108 2.238739,0.52615 3.130273,0.85939 0.891534,0.33324 1.38683,0.98215 0.515109,0.64895 0.515109,1.61356 0,0.92955 -0.614168,1.77141 -0.614168,0.82431 -1.783067,1.28031 -1.168899,0.43847 -2.634977,0.43847 -2.436859,0 -3.724629,-0.89447 -1.267959,-0.89447 -1.624572,-2.64833 z m 21.23831,-0.26309 2.179304,0.24555 q -0.515109,1.6837 -1.92175,2.63079 -1.38683,0.92955 -3.566134,0.92955 -2.734037,0 -4.338797,-1.49079 -1.60476,-1.49078 -1.60476,-4.19172 0,-2.78865 1.60476,-4.33205 1.624572,-1.54337 4.219925,-1.54337 2.516106,0 4.101055,1.5083 1.584953,1.50832 1.584953,4.26189 0,0.15784 -0.01979,0.49108 l -9.311576,0 q 0.118872,1.82401 1.1689,2.78863 1.050028,0.96463 2.615164,0.96463 1.149088,0 1.961374,-0.52616 0.832099,-0.5437 1.327394,-1.73633 z m -6.953962,-3.03417 6.973774,0 q -0.138684,-1.38555 -0.792475,-2.0871 -1.010404,-1.0874 -2.634977,-1.0874 -1.446265,0 -2.45667,0.87694 -0.990592,0.85939 -1.089652,2.29756 z m 11.531414,6.59452 0,-11.06687 1.90193,0 0,1.6837 q 0.733047,-1.17508 1.347207,-1.54339 0.614171,-0.38583 1.367021,-0.38583 1.069837,0 2.1793,0.61383 l -0.733037,1.73632 q -0.772664,-0.40338 -1.56513,-0.40338 -0.693422,0 -1.248154,0.36831 -0.534918,0.36831 -0.772663,1.01724 -0.356612,0.9997 -0.356612,2.19232 l 0,5.78775 -2.119862,0 z m 13.894895,-4.03388 2.119872,-0.24554 q 0.356612,1.59601 1.228329,2.29756 0.89154,0.70154 2.13969,0.70154 1.5057,0 2.53591,-0.91201 1.03022,-0.92955 1.03022,-2.28002 0,-1.28031 -0.97078,-2.12217 -0.95097,-0.84185 -2.41705,-0.84185 -0.59436,0 -1.48589,0.21046 l 0.23775,-1.64863 q 0.19812,0.0176 0.3368,0.0176 1.34721,0 2.41704,-0.61385 1.08965,-0.63139 1.08965,-1.92923 0,-1.03478 -0.79247,-1.70125 -0.77266,-0.68401 -2.02081,-0.68401 -1.22833,0 -2.06043,0.68401 -0.812292,0.68401 -1.050027,2.06954 l -2.119872,-0.33319 q 0.376425,-1.89417 1.743446,-2.92895 1.386823,-1.03477 3.447253,-1.03477 1.40665,0 2.59537,0.54369 1.18871,0.52615 1.80287,1.45571 0.63398,0.92954 0.63398,1.96432 0,0.99968 -0.59435,1.80646 -0.59436,0.80677 -1.78308,1.29785 1.54533,0.29816 2.37743,1.29786 0.85192,0.98216 0.85192,2.4554 0,1.99941 -1.64439,3.38496 -1.64438,1.38555 -4.16049,1.38555 -2.27837,0 -3.784071,-1.19263 -1.485888,-1.19262 -1.70382,-3.10433 z"
     id="path4257"
     inkscape:connector-curvature="0"
     style="fill:#000000;fill-rule:nonzero" />
  <path
     d="m 108.98067,76.884875 0,0 c 0,-5.88684 5.39076,-10.65905 12.0406,-10.65905 l 0,0 c 3.19337,0 6.25595,1.12299 8.51402,3.12195 2.25804,1.99897 3.52661,4.71015 3.52661,7.5371 l 0,0 c 0,5.88685 -5.39076,10.65906 -12.04063,10.65906 l 0,0 c -6.64984,0 -12.0406,-4.77221 -12.0406,-10.65906 z"
     id="path4259"
     inkscape:connector-curvature="0"
     style="fill:#9900ff;fill-rule:nonzero" />
  <path
     d="m 142.57658,76.884875 0,0 c 0,-5.88684 5.39076,-10.65905 12.04061,-10.65905 l 0,0 c 3.19337,0 6.25594,1.12299 8.51401,3.12195 2.25805,1.99897 3.52661,4.71015 3.52661,7.5371 l 0,0 c 0,5.88685 -5.39076,10.65906 -12.04062,10.65906 l 0,0 c -6.64985,0 -12.04061,-4.77221 -12.04061,-10.65906 z"
     id="path4261"
     inkscape:connector-curvature="0"
     style="fill:#9900ff;fill-rule:nonzero" />
  <path
     d="m 252.26001,76.884875 0,0 c 0,-5.88684 5.39076,-10.65905 12.04061,-10.65905 l 0,0 c 3.19339,0 6.25594,1.12299 8.51398,3.12195 2.25806,1.99897 3.52664,4.71015 3.52664,7.5371 l 0,0 c 0,5.88685 -5.39076,10.65906 -12.04062,10.65906 l 0,0 c -6.64985,0 -12.04061,-4.77221 -12.04061,-10.65906 z"
     id="path4263"
     inkscape:connector-curvature="0"
     style="fill:#9900ff;fill-rule:nonzero" />
  <path
     d="m 294.10264,76.884875 0,0 c 0,-5.88684 5.39077,-10.65905 12.04062,-10.65905 l 0,0 c 3.19339,0 6.25594,1.12299 8.51399,3.12195 2.25805,1.99897 3.52664,4.71015 3.52664,7.5371 l 0,0 c 0,5.88685 -5.39078,10.65906 -12.04063,10.65906 l 0,0 c -6.64985,0 -12.04062,-4.77221 -12.04062,-10.65906 z"
     id="path4265"
     inkscape:connector-curvature="0"
     style="fill:#9900ff;fill-rule:nonzero" />
  <path
     d="m 325.80161,76.884875 0,0 c 0,-5.88684 5.39077,-10.65905 12.04062,-10.65905 l 0,0 c 3.19339,0 6.25594,1.12299 8.51399,3.12195 2.25806,1.99897 3.52663,4.71015 3.52663,7.5371 l 0,0 c 0,5.88685 -5.39076,10.65906 -12.04062,10.65906 l 0,0 c -6.64985,0 -12.04062,-4.77221 -12.04062,-10.65906 z"
     id="path4267"
     inkscape:connector-curvature="0"
     style="fill:#9900ff;fill-rule:nonzero" />
  <path
     d="m 357.50059,76.884875 0,0 c 0,-5.88684 5.39076,-10.65905 12.0406,-10.65905 l 0,0 c 3.1934,0 6.25595,1.12299 8.51399,3.12195 2.25806,1.99897 3.52664,4.71015 3.52664,7.5371 l 0,0 c 0,5.88685 -5.39076,10.65906 -12.04063,10.65906 l 0,0 c -6.64984,0 -12.0406,-4.77221 -12.0406,-10.65906 z"
     id="path4269"
     inkscape:connector-curvature="0"
     style="fill:#9900ff;fill-rule:nonzero" />
  <path
     d="m 445.62872,76.884875 0,0 c 0,-5.88684 5.39076,-10.65905 12.04061,-10.65905 l 0,0 c 3.19339,0 6.25594,1.12299 8.51398,3.12195 2.25806,1.99897 3.52664,4.71015 3.52664,7.5371 l 0,0 c 0,5.88685 -5.39076,10.65906 -12.04062,10.65906 l 0,0 c -6.64985,0 -12.04061,-4.77221 -12.04061,-10.65906 z"
     id="path4271"
     inkscape:connector-curvature="0"
     style="fill:#9900ff;fill-rule:nonzero" />
  <path
     d="m 479.22463,76.884875 0,0 c 0,-5.88684 5.39076,-10.65905 12.04061,-10.65905 l 0,0 c 3.19339,0 6.25595,1.12299 8.51399,3.12195 2.25806,1.99897 3.52663,4.71015 3.52663,7.5371 l 0,0 c 0,5.88685 -5.39076,10.65906 -12.04062,10.65906 l 0,0 c -6.64985,0 -12.04061,-4.77221 -12.04061,-10.65906 z"
     id="path4273"
     inkscape:connector-curvature="0"
     style="fill:#9900ff;fill-rule:nonzero" />
  <path
     d="m 548.96237,76.884875 0,0 c 0,-5.88684 5.39076,-10.65905 12.04056,-10.65905 l 0,0 c 3.19343,0 6.25598,1.12299 8.51408,3.12195 2.25801,1.99897 3.52659,4.71015 3.52659,7.5371 l 0,0 c 0,5.88685 -5.39076,10.65906 -12.04067,10.65906 l 0,0 c -6.6498,0 -12.04056,-4.77221 -12.04056,-10.65906 z"
     id="path4277"
     inkscape:connector-curvature="0"
     style="fill:#9900ff;fill-rule:nonzero" />
  <path
     d="m 649.14112,76.884875 0,0 c 0,-5.88684 5.39077,-10.65905 12.04065,-10.65905 l 0,0 c 3.19335,0 6.2559,1.12299 8.514,3.12195 2.25801,1.99897 3.52659,4.71015 3.52659,7.5371 l 0,0 c 0,5.88685 -5.39076,10.65906 -12.04059,10.65906 l 0,0 c -6.64988,0 -12.04065,-4.77221 -12.04065,-10.65906 z"
     id="path4279"
     inkscape:connector-curvature="0"
     style="fill:#9900ff;fill-rule:nonzero" />
  <path
     d="m 360.00655,131.88599 0,0 c 0,-5.88685 5.39077,-10.65906 12.04061,-10.65906 l 0,0 c 3.1934,0 6.25595,1.123 8.51399,3.12195 2.25806,1.99898 3.52664,4.71015 3.52664,7.53711 l 0,0 c 0,5.88684 -5.39076,10.65905 -12.04063,10.65905 l 0,0 c -6.64984,0 -12.04061,-4.77221 -12.04061,-10.65905 z"
     id="path4281"
     inkscape:connector-curvature="0"
     style="fill:#9900ff;fill-rule:nonzero" />
  <path
     d="m 393.60247,131.88599 0,0 c 0,-5.88685 5.39076,-10.65906 12.0406,-10.65906 l 0,0 c 3.1934,0 6.25596,1.123 8.514,3.12195 2.25805,1.99898 3.52663,4.71015 3.52663,7.53711 l 0,0 c 0,5.88684 -5.39076,10.65905 -12.04063,10.65905 l 0,0 c -6.64984,0 -12.0406,-4.77221 -12.0406,-10.65905 z"
     id="path4283"
     inkscape:connector-curvature="0"
     style="fill:#9900ff;fill-rule:nonzero" />
  <path
     d="m 149.55535,131.88599 0,0 c 0,-5.88685 5.39076,-10.65906 12.0406,-10.65906 l 0,0 c 3.19338,0 6.25595,1.123 8.51402,3.12195 2.25804,1.99898 3.52661,4.71015 3.52661,7.53711 l 0,0 c 0,5.88684 -5.39076,10.65905 -12.04063,10.65905 l 0,0 c -6.64984,0 -12.0406,-4.77221 -12.0406,-10.65905 z"
     id="path4285"
     inkscape:connector-curvature="0"
     style="fill:#9900ff;fill-rule:nonzero" />
  <path
     d="m 191.39798,131.88599 0,0 c 0,-5.88685 5.39077,-10.65906 12.04062,-10.65906 l 0,0 c 3.19336,0 6.25594,1.123 8.51398,3.12195 2.25806,1.99898 3.52664,4.71015 3.52664,7.53711 l 0,0 c 0,5.88684 -5.39076,10.65905 -12.04062,10.65905 l 0,0 c -6.64985,0 -12.04062,-4.77221 -12.04062,-10.65905 z"
     id="path4287"
     inkscape:connector-curvature="0"
     style="fill:#9900ff;fill-rule:nonzero" />
  <path
     d="m 223.09695,131.88599 0,0 c 0,-5.88685 5.39077,-10.65906 12.04062,-10.65906 l 0,0 c 3.19339,0 6.25594,1.123 8.51399,3.12195 2.25805,1.99898 3.52663,4.71015 3.52663,7.53711 l 0,0 c 0,5.88684 -5.39077,10.65905 -12.04062,10.65905 l 0,0 c -6.64985,0 -12.04062,-4.77221 -12.04062,-10.65905 z"
     id="path4289"
     inkscape:connector-curvature="0"
     style="fill:#9900ff;fill-rule:nonzero" />
  <path
     d="m 254.79593,131.88599 0,0 c 0,-5.88685 5.39076,-10.65906 12.0406,-10.65906 l 0,0 c 3.1934,0 6.25595,1.123 8.514,3.12195 2.25806,1.99898 3.52663,4.71015 3.52663,7.53711 l 0,0 c 0,5.88684 -5.39076,10.65905 -12.04063,10.65905 l 0,0 c -6.64984,0 -12.0406,-4.77221 -12.0406,-10.65905 z"
     id="path4291"
     inkscape:connector-curvature="0"
     style="fill:#9900ff;fill-rule:nonzero" />
  <path
     d="m 605.36155,131.88599 0,0 c 0,-5.88685 5.39084,-10.65906 12.04065,-10.65906 l 0,0 c 3.19335,0 6.25598,1.123 8.514,3.12195 2.25808,1.99898 3.52659,4.71015 3.52659,7.53711 l 0,0 c 0,5.88684 -5.39077,10.65905 -12.04059,10.65905 l 0,0 c -6.64981,0 -12.04065,-4.77221 -12.04065,-10.65905 z"
     id="path4293"
     inkscape:connector-curvature="0"
     style="fill:#9900ff;fill-rule:nonzero" />
  <path
     d="m 638.95751,131.88599 0,0 c 0,-5.88685 5.39077,-10.65906 12.04057,-10.65906 l 0,0 c 3.19343,0 6.25598,1.123 8.51408,3.12195 2.25801,1.99898 3.52659,4.71015 3.52659,7.53711 l 0,0 c 0,5.88684 -5.39076,10.65905 -12.04067,10.65905 l 0,0 c -6.6498,0 -12.04057,-4.77221 -12.04057,-10.65905 z"
     id="path4295"
     inkscape:connector-curvature="0"
     style="fill:#9900ff;fill-rule:nonzero" />
  <path
     d="m 668.75949,131.88599 0,0 c 0,-5.88685 5.39084,-10.65906 12.04064,-10.65906 l 0,0 c 3.19336,0 6.25599,1.123 8.514,3.12195 2.25809,1.99898 3.52659,4.71015 3.52659,7.53711 l 0,0 c 0,5.88684 -5.39076,10.65905 -12.04059,10.65905 l 0,0 c -6.6498,0 -12.04064,-4.77221 -12.04064,-10.65905 z"
     id="path4297"
     inkscape:connector-curvature="0"
     style="fill:#9900ff;fill-rule:nonzero" />
  <path
     d="m 489.3683,131.88599 0,0 c 0,-5.88685 5.39076,-10.65906 12.04061,-10.65906 l 0,0 c 3.19339,0 6.25595,1.123 8.51399,3.12195 2.25806,1.99898 3.52663,4.71015 3.52663,7.53711 l 0,0 c 0,5.88684 -5.39076,10.65905 -12.04062,10.65905 l 0,0 c -6.64985,0 -12.04061,-4.77221 -12.04061,-10.65905 z"
     id="path4299"
     inkscape:connector-curvature="0"
     style="fill:#9900ff;fill-rule:nonzero" />
  <path
     d="m 503.30586,195.86687 0,0 c 0,-5.88685 5.39077,-10.65906 12.04062,-10.65906 l 0,0 c 3.19339,0 6.25594,1.123 8.51398,3.12195 2.25806,1.99897 3.52665,4.71014 3.52665,7.53711 l 0,0 c 0,5.88684 -5.39077,10.65905 -12.04063,10.65905 l 0,0 c -6.64985,0 -12.04062,-4.77221 -12.04062,-10.65905 z"
     id="path4301"
     inkscape:connector-curvature="0"
     style="fill:#9900ff;fill-rule:nonzero" />
  <path
     d="m 536.90174,195.86687 0,0 c 0,-5.88685 5.39084,-10.65906 12.04065,-10.65906 l 0,0 c 3.19336,0 6.25599,1.123 8.51401,3.12195 2.25807,1.99897 3.52657,4.71014 3.52657,7.53711 l 0,0 c 0,5.88684 -5.39076,10.65905 -12.04058,10.65905 l 0,0 c -6.64981,0 -12.04065,-4.77221 -12.04065,-10.65905 z"
     id="path4303"
     inkscape:connector-curvature="0"
     style="fill:#9900ff;fill-rule:nonzero" />
  <path
     d="m 120.09277,195.86687 0,0 c 0,-5.88685 5.39077,-10.65906 12.04062,-10.65906 l 0,0 c 3.19336,0 6.25594,1.123 8.51401,3.12195 2.25804,1.99897 3.52661,4.71014 3.52661,7.53711 l 0,0 c 0,5.88684 -5.39076,10.65905 -12.04062,10.65905 l 0,0 c -6.64985,0 -12.04062,-4.77221 -12.04062,-10.65905 z"
     id="path4305"
     inkscape:connector-curvature="0"
     style="fill:#9900ff;fill-rule:nonzero" />
  <path
     d="m 220.56104,195.86687 0,0 c 0,-5.88685 5.39076,-10.65906 12.04061,-10.65906 l 0,0 c 3.19339,0 6.25595,1.123 8.51399,3.12195 2.25806,1.99897 3.52663,4.71014 3.52663,7.53711 l 0,0 c 0,5.88684 -5.39076,10.65905 -12.04062,10.65905 l 0,0 c -6.64985,0 -12.04061,-4.77221 -12.04061,-10.65905 z"
     id="path4307"
     inkscape:connector-curvature="0"
     style="fill:#9900ff;fill-rule:nonzero" />
  <path
     d="m 254.15695,195.86687 0,0 c 0,-5.88685 5.39076,-10.65906 12.04061,-10.65906 l 0,0 c 3.19339,0 6.25594,1.123 8.51399,3.12195 2.25806,1.99897 3.52664,4.71014 3.52664,7.53711 l 0,0 c 0,5.88684 -5.39077,10.65905 -12.04063,10.65905 l 0,0 c -6.64985,0 -12.04061,-4.77221 -12.04061,-10.65905 z"
     id="path4309"
     inkscape:connector-curvature="0"
     style="fill:#9900ff;fill-rule:nonzero" />
  <path
     d="m 283.95897,195.86687 0,0 c 0,-5.88685 5.39077,-10.65906 12.04062,-10.65906 l 0,0 c 3.19339,0 6.25594,1.123 8.51399,3.12195 2.25805,1.99897 3.52664,4.71014 3.52664,7.53711 l 0,0 c 0,5.88684 -5.39078,10.65905 -12.04063,10.65905 l 0,0 c -6.64985,0 -12.04062,-4.77221 -12.04062,-10.65905 z"
     id="path4311"
     inkscape:connector-curvature="0"
     style="fill:#9900ff;fill-rule:nonzero" />
  <path
     d="m 592.09293,195.86687 0,0 c 0,-5.88685 5.39076,-10.65906 12.04065,-10.65906 l 0,0 c 3.19336,0 6.25591,1.123 8.514,3.12195 2.25801,1.99897 3.52658,4.71014 3.52658,7.53711 l 0,0 c 0,5.88684 -5.39076,10.65905 -12.04058,10.65905 l 0,0 c -6.64989,0 -12.04065,-4.77221 -12.04065,-10.65905 z"
     id="path4313"
     inkscape:connector-curvature="0"
     style="fill:#9900ff;fill-rule:nonzero" />
  <path
     d="m 103.90883,28.061785 0,282.206475"
     id="path4315"
     inkscape:connector-curvature="0"
     style="fill-rule:nonzero;stroke:#000000;stroke-width:1.00398374;stroke-linecap:butt;stroke-linejoin:round;stroke-dasharray:4.01593496, 3.01195122" />
  <path
     d="m 222.58943,26.948155 0,284.081655"
     id="path4317"
     inkscape:connector-curvature="0"
     style="fill-rule:nonzero;stroke:#000000;stroke-width:1.00731385;stroke-linecap:butt;stroke-linejoin:round;stroke-dasharray:4.02925534, 3.02194151" />
  <path
     d="m 341.27002,26.948155 0,282.206465"
     id="path4319"
     inkscape:connector-curvature="0"
     style="fill-rule:nonzero;stroke:#000000;stroke-width:1.00398374;stroke-linecap:butt;stroke-linejoin:round;stroke-dasharray:4.01593495, 3.01195122" />
  <path
     d="m 459.95066,26.948155 0,283.456585"
     id="path4321"
     inkscape:connector-curvature="0"
     style="fill-rule:nonzero;stroke:#000000;stroke-width:1.00620496;stroke-linecap:butt;stroke-linejoin:round;stroke-dasharray:4.02482011, 3.01861508" />
  <path
     d="m 578.6312,28.061785 0,282.831535"
     id="path4323"
     inkscape:connector-curvature="0"
     style="fill-rule:nonzero;stroke:#000000;stroke-width:1.00509501;stroke-linecap:butt;stroke-linejoin:round;stroke-dasharray:4.02038, 3.01528499" />
  <path
     d="m 695.18749,28.061785 0,280.956335"
     id="path4325"
     inkscape:connector-curvature="0"
     style="fill-rule:nonzero;stroke:#000000;stroke-width:1.0017575;stroke-linecap:butt;stroke-linejoin:round;stroke-dasharray:4.00703011, 3.00527258" />
  <path
     d="m 121.34326,0 130.58977,0 0,43.767555 -130.58977,0 z"
     id="path4327"
     inkscape:connector-curvature="0"
     style="fill:#000000;fill-opacity:0;fill-rule:nonzero" />
  <path
     d="m 135.40968,24.46988 -2.61517,-7.55915 1.50571,0 1.36701,4.367122 0.4953,1.613552 q 0.0396,-0.122776 0.45567,-1.560942 l 1.3472,-4.419732 1.4859,0 1.28776,4.384654 0.43587,1.438167 0.47548,-1.455699 1.46607,-4.367122 1.40666,0 -2.67462,7.55915 -1.48587,0 -1.36703,-4.524963 -0.33679,-1.297858 -1.72365,5.822821 -1.5255,0 z m 10.63916,-8.962233 0,-1.490784 1.44626,0 0,1.490784 -1.44626,0 z m 0,8.962233 0,-7.55915 1.44626,0 0,7.55915 -1.44626,0 z m 3.75454,0 0,-7.55915 1.30758,0 0,1.069861 q 0.93115,-1.245247 2.71422,-1.245247 0.77268,0 1.40665,0.24554 0.65379,0.245541 0.97077,0.648935 0.33681,0.38585 0.45569,0.947086 0.0793,0.350772 0.0793,1.245236 l 0,4.647739 -1.44627,0 0,-4.595118 q 0,-0.789244 -0.1783,-1.175093 -0.15849,-0.385849 -0.59436,-0.613846 -0.41606,-0.245541 -0.99059,-0.245541 -0.93116,0 -1.60477,0.526159 -0.6736,0.508614 -0.6736,1.964325 l 0,4.139114 -1.44626,0 z m 14.94602,0 0,-0.947086 q -0.81228,1.122472 -2.39722,1.122472 -1.01041,0 -1.88213,-0.491081 -0.85191,-0.508626 -1.32739,-1.40309 -0.47549,-0.894475 -0.47549,-2.052023 0,-1.140005 0.43586,-2.052013 0.43587,-0.929553 1.28777,-1.420634 0.85192,-0.491081 1.90193,-0.491081 0.77268,0 1.36703,0.298162 0.61416,0.280618 0.9906,0.736622 l 0,-3.753265 1.44625,0 0,10.453017 -1.34721,0 z m -4.57653,-3.770808 q 0,1.455711 0.67361,2.174788 0.6934,0.719089 1.64437,0.719089 0.95097,0 1.60478,-0.684011 0.6736,-0.701545 0.6736,-2.104635 0,-1.560931 -0.6736,-2.280021 -0.67361,-0.736621 -1.66421,-0.736621 -0.97078,0 -1.62457,0.701545 -0.63398,0.701545 -0.63398,2.209866 z m 7.89301,-0.01752 q 0,-2.104634 1.30758,-3.10434 1.10946,-0.841854 2.69442,-0.841854 1.76325,0 2.87272,1.01724 1.12927,1.01724 1.12927,2.823723 0,1.4557 -0.49529,2.297553 -0.4953,0.841854 -1.44627,1.315402 -0.95097,0.456004 -2.06043,0.456004 -1.80288,0 -2.91234,-1.017239 -1.08966,-1.01724 -1.08966,-2.946489 z m 1.4859,0 q 0,1.4557 0.71322,2.192322 0.71323,0.719089 1.80288,0.719089 1.06983,0 1.78307,-0.719089 0.73304,-0.736622 0.73304,-2.227399 0,-1.40309 -0.73304,-2.122178 -0.71324,-0.736622 -1.78307,-0.736622 -1.08965,0 -1.80288,0.719089 -0.71322,0.719078 -0.71322,2.174788 z m 10.01287,3.788342 -2.61516,-7.55915 1.5057,0 1.36703,4.367122 0.49528,1.613552 q 0.0396,-0.122776 0.45569,-1.560942 l 1.3472,-4.419732 1.48589,0 1.28778,4.384655 0.43585,1.438166 0.47549,-1.455699 1.46608,-4.367122 1.40663,0 -2.67459,7.55915 -1.4859,0 -1.36701,-4.524964 -0.33681,-1.297857 -1.72362,5.822821 -1.52553,0 z m 20.38643,0 -1.44626,0 0,-8.172996 q -0.53493,0.43846 -1.38684,0.894464 -0.83209,0.438471 -1.5057,0.648935 l 0,-1.245248 q 1.20852,-0.491082 2.11987,-1.210159 0.91135,-0.719084 1.28777,-1.40309 l 0.93116,0 0,10.488094 z"
     id="path4329"
     inkscape:connector-curvature="0"
     style="fill:#000000;fill-rule:nonzero" />
  <path
     d="m 238.28208,0 130.58978,0 0,43.767555 -130.58978,0 z"
     id="path4331"
     inkscape:connector-curvature="0"
     style="fill:#000000;fill-opacity:0;fill-rule:nonzero" />
  <path
     d="m 252.34851,24.46988 -2.61517,-7.55915 1.5057,0 1.36702,4.367122 0.4953,1.613552 q 0.0396,-0.122776 0.45566,-1.560942 l 1.34721,-4.419732 1.4859,0 1.28777,4.384654 0.43585,1.438167 0.47549,-1.455699 1.46608,-4.367122 1.40664,0 -2.6746,7.55915 -1.48589,0 -1.36702,-4.524963 -0.3368,-1.297858 -1.72363,5.822821 -1.52551,0 z m 10.63916,-8.962233 0,-1.490784 1.44627,0 0,1.490784 -1.44627,0 z m 0,8.962233 0,-7.55915 1.44627,0 0,7.55915 -1.44627,0 z m 3.75455,0 0,-7.55915 1.30758,0 0,1.069861 q 0.93115,-1.245247 2.71421,-1.245247 0.77267,0 1.40665,0.24554 0.65378,0.245541 0.97078,0.648935 0.33681,0.38585 0.45567,0.947086 0.0793,0.350772 0.0793,1.245236 l 0,4.647739 -1.44628,0 0,-4.595118 q 0,-0.789244 -0.1783,-1.175093 -0.1585,-0.385849 -0.59436,-0.613846 -0.41605,-0.245541 -0.99059,-0.245541 -0.93116,0 -1.60476,0.526159 -0.67361,0.508614 -0.67361,1.964325 l 0,4.139114 -1.44625,0 z m 14.94602,0 0,-0.947086 q -0.81228,1.122472 -2.39723,1.122472 -1.01041,0 -1.88213,-0.491081 -0.8519,-0.508626 -1.32739,-1.40309 -0.47548,-0.894475 -0.47548,-2.052023 0,-1.140005 0.43586,-2.052013 0.43585,-0.929553 1.28776,-1.420634 0.85191,-0.491081 1.90194,-0.491081 0.77266,0 1.36702,0.298162 0.61416,0.280618 0.99059,0.736622 l 0,-3.753265 1.44627,0 0,10.453017 -1.34721,0 z m -4.57653,-3.770808 q 0,1.455711 0.6736,2.174788 0.69341,0.719089 1.64438,0.719089 0.95097,0 1.60476,-0.684011 0.6736,-0.701545 0.6736,-2.104635 0,-1.560931 -0.6736,-2.280021 -0.6736,-0.736621 -1.66419,-0.736621 -0.97079,0 -1.62457,0.701545 -0.63398,0.701545 -0.63398,2.209866 z m 7.893,-0.01752 q 0,-2.104634 1.30759,-3.10434 1.10946,-0.841854 2.6944,-0.841854 1.76327,0 2.87273,1.01724 1.12927,1.01724 1.12927,2.823723 0,1.4557 -0.49529,2.297553 -0.49531,0.841854 -1.44627,1.315402 -0.95097,0.456004 -2.06044,0.456004 -1.80286,0 -2.91233,-1.017239 -1.08966,-1.01724 -1.08966,-2.946489 z m 1.4859,0 q 0,1.4557 0.71323,2.192322 0.71322,0.719089 1.80286,0.719089 1.06985,0 1.78307,-0.719089 0.73305,-0.736622 0.73305,-2.227399 0,-1.40309 -0.73305,-2.122178 -0.71322,-0.736622 -1.78307,-0.736622 -1.08964,0 -1.80286,0.719089 -0.71323,0.719078 -0.71323,2.174788 z m 10.01288,3.788342 -2.61517,-7.55915 1.50571,0 1.36702,4.367122 0.49529,1.613552 q 0.0396,-0.122776 0.45568,-1.560942 l 1.3472,-4.419732 1.48588,0 1.28778,4.384655 0.43587,1.438166 0.47548,-1.455699 1.46607,-4.367122 1.40664,0 -2.6746,7.55915 -1.48589,0 -1.36701,-4.524964 -0.3368,-1.297857 -1.72364,5.822821 -1.52551,0 z m 22.54593,-1.227703 0,1.227703 -7.80588,0 q -0.0198,-0.456004 0.17832,-0.894475 0.29717,-0.701545 0.95097,-1.385546 0.65379,-0.684011 1.90194,-1.578475 1.92174,-1.403089 2.59534,-2.209866 0.67361,-0.82432 0.67361,-1.543398 0,-0.771699 -0.61416,-1.280319 -0.61418,-0.526159 -1.60478,-0.526159 -1.05001,0 -1.68399,0.561236 -0.61417,0.543697 -0.63399,1.52586 l -1.48589,-0.140309 q 0.1585,-1.473244 1.14909,-2.244943 0.99059,-0.7717 2.67461,-0.7717 1.70382,0 2.69441,0.841854 0.99059,0.824316 0.99059,2.052013 0,0.63139 -0.29719,1.245247 -0.27736,0.596314 -0.95097,1.280314 -0.67359,0.666467 -2.23872,1.824016 -1.30759,0.964629 -1.68402,1.315402 -0.35661,0.350772 -0.59436,0.701545 l 5.78507,0 z"
     id="path4333"
     inkscape:connector-curvature="0"
     style="fill:#000000;fill-rule:nonzero" />
  <path
     d="m 357.28633,0 130.58977,0 0,43.767555 -130.58977,0 z"
     id="path4335"
     inkscape:connector-curvature="0"
     style="fill:#000000;fill-opacity:0;fill-rule:nonzero" />
  <path
     d="m 371.35274,24.46988 -2.61516,-7.55915 1.5057,0 1.36702,4.367122 0.49529,1.613552 q 0.0396,-0.122776 0.45568,-1.560942 l 1.34721,-4.419732 1.48588,0 1.28778,4.384654 0.43586,1.438167 0.47548,-1.455699 1.46608,-4.367122 1.40663,0 -2.67459,7.55915 -1.4859,0 -1.36701,-4.524963 -0.33681,-1.297858 -1.72362,5.822821 -1.52552,0 z m 10.63916,-8.962233 0,-1.490784 1.44627,0 0,1.490784 -1.44627,0 z m 0,8.962233 0,-7.55915 1.44627,0 0,7.55915 -1.44627,0 z m 3.75455,0 0,-7.55915 1.30758,0 0,1.069861 q 0.93115,-1.245247 2.71422,-1.245247 0.77266,0 1.40665,0.24554 0.65378,0.245541 0.97077,0.648935 0.33681,0.38585 0.45567,0.947086 0.0793,0.350772 0.0793,1.245236 l 0,4.647739 -1.44628,0 0,-4.595118 q 0,-0.789244 -0.1783,-1.175093 -0.1585,-0.385849 -0.59435,-0.613846 -0.41606,-0.245541 -0.9906,-0.245541 -0.93116,0 -1.60476,0.526159 -0.67361,0.508614 -0.67361,1.964325 l 0,4.139114 -1.44625,0 z m 14.94602,0 0,-0.947086 q -0.81228,1.122472 -2.39722,1.122472 -1.01042,0 -1.88214,-0.491081 -0.8519,-0.508626 -1.32738,-1.40309 -0.47549,-0.894475 -0.47549,-2.052023 0,-1.140005 0.43586,-2.052013 0.43586,-0.929553 1.28776,-1.420634 0.85191,-0.491081 1.90194,-0.491081 0.77267,0 1.36703,0.298162 0.61416,0.280618 0.99059,0.736622 l 0,-3.753265 1.44626,0 0,10.453017 -1.34721,0 z m -4.57653,-3.770808 q 0,1.455711 0.67361,2.174788 0.6934,0.719089 1.64437,0.719089 0.95097,0 1.60476,-0.684011 0.67361,-0.701545 0.67361,-2.104635 0,-1.560931 -0.67361,-2.280021 -0.67359,-0.736621 -1.66419,-0.736621 -0.97078,0 -1.62457,0.701545 -0.63398,0.701545 -0.63398,2.209866 z m 7.893,-0.01752 q 0,-2.104634 1.30759,-3.10434 1.10946,-0.841854 2.69441,-0.841854 1.76326,0 2.87272,1.01724 1.12927,1.01724 1.12927,2.823723 0,1.4557 -0.49528,2.297553 -0.49531,0.841854 -1.44628,1.315402 -0.95097,0.456004 -2.06043,0.456004 -1.80287,0 -2.91234,-1.017239 -1.08966,-1.01724 -1.08966,-2.946489 z m 1.4859,0 q 0,1.4557 0.71323,2.192322 0.71322,0.719089 1.80287,0.719089 1.06984,0 1.78306,-0.719089 0.73305,-0.736622 0.73305,-2.227399 0,-1.40309 -0.73305,-2.122178 -0.71322,-0.736622 -1.78306,-0.736622 -1.08965,0 -1.80287,0.719089 -0.71323,0.719078 -0.71323,2.174788 z m 10.01288,3.788342 -2.61516,-7.55915 1.5057,0 1.36702,4.367122 0.49529,1.613552 q 0.0396,-0.122776 0.45568,-1.560942 l 1.34721,-4.419732 1.48588,0 1.28777,4.384655 0.43587,1.438166 0.47548,-1.455699 1.46608,-4.367122 1.40664,0 -2.6746,7.55915 -1.48589,0 -1.36701,-4.524964 -0.33681,-1.297857 -1.72363,5.822821 -1.52552,0 z m 14.93817,-2.753569 1.44628,-0.175385 q 0.25754,1.087393 0.8519,1.578475 0.59436,0.473548 1.46608,0.473548 1.01041,0 1.70382,-0.613857 0.71323,-0.63139 0.71323,-1.560931 0,-0.894476 -0.65378,-1.455711 -0.63399,-0.578769 -1.6444,-0.578769 -0.41604,0 -1.03022,0.140309 l 0.1585,-1.122472 q 0.1585,0.01751 0.23774,0.01751 0.93117,0 1.6642,-0.420926 0.75285,-0.43846 0.75285,-1.332936 0,-0.701544 -0.55474,-1.157542 -0.5349,-0.473544 -1.38682,-0.473544 -0.8519,0 -1.40664,0.473544 -0.55473,0.473542 -0.73304,1.403083 l -1.44627,-0.227996 q 0.27737,-1.280319 1.20852,-1.981864 0.95097,-0.719083 2.33781,-0.719083 0.97078,0 1.78306,0.36831 0.8123,0.368311 1.24815,0.999702 0.43586,0.63139 0.43586,1.350468 0,0.666467 -0.41605,1.227703 -0.41605,0.561236 -1.20851,0.876931 1.03021,0.228008 1.60474,0.894475 0.59436,0.666468 0.59436,1.683707 0,1.368013 -1.12927,2.332631 -1.12928,0.947085 -2.85291,0.947085 -1.54532,0 -2.57553,-0.824309 -1.03023,-0.824321 -1.16892,-2.122178 z"
     id="path4337"
     inkscape:connector-curvature="0"
     style="fill:#000000;fill-rule:nonzero" />
  <path
     d="m 477.38677,0 130.58978,0 0,43.767555 -130.58978,0 z"
     id="path4339"
     inkscape:connector-curvature="0"
     style="fill:#000000;fill-opacity:0;fill-rule:nonzero" />
  <path
     d="m 491.4532,24.46988 -2.61516,-7.55915 1.5057,0 1.36701,4.367122 0.4953,1.613552 q 0.0396,-0.122776 0.45567,-1.560942 l 1.34721,-4.419732 1.48589,0 1.28777,4.384654 0.43586,1.438167 0.47548,-1.455699 1.46608,-4.367122 1.40664,0 -2.6746,7.55915 -1.48588,0 -1.36703,-4.524963 -0.33679,-1.297858 -1.72364,5.822821 -1.52551,0 z m 10.63916,-8.962233 0,-1.490784 1.44627,0 0,1.490784 -1.44627,0 z m 0,8.962233 0,-7.55915 1.44627,0 0,7.55915 -1.44627,0 z m 3.75455,0 0,-7.55915 1.30758,0 0,1.069861 q 0.93115,-1.245247 2.71422,-1.245247 0.77266,0 1.40664,0.24554 0.65379,0.245541 0.97078,0.648935 0.33681,0.38585 0.45567,0.947086 0.0793,0.350772 0.0793,1.245236 l 0,4.647739 -1.44628,0 0,-4.595118 q 0,-0.789244 -0.17829,-1.175093 -0.15851,-0.385849 -0.59436,-0.613846 -0.41606,-0.245541 -0.9906,-0.245541 -0.93116,0 -1.60476,0.526159 -0.6736,0.508614 -0.6736,1.964325 l 0,4.139114 -1.44626,0 z m 14.94602,0 0,-0.947086 q -0.81228,1.122472 -2.39722,1.122472 -1.01042,0 -1.88214,-0.491081 -0.8519,-0.508626 -1.32738,-1.40309 -0.47549,-0.894475 -0.47549,-2.052023 0,-1.140005 0.43586,-2.052013 0.43586,-0.929553 1.28776,-1.420634 0.85192,-0.491081 1.90194,-0.491081 0.77267,0 1.36703,0.298162 0.61416,0.280618 0.99058,0.736622 l 0,-3.753265 1.44627,0 0,10.453017 -1.34721,0 z m -4.57653,-3.770808 q 0,1.455711 0.67361,2.174788 0.6934,0.719089 1.64437,0.719089 0.95097,0 1.60476,-0.684011 0.67361,-0.701545 0.67361,-2.104635 0,-1.560931 -0.67361,-2.280021 -0.6736,-0.736621 -1.66419,-0.736621 -0.97078,0 -1.62457,0.701545 -0.63398,0.701545 -0.63398,2.209866 z m 7.893,-0.01752 q 0,-2.104634 1.30759,-3.10434 1.10946,-0.841854 2.69441,-0.841854 1.76326,0 2.87272,1.01724 1.12928,1.01724 1.12928,2.823723 0,1.4557 -0.49529,2.297553 -0.49531,0.841854 -1.44628,1.315402 -0.95097,0.456004 -2.06043,0.456004 -1.80287,0 -2.91234,-1.017239 -1.08966,-1.01724 -1.08966,-2.946489 z m 1.4859,0 q 0,1.4557 0.71323,2.192322 0.71322,0.719089 1.80287,0.719089 1.06984,0 1.78306,-0.719089 0.73305,-0.736622 0.73305,-2.227399 0,-1.40309 -0.73305,-2.122178 -0.71322,-0.736622 -1.78306,-0.736622 -1.08965,0 -1.80287,0.719089 -0.71323,0.719078 -0.71323,2.174788 z m 10.01288,3.788342 -2.61517,-7.55915 1.50571,0 1.36702,4.367122 0.49529,1.613552 q 0.0396,-0.122776 0.45568,-1.560942 l 1.3472,-4.419732 1.48589,0 1.28777,4.384655 0.43587,1.438166 0.47549,-1.455699 1.46607,-4.367122 1.40664,0 -2.6746,7.55915 -1.48589,0 -1.36701,-4.524964 -0.33681,-1.297857 -1.72363,5.822821 -1.52552,0 z m 19.57411,0 0,-2.508028 -5.11146,0 0,-1.175082 5.36902,-6.769906 1.18872,0 0,6.769906 1.60475,0 0,1.175082 -1.60475,0 0,2.508028 -1.44628,0 z m 0,-3.68311 0,-4.700349 -3.70481,4.700349 3.70481,0 z"
     id="path4341"
     inkscape:connector-curvature="0"
     style="fill:#000000;fill-rule:nonzero" />
  <path
     d="m 608.58419,24.46988 -2.61516,-7.55915 1.5057,0 1.36701,4.367122 0.4953,1.613552 q 0.0396,-0.122776 0.45567,-1.560942 l 1.34721,-4.419732 1.48589,0 1.28776,4.384654 0.43587,1.438167 0.47548,-1.455699 1.46607,-4.367122 1.40666,0 -2.67461,7.55915 -1.48588,0 -1.36703,-4.524963 -0.33679,-1.297858 -1.72365,5.822821 -1.5255,0 z m 10.63913,-8.962233 0,-1.490784 1.44625,0 0,1.490784 -1.44625,0 z m 0,8.962233 0,-7.55915 1.44625,0 0,7.55915 -1.44625,0 z m 3.75457,0 0,-7.55915 1.30759,0 0,1.069861 q 0.93115,-1.245247 2.71421,-1.245247 0.77268,0 1.40665,0.24554 0.65379,0.245541 0.97077,0.648935 0.33681,0.38585 0.45569,0.947086 0.0793,0.350772 0.0793,1.245236 l 0,4.647739 -1.44627,0 0,-4.595118 q 0,-0.789244 -0.1783,-1.175093 -0.15849,-0.385849 -0.59435,-0.613846 -0.41606,-0.245541 -0.9906,-0.245541 -0.93116,0 -1.60477,0.526159 -0.67359,0.508614 -0.67359,1.964325 l 0,4.139114 -1.44627,0 z m 14.94603,0 0,-0.947086 q -0.81228,1.122472 -2.39723,1.122472 -1.0104,0 -1.88213,-0.491081 -0.85191,-0.508626 -1.32739,-1.40309 -0.47549,-0.894475 -0.47549,-2.052023 0,-1.140005 0.43587,-2.052013 0.43586,-0.929553 1.28777,-1.420634 0.85191,-0.491081 1.90193,-0.491081 0.77267,0 1.36703,0.298162 0.61416,0.280618 0.99059,0.736622 l 0,-3.753265 1.44625,0 0,10.453017 -1.3472,0 z m -4.57654,-3.770808 q 0,1.455711 0.67361,2.174788 0.69341,0.719089 1.64437,0.719089 0.95097,0 1.60478,-0.684011 0.6736,-0.701545 0.6736,-2.104635 0,-1.560931 -0.6736,-2.280021 -0.67361,-0.736621 -1.6642,-0.736621 -0.97079,0 -1.62457,0.701545 -0.63399,0.701545 -0.63399,2.209866 z m 7.89301,-0.01752 q 0,-2.104634 1.30758,-3.10434 1.10947,-0.841854 2.69442,-0.841854 1.76326,0 2.87272,1.01724 1.12928,1.01724 1.12928,2.823723 0,1.4557 -0.4953,2.297553 -0.4953,0.841854 -1.44627,1.315402 -0.95097,0.456004 -2.06043,0.456004 -1.80288,0 -2.91234,-1.017239 -1.08966,-1.01724 -1.08966,-2.946489 z m 1.4859,0 q 0,1.4557 0.71322,2.192322 0.71324,0.719089 1.80288,0.719089 1.06983,0 1.78307,-0.719089 0.73304,-0.736622 0.73304,-2.227399 0,-1.40309 -0.73304,-2.122178 -0.71324,-0.736622 -1.78307,-0.736622 -1.08964,0 -1.80288,0.719089 -0.71322,0.719078 -0.71322,2.174788 z m 10.01288,3.788342 -2.61517,-7.55915 1.5057,0 1.36701,4.367122 0.49531,1.613552 q 0.0396,-0.122776 0.45566,-1.560942 l 1.34721,-4.419732 1.4859,0 1.28776,4.384655 0.43586,1.438166 0.47549,-1.455699 1.46608,-4.367122 1.40664,0 -2.67461,7.55915 -1.48588,0 -1.36702,-4.524964 -0.3368,-1.297857 -1.72363,5.822821 -1.52551,0 z m 14.93814,-2.736024 1.5057,-0.122776 q 0.1783,0.999707 0.79248,1.490788 0.61416,0.491081 1.48588,0.491081 1.05003,0 1.76326,-0.701545 0.73303,-0.701545 0.73303,-1.84156 0,-1.104928 -0.69341,-1.736318 -0.69342,-0.63139 -1.82269,-0.63139 -0.71322,0 -1.28778,0.280618 -0.55473,0.280617 -0.87171,0.719077 l -1.34721,-0.157841 1.12927,-5.349279 5.86432,0 0,1.210165 -4.69541,0 -0.63399,2.806179 q 1.05004,-0.648935 2.21893,-0.648935 1.54533,0 2.59536,0.947085 1.06984,0.947086 1.06984,2.437875 0,1.420622 -0.93116,2.455406 -1.12928,1.26278 -3.09065,1.26278 -1.60476,0 -2.63497,-0.789243 -1.01042,-0.806776 -1.14909,-2.122167 z"
     id="path4343"
     inkscape:connector-curvature="0"
     style="fill:#000000;fill-rule:nonzero" />
  <path
     d="m 236.28407,274.20732 91.29303,0"
     id="path4345"
     inkscape:connector-curvature="0"
     style="fill:#000000;fill-opacity:0;fill-rule:nonzero" />
  <path
     d="m 240.62944,274.20732 82.60223,0"
     id="path4347"
     inkscape:connector-curvature="0"
     style="fill-rule:evenodd;stroke:#000000;stroke-width:1.19299948;stroke-linecap:butt;stroke-linejoin:round" />
  <path
     d="m 240.62947,274.20732 1.42591,-1.26233 -3.9177,1.26233 3.9177,1.2623 z"
     id="path4349"
     inkscape:connector-curvature="0"
     style="fill:#000000;fill-rule:evenodd;stroke:#000000;stroke-width:1.19299948;stroke-linecap:butt" />
  <path
     d="m 323.23169,274.20732 -1.4259,1.2623 3.91767,-1.2623 -3.91767,-1.26233 z"
     id="path4351"
     inkscape:connector-curvature="0"
     style="fill:#000000;fill-rule:evenodd;stroke:#000000;stroke-width:1.19299948;stroke-linecap:butt" />
  <path
     d="m 108.97068,250.60101 225.71664,0"
     id="path4359"
     inkscape:connector-curvature="0"
     style="fill:#000000;fill-opacity:0;fill-rule:nonzero" />
  <path
     d="m 298.64571,341.03611 -1.15813,-99.62596"
     id="path4367"
     inkscape:connector-curvature="0"
     style="fill:#000000;fill-opacity:0;fill-rule:nonzero" />
  <path
     d="m 298.64218,322.89657 -1.07274,-30.98479"
     id="path4369"
     inkscape:connector-curvature="0"
     style="fill-rule:evenodd;stroke:#000000;stroke-width:0.68675512;stroke-linecap:butt;stroke-linejoin:round" />
  <path
     d="m 299.66011,291.58763 -2.15345,-5.07452 -2.03502,5.11268 z"
     id="path4371"
     inkscape:connector-curvature="0"
     style="fill:#000000;fill-rule:evenodd;stroke:#000000;stroke-width:1.19299948;stroke-linecap:butt" />
  <path
     d="m 106.44474,49.388745 234.82197,0 0,170.615675 -234.82197,0 z"
     id="path4377"
     inkscape:connector-curvature="0"
     style="fill:#000000;fill-opacity:0;fill-rule:nonzero" />
  <path
     d="m 220.30478,53.033095 240.93214,0 0,163.332895 -240.93214,0 z"
     id="path4379"
     inkscape:connector-curvature="0"
     style="fill:#000000;fill-opacity:0;fill-rule:nonzero" />
  <path
     d="m 344.36174,49.385805 234.822,0 0,170.615675 -234.822,0 z"
     id="path4385"
     inkscape:connector-curvature="0"
     style="fill:#000000;fill-opacity:0;fill-rule:nonzero" />
  <path
     d="m 465.18389,53.033095 228.67185,0 0,163.332895 -228.67185,0 z"
     id="path4387"
     inkscape:connector-curvature="0"
     style="fill:#000000;fill-opacity:0;fill-rule:nonzero" />
  <text
     xml:space="preserve"
     style="font-style:normal;font-weight:normal;font-size:40px;line-height:125%;font-family:sans-serif;letter-spacing:0px;word-spacing:0px;fill:#000000;fill-opacity:1;stroke:none;stroke-width:1px;stroke-linecap:butt;stroke-linejoin:miter;stroke-opacity:1"
     x="241.25366"
     y="337.75195"
     id="text3529"
     sodipodi:linespacing="125%"><tspan
       sodipodi:role="line"
       id="tspan3531"
       x="241.25366"
       y="337.75195"
       style="font-style:normal;font-variant:normal;font-weight:normal;font-stretch:normal;font-size:20px;line-height:125%;font-family:sans-serif;-inkscape-font-specification:'sans-serif, Normal';text-align:start;writing-mode:lr-tb;text-anchor:start">window size</tspan></text>
</svg>
