<?xml version="1.0" standalone="no"?>
<!DOCTYPE svg PUBLIC "-//W3C//DTD SVG 20010904//EN"
 "http://www.w3.org/TR/2001/REC-SVG-20010904/DTD/svg10.dtd">
<svg version="1.0" xmlns="http://www.w3.org/2000/svg"
 width="100.000000pt" height="100.000000pt" viewBox="0 0 100.000000 100.000000"
 preserveAspectRatio="xMidYMid meet">
<metadata>
Created by potrace 1.11, written by Peter Selinger 2001-2013
</metadata>
<g transform="translate(0.000000,100.000000) scale(0.100000,-0.100000)"
fill="#000000" stroke="none">
<path d="M460 985 c11 -13 8 -15 -22 -15 -33 0 -128 -50 -128 -67 0 -5 14 -16
30 -25 67 -38 67 -152 1 -212 -28 -25 -35 -16 -16 20 30 58 14 57 -41 -1 -62
-66 -93 -123 -94 -171 l0 -32 78 20 c87 22 147 56 165 95 l12 27 6 -30 6 -29
21 45 22 45 0 -40 1 -40 24 29 c49 60 41 107 -26 156 -23 16 -37 30 -30 30 19
0 53 -20 84 -48 29 -28 36 -76 17 -113 -13 -23 -6 -24 30 -3 57 34 78 114 43
164 -10 14 -17 27 -15 30 1 3 -24 7 -55 10 l-58 6 50 4 c28 3 50 9 50 14 0 20
-98 60 -157 64 -39 3 -55 8 -47 13 23 15 88 10 158 -11 57 -18 70 -26 85 -55
15 -27 22 -32 33 -24 13 11 17 1 16 -38 -1 -7 3 -13 7 -13 12 0 19 113 8 133
-5 10 -12 16 -15 14 -2 -3 -13 3 -24 14 -13 13 -28 18 -48 14 -19 -3 -31 0
-34 9 -6 15 -67 28 -67 14 0 -5 -9 -4 -19 2 -11 5 -30 10 -42 10 -18 0 -19 -2
-9 -15z"/>
<path d="M751 899 c-13 -38 -15 -102 -2 -79 9 16 23 110 17 110 -2 0 -9 -14
-15 -31z"/>
<path d="M760 800 c-16 -40 -40 -59 -40 -34 0 16 -2 17 -10 4 -5 -8 -10 -21
-10 -28 0 -16 68 11 90 35 14 15 13 16 -2 4 -16 -12 -17 -11 -12 18 8 39 0 40
-16 1z"/>
<path d="M777 724 c-33 -26 -51 -34 -56 -26 -4 8 -16 4 -36 -13 -50 -39 -20
-40 52 -1 l68 37 -40 -37 c-39 -35 -39 -36 -8 -20 34 17 77 70 71 87 -2 5 -25
-7 -51 -27z"/>
<path d="M193 665 c-17 -7 -37 -23 -43 -34 -6 -12 -15 -19 -20 -16 -16 10 -23
-101 -9 -142 l14 -38 5 70 c3 39 11 79 17 90 10 16 11 8 7 -40 l-4 -60 18 60
c10 33 26 75 35 93 10 17 16 32 15 32 -2 -1 -17 -7 -35 -15z"/>
<path d="M748 634 c-15 -8 -50 -19 -78 -24 -28 -5 -65 -21 -83 -34 -44 -33
-68 -42 -208 -70 -154 -31 -219 -62 -253 -121 -26 -44 -35 -108 -16 -120 6 -3
10 0 10 8 0 7 13 26 29 42 24 22 52 33 138 51 133 30 152 44 58 44 -54 0 -83
-6 -124 -25 -62 -29 -78 -27 -28 4 61 37 116 51 206 51 100 0 163 9 155 21 -3
5 11 9 31 9 65 0 140 52 177 123 24 48 20 59 -14 41z"/>
<path d="M820 632 c0 -4 7 -30 16 -56 13 -37 14 -50 4 -59 -9 -9 -11 -7 -9 8
2 11 -3 38 -10 59 l-14 39 -14 -27 c-9 -16 -12 -39 -9 -54 5 -20 4 -23 -3 -12
-9 12 -16 9 -48 -21 -48 -46 -78 -61 -178 -88 -157 -43 -220 -104 -220 -217 0
-43 -3 -57 -9 -46 -5 9 -9 42 -9 75 l1 58 -32 -6 c-17 -4 -43 -13 -58 -20 -21
-10 -25 -10 -22 0 6 16 38 31 90 45 48 12 68 40 29 40 -13 0 -48 -5 -77 -11
-59 -13 -118 -62 -118 -98 0 -51 53 -113 128 -151 24 -12 42 -24 39 -26 -8 -9
-78 25 -148 71 -73 48 -97 72 -60 60 l22 -7 -21 39 c-82 146 -89 158 -90 135
0 -12 7 -39 15 -59 18 -42 18 -46 4 -37 -16 9 -3 -30 29 -89 33 -61 89 -112
161 -146 55 -26 59 -26 316 -29 148 -1 266 1 274 7 8 5 11 16 7 26 -5 14 -14
16 -51 11 -52 -8 -57 1 -15 32 40 30 39 57 -4 77 -26 13 -40 30 -59 75 -29 66
-54 87 -118 99 -41 7 -42 8 -17 15 61 17 128 -29 148 -104 15 -56 42 -75 107
-75 48 0 58 4 79 28 19 22 31 28 56 25 29 -3 33 0 35 24 2 35 -17 45 -84 42
-29 -2 -53 1 -53 4 0 4 21 14 48 21 59 16 112 40 112 49 0 5 -6 14 -12 21 -11
12 -10 13 6 7 15 -5 17 -3 11 11 -4 10 -11 33 -15 52 -15 63 -72 120 -90 91
-7 -11 -10 -6 -10 21 0 22 -7 42 -17 51 -27 22 -43 30 -43 20z m118 -174 c7
-7 12 -22 12 -35 0 -19 -5 -23 -28 -23 -28 0 -52 16 -52 34 0 5 8 2 18 -7 10
-10 27 -17 38 -16 14 1 13 3 -6 8 -31 8 -42 51 -13 51 11 0 24 -5 31 -12z
m-197 -135 c13 -16 12 -17 -3 -4 -10 7 -18 15 -18 17 0 8 8 3 21 -13z"/>
<path d="M900 450 c0 -5 5 -10 10 -10 6 0 10 5 10 10 0 6 -4 10 -10 10 -5 0
-10 -4 -10 -10z"/>
<path d="M52 530 c-17 -30 -32 -59 -32 -63 0 -4 12 -31 27 -60 l28 -52 3 33
c2 24 7 32 17 28 21 -8 28 10 13 36 -7 13 -15 48 -18 78 l-5 55 -33 -55z"/>
<path d="M25 378 c11 -36 48 -93 53 -80 3 11 -45 102 -55 102 -2 0 -1 -10 2
-22z"/>
<path d="M887 175 c-16 -14 -27 -33 -25 -43 4 -20 72 -45 100 -36 23 7 41 50
33 81 -8 33 -70 32 -108 -2z"/>
<path d="M840 87 c0 -8 9 -22 20 -32 11 -10 20 -24 20 -31 0 -14 38 -30 48
-20 3 3 -3 13 -14 21 -18 14 -17 14 12 15 17 0 37 7 44 15 11 13 6 15 -37 15
-28 0 -58 7 -71 16 -18 12 -22 13 -22 1z"/>
</g>
</svg>
