<?xml version="1.0" encoding="UTF-8" standalone="yes"?><!--
Licensed to the Apache Software Foundation (ASF) under one
or more contributor license agreements.  See the NOTICE file
distributed with this work for additional information
regarding copyright ownership.  The ASF licenses this file
to you under the Apache License, Version 2.0 (the
"License"); you may not use this file except in compliance
with the License.  You may obtain a copy of the License at

  http://www.apache.org/licenses/LICENSE-2.0

Unless required by applicable law or agreed to in writing,
software distributed under the License is distributed on an
"AS IS" BASIS, WITHOUT WARRANTIES OR CONDITIONS OF ANY
KIND, either express or implied.  See the License for the
specific language governing permissions and limitations
under the License.
--><svg xmlns:dc="http://purl.org/dc/elements/1.1/" xmlns:cc="http://creativecommons.org/ns#" xmlns:rdf="http://www.w3.org/1999/02/22-rdf-syntax-ns#" xmlns:svg="http://www.w3.org/2000/svg" xmlns="http://www.w3.org/2000/svg" version="1.1" width="444.25604" height="209.83659" id="svg2" style="zoom: 1;"><defs id="defs4"></defs><metadata id="metadata7"><rdf:RDF><cc:Work rdf:about=""><dc:format>image/svg+xml</dc:format><dc:type rdf:resource="http://purl.org/dc/dcmitype/StillImage"></dc:type><dc:title></dc:title></cc:Work></rdf:RDF></metadata><g transform="translate(-152.87198,-427.44388)" id="layer1"><g transform="translate(113.23391,306.36012)" id="g2989"><path d="m 190.5756,167.00098 38.65338,0 c 5.33571,0 9.66804,3.98537 9.66804,8.90847 0,4.9231 -4.33233,8.90847 -9.66804,8.90847 l -38.65338,0 c -5.3357,0 -9.66803,-3.98537 -9.66803,-8.90847 0,-4.9231 4.33233,-8.90847 9.66803,-8.90847 z" id="path2991" style="fill:#ffd966;fill-opacity:1;fill-rule:evenodd;stroke:none"></path><path d="m 229.22898,184.81792 c -5.3357,0 -9.65865,-3.98537 -9.65865,-8.90847 0,-4.9231 4.32295,-8.90847 9.65865,-8.90847" id="path2993" style="fill:none;stroke:#000000;stroke-width:0.62828153px;stroke-linecap:butt;stroke-linejoin:miter;stroke-miterlimit:4;stroke-opacity:1;stroke-dasharray:none"></path><path d="m 190.5756,167.00098 38.65338,0 c 5.33571,0 9.66804,3.98537 9.66804,8.90847 0,4.9231 -4.33233,8.90847 -9.66804,8.90847 l -38.65338,0 c -5.3357,0 -9.66803,-3.98537 -9.66803,-8.90847 0,-4.9231 4.33233,-8.90847 9.66803,-8.90847 z" id="path2995" style="fill:none;stroke:#000000;stroke-width:0.62828153px;stroke-linecap:butt;stroke-linejoin:miter;stroke-miterlimit:4;stroke-opacity:1;stroke-dasharray:none"></path><path d="m 190.5756,239.67533 38.65338,0 c 5.33571,0 9.66804,3.95724 9.66804,8.83345 0,4.87622 -4.33233,8.82408 -9.66804,8.82408 l -38.65338,0 c -5.3357,0 -9.66803,-3.94786 -9.66803,-8.82408 0,-4.87621 4.33233,-8.83345 9.66803,-8.83345 z" id="path2997" style="fill:#ffd966;fill-opacity:1;fill-rule:evenodd;stroke:none"></path><path d="m 229.22898,257.33286 c -5.3357,0 -9.65865,-3.94786 -9.65865,-8.82408 0,-4.87621 4.32295,-8.83345 9.65865,-8.83345" id="path2999" style="fill:none;stroke:#000000;stroke-width:0.62828153px;stroke-linecap:butt;stroke-linejoin:miter;stroke-miterlimit:4;stroke-opacity:1;stroke-dasharray:none"></path><path d="m 190.5756,239.67533 38.65338,0 c 5.33571,0 9.66804,3.95724 9.66804,8.83345 0,4.87622 -4.33233,8.82408 -9.66804,8.82408 l -38.65338,0 c -5.3357,0 -9.66803,-3.94786 -9.66803,-8.82408 0,-4.87621 4.33233,-8.83345 9.66803,-8.83345 z" id="path3001" style="fill:none;stroke:#000000;stroke-width:0.62828153px;stroke-linecap:butt;stroke-linejoin:miter;stroke-miterlimit:4;stroke-opacity:1;stroke-dasharray:none"></path><path d="m 80.570072,234.04893 c 0,-1.98799 1.575392,-3.59152 3.516501,-3.59152 1.950486,0 3.516501,1.60353 3.516501,3.59152 0,1.988 -1.566015,3.59152 -3.516501,3.59152 -1.941109,0 -3.516501,-1.60352 -3.516501,-3.59152" id="path3003" style="fill:#000000;fill-opacity:1;fill-rule:evenodd;stroke:none"></path><path d="m 80.570072,234.04893 c 0,-1.98799 1.575392,-3.59152 3.516501,-3.59152 1.950486,0 3.516501,1.60353 3.516501,3.59152 0,1.988 -1.566015,3.59152 -3.516501,3.59152 -1.941109,0 -3.516501,-1.60352 -3.516501,-3.59152" id="path3005" style="fill:none;stroke:#000000;stroke-width:1.24718571px;stroke-linecap:butt;stroke-linejoin:miter;stroke-miterlimit:4;stroke-opacity:1;stroke-dasharray:none"></path><path d="m 84.170969,237.64045 0,10.90584" id="path3007" style="fill:none;stroke:#000000;stroke-width:1.87546718px;stroke-linecap:butt;stroke-linejoin:miter;stroke-miterlimit:4;stroke-opacity:1;stroke-dasharray:none"></path><path d="M 84.170969,246.54892 70.414417,280.72931" id="path3009" style="fill:none;stroke:#000000;stroke-width:1.87546718px;stroke-linecap:butt;stroke-linejoin:miter;stroke-miterlimit:4;stroke-opacity:1;stroke-dasharray:none"></path><path d="m 84.170969,246.54892 13.756552,34.18039" id="path3011" style="fill:none;stroke:#000000;stroke-width:1.87546718px;stroke-linecap:butt;stroke-linejoin:miter;stroke-miterlimit:4;stroke-opacity:1;stroke-dasharray:none"></path><path d="m 78.694605,259.20833 10.549503,0" id="path3013" style="fill:none;stroke:#000000;stroke-width:0.62828153px;stroke-linecap:butt;stroke-linejoin:miter;stroke-miterlimit:4;stroke-opacity:1;stroke-dasharray:none"></path><path d="m 76.819138,265.77246 15.003737,0" id="path3015" style="fill:none;stroke:#000000;stroke-width:0.62828153px;stroke-linecap:butt;stroke-linejoin:miter;stroke-miterlimit:4;stroke-opacity:1;stroke-dasharray:none"></path><path d="m 74.474804,271.39886 19.223539,0" id="path3017" style="fill:none;stroke:#000000;stroke-width:0.62828153px;stroke-linecap:butt;stroke-linejoin:miter;stroke-miterlimit:4;stroke-opacity:1;stroke-dasharray:none"></path><path d="m 72.13047,277.02526 24.615507,0" id="path3019" style="fill:none;stroke:#000000;stroke-width:0.62828153px;stroke-linecap:butt;stroke-linejoin:miter;stroke-miterlimit:4;stroke-opacity:1;stroke-dasharray:none"></path><path d="m 90.041182,223.33064 c 5.476364,5.23255 5.673288,13.91596 0.440734,19.39233" id="path3021" style="fill:none;stroke:#000000;stroke-width:0.62828153px;stroke-linecap:butt;stroke-linejoin:miter;stroke-miterlimit:4;stroke-opacity:1;stroke-dasharray:none"></path><path d="m 95.751979,223.33064 c 5.476361,5.23255 5.673291,13.91596 0.440735,19.39233" id="path3023" style="fill:none;stroke:#000000;stroke-width:0.62828153px;stroke-linecap:butt;stroke-linejoin:miter;stroke-miterlimit:4;stroke-opacity:1;stroke-dasharray:none"></path><path d="m 101.4534,223.33064 c 5.47636,5.23255 5.67329,13.91596 0.44073,19.39233" id="path3025" style="fill:none;stroke:#000000;stroke-width:0.62828153px;stroke-linecap:butt;stroke-linejoin:miter;stroke-miterlimit:4;stroke-opacity:1;stroke-dasharray:none"></path><path d="M 77.250495,242.68546 C 71.774131,237.45291 71.577207,228.76949 76.80976,223.29313" id="path3027" style="fill:none;stroke:#000000;stroke-width:0.62828153px;stroke-linecap:butt;stroke-linejoin:miter;stroke-miterlimit:4;stroke-opacity:1;stroke-dasharray:none"></path><path d="M 71.549075,242.68546 C 66.07271,237.45291 65.875786,228.76949 71.10834,223.29313" id="path3029" style="fill:none;stroke:#000000;stroke-width:0.62828153px;stroke-linecap:butt;stroke-linejoin:miter;stroke-miterlimit:4;stroke-opacity:1;stroke-dasharray:none"></path><path d="M 65.847654,242.68546 C 60.37129,237.45291 60.174366,228.76949 65.40692,223.29313" id="path3031" style="fill:none;stroke:#000000;stroke-width:0.62828153px;stroke-linecap:butt;stroke-linejoin:miter;stroke-miterlimit:4;stroke-opacity:1;stroke-dasharray:none"></path><path d="m 66.194616,155.41059 c 0,-3.26331 2.644409,-5.9171 5.917099,-5.9171 l 23.649642,0 c 3.263313,0 5.907723,2.65379 5.907723,5.9171 l 0,40.2194 c 0,3.26331 -2.64441,5.90772 -5.907723,5.90772 l -23.649642,0 c -3.27269,0 -5.917099,-2.64441 -5.917099,-5.90772 z" id="path3033" style="fill:none;stroke:#000000;stroke-width:1.24718571px;stroke-linecap:butt;stroke-linejoin:miter;stroke-miterlimit:4;stroke-opacity:1;stroke-dasharray:none"></path><path d="m 70.255002,156.05763 27.35369,0 0,4.37921 -27.35369,0 z" id="path3035" style="fill:none;stroke:#000000;stroke-width:0.62828153px;stroke-linecap:butt;stroke-linejoin:miter;stroke-miterlimit:4;stroke-opacity:1;stroke-dasharray:none"></path><path d="m 70.255002,162.47173 27.35369,0 0,4.52925 -27.35369,0 z" id="path3037" style="fill:none;stroke:#000000;stroke-width:0.62828153px;stroke-linecap:butt;stroke-linejoin:miter;stroke-miterlimit:4;stroke-opacity:1;stroke-dasharray:none"></path><path d="m 70.255002,169.03586 27.35369,0 0,4.52925 -27.35369,0 z" id="path3039" style="fill:none;stroke:#000000;stroke-width:0.62828153px;stroke-linecap:butt;stroke-linejoin:miter;stroke-miterlimit:4;stroke-opacity:1;stroke-dasharray:none"></path><path d="m 70.255002,175.6 27.35369,0 0,4.36983 -27.35369,0 z" id="path3041" style="fill:none;stroke:#000000;stroke-width:0.62828153px;stroke-linecap:butt;stroke-linejoin:miter;stroke-miterlimit:4;stroke-opacity:1;stroke-dasharray:none"></path><text x="42.700401" y="136.7509" id="text3043" xml:space="preserve" style="font-size:11.2528038px;font-style:normal;font-weight:normal;text-align:start;text-anchor:start;fill:#000000;font-family:Verdana">Event Producer</text><text x="164.97949" y="136.7509" id="text3045" xml:space="preserve" style="font-size:11.2528038px;font-style:normal;font-weight:normal;text-align:start;text-anchor:start;fill:#000000;font-family:Verdana">Message Queue</text><path d="M314.53461,174.8123 c0,-8.79594 7.14553,-15.94147 15.94147,-15.94147 c8.8147,0 15.94147,7.14553 15.94147,15.94147 c0,8.8147 -7.12677,15.94147 -15.94147,15.94147 c-8.79594,0 -15.94147,-7.12677 -15.94147,-15.94147 " id="path3047" style="fill:#ffd966;fill-opacity:1;fill-rule:evenodd;stroke:none"></path><text x="317.27582" y="129.93326" id="text3049" xml:space="preserve" style="font-size:11.2528038px;font-style:normal;font-weight:normal;text-align:start;text-anchor:start;fill:#000000;font-family:Verdana">Flink</text><text x="295.8205" y="143.43661" id="text3051" xml:space="preserve" style="font-size:11.2528038px;font-style:normal;font-weight:normal;text-align:start;text-anchor:start;fill:#000000;font-family:Verdana">Data Source</text><text x="415.83893" y="129.93326" id="text3053" xml:space="preserve" style="font-size:11.2528038px;font-style:normal;font-weight:normal;text-align:start;text-anchor:start;fill:#000000;font-family:Verdana">Flink</text><text x="379.52988" y="143.43661" id="text3055" xml:space="preserve" style="font-size:11.2528038px;font-style:normal;font-weight:normal;text-align:start;text-anchor:start;fill:#000000;font-family:Verdana">Window Operator</text><path d="M314.53461,248.74322 c0,-8.79594 7.14553,-15.94147 15.94147,-15.94147 c8.8147,0 15.94147,7.14553 15.94147,15.94147 c0,8.81469 -7.12677,15.94147 -15.94147,15.94147 c-8.79594,0 -15.94147,-7.12678 -15.94147,-15.94147 " id="path3057" style="fill:#ffd966;fill-opacity:1;fill-rule:evenodd;stroke:none"></path><path d="m 408.94563,174.8123 c 0,-8.79594 7.16428,-15.94147 16.01649,-15.94147 8.8522,0 16.01649,7.14553 16.01649,15.94147 0,8.8147 -7.16429,15.94147 -16.01649,15.94147 -8.85221,0 -16.01649,-7.12677 -16.01649,-15.94147" id="path3059" style="fill:#ffd966;fill-opacity:1;fill-rule:evenodd;stroke:none"></path><path d="m 408.94563,248.74322 c 0,-8.79594 7.16428,-15.94147 16.01649,-15.94147 8.8522,0 16.01649,7.14553 16.01649,15.94147 0,8.81469 -7.16429,15.94147 -16.01649,15.94147 -8.85221,0 -16.01649,-7.12678 -16.01649,-15.94147" id="path3061" style="fill:#ffd966;fill-opacity:1;fill-rule:evenodd;stroke:none"></path><path d="m 432.38897,169.65477 c 2.41935,0 4.36984,0.16879 4.36984,0.37509 l 0,9.4336 c 0,0.18755 -1.95049,0.35634 -4.36984,0.35634" id="path3063" style="fill:none;stroke:#000000;stroke-width:1.87546718px;stroke-linecap:butt;stroke-linejoin:miter;stroke-miterlimit:4;stroke-opacity:1;stroke-dasharray:none"></path><path d="m 418.62304,169.65477 c -2.49437,0 -4.51988,0.16879 -4.51988,0.39384 l 0,9.39609 c 0,0.20631 2.02551,0.3751 4.51988,0.3751" id="path3065" style="fill:none;stroke:#000000;stroke-width:1.87546718px;stroke-linecap:butt;stroke-linejoin:miter;stroke-miterlimit:4;stroke-opacity:1;stroke-dasharray:none"></path><path d="m 432.38897,244.05455 c 2.41935,0 4.36984,0.16879 4.36984,0.37509 l 0,9.41485 c 0,0.2063 -1.95049,0.37509 -4.36984,0.37509" id="path3067" style="fill:none;stroke:#000000;stroke-width:1.87546718px;stroke-linecap:butt;stroke-linejoin:miter;stroke-miterlimit:4;stroke-opacity:1;stroke-dasharray:none"></path><path d="m 418.62304,244.05455 c -2.49437,0 -4.51988,0.16879 -4.51988,0.37509 l 0,9.41485 c 0,0.2063 2.02551,0.37509 4.51988,0.37509" id="path3069" style="fill:none;stroke:#000000;stroke-width:1.87546718px;stroke-linecap:butt;stroke-linejoin:miter;stroke-miterlimit:4;stroke-opacity:1;stroke-dasharray:none"></path><path d="m 323.61187,170.55499 7.50187,0 0,-4.18229 7.50187,8.36458 -7.50187,8.36459 0,-4.1823 -7.50187,0 z" id="path3071" style="fill:none;stroke:#000000;stroke-width:0.61890417px;stroke-linecap:butt;stroke-linejoin:miter;stroke-miterlimit:4;stroke-opacity:1;stroke-dasharray:none"></path><path d="m 323.61187,244.63594 7.50187,0 0,-4.18229 7.50187,8.36459 -7.50187,8.36458 0,-4.18229 -7.50187,0 z" id="path3073" style="fill:none;stroke:#000000;stroke-width:0.61890417px;stroke-linecap:butt;stroke-linejoin:miter;stroke-miterlimit:4;stroke-opacity:1;stroke-dasharray:none"></path><path d="m 117.46051,174.1934 49.70926,0 0,1.24718 -49.70926,0 z m 42.52622,-4.29482 8.42085,4.91372 -8.42085,4.9231 c -0.30007,0.16879 -0.68454,0.075 -0.85334,-0.22505 -0.17817,-0.30008 -0.075,-0.68455 0.22506,-0.85334 l 7.50187,-4.37922 0,1.0784 -7.50187,-4.37922 c -0.30007,-0.16879 -0.40323,-0.55326 -0.22506,-0.85334 0.1688,-0.30007 0.55327,-0.39385 0.85334,-0.22505 z" id="path3075" style="fill:#000000;fill-opacity:1;fill-rule:nonzero;stroke:#000000;stroke-width:0.00937734px;stroke-linecap:butt;stroke-linejoin:round;stroke-opacity:1;stroke-dasharray:none"></path><path d="m 117.46051,247.95552 49.70926,0 0,1.25656 -49.70926,0 z m 42.52622,-4.28544 8.42085,4.91372 -8.42085,4.91373 c -0.30007,0.17817 -0.68454,0.075 -0.85334,-0.22506 -0.17817,-0.2907 -0.075,-0.67517 0.22506,-0.85334 l 7.50187,-4.36983 0,1.07839 -7.50187,-4.37922 c -0.30007,-0.16879 -0.40323,-0.55326 -0.22506,-0.85333 0.1688,-0.30008 0.55327,-0.40323 0.85334,-0.22506 z" id="path3077" style="fill:#000000;fill-opacity:1;fill-rule:nonzero;stroke:#000000;stroke-width:0.00937734px;stroke-linecap:butt;stroke-linejoin:round;stroke-opacity:1;stroke-dasharray:none"></path><path d="m 117.88249,240.8475 52.54122,-48.79028 -0.84396,-0.91898 -52.5506,48.79028 z m 50.19688,-40.7539 2.83196,-9.33983 -9.518,2.13803 c -0.33758,0.075 -0.55326,0.40323 -0.47824,0.74081 0.075,0.33759 0.4126,0.55327 0.75018,0.47825 l 8.47712,-1.9036 -0.74081,-0.7877 -2.51313,8.30832 c -0.10315,0.33759 0.0844,0.68455 0.4126,0.77832 0.32821,0.10315 0.67517,-0.0844 0.77832,-0.4126 z" id="path3079" style="fill:#000000;fill-opacity:1;fill-rule:nonzero;stroke:#000000;stroke-width:0.00937734px;stroke-linecap:butt;stroke-linejoin:round;stroke-opacity:1;stroke-dasharray:none"></path><path d="m 252.17532,174.1934 49.71864,0 0,1.25656 -49.71864,0 z m 42.5356,-4.29482 8.42085,4.91372 -8.42085,4.93248 c -0.30007,0.16879 -0.67517,0.075 -0.86272,-0.22506 -0.16879,-0.30007 -0.075,-0.69392 0.22506,-0.86271 l 7.50187,-4.36984 0,1.06902 -7.50187,-4.36984 c -0.30007,-0.1688 -0.39385,-0.56264 -0.22506,-0.86272 0.18755,-0.30007 0.56265,-0.39385 0.86272,-0.22505 z" id="path3081" style="fill:#000000;fill-opacity:1;fill-rule:nonzero;stroke:#000000;stroke-width:0.01875467px;stroke-linecap:butt;stroke-linejoin:round;stroke-opacity:1;stroke-dasharray:none"></path><path d="m 252.17532,248.59318 49.71864,0 0,1.23781 -49.71864,0 z m 42.5356,-4.29482 8.42085,4.91372 -8.42085,4.91373 c -0.30007,0.18755 -0.67517,0.075 -0.86272,-0.22506 -0.16879,-0.30007 -0.075,-0.67517 0.22506,-0.84396 l 7.50187,-4.38859 0,1.08777 -7.50187,-4.36984 c -0.30007,-0.18754 -0.39385,-0.56264 -0.22506,-0.86271 0.18755,-0.30008 0.56265,-0.39385 0.86272,-0.22506 z" id="path3083" style="fill:#000000;fill-opacity:1;fill-rule:nonzero;stroke:#000000;stroke-width:0.01875467px;stroke-linecap:butt;stroke-linejoin:round;stroke-opacity:1;stroke-dasharray:none"></path><text x="189.89742" y="177.54382" id="text3085" xml:space="preserve" style="font-size:4.95123339px;font-style:italic;font-weight:normal;text-align:start;text-anchor:start;fill:#000000;font-family:Verdana">partition 1</text><text x="189.89742" y="251.09189" id="text3087" xml:space="preserve" style="font-size:4.95123339px;font-style:italic;font-weight:normal;text-align:start;text-anchor:start;fill:#000000;font-family:Verdana">partition 2</text><path d="m 352.51282,174.1934 49.71864,0 0,1.25656 -49.71864,0 z m 42.5356,-4.29482 8.42084,4.91372 -8.42084,4.93248 c -0.30008,0.16879 -0.67517,0.075 -0.86272,-0.22506 -0.16879,-0.30007 -0.075,-0.69392 0.22506,-0.86271 l 7.50187,-4.36984 0,1.06902 -7.50187,-4.36984 c -0.30008,-0.1688 -0.39385,-0.56264 -0.22506,-0.86272 0.18755,-0.30007 0.56264,-0.39385 0.86272,-0.22505 z" id="path3089" style="fill:#000000;fill-opacity:1;fill-rule:nonzero;stroke:#000000;stroke-width:0.01875467px;stroke-linecap:butt;stroke-linejoin:round;stroke-opacity:1;stroke-dasharray:none"></path><path d="m 352.51282,248.59318 49.71864,0 0,1.23781 -49.71864,0 z m 42.5356,-4.29482 8.42084,4.91372 -8.42084,4.91373 c -0.30008,0.18755 -0.67517,0.075 -0.86272,-0.22506 -0.16879,-0.30007 -0.075,-0.67517 0.22506,-0.84396 l 7.50187,-4.38859 0,1.08777 -7.50187,-4.36984 c -0.30008,-0.18754 -0.39385,-0.56264 -0.22506,-0.86271 0.18755,-0.30008 0.56264,-0.39385 0.86272,-0.22506 z" id="path3091" style="fill:#000000;fill-opacity:1;fill-rule:nonzero;stroke:#000000;stroke-width:0.01875467px;stroke-linecap:butt;stroke-linejoin:round;stroke-opacity:1;stroke-dasharray:none"></path><path d="m 352.98169,177.68176 55.6076,58.62711 -0.90022,0.86272 -55.62636,-58.64586 z m 53.76964,50.46883 2.23181,9.48986 -9.35858,-2.73818 c -0.33759,-0.0938 -0.52513,-0.43136 -0.43136,-0.76894 0.0938,-0.33759 0.45011,-0.52513 0.7877,-0.43136 l 8.32707,2.43811 -0.7877,0.75019 -1.98799,-8.45836 c -0.075,-0.33759 0.13128,-0.67517 0.46887,-0.75019 0.33758,-0.0938 0.67516,0.13128 0.75018,0.46887 z" id="path3093" style="fill:#000000;fill-opacity:1;fill-rule:nonzero;stroke:#000000;stroke-width:0.01875467px;stroke-linecap:butt;stroke-linejoin:round;stroke-opacity:1;stroke-dasharray:none"></path><path d="m 352.98169,246.90526 52.5881,-54.81991 -0.90023,-0.86271 -52.60685,54.80115 z m 50.71263,-46.66162 2.28807,-9.48987 -9.39609,2.68192 c -0.31883,0.0938 -0.52513,0.45011 -0.43136,0.76894 0.0938,0.33759 0.45011,0.52513 0.7877,0.43136 l 8.34583,-2.38184 -0.7877,-0.75019 -2.0255,8.4396 c -0.0938,0.33759 0.11252,0.67517 0.45011,0.76894 0.33758,0.075 0.67517,-0.13128 0.76894,-0.46886 z" id="path3095" style="fill:#000000;fill-opacity:1;fill-rule:nonzero;stroke:#000000;stroke-width:0.01875467px;stroke-linecap:butt;stroke-linejoin:round;stroke-opacity:1;stroke-dasharray:none"></path><path d="m 40.566356,302.98173 c 0,-5.0075 4.069764,-9.07726 9.058507,-9.07726 5.007497,0 9.077261,4.06976 9.077261,9.07726 0,5.0075 -4.069764,9.05851 -9.077261,9.05851 -4.988743,0 -9.058507,-4.05101 -9.058507,-9.05851" id="path3097" style="fill:none;stroke:#000000;stroke-width:1.25656307px;stroke-linecap:butt;stroke-linejoin:miter;stroke-miterlimit:4;stroke-opacity:1;stroke-dasharray:none"></path><path d="m 49.474825,303.61001 0,-7.67066" id="path3099" style="fill:none;stroke:#000000;stroke-width:1.24718571px;stroke-linecap:butt;stroke-linejoin:miter;stroke-miterlimit:4;stroke-opacity:1;stroke-dasharray:none"></path><path d="m 52.869421,306.0575 -3.394596,-2.45687" id="path3101" style="fill:none;stroke:#000000;stroke-width:1.25656307px;stroke-linecap:butt;stroke-linejoin:miter;stroke-miterlimit:4;stroke-opacity:1;stroke-dasharray:none"></path><path d="m 417.38523,302.98173 c 0,-5.0075 4.08852,-9.07726 9.13353,-9.07726 5.06376,0 9.15228,4.06976 9.15228,9.07726 0,5.0075 -4.08852,9.05851 -9.15228,9.05851 -5.04501,0 -9.13353,-4.05101 -9.13353,-9.05851" id="path3103" style="fill:none;stroke:#000000;stroke-width:1.25656307px;stroke-linecap:butt;stroke-linejoin:miter;stroke-miterlimit:4;stroke-opacity:1;stroke-dasharray:none"></path><path d="m 426.44374,303.61939 0,-7.67066" id="path3105" style="fill:none;stroke:#000000;stroke-width:1.25656307px;stroke-linecap:butt;stroke-linejoin:miter;stroke-miterlimit:4;stroke-opacity:1;stroke-dasharray:none"></path><path d="m 429.83833,306.0575 -3.39459,-2.45687" id="path3107" style="fill:none;stroke:#000000;stroke-width:1.25656307px;stroke-linecap:butt;stroke-linejoin:miter;stroke-miterlimit:4;stroke-opacity:1;stroke-dasharray:none"></path><text x="67.701958" y="308.1178" id="text3115" xml:space="preserve" style="font-size:8.70216751px;font-style:italic;font-weight:normal;text-align:start;text-anchor:start;fill:#000000;font-family:Verdana">Event</text><text x="69.502403" y="318.62042" id="text3117" xml:space="preserve" style="font-size:8.70216751px;font-style:italic;font-weight:normal;text-align:start;text-anchor:start;fill:#000000;font-family:Verdana">Time</text><text x="443.61313" y="309.50467" id="text3123" xml:space="preserve" style="font-size:8.70216751px;font-style:italic;font-weight:normal;text-align:start;text-anchor:start;fill:#000000;font-family:Verdana">Window</text><text x="437.46158" y="320.00726" id="text3125" xml:space="preserve" style="font-size:8.70216751px;font-style:italic;font-weight:normal;text-align:start;text-anchor:start;fill:#000000;font-family:Verdana">Processing</text><text x="449.9147" y="330.50989" id="text3127" xml:space="preserve" style="font-size:8.70216751px;font-style:italic;font-weight:normal;text-align:start;text-anchor:start;fill:#000000;font-family:Verdana">Time</text><path d="m 307.35157,271.39886 0,-1.23781 1.25656,0 0,1.23781 -1.25656,0 z m 0,-2.49437 0,-1.25656 1.25656,0 0,1.25656 -1.25656,0 z m 0,-2.49437 0,-1.25656 1.25656,0 0,1.25656 -1.25656,0 z m 0,-2.51313 0,-1.23781 1.25656,0 0,1.23781 -1.25656,0 z m 0,-2.49437 0,-1.25656 1.25656,0 0,1.25656 -1.25656,0 z m 0,-2.49437 0,-1.25656 1.25656,0 0,1.25656 -1.25656,0 z m 0,-2.51313 0,-1.2378 1.25656,0 0,1.2378 -1.25656,0 z m 0,-2.49437 0,-1.25656 1.25656,0 0,1.25656 -1.25656,0 z m 0,-2.49437 0,-1.25656 1.25656,0 0,1.25656 -1.25656,0 z m 0,-2.51312 0,-1.23781 1.25656,0 0,1.23781 -1.25656,0 z m 0,-2.49438 0,-1.25656 1.25656,0 0,1.25656 -1.25656,0 z m 0,-2.49437 0,-1.25656 1.25656,0 0,1.25656 -1.25656,0 z m 0,-2.51312 0,-1.23781 1.25656,0 0,1.23781 -1.25656,0 z m 0,-2.49437 0,-1.25657 1.25656,0 0,1.25657 -1.25656,0 z m 0,-2.49438 0,-1.25656 1.25656,0 0,1.25656 -1.25656,0 z m 0,-2.51312 0,-1.23781 1.25656,0 0,1.23781 -1.25656,0 z m 0,-2.49437 0,-1.25657 1.25656,0 0,1.25657 -1.25656,0 z m 0,-2.49438 0,-1.25656 1.25656,0 0,1.25656 -1.25656,0 z m 0,-2.51312 0,-1.23781 1.25656,0 0,1.23781 -1.25656,0 z m 0,-2.49437 0,-1.25657 1.25656,0 0,1.25657 -1.25656,0 z m 0,-2.49437 0,-1.25657 1.25656,0 0,1.25657 -1.25656,0 z m 0,-2.51313 0,-1.23781 1.25656,0 0,1.23781 -1.25656,0 z m 0,-2.49437 0,-1.25656 1.25656,0 0,1.25656 -1.25656,0 z m 0,-2.49437 0,-1.25657 1.25656,0 0,1.25657 -1.25656,0 z m 0,-2.51313 0,-1.23781 1.25656,0 0,1.23781 -1.25656,0 z m 0,-2.49437 0,-1.25656 1.25656,0 0,1.25656 -1.25656,0 z m 0,-2.49437 0,-1.25656 1.25656,0 0,1.25656 -1.25656,0 z m 0,-2.51313 0,-1.23781 1.25656,0 0,1.23781 -1.25656,0 z m 0,-2.49437 0,-1.25656 1.25656,0 0,1.25656 -1.25656,0 z m 0,-2.49437 0,-1.25656 1.25656,0 0,1.25656 -1.25656,0 z m 0,-2.51313 0,-1.23781 1.25656,0 0,1.23781 -1.25656,0 z m 0,-2.49437 0,-1.25656 1.25656,0 0,1.25656 -1.25656,0 z m 0,-2.49437 0,-1.25656 1.25656,0 0,1.25656 -1.25656,0 z m 0,-2.51313 0,-1.2378 1.25656,0 0,1.2378 -1.25656,0 z m 0,-2.49437 0,-1.25656 1.25656,0 0,1.25656 -1.25656,0 z m 0,-2.49437 0,-1.25656 1.25656,0 0,1.25656 -1.25656,0 z m 0,-2.51312 0,-1.23781 1.25656,0 0,1.23781 -1.25656,0 z m 0,-2.49438 0,-1.25656 1.25656,0 0,1.25656 -1.25656,0 z m 0,-2.49437 0,-1.25656 1.25656,0 0,1.25656 -1.25656,0 z m 0,-2.51312 0,-1.23781 1.25656,0 0,1.23781 -1.25656,0 z m 0,-2.49437 0,-1.25657 1.25656,0 0,1.25657 -1.25656,0 z m 0,-2.49438 0,-1.25656 1.25656,0 0,1.25656 -1.25656,0 z m 0,-2.51312 0,-1.23781 1.25656,0 0,1.23781 -1.25656,0 z m 0,-2.49437 0,-1.25657 1.25656,0 0,1.25657 -1.25656,0 z m 0,-2.49438 0,-1.25656 1.25656,0 0,1.25656 -1.25656,0 z m 0,-2.51312 0,-1.23781 1.25656,0 0,1.23781 -1.25656,0 z m 0,-2.49437 0,-1.25657 1.25656,0 0,1.25657 -1.25656,0 z m 0,-2.49437 0,-1.25657 1.25656,0 0,1.25657 -1.25656,0 z m 0,-2.51313 0,-1.4066 1.08777,0 0,1.25656 -0.46887,0 0.63766,-0.6189 0,0.76894 -1.25656,0 z m 2.34433,-1.4066 1.25657,0 0,1.25656 -1.25657,0 0,-1.25656 z m 2.49437,0 1.25657,0 0,1.25656 -1.25657,0 0,-1.25656 z m 2.51313,0 1.23781,0 0,1.25656 -1.23781,0 0,-1.25656 z m 2.49437,0 1.25656,0 0,1.25656 -1.25656,0 0,-1.25656 z m 2.49437,0 1.25657,0 0,1.25656 -1.25657,0 0,-1.25656 z m 2.51313,0 1.23781,0 0,1.25656 -1.23781,0 0,-1.25656 z m 2.49437,0 1.25656,0 0,1.25656 -1.25656,0 0,-1.25656 z m 2.49437,0 1.25657,0 0,1.25656 -1.25657,0 0,-1.25656 z m 2.51313,0 1.23781,0 0,1.25656 -1.23781,0 0,-1.25656 z m 2.49437,0 1.25656,0 0,1.25656 -1.25656,0 0,-1.25656 z m 2.49437,0 1.25656,0 0,1.25656 -1.25656,0 0,-1.25656 z m 2.51313,0 1.23781,0 0,1.25656 -1.23781,0 0,-1.25656 z m 2.49437,0 1.25656,0 0,1.25656 -1.25656,0 0,-1.25656 z m 2.49437,0 1.25656,0 0,1.25656 -1.25656,0 0,-1.25656 z m 2.51313,0 1.2378,0 0,1.25656 -1.2378,0 0,-1.25656 z m 2.49437,0 1.25656,0 0,1.25656 -1.25656,0 0,-1.25656 z m 2.49437,0 1.25656,0 0,1.25656 -1.25656,0 0,-1.25656 z m 2.51313,0 1.2378,0 0,1.25656 -1.2378,0 0,-1.25656 z m 2.49437,0 1.25656,0 0,1.25656 -1.25656,0 0,-1.25656 z m 2.49437,0 1.25656,0 0,1.25656 -1.25656,0 0,-1.25656 z m 2.51312,0 1.23781,0 0,1.25656 -1.23781,0 0,-1.25656 z m 2.49438,0 1.25656,0 0,1.25656 -1.25656,0 0,-1.25656 z m 2.49437,0 1.25656,0 0,1.25656 -1.25656,0 0,-1.25656 z m 2.51312,0 1.23781,0 0,1.25656 -1.23781,0 0,-1.25656 z m 2.49437,0 1.25657,0 0,1.25656 -1.25657,0 0,-1.25656 z m 2.49438,0 1.25656,0 0,1.25656 -1.25656,0 0,-1.25656 z m 2.51312,0 1.23781,0 0,1.25656 -1.23781,0 0,-1.25656 z m 2.49437,0 1.25657,0 0,1.25656 -1.25657,0 0,-1.25656 z m 2.49437,0 1.25657,0 0,1.25656 -1.25657,0 0,-1.25656 z m 2.51313,0 1.23781,0 0,1.25656 -1.23781,0 0,-1.25656 z m 2.49437,0 1.25657,0 0,1.25656 -1.25657,0 0,-1.25656 z m 2.49437,0 1.25657,0 0,1.25656 -1.25657,0 0,-1.25656 z m 2.51313,0 1.23781,0 0,1.25656 -1.23781,0 0,-1.25656 z m 2.49437,0 1.25656,0 0,1.25656 -1.25656,0 0,-1.25656 z m 2.49437,0 1.25657,0 0,1.25656 -1.25657,0 0,-1.25656 z m 2.51313,0 1.23781,0 0,1.25656 -1.23781,0 0,-1.25656 z m 2.49437,0 1.25656,0 0,1.25656 -1.25656,0 0,-1.25656 z m 2.49437,0 1.25656,0 0,1.25656 -1.25656,0 0,-1.25656 z m 2.51313,0 1.23781,0 0,1.25656 -1.23781,0 0,-1.25656 z m 2.49437,0 1.25656,0 0,1.25656 -1.25656,0 0,-1.25656 z m 2.49437,0 1.25656,0 0,1.25656 -1.25656,0 0,-1.25656 z m 2.51313,0 1.2378,0 0,1.25656 -1.2378,0 0,-1.25656 z m 2.49437,0 1.25656,0 0,1.25656 -1.25656,0 0,-1.25656 z m 2.49437,0 1.25656,0 0,1.25656 -1.25656,0 0,-1.25656 z m 2.51313,0 1.2378,0 0,1.25656 -1.2378,0 0,-1.25656 z m 2.49437,0 1.25656,0 0,1.25656 -1.25656,0 0,-1.25656 z m 2.49437,0 1.25656,0 0,1.25656 -1.25656,0 0,-1.25656 z m 2.51312,0 1.23781,0 0,1.25656 -1.23781,0 0,-1.25656 z m 2.49438,0 1.25656,0 0,1.25656 -1.25656,0 0,-1.25656 z m 2.49437,0 1.25656,0 0,1.25656 -1.25656,0 0,-1.25656 z m 2.51312,0 1.23781,0 0,1.25656 -1.23781,0 0,-1.25656 z m 2.49437,0 1.25657,0 0,1.25656 -1.25657,0 0,-1.25656 z m 2.49438,0 1.25656,0 0,1.25656 -1.25656,0 0,-1.25656 z m 2.51312,0 1.23781,0 0,1.25656 -1.23781,0 0,-1.25656 z m 2.49437,0 1.25657,0 0,1.25656 -1.25657,0 0,-1.25656 z m 2.49437,0 1.25657,0 0,1.25656 -1.25657,0 0,-1.25656 z m 2.51313,0 0.93773,0 0,1.57539 -1.25656,0 0,-0.93773 0.61891,0.6189 -0.30008,0 0,-1.25656 z m 0.93773,2.8132 0,1.25656 -1.25656,0 0,-1.25656 1.25656,0 z m 0,2.51313 0,1.2378 -1.25656,0 0,-1.2378 1.25656,0 z m 0,2.49437 0,1.25656 -1.25656,0 0,-1.25656 1.25656,0 z m 0,2.49437 0,1.25656 -1.25656,0 0,-1.25656 1.25656,0 z m 0,2.51313 0,1.2378 -1.25656,0 0,-1.2378 1.25656,0 z m 0,2.49437 0,1.25656 -1.25656,0 0,-1.25656 1.25656,0 z m 0,2.49437 0,1.25656 -1.25656,0 0,-1.25656 1.25656,0 z m 0,2.51312 0,1.23781 -1.25656,0 0,-1.23781 1.25656,0 z m 0,2.49438 0,1.25656 -1.25656,0 0,-1.25656 1.25656,0 z m 0,2.49437 0,1.25656 -1.25656,0 0,-1.25656 1.25656,0 z m 0,2.51312 0,1.23781 -1.25656,0 0,-1.23781 1.25656,0 z m 0,2.49437 0,1.25657 -1.25656,0 0,-1.25657 1.25656,0 z m 0,2.49438 0,1.25656 -1.25656,0 0,-1.25656 1.25656,0 z m 0,2.51312 0,1.23781 -1.25656,0 0,-1.23781 1.25656,0 z m 0,2.49437 0,1.25657 -1.25656,0 0,-1.25657 1.25656,0 z m 0,2.49437 0,1.25657 -1.25656,0 0,-1.25657 1.25656,0 z m 0,2.51313 0,1.23781 -1.25656,0 0,-1.23781 1.25656,0 z m 0,2.49437 0,1.25657 -1.25656,0 0,-1.25657 1.25656,0 z m 0,2.49437 0,1.25657 -1.25656,0 0,-1.25657 1.25656,0 z m 0,2.51313 0,1.23781 -1.25656,0 0,-1.23781 1.25656,0 z m 0,2.49437 0,1.25656 -1.25656,0 0,-1.25656 1.25656,0 z m 0,2.49437 0,1.25657 -1.25656,0 0,-1.25657 1.25656,0 z m 0,2.51313 0,1.23781 -1.25656,0 0,-1.23781 1.25656,0 z m 0,2.49437 0,1.25656 -1.25656,0 0,-1.25656 1.25656,0 z m 0,2.49437 0,1.25656 -1.25656,0 0,-1.25656 1.25656,0 z m 0,2.51313 0,1.23781 -1.25656,0 0,-1.23781 1.25656,0 z m 0,2.49437 0,1.25656 -1.25656,0 0,-1.25656 1.25656,0 z m 0,2.49437 0,1.25656 -1.25656,0 0,-1.25656 1.25656,0 z m 0,2.51313 0,1.2378 -1.25656,0 0,-1.2378 1.25656,0 z m 0,2.49437 0,1.25656 -1.25656,0 0,-1.25656 1.25656,0 z m 0,2.49437 0,1.25656 -1.25656,0 0,-1.25656 1.25656,0 z m 0,2.51313 0,1.2378 -1.25656,0 0,-1.2378 1.25656,0 z m 0,2.49437 0,1.25656 -1.25656,0 0,-1.25656 1.25656,0 z m 0,2.49437 0,1.25656 -1.25656,0 0,-1.25656 1.25656,0 z m 0,2.51312 0,1.23781 -1.25656,0 0,-1.23781 1.25656,0 z m 0,2.49438 0,1.25656 -1.25656,0 0,-1.25656 1.25656,0 z m 0,2.49437 0,1.25656 -1.25656,0 0,-1.25656 1.25656,0 z m 0,2.51312 0,1.23781 -1.25656,0 0,-1.23781 1.25656,0 z m 0,2.49437 0,1.25657 -1.25656,0 0,-1.25657 1.25656,0 z m 0,2.49438 0,1.25656 -1.25656,0 0,-1.25656 1.25656,0 z m 0,2.51312 0,1.23781 -1.25656,0 0,-1.23781 1.25656,0 z m 0,2.49437 0,1.25657 -1.25656,0 0,-1.25657 1.25656,0 z m 0,2.49437 0,1.25657 -1.25656,0 0,-1.25657 1.25656,0 z m 0,2.51313 0,1.23781 -1.25656,0 0,-1.23781 1.25656,0 z m 0,2.49437 0,1.25657 -1.25656,0 0,-1.25657 1.25656,0 z m 0,2.49437 0,1.25657 -1.25656,0 0,-1.25657 1.25656,0 z m 0,2.51313 0,1.23781 -1.25656,0 0,-1.23781 1.25656,0 z m 0,2.49437 0,1.72543 -0.78769,0 0,-1.25656 0.15004,0 -0.61891,0.6189 0,-1.08777 1.25656,0 z m -2.04425,1.72543 -1.23781,0 0,-1.25656 1.23781,0 0,1.25656 z m -2.49438,0 -1.25656,0 0,-1.25656 1.25656,0 0,1.25656 z m -2.49437,0 -1.25656,0 0,-1.25656 1.25656,0 0,1.25656 z m -2.51312,0 -1.23781,0 0,-1.25656 1.23781,0 0,1.25656 z m -2.49438,0 -1.25656,0 0,-1.25656 1.25656,0 0,1.25656 z m -2.49437,0 -1.25656,0 0,-1.25656 1.25656,0 0,1.25656 z m -2.51312,0 -1.23781,0 0,-1.25656 1.23781,0 0,1.25656 z m -2.49437,0 -1.25657,0 0,-1.25656 1.25657,0 0,1.25656 z m -2.49438,0 -1.25656,0 0,-1.25656 1.25656,0 0,1.25656 z m -2.51312,0 -1.23781,0 0,-1.25656 1.23781,0 0,1.25656 z m -2.49437,0 -1.25657,0 0,-1.25656 1.25657,0 0,1.25656 z m -2.49437,0 -1.25657,0 0,-1.25656 1.25657,0 0,1.25656 z m -2.51313,0 -1.23781,0 0,-1.25656 1.23781,0 0,1.25656 z m -2.49437,0 -1.25656,0 0,-1.25656 1.25656,0 0,1.25656 z m -2.49437,0 -1.25657,0 0,-1.25656 1.25657,0 0,1.25656 z m -2.51313,0 -1.23781,0 0,-1.25656 1.23781,0 0,1.25656 z m -2.49437,0 -1.25656,0 0,-1.25656 1.25656,0 0,1.25656 z m -2.49437,0 -1.25657,0 0,-1.25656 1.25657,0 0,1.25656 z m -2.51313,0 -1.23781,0 0,-1.25656 1.23781,0 0,1.25656 z m -2.49437,0 -1.25656,0 0,-1.25656 1.25656,0 0,1.25656 z m -2.49437,0 -1.25656,0 0,-1.25656 1.25656,0 0,1.25656 z m -2.51313,0 -1.23781,0 0,-1.25656 1.23781,0 0,1.25656 z m -2.49437,0 -1.25656,0 0,-1.25656 1.25656,0 0,1.25656 z m -2.49437,0 -1.25656,0 0,-1.25656 1.25656,0 0,1.25656 z m -2.51313,0 -1.2378,0 0,-1.25656 1.2378,0 0,1.25656 z m -2.49437,0 -1.25656,0 0,-1.25656 1.25656,0 0,1.25656 z m -2.49437,0 -1.25656,0 0,-1.25656 1.25656,0 0,1.25656 z m -2.51313,0 -1.2378,0 0,-1.25656 1.2378,0 0,1.25656 z m -2.49437,0 -1.25656,0 0,-1.25656 1.25656,0 0,1.25656 z m -2.49437,0 -1.25656,0 0,-1.25656 1.25656,0 0,1.25656 z m -2.51312,0 -1.23781,0 0,-1.25656 1.23781,0 0,1.25656 z m -2.49438,0 -1.25656,0 0,-1.25656 1.25656,0 0,1.25656 z m -2.49437,0 -1.25656,0 0,-1.25656 1.25656,0 0,1.25656 z m -2.51312,0 -1.23781,0 0,-1.25656 1.23781,0 0,1.25656 z m -2.49437,0 -1.25657,0 0,-1.25656 1.25657,0 0,1.25656 z m -2.49438,0 -1.25656,0 0,-1.25656 1.25656,0 0,1.25656 z m -2.51312,0 -1.23781,0 0,-1.25656 1.23781,0 0,1.25656 z m -2.49437,0 -1.25657,0 0,-1.25656 1.25657,0 0,1.25656 z m -2.49437,0 -1.25657,0 0,-1.25656 1.25657,0 0,1.25656 z m -2.51313,0 -1.23781,0 0,-1.25656 1.23781,0 0,1.25656 z m -2.49437,0 -1.25657,0 0,-1.25656 1.25657,0 0,1.25656 z m -2.49437,0 -1.25657,0 0,-1.25656 1.25657,0 0,1.25656 z m -2.51313,0 -1.23781,0 0,-1.25656 1.23781,0 0,1.25656 z m -2.49437,0 -1.25656,0 0,-1.25656 1.25656,0 0,1.25656 z m -2.49437,0 -1.25657,0 0,-1.25656 1.25657,0 0,1.25656 z m -2.51313,0 -1.23781,0 0,-1.25656 1.23781,0 0,1.25656 z m -2.49437,0 -1.25656,0 0,-1.25656 1.25656,0 0,1.25656 z m -2.49437,0 -1.25656,0 0,-1.25656 1.25656,0 0,1.25656 z m -2.51313,0 -1.23781,0 0,-1.25656 1.23781,0 0,1.25656 z m -2.49437,0 -1.25656,0 0,-1.25656 1.25656,0 0,1.25656 z m -2.49437,0 -1.25656,0 0,-1.25656 1.25656,0 0,1.25656 z m -2.51313,0 -1.2378,0 0,-1.25656 1.2378,0 0,1.25656 z m -2.49437,0 -1.25656,0 0,-1.25656 1.25656,0 0,1.25656 z m -2.49437,0 -1.25656,0 0,-1.25656 1.25656,0 0,1.25656 z m -2.51313,0 -1.2378,0 0,-1.25656 1.2378,0 0,1.25656 z m -2.49437,0 -1.25656,0 0,-1.25656 1.25656,0 0,1.25656 z m -2.49437,0 -0.63766,0 0,-1.25656 0.63766,0 0,1.25656 z" id="path3129" style="fill:#000000;fill-opacity:1;fill-rule:nonzero;stroke:#000000;stroke-width:0.01875467px;stroke-linecap:butt;stroke-linejoin:round;stroke-opacity:1;stroke-dasharray:none"></path><path d="m 70.977057,294.514 12.753177,-25.4876 -1.115903,-0.56264 -12.753177,25.49697 z m 14.43172,-24.65302 c 0.618905,-1.22843 0.112529,-2.72881 -1.115903,-3.34771 -1.237808,-0.6189 -2.738182,-0.12191 -3.357086,1.1159 -0.618904,1.23781 -0.121905,2.73819 1.115903,3.35709 1.237809,0.6189 2.738182,0.11253 3.357086,-1.12528 z" id="path3131" style="fill:#000000;fill-opacity:1;fill-rule:nonzero;stroke:#000000;stroke-width:0.00937734px;stroke-linecap:butt;stroke-linejoin:round;stroke-opacity:1;stroke-dasharray:none"></path><path d="m 440.43472,294.07326 -14.57238,-36.49659 1.16279,-0.46887 14.57238,36.49659 z m -16.31656,-35.80267 c -0.50638,-1.27532 0.11253,-2.73818 1.4066,-3.24456 1.27532,-0.52513 2.73818,0.11253 3.24456,1.38785 0.50637,1.27532 -0.11253,2.73818 -1.38785,3.24456 -1.29407,0.52513 -2.73818,-0.11253 -3.26331,-1.38785 z" id="path3135" style="fill:#000000;fill-opacity:1;fill-rule:nonzero;stroke:#000000;stroke-width:0.01875467px;stroke-linecap:butt;stroke-linejoin:round;stroke-opacity:1;stroke-dasharray:none"></path></g></g></svg>