<?xml version="1.0" encoding="UTF-8" standalone="no"?>

<!--
Licensed to the Apache Software Foundation (ASF) under one
or more contributor license agreements.  See the NOTICE file
distributed with this work for additional information
regarding copyright ownership.  The ASF licenses this file
to you under the Apache License, Version 2.0 (the
"License"); you may not use this file except in compliance
with the License.  You may obtain a copy of the License at

http://www.apache.org/licenses/LICENSE-2.0

Unless required by applicable law or agreed to in writing,
software distributed under the License is distributed on an
"AS IS" BASIS, WITHOUT WARRANTIES OR CONDITIONS OF ANY
KIND, either express or implied.  See the License for the
specific language governing permissions and limitations
under the License.
-->

<svg version="1.1" viewBox="0 0 842.6483154296875 203.27821350097656" fill="none" stroke="none" stroke-linecap="square" stroke-miterlimit="10" xmlns:xlink="http://www.w3.org/1999/xlink" xmlns="http://www.w3.org/2000/svg" width="100%" height="100%">
    <rect id="svgEditorBackground" x="0" y="0" width="842.648" height="203.278" style="fill:none;stroke:none;" />
    <clipPath id="p.0">
        <path d="m0 0l842.6483 0l0 203.27821l-842.6483 0l0 -203.27821z" clip-rule="nonzero" />
    </clipPath>
    <g clip-path="url(#p.0)">
        <path fill="#000000" fill-opacity="0.0" d="M0,0l842.6483,0l0,203.27821l-842.6483,0Z" fill-rule="evenodd" />
        <path fill="#000000" fill-opacity="0.0" d="m203.24672 147.81758l0 -46.015747l138.67717 0l0 46.015747z" fill-rule="evenodd" />
        <path fill="#000000" d="M265.14047,136.5832q-0.078125,-3,-1.625,-4.890625q-1.546875,-1.90625,-4.234375,-2.53125q-2.703125,-0.625,-9.21876499999999,-0.65625q-6.53125,-0.046875,-8.59375,-0.234375q-3.28125,-0.3593673700000011,-5.265625,-1.3124923999999965q-2,-0.953125,-3.1875,-2.359375q-1.203125,-1.40625,-1.828125,-3.59375q-0.390625,-1.484375,-0.390625,-4.84375l0,-2.1875l6.140625,0l0,1.203125q0,4.0625,1.46875,5.390625q1.453125,1.328125,6.53125,1.328125q10.234375,0,12.93751499999999,0.4375q4.171875,0.703125,6.4375,2.40625q2.265625,1.6875,4.03125,5.3281173999999965q1.796875,-4.2968673999999965,5.484375,-6.2343673999999965q3.6875,-1.9375,12.09375,-1.9375q7.625,0,9.0625,-0.15625q2.65625,-0.3125,3.703125,-1.578125q1.0625,-1.265625,1.0625,-4.984375l0,-1.203125l6.140625,0l0,2.1875q0,3.828125,-0.625,5.546875q-0.90625,2.5,-2.921875,4.140625q-2,1.640625,-5.09375,2.125q-3.078125,0.4843673700000011,-10.109375,0.5312423999999965q-7.046875,0.03125,-9.734375,0.65625q-2.703125,0.625,-4.265625,2.53125q-1.5625,1.890625,-1.640625,4.890625l-6.359375,0Z" fill-rule="nonzero" transform="matrix(1.7428, 0, 0, 1, -197.125, 0)" />
        <path fill="#000000" d="M608.6628,138.55434q-0.078125,-3,-1.625,-4.890625q-1.546875,-1.90625,-4.234375,-2.53125q-2.703125,-0.625,-9.21875,-0.65625q-6.53125,-0.046875,-8.59375,-0.234375q-3.28125,-0.359375,-5.265625,-1.3125q-2,-0.953125,-3.1875,-2.359375q-1.203125,-1.40625,-1.828125,-3.59375q-0.390625,-1.484375,-0.390625,-4.84375l0,-2.1875l6.140625,0l0,1.203125q0,4.0625,1.46875,5.390625q1.453125,1.328125,6.53125,1.328125q10.234375,0,12.9375,0.4375q4.171875,0.703125,6.4375,2.40625q2.265625,1.6875,4.03125,5.328125q1.796875,-4.296875,5.484375,-6.234375q3.6875,-1.9375,12.09375,-1.9375q7.625,0,9.0625,-0.15625q2.65625,-0.3125,3.703125,-1.578125q1.0625,-1.265625,1.0625,-4.984375l0,-1.203125l6.140625,0l0,2.1875q0,3.828125,-0.625,5.546875q-0.90625,2.5,-2.921875,4.140625q-2,1.640625,-5.09375,2.125q-3.078125,0.484375,-10.109375,0.53125q-7.046875,0.03125,-9.734375,0.65625q-2.703125,0.625,-4.265625,2.53125q-1.5625,1.890625,-1.640625,4.890625l-6.359375,0Z" fill-rule="nonzero" transform="matrix(2.91548, 0, 0, 1, -1166.79, 0)" />
        <path stroke="#9e9e9e" stroke-width="1.0" stroke-linecap="butt" d="m43.850395 19.053806l0 76.19423" fill-rule="nonzero" />
        <path stroke="#9e9e9e" stroke-width="1.0" stroke-linecap="butt" d="m119.850395 19.053806l0 76.19423" fill-rule="nonzero" />
        <path stroke="#9e9e9e" stroke-width="1.0" stroke-linecap="butt" d="m195.85039 19.053806l0 76.19423" fill-rule="nonzero" />
        <path stroke="#9e9e9e" stroke-width="1.0" stroke-linecap="butt" d="m271.8504 19.053806l0 76.19423" fill-rule="nonzero" />
        <path stroke="#9e9e9e" stroke-width="1.0" stroke-linecap="butt" d="m347.8504 19.053806l0 76.19423" fill-rule="nonzero" />
        <path stroke="#9e9e9e" stroke-width="1.0" stroke-linecap="butt" d="m423.8504 19.053806l0 76.19423" fill-rule="nonzero" />
        <path stroke="#9e9e9e" stroke-width="1.0" stroke-linecap="butt" d="m499.8504 19.053806l0 76.19423" fill-rule="nonzero" />
        <path stroke="#9e9e9e" stroke-width="1.0" stroke-linecap="butt" d="m575.8504 19.053806l0 76.19423" fill-rule="nonzero" />
        <path stroke="#9e9e9e" stroke-width="1.0" stroke-linecap="butt" d="m651.8504 19.053806l0 76.19423" fill-rule="nonzero" />
        <path stroke="#9e9e9e" stroke-width="1.0" stroke-linecap="butt" d="m727.8504 19.053806l0 76.19423" fill-rule="nonzero" />
        <path stroke="#9e9e9e" stroke-width="1.0" stroke-linecap="butt" d="m803.8504 19.053806l0 76.19423" fill-rule="nonzero" />
        <path stroke="#9e9e9e" stroke-width="1.0" stroke-linecap="butt" d="m43.351707 19.552494l760.9974 0" fill-rule="nonzero" />
        <path stroke="#9e9e9e" stroke-width="1.0" stroke-linecap="butt" d="m43.351707 54.749344l760.9974 0" fill-rule="nonzero" />
        <path stroke="#9e9e9e" stroke-width="1.0" stroke-linecap="butt" d="m43.351707 94.749344l760.9974 0" fill-rule="nonzero" />
        <path fill="#000000" d="m68.63684 41.950916l0 -8.421875l-3.140625 0l0 -1.125l7.5625 0l0 1.125l-3.15625 0l0 8.421875l-1.265625 0zm4.7819824 0l2.53125 -3.59375l-2.34375 -3.3125l1.46875 0l1.0625 1.609375q0.296875 0.46875 0.484375 0.78125q0.28125 -0.4375 0.515625 -0.765625l1.171875 -1.625l1.40625 0l-2.390625 3.25l2.5625 3.65625l-1.4375 0l-1.421875 -2.140625l-0.375 -0.59375l-1.8125 2.734375l-1.421875 0zm7.4453125 0l0 -6.90625l1.0625 0l0 0.984375q0.75 -1.140625 2.1875 -1.140625q0.625 0 1.15625 0.21875q0.53125 0.21875 0.78125 0.59375q0.265625 0.359375 0.375 0.859375q0.0625 0.328125 0.0625 1.140625l0 4.25l-1.171875 0l0 -4.203125q0 -0.71875 -0.140625 -1.0625q-0.140625 -0.359375 -0.484375 -0.5625q-0.34375 -0.21875 -0.8125 -0.21875q-0.75 0 -1.296875 0.46875q-0.546875 0.46875 -0.546875 1.796875l0 3.78125l-1.171875 0zm15.209213 0l-1.171875 0l0 -7.46875q-0.421875 0.40625 -1.109375 0.8125q-0.6875 0.40625 -1.234375 0.609375l0 -1.140625q0.984375 -0.453125 1.71875 -1.109375q0.734375 -0.671875 1.03125 -1.28125l0.765625 0l0 9.578125z" fill-rule="nonzero" />
        <path fill="#000000" d="m144.63684 41.950916l0 -8.421875l-3.140625 0l0 -1.125l7.5625 0l0 1.125l-3.15625 0l0 8.421875l-1.265625 0zm4.7819824 0l2.53125 -3.59375l-2.34375 -3.3125l1.46875 0l1.0625 1.609375q0.296875 0.46875 0.484375 0.78125q0.28125 -0.4375 0.515625 -0.765625l1.171875 -1.625l1.40625 0l-2.390625 3.25l2.5625 3.65625l-1.4375 0l-1.421875 -2.140625l-0.375 -0.59375l-1.8125 2.734375l-1.421875 0zm7.4453125 0l0 -6.90625l1.0625 0l0 0.984375q0.75 -1.140625 2.1875 -1.140625q0.625 0 1.15625 0.21875q0.53125 0.21875 0.78125 0.59375q0.265625 0.359375 0.375 0.859375q0.0625 0.328125 0.0625 1.140625l0 4.25l-1.171875 0l0 -4.203125q0 -0.71875 -0.140625 -1.0625q-0.140625 -0.359375 -0.484375 -0.5625q-0.34375 -0.21875 -0.8125 -0.21875q-0.75 0 -1.296875 0.46875q-0.546875 0.46875 -0.546875 1.796875l0 3.78125l-1.171875 0zm16.943588 -1.125l0 1.125l-6.296875 0q-0.015625 -0.421875 0.140625 -0.8125q0.234375 -0.640625 0.765625 -1.265625q0.53125 -0.625 1.53125 -1.453125q1.5625 -1.265625 2.109375 -2.015625q0.546875 -0.75 0.546875 -1.40625q0 -0.703125 -0.5 -1.171875q-0.5 -0.484375 -1.296875 -0.484375q-0.859375 0 -1.375 0.515625q-0.5 0.5 -0.5 1.390625l-1.203125 -0.109375q0.125 -1.359375 0.921875 -2.0625q0.8125 -0.703125 2.171875 -0.703125q1.375 0 2.171875 0.765625q0.8125 0.75 0.8125 1.875q0 0.578125 -0.234375 1.140625q-0.234375 0.546875 -0.78125 1.15625q-0.546875 0.609375 -1.8125 1.671875q-1.046875 0.890625 -1.359375 1.21875q-0.296875 0.3125 -0.484375 0.625l4.671875 0z" fill-rule="nonzero" />
        <path fill="#000000" d="m220.63684 41.950916l0 -8.421875l-3.140625 0l0 -1.125l7.5625 0l0 1.125l-3.15625 0l0 8.421875l-1.265625 0zm4.7819824 0l2.53125 -3.59375l-2.34375 -3.3125l1.46875 0l1.0625 1.609375q0.296875 0.46875 0.484375 0.78125q0.28125 -0.4375 0.515625 -0.765625l1.171875 -1.625l1.40625 0l-2.390625 3.25l2.5625 3.65625l-1.4375 0l-1.421875 -2.140625l-0.375 -0.59375l-1.8125 2.734375l-1.421875 0zm7.4453125 0l0 -6.90625l1.0625 0l0 0.984375q0.75 -1.140625 2.1875 -1.140625q0.625 0 1.15625 0.21875q0.53125 0.21875 0.78125 0.59375q0.265625 0.359375 0.375 0.859375q0.0625 0.328125 0.0625 1.140625l0 4.25l-1.171875 0l0 -4.203125q0 -0.71875 -0.140625 -1.0625q-0.140625 -0.359375 -0.484375 -0.5625q-0.34375 -0.21875 -0.8125 -0.21875q-0.75 0 -1.296875 0.46875q-0.546875 0.46875 -0.546875 1.796875l0 3.78125l-1.171875 0zm10.802963 -2.515625l1.171875 -0.15625q0.203125 1.0 0.6875 1.4375q0.484375 0.4375 1.171875 0.4375q0.828125 0 1.390625 -0.578125q0.578125 -0.578125 0.578125 -1.421875q0 -0.796875 -0.53125 -1.3125q-0.515625 -0.53125 -1.328125 -0.53125q-0.34375 0 -0.828125 0.125l0.125 -1.03125q0.125 0.015625 0.1875 0.015625q0.75 0 1.34375 -0.390625q0.609375 -0.390625 0.609375 -1.203125q0 -0.640625 -0.4375 -1.0625q-0.4375 -0.421875 -1.125 -0.421875q-0.6875 0 -1.140625 0.4375q-0.453125 0.421875 -0.59375 1.28125l-1.171875 -0.21875q0.21875 -1.171875 0.984375 -1.8125q0.765625 -0.65625 1.890625 -0.65625q0.78125 0 1.4375 0.34375q0.65625 0.328125 1.0 0.90625q0.359375 0.578125 0.359375 1.234375q0 0.609375 -0.34375 1.125q-0.328125 0.5 -0.96875 0.796875q0.84375 0.203125 1.3125 0.828125q0.46875 0.609375 0.46875 1.53125q0 1.25 -0.921875 2.125q-0.90625 0.859375 -2.296875 0.859375q-1.25 0 -2.09375 -0.75q-0.828125 -0.75 -0.9375 -1.9375z" fill-rule="nonzero" />
        <path fill="#000000" d="m296.63684 41.950916l0 -8.421875l-3.140625 0l0 -1.125l7.5625 0l0 1.125l-3.15625 0l0 8.421875l-1.265625 0zm4.7819824 0l2.53125 -3.59375l-2.34375 -3.3125l1.46875 0l1.0625 1.609375q0.296875 0.46875 0.484375 0.78125q0.28125 -0.4375 0.515625 -0.765625l1.171875 -1.625l1.40625 0l-2.390625 3.25l2.5625 3.65625l-1.4375 0l-1.421875 -2.140625l-0.375 -0.59375l-1.8125 2.734375l-1.421875 0zm7.4453125 0l0 -6.90625l1.0625 0l0 0.984375q0.75 -1.140625 2.1875 -1.140625q0.625 0 1.15625 0.21875q0.53125 0.21875 0.78125 0.59375q0.265625 0.359375 0.375 0.859375q0.0625 0.328125 0.0625 1.140625l0 4.25l-1.171875 0l0 -4.203125q0 -0.71875 -0.140625 -1.0625q-0.140625 -0.359375 -0.484375 -0.5625q-0.34375 -0.21875 -0.8125 -0.21875q-0.75 0 -1.296875 0.46875q-0.546875 0.46875 -0.546875 1.796875l0 3.78125l-1.171875 0zm14.552948 0l0 -2.28125l-4.140625 0l0 -1.078125l4.34375 -6.1875l0.96875 0l0 6.1875l1.28125 0l0 1.078125l-1.28125 0l0 2.28125l-1.171875 0zm0 -3.359375l0 -4.296875l-2.984375 4.296875l2.984375 0z" fill-rule="nonzero" />
        <path fill="#000000" d="m372.63684 41.950916l0 -8.421875l-3.140625 0l0 -1.125l7.5625 0l0 1.125l-3.15625 0l0 8.421875l-1.265625 0zm4.7819824 0l2.53125 -3.59375l-2.34375 -3.3125l1.46875 0l1.0625 1.609375q0.296875 0.46875 0.484375 0.78125q0.28125 -0.4375 0.515625 -0.765625l1.171875 -1.625l1.40625 0l-2.390625 3.25l2.5625 3.65625l-1.4375 0l-1.421875 -2.140625l-0.375 -0.59375l-1.8125 2.734375l-1.421875 0zm7.4453125 0l0 -6.90625l1.0625 0l0 0.984375q0.75 -1.140625 2.1875 -1.140625q0.625 0 1.15625 0.21875q0.53125 0.21875 0.78125 0.59375q0.265625 0.359375 0.375 0.859375q0.0625 0.328125 0.0625 1.140625l0 4.25l-1.171875 0l0 -4.203125q0 -0.71875 -0.140625 -1.0625q-0.140625 -0.359375 -0.484375 -0.5625q-0.34375 -0.21875 -0.8125 -0.21875q-0.75 0 -1.296875 0.46875q-0.546875 0.46875 -0.546875 1.796875l0 3.78125l-1.171875 0zm10.787323 -2.5l1.234375 -0.109375q0.140625 0.90625 0.640625 1.359375q0.5 0.453125 1.203125 0.453125q0.84375 0 1.421875 -0.640625q0.59375 -0.640625 0.59375 -1.6875q0 -1.0 -0.5625 -1.578125q-0.5625 -0.59375 -1.484375 -0.59375q-0.5625 0 -1.015625 0.265625q-0.453125 0.25 -0.71875 0.671875l-1.09375 -0.15625l0.921875 -4.890625l4.75 0l0 1.109375l-3.8125 0l-0.515625 2.5625q0.859375 -0.59375 1.796875 -0.59375q1.25 0 2.109375 0.875q0.859375 0.859375 0.859375 2.21875q0 1.296875 -0.75 2.234375q-0.921875 1.15625 -2.5 1.15625q-1.3125 0 -2.140625 -0.71875q-0.8125 -0.734375 -0.9375 -1.9375z" fill-rule="nonzero" />
        <path fill="#000000" d="m448.63684 41.950916l0 -8.421875l-3.140625 0l0 -1.125l7.5625 0l0 1.125l-3.15625 0l0 8.421875l-1.265625 0zm4.7819824 0l2.53125 -3.59375l-2.34375 -3.3125l1.46875 0l1.0625 1.609375q0.296875 0.46875 0.484375 0.78125q0.28125 -0.4375 0.515625 -0.765625l1.171875 -1.625l1.40625 0l-2.390625 3.25l2.5625 3.65625l-1.4375 0l-1.421875 -2.140625l-0.375 -0.59375l-1.8125 2.734375l-1.421875 0zm7.4453125 0l0 -6.90625l1.0625 0l0 0.984375q0.75 -1.140625 2.1875 -1.140625q0.625 0 1.15625 0.21875q0.53125 0.21875 0.78125 0.59375q0.265625 0.359375 0.375 0.859375q0.0625 0.328125 0.0625 1.140625l0 4.25l-1.171875 0l0 -4.203125q0 -0.71875 -0.140625 -1.0625q-0.140625 -0.359375 -0.484375 -0.5625q-0.34375 -0.21875 -0.8125 -0.21875q-0.75 0 -1.296875 0.46875q-0.546875 0.46875 -0.546875 1.796875l0 3.78125l-1.171875 0zm16.865448 -7.203125l-1.15625 0.09375q-0.15625 -0.6875 -0.4375 -1.0q-0.484375 -0.5 -1.171875 -0.5q-0.5625 0 -0.984375 0.3125q-0.5625 0.390625 -0.890625 1.171875q-0.3125 0.765625 -0.3125 2.203125q0.421875 -0.640625 1.03125 -0.953125q0.609375 -0.3125 1.28125 -0.3125q1.171875 0 1.984375 0.859375q0.828125 0.859375 0.828125 2.234375q0 0.890625 -0.390625 1.671875q-0.375 0.765625 -1.0625 1.171875q-0.671875 0.40625 -1.53125 0.40625q-1.46875 0 -2.390625 -1.0625q-0.921875 -1.078125 -0.921875 -3.5625q0 -2.765625 1.015625 -4.015625q0.90625 -1.09375 2.40625 -1.09375q1.125 0 1.84375 0.640625q0.71875 0.625 0.859375 1.734375zm-4.78125 4.109375q0 0.609375 0.25 1.171875q0.265625 0.546875 0.71875 0.84375q0.46875 0.28125 0.984375 0.28125q0.734375 0 1.265625 -0.59375q0.546875 -0.609375 0.546875 -1.640625q0 -0.984375 -0.53125 -1.546875q-0.53125 -0.578125 -1.328125 -0.578125q-0.796875 0 -1.359375 0.578125q-0.546875 0.5625 -0.546875 1.484375z" fill-rule="nonzero" />
        <path fill="#000000" d="m524.63684 41.950916l0 -8.421875l-3.140625 0l0 -1.125l7.5625 0l0 1.125l-3.15625 0l0 8.421875l-1.265625 0zm4.7819824 0l2.53125 -3.59375l-2.34375 -3.3125l1.46875 0l1.0625 1.609375q0.296875 0.46875 0.484375 0.78125q0.28125 -0.4375 0.515625 -0.765625l1.171875 -1.625l1.40625 0l-2.390625 3.25l2.5625 3.65625l-1.4375 0l-1.421875 -2.140625l-0.375 -0.59375l-1.8125 2.734375l-1.421875 0zm7.4453125 0l0 -6.90625l1.0625 0l0 0.984375q0.75 -1.140625 2.1875 -1.140625q0.625 0 1.15625 0.21875q0.53125 0.21875 0.78125 0.59375q0.265625 0.359375 0.375 0.859375q0.0625 0.328125 0.0625 1.140625l0 4.25l-1.171875 0l0 -4.203125q0 -0.71875 -0.140625 -1.0625q-0.140625 -0.359375 -0.484375 -0.5625q-0.34375 -0.21875 -0.8125 -0.21875q-0.75 0 -1.296875 0.46875q-0.546875 0.46875 -0.546875 1.796875l0 3.78125l-1.171875 0zm10.8654785 -8.296875l0 -1.125l6.1875 0l0 0.921875q-0.921875 0.96875 -1.8125 2.578125q-0.890625 1.59375 -1.375 3.296875q-0.359375 1.203125 -0.453125 2.625l-1.203125 0q0.015625 -1.125 0.4375 -2.71875q0.421875 -1.59375 1.203125 -3.078125q0.796875 -1.484375 1.6875 -2.5l-4.671875 0z" fill-rule="nonzero" />
        <path fill="#000000" d="m600.63684 41.950916l0 -8.421875l-3.140625 0l0 -1.125l7.5625 0l0 1.125l-3.15625 0l0 8.421875l-1.265625 0zm4.7819824 0l2.53125 -3.59375l-2.34375 -3.3125l1.46875 0l1.0625 1.609375q0.296875 0.46875 0.484375 0.78125q0.28125 -0.4375 0.515625 -0.765625l1.171875 -1.625l1.40625 0l-2.390625 3.25l2.5625 3.65625l-1.4375 0l-1.421875 -2.140625l-0.375 -0.59375l-1.8125 2.734375l-1.421875 0zm7.4453125 0l0 -6.90625l1.0625 0l0 0.984375q0.75 -1.140625 2.1875 -1.140625q0.625 0 1.15625 0.21875q0.53125 0.21875 0.78125 0.59375q0.265625 0.359375 0.375 0.859375q0.0625 0.328125 0.0625 1.140625l0 4.25l-1.171875 0l0 -4.203125q0 -0.71875 -0.140625 -1.0625q-0.140625 -0.359375 -0.484375 -0.5625q-0.34375 -0.21875 -0.8125 -0.21875q-0.75 0 -1.296875 0.46875q-0.546875 0.46875 -0.546875 1.796875l0 3.78125l-1.171875 0zm12.5998535 -5.171875q-0.734375 -0.265625 -1.09375 -0.765625q-0.34375 -0.5 -0.34375 -1.1875q0 -1.03125 0.75 -1.734375q0.75 -0.71875 1.984375 -0.71875q1.25 0 2.015625 0.734375q0.765625 0.71875 0.765625 1.75q0 0.671875 -0.359375 1.171875q-0.34375 0.484375 -1.046875 0.75q0.875 0.28125 1.328125 0.921875q0.46875 0.640625 0.46875 1.515625q0 1.234375 -0.875 2.0625q-0.859375 0.828125 -2.265625 0.828125q-1.421875 0 -2.28125 -0.828125q-0.859375 -0.84375 -0.859375 -2.09375q0 -0.921875 0.46875 -1.546875q0.46875 -0.640625 1.34375 -0.859375zm-0.234375 -1.984375q0 0.671875 0.4375 1.109375q0.4375 0.421875 1.125 0.421875q0.671875 0 1.109375 -0.421875q0.4375 -0.421875 0.4375 -1.046875q0 -0.640625 -0.453125 -1.078125q-0.4375 -0.4375 -1.109375 -0.4375q-0.671875 0 -1.109375 0.4375q-0.4375 0.421875 -0.4375 1.015625zm-0.375 4.40625q0 0.5 0.234375 0.96875q0.234375 0.46875 0.703125 0.734375q0.46875 0.25 1.015625 0.25q0.828125 0 1.375 -0.53125q0.546875 -0.546875 0.546875 -1.390625q0 -0.84375 -0.5625 -1.390625q-0.5625 -0.5625 -1.40625 -0.5625q-0.828125 0 -1.375 0.546875q-0.53125 0.546875 -0.53125 1.375z" fill-rule="nonzero" />
        <path fill="#000000" d="m676.63684 41.950916l0 -8.421875l-3.140625 0l0 -1.125l7.5625 0l0 1.125l-3.15625 0l0 8.421875l-1.265625 0zm4.7819824 0l2.53125 -3.59375l-2.34375 -3.3125l1.46875 0l1.0625 1.609375q0.296875 0.46875 0.484375 0.78125q0.28125 -0.4375 0.515625 -0.765625l1.171875 -1.625l1.40625 0l-2.390625 3.25l2.5625 3.65625l-1.4375 0l-1.421875 -2.140625l-0.375 -0.59375l-1.8125 2.734375l-1.421875 0zm7.4453125 0l0 -6.90625l1.0625 0l0 0.984375q0.75 -1.140625 2.1875 -1.140625q0.625 0 1.15625 0.21875q0.53125 0.21875 0.78125 0.59375q0.265625 0.359375 0.375 0.859375q0.0625 0.328125 0.0625 1.140625l0 4.25l-1.171875 0l0 -4.203125q0 -0.71875 -0.140625 -1.0625q-0.140625 -0.359375 -0.484375 -0.5625q-0.34375 -0.21875 -0.8125 -0.21875q-0.75 0 -1.296875 0.46875q-0.546875 0.46875 -0.546875 1.796875l0 3.78125l-1.171875 0zm10.9748535 -2.203125l1.125 -0.109375q0.140625 0.796875 0.546875 1.15625q0.40625 0.359375 1.03125 0.359375q0.53125 0 0.9375 -0.25q0.421875 -0.25 0.671875 -0.65625q0.265625 -0.421875 0.4375 -1.125q0.171875 -0.703125 0.171875 -1.421875q0 -0.078125 0 -0.234375q-0.359375 0.546875 -0.96875 0.90625q-0.59375 0.34375 -1.3125 0.34375q-1.1875 0 -2.015625 -0.859375q-0.8125 -0.859375 -0.8125 -2.265625q0 -1.453125 0.859375 -2.328125q0.859375 -0.890625 2.140625 -0.890625q0.9375 0 1.703125 0.5q0.78125 0.5 1.171875 1.4375q0.40625 0.921875 0.40625 2.671875q0 1.828125 -0.40625 2.921875q-0.390625 1.078125 -1.171875 1.640625q-0.78125 0.5625 -1.84375 0.5625q-1.109375 0 -1.828125 -0.609375q-0.703125 -0.625 -0.84375 -1.75zm4.796875 -4.21875q0 -1.0 -0.546875 -1.59375q-0.53125 -0.59375 -1.28125 -0.59375q-0.78125 0 -1.375 0.640625q-0.578125 0.640625 -0.578125 1.65625q0 0.90625 0.546875 1.484375q0.5625 0.5625 1.359375 0.5625q0.828125 0 1.34375 -0.5625q0.53125 -0.578125 0.53125 -1.59375z" fill-rule="nonzero" />
        <path fill="#000000" d="m748.9306 41.950916l0 -8.421875l-3.140625 0l0 -1.125l7.5625 0l0 1.125l-3.15625 0l0 8.421875l-1.265625 0zm4.7819824 0l2.53125 -3.59375l-2.34375 -3.3125l1.46875 0l1.0625 1.609375q0.296875 0.46875 0.484375 0.78125q0.28125 -0.4375 0.515625 -0.765625l1.171875 -1.625l1.40625 0l-2.390625 3.25l2.5625 3.65625l-1.4375 0l-1.421875 -2.140625l-0.375 -0.59375l-1.8125 2.734375l-1.421875 0zm7.4453125 0l0 -6.90625l1.0625 0l0 0.984375q0.75 -1.140625 2.1875 -1.140625q0.625 0 1.15625 0.21875q0.53125 0.21875 0.78125 0.59375q0.265625 0.359375 0.375 0.859375q0.0625 0.328125 0.0625 1.140625l0 4.25l-1.171875 0l0 -4.203125q0 -0.71875 -0.140625 -1.0625q-0.140625 -0.359375 -0.484375 -0.5625q-0.34375 -0.21875 -0.8125 -0.21875q-0.75 0 -1.296875 0.46875q-0.546875 0.46875 -0.546875 1.796875l0 3.78125l-1.171875 0zm15.2092285 0l-1.171875 0l0 -7.46875q-0.421875 0.40625 -1.109375 0.8125q-0.6875 0.40625 -1.234375 0.609375l0 -1.140625q0.984375 -0.453125 1.71875 -1.109375q0.734375 -0.671875 1.03125 -1.28125l0.765625 0l0 9.578125zm2.9906006 -4.703125q0 -1.6875 0.34375 -2.71875q0.359375 -1.03125 1.046875 -1.59375q0.6875 -0.5625 1.71875 -0.5625q0.78125 0 1.359375 0.3125q0.578125 0.296875 0.953125 0.890625q0.375 0.578125 0.59375 1.421875q0.21875 0.828125 0.21875 2.25q0 1.671875 -0.359375 2.703125q-0.34375 1.03125 -1.03125 1.59375q-0.671875 0.5625 -1.734375 0.5625q-1.375 0 -2.15625 -0.984375q-0.953125 -1.1875 -0.953125 -3.875zm1.203125 0q0 2.34375 0.546875 3.125q0.5625 0.78125 1.359375 0.78125q0.8125 0 1.359375 -0.78125q0.5625 -0.78125 0.5625 -3.125q0 -2.359375 -0.5625 -3.125q-0.546875 -0.78125 -1.359375 -0.78125q-0.8125 0 -1.296875 0.6875q-0.609375 0.875 -0.609375 3.21875z" fill-rule="nonzero" />
        <path fill="#000000" d="m64.78021 77.92434l0 -1.171875q-0.875 -0.109375 -1.421875 -0.390625q-0.546875 -0.28125 -0.953125 -0.90625q-0.390625 -0.640625 -0.46875 -1.5625l1.1875 -0.21875q0.140625 0.953125 0.484375 1.390625q0.484375 0.625 1.171875 0.703125l0 -3.734375q-0.71875 -0.140625 -1.46875 -0.5625q-0.5625 -0.3125 -0.875 -0.859375q-0.296875 -0.5625 -0.296875 -1.265625q0 -1.25 0.890625 -2.015625q0.59375 -0.53125 1.75 -0.640625l0 -0.5625l0.703125 0l0 0.5625q1.015625 0.09375 1.609375 0.59375q0.765625 0.640625 0.921875 1.75l-1.203125 0.1875q-0.109375 -0.6875 -0.4375 -1.046875q-0.328125 -0.375 -0.890625 -0.5l0 3.375q0.875 0.234375 1.171875 0.359375q0.546875 0.234375 0.890625 0.578125q0.34375 0.34375 0.515625 0.828125q0.1875 0.46875 0.1875 1.015625q0 1.21875 -0.78125 2.03125q-0.765625 0.8125 -1.984375 0.875l0 1.1875l-0.703125 0zm0 -10.265625q-0.671875 0.109375 -1.078125 0.5625q-0.390625 0.4375 -0.390625 1.046875q0 0.59375 0.328125 1.0q0.34375 0.390625 1.140625 0.640625l0 -3.25zm0.703125 8.109375q0.671875 -0.09375 1.109375 -0.59375q0.453125 -0.515625 0.453125 -1.265625q0 -0.640625 -0.3125 -1.015625q-0.3125 -0.390625 -1.25 -0.703125l0 3.578125zm8.365601 0.78125l-1.171875 0l0 -7.46875q-0.421875 0.40625 -1.109375 0.8125q-0.6875 0.40625 -1.234375 0.609375l0 -1.140625q0.984375 -0.453125 1.71875 -1.109375q0.734375 -0.671875 1.03125 -1.28125l0.765625 0l0 9.578125zm3.0062256 -2.515625l1.171875 -0.15625q0.203125 1.0 0.6875 1.4375q0.484375 0.4375 1.171875 0.4375q0.828125 0 1.390625 -0.578125q0.578125 -0.578125 0.578125 -1.421875q0 -0.796875 -0.53125 -1.3125q-0.515625 -0.53125 -1.328125 -0.53125q-0.34375 0 -0.828125 0.125l0.125 -1.03125q0.125 0.015625 0.1875 0.015625q0.75 0 1.34375 -0.390625q0.609375 -0.390625 0.609375 -1.203125q0 -0.640625 -0.4375 -1.0625q-0.4375 -0.421875 -1.125 -0.421875q-0.6875 0 -1.140625 0.4375q-0.453125 0.421875 -0.59375 1.28125l-1.171875 -0.21875q0.21875 -1.171875 0.984375 -1.8125q0.765625 -0.65625 1.890625 -0.65625q0.78125 0 1.4375 0.34375q0.65625 0.328125 1.0 0.90625q0.359375 0.578125 0.359375 1.234375q0 0.609375 -0.34375 1.125q-0.328125 0.5 -0.96875 0.796875q0.84375 0.203125 1.3125 0.828125q0.46875 0.609375 0.46875 1.53125q0 1.25 -0.921875 2.125q-0.90625 0.859375 -2.296875 0.859375q-1.25 0 -2.09375 -0.75q-0.828125 -0.75 -0.9375 -1.9375zm8.053101 2.515625l0 -1.328125l1.34375 0l0 1.328125l-1.34375 0zm3.0467377 -4.703125q0 -1.6875 0.34375 -2.71875q0.359375 -1.03125 1.046875 -1.59375q0.6875 -0.5625 1.71875 -0.5625q0.78125 0 1.359375 0.3125q0.578125 0.296875 0.953125 0.890625q0.375 0.578125 0.59375 1.421875q0.21875 0.828125 0.21875 2.25q0 1.671875 -0.359375 2.703125q-0.34375 1.03125 -1.03125 1.59375q-0.671875 0.5625 -1.734375 0.5625q-1.375 0 -2.15625 -0.984375q-0.953125 -1.1875 -0.953125 -3.875zm1.203125 0q0 2.34375 0.546875 3.125q0.5625 0.78125 1.359375 0.78125q0.8125 0 1.359375 -0.78125q0.5625 -0.78125 0.5625 -3.125q0 -2.359375 -0.5625 -3.125q-0.546875 -0.78125 -1.359375 -0.78125q-0.8125 0 -1.296875 0.6875q-0.609375 0.875 -0.609375 3.21875zm10.631226 4.703125l-1.171875 0l0 -7.46875q-0.421875 0.40625 -1.109375 0.8125q-0.6875 0.40625 -1.234375 0.609375l0 -1.140625q0.984375 -0.453125 1.71875 -1.109375q0.734375 -0.671875 1.03125 -1.28125l0.765625 0l0 9.578125z" fill-rule="nonzero" />
        <path fill="#000000" d="m140.78021 77.92434l0 -1.171875q-0.875 -0.109375 -1.421875 -0.390625q-0.546875 -0.28125 -0.953125 -0.90625q-0.390625 -0.640625 -0.46875 -1.5625l1.1875 -0.21875q0.140625 0.953125 0.484375 1.390625q0.484375 0.625 1.171875 0.703125l0 -3.734375q-0.71875 -0.140625 -1.46875 -0.5625q-0.5625 -0.3125 -0.875 -0.859375q-0.296875 -0.5625 -0.296875 -1.265625q0 -1.25 0.890625 -2.015625q0.59375 -0.53125 1.75 -0.640625l0 -0.5625l0.703125 0l0 0.5625q1.015625 0.09375 1.609375 0.59375q0.765625 0.640625 0.921875 1.75l-1.203125 0.1875q-0.109375 -0.6875 -0.4375 -1.046875q-0.328125 -0.375 -0.890625 -0.5l0 3.375q0.875 0.234375 1.171875 0.359375q0.546875 0.234375 0.890625 0.578125q0.34375 0.34375 0.515625 0.828125q0.1875 0.46875 0.1875 1.015625q0 1.21875 -0.78125 2.03125q-0.765625 0.8125 -1.984375 0.875l0 1.1875l-0.703125 0zm0 -10.265625q-0.671875 0.109375 -1.078125 0.5625q-0.390625 0.4375 -0.390625 1.046875q0 0.59375 0.328125 1.0q0.34375 0.390625 1.140625 0.640625l0 -3.25zm0.703125 8.109375q0.671875 -0.09375 1.109375 -0.59375q0.453125 -0.515625 0.453125 -1.265625q0 -0.640625 -0.3125 -1.015625q-0.3125 -0.390625 -1.25 -0.703125l0 3.578125zm10.099976 -0.34375l0 1.125l-6.296875 0q-0.015625 -0.421875 0.140625 -0.8125q0.234375 -0.640625 0.765625 -1.265625q0.53125 -0.625 1.53125 -1.453125q1.5625 -1.265625 2.109375 -2.015625q0.546875 -0.75 0.546875 -1.40625q0 -0.703125 -0.5 -1.171875q-0.5 -0.484375 -1.296875 -0.484375q-0.859375 0 -1.375 0.515625q-0.5 0.5 -0.5 1.390625l-1.203125 -0.109375q0.125 -1.359375 0.921875 -2.0625q0.8125 -0.703125 2.171875 -0.703125q1.375 0 2.171875 0.765625q0.8125 0.75 0.8125 1.875q0 0.578125 -0.234375 1.140625q-0.234375 0.546875 -0.78125 1.15625q-0.546875 0.609375 -1.8125 1.671875q-1.046875 0.890625 -1.359375 1.21875q-0.296875 0.3125 -0.484375 0.625l4.671875 0zm1.2562256 -1.375l1.234375 -0.109375q0.140625 0.90625 0.640625 1.359375q0.5 0.453125 1.203125 0.453125q0.84375 0 1.421875 -0.640625q0.59375 -0.640625 0.59375 -1.6875q0 -1.0 -0.5625 -1.578125q-0.5625 -0.59375 -1.484375 -0.59375q-0.5625 0 -1.015625 0.265625q-0.453125 0.25 -0.71875 0.671875l-1.09375 -0.15625l0.921875 -4.890625l4.75 0l0 1.109375l-3.8125 0l-0.515625 2.5625q0.859375 -0.59375 1.796875 -0.59375q1.25 0 2.109375 0.875q0.859375 0.859375 0.859375 2.21875q0 1.296875 -0.75 2.234375q-0.921875 1.15625 -2.5 1.15625q-1.3125 0 -2.140625 -0.71875q-0.8125 -0.734375 -0.9375 -1.9375zm8.068726 2.5l0 -1.328125l1.34375 0l0 1.328125l-1.34375 0zm3.0467377 -4.703125q0 -1.6875 0.34375 -2.71875q0.359375 -1.03125 1.046875 -1.59375q0.6875 -0.5625 1.71875 -0.5625q0.78125 0 1.359375 0.3125q0.578125 0.296875 0.953125 0.890625q0.375 0.578125 0.59375 1.421875q0.21875 0.828125 0.21875 2.25q0 1.671875 -0.359375 2.703125q-0.34375 1.03125 -1.03125 1.59375q-0.671875 0.5625 -1.734375 0.5625q-1.375 0 -2.15625 -0.984375q-0.953125 -1.1875 -0.953125 -3.875zm1.203125 0q0 2.34375 0.546875 3.125q0.5625 0.78125 1.359375 0.78125q0.8125 0 1.359375 -0.78125q0.5625 -0.78125 0.5625 -3.125q0 -2.359375 -0.5625 -3.125q-0.546875 -0.78125 -1.359375 -0.78125q-0.8125 0 -1.296875 0.6875q-0.609375 0.875 -0.609375 3.21875zm6.2093506 0q0 -1.6875 0.34375 -2.71875q0.359375 -1.03125 1.046875 -1.59375q0.6875 -0.5625 1.71875 -0.5625q0.78125 0 1.359375 0.3125q0.578125 0.296875 0.953125 0.890625q0.375 0.578125 0.59375 1.421875q0.21875 0.828125 0.21875 2.25q0 1.671875 -0.359375 2.703125q-0.34375 1.03125 -1.03125 1.59375q-0.671875 0.5625 -1.734375 0.5625q-1.375 0 -2.15625 -0.984375q-0.953125 -1.1875 -0.953125 -3.875zm1.203125 0q0 2.34375 0.546875 3.125q0.5625 0.78125 1.359375 0.78125q0.8125 0 1.359375 -0.78125q0.5625 -0.78125 0.5625 -3.125q0 -2.359375 -0.5625 -3.125q-0.546875 -0.78125 -1.359375 -0.78125q-0.8125 0 -1.296875 0.6875q-0.609375 0.875 -0.609375 3.21875z" fill-rule="nonzero" />
        <path fill="#000000" d="m220.48645 77.92434l0 -1.171875q-0.875 -0.109375 -1.421875 -0.390625q-0.546875 -0.28125 -0.953125 -0.90625q-0.390625 -0.640625 -0.46875 -1.5625l1.1875 -0.21875q0.140625 0.953125 0.484375 1.390625q0.484375 0.625 1.171875 0.703125l0 -3.734375q-0.71875 -0.140625 -1.46875 -0.5625q-0.5625 -0.3125 -0.875 -0.859375q-0.296875 -0.5625 -0.296875 -1.265625q0 -1.25 0.890625 -2.015625q0.59375 -0.53125 1.75 -0.640625l0 -0.5625l0.703125 0l0 0.5625q1.015625 0.09375 1.609375 0.59375q0.765625 0.640625 0.921875 1.75l-1.203125 0.1875q-0.109375 -0.6875 -0.4375 -1.046875q-0.328125 -0.375 -0.890625 -0.5l0 3.375q0.875 0.234375 1.171875 0.359375q0.546875 0.234375 0.890625 0.578125q0.34375 0.34375 0.515625 0.828125q0.1875 0.46875 0.1875 1.015625q0 1.21875 -0.78125 2.03125q-0.765625 0.8125 -1.984375 0.875l0 1.1875l-0.703125 0zm0 -10.265625q-0.671875 0.109375 -1.078125 0.5625q-0.390625 0.4375 -0.390625 1.046875q0 0.59375 0.328125 1.0q0.34375 0.390625 1.140625 0.640625l0 -3.25zm0.703125 8.109375q0.671875 -0.09375 1.109375 -0.59375q0.453125 -0.515625 0.453125 -1.265625q0 -0.640625 -0.3125 -1.015625q-0.3125 -0.390625 -1.25 -0.703125l0 3.578125zm3.9437256 -3.921875q0 -1.6875 0.34375 -2.71875q0.359375 -1.03125 1.046875 -1.59375q0.6875 -0.5625 1.71875 -0.5625q0.78125 0 1.359375 0.3125q0.578125 0.296875 0.953125 0.890625q0.375 0.578125 0.59375 1.421875q0.21875 0.828125 0.21875 2.25q0 1.671875 -0.359375 2.703125q-0.34375 1.03125 -1.03125 1.59375q-0.671875 0.5625 -1.734375 0.5625q-1.375 0 -2.15625 -0.984375q-0.953125 -1.1875 -0.953125 -3.875zm1.203125 0q0 2.34375 0.546875 3.125q0.5625 0.78125 1.359375 0.78125q0.8125 0 1.359375 -0.78125q0.5625 -0.78125 0.5625 -3.125q0 -2.359375 -0.5625 -3.125q-0.546875 -0.78125 -1.359375 -0.78125q-0.8125 0 -1.296875 0.6875q-0.609375 0.875 -0.609375 3.21875zm6.8656006 4.703125l0 -1.328125l1.34375 0l0 1.328125l-1.34375 0zm3.0467377 -4.703125q0 -1.6875 0.34375 -2.71875q0.359375 -1.03125 1.046875 -1.59375q0.6875 -0.5625 1.71875 -0.5625q0.78125 0 1.359375 0.3125q0.578125 0.296875 0.953125 0.890625q0.375 0.578125 0.59375 1.421875q0.21875 0.828125 0.21875 2.25q0 1.671875 -0.359375 2.703125q-0.34375 1.03125 -1.03125 1.59375q-0.671875 0.5625 -1.734375 0.5625q-1.375 0 -2.15625 -0.984375q-0.953125 -1.1875 -0.953125 -3.875zm1.203125 0q0 2.34375 0.546875 3.125q0.5625 0.78125 1.359375 0.78125q0.8125 0 1.359375 -0.78125q0.5625 -0.78125 0.5625 -3.125q0 -2.359375 -0.5625 -3.125q-0.546875 -0.78125 -1.359375 -0.78125q-0.8125 0 -1.296875 0.6875q-0.609375 0.875 -0.609375 3.21875zm6.3968506 2.5l1.125 -0.109375q0.140625 0.796875 0.546875 1.15625q0.40625 0.359375 1.03125 0.359375q0.53125 0 0.9375 -0.25q0.421875 -0.25 0.671875 -0.65625q0.265625 -0.421875 0.4375 -1.125q0.171875 -0.703125 0.171875 -1.421875q0 -0.078125 0 -0.234375q-0.359375 0.546875 -0.96875 0.90625q-0.59375 0.34375 -1.3125 0.34375q-1.1875 0 -2.015625 -0.859375q-0.8125 -0.859375 -0.8125 -2.265625q0 -1.453125 0.859375 -2.328125q0.859375 -0.890625 2.140625 -0.890625q0.9375 0 1.703125 0.5q0.78125 0.5 1.171875 1.4375q0.40625 0.921875 0.40625 2.671875q0 1.828125 -0.40625 2.921875q-0.390625 1.078125 -1.171875 1.640625q-0.78125 0.5625 -1.84375 0.5625q-1.109375 0 -1.828125 -0.609375q-0.703125 -0.625 -0.84375 -1.75zm4.796875 -4.21875q0 -1.0 -0.546875 -1.59375q-0.53125 -0.59375 -1.28125 -0.59375q-0.78125 0 -1.375 0.640625q-0.578125 0.640625 -0.578125 1.65625q0 0.90625 0.546875 1.484375q0.5625 0.5625 1.359375 0.5625q0.828125 0 1.34375 -0.5625q0.53125 -0.578125 0.53125 -1.59375z" fill-rule="nonzero" />
        <path fill="#000000" d="m289.07397 77.92434l0 -1.171875q-0.875 -0.109375 -1.421875 -0.390625q-0.546875 -0.28125 -0.953125 -0.90625q-0.390625 -0.640625 -0.46875 -1.5625l1.1875 -0.21875q0.140625 0.953125 0.484375 1.390625q0.484375 0.625 1.171875 0.703125l0 -3.734375q-0.71875 -0.140625 -1.46875 -0.5625q-0.5625 -0.3125 -0.875 -0.859375q-0.296875 -0.5625 -0.296875 -1.265625q0 -1.25 0.890625 -2.015625q0.59375 -0.53125 1.75 -0.640625l0 -0.5625l0.703125 0l0 0.5625q1.015625 0.09375 1.609375 0.59375q0.765625 0.640625 0.921875 1.75l-1.203125 0.1875q-0.109375 -0.6875 -0.4375 -1.046875q-0.328125 -0.375 -0.890625 -0.5l0 3.375q0.875 0.234375 1.171875 0.359375q0.546875 0.234375 0.890625 0.578125q0.34375 0.34375 0.515625 0.828125q0.1875 0.46875 0.1875 1.015625q0 1.21875 -0.78125 2.03125q-0.765625 0.8125 -1.984375 0.875l0 1.1875l-0.703125 0zm0 -10.265625q-0.671875 0.109375 -1.078125 0.5625q-0.390625 0.4375 -0.390625 1.046875q0 0.59375 0.328125 1.0q0.34375 0.390625 1.140625 0.640625l0 -3.25zm0.703125 8.109375q0.671875 -0.09375 1.109375 -0.59375q0.453125 -0.515625 0.453125 -1.265625q0 -0.640625 -0.3125 -1.015625q-0.3125 -0.390625 -1.25 -0.703125l0 3.578125zm3.9437256 -1.71875l1.234375 -0.109375q0.140625 0.90625 0.640625 1.359375q0.5 0.453125 1.203125 0.453125q0.84375 0 1.421875 -0.640625q0.59375 -0.640625 0.59375 -1.6875q0 -1.0 -0.5625 -1.578125q-0.5625 -0.59375 -1.484375 -0.59375q-0.5625 0 -1.015625 0.265625q-0.453125 0.25 -0.71875 0.671875l-1.09375 -0.15625l0.921875 -4.890625l4.75 0l0 1.109375l-3.8125 0l-0.515625 2.5625q0.859375 -0.59375 1.796875 -0.59375q1.25 0 2.109375 0.875q0.859375 0.859375 0.859375 2.21875q0 1.296875 -0.75 2.234375q-0.921875 1.15625 -2.5 1.15625q-1.3125 0 -2.140625 -0.71875q-0.8125 -0.734375 -0.9375 -1.9375zm11.834351 2.5l-1.171875 0l0 -7.46875q-0.421875 0.40625 -1.109375 0.8125q-0.6875 0.40625 -1.234375 0.609375l0 -1.140625q0.984375 -0.453125 1.71875 -1.109375q0.734375 -0.671875 1.03125 -1.28125l0.765625 0l0 9.578125zm2.9906006 -4.703125q0 -1.6875 0.34375 -2.71875q0.359375 -1.03125 1.046875 -1.59375q0.6875 -0.5625 1.71875 -0.5625q0.78125 0 1.359375 0.3125q0.578125 0.296875 0.953125 0.890625q0.375 0.578125 0.59375 1.421875q0.21875 0.828125 0.21875 2.25q0 1.671875 -0.359375 2.703125q-0.34375 1.03125 -1.03125 1.59375q-0.671875 0.5625 -1.734375 0.5625q-1.375 0 -2.15625 -0.984375q-0.953125 -1.1875 -0.953125 -3.875zm1.203125 0q0 2.34375 0.546875 3.125q0.5625 0.78125 1.359375 0.78125q0.8125 0 1.359375 -0.78125q0.5625 -0.78125 0.5625 -3.125q0 -2.359375 -0.5625 -3.125q-0.546875 -0.78125 -1.359375 -0.78125q-0.8125 0 -1.296875 0.6875q-0.609375 0.875 -0.609375 3.21875zm6.8656006 4.703125l0 -1.328125l1.34375 0l0 1.328125l-1.34375 0zm3.0467224 -4.703125q0 -1.6875 0.34375 -2.71875q0.359375 -1.03125 1.046875 -1.59375q0.6875 -0.5625 1.71875 -0.5625q0.78125 0 1.359375 0.3125q0.578125 0.296875 0.953125 0.890625q0.375 0.578125 0.59375 1.421875q0.21875 0.828125 0.21875 2.25q0 1.671875 -0.359375 2.703125q-0.34375 1.03125 -1.03125 1.59375q-0.671875 0.5625 -1.734375 0.5625q-1.375 0 -2.15625 -0.984375q-0.953125 -1.1875 -0.953125 -3.875zm1.203125 0q0 2.34375 0.546875 3.125q0.5625 0.78125 1.359375 0.78125q0.8125 0 1.359375 -0.78125q0.5625 -0.78125 0.5625 -3.125q0 -2.359375 -0.5625 -3.125q-0.546875 -0.78125 -1.359375 -0.78125q-0.8125 0 -1.296875 0.6875q-0.609375 0.875 -0.609375 3.21875zm6.2093506 0q0 -1.6875 0.34375 -2.71875q0.359375 -1.03125 1.046875 -1.59375q0.6875 -0.5625 1.71875 -0.5625q0.78125 0 1.359375 0.3125q0.578125 0.296875 0.953125 0.890625q0.375 0.578125 0.59375 1.421875q0.21875 0.828125 0.21875 2.25q0 1.671875 -0.359375 2.703125q-0.34375 1.03125 -1.03125 1.59375q-0.671875 0.5625 -1.734375 0.5625q-1.375 0 -2.15625 -0.984375q-0.953125 -1.1875 -0.953125 -3.875zm1.203125 0q0 2.34375 0.546875 3.125q0.5625 0.78125 1.359375 0.78125q0.8125 0 1.359375 -0.78125q0.5625 -0.78125 0.5625 -3.125q0 -2.359375 -0.5625 -3.125q-0.546875 -0.78125 -1.359375 -0.78125q-0.8125 0 -1.296875 0.6875q-0.609375 0.875 -0.609375 3.21875z" fill-rule="nonzero" />
        <path fill="#000000" d="m365.07397 77.92434l0 -1.171875q-0.875 -0.109375 -1.421875 -0.390625q-0.546875 -0.28125 -0.953125 -0.90625q-0.390625 -0.640625 -0.46875 -1.5625l1.1875 -0.21875q0.140625 0.953125 0.484375 1.390625q0.484375 0.625 1.171875 0.703125l0 -3.734375q-0.71875 -0.140625 -1.46875 -0.5625q-0.5625 -0.3125 -0.875 -0.859375q-0.296875 -0.5625 -0.296875 -1.265625q0 -1.25 0.890625 -2.015625q0.59375 -0.53125 1.75 -0.640625l0 -0.5625l0.703125 0l0 0.5625q1.015625 0.09375 1.609375 0.59375q0.765625 0.640625 0.921875 1.75l-1.203125 0.1875q-0.109375 -0.6875 -0.4375 -1.046875q-0.328125 -0.375 -0.890625 -0.5l0 3.375q0.875 0.234375 1.171875 0.359375q0.546875 0.234375 0.890625 0.578125q0.34375 0.34375 0.515625 0.828125q0.1875 0.46875 0.1875 1.015625q0 1.21875 -0.78125 2.03125q-0.765625 0.8125 -1.984375 0.875l0 1.1875l-0.703125 0zm0 -10.265625q-0.671875 0.109375 -1.078125 0.5625q-0.390625 0.4375 -0.390625 1.046875q0 0.59375 0.328125 1.0q0.34375 0.390625 1.140625 0.640625l0 -3.25zm0.703125 8.109375q0.671875 -0.09375 1.109375 -0.59375q0.453125 -0.515625 0.453125 -1.265625q0 -0.640625 -0.3125 -1.015625q-0.3125 -0.390625 -1.25 -0.703125l0 3.578125zm8.365601 0.78125l-1.171875 0l0 -7.46875q-0.421875 0.40625 -1.109375 0.8125q-0.6875 0.40625 -1.234375 0.609375l0 -1.140625q0.984375 -0.453125 1.71875 -1.109375q0.734375 -0.671875 1.03125 -1.28125l0.765625 0l0 9.578125zm2.9906006 -4.703125q0 -1.6875 0.34375 -2.71875q0.359375 -1.03125 1.046875 -1.59375q0.6875 -0.5625 1.71875 -0.5625q0.78125 0 1.359375 0.3125q0.578125 0.296875 0.953125 0.890625q0.375 0.578125 0.59375 1.421875q0.21875 0.828125 0.21875 2.25q0 1.671875 -0.359375 2.703125q-0.34375 1.03125 -1.03125 1.59375q-0.671875 0.5625 -1.734375 0.5625q-1.375 0 -2.15625 -0.984375q-0.953125 -1.1875 -0.953125 -3.875zm1.203125 0q0 2.34375 0.546875 3.125q0.5625 0.78125 1.359375 0.78125q0.8125 0 1.359375 -0.78125q0.5625 -0.78125 0.5625 -3.125q0 -2.359375 -0.5625 -3.125q-0.546875 -0.78125 -1.359375 -0.78125q-0.8125 0 -1.296875 0.6875q-0.609375 0.875 -0.609375 3.21875zm12.365601 3.578125l0 1.125l-6.296875 0q-0.015625 -0.421875 0.140625 -0.8125q0.234375 -0.640625 0.765625 -1.265625q0.53125 -0.625 1.53125 -1.453125q1.5625 -1.265625 2.109375 -2.015625q0.546875 -0.75 0.546875 -1.40625q0 -0.703125 -0.5 -1.171875q-0.5 -0.484375 -1.296875 -0.484375q-0.859375 0 -1.375 0.515625q-0.5 0.5 -0.5 1.390625l-1.203125 -0.109375q0.125 -1.359375 0.921875 -2.0625q0.8125 -0.703125 2.171875 -0.703125q1.375 0 2.171875 0.765625q0.8125 0.75 0.8125 1.875q0 0.578125 -0.234375 1.140625q-0.234375 0.546875 -0.78125 1.15625q-0.546875 0.609375 -1.8125 1.671875q-1.046875 0.890625 -1.359375 1.21875q-0.296875 0.3125 -0.484375 0.625l4.671875 0zm1.9124756 1.125l0 -1.328125l1.34375 0l0 1.328125l-1.34375 0zm9.124847 -7.203125l-1.15625 0.09375q-0.15625 -0.6875 -0.4375 -1.0q-0.484375 -0.5 -1.171875 -0.5q-0.5625 0 -0.984375 0.3125q-0.5625 0.390625 -0.890625 1.171875q-0.3125 0.765625 -0.3125 2.203125q0.421875 -0.640625 1.03125 -0.953125q0.609375 -0.3125 1.28125 -0.3125q1.171875 0 1.984375 0.859375q0.828125 0.859375 0.828125 2.234375q0 0.890625 -0.390625 1.671875q-0.375 0.765625 -1.0625 1.171875q-0.671875 0.40625 -1.53125 0.40625q-1.46875 0 -2.390625 -1.0625q-0.921875 -1.078125 -0.921875 -3.5625q0 -2.765625 1.015625 -4.015625q0.90625 -1.09375 2.40625 -1.09375q1.125 0 1.84375 0.640625q0.71875 0.625 0.859375 1.734375zm-4.78125 4.109375q0 0.609375 0.25 1.171875q0.265625 0.546875 0.71875 0.84375q0.46875 0.28125 0.984375 0.28125q0.734375 0 1.265625 -0.59375q0.546875 -0.609375 0.546875 -1.640625q0 -0.984375 -0.53125 -1.546875q-0.53125 -0.578125 -1.328125 -0.578125q-0.796875 0 -1.359375 0.578125q-0.546875 0.5625 -0.546875 1.484375zm12.271851 1.96875l0 1.125l-6.296875 0q-0.015625 -0.421875 0.140625 -0.8125q0.234375 -0.640625 0.765625 -1.265625q0.53125 -0.625 1.53125 -1.453125q1.5625 -1.265625 2.109375 -2.015625q0.546875 -0.75 0.546875 -1.40625q0 -0.703125 -0.5 -1.171875q-0.5 -0.484375 -1.296875 -0.484375q-0.859375 0 -1.375 0.515625q-0.5 0.5 -0.5 1.390625l-1.203125 -0.109375q0.125 -1.359375 0.921875 -2.0625q0.8125 -0.703125 2.171875 -0.703125q1.375 0 2.171875 0.765625q0.8125 0.75 0.8125 1.875q0 0.578125 -0.234375 1.140625q-0.234375 0.546875 -0.78125 1.15625q-0.546875 0.609375 -1.8125 1.671875q-1.046875 0.890625 -1.359375 1.21875q-0.296875 0.3125 -0.484375 0.625l4.671875 0z" fill-rule="nonzero" />
        <path fill="#000000" d="m444.7802 77.92434l0 -1.171875q-0.875 -0.109375 -1.421875 -0.390625q-0.546875 -0.28125 -0.953125 -0.90625q-0.390625 -0.640625 -0.46875 -1.5625l1.1875 -0.21875q0.140625 0.953125 0.484375 1.390625q0.484375 0.625 1.171875 0.703125l0 -3.734375q-0.71875 -0.140625 -1.46875 -0.5625q-0.5625 -0.3125 -0.875 -0.859375q-0.296875 -0.5625 -0.296875 -1.265625q0 -1.25 0.890625 -2.015625q0.59375 -0.53125 1.75 -0.640625l0 -0.5625l0.703125 0l0 0.5625q1.015625 0.09375 1.609375 0.59375q0.765625 0.640625 0.921875 1.75l-1.203125 0.1875q-0.109375 -0.6875 -0.4375 -1.046875q-0.328125 -0.375 -0.890625 -0.5l0 3.375q0.875 0.234375 1.171875 0.359375q0.546875 0.234375 0.890625 0.578125q0.34375 0.34375 0.515625 0.828125q0.1875 0.46875 0.1875 1.015625q0 1.21875 -0.78125 2.03125q-0.765625 0.8125 -1.984375 0.875l0 1.1875l-0.703125 0zm0 -10.265625q-0.671875 0.109375 -1.078125 0.5625q-0.390625 0.4375 -0.390625 1.046875q0 0.59375 0.328125 1.0q0.34375 0.390625 1.140625 0.640625l0 -3.25zm0.703125 8.109375q0.671875 -0.09375 1.109375 -0.59375q0.453125 -0.515625 0.453125 -1.265625q0 -0.640625 -0.3125 -1.015625q-0.3125 -0.390625 -1.25 -0.703125l0 3.578125zm4.1312256 -1.421875l1.125 -0.109375q0.140625 0.796875 0.546875 1.15625q0.40625 0.359375 1.03125 0.359375q0.53125 0 0.9375 -0.25q0.421875 -0.25 0.671875 -0.65625q0.265625 -0.421875 0.4375 -1.125q0.171875 -0.703125 0.171875 -1.421875q0 -0.078125 0 -0.234375q-0.359375 0.546875 -0.96875 0.90625q-0.59375 0.34375 -1.3125 0.34375q-1.1875 0 -2.015625 -0.859375q-0.8125 -0.859375 -0.8125 -2.265625q0 -1.453125 0.859375 -2.328125q0.859375 -0.890625 2.140625 -0.890625q0.9375 0 1.703125 0.5q0.78125 0.5 1.171875 1.4375q0.40625 0.921875 0.40625 2.671875q0 1.828125 -0.40625 2.921875q-0.390625 1.078125 -1.171875 1.640625q-0.78125 0.5625 -1.84375 0.5625q-1.109375 0 -1.828125 -0.609375q-0.703125 -0.625 -0.84375 -1.75zm4.796875 -4.21875q0 -1.0 -0.546875 -1.59375q-0.53125 -0.59375 -1.28125 -0.59375q-0.78125 0 -1.375 0.640625q-0.578125 0.640625 -0.578125 1.65625q0 0.90625 0.546875 1.484375q0.5625 0.5625 1.359375 0.5625q0.828125 0 1.34375 -0.5625q0.53125 -0.578125 0.53125 -1.59375zm6.8499756 6.421875l-1.171875 0l0 -7.46875q-0.421875 0.40625 -1.109375 0.8125q-0.6875 0.40625 -1.234375 0.609375l0 -1.140625q0.984375 -0.453125 1.71875 -1.109375q0.734375 -0.671875 1.03125 -1.28125l0.765625 0l0 9.578125zm3.6468506 0l0 -1.328125l1.34375 0l0 1.328125l-1.34375 0zm3.0467224 -2.5l1.234375 -0.109375q0.140625 0.90625 0.640625 1.359375q0.5 0.453125 1.203125 0.453125q0.84375 0 1.421875 -0.640625q0.59375 -0.640625 0.59375 -1.6875q0 -1.0 -0.5625 -1.578125q-0.5625 -0.59375 -1.484375 -0.59375q-0.5625 0 -1.015625 0.265625q-0.453125 0.25 -0.71875 0.671875l-1.09375 -0.15625l0.921875 -4.890625l4.75 0l0 1.109375l-3.8125 0l-0.515625 2.5625q0.859375 -0.59375 1.796875 -0.59375q1.25 0 2.109375 0.875q0.859375 0.859375 0.859375 2.21875q0 1.296875 -0.75 2.234375q-0.921875 1.15625 -2.5 1.15625q-1.3125 0 -2.140625 -0.71875q-0.8125 -0.734375 -0.9375 -1.9375zm7.4124756 -2.203125q0 -1.6875 0.34375 -2.71875q0.359375 -1.03125 1.046875 -1.59375q0.6875 -0.5625 1.71875 -0.5625q0.78125 0 1.359375 0.3125q0.578125 0.296875 0.953125 0.890625q0.375 0.578125 0.59375 1.421875q0.21875 0.828125 0.21875 2.25q0 1.671875 -0.359375 2.703125q-0.34375 1.03125 -1.03125 1.59375q-0.671875 0.5625 -1.734375 0.5625q-1.375 0 -2.15625 -0.984375q-0.953125 -1.1875 -0.953125 -3.875zm1.203125 0q0 2.34375 0.546875 3.125q0.5625 0.78125 1.359375 0.78125q0.8125 0 1.359375 -0.78125q0.5625 -0.78125 0.5625 -3.125q0 -2.359375 -0.5625 -3.125q-0.546875 -0.78125 -1.359375 -0.78125q-0.8125 0 -1.296875 0.6875q-0.609375 0.875 -0.609375 3.21875z" fill-rule="nonzero" />
        <path fill="#000000" d="m524.48645 77.92434l0 -1.171875q-0.875 -0.109375 -1.421875 -0.390625q-0.546875 -0.28125 -0.953125 -0.90625q-0.390625 -0.640625 -0.46875 -1.5625l1.1875 -0.21875q0.140625 0.953125 0.484375 1.390625q0.484375 0.625 1.171875 0.703125l0 -3.734375q-0.71875 -0.140625 -1.46875 -0.5625q-0.5625 -0.3125 -0.875 -0.859375q-0.296875 -0.5625 -0.296875 -1.265625q0 -1.25 0.890625 -2.015625q0.59375 -0.53125 1.75 -0.640625l0 -0.5625l0.703125 0l0 0.5625q1.015625 0.09375 1.609375 0.59375q0.765625 0.640625 0.921875 1.75l-1.203125 0.1875q-0.109375 -0.6875 -0.4375 -1.046875q-0.328125 -0.375 -0.890625 -0.5l0 3.375q0.875 0.234375 1.171875 0.359375q0.546875 0.234375 0.890625 0.578125q0.34375 0.34375 0.515625 0.828125q0.1875 0.46875 0.1875 1.015625q0 1.21875 -0.78125 2.03125q-0.765625 0.8125 -1.984375 0.875l0 1.1875l-0.703125 0zm0 -10.265625q-0.671875 0.109375 -1.078125 0.5625q-0.390625 0.4375 -0.390625 1.046875q0 0.59375 0.328125 1.0q0.34375 0.390625 1.140625 0.640625l0 -3.25zm0.703125 8.109375q0.671875 -0.09375 1.109375 -0.59375q0.453125 -0.515625 0.453125 -1.265625q0 -0.640625 -0.3125 -1.015625q-0.3125 -0.390625 -1.25 -0.703125l0 3.578125zm3.9437256 -3.921875q0 -1.6875 0.34375 -2.71875q0.359375 -1.03125 1.046875 -1.59375q0.6875 -0.5625 1.71875 -0.5625q0.78125 0 1.359375 0.3125q0.578125 0.296875 0.953125 0.890625q0.375 0.578125 0.59375 1.421875q0.21875 0.828125 0.21875 2.25q0 1.671875 -0.359375 2.703125q-0.34375 1.03125 -1.03125 1.59375q-0.671875 0.5625 -1.734375 0.5625q-1.375 0 -2.15625 -0.984375q-0.953125 -1.1875 -0.953125 -3.875zm1.203125 0q0 2.34375 0.546875 3.125q0.5625 0.78125 1.359375 0.78125q0.8125 0 1.359375 -0.78125q0.5625 -0.78125 0.5625 -3.125q0 -2.359375 -0.5625 -3.125q-0.546875 -0.78125 -1.359375 -0.78125q-0.8125 0 -1.296875 0.6875q-0.609375 0.875 -0.609375 3.21875zm6.8656006 4.703125l0 -1.328125l1.34375 0l0 1.328125l-1.34375 0zm3.046753 -4.703125q0 -1.6875 0.34375 -2.71875q0.359375 -1.03125 1.046875 -1.59375q0.6875 -0.5625 1.71875 -0.5625q0.78125 0 1.359375 0.3125q0.578125 0.296875 0.953125 0.890625q0.375 0.578125 0.59375 1.421875q0.21875 0.828125 0.21875 2.25q0 1.671875 -0.359375 2.703125q-0.34375 1.03125 -1.03125 1.59375q-0.671875 0.5625 -1.734375 0.5625q-1.375 0 -2.15625 -0.984375q-0.953125 -1.1875 -0.953125 -3.875zm1.203125 0q0 2.34375 0.546875 3.125q0.5625 0.78125 1.359375 0.78125q0.8125 0 1.359375 -0.78125q0.5625 -0.78125 0.5625 -3.125q0 -2.359375 -0.5625 -3.125q-0.546875 -0.78125 -1.359375 -0.78125q-0.8125 0 -1.296875 0.6875q-0.609375 0.875 -0.609375 3.21875zm12.365601 3.578125l0 1.125l-6.296875 0q-0.015625 -0.421875 0.140625 -0.8125q0.234375 -0.640625 0.765625 -1.265625q0.53125 -0.625 1.53125 -1.453125q1.5625 -1.265625 2.109375 -2.015625q0.546875 -0.75 0.546875 -1.40625q0 -0.703125 -0.5 -1.171875q-0.5 -0.484375 -1.296875 -0.484375q-0.859375 0 -1.375 0.515625q-0.5 0.5 -0.5 1.390625l-1.203125 -0.109375q0.125 -1.359375 0.921875 -2.0625q0.8125 -0.703125 2.171875 -0.703125q1.375 0 2.171875 0.765625q0.8125 0.75 0.8125 1.875q0 0.578125 -0.234375 1.140625q-0.234375 0.546875 -0.78125 1.15625q-0.546875 0.609375 -1.8125 1.671875q-1.046875 0.890625 -1.359375 1.21875q-0.296875 0.3125 -0.484375 0.625l4.671875 0z" fill-rule="nonzero" />
        <path fill="#000000" d="m596.7802 77.92434l0 -1.171875q-0.875 -0.109375 -1.421875 -0.390625q-0.546875 -0.28125 -0.953125 -0.90625q-0.390625 -0.640625 -0.46875 -1.5625l1.1875 -0.21875q0.140625 0.953125 0.484375 1.390625q0.484375 0.625 1.171875 0.703125l0 -3.734375q-0.71875 -0.140625 -1.46875 -0.5625q-0.5625 -0.3125 -0.875 -0.859375q-0.296875 -0.5625 -0.296875 -1.265625q0 -1.25 0.890625 -2.015625q0.59375 -0.53125 1.75 -0.640625l0 -0.5625l0.703125 0l0 0.5625q1.015625 0.09375 1.609375 0.59375q0.765625 0.640625 0.921875 1.75l-1.203125 0.1875q-0.109375 -0.6875 -0.4375 -1.046875q-0.328125 -0.375 -0.890625 -0.5l0 3.375q0.875 0.234375 1.171875 0.359375q0.546875 0.234375 0.890625 0.578125q0.34375 0.34375 0.515625 0.828125q0.1875 0.46875 0.1875 1.015625q0 1.21875 -0.78125 2.03125q-0.765625 0.8125 -1.984375 0.875l0 1.1875l-0.703125 0zm0 -10.265625q-0.671875 0.109375 -1.078125 0.5625q-0.390625 0.4375 -0.390625 1.046875q0 0.59375 0.328125 1.0q0.34375 0.390625 1.140625 0.640625l0 -3.25zm0.703125 8.109375q0.671875 -0.09375 1.109375 -0.59375q0.453125 -0.515625 0.453125 -1.265625q0 -0.640625 -0.3125 -1.015625q-0.3125 -0.390625 -1.25 -0.703125l0 3.578125zm3.9593506 -1.734375l1.171875 -0.15625q0.203125 1.0 0.6875 1.4375q0.484375 0.4375 1.171875 0.4375q0.828125 0 1.390625 -0.578125q0.578125 -0.578125 0.578125 -1.421875q0 -0.796875 -0.53125 -1.3125q-0.515625 -0.53125 -1.328125 -0.53125q-0.34375 0 -0.828125 0.125l0.125 -1.03125q0.125 0.015625 0.1875 0.015625q0.75 0 1.34375 -0.390625q0.609375 -0.390625 0.609375 -1.203125q0 -0.640625 -0.4375 -1.0625q-0.4375 -0.421875 -1.125 -0.421875q-0.6875 0 -1.140625 0.4375q-0.453125 0.421875 -0.59375 1.28125l-1.171875 -0.21875q0.21875 -1.171875 0.984375 -1.8125q0.765625 -0.65625 1.890625 -0.65625q0.78125 0 1.4375 0.34375q0.65625 0.328125 1.0 0.90625q0.359375 0.578125 0.359375 1.234375q0 0.609375 -0.34375 1.125q-0.328125 0.5 -0.96875 0.796875q0.84375 0.203125 1.3125 0.828125q0.46875 0.609375 0.46875 1.53125q0 1.25 -0.921875 2.125q-0.90625 0.859375 -2.296875 0.859375q-1.25 0 -2.09375 -0.75q-0.828125 -0.75 -0.9375 -1.9375zm7.3968506 -2.1875q0 -1.6875 0.34375 -2.71875q0.359375 -1.03125 1.046875 -1.59375q0.6875 -0.5625 1.71875 -0.5625q0.78125 0 1.359375 0.3125q0.578125 0.296875 0.953125 0.890625q0.375 0.578125 0.59375 1.421875q0.21875 0.828125 0.21875 2.25q0 1.671875 -0.359375 2.703125q-0.34375 1.03125 -1.03125 1.59375q-0.671875 0.5625 -1.734375 0.5625q-1.375 0 -2.15625 -0.984375q-0.953125 -1.1875 -0.953125 -3.875zm1.203125 0q0 2.34375 0.546875 3.125q0.5625 0.78125 1.359375 0.78125q0.8125 0 1.359375 -0.78125q0.5625 -0.78125 0.5625 -3.125q0 -2.359375 -0.5625 -3.125q-0.546875 -0.78125 -1.359375 -0.78125q-0.8125 0 -1.296875 0.6875q-0.609375 0.875 -0.609375 3.21875zm6.8656006 4.703125l0 -1.328125l1.34375 0l0 1.328125l-1.34375 0zm3.046753 -4.703125q0 -1.6875 0.34375 -2.71875q0.359375 -1.03125 1.046875 -1.59375q0.6875 -0.5625 1.71875 -0.5625q0.78125 0 1.359375 0.3125q0.578125 0.296875 0.953125 0.890625q0.375 0.578125 0.59375 1.421875q0.21875 0.828125 0.21875 2.25q0 1.671875 -0.359375 2.703125q-0.34375 1.03125 -1.03125 1.59375q-0.671875 0.5625 -1.734375 0.5625q-1.375 0 -2.15625 -0.984375q-0.953125 -1.1875 -0.953125 -3.875zm1.203125 0q0 2.34375 0.546875 3.125q0.5625 0.78125 1.359375 0.78125q0.8125 0 1.359375 -0.78125q0.5625 -0.78125 0.5625 -3.125q0 -2.359375 -0.5625 -3.125q-0.546875 -0.78125 -1.359375 -0.78125q-0.8125 0 -1.296875 0.6875q-0.609375 0.875 -0.609375 3.21875zm10.631226 4.703125l-1.171875 0l0 -7.46875q-0.421875 0.40625 -1.109375 0.8125q-0.6875 0.40625 -1.234375 0.609375l0 -1.140625q0.984375 -0.453125 1.71875 -1.109375q0.734375 -0.671875 1.03125 -1.28125l0.765625 0l0 9.578125z" fill-rule="nonzero" />
        <path fill="#000000" d="m669.074 77.92434l0 -1.171875q-0.875 -0.109375 -1.421875 -0.390625q-0.546875 -0.28125 -0.953125 -0.90625q-0.390625 -0.640625 -0.46875 -1.5625l1.1875 -0.21875q0.140625 0.953125 0.484375 1.390625q0.484375 0.625 1.171875 0.703125l0 -3.734375q-0.71875 -0.140625 -1.46875 -0.5625q-0.5625 -0.3125 -0.875 -0.859375q-0.296875 -0.5625 -0.296875 -1.265625q0 -1.25 0.890625 -2.015625q0.59375 -0.53125 1.75 -0.640625l0 -0.5625l0.703125 0l0 0.5625q1.015625 0.09375 1.609375 0.59375q0.765625 0.640625 0.921875 1.75l-1.203125 0.1875q-0.109375 -0.6875 -0.4375 -1.046875q-0.328125 -0.375 -0.890625 -0.5l0 3.375q0.875 0.234375 1.171875 0.359375q0.546875 0.234375 0.890625 0.578125q0.34375 0.34375 0.515625 0.828125q0.1875 0.46875 0.1875 1.015625q0 1.21875 -0.78125 2.03125q-0.765625 0.8125 -1.984375 0.875l0 1.1875l-0.703125 0zm0 -10.265625q-0.671875 0.109375 -1.078125 0.5625q-0.390625 0.4375 -0.390625 1.046875q0 0.59375 0.328125 1.0q0.34375 0.390625 1.140625 0.640625l0 -3.25zm0.703125 8.109375q0.671875 -0.09375 1.109375 -0.59375q0.453125 -0.515625 0.453125 -1.265625q0 -0.640625 -0.3125 -1.015625q-0.3125 -0.390625 -1.25 -0.703125l0 3.578125zm4.0218506 -7.515625l0 -1.125l6.1875 0l0 0.921875q-0.921875 0.96875 -1.8125 2.578125q-0.890625 1.59375 -1.375 3.296875q-0.359375 1.203125 -0.453125 2.625l-1.203125 0q0.015625 -1.125 0.4375 -2.71875q0.421875 -1.59375 1.203125 -3.078125q0.796875 -1.484375 1.6875 -2.5l-4.671875 0zm7.3343506 3.59375q0 -1.6875 0.34375 -2.71875q0.359375 -1.03125 1.046875 -1.59375q0.6875 -0.5625 1.71875 -0.5625q0.78125 0 1.359375 0.3125q0.578125 0.296875 0.953125 0.890625q0.375 0.578125 0.59375 1.421875q0.21875 0.828125 0.21875 2.25q0 1.671875 -0.359375 2.703125q-0.34375 1.03125 -1.03125 1.59375q-0.671875 0.5625 -1.734375 0.5625q-1.375 0 -2.15625 -0.984375q-0.953125 -1.1875 -0.953125 -3.875zm1.203125 0q0 2.34375 0.546875 3.125q0.5625 0.78125 1.359375 0.78125q0.8125 0 1.359375 -0.78125q0.5625 -0.78125 0.5625 -3.125q0 -2.359375 -0.5625 -3.125q-0.546875 -0.78125 -1.359375 -0.78125q-0.8125 0 -1.296875 0.6875q-0.609375 0.875 -0.609375 3.21875zm10.631226 4.703125l-1.171875 0l0 -7.46875q-0.421875 0.40625 -1.109375 0.8125q-0.6875 0.40625 -1.234375 0.609375l0 -1.140625q0.984375 -0.453125 1.71875 -1.109375q0.734375 -0.671875 1.03125 -1.28125l0.765625 0l0 9.578125zm3.6468506 0l0 -1.328125l1.34375 0l0 1.328125l-1.34375 0zm4.859253 -5.171875q-0.734375 -0.265625 -1.09375 -0.765625q-0.34375 -0.5 -0.34375 -1.1875q0 -1.03125 0.75 -1.734375q0.75 -0.71875 1.984375 -0.71875q1.25 0 2.015625 0.734375q0.765625 0.71875 0.765625 1.75q0 0.671875 -0.359375 1.171875q-0.34375 0.484375 -1.046875 0.75q0.875 0.28125 1.328125 0.921875q0.46875 0.640625 0.46875 1.515625q0 1.234375 -0.875 2.0625q-0.859375 0.828125 -2.265625 0.828125q-1.421875 0 -2.28125 -0.828125q-0.859375 -0.84375 -0.859375 -2.09375q0 -0.921875 0.46875 -1.546875q0.46875 -0.640625 1.34375 -0.859375zm-0.234375 -1.984375q0 0.671875 0.4375 1.109375q0.4375 0.421875 1.125 0.421875q0.671875 0 1.109375 -0.421875q0.4375 -0.421875 0.4375 -1.046875q0 -0.640625 -0.453125 -1.078125q-0.4375 -0.4375 -1.109375 -0.4375q-0.671875 0 -1.109375 0.4375q-0.4375 0.421875 -0.4375 1.015625zm-0.375 4.40625q0 0.5 0.234375 0.96875q0.234375 0.46875 0.703125 0.734375q0.46875 0.25 1.015625 0.25q0.828125 0 1.375 -0.53125q0.546875 -0.546875 0.546875 -1.390625q0 -0.84375 -0.5625 -1.390625q-0.5625 -0.5625 -1.40625 -0.5625q-0.828125 0 -1.375 0.546875q-0.53125 0.546875 -0.53125 1.375zm6.2249756 0.234375l1.171875 -0.15625q0.203125 1.0 0.6875 1.4375q0.484375 0.4375 1.171875 0.4375q0.828125 0 1.390625 -0.578125q0.578125 -0.578125 0.578125 -1.421875q0 -0.796875 -0.53125 -1.3125q-0.515625 -0.53125 -1.328125 -0.53125q-0.34375 0 -0.828125 0.125l0.125 -1.03125q0.125 0.015625 0.1875 0.015625q0.75 0 1.34375 -0.390625q0.609375 -0.390625 0.609375 -1.203125q0 -0.640625 -0.4375 -1.0625q-0.4375 -0.421875 -1.125 -0.421875q-0.6875 0 -1.140625 0.4375q-0.453125 0.421875 -0.59375 1.28125l-1.171875 -0.21875q0.21875 -1.171875 0.984375 -1.8125q0.765625 -0.65625 1.890625 -0.65625q0.78125 0 1.4375 0.34375q0.65625 0.328125 1.0 0.90625q0.359375 0.578125 0.359375 1.234375q0 0.609375 -0.34375 1.125q-0.328125 0.5 -0.96875 0.796875q0.84375 0.203125 1.3125 0.828125q0.46875 0.609375 0.46875 1.53125q0 1.25 -0.921875 2.125q-0.90625 0.859375 -2.296875 0.859375q-1.25 0 -2.09375 -0.75q-0.828125 -0.75 -0.9375 -1.9375z" fill-rule="nonzero" />
        <path fill="#000000" d="m748.7802 77.92434l0 -1.171875q-0.875 -0.109375 -1.421875 -0.390625q-0.546875 -0.28125 -0.953125 -0.90625q-0.390625 -0.640625 -0.46875 -1.5625l1.1875 -0.21875q0.140625 0.953125 0.484375 1.390625q0.484375 0.625 1.171875 0.703125l0 -3.734375q-0.71875 -0.140625 -1.46875 -0.5625q-0.5625 -0.3125 -0.875 -0.859375q-0.296875 -0.5625 -0.296875 -1.265625q0 -1.25 0.890625 -2.015625q0.59375 -0.53125 1.75 -0.640625l0 -0.5625l0.703125 0l0 0.5625q1.015625 0.09375 1.609375 0.59375q0.765625 0.640625 0.921875 1.75l-1.203125 0.1875q-0.109375 -0.6875 -0.4375 -1.046875q-0.328125 -0.375 -0.890625 -0.5l0 3.375q0.875 0.234375 1.171875 0.359375q0.546875 0.234375 0.890625 0.578125q0.34375 0.34375 0.515625 0.828125q0.1875 0.46875 0.1875 1.015625q0 1.21875 -0.78125 2.03125q-0.765625 0.8125 -1.984375 0.875l0 1.1875l-0.703125 0zm0 -10.265625q-0.671875 0.109375 -1.078125 0.5625q-0.390625 0.4375 -0.390625 1.046875q0 0.59375 0.328125 1.0q0.34375 0.390625 1.140625 0.640625l0 -3.25zm0.703125 8.109375q0.671875 -0.09375 1.109375 -0.59375q0.453125 -0.515625 0.453125 -1.265625q0 -0.640625 -0.3125 -1.015625q-0.3125 -0.390625 -1.25 -0.703125l0 3.578125zm3.9593506 -1.734375l1.171875 -0.15625q0.203125 1.0 0.6875 1.4375q0.484375 0.4375 1.171875 0.4375q0.828125 0 1.390625 -0.578125q0.578125 -0.578125 0.578125 -1.421875q0 -0.796875 -0.53125 -1.3125q-0.515625 -0.53125 -1.328125 -0.53125q-0.34375 0 -0.828125 0.125l0.125 -1.03125q0.125 0.015625 0.1875 0.015625q0.75 0 1.34375 -0.390625q0.609375 -0.390625 0.609375 -1.203125q0 -0.640625 -0.4375 -1.0625q-0.4375 -0.421875 -1.125 -0.421875q-0.6875 0 -1.140625 0.4375q-0.453125 0.421875 -0.59375 1.28125l-1.171875 -0.21875q0.21875 -1.171875 0.984375 -1.8125q0.765625 -0.65625 1.890625 -0.65625q0.78125 0 1.4375 0.34375q0.65625 0.328125 1.0 0.90625q0.359375 0.578125 0.359375 1.234375q0 0.609375 -0.34375 1.125q-0.328125 0.5 -0.96875 0.796875q0.84375 0.203125 1.3125 0.828125q0.46875 0.609375 0.46875 1.53125q0 1.25 -0.921875 2.125q-0.90625 0.859375 -2.296875 0.859375q-1.25 0 -2.09375 -0.75q-0.828125 -0.75 -0.9375 -1.9375zm11.818726 2.515625l-1.171875 0l0 -7.46875q-0.421875 0.40625 -1.109375 0.8125q-0.6875 0.40625 -1.234375 0.609375l0 -1.140625q0.984375 -0.453125 1.71875 -1.109375q0.734375 -0.671875 1.03125 -1.28125l0.765625 0l0 9.578125zm3.6468506 0l0 -1.328125l1.34375 0l0 1.328125l-1.34375 0zm3.234253 -2.203125l1.125 -0.109375q0.140625 0.796875 0.546875 1.15625q0.40625 0.359375 1.03125 0.359375q0.53125 0 0.9375 -0.25q0.421875 -0.25 0.671875 -0.65625q0.265625 -0.421875 0.4375 -1.125q0.171875 -0.703125 0.171875 -1.421875q0 -0.078125 0 -0.234375q-0.359375 0.546875 -0.96875 0.90625q-0.59375 0.34375 -1.3125 0.34375q-1.1875 0 -2.015625 -0.859375q-0.8125 -0.859375 -0.8125 -2.265625q0 -1.453125 0.859375 -2.328125q0.859375 -0.890625 2.140625 -0.890625q0.9375 0 1.703125 0.5q0.78125 0.5 1.171875 1.4375q0.40625 0.921875 0.40625 2.671875q0 1.828125 -0.40625 2.921875q-0.390625 1.078125 -1.171875 1.640625q-0.78125 0.5625 -1.84375 0.5625q-1.109375 0 -1.828125 -0.609375q-0.703125 -0.625 -0.84375 -1.75zm4.796875 -4.21875q0 -1.0 -0.546875 -1.59375q-0.53125 -0.59375 -1.28125 -0.59375q-0.78125 0 -1.375 0.640625q-0.578125 0.640625 -0.578125 1.65625q0 0.90625 0.546875 1.484375q0.5625 0.5625 1.359375 0.5625q0.828125 0 1.34375 -0.5625q0.53125 -0.578125 0.53125 -1.59375zm8.584351 5.296875l0 1.125l-6.296875 0q-0.015625 -0.421875 0.140625 -0.8125q0.234375 -0.640625 0.765625 -1.265625q0.53125 -0.625 1.53125 -1.453125q1.5625 -1.265625 2.109375 -2.015625q0.546875 -0.75 0.546875 -1.40625q0 -0.703125 -0.5 -1.171875q-0.5 -0.484375 -1.296875 -0.484375q-0.859375 0 -1.375 0.515625q-0.5 0.5 -0.5 1.390625l-1.203125 -0.109375q0.125 -1.359375 0.921875 -2.0625q0.8125 -0.703125 2.171875 -0.703125q1.375 0 2.171875 0.765625q0.8125 0.75 0.8125 1.875q0 0.578125 -0.234375 1.140625q-0.234375 0.546875 -0.78125 1.15625q-0.546875 0.609375 -1.8125 1.671875q-1.046875 0.890625 -1.359375 1.21875q-0.296875 0.3125 -0.484375 0.625l4.671875 0z" fill-rule="nonzero" />
        <path fill="#000000" fill-opacity="0.0" d="m236.08136 158.07217l73.00787 0l0 68.28346l-73.00787 0z" fill-rule="evenodd" />
        <path fill="#000000" d="m246.61261 184.99217l0 -13.359375l9.015625 0l0 1.578125l-7.25 0l0 4.140625l6.265625 0l0 1.578125l-6.265625 0l0 6.0625l-1.765625 0zm11.083496 0l0 -9.671875l1.46875 0l0 1.46875q0.5625 -1.03125 1.03125 -1.359375q0.484375 -0.328125 1.0625 -0.328125q0.828125 0 1.6875 0.53125l-0.5625 1.515625q-0.609375 -0.359375 -1.203125 -0.359375q-0.546875 0 -0.96875 0.328125q-0.421875 0.328125 -0.609375 0.890625q-0.28125 0.875 -0.28125 1.921875l0 5.0625l-1.625 0zm12.540802 -1.1875q-0.921875 0.765625 -1.765625 1.09375q-0.828125 0.3125 -1.796875 0.3125q-1.59375 0 -2.453125 -0.78125q-0.859375 -0.78125 -0.859375 -1.984375q0 -0.71875 0.328125 -1.296875q0.328125 -0.59375 0.84375 -0.9375q0.53125 -0.359375 1.1875 -0.546875q0.46875 -0.125 1.453125 -0.25q1.984375 -0.234375 2.921875 -0.5625q0.015625 -0.34375 0.015625 -0.421875q0 -1.0 -0.46875 -1.421875q-0.625 -0.546875 -1.875 -0.546875q-1.15625 0 -1.703125 0.40625q-0.546875 0.40625 -0.8125 1.421875l-1.609375 -0.21875q0.21875 -1.015625 0.71875 -1.640625q0.5 -0.640625 1.453125 -0.984375q0.953125 -0.34375 2.1875 -0.34375q1.25 0 2.015625 0.296875q0.78125 0.28125 1.140625 0.734375q0.375 0.4375 0.515625 1.109375q0.078125 0.421875 0.078125 1.515625l0 2.1875q0 2.28125 0.109375 2.890625q0.109375 0.59375 0.40625 1.15625l-1.703125 0q-0.265625 -0.515625 -0.328125 -1.1875zm-0.140625 -3.671875q-0.890625 0.375 -2.671875 0.625q-1.015625 0.140625 -1.4375 0.328125q-0.421875 0.1875 -0.65625 0.53125q-0.21875 0.34375 -0.21875 0.78125q0 0.65625 0.5 1.09375q0.5 0.4375 1.453125 0.4375q0.9375 0 1.671875 -0.40625q0.75 -0.421875 1.09375 -1.140625q0.265625 -0.5625 0.265625 -1.640625l0 -0.609375zm10.531952 4.859375l0 -1.421875q-1.125 1.640625 -3.0625 1.640625q-0.859375 0 -1.609375 -0.328125q-0.734375 -0.328125 -1.09375 -0.828125q-0.359375 -0.5 -0.5 -1.21875q-0.109375 -0.46875 -0.109375 -1.53125l0 -5.984375l1.640625 0l0 5.359375q0 1.28125 0.109375 1.734375q0.15625 0.640625 0.65625 1.015625q0.5 0.375 1.234375 0.375q0.734375 0 1.375 -0.375q0.65625 -0.390625 0.921875 -1.03125q0.265625 -0.65625 0.265625 -1.890625l0 -5.1875l1.640625 0l0 9.671875l-1.46875 0zm10.313232 0l0 -1.21875q-0.90625 1.4375 -2.703125 1.4375q-1.15625 0 -2.125 -0.640625q-0.96875 -0.640625 -1.5 -1.78125q-0.53125 -1.140625 -0.53125 -2.625q0 -1.453125 0.484375 -2.625q0.484375 -1.1875 1.4375 -1.8125q0.96875 -0.625 2.171875 -0.625q0.875 0 1.546875 0.375q0.6875 0.359375 1.109375 0.953125l0 -4.796875l1.640625 0l0 13.359375l-1.53125 0zm-5.171875 -4.828125q0 1.859375 0.78125 2.78125q0.78125 0.921875 1.84375 0.921875q1.078125 0 1.828125 -0.875q0.75 -0.890625 0.75 -2.6875q0 -1.984375 -0.765625 -2.90625q-0.765625 -0.9375 -1.890625 -0.9375q-1.078125 0 -1.8125 0.890625q-0.734375 0.890625 -0.734375 2.8125z" fill-rule="nonzero" />
        <path fill="#000000" fill-opacity="0.0" d="m563.58795 160.0433l105.03937 0l0 68.28346l-105.03937 0z" fill-rule="evenodd" />
        <path fill="#000000" d="m574.0098 186.9633l0 -13.359375l1.8125 0l7.015625 10.484375l0 -10.484375l1.6875 0l0 13.359375l-1.8125 0l-7.015625 -10.5l0 10.5l-1.6875 0zm12.676025 -4.84375q0 -2.6875 1.484375 -3.96875q1.25 -1.078125 3.046875 -1.078125q2.0 0 3.265625 1.3125q1.265625 1.296875 1.265625 3.609375q0 1.859375 -0.5625 2.9375q-0.5625 1.0625 -1.640625 1.65625q-1.0625 0.59375 -2.328125 0.59375q-2.03125 0 -3.28125 -1.296875q-1.25 -1.3125 -1.25 -3.765625zm1.6875 0q0 1.859375 0.796875 2.796875q0.8125 0.921875 2.046875 0.921875q1.21875 0 2.03125 -0.921875q0.8125 -0.9375 0.8125 -2.84375q0 -1.796875 -0.8125 -2.71875q-0.8125 -0.921875 -2.03125 -0.921875q-1.234375 0 -2.046875 0.921875q-0.796875 0.90625 -0.796875 2.765625zm12.875732 3.375l0.234375 1.453125q-0.6875 0.140625 -1.234375 0.140625q-0.890625 0 -1.390625 -0.28125q-0.484375 -0.28125 -0.6875 -0.734375q-0.203125 -0.46875 -0.203125 -1.9375l0 -5.578125l-1.203125 0l0 -1.265625l1.203125 0l0 -2.390625l1.625 -0.984375l0 3.375l1.65625 0l0 1.265625l-1.65625 0l0 5.671875q0 0.6875 0.078125 0.890625q0.09375 0.203125 0.28125 0.328125q0.203125 0.109375 0.578125 0.109375q0.265625 0 0.71875 -0.0625zm0.9645386 -2.546875l0 -1.640625l5.03125 0l0 1.640625l-5.03125 0zm7.1502075 4.015625l0 -13.359375l9.015625 0l0 1.578125l-7.25 0l0 4.140625l6.265625 0l0 1.578125l-6.265625 0l0 6.0625l-1.765625 0zm11.083496 0l0 -9.671875l1.46875 0l0 1.46875q0.5625 -1.03125 1.03125 -1.359375q0.484375 -0.328125 1.0625 -0.328125q0.828125 0 1.6875 0.53125l-0.5625 1.515625q-0.609375 -0.359375 -1.203125 -0.359375q-0.546875 0 -0.96875 0.328125q-0.421875 0.328125 -0.609375 0.890625q-0.28125 0.875 -0.28125 1.921875l0 5.0625l-1.625 0zm12.5407715 -1.1875q-0.921875 0.765625 -1.765625 1.09375q-0.828125 0.3125 -1.796875 0.3125q-1.59375 0 -2.453125 -0.78125q-0.859375 -0.78125 -0.859375 -1.984375q0 -0.71875 0.328125 -1.296875q0.328125 -0.59375 0.84375 -0.9375q0.53125 -0.359375 1.1875 -0.546875q0.46875 -0.125 1.453125 -0.25q1.984375 -0.234375 2.921875 -0.5625q0.015625 -0.34375 0.015625 -0.421875q0 -1.0 -0.46875 -1.421875q-0.625 -0.546875 -1.875 -0.546875q-1.15625 0 -1.703125 0.40625q-0.546875 0.40625 -0.8125 1.421875l-1.609375 -0.21875q0.21875 -1.015625 0.71875 -1.640625q0.5 -0.640625 1.453125 -0.984375q0.953125 -0.34375 2.1875 -0.34375q1.25 0 2.015625 0.296875q0.78125 0.28125 1.140625 0.734375q0.375 0.4375 0.515625 1.109375q0.078125 0.421875 0.078125 1.515625l0 2.1875q0 2.28125 0.109375 2.890625q0.109375 0.59375 0.40625 1.15625l-1.703125 0q-0.265625 -0.515625 -0.328125 -1.1875zm-0.140625 -3.671875q-0.890625 0.375 -2.671875 0.625q-1.015625 0.140625 -1.4375 0.328125q-0.421875 0.1875 -0.65625 0.53125q-0.21875 0.34375 -0.21875 0.78125q0 0.65625 0.5 1.09375q0.5 0.4375 1.453125 0.4375q0.9375 0 1.671875 -0.40625q0.75 -0.421875 1.09375 -1.140625q0.265625 -0.5625 0.265625 -1.640625l0 -0.609375zm10.531982 4.859375l0 -1.421875q-1.125 1.640625 -3.0625 1.640625q-0.859375 0 -1.609375 -0.328125q-0.734375 -0.328125 -1.09375 -0.828125q-0.359375 -0.5 -0.5 -1.21875q-0.109375 -0.46875 -0.109375 -1.53125l0 -5.984375l1.640625 0l0 5.359375q0 1.28125 0.109375 1.734375q0.15625 0.640625 0.65625 1.015625q0.5 0.375 1.234375 0.375q0.734375 0 1.375 -0.375q0.65625 -0.390625 0.921875 -1.03125q0.265625 -0.65625 0.265625 -1.890625l0 -5.1875l1.640625 0l0 9.671875l-1.46875 0zm10.313232 0l0 -1.21875q-0.90625 1.4375 -2.703125 1.4375q-1.15625 0 -2.125 -0.640625q-0.96875 -0.640625 -1.5 -1.78125q-0.53125 -1.140625 -0.53125 -2.625q0 -1.453125 0.484375 -2.625q0.484375 -1.1875 1.4375 -1.8125q0.96875 -0.625 2.171875 -0.625q0.875 0 1.546875 0.375q0.6875 0.359375 1.109375 0.953125l0 -4.796875l1.640625 0l0 13.359375l-1.53125 0zm-5.171875 -4.828125q0 1.859375 0.78125 2.78125q0.78125 0.921875 1.84375 0.921875q1.078125 0 1.828125 -0.875q0.75 -0.890625 0.75 -2.6875q0 -1.984375 -0.765625 -2.90625q-0.765625 -0.9375 -1.890625 -0.9375q-1.078125 0 -1.8125 0.890625q-0.734375 0.890625 -0.734375 2.8125z" fill-rule="nonzero" />
    </g>
</svg>
