<?xml version="1.0" standalone="yes"?>
<!--
Licensed to the Apache Software Foundation (ASF) under one
or more contributor license agreements.  See the NOTICE file
distributed with this work for additional information
regarding copyright ownership.  The ASF licenses this file
to you under the Apache License, Version 2.0 (the
"License"); you may not use this file except in compliance
with the License.  You may obtain a copy of the License at

http://www.apache.org/licenses/LICENSE-2.0

Unless required by applicable law or agreed to in writing,
software distributed under the License is distributed on an
"AS IS" BASIS, WITHOUT WARRANTIES OR CONDITIONS OF ANY
KIND, either express or implied.  See the License for the
specific language governing permissions and limitations
under the License.
-->

<svg version="1.1" viewBox="50.0 70.0 650.0 400.0" fill="none" stroke="none" stroke-linecap="square" stroke-miterlimit="10" xmlns="http://www.w3.org/2000/svg" xmlns:xlink="http://www.w3.org/1999/xlink"><clipPath id="p.0"><path d="m0 0l800.0 0l0 600.0l-800.0 0l0 -600.0z" clip-rule="nonzero"></path></clipPath><g clip-path="url(#p.0)"><path fill="#000000" fill-opacity="0.0" d="m0 0l800.0 0l0 600.0l-800.0 0z" fill-rule="nonzero"></path><path fill="#000000" fill-opacity="0.0" d="m146.1905 398.5558l509.00787 0" fill-rule="nonzero"></path><path stroke="#000000" stroke-width="2.0" stroke-linejoin="round" stroke-linecap="butt" d="m146.1905 398.5558l497.00787 0" fill-rule="evenodd"></path><path fill="#000000" stroke="#000000" stroke-width="2.0" stroke-linecap="butt" d="m643.19836 401.85925l9.076172 -3.3034668l-9.076172 -3.3034668z" fill-rule="evenodd"></path><path fill="#000000" fill-opacity="0.0" d="m146.91077 399.30447l0 -309.29135" fill-rule="nonzero"></path><path stroke="#000000" stroke-width="2.0" stroke-linejoin="round" stroke-linecap="butt" d="m146.91077 399.30447l0 -297.29135" fill-rule="evenodd"></path><path fill="#000000" stroke="#000000" stroke-width="2.0" stroke-linecap="butt" d="m150.21423 102.01312l-3.3034668 -9.076195l-3.3034668 9.076195z" fill-rule="evenodd"></path><path fill="#000000" fill-opacity="0.0" d="m587.0 398.5558l60.0 0l0 42.992126l-60.0 0z" fill-rule="nonzero"></path><path fill="#000000" d="m600.90625 423.97577l0.234375 1.484375q-0.703125 0.140625 -1.265625 0.140625q-0.90625 0 -1.40625 -0.28125q-0.5 -0.296875 -0.703125 -0.75q-0.203125 -0.46875 -0.203125 -1.984375l0 -5.65625l-1.234375 0l0 -1.3125l1.234375 0l0 -2.4375l1.65625 -1.0l0 3.4375l1.6875 0l0 1.3125l-1.6875 0l0 5.75q0 0.71875 0.078125 0.921875q0.09375 0.203125 0.296875 0.328125q0.203125 0.125 0.578125 0.125q0.265625 0 0.734375 -0.078125zm1.5426636 -10.1875l0 -1.90625l1.671875 0l0 1.90625l-1.671875 0zm0 11.6875l0 -9.859375l1.671875 0l0 9.859375l-1.671875 0zm4.1292114 0l0 -9.859375l1.5 0l0 1.390625q0.453125 -0.71875 1.21875 -1.15625q0.78125 -0.453125 1.765625 -0.453125q1.09375 0 1.796875 0.453125q0.703125 0.453125 0.984375 1.28125q1.171875 -1.734375 3.046875 -1.734375q1.46875 0 2.25 0.8125q0.796875 0.8125 0.796875 2.5l0 6.765625l-1.671875 0l0 -6.203125q0 -1.0 -0.15625 -1.4375q-0.15625 -0.453125 -0.59375 -0.71875q-0.421875 -0.265625 -1.0 -0.265625q-1.03125 0 -1.71875 0.6875q-0.6875 0.6875 -0.6875 2.21875l0 5.71875l-1.671875 0l0 -6.40625q0 -1.109375 -0.40625 -1.65625q-0.40625 -0.5625 -1.34375 -0.5625q-0.703125 0 -1.3125 0.375q-0.59375 0.359375 -0.859375 1.078125q-0.265625 0.71875 -0.265625 2.0625l0 5.109375l-1.671875 0zm22.290771 -3.171875l1.71875 0.21875q-0.40625 1.5 -1.515625 2.34375q-1.09375 0.828125 -2.8125 0.828125q-2.15625 0 -3.421875 -1.328125q-1.265625 -1.328125 -1.265625 -3.734375q0 -2.484375 1.265625 -3.859375q1.28125 -1.375 3.328125 -1.375q1.984375 0 3.234375 1.34375q1.25 1.34375 1.25 3.796875q0 0.140625 -0.015625 0.4375l-7.34375 0q0.09375 1.625 0.921875 2.484375q0.828125 0.859375 2.0625 0.859375q0.90625 0 1.546875 -0.46875q0.65625 -0.484375 1.046875 -1.546875zm-5.484375 -2.703125l5.5 0q-0.109375 -1.234375 -0.625 -1.859375q-0.796875 -0.96875 -2.078125 -0.96875q-1.140625 0 -1.9375 0.78125q-0.78125 0.765625 -0.859375 2.046875z" fill-rule="nonzero"></path><path fill="#000000" fill-opacity="0.0" d="m66.0 133.0l82.01575 0l0 42.992126l-82.01575 0z" fill-rule="nonzero"></path><path fill="#000000" d="m82.703125 159.92l0 -1.453125q-1.140625 1.671875 -3.125 1.671875q-0.859375 0 -1.625 -0.328125q-0.75 -0.34375 -1.125 -0.84375q-0.359375 -0.5 -0.515625 -1.234375q-0.09375 -0.5 -0.09375 -1.5625l0 -6.109375l1.671875 0l0 5.46875q0 1.3125 0.09375 1.765625q0.15625 0.65625 0.671875 1.03125q0.515625 0.375 1.265625 0.375q0.75 0 1.40625 -0.375q0.65625 -0.390625 0.921875 -1.046875q0.28125 -0.671875 0.28125 -1.9375l0 -5.28125l1.671875 0l0 9.859375l-1.5 0zm3.2507172 -2.9375l1.65625 -0.265625q0.140625 1.0 0.765625 1.53125q0.640625 0.515625 1.78125 0.515625q1.15625 0 1.703125 -0.46875q0.5625 -0.46875 0.5625 -1.09375q0 -0.5625 -0.484375 -0.890625q-0.34375 -0.21875 -1.703125 -0.5625q-1.84375 -0.46875 -2.5625 -0.796875q-0.703125 -0.34375 -1.078125 -0.9375q-0.359375 -0.609375 -0.359375 -1.328125q0 -0.65625 0.296875 -1.21875q0.3125 -0.5625 0.828125 -0.9375q0.390625 -0.28125 1.0625 -0.484375q0.671875 -0.203125 1.4375 -0.203125q1.171875 0 2.046875 0.34375q0.875 0.328125 1.28125 0.90625q0.421875 0.5625 0.578125 1.515625l-1.625 0.21875q-0.109375 -0.75 -0.65625 -1.171875q-0.53125 -0.4375 -1.5 -0.4375q-1.15625 0 -1.640625 0.390625q-0.484375 0.375 -0.484375 0.875q0 0.328125 0.203125 0.59375q0.203125 0.265625 0.640625 0.4375q0.25 0.09375 1.46875 0.4375q1.765625 0.46875 2.46875 0.765625q0.703125 0.296875 1.09375 0.875q0.40625 0.578125 0.40625 1.4375q0 0.828125 -0.484375 1.578125q-0.484375 0.734375 -1.40625 1.140625q-0.921875 0.390625 -2.078125 0.390625q-1.921875 0 -2.9375 -0.796875q-1.0 -0.796875 -1.28125 -2.359375zm16.75 -0.234375l1.71875 0.21875q-0.40625 1.5 -1.515625 2.34375q-1.09375 0.828125 -2.8125 0.828125q-2.15625 0 -3.421875 -1.328125q-1.265625 -1.328125 -1.265625 -3.734375q0 -2.484375 1.265625 -3.859375q1.28125 -1.375 3.328125 -1.375q1.984375 0 3.234375 1.34375q1.25 1.34375 1.25 3.796875q0 0.140625 -0.015625 0.4375l-7.34375 0q0.09375 1.625 0.921875 2.484375q0.828125 0.859375 2.0625 0.859375q0.90625 0 1.546875 -0.46875q0.65625 -0.484375 1.046875 -1.546875zm-5.484375 -2.703125l5.5 0q-0.109375 -1.234375 -0.625 -1.859375q-0.796875 -0.96875 -2.078125 -0.96875q-1.140625 0 -1.9375 0.78125q-0.78125 0.765625 -0.859375 2.046875zm9.094467 5.875l0 -9.859375l1.5 0l0 1.5q0.578125 -1.046875 1.0625 -1.375q0.484375 -0.34375 1.078125 -0.34375q0.84375 0 1.71875 0.546875l-0.578125 1.546875q-0.609375 -0.359375 -1.234375 -0.359375q-0.546875 0 -0.984375 0.328125q-0.421875 0.328125 -0.609375 0.90625q-0.28125 0.890625 -0.28125 1.953125l0 5.15625l-1.671875 0zm17.23973 0l-1.671875 0l0 -10.640625q-0.59375 0.578125 -1.578125 1.15625q-0.984375 0.5625 -1.765625 0.859375l0 -1.625q1.40625 -0.65625 2.453125 -1.59375q1.046875 -0.9375 1.484375 -1.8125l1.078125 0l0 13.65625z" fill-rule="nonzero"></path><path fill="#000000" fill-opacity="0.0" d="m66.0 198.0l82.01575 0l0 42.992126l-82.01575 0z" fill-rule="nonzero"></path><path fill="#000000" d="m82.703125 224.92l0 -1.453125q-1.140625 1.671875 -3.125 1.671875q-0.859375 0 -1.625 -0.328125q-0.75 -0.34375 -1.125 -0.84375q-0.359375 -0.5 -0.515625 -1.234375q-0.09375 -0.5 -0.09375 -1.5625l0 -6.109375l1.671875 0l0 5.46875q0 1.3125 0.09375 1.765625q0.15625 0.65625 0.671875 1.03125q0.515625 0.375 1.265625 0.375q0.75 0 1.40625 -0.375q0.65625 -0.390625 0.921875 -1.046875q0.28125 -0.671875 0.28125 -1.9375l0 -5.28125l1.671875 0l0 9.859375l-1.5 0zm3.2507172 -2.9375l1.65625 -0.265625q0.140625 1.0 0.765625 1.53125q0.640625 0.515625 1.78125 0.515625q1.15625 0 1.703125 -0.46875q0.5625 -0.46875 0.5625 -1.09375q0 -0.5625 -0.484375 -0.890625q-0.34375 -0.21875 -1.703125 -0.5625q-1.84375 -0.46875 -2.5625 -0.796875q-0.703125 -0.34375 -1.078125 -0.9375q-0.359375 -0.609375 -0.359375 -1.328125q0 -0.65625 0.296875 -1.21875q0.3125 -0.5625 0.828125 -0.9375q0.390625 -0.28125 1.0625 -0.484375q0.671875 -0.203125 1.4375 -0.203125q1.171875 0 2.046875 0.34375q0.875 0.328125 1.28125 0.90625q0.421875 0.5625 0.578125 1.515625l-1.625 0.21875q-0.109375 -0.75 -0.65625 -1.171875q-0.53125 -0.4375 -1.5 -0.4375q-1.15625 0 -1.640625 0.390625q-0.484375 0.375 -0.484375 0.875q0 0.328125 0.203125 0.59375q0.203125 0.265625 0.640625 0.4375q0.25 0.09375 1.46875 0.4375q1.765625 0.46875 2.46875 0.765625q0.703125 0.296875 1.09375 0.875q0.40625 0.578125 0.40625 1.4375q0 0.828125 -0.484375 1.578125q-0.484375 0.734375 -1.40625 1.140625q-0.921875 0.390625 -2.078125 0.390625q-1.921875 0 -2.9375 -0.796875q-1.0 -0.796875 -1.28125 -2.359375zm16.75 -0.234375l1.71875 0.21875q-0.40625 1.5 -1.515625 2.34375q-1.09375 0.828125 -2.8125 0.828125q-2.15625 0 -3.421875 -1.328125q-1.265625 -1.328125 -1.265625 -3.734375q0 -2.484375 1.265625 -3.859375q1.28125 -1.375 3.328125 -1.375q1.984375 0 3.234375 1.34375q1.25 1.34375 1.25 3.796875q0 0.140625 -0.015625 0.4375l-7.34375 0q0.09375 1.625 0.921875 2.484375q0.828125 0.859375 2.0625 0.859375q0.90625 0 1.546875 -0.46875q0.65625 -0.484375 1.046875 -1.546875zm-5.484375 -2.703125l5.5 0q-0.109375 -1.234375 -0.625 -1.859375q-0.796875 -0.96875 -2.078125 -0.96875q-1.140625 0 -1.9375 0.78125q-0.78125 0.765625 -0.859375 2.046875zm9.094467 5.875l0 -9.859375l1.5 0l0 1.5q0.578125 -1.046875 1.0625 -1.375q0.484375 -0.34375 1.078125 -0.34375q0.84375 0 1.71875 0.546875l-0.578125 1.546875q-0.609375 -0.359375 -1.234375 -0.359375q-0.546875 0 -0.984375 0.328125q-0.421875 0.328125 -0.609375 0.90625q-0.28125 0.890625 -0.28125 1.953125l0 5.15625l-1.671875 0zm19.724106 -1.609375l0 1.609375l-8.984375 0q-0.015625 -0.609375 0.1875 -1.15625q0.34375 -0.921875 1.09375 -1.8125q0.765625 -0.890625 2.1875 -2.0625q2.21875 -1.8125 3.0 -2.875q0.78125 -1.0625 0.78125 -2.015625q0 -0.984375 -0.71875 -1.671875q-0.703125 -0.6875 -1.84375 -0.6875q-1.203125 0 -1.9375 0.734375q-0.71875 0.71875 -0.71875 2.0l-1.71875 -0.171875q0.171875 -1.921875 1.328125 -2.921875q1.15625 -1.015625 3.09375 -1.015625q1.953125 0 3.09375 1.09375q1.140625 1.078125 1.140625 2.6875q0 0.8125 -0.34375 1.609375q-0.328125 0.78125 -1.109375 1.65625q-0.765625 0.859375 -2.5625 2.390625q-1.5 1.265625 -1.9375 1.71875q-0.421875 0.4375 -0.703125 0.890625l6.671875 0z" fill-rule="nonzero"></path><path fill="#000000" fill-opacity="0.0" d="m66.0 263.0l82.01575 0l0 42.992126l-82.01575 0z" fill-rule="nonzero"></path><path fill="#000000" d="m82.703125 289.91998l0 -1.453125q-1.140625 1.671875 -3.125 1.671875q-0.859375 0 -1.625 -0.328125q-0.75 -0.34375 -1.125 -0.84375q-0.359375 -0.5 -0.515625 -1.234375q-0.09375 -0.5 -0.09375 -1.5625l0 -6.109375l1.671875 0l0 5.46875q0 1.3125 0.09375 1.765625q0.15625 0.65625 0.671875 1.03125q0.515625 0.375 1.265625 0.375q0.75 0 1.40625 -0.375q0.65625 -0.390625 0.921875 -1.046875q0.28125 -0.671875 0.28125 -1.9375l0 -5.28125l1.671875 0l0 9.859375l-1.5 0zm3.2507172 -2.9375l1.65625 -0.265625q0.140625 1.0 0.765625 1.53125q0.640625 0.515625 1.78125 0.515625q1.15625 0 1.703125 -0.46875q0.5625 -0.46875 0.5625 -1.09375q0 -0.5625 -0.484375 -0.890625q-0.34375 -0.21875 -1.703125 -0.5625q-1.84375 -0.46875 -2.5625 -0.796875q-0.703125 -0.34375 -1.078125 -0.9375q-0.359375 -0.609375 -0.359375 -1.328125q0 -0.65625 0.296875 -1.21875q0.3125 -0.5625 0.828125 -0.9375q0.390625 -0.28125 1.0625 -0.484375q0.671875 -0.203125 1.4375 -0.203125q1.171875 0 2.046875 0.34375q0.875 0.328125 1.28125 0.90625q0.421875 0.5625 0.578125 1.515625l-1.625 0.21875q-0.109375 -0.75 -0.65625 -1.171875q-0.53125 -0.4375 -1.5 -0.4375q-1.15625 0 -1.640625 0.390625q-0.484375 0.375 -0.484375 0.875q0 0.328125 0.203125 0.59375q0.203125 0.265625 0.640625 0.4375q0.25 0.09375 1.46875 0.4375q1.765625 0.46875 2.46875 0.765625q0.703125 0.296875 1.09375 0.875q0.40625 0.578125 0.40625 1.4375q0 0.828125 -0.484375 1.578125q-0.484375 0.734375 -1.40625 1.140625q-0.921875 0.390625 -2.078125 0.390625q-1.921875 0 -2.9375 -0.796875q-1.0 -0.796875 -1.28125 -2.359375zm16.75 -0.234375l1.71875 0.21875q-0.40625 1.5 -1.515625 2.34375q-1.09375 0.828125 -2.8125 0.828125q-2.15625 0 -3.421875 -1.328125q-1.265625 -1.328125 -1.265625 -3.734375q0 -2.484375 1.265625 -3.859375q1.28125 -1.375 3.328125 -1.375q1.984375 0 3.234375 1.34375q1.25 1.34375 1.25 3.796875q0 0.140625 -0.015625 0.4375l-7.34375 0q0.09375 1.625 0.921875 2.484375q0.828125 0.859375 2.0625 0.859375q0.90625 0 1.546875 -0.46875q0.65625 -0.484375 1.046875 -1.546875zm-5.484375 -2.703125l5.5 0q-0.109375 -1.234375 -0.625 -1.859375q-0.796875 -0.96875 -2.078125 -0.96875q-1.140625 0 -1.9375 0.78125q-0.78125 0.765625 -0.859375 2.046875zm9.094467 5.875l0 -9.859375l1.5 0l0 1.5q0.578125 -1.046875 1.0625 -1.375q0.484375 -0.34375 1.078125 -0.34375q0.84375 0 1.71875 0.546875l-0.578125 1.546875q-0.609375 -0.359375 -1.234375 -0.359375q-0.546875 0 -0.984375 0.328125q-0.421875 0.328125 -0.609375 0.90625q-0.28125 0.890625 -0.28125 1.953125l0 5.15625l-1.671875 0zm10.958481 -3.59375l1.671875 -0.21875q0.28125 1.421875 0.96875 2.046875q0.703125 0.625 1.6875 0.625q1.1875 0 2.0 -0.8125q0.8125 -0.828125 0.8125 -2.03125q0 -1.140625 -0.765625 -1.890625q-0.75 -0.75 -1.90625 -0.75q-0.46875 0 -1.171875 0.1875l0.1875 -1.46875q0.15625 0.015625 0.265625 0.015625q1.0625 0 1.90625 -0.546875q0.859375 -0.5625 0.859375 -1.71875q0 -0.921875 -0.625 -1.515625q-0.609375 -0.609375 -1.59375 -0.609375q-0.96875 0 -1.625 0.609375q-0.640625 0.609375 -0.828125 1.84375l-1.671875 -0.296875q0.296875 -1.6875 1.375 -2.609375q1.09375 -0.921875 2.71875 -0.921875q1.109375 0 2.046875 0.484375q0.9375 0.46875 1.421875 1.296875q0.5 0.828125 0.5 1.75q0 0.890625 -0.46875 1.609375q-0.46875 0.71875 -1.40625 1.15625q1.21875 0.265625 1.875 1.15625q0.671875 0.875 0.671875 2.1875q0 1.78125 -1.296875 3.015625q-1.296875 1.234375 -3.28125 1.234375q-1.796875 0 -2.984375 -1.0625q-1.171875 -1.0625 -1.34375 -2.765625z" fill-rule="nonzero"></path><path fill="#9900ff" d="m177.0 154.49606l0 0c0 -5.2445374 4.251526 -9.496063 9.496063 -9.496063l0 0c2.518509 0 4.9338684 1.000473 6.714737 2.7813263c1.7808533 1.7808685 2.7813263 4.196228 2.7813263 6.714737l0 0c0 5.2445374 -4.251526 9.496063 -9.496063 9.496063l0 0c-5.2445374 0 -9.496063 -4.251526 -9.496063 -9.496063z" fill-rule="nonzero"></path><path fill="#9900ff" d="m203.49606 154.49606l0 0c0 -5.2445374 4.251526 -9.496063 9.496063 -9.496063l0 0c2.518509 0 4.9338684 1.000473 6.714737 2.7813263c1.7808533 1.7808685 2.7813263 4.196228 2.7813263 6.714737l0 0c0 5.2445374 -4.251526 9.496063 -9.496063 9.496063l0 0c-5.2445374 0 -9.496063 -4.251526 -9.496063 -9.496063z" fill-rule="nonzero"></path><path fill="#9900ff" d="m290.0 154.49606l0 0c0 -5.2445374 4.251526 -9.496063 9.496063 -9.496063l0 0c2.5185242 0 4.9338684 1.000473 6.7147217 2.7813263c1.7808533 1.7808685 2.7813416 4.196228 2.7813416 6.714737l0 0c0 5.2445374 -4.251526 9.496063 -9.496063 9.496063l0 0c-5.2445374 0 -9.496063 -4.251526 -9.496063 -9.496063z" fill-rule="nonzero"></path><path fill="#9900ff" d="m323.0 154.49606l0 0c0 -5.2445374 4.251526 -9.496063 9.496063 -9.496063l0 0c2.5185242 0 4.9338684 1.000473 6.7147217 2.7813263c1.7808533 1.7808685 2.7813416 4.196228 2.7813416 6.714737l0 0c0 5.2445374 -4.251526 9.496063 -9.496063 9.496063l0 0c-5.2445374 0 -9.496063 -4.251526 -9.496063 -9.496063z" fill-rule="nonzero"></path><path fill="#9900ff" d="m348.0 154.49606l0 0c0 -5.2445374 4.251526 -9.496063 9.496063 -9.496063l0 0c2.5185242 0 4.9338684 1.000473 6.7147217 2.7813263c1.7808533 1.7808685 2.7813416 4.196228 2.7813416 6.714737l0 0c0 5.2445374 -4.251526 9.496063 -9.496063 9.496063l0 0c-5.2445374 0 -9.496063 -4.251526 -9.496063 -9.496063z" fill-rule="nonzero"></path><path fill="#9900ff" d="m373.0 154.49606l0 0c0 -5.2445374 4.251526 -9.496063 9.496063 -9.496063l0 0c2.5185242 0 4.9338684 1.000473 6.7147217 2.7813263c1.7808533 1.7808685 2.7813416 4.196228 2.7813416 6.714737l0 0c0 5.2445374 -4.251526 9.496063 -9.496063 9.496063l0 0c-5.2445374 0 -9.496063 -4.251526 -9.496063 -9.496063z" fill-rule="nonzero"></path><path fill="#9900ff" d="m442.50394 154.49606l0 0c0 -5.2445374 4.251526 -9.496063 9.496063 -9.496063l0 0c2.5185242 0 4.9338684 1.000473 6.7147217 2.7813263c1.7808533 1.7808685 2.7813416 4.196228 2.7813416 6.714737l0 0c0 5.2445374 -4.251526 9.496063 -9.496063 9.496063l0 0c-5.2445374 0 -9.496063 -4.251526 -9.496063 -9.496063z" fill-rule="nonzero"></path><path fill="#9900ff" d="m469.0 154.49606l0 0c0 -5.2445374 4.251526 -9.496063 9.496063 -9.496063l0 0c2.5185242 0 4.9338684 1.000473 6.7147217 2.7813263c1.7808533 1.7808685 2.7813416 4.196228 2.7813416 6.714737l0 0c0 5.2445374 -4.251526 9.496063 -9.496063 9.496063l0 0c-5.2445374 0 -9.496063 -4.251526 -9.496063 -9.496063z" fill-rule="nonzero"></path><path fill="#9900ff" d="m492.50394 154.49606l0 0c0 -5.2445374 4.251526 -9.496063 9.496063 -9.496063l0 0c2.5185242 0 4.9338684 1.000473 6.7147217 2.7813263c1.7808533 1.7808685 2.7813416 4.196228 2.7813416 6.714737l0 0c0 5.2445374 -4.251526 9.496063 -9.496063 9.496063l0 0c-5.2445374 0 -9.496063 -4.251526 -9.496063 -9.496063z" fill-rule="nonzero"></path><path fill="#9900ff" d="m524.0 154.49606l0 0c0 -5.2445374 4.251526 -9.496063 9.496033 -9.496063l0 0c2.5185547 0 4.933899 1.000473 6.7147827 2.7813263c1.7808228 1.7808685 2.781311 4.196228 2.781311 6.714737l0 0c0 5.2445374 -4.251526 9.496063 -9.496094 9.496063l0 0c-5.244507 0 -9.496033 -4.251526 -9.496033 -9.496063z" fill-rule="nonzero"></path><path fill="#9900ff" d="m603.0079 154.49606l0 0c0 -5.2445374 4.251526 -9.496063 9.496094 -9.496063l0 0c2.5184937 0 4.933838 1.000473 6.7147217 2.7813263c1.7808228 1.7808685 2.781311 4.196228 2.781311 6.714737l0 0c0 5.2445374 -4.251526 9.496063 -9.496033 9.496063l0 0c-5.244568 0 -9.496094 -4.251526 -9.496094 -9.496063z" fill-rule="nonzero"></path><path fill="#9900ff" d="m374.97638 219.49606l0 0c0 -5.2445374 4.251526 -9.496063 9.496063 -9.496063l0 0c2.5185242 0 4.9338684 1.000473 6.7147217 2.7813263c1.7808533 1.7808685 2.7813416 4.196228 2.7813416 6.714737l0 0c0 5.2445374 -4.251526 9.496063 -9.496063 9.496063l0 0c-5.2445374 0 -9.496063 -4.251526 -9.496063 -9.496063z" fill-rule="nonzero"></path><path fill="#9900ff" d="m401.47244 219.49606l0 0c0 -5.2445374 4.251526 -9.496063 9.496063 -9.496063l0 0c2.5185242 0 4.9338684 1.000473 6.7147217 2.7813263c1.7808533 1.7808685 2.7813416 4.196228 2.7813416 6.714737l0 0c0 5.2445374 -4.251526 9.496063 -9.496063 9.496063l0 0c-5.2445374 0 -9.496063 -4.251526 -9.496063 -9.496063z" fill-rule="nonzero"></path><path fill="#9900ff" d="m209.0 219.49606l0 0c0 -5.2445374 4.251526 -9.496063 9.496063 -9.496063l0 0c2.518509 0 4.9338684 1.000473 6.714737 2.7813263c1.7808533 1.7808685 2.7813263 4.196228 2.7813263 6.714737l0 0c0 5.2445374 -4.251526 9.496063 -9.496063 9.496063l0 0c-5.2445374 0 -9.496063 -4.251526 -9.496063 -9.496063z" fill-rule="nonzero"></path><path fill="#9900ff" d="m242.0 219.49606l0 0c0 -5.2445374 4.251526 -9.496063 9.496063 -9.496063l0 0c2.518509 0 4.9338684 1.000473 6.7147217 2.7813263c1.7808533 1.7808685 2.7813416 4.196228 2.7813416 6.714737l0 0c0 5.2445374 -4.251526 9.496063 -9.496063 9.496063l0 0c-5.2445374 0 -9.496063 -4.251526 -9.496063 -9.496063z" fill-rule="nonzero"></path><path fill="#9900ff" d="m267.0 219.49606l0 0c0 -5.2445374 4.251526 -9.496063 9.496063 -9.496063l0 0c2.5185242 0 4.9338684 1.000473 6.7147217 2.7813263c1.7808533 1.7808685 2.7813416 4.196228 2.7813416 6.714737l0 0c0 5.2445374 -4.251526 9.496063 -9.496063 9.496063l0 0c-5.2445374 0 -9.496063 -4.251526 -9.496063 -9.496063z" fill-rule="nonzero"></path><path fill="#9900ff" d="m292.0 219.49606l0 0c0 -5.2445374 4.251526 -9.496063 9.496063 -9.496063l0 0c2.5185242 0 4.9338684 1.000473 6.7147217 2.7813263c1.7808533 1.7808685 2.7813416 4.196228 2.7813416 6.714737l0 0c0 5.2445374 -4.251526 9.496063 -9.496063 9.496063l0 0c-5.2445374 0 -9.496063 -4.251526 -9.496063 -9.496063z" fill-rule="nonzero"></path><path fill="#9900ff" d="m568.4803 219.49606l0 0c0 -5.2445374 4.251587 -9.496063 9.496094 -9.496063l0 0c2.5184937 0 4.933899 1.000473 6.7147217 2.7813263c1.7808838 1.7808685 2.781311 4.196228 2.781311 6.714737l0 0c0 5.2445374 -4.251526 9.496063 -9.496033 9.496063l0 0c-5.244507 0 -9.496094 -4.251526 -9.496094 -9.496063z" fill-rule="nonzero"></path><path fill="#9900ff" d="m594.9764 219.49606l0 0c0 -5.2445374 4.251526 -9.496063 9.496033 -9.496063l0 0c2.5185547 0 4.933899 1.000473 6.7147827 2.7813263c1.7808228 1.7808685 2.781311 4.196228 2.781311 6.714737l0 0c0 5.2445374 -4.251526 9.496063 -9.496094 9.496063l0 0c-5.244507 0 -9.496033 -4.251526 -9.496033 -9.496063z" fill-rule="nonzero"></path><path fill="#9900ff" d="m618.4803 219.49606l0 0c0 -5.2445374 4.251587 -9.496063 9.496094 -9.496063l0 0c2.5184937 0 4.933899 1.000473 6.7147217 2.7813263c1.7808838 1.7808685 2.781311 4.196228 2.781311 6.714737l0 0c0 5.2445374 -4.251526 9.496063 -9.496033 9.496063l0 0c-5.244507 0 -9.496094 -4.251526 -9.496094 -9.496063z" fill-rule="nonzero"></path><path fill="#9900ff" d="m477.0 219.49606l0 0c0 -5.2445374 4.251526 -9.496063 9.496063 -9.496063l0 0c2.5185242 0 4.9338684 1.000473 6.7147217 2.7813263c1.7808533 1.7808685 2.7813416 4.196228 2.7813416 6.714737l0 0c0 5.2445374 -4.251526 9.496063 -9.496063 9.496063l0 0c-5.2445374 0 -9.496063 -4.251526 -9.496063 -9.496063z" fill-rule="nonzero"></path><path fill="#9900ff" d="m487.99213 284.49606l0 0c0 -5.2445374 4.251526 -9.496063 9.496063 -9.496063l0 0c2.5185242 0 4.9338684 1.0004883 6.7147217 2.7813416c1.7808533 1.7808533 2.7813416 4.1961975 2.7813416 6.7147217l0 0c0 5.2445374 -4.251526 9.496063 -9.496063 9.496063l0 0c-5.2445374 0 -9.496063 -4.251526 -9.496063 -9.496063z" fill-rule="nonzero"></path><path fill="#9900ff" d="m514.48816 284.49606l0 0c0 -5.2445374 4.251587 -9.496063 9.496094 -9.496063l0 0c2.5184937 0 4.933899 1.0004883 6.7147217 2.7813416c1.7808838 1.7808533 2.781311 4.1961975 2.781311 6.7147217l0 0c0 5.2445374 -4.251526 9.496063 -9.496033 9.496063l0 0c-5.244507 0 -9.496094 -4.251526 -9.496094 -9.496063z" fill-rule="nonzero"></path><path fill="#9900ff" d="m185.76378 284.49606l0 0c0 -5.2445374 4.251526 -9.496063 9.496063 -9.496063l0 0c2.518509 0 4.9338684 1.0004883 6.714737 2.7813416c1.7808533 1.7808533 2.7813263 4.1961975 2.7813263 6.7147217l0 0c0 5.2445374 -4.251526 9.496063 -9.496063 9.496063l0 0c-5.2445374 0 -9.496063 -4.251526 -9.496063 -9.496063z" fill-rule="nonzero"></path><path fill="#9900ff" d="m265.0 284.49606l0 0c0 -5.2445374 4.251526 -9.496063 9.496063 -9.496063l0 0c2.5185242 0 4.9338684 1.0004883 6.7147217 2.7813416c1.7808533 1.7808533 2.7813416 4.1961975 2.7813416 6.7147217l0 0c0 5.2445374 -4.251526 9.496063 -9.496063 9.496063l0 0c-5.2445374 0 -9.496063 -4.251526 -9.496063 -9.496063z" fill-rule="nonzero"></path><path fill="#9900ff" d="m291.49606 284.49606l0 0c0 -5.2445374 4.251526 -9.496063 9.496063 -9.496063l0 0c2.5185242 0 4.9338684 1.0004883 6.7147217 2.7813416c1.7808533 1.7808533 2.7813416 4.1961975 2.7813416 6.7147217l0 0c0 5.2445374 -4.251526 9.496063 -9.496063 9.496063l0 0c-5.2445374 0 -9.496063 -4.251526 -9.496063 -9.496063z" fill-rule="nonzero"></path><path fill="#9900ff" d="m315.0 284.49606l0 0c0 -5.2445374 4.251526 -9.496063 9.496063 -9.496063l0 0c2.5185242 0 4.9338684 1.0004883 6.7147217 2.7813416c1.7808533 1.7808533 2.7813416 4.1961975 2.7813416 6.7147217l0 0c0 5.2445374 -4.251526 9.496063 -9.496063 9.496063l0 0c-5.2445374 0 -9.496063 -4.251526 -9.496063 -9.496063z" fill-rule="nonzero"></path><path fill="#9900ff" d="m558.01575 284.49606l0 0c0 -5.2445374 4.251526 -9.496063 9.496094 -9.496063l0 0c2.5184937 0 4.933838 1.0004883 6.7147217 2.7813416c1.7808228 1.7808533 2.781311 4.1961975 2.781311 6.7147217l0 0c0 5.2445374 -4.251526 9.496063 -9.496033 9.496063l0 0c-5.244568 0 -9.496094 -4.251526 -9.496094 -9.496063z" fill-rule="nonzero"></path></g></svg>

