<?xml version="1.0" encoding="UTF-8" standalone="no"?>
<!--
Licensed to the Apache Software Foundation (ASF) under one
or more contributor license agreements.  See the NOTICE file
distributed with this work for additional information
regarding copyright ownership.  The ASF licenses this file
to you under the Apache License, Version 2.0 (the
"License"); you may not use this file except in compliance
with the License.  You may obtain a copy of the License at

http://www.apache.org/licenses/LICENSE-2.0

Unless required by applicable law or agreed to in writing,
software distributed under the License is distributed on an
"AS IS" BASIS, WITHOUT WARRANTIES OR CONDITIONS OF ANY
KIND, either express or implied.  See the License for the
specific language governing permissions and limitations
under the License.
-->
<svg width="916" height="303" xmlns="http://www.w3.org/2000/svg" xmlns:xlink="http://www.w3.org/1999/xlink" overflow="hidden"><defs><clipPath id="clip0"><path d="M192-10 1108-10 1108 293 192 293Z" fill-rule="evenodd" clip-rule="evenodd"/></clipPath></defs><g clip-path="url(#clip0)" transform="translate(-192 10)"><path d="M490 109C490 43.8304 542.383-9 607-9 671.617-9 724 43.8304 724 109 724 174.17 671.617 227 607 227 542.383 227 490 174.17 490 109Z" fill="#AECBCC" fill-rule="evenodd"/><text font-family="Verdana,Verdana_MSFontService,sans-serif" font-weight="400" font-size="19" transform="translate(538.205 44)">Source Reader<tspan font-style="italic" font-size="15" x="-336.407" y="-2">Source Partition (1)</tspan></text><path d="M258 58.5897C258 56.0549 260.055 54 262.59 54L508.41 54C510.945 54 513 56.0549 513 58.5897L513 104.41C513 106.945 510.945 109 508.41 109L262.59 109C260.055 109 258 106.945 258 104.41Z" fill="#CAD9DF" fill-rule="evenodd"/><path d="M697.044 119.978C692.188 134.114 676.367 141.777 661.707 137.095 647.048 132.412 639.1 117.157 643.956 103.022 648.812 88.8863 664.633 81.223 679.293 85.9054 687.761 88.6103 694.383 95.0494 697.117 103.238L709.467 102.084 694.161 109.29 676.158 105.196 688.441 104.048C684.104 94.6457 672.556 90.3595 662.647 94.4749 652.739 98.5904 648.222 109.549 652.559 118.952 656.896 128.354 668.444 132.64 678.353 128.525 683.411 126.424 687.3 122.394 689.061 117.428Z" fill="#385723" fill-rule="evenodd"/><path d="M1041 80.5001C1036.86 80.5001 1033.5 93.9316 1033.5 110.5 1033.5 127.069 1036.86 140.5 1041 140.5L783 140.5C778.858 140.5 775.5 127.069 775.5 110.5 775.5 93.9313 778.858 80.4998 783 80.4998Z" fill="#CAD9DF" fill-rule="evenodd"/><path d="M1041 80.5001C1045.14 80.5001 1048.5 93.9316 1048.5 110.5 1048.5 127.069 1045.14 140.5 1041 140.5 1036.86 140.5 1033.5 127.069 1033.5 110.5 1033.5 93.9316 1036.86 80.5001 1041 80.5001Z" fill="#DFE8EC" fill-rule="evenodd"/><path d="M1041 140.5C1036.86 140.5 1033.5 127.069 1033.5 110.5 1033.5 93.9313 1036.86 80.4998 1041 80.4998 1045.14 80.4998 1048.5 93.9313 1048.5 110.5 1048.5 127.069 1045.14 140.5 1041 140.5ZM1041 140.5 783 140.5C778.858 140.5 775.5 127.069 775.5 110.5 775.5 93.9313 778.858 80.4998 783 80.4998L1041 80.5001" stroke="#000000" stroke-width="3" stroke-miterlimit="8" fill="none" fill-rule="evenodd"/><path d="M720 93.5 742.5 93.5 742.5 77 765 110 742.5 143 742.5 126.5 720 126.5Z" fill="#7C7C7C" fill-rule="evenodd"/><path d="M1063 93.5 1085 93.5 1085 77 1107 110 1085 143 1085 126.5 1063 126.5Z" fill="#7C7C7C" fill-rule="evenodd"/><rect x="434" y="63" width="70" height="36" fill="#597978"/><text fill="#FFFFFF" font-family="Verdana,Verdana_MSFontService,sans-serif" font-weight="400" font-size="16" transform="translate(444.972 88)">C<tspan x="11.1667" y="0">@37</tspan></text><rect x="358" y="63" width="70" height="36" fill="#597978"/><text fill="#FFFFFF" font-family="Verdana,Verdana_MSFontService,sans-serif" font-weight="400" font-size="16" transform="translate(368.559 88)">D<tspan x="12.3333" y="0">@38</tspan></text><rect x="282" y="63" width="70" height="36" fill="#597978"/><text fill="#FFFFFF" font-family="Verdana,Verdana_MSFontService,sans-serif" font-weight="400" font-size="16" transform="translate(293.813 88)">E<tspan x="10.1667" y="0">@42</tspan></text><path d="M258 122.673C258 120.092 260.092 118 262.673 118L508.327 118C510.908 118 513 120.092 513 122.673L513 169.327C513 171.908 510.908 174 508.327 174L262.673 174C260.092 174 258 171.908 258 169.327Z" fill="#CAD9DF" fill-rule="evenodd"/><rect x="434" y="128" width="70" height="36" fill="#597978"/><text fill="#FFFFFF" font-family="Verdana,Verdana_MSFontService,sans-serif" font-weight="400" font-size="16" transform="translate(445.056 152)">X@88</text><rect x="358" y="128" width="70" height="36" fill="#597978"/><text fill="#FFFFFF" font-family="Verdana,Verdana_MSFontService,sans-serif" font-weight="400" font-size="16" transform="translate(369.809 152)">Y@90</text><rect x="282" y="128" width="70" height="36" fill="#597978"/><text fill="#FFFFFF" font-family="Verdana,Verdana_MSFontService,sans-serif" font-weight="400" font-size="16" transform="translate(293.396 152)">Z@92<tspan fill="#000000" font-style="italic" font-size="15" x="-91.5985" y="47">Source Partition (2)</tspan><tspan fill="#000000" font-style="italic" font-size="15" x="9.31302" y="105">Event @ Timestamp</tspan></text><path d="M1.49649-0.102579 6.09005 66.9113 3.09707 67.1165-1.49649 0.102579ZM8.98045 65.2097 5.10646 74.4964 0.00151862 65.8252Z" transform="matrix(1 0 0 -1 396.5 236.996)"/><path d="M508.5 60.5002C508.5 54.9773 512.977 50.5001 518.5 50.5001L558.5 50.5001C564.023 50.5001 568.5 54.9773 568.5 60.5002L568.5 101.5C568.5 107.023 564.023 111.5 558.5 111.5L518.5 111.5C512.977 111.5 508.5 107.023 508.5 101.5Z" stroke="#000000" stroke-width="1.33333" stroke-miterlimit="8" fill="#F2F2F2" fill-rule="evenodd"/><text font-family="Verdana,Verdana_MSFontService,sans-serif" font-weight="400" font-size="15" transform="translate(512.437 87)">WM<tspan x="32" y="0">3</tspan><tspan x="41.3333" y="0">5</tspan></text><path d="M508.5 128.5C508.5 122.977 512.977 118.5 518.5 118.5L558.5 118.5C564.023 118.5 568.5 122.977 568.5 128.5L568.5 168.5C568.5 174.023 564.023 178.5 558.5 178.5L518.5 178.5C512.977 178.5 508.5 174.023 508.5 168.5Z" stroke="#000000" stroke-width="1.33333" stroke-miterlimit="8" fill="#F2F2F2" fill-rule="evenodd"/><text font-family="Verdana,Verdana_MSFontService,sans-serif" font-weight="400" font-size="15" transform="translate(512.437 154)">WM<tspan x="32" y="0">85</tspan></text><path d="M577.5 60.5003C577.5 54.9773 581.977 50.5001 587.5 50.5001L627.5 50.5001C633.023 50.5001 637.5 54.9773 637.5 60.5003L637.5 168.5C637.5 174.023 633.023 178.5 627.5 178.5L587.5 178.5C581.977 178.5 577.5 174.023 577.5 168.5Z" stroke="#000000" stroke-width="1.33333" stroke-miterlimit="8" fill="#F2F2F2" fill-rule="evenodd"/><text font-family="Verdana,Verdana_MSFontService,sans-serif" font-weight="400" font-size="15" transform="translate(581.914 120)">WM<tspan x="32" y="0">35</tspan><tspan font-style="italic" x="-61.5228" y="143">Split</tspan><tspan font-style="italic" x="-28.5228" y="143">-</tspan><tspan font-style="italic" x="-21.8561" y="143">local</tspan><tspan font-style="italic" x="-78.1095" y="160">WM Generator</tspan></text><path d="M555.504 244.412 546.072 178.137 549.042 177.714 558.474 243.989ZM543.313 180.044 546.5 170.5 552.223 178.776Z"/><text font-family="Verdana,Verdana_MSFontService,sans-serif" font-style="italic" font-weight="400" font-size="15" transform="translate(684.5 256)">Combined Source<tspan x="16.08" y="17">Operator WM</tspan></text><path d="M732.062 240.432 625.751 165.061 627.486 162.614 733.797 237.984ZM625.24 168.376 620.5 159.5 630.445 161.034Z"/><rect x="956" y="93" width="69" height="36" fill="#597978"/><text fill="#FFFFFF" font-family="Verdana,Verdana_MSFontService,sans-serif" font-weight="400" font-size="16" transform="translate(966.839 117)">A@30</text><rect x="868" y="93" width="70" height="36" fill="#597978"/><text fill="#FFFFFF" font-family="Verdana,Verdana_MSFontService,sans-serif" font-weight="400" font-size="16" transform="translate(877.12 117)">W@85</text><path d="M786 65 786 164.278" stroke="#000000" stroke-width="2" stroke-miterlimit="8" stroke-dasharray="2 2" fill="none" fill-rule="evenodd"/><text font-family="Verdana,Verdana_MSFontService,sans-serif" font-style="italic" font-weight="400" font-size="15" transform="translate(758.663 51)">WM 35</text><path d="M948 65 948 164.278" stroke="#000000" stroke-width="2" stroke-miterlimit="8" stroke-dasharray="2 2" fill="none" fill-rule="evenodd"/><text font-family="Verdana,Verdana_MSFontService,sans-serif" font-style="italic" font-weight="400" font-size="15" transform="translate(921.002 51)">WM 30</text><rect x="792" y="93" width="70" height="36" fill="#597978"/><text fill="#FFFFFF" font-family="Verdana,Verdana_MSFontService,sans-serif" font-weight="400" font-size="16" transform="translate(803.276 117)">B@35</text></g></svg>
