<?xml version="1.0" encoding="UTF-8" standalone="no"?>
<!--
Licensed to the Apache Software Foundation (ASF) under one
or more contributor license agreements.  See the NOTICE file
distributed with this work for additional information
regarding copyright ownership.  The ASF licenses this file
to you under the Apache License, Version 2.0 (the
"License"); you may not use this file except in compliance
with the License.  You may obtain a copy of the License at

http://www.apache.org/licenses/LICENSE-2.0

Unless required by applicable law or agreed to in writing,
software distributed under the License is distributed on an
"AS IS" BASIS, WITHOUT WARRANTIES OR CONDITIONS OF ANY
KIND, either express or implied.  See the License for the
specific language governing permissions and limitations
under the License.
-->

<svg
   xmlns:dc="http://purl.org/dc/elements/1.1/"
   xmlns:cc="http://creativecommons.org/ns#"
   xmlns:rdf="http://www.w3.org/1999/02/22-rdf-syntax-ns#"
   xmlns:svg="http://www.w3.org/2000/svg"
   xmlns="http://www.w3.org/2000/svg"
   version="1.1"
   width="851.09106"
   height="613.16156"
   id="svg2">
  <defs
     id="defs4" />
  <metadata
     id="metadata7">
    <rdf:RDF>
      <cc:Work
         rdf:about="">
        <dc:format>image/svg+xml</dc:format>
        <dc:type
           rdf:resource="http://purl.org/dc/dcmitype/StillImage" />
        <dc:title></dc:title>
      </cc:Work>
    </rdf:RDF>
  </metadata>
  <g
     transform="translate(50.54889,-225.78139)"
     id="layer1">
    <g
       transform="translate(-391.17389,218.44297)"
       id="g2989">
      <path
         d="m 341.26002,269.37336 0,209.43342 264.44088,0 0,-209.43342 -264.44088,0 z"
         id="path2991"
         style="fill:#ffffff;fill-opacity:1;fill-rule:evenodd;stroke:none" />
      <path
         d="m 341.26002,269.37336 264.44088,0 0,209.43342 -264.44088,0 z"
         id="path2993"
         style="fill:none;stroke:#000000;stroke-width:1.25656307px;stroke-linecap:butt;stroke-linejoin:miter;stroke-miterlimit:4;stroke-opacity:1;stroke-dasharray:none" />
      <text
         x="350.33728"
         y="291.3476"
         id="text2995"
         xml:space="preserve"
         style="font-size:17.55437279px;font-style:normal;font-weight:normal;text-align:start;text-anchor:start;fill:#000000;font-family:Verdana">Flink Program</text>
      <path
         d="m 495.68599,390.9599 0,81.43278 105.02616,0 0,-81.43278 -105.02616,0 z"
         id="path2997"
         style="fill:#e4eaf4;fill-opacity:1;fill-rule:evenodd;stroke:none" />
      <path
         d="m 495.68599,390.9599 105.02616,0 0,81.43278 -105.02616,0 z"
         id="path2999"
         style="fill:none;stroke:#898c92;stroke-width:1.25656307px;stroke-linecap:butt;stroke-linejoin:miter;stroke-miterlimit:4;stroke-opacity:1;stroke-dasharray:none" />
      <text
         x="504.73251"
         y="413.00705"
         id="text3001"
         xml:space="preserve"
         style="font-size:17.55437279px;font-style:normal;font-weight:normal;text-align:start;text-anchor:start;fill:#000000;font-family:Verdana">Client</text>
      <path
         d="m 943.285,29.932457 0,251.950263 204.1258,0 0,-251.950263 -204.1258,0 z"
         id="path3003"
         style="fill:#f5a030;fill-opacity:1;fill-rule:evenodd;stroke:none" />
      <path
         d="m 943.285,29.932457 204.1258,0 0,251.950263 -204.1258,0 z"
         id="path3005"
         style="fill:none;stroke:#935f1c;stroke-width:1.23780835px;stroke-linecap:butt;stroke-linejoin:miter;stroke-miterlimit:4;stroke-opacity:1;stroke-dasharray:none" />
      <text
         x="952.29791"
         y="51.877296"
         id="text3007"
         xml:space="preserve"
         style="font-size:17.55437279px;font-style:normal;font-weight:normal;text-align:start;text-anchor:start;fill:#000000;font-family:Verdana">TaskManager</text>
      <path
         d="m 1018.6413,77.306759 0,88.297001 53.9009,0 0,-88.297001 -53.9009,0 z"
         id="path3009"
         style="fill:#e4eaf4;fill-opacity:1;fill-rule:evenodd;stroke:none" />
      <path
         d="m 1018.6413,77.306759 53.9009,0 0,88.297001 -53.9009,0 z"
         id="path3011"
         style="fill:none;stroke:#898c92;stroke-width:1.23780835px;stroke-linecap:butt;stroke-linejoin:miter;stroke-miterlimit:4;stroke-opacity:1;stroke-dasharray:none" />
      <text
         x="1029.1053"
         y="96.706863"
         id="text3013"
         xml:space="preserve"
         style="font-size:15.00373745px;font-style:normal;font-weight:normal;text-align:start;text-anchor:start;fill:#000000;font-family:Verdana">Task </text>
      <text
         x="1031.0559"
         y="114.71135"
         id="text3015"
         xml:space="preserve"
         style="font-size:15.00373745px;font-style:normal;font-weight:normal;text-align:start;text-anchor:start;fill:#000000;font-family:Verdana">Slot</text>
      <path
         d="m 1083.0073,77.306759 0,88.297001 53.9384,0 0,-88.297001 -53.9384,0 z"
         id="path3017"
         style="fill:#e4eaf4;fill-opacity:1;fill-rule:evenodd;stroke:none" />
      <path
         d="m 1083.0073,77.306759 53.9384,0 0,88.297001 -53.9384,0 z"
         id="path3019"
         style="fill:none;stroke:#898c92;stroke-width:1.23780835px;stroke-linecap:butt;stroke-linejoin:miter;stroke-miterlimit:4;stroke-opacity:1;stroke-dasharray:none" />
      <text
         x="1093.4702"
         y="96.706863"
         id="text3021"
         xml:space="preserve"
         style="font-size:15.00373745px;font-style:normal;font-weight:normal;text-align:start;text-anchor:start;fill:#000000;font-family:Verdana">Task </text>
      <text
         x="1095.4207"
         y="114.71135"
         id="text3023"
         xml:space="preserve"
         style="font-size:15.00373745px;font-style:normal;font-weight:normal;text-align:start;text-anchor:start;fill:#000000;font-family:Verdana">Slot</text>
      <path
         d="m 1026.5933,139.90986 c 0,-10.50262 8.5146,-19.01724 19.0172,-19.01724 10.4651,0 18.9797,8.51462 18.9797,19.01724 0,10.4651 -8.5146,18.97972 -18.9797,18.97972 -10.5026,0 -19.0172,-8.51462 -19.0172,-18.97972"
         id="path3025"
         style="fill:#be73f1;fill-opacity:1;fill-rule:evenodd;stroke:none" />
      <path
         d="m 1026.5933,139.90986 c 0,-10.50262 8.5146,-19.01724 19.0172,-19.01724 10.4651,0 18.9797,8.51462 18.9797,19.01724 0,10.4651 -8.5146,18.97972 -18.9797,18.97972 -10.5026,0 -19.0172,-8.51462 -19.0172,-18.97972"
         id="path3027"
         style="fill:none;stroke:#724591;stroke-width:1.23780835px;stroke-linecap:butt;stroke-linejoin:miter;stroke-miterlimit:4;stroke-opacity:1;stroke-dasharray:none" />
      <text
         x="1032.5719"
         y="144.36874"
         id="text3029"
         xml:space="preserve"
         style="font-size:11.2528038px;font-style:normal;font-weight:normal;text-align:start;text-anchor:start;fill:#000000;font-family:Verdana">Task</text>
      <path
         d="m 953.78761,77.306759 0,88.297001 53.75089,0 0,-88.297001 -53.75089,0 z"
         id="path3031"
         style="fill:#e4eaf4;fill-opacity:1;fill-rule:evenodd;stroke:none" />
      <path
         d="m 953.78761,77.306759 53.75089,0 0,88.297001 -53.75089,0 z"
         id="path3033"
         style="fill:none;stroke:#898c92;stroke-width:1.23780835px;stroke-linecap:butt;stroke-linejoin:miter;stroke-miterlimit:4;stroke-opacity:1;stroke-dasharray:none" />
      <text
         x="964.16815"
         y="96.706863"
         id="text3035"
         xml:space="preserve"
         style="font-size:15.00373745px;font-style:normal;font-weight:normal;text-align:start;text-anchor:start;fill:#000000;font-family:Verdana">Task </text>
      <text
         x="966.11865"
         y="114.71135"
         id="text3037"
         xml:space="preserve"
         style="font-size:15.00373745px;font-style:normal;font-weight:normal;text-align:start;text-anchor:start;fill:#000000;font-family:Verdana">Slot</text>
      <path
         d="m 961.58956,139.90986 c 0,-10.50262 8.55213,-19.01724 19.05474,-19.01724 10.54013,0 19.09226,8.51462 19.09226,19.01724 0,10.4651 -8.55213,18.97972 -19.09226,18.97972 -10.50261,0 -19.05474,-8.51462 -19.05474,-18.97972"
         id="path3039"
         style="fill:#be73f1;fill-opacity:1;fill-rule:evenodd;stroke:none" />
      <path
         d="m 961.58956,139.90986 c 0,-10.50262 8.55213,-19.01724 19.05474,-19.01724 10.54013,0 19.09226,8.51462 19.09226,19.01724 0,10.4651 -8.55213,18.97972 -19.09226,18.97972 -10.50261,0 -19.05474,-8.51462 -19.05474,-18.97972"
         id="path3041"
         style="fill:none;stroke:#724591;stroke-width:1.23780835px;stroke-linecap:butt;stroke-linejoin:miter;stroke-miterlimit:4;stroke-opacity:1;stroke-dasharray:none" />
      <text
         x="967.63464"
         y="144.36874"
         id="text3043"
         xml:space="preserve"
         style="font-size:11.2528038px;font-style:normal;font-weight:normal;text-align:start;text-anchor:start;fill:#000000;font-family:Verdana">Task</text>
      <path
         d="m 951.27449,206.714 0,31.7329 188.48441,0 0,-31.7329 -188.48441,0 z"
         id="path3045"
         style="fill:#b8bec6;fill-opacity:1;fill-rule:evenodd;stroke:none" />
      <path
         d="m 951.27449,206.714 188.48441,0 0,31.7329 -188.48441,0 z"
         id="path3047"
         style="fill:none;stroke:#6e7277;stroke-width:1.23780835px;stroke-linecap:butt;stroke-linejoin:miter;stroke-miterlimit:4;stroke-opacity:1;stroke-dasharray:none" />
      <text
         x="987.11847"
         y="227.79962"
         id="text3049"
         xml:space="preserve"
         style="font-size:13.20328903px;font-style:normal;font-weight:normal;text-align:start;text-anchor:start;fill:#000000;font-family:Verdana">Network Manager</text>
      <path
         d="m 951.27449,243.28561 0,32.5206 188.48441,0 0,-32.5206 -188.48441,0 z"
         id="path3051"
         style="fill:#b8bec6;fill-opacity:1;fill-rule:evenodd;stroke:none" />
      <path
         d="m 951.27449,243.28561 188.48441,0 0,32.5206 -188.48441,0 z"
         id="path3053"
         style="fill:none;stroke:#6e7277;stroke-width:1.23780835px;stroke-linecap:butt;stroke-linejoin:miter;stroke-miterlimit:4;stroke-opacity:1;stroke-dasharray:none" />
      <text
         x="1001.0752"
         y="264.77148"
         id="text3055"
         xml:space="preserve"
         style="font-size:13.20328903px;font-style:normal;font-weight:normal;text-align:start;text-anchor:start;fill:#000000;font-family:Verdana">Actor System</text>
      <path
         d="m 951.27449,170.44246 0,31.73291 188.48441,0 0,-31.73291 -188.48441,0 z"
         id="path3057"
         style="fill:#b8bec6;fill-opacity:1;fill-rule:evenodd;stroke:none" />
      <path
         d="m 951.27449,170.44246 188.48441,0 0,31.73291 -188.48441,0 z"
         id="path3059"
         style="fill:none;stroke:#6e7277;stroke-width:1.23780835px;stroke-linecap:butt;stroke-linejoin:miter;stroke-miterlimit:4;stroke-opacity:1;stroke-dasharray:none" />
      <text
         x="967.76367"
         y="191.52837"
         id="text3061"
         xml:space="preserve"
         style="font-size:13.20328903px;font-style:normal;font-weight:normal;text-align:start;text-anchor:start;fill:#000000;font-family:Verdana">Memory &amp; I/O Manager</text>
      <path
         d="m 804.98804,438.48424 0,158.1769 200.52496,0 0,-158.1769 -200.52496,0 z"
         id="path3063"
         style="fill:#f5a030;fill-opacity:1;fill-rule:evenodd;stroke:none" />
      <path
         d="m 804.98804,438.48424 200.52496,0 0,158.1769 -200.52496,0 z"
         id="path3065"
         style="fill:none;stroke:#935f1c;stroke-width:1.23780835px;stroke-linecap:butt;stroke-linejoin:miter;stroke-miterlimit:4;stroke-opacity:1;stroke-dasharray:none" />
      <text
         x="814.04663"
         y="460.43439"
         id="text3067"
         xml:space="preserve"
         style="font-size:17.55437279px;font-style:normal;font-weight:normal;text-align:start;text-anchor:start;fill:#000000;font-family:Verdana">JobManager</text>
      <text
         x="1006.6214"
         y="17.8258"
         id="text3069"
         xml:space="preserve"
         style="font-size:13.80343914px;font-style:italic;font-weight:normal;text-align:start;text-anchor:start;fill:#000000;font-family:Verdana">(Worker)</text>
      <text
         x="782.64081"
         y="617.72314"
         id="text3071"
         xml:space="preserve"
         style="font-size:13.80343914px;font-style:italic;font-weight:normal;text-align:start;text-anchor:start;fill:#000000;font-family:Verdana">(Master / YARN Application Master)</text>
      <path
         d="m 811.2521,517.55394 0,56.45156 89.0847,0 0,-56.45156 -89.0847,0 z"
         id="path3073"
         style="fill:#e4eaf4;fill-opacity:1;fill-rule:evenodd;stroke:none" />
      <path
         d="m 811.2521,517.55394 89.0847,0 0,56.45156 -89.0847,0 z"
         id="path3075"
         style="fill:none;stroke:#898c92;stroke-width:1.23780835px;stroke-linecap:butt;stroke-linejoin:miter;stroke-miterlimit:4;stroke-opacity:1;stroke-dasharray:none" />
      <text
         x="816.61139"
         y="532.03253"
         id="text3077"
         xml:space="preserve"
         style="font-size:10.05250454px;font-style:normal;font-weight:normal;text-align:start;text-anchor:start;fill:#000000;font-family:Verdana">Dataflow Graph</text>
      <path
         d="m 820.32936,554.91324 c 0.93774,-2.47561 3.67592,-3.75093 6.15154,-2.85071 2.51312,0.90023 3.78844,3.67592 2.85071,6.15154 -0.90023,2.47561 -3.63841,3.75093 -6.15154,2.85071 -2.47561,-0.90023 -3.75093,-3.67592 -2.85071,-6.15154"
         id="path3079"
         style="fill:#f5a030;fill-opacity:1;fill-rule:evenodd;stroke:none" />
      <path
         d="m 820.32936,554.91324 c 0.93774,-2.47561 3.67592,-3.75093 6.15154,-2.85071 2.51312,0.90023 3.78844,3.67592 2.85071,6.15154 -0.90023,2.47561 -3.63841,3.75093 -6.15154,2.85071 -2.47561,-0.90023 -3.75093,-3.67592 -2.85071,-6.15154"
         id="path3081"
         style="fill:none;stroke:#000000;stroke-width:0.63765883px;stroke-linecap:butt;stroke-linejoin:miter;stroke-miterlimit:4;stroke-opacity:1;stroke-dasharray:none" />
      <path
         d="m 847.97375,550.82472 c 0.4126,-2.58814 2.88822,-4.38859 5.51388,-3.93848 2.62565,0.41261 4.38859,2.88822 3.93848,5.51388 -0.41261,2.58814 -2.88822,4.38859 -5.51388,3.93848 -2.58814,-0.4126 -4.35108,-2.88822 -3.93848,-5.51388"
         id="path3083"
         style="fill:#f5a030;fill-opacity:1;fill-rule:evenodd;stroke:none" />
      <path
         d="m 847.97375,550.82472 c 0.4126,-2.58814 2.88822,-4.38859 5.51388,-3.93848 2.62565,0.41261 4.38859,2.88822 3.93848,5.51388 -0.41261,2.58814 -2.88822,4.38859 -5.51388,3.93848 -2.58814,-0.4126 -4.35108,-2.88822 -3.93848,-5.51388"
         id="path3085"
         style="fill:none;stroke:#000000;stroke-width:0.63765883px;stroke-linecap:butt;stroke-linejoin:miter;stroke-miterlimit:4;stroke-opacity:1;stroke-dasharray:none" />
      <path
         d="m 858.55139,564.47813 c 0.90022,-2.47562 3.67591,-3.75094 6.15153,-2.81321 2.47562,0.90023 3.75093,3.67592 2.85071,6.15154 -0.93773,2.47561 -3.67592,3.75093 -6.18904,2.8132 -2.47562,-0.90023 -3.75094,-3.67592 -2.8132,-6.15153"
         id="path3087"
         style="fill:#f5a030;fill-opacity:1;fill-rule:evenodd;stroke:none" />
      <path
         d="m 858.55139,564.47813 c 0.90022,-2.47562 3.67591,-3.75094 6.15153,-2.81321 2.47562,0.90023 3.75093,3.67592 2.85071,6.15154 -0.93773,2.47561 -3.67592,3.75093 -6.18904,2.8132 -2.47562,-0.90023 -3.75094,-3.67592 -2.8132,-6.15153"
         id="path3089"
         style="fill:none;stroke:#000000;stroke-width:0.63765883px;stroke-linecap:butt;stroke-linejoin:miter;stroke-miterlimit:4;stroke-opacity:1;stroke-dasharray:none" />
      <path
         d="m 882.2948,554.46313 c 0.82521,-2.51313 3.52588,-3.90097 6.07652,-3.07577 2.51312,0.86272 3.86346,3.56339 3.03825,6.07652 -0.8252,2.51312 -3.56339,3.86346 -6.07651,3.03826 -2.51313,-0.82521 -3.86346,-3.52588 -3.03826,-6.03901"
         id="path3091"
         style="fill:#f5a030;fill-opacity:1;fill-rule:evenodd;stroke:none" />
      <path
         d="m 882.2948,554.46313 c 0.82521,-2.51313 3.52588,-3.90097 6.07652,-3.07577 2.51312,0.86272 3.86346,3.56339 3.03825,6.07652 -0.8252,2.51312 -3.56339,3.86346 -6.07651,3.03826 -2.51313,-0.82521 -3.86346,-3.52588 -3.03826,-6.03901"
         id="path3093"
         style="fill:none;stroke:#000000;stroke-width:0.63765883px;stroke-linecap:butt;stroke-linejoin:miter;stroke-miterlimit:4;stroke-opacity:1;stroke-dasharray:none" />
      <path
         d="m 882.06975,538.52166 c 0.86271,-2.51313 3.6384,-3.82595 6.11402,-2.92573 2.51312,0.90022 3.78844,3.63841 2.92573,6.11402 -0.90023,2.51313 -3.63841,3.82596 -6.11403,2.92573 -2.51312,-0.90022 -3.82595,-3.6384 -2.92572,-6.11402"
         id="path3095"
         style="fill:#f5a030;fill-opacity:1;fill-rule:evenodd;stroke:none" />
      <path
         d="m 882.06975,538.52166 c 0.86271,-2.51313 3.6384,-3.82595 6.11402,-2.92573 2.51312,0.90022 3.78844,3.63841 2.92573,6.11402 -0.90023,2.51313 -3.63841,3.82596 -6.11403,2.92573 -2.51312,-0.90022 -3.82595,-3.6384 -2.92572,-6.11402"
         id="path3097"
         style="fill:none;stroke:#000000;stroke-width:0.63765883px;stroke-linecap:butt;stroke-linejoin:miter;stroke-miterlimit:4;stroke-opacity:1;stroke-dasharray:none" />
      <path
         d="m 829.33161,555.17581 15.07875,-2.96324 -0.22505,-1.23781 -15.07876,2.96324 0.22506,1.23781 z m 14.21604,-0.90023 4.4261,-3.41335 -5.36383,-1.50037 0.93773,4.91372 z"
         id="path3099"
         style="fill:#000000;fill-opacity:1;fill-rule:nonzero;stroke:#000000;stroke-width:0.03750934px;stroke-linecap:butt;stroke-linejoin:round;stroke-opacity:1;stroke-dasharray:none" />
      <path
         d="m 829.48164,557.61392 25.54387,5.47636 -0.26257,1.2003 -25.54386,-5.47637 0.26256,-1.20029 z m 24.71866,3.37584 4.35109,3.48837 -5.40135,1.38784 1.05026,-4.87621 z"
         id="path3101"
         style="fill:#000000;fill-opacity:1;fill-rule:nonzero;stroke:#000000;stroke-width:0.03750934px;stroke-linecap:butt;stroke-linejoin:round;stroke-opacity:1;stroke-dasharray:none" />
      <path
         d="m 867.59114,564.66567 11.6654,-4.65116 -0.45011,-1.16279 -11.70291,4.65116 0.48762,1.16279 z m 11.21529,-2.43811 3.71343,-4.16353 -5.58889,-0.48762 1.87546,4.65115 z"
         id="path3103"
         style="fill:#000000;fill-opacity:1;fill-rule:nonzero;stroke:#000000;stroke-width:0.03750934px;stroke-linecap:butt;stroke-linejoin:round;stroke-opacity:1;stroke-dasharray:none" />
      <path
         d="m 857.53863,551.79997 21.11777,1.76294 -0.075,1.2378 -21.11776,-1.76293 0.075,-1.23781 z m 20.02999,-0.22506 4.8012,2.92573 -5.2138,2.06301 0.4126,-4.98874 z"
         id="path3105"
         style="fill:#000000;fill-opacity:1;fill-rule:nonzero;stroke:#000000;stroke-width:0.03750934px;stroke-linecap:butt;stroke-linejoin:round;stroke-opacity:1;stroke-dasharray:none" />
      <path
         d="m 856.71343,549.36186 22.01798,-5.70142 -0.30007,-1.2003 -22.01799,5.70142 0.30008,1.2003 z m 21.2678,-3.56339 4.23855,-3.67591 -5.47636,-1.16279 1.23781,4.8387 z"
         id="path3107"
         style="fill:#000000;fill-opacity:1;fill-rule:nonzero;stroke:#000000;stroke-width:0.03750934px;stroke-linecap:butt;stroke-linejoin:round;stroke-opacity:1;stroke-dasharray:none" />
      <path
         d="m 811.2521,479.59448 0,32.5206 188.48446,0 0,-32.5206 -188.48446,0 z"
         id="path3109"
         style="fill:#b8bec6;fill-opacity:1;fill-rule:evenodd;stroke:none" />
      <path
         d="m 811.2521,479.59448 188.48446,0 0,32.5206 -188.48446,0 z"
         id="path3111"
         style="fill:none;stroke:#6e7277;stroke-width:1.23780835px;stroke-linecap:butt;stroke-linejoin:miter;stroke-miterlimit:4;stroke-opacity:1;stroke-dasharray:none" />
      <text
         x="860.96033"
         y="501.12317"
         id="text3113"
         xml:space="preserve"
         style="font-size:13.20328903px;font-style:normal;font-weight:normal;text-align:start;text-anchor:start;fill:#000000;font-family:Verdana">Actor System</text>
      <path
         d="m 518.8105,428.46924 0,38.76591 76.89415,0 0,-38.76591 -76.89415,0 z"
         id="path3115"
         style="fill:#b8bec6;fill-opacity:1;fill-rule:evenodd;stroke:none" />
      <path
         d="m 518.8105,428.46924 76.89415,0 0,38.76591 -76.89415,0 z"
         id="path3117"
         style="fill:none;stroke:#6e7277;stroke-width:1.25656307px;stroke-linecap:butt;stroke-linejoin:miter;stroke-miterlimit:4;stroke-opacity:1;stroke-dasharray:none" />
      <text
         x="539.96814"
         y="445.22284"
         id="text3119"
         xml:space="preserve"
         style="font-size:13.20328903px;font-style:normal;font-weight:normal;text-align:start;text-anchor:start;fill:#000000;font-family:Verdana">Actor</text>
      <text
         x="532.46631"
         y="460.97678"
         id="text3121"
         xml:space="preserve"
         style="font-size:13.20328903px;font-style:normal;font-weight:normal;text-align:start;text-anchor:start;fill:#000000;font-family:Verdana">System</text>
      <path
         d="m 986.57078,487.17137 2.43811,-2.88822 0.97524,0.8252 -2.43811,2.85071 -0.97524,-0.78769 z m 3.26331,-3.82596 2.4006,-2.85071 0.97524,0.7877 -2.4381,2.88822 -0.93774,-0.82521 z m 3.22581,-3.82595 2.4381,-2.85071 0.93774,0.82521 -2.43811,2.85071 -0.93773,-0.82521 z m 3.2258,-3.78844 2.43811,-2.88822 0.93773,0.8252 -2.4006,2.85071 -0.97524,-0.78769 z m 3.26331,-3.82596 1.23779,-1.50037 1.1628,-1.35034 0.9753,0.7877 -1.1628,1.35034 -1.2754,1.53788 -0.93769,-0.82521 z m 3.22579,-3.82595 2.4006,-2.85071 0.9753,0.7877 -2.4382,2.88822 -0.9377,-0.82521 z m 3.2258,-3.82595 1.838,-2.21305 0,0.0375 0.5626,-0.67517 0.9753,0.78769 -0.5627,0.67517 -1.8754,2.21305 -0.9378,-0.8252 z m 3.2258,-3.82596 2.4006,-2.85071 0.9378,0.7877 -2.4006,2.88822 -0.9378,-0.82521 z m 3.1883,-3.82595 2.4006,-2.85071 0,0 0,0 0.9753,0.7877 0,0 -2.4006,2.88822 -0.9753,-0.82521 z m 3.2258,-3.82595 2.4006,-2.88822 0.9378,0.8252 -2.4006,2.85071 -0.9378,-0.78769 z m 3.1883,-3.82596 2.4006,-2.88821 0.9753,0.78769 -2.4006,2.88822 -0.9753,-0.7877 z m 3.1883,-3.86346 2.4006,-2.88822 0.9753,0.7877 -2.4006,2.88822 -0.9753,-0.7877 z m 3.1883,-3.86346 2.4006,-2.88822 0.9377,0.7877 -2.3631,2.88822 -0.9752,-0.7877 z m 3.1883,-3.86346 0.075,-0.075 0,0 2.2881,-2.8132 0.9752,0.78769 -2.3255,2.8132 -0.038,0.11253 -0.9752,-0.8252 z m 3.1508,-3.86347 2.3631,-2.92572 0.9752,0.78769 -2.3631,2.92573 -0.9752,-0.7877 z m 3.1508,-3.90097 0.3751,-0.45011 0,0 1.9504,-2.43811 0.9753,0.75019 -1.9505,2.47562 -0.3751,0.45011 -0.9752,-0.7877 z m 3.1132,-3.86346 2.3631,-2.96324 0.9753,0.7877 -2.3631,2.92573 -0.9753,-0.75019 z m 3.1508,-3.93848 0.5252,-0.67517 0,0 1.7629,-2.25056 1.0128,0.7877 -1.763,2.25056 -0.5626,0.67517 -0.9753,-0.7877 z m 3.0758,-3.90097 2.3256,-2.96324 0.9752,0.7877 -2.3256,2.92572 -0.9752,-0.75018 z m 3.0758,-3.93848 0.6376,-0.7877 0,0 1.6504,-2.17554 1.0128,0.75018 -1.6879,2.17555 -0.6002,0.8252 -1.0127,-0.78769 z m 3.0757,-3.93849 0.6002,-0.78769 0,0 1.6879,-2.21305 0.9752,0.78769 -1.6879,2.17555 -0.6001,0.78769 -0.9753,-0.75019 z m 3.0383,-3.97599 0.5251,-0.71267 0,0 1.7254,-2.28807 1.0128,0.75018 -1.7254,2.28807 -0.5627,0.71268 -0.9752,-0.75019 z m 3.0007,-3.97599 0.4501,-0.60015 0,0 1.8005,-2.4381 1.0127,0.75018 -1.8004,2.43811 -0.4501,0.60015 -1.0128,-0.75019 z m 3.0008,-4.0135 0.3001,-0.45011 0,0 1.9129,-2.58814 1.0128,0.75018 -1.913,2.58815 -0.3376,0.45011 -0.9752,-0.75019 z m 2.9257,-4.05101 0.1876,-0.18754 -0.038,0 2.0631,-2.85071 1.0127,0.75018 -2.063,2.81321 -0.15,0.22505 -1.0128,-0.75019 z m 2.9257,-4.051 2.1756,-3.03826 1.0127,0.71268 -2.1755,3.03825 -1.0128,-0.71267 z m 2.8883,-4.08852 2.138,-3.07577 1.0127,0.71268 -2.138,3.07576 -1.0127,-0.71267 z m 2.8507,-4.08852 1.9129,-2.85071 0,0 0.1876,-0.26257 1.0127,0.71268 -0.15,0.22506 -1.9505,2.88822 -1.0127,-0.71268 z m 2.7757,-4.16354 1.5754,-2.32558 -0.038,0 0.5252,-0.78769 1.0502,0.67516 -0.5251,0.82521 -1.5379,2.32558 -1.0502,-0.71268 z m 2.7381,-4.16354 1.1253,-1.72543 0,0 0.9002,-1.42535 1.0503,0.67517 -0.9002,1.42535 -1.1253,1.72543 -1.0503,-0.67517 z m 2.7007,-4.20104 0.6752,-1.08777 0,0.0375 1.2753,-2.13804 1.0878,0.67517 -1.3129,2.10052 -0.6751,1.08778 -1.0503,-0.67517 z m 2.6257,-4.23856 0.1875,-0.33758 0,0 1.7254,-2.88822 1.0878,0.63766 -1.7629,2.92573 -0.1876,0.30007 -1.0502,-0.63766 z m 2.5506,-4.31357 1.6129,-2.85071 0,0 0.2251,-0.3751 1.0877,0.60015 -0.225,0.3751 -1.6129,2.88822 -1.0878,-0.63766 z m 2.4381,-4.31358 1.0503,-1.87546 0,0 0.7502,-1.42536 1.0877,0.60015 -0.7502,1.42535 -1.0502,1.87547 -1.0878,-0.60015 z m 2.4006,-4.38859 0.4126,-0.82521 0,0.0375 1.3128,-2.55063 1.0878,0.56264 -1.3128,2.55063 -0.4126,0.7877 -1.0878,-0.56264 z m 2.2881,-4.4261 1.3878,-2.85071 0,0 0.2251,-0.52513 1.1628,0.52513 -0.2626,0.52513 -1.4254,2.85071 -1.0877,-0.52513 z m 2.1755,-4.50113 0.7127,-1.53788 0,0 0.8627,-1.83796 1.1253,0.48763 -0.8627,1.87546 -0.7127,1.53789 -1.1253,-0.52514 z m 2.063,-4.53863 0.075,-0.15003 0,0 1.3503,-3.11328 0,0.0375 0.075,-0.18755 1.1628,0.48763 -0.075,0.18754 -1.3504,3.11328 -0.075,0.15004 -1.1628,-0.52514 z m 1.988,-4.57614 0.7502,-1.72543 -0.037,0 0.7127,-1.72543 1.1628,0.45012 -0.7127,1.72543 -0.7127,1.76294 -1.1628,-0.48763 z m 1.8755,-4.61365 0.075,-0.15003 0,0 1.1253,-3.00075 0,0 0.15,-0.33758 1.1628,0.4126 -0.1125,0.37509 -1.1628,3.00075 -0.075,0.15004 -1.1628,-0.45012 z m 1.7629,-4.65115 0.5252,-1.46287 0,0 0.7126,-2.06301 1.2003,0.4126 -0.7501,2.06301 -0.5252,1.46287 -1.1628,-0.4126 z m 1.6504,-4.72618 0.8628,-2.62566 0,0.0375 0.3,-0.93773 1.1628,0.33758 -0.2625,0.97525 -0.9003,2.62565 -1.1628,-0.4126 z m 1.5004,-4.72618 1.1253,-3.6009 1.1628,0.3751 -1.0878,3.56339 -1.2003,-0.33759 z m 1.4254,-4.80119 1.0127,-3.6009 1.2003,0.33758 -0.9752,3.6009 -1.2378,-0.33758 z m 1.3503,-4.8012 0.9002,-3.63841 1.2003,0.30008 -0.9002,3.6384 -1.2003,-0.30007 z m 1.2003,-4.83871 0.1125,-0.4126 0,0.0375 0.7502,-3.26331 1.2003,0.26256 -0.7502,3.26332 -0.075,0.4126 -1.2378,-0.30008 z m 1.1253,-4.87621 0.225,-1.01275 0,0 0.5627,-2.62566 1.2003,0.26257 -0.5251,2.62565 -0.2626,1.05026 -1.2003,-0.30007 z m 1.0503,-4.87622 0.3,-1.57539 0,0 0.4126,-2.10052 1.2378,0.26256 -0.4126,2.06302 -0.3375,1.6129 -1.2003,-0.26257 z m 0.9377,-4.87621 0.4126,-2.10052 0,0 0.2626,-1.61291 1.2378,0.22506 -0.2626,1.6129 -0.4126,2.10053 -1.2378,-0.22506 z m 0.9002,-4.91372 0.4876,-2.55064 0,0 0.1876,-1.16279 1.2378,0.22506 -0.2251,1.16279 -0.4501,2.55063 -1.2378,-0.22505 z m 0.8627,-4.91373 0.3751,-2.13803 1.2378,0.22505 -0.3751,2.10053 -1.2378,-0.18755 z m -2.9257,-1.42535 4.9512,-6.7892 2.4381,8.027 -7.3893,-1.2378 z"
         id="path3123"
         style="fill:#000000;fill-opacity:1;fill-rule:nonzero;stroke:#000000;stroke-width:0.03750934px;stroke-linecap:butt;stroke-linejoin:round;stroke-opacity:1;stroke-dasharray:none" />
      <path
         d="m 1010.1642,268.942 -1.0503,3.6009 -1.2003,-0.3751 1.0503,-3.60089 1.2003,0.37509 z m -1.4254,4.8012 -1.0503,3.60089 -1.2003,-0.37509 1.0503,-3.6009 1.2003,0.3751 z m -1.4254,4.80119 -1.0502,3.56339 -1.2003,-0.33758 1.0502,-3.6009 1.2003,0.37509 z m -1.4253,4.76369 -0.4126,1.46286 -0.6377,2.13804 -1.2003,-0.33759 0.6377,-2.17554 0.4126,-1.42535 1.2003,0.33758 z m -1.3879,4.8012 -1.0877,3.60089 -1.1628,-0.33758 1.0502,-3.6009 1.2003,0.33759 z m -1.4253,4.80119 -1.0503,3.6009 -1.2003,-0.33759 1.0503,-3.60089 1.2003,0.33758 z m -1.3879,4.8012 -0.8627,2.8132 0,0 -0.225,0.78769 -1.20032,-0.33758 0.22505,-0.7877 0.86267,-2.8132 1.2003,0.33759 z m -1.4253,4.80119 -1.05027,3.6009 -1.2003,-0.33758 1.05026,-3.6009 1.20031,0.33758 z m -1.38786,4.8012 -0.30007,1.05026 0,0 -0.71268,2.55064 -1.2003,-0.33759 0.71268,-2.55063 0.30008,-1.05026 1.20029,0.33758 z m -1.35033,4.8012 -1.05026,3.6384 -1.2003,-0.37509 1.05026,-3.6009 1.2003,0.33759 z m -1.38785,4.8387 -1.01275,3.6009 -1.2003,-0.33759 1.01275,-3.60089 1.2003,0.33758 z m -1.31282,4.8012 -0.60015,2.10052 0,0 -0.41261,1.50037 -1.2003,-0.33758 0.41261,-1.46286 0.56264,-2.13804 1.23781,0.33759 z m -1.35034,4.80119 -0.97524,3.63841 -1.2003,-0.33758 0.97524,-3.6009 1.2003,0.30007 z m -1.31283,4.83871 -0.0375,0.15004 0,0 -0.93773,3.48837 -1.2003,-0.33759 0.93773,-3.48837 0.0375,-0.15004 1.2003,0.33759 z m -1.27532,4.8387 -0.78769,2.92573 0,-0.0375 -0.18755,0.71268 -1.2003,-0.30007 0.18755,-0.71268 0.7877,-2.92573 1.20029,0.33758 z m -1.27531,4.83871 -0.93774,3.6009 -1.2003,-0.30008 0.93774,-3.6384 1.2003,0.33758 z m -1.23781,4.83871 -0.18755,0.75018 0,-0.0375 -0.71268,2.92573 -1.2378,-0.30007 0.71267,-2.92573 0.18755,-0.75019 1.23781,0.33759 z m -1.2003,4.8387 -0.82521,3.33833 0,0 -0.075,0.30008 -1.2378,-0.30008 0.075,-0.30007 0.8252,-3.33833 1.23781,0.30007 z m -1.2003,4.83871 -0.86271,3.67591 -1.2003,-0.30007 0.86271,-3.63841 1.2003,0.26257 z m -1.16279,4.87621 -0.22506,0.93773 0,0 -0.60015,2.70068 -1.20029,-0.26257 0.60015,-2.73818 0.22505,-0.93773 1.2003,0.30007 z m -1.08777,4.87622 -0.75019,3.26331 0,0 -0.075,0.37509 -1.2003,-0.26256 0.075,-0.3751 0.71268,-3.26331 1.23781,0.26257 z m -1.08777,4.87621 -0.75019,3.67592 -1.23781,-0.26257 0.7877,-3.67592 1.2003,0.26257 z m -1.01275,4.87622 -0.15004,0.63765 0,-0.0375 -0.60015,3.07577 -1.2003,-0.22506 0.60015,-3.07576 0.11253,-0.60015 1.23781,0.22506 z m -0.97525,4.91372 -0.52513,2.70067 0,-0.0375 -0.18754,1.01276 -1.23781,-0.22506 0.18754,-1.01275 0.52513,-2.66317 1.23781,0.22506 z m -0.93773,4.91372 -0.63766,3.67592 -1.23781,-0.22506 0.63766,-3.67591 1.23781,0.22505 z m -0.86272,4.91373 -0.60014,3.67591 -1.23781,-0.18754 0.60015,-3.71343 1.2378,0.22506 z m -0.78769,4.91372 -0.26257,1.46287 0,0 -0.30007,2.25056 -1.23781,-0.18755 0.30007,-2.25056 0.26257,-1.46287 1.23781,0.18755 z m -0.75019,4.95124 -0.45011,3.07576 0,0 -0.075,0.63766 -1.23781,-0.15004 0.075,-0.63766 0.45011,-3.11327 1.23781,0.18755 z m -0.67517,4.95123 -0.45011,3.71342 -1.23781,-0.15003 0.45011,-3.71343 1.23781,0.15004 z m -0.60015,4.95123 -0.4126,3.71343 -1.23781,-0.11253 0.41261,-3.75094 1.2378,0.15004 z m -0.52513,4.95124 -0.11253,1.01275 0,0 -0.26256,2.73818 -1.23781,-0.11253 0.26257,-2.77569 0.075,-0.97524 1.27531,0.11253 z m -0.48762,4.98874 -0.22505,2.25056 0,-0.0375 -0.11253,1.50037 -1.23781,-0.075 0.11253,-1.50037 0.22505,-2.25056 1.23781,0.11253 z m -0.4126,4.95123 -0.26257,3.37584 0,0 -0.0375,0.3751 -1.2378,-0.075 0.0375,-0.3751 0.22506,-3.37584 1.27532,0.075 z m -0.37509,4.98874 -0.22506,3.75094 -1.23781,-0.075 0.22506,-3.75093 1.23781,0.075 z m -0.30008,4.98875 -0.18755,3.75093 -1.2378,-0.075 0.18754,-3.75093 1.23781,0.075 z m -0.22506,4.98874 -0.0375,0.4126 0,0 -0.11253,3.33833 -1.23781,-0.0375 0.11253,-3.33834 0,-0.4126 1.27531,0.0375 z m -0.18754,4.98874 -0.075,1.31283 0,0 -0.0375,2.43811 -1.27532,-0.0375 0.075,-2.43811 0.0375,-1.31283 1.27532,0.0375 z m -0.15004,4.98875 -0.075,2.13803 0,0 0,1.6129 -1.23781,0 0,-1.65041 0.075,-2.13803 1.23781,0.0375 z m -0.11253,4.98874 -0.0375,3.75093 -1.23781,0 0.0375,-3.75093 1.23781,0 z m -0.0375,5.02625 -0.0375,3.6009 0,0 0,0.15004 -1.27531,0 0,-0.15004 0.0375,-3.63841 1.27531,0.0375 z m -0.0375,4.98874 0,3.75094 -1.27531,0 0,-3.75094 1.27531,0 z m 0,4.98875 0,3.75093 -1.2378,0 -0.0375,-3.75093 1.27531,0 z m 0,4.98874 0.0375,3.75093 -1.27531,0.0375 0,-3.75093 1.2378,-0.0375 z m 3.15079,3.75093 -3.71343,7.50187 -3.78844,-7.46436 7.50187,-0.0375 z"
         id="path3125"
         style="fill:#000000;fill-opacity:1;fill-rule:nonzero;stroke:#000000;stroke-width:0.03750934px;stroke-linecap:butt;stroke-linejoin:round;stroke-opacity:1;stroke-dasharray:none" />
      <text
         x="1098.799"
         y="347.50183"
         id="text3127"
         xml:space="preserve"
         style="font-size:13.80343914px;font-style:italic;font-weight:normal;text-align:start;text-anchor:start;fill:#000000;font-family:Verdana">Deploy/Stop/</text>
      <text
         x="1098.799"
         y="364.00595"
         id="text3129"
         xml:space="preserve"
         style="font-size:13.80343914px;font-style:italic;font-weight:normal;text-align:start;text-anchor:start;fill:#000000;font-family:Verdana">Cancel Tasks</text>
      <text
         x="1077.9341"
         y="393.53741"
         id="text3131"
         xml:space="preserve"
         style="font-size:13.80343914px;font-style:italic;font-weight:normal;text-align:start;text-anchor:start;fill:#000000;font-family:Verdana">Trigger</text>
      <text
         x="1060.6798"
         y="410.04153"
         id="text3133"
         xml:space="preserve"
         style="font-size:13.80343914px;font-style:italic;font-weight:normal;text-align:start;text-anchor:start;fill:#000000;font-family:Verdana">Checkpoints</text>
      <text
         x="906.68597"
         y="312.69434"
         id="text3135"
         xml:space="preserve"
         style="font-size:13.80343914px;font-style:italic;font-weight:normal;text-align:start;text-anchor:start;fill:#000000;font-family:Verdana">Task Status</text>
      <text
         x="905.30804"
         y="341.08121"
         id="text3137"
         xml:space="preserve"
         style="font-size:13.80343914px;font-style:italic;font-weight:normal;text-align:start;text-anchor:start;fill:#000000;font-family:Verdana">Heartbeats</text>
      <text
         x="912.66595"
         y="368.71213"
         id="text3139"
         xml:space="preserve"
         style="font-size:13.80343914px;font-style:italic;font-weight:normal;text-align:start;text-anchor:start;fill:#000000;font-family:Verdana">Statistics</text>
      <text
         x="1045.498"
         y="439.573"
         id="text3141"
         xml:space="preserve"
         style="font-size:13.80343914px;font-style:italic;font-weight:normal;text-align:start;text-anchor:start;fill:#000000;font-family:Verdana">…</text>
      <text
         x="936.66449"
         y="397.45572"
         id="text3143"
         xml:space="preserve"
         style="font-size:13.80343914px;font-style:italic;font-weight:normal;text-align:start;text-anchor:start;fill:#000000;font-family:Verdana">…</text>
      <path
         d="m 661.96491,29.932457 0,251.950263 204.27589,0 0,-251.950263 -204.27589,0 z"
         id="path3145"
         style="fill:#f5a030;fill-opacity:1;fill-rule:evenodd;stroke:none" />
      <path
         d="m 661.96491,29.932457 204.27589,0 0,251.950263 -204.27589,0 z"
         id="path3147"
         style="fill:none;stroke:#935f1c;stroke-width:1.23780835px;stroke-linecap:butt;stroke-linejoin:miter;stroke-miterlimit:4;stroke-opacity:1;stroke-dasharray:none" />
      <text
         x="671.09534"
         y="51.877296"
         id="text3149"
         xml:space="preserve"
         style="font-size:17.55437279px;font-style:normal;font-weight:normal;text-align:start;text-anchor:start;fill:#000000;font-family:Verdana">TaskManager</text>
      <path
         d="m 737.47122,77.306759 0,88.297001 53.90093,0 0,-88.297001 -53.90093,0 z"
         id="path3151"
         style="fill:#e4eaf4;fill-opacity:1;fill-rule:evenodd;stroke:none" />
      <path
         d="m 737.47122,77.306759 53.90093,0 0,88.297001 -53.90093,0 z"
         id="path3153"
         style="fill:none;stroke:#898c92;stroke-width:1.23780835px;stroke-linecap:butt;stroke-linejoin:miter;stroke-miterlimit:4;stroke-opacity:1;stroke-dasharray:none" />
      <text
         x="747.90277"
         y="96.706863"
         id="text3155"
         xml:space="preserve"
         style="font-size:15.00373745px;font-style:normal;font-weight:normal;text-align:start;text-anchor:start;fill:#000000;font-family:Verdana">Task </text>
      <text
         x="749.85327"
         y="114.71135"
         id="text3157"
         xml:space="preserve"
         style="font-size:15.00373745px;font-style:normal;font-weight:normal;text-align:start;text-anchor:start;fill:#000000;font-family:Verdana">Slot</text>
      <path
         d="m 801.87477,77.306759 0,88.297001 53.75089,0 0,-88.297001 -53.75089,0 z"
         id="path3159"
         style="fill:#e4eaf4;fill-opacity:1;fill-rule:evenodd;stroke:none" />
      <path
         d="m 801.87477,77.306759 53.75089,0 0,88.297001 -53.75089,0 z"
         id="path3161"
         style="fill:none;stroke:#898c92;stroke-width:1.23780835px;stroke-linecap:butt;stroke-linejoin:miter;stroke-miterlimit:4;stroke-opacity:1;stroke-dasharray:none" />
      <text
         x="812.26758"
         y="96.706863"
         id="text3163"
         xml:space="preserve"
         style="font-size:15.00373745px;font-style:normal;font-weight:normal;text-align:start;text-anchor:start;fill:#000000;font-family:Verdana">Task </text>
      <text
         x="814.21808"
         y="114.71135"
         id="text3165"
         xml:space="preserve"
         style="font-size:15.00373745px;font-style:normal;font-weight:normal;text-align:start;text-anchor:start;fill:#000000;font-family:Verdana">Slot</text>
      <path
         d="m 745.4232,139.90986 c 0,-10.50262 8.51462,-19.01724 19.01724,-19.01724 10.46511,0 18.97973,8.51462 18.97973,19.01724 0,10.4651 -8.51462,18.97972 -18.97973,18.97972 -10.50262,0 -19.01724,-8.51462 -19.01724,-18.97972"
         id="path3167"
         style="fill:#be73f1;fill-opacity:1;fill-rule:evenodd;stroke:none" />
      <path
         d="m 745.4232,139.90986 c 0,-10.50262 8.51462,-19.01724 19.01724,-19.01724 10.46511,0 18.97973,8.51462 18.97973,19.01724 0,10.4651 -8.51462,18.97972 -18.97973,18.97972 -10.50262,0 -19.01724,-8.51462 -19.01724,-18.97972"
         id="path3169"
         style="fill:none;stroke:#724591;stroke-width:1.23780835px;stroke-linecap:butt;stroke-linejoin:miter;stroke-miterlimit:4;stroke-opacity:1;stroke-dasharray:none" />
      <text
         x="751.36926"
         y="144.36874"
         id="text3171"
         xml:space="preserve"
         style="font-size:11.2528038px;font-style:normal;font-weight:normal;text-align:start;text-anchor:start;fill:#000000;font-family:Verdana">Task</text>
      <path
         d="m 672.46753,77.306759 0,88.297001 53.90093,0 0,-88.297001 -53.90093,0 z"
         id="path3173"
         style="fill:#e4eaf4;fill-opacity:1;fill-rule:evenodd;stroke:none" />
      <path
         d="m 672.46753,77.306759 53.90093,0 0,88.297001 -53.90093,0 z"
         id="path3175"
         style="fill:none;stroke:#898c92;stroke-width:1.23780835px;stroke-linecap:butt;stroke-linejoin:miter;stroke-miterlimit:4;stroke-opacity:1;stroke-dasharray:none" />
      <text
         x="682.96558"
         y="96.706863"
         id="text3177"
         xml:space="preserve"
         style="font-size:15.00373745px;font-style:normal;font-weight:normal;text-align:start;text-anchor:start;fill:#000000;font-family:Verdana">Task </text>
      <text
         x="684.91608"
         y="114.71135"
         id="text3179"
         xml:space="preserve"
         style="font-size:15.00373745px;font-style:normal;font-weight:normal;text-align:start;text-anchor:start;fill:#000000;font-family:Verdana">Slot</text>
      <path
         d="m 680.41951,139.90986 c 0,-10.50262 8.51462,-19.01724 18.97973,-19.01724 10.50261,0 19.01724,8.51462 19.01724,19.01724 0,10.4651 -8.51463,18.97972 -19.01724,18.97972 -10.46511,0 -18.97973,-8.51462 -18.97973,-18.97972"
         id="path3181"
         style="fill:#be73f1;fill-opacity:1;fill-rule:evenodd;stroke:none" />
      <path
         d="m 680.41951,139.90986 c 0,-10.50262 8.51462,-19.01724 18.97973,-19.01724 10.50261,0 19.01724,8.51462 19.01724,19.01724 0,10.4651 -8.51463,18.97972 -19.01724,18.97972 -10.46511,0 -18.97973,-8.51462 -18.97973,-18.97972"
         id="path3183"
         style="fill:none;stroke:#724591;stroke-width:1.23780835px;stroke-linecap:butt;stroke-linejoin:miter;stroke-miterlimit:4;stroke-opacity:1;stroke-dasharray:none" />
      <text
         x="686.43207"
         y="144.36874"
         id="text3185"
         xml:space="preserve"
         style="font-size:11.2528038px;font-style:normal;font-weight:normal;text-align:start;text-anchor:start;fill:#000000;font-family:Verdana">Task</text>
      <path
         d="m 670.10444,206.714 0,31.7329 188.48446,0 0,-31.7329 -188.48446,0 z"
         id="path3187"
         style="fill:#b8bec6;fill-opacity:1;fill-rule:evenodd;stroke:none" />
      <path
         d="m 670.10444,206.714 188.48446,0 0,31.7329 -188.48446,0 z"
         id="path3189"
         style="fill:none;stroke:#6e7277;stroke-width:1.23780835px;stroke-linecap:butt;stroke-linejoin:miter;stroke-miterlimit:4;stroke-opacity:1;stroke-dasharray:none" />
      <text
         x="705.91583"
         y="227.79962"
         id="text3191"
         xml:space="preserve"
         style="font-size:13.20328903px;font-style:normal;font-weight:normal;text-align:start;text-anchor:start;fill:#000000;font-family:Verdana">Network Manager</text>
      <path
         d="m 670.10444,243.28561 0,32.5206 188.48446,0 0,-32.5206 -188.48446,0 z"
         id="path3193"
         style="fill:#b8bec6;fill-opacity:1;fill-rule:evenodd;stroke:none" />
      <path
         d="m 670.10444,243.28561 188.48446,0 0,32.5206 -188.48446,0 z"
         id="path3195"
         style="fill:none;stroke:#6e7277;stroke-width:1.23780835px;stroke-linecap:butt;stroke-linejoin:miter;stroke-miterlimit:4;stroke-opacity:1;stroke-dasharray:none" />
      <text
         x="719.87256"
         y="264.77148"
         id="text3197"
         xml:space="preserve"
         style="font-size:13.20328903px;font-style:normal;font-weight:normal;text-align:start;text-anchor:start;fill:#000000;font-family:Verdana">Actor System</text>
      <path
         d="m 670.10444,170.44246 0,31.73291 188.48446,0 0,-31.73291 -188.48446,0 z"
         id="path3199"
         style="fill:#b8bec6;fill-opacity:1;fill-rule:evenodd;stroke:none" />
      <path
         d="m 670.10444,170.44246 188.48446,0 0,31.73291 -188.48446,0 z"
         id="path3201"
         style="fill:none;stroke:#6e7277;stroke-width:1.23780835px;stroke-linecap:butt;stroke-linejoin:miter;stroke-miterlimit:4;stroke-opacity:1;stroke-dasharray:none" />
      <text
         x="686.56104"
         y="191.52837"
         id="text3203"
         xml:space="preserve"
         style="font-size:13.20328903px;font-style:normal;font-weight:normal;text-align:start;text-anchor:start;fill:#000000;font-family:Verdana">Memory &amp; I/O Manager</text>
      <text
         x="725.4187"
         y="17.8258"
         id="text3205"
         xml:space="preserve"
         style="font-size:13.80343914px;font-style:italic;font-weight:normal;text-align:start;text-anchor:start;fill:#000000;font-family:Verdana">(Worker)</text>
      <path
         d="m 844.22282,223.29313 24.23103,-24.23104 0,12.11552 69.8424,0 0,-12.11552 24.23104,24.23104 -24.23104,24.19353 0,-12.07801 -69.8424,0 0,12.07801 z"
         id="path3207"
         style="fill:#ffffff;fill-opacity:1;fill-rule:evenodd;stroke:none" />
      <path
         d="m 844.22282,223.29313 24.23103,-24.23104 0,12.11552 69.8424,0 0,-12.11552 24.23104,24.23104 -24.23104,24.19353 0,-12.07801 -69.8424,0 0,12.07801 z"
         id="path3209"
         style="fill:none;stroke:#000000;stroke-width:1.23780835px;stroke-linecap:butt;stroke-linejoin:miter;stroke-miterlimit:4;stroke-opacity:1;stroke-dasharray:none" />
      <text
         x="857.99353"
         y="228.51564"
         id="text3211"
         xml:space="preserve"
         style="font-size:13.20328903px;font-style:normal;font-weight:normal;text-align:start;text-anchor:start;fill:#000000;font-family:Verdana">Data Streams</text>
      <path
         d="m 961.02692,479.89455 -1.72543,-3.33833 1.12528,-0.60015 1.72543,3.33833 -1.12528,0.60015 z m -2.28807,-4.46361 -1.72543,-3.33833 1.12528,-0.56264 1.72543,3.33833 -1.12528,0.56264 z m -2.28807,-4.4261 -1.72543,-3.33833 1.12528,-0.60015 1.72543,3.33833 -1.12528,0.60015 z m -2.28807,-4.46361 -1.72543,-3.33833 1.12528,-0.56264 1.72543,3.33833 -1.12528,0.56264 z m -2.28807,-4.46361 -1.12528,-2.17555 -0.60015,-1.12528 1.12528,-0.60015 0.60015,1.16279 1.08777,2.17554 -1.08777,0.56265 z m -2.28807,-4.42611 -1.72543,-3.33833 1.08777,-0.56264 1.72543,3.33833 -1.08777,0.56264 z m -2.32558,-4.4261 -1.65041,-3.2258 -0.075,-0.11253 1.12528,-0.60015 0.075,0.15004 1.65041,3.18829 -1.12528,0.60015 z m -2.28807,-4.46361 -1.72543,-3.30082 1.12528,-0.60015 1.72543,3.33833 -1.12528,0.56264 z m -2.28807,-4.4261 -1.72543,-3.33834 1.08777,-0.56264 1.72543,3.33833 -1.08777,0.56265 z m -2.32558,-4.42611 -1.72543,-3.33833 1.08777,-0.56264 1.76294,3.30082 -1.12528,0.60015 z m -2.32558,-4.4261 -1.72543,-3.33833 1.08777,-0.56264 1.76294,3.30082 -1.12528,0.60015 z m -2.32558,-4.46361 -0.30008,-0.56264 -1.42535,-2.73818 1.08777,-0.60015 1.46286,2.73818 0.30008,0.60015 -1.12528,0.56264 z m -2.32558,-4.3886 -1.72543,-3.33833 1.08777,-0.56264 1.76294,3.30083 -1.12528,0.60014 z m -2.32558,-4.4261 -0.71268,-1.35033 0,0 -1.05026,-1.988 1.12528,-0.56264 1.05026,1.95049 0.71268,1.35033 -1.12528,0.60015 z m -2.32558,-4.4261 -1.76294,-3.30082 1.08777,-0.60015 1.76294,3.30082 -1.08777,0.60015 z m -2.36309,-4.4261 -1.05026,-1.95049 0,0 -0.71268,-1.35034 1.08777,-0.60015 0.75019,1.35034 1.01275,1.988 -1.08777,0.56264 z m -2.36309,-4.3886 -1.76294,-3.30082 1.08777,-0.60015 1.76294,3.30082 -1.08777,0.60015 z m -2.36309,-4.4261 -1.27531,-2.4006 0,0 -0.52513,-0.90022 1.12528,-0.60015 0.48762,0.93773 1.27532,2.36309 -1.08778,0.60015 z m -2.36308,-4.38859 -1.38785,-2.55064 -0.4126,-0.75018 1.08777,-0.60015 0.4126,0.75018 1.38785,2.55064 -1.08777,0.60015 z m -2.4006,-4.3886 -1.46287,-2.66316 -0.33758,-0.63766 1.08777,-0.60015 0.33758,0.63766 1.46287,2.66316 -1.08777,0.60015 z m -2.43811,-4.38859 -1.46286,-2.70067 0,0 -0.33759,-0.56264 1.08777,-0.60015 0.33759,0.56264 1.50037,2.70067 -1.12528,0.60015 z m -2.4006,-4.35108 -1.50037,-2.70068 -0.33759,-0.60015 1.08778,-0.60015 0.33758,0.56265 1.50037,2.70067 -1.08777,0.63766 z m -2.43811,-4.3886 -1.50037,-2.62565 0,0 -0.33758,-0.63766 1.08777,-0.60015 0.33758,0.60015 1.50038,2.66316 -1.08778,0.60015 z m -2.47561,-4.35108 -1.42536,-2.51313 0,0 -0.4126,-0.75018 1.08777,-0.60015 0.4126,0.71267 1.42536,2.55064 -1.08777,0.60015 z m -2.43811,-4.35108 -1.35034,-2.32558 0,0 -0.52513,-0.90023 1.05026,-0.63766 0.52514,0.90023 1.35033,2.36309 -1.05026,0.60015 z m -2.51313,-4.31358 -1.2378,-2.10052 0,0 -0.63766,-1.12528 1.05026,-0.63766 0.67517,1.12528 1.23781,2.10052 -1.08778,0.63766 z m -2.51312,-4.31357 -1.05026,-1.80045 0,0 -0.86272,-1.42536 1.08777,-0.63766 0.82521,1.42536 1.08777,1.80045 -1.08777,0.63766 z m -2.55064,-4.31358 -0.86271,-1.42535 0,0 -1.05026,-1.76294 1.05026,-0.67517 1.08777,1.80045 0.86271,1.42535 -1.08777,0.63766 z m -2.58814,-4.27606 -0.60015,-0.97525 0,0 -1.35034,-2.21305 1.08777,-0.67517 1.35034,2.25056 0.60015,0.97525 -1.08777,0.63766 z m -2.58815,-4.27607 -0.30007,-0.45011 0,0 -1.68792,-2.73818 1.08777,-0.63766 1.68792,2.70067 0.26256,0.48762 -1.05026,0.63766 z m -2.62565,-4.23855 -2.02551,-3.15079 1.05027,-0.67517 2.0255,3.15079 -1.05026,0.67517 z m -2.70067,-4.20105 -1.72543,-2.70067 0,0 -0.30008,-0.45012 1.05026,-0.67516 0.30008,0.45011 1.72543,2.70067 -1.05026,0.67517 z m -2.70068,-4.20105 -1.2378,-1.87547 0,0 -0.82521,-1.2378 1.05026,-0.71268 0.82521,1.27532 1.23781,1.87546 -1.05027,0.67517 z m -2.77569,-4.16354 -0.63766,-0.97524 0,0.0375 -1.46286,-2.13803 1.05026,-0.71268 1.46286,2.13803 0.63766,0.97525 -1.05026,0.67516 z m -2.8132,-4.12602 -2.13803,-3.03826 0,0 0,0 1.01275,-0.75019 0.0375,0.0375 2.13803,3.03826 -1.05026,0.71268 z m -2.85071,-4.08852 -1.38784,-1.91298 0,0 -0.82521,-1.08777 1.01275,-0.75019 0.82521,1.12528 1.38784,1.91298 -1.01275,0.71268 z m -2.96324,-4.0135 -0.52513,-0.75019 0,0 -1.68792,-2.25056 1.01275,-0.75019 1.68792,2.25056 0.52514,0.75019 -1.01276,0.75019 z m -2.96324,-4.0135 -1.72543,-2.21305 0.0375,0 -0.60015,-0.75019 0.97525,-0.7877 0.60015,0.7877 1.68792,2.21305 -0.97525,0.75019 z m -3.07576,-3.93848 -0.67517,-0.90023 0,0 -1.65041,-2.06301 1.01275,-0.75019 1.6129,2.06302 0.71268,0.86271 -1.01275,0.7877 z m -3.07577,-3.90097 -1.6129,-1.988 0,0 -0.7877,-0.90022 0.97525,-0.82521 0.75018,0.93773 1.61291,1.988 -0.93774,0.7877 z m -3.18829,-3.86347 -0.45011,-0.48762 0.0375,0 -1.988,-2.32558 0,0 -0.0375,-0.0375 0.93773,-0.8252 0.0375,0.0375 1.988,2.32558 0.4126,0.52513 -0.93773,0.78769 z m -3.26332,-3.78844 -1.08777,-1.27532 0,0 -1.38784,-1.53788 0.93773,-0.82521 1.38785,1.53789 1.08777,1.27531 -0.93774,0.82521 z m -3.30082,-3.75094 -1.68792,-1.83795 0,0 -0.8252,-0.90023 0.90022,-0.86271 0.86272,0.90022 1.68792,1.87547 -0.93774,0.8252 z m -3.37584,-3.67591 -0.22505,-0.22506 0,0 -2.36309,-2.47561 0.90022,-0.86272 2.36309,2.47562 0.26257,0.26256 -0.93774,0.82521 z m -3.45086,-3.6009 -0.60015,-0.63766 0.0375,0 -2.06301,-2.0255 0.90022,-0.90023 2.02551,2.06302 0.60015,0.63766 -0.90023,0.86271 z m -3.48837,-3.56339 -0.86271,-0.86271 0,0 -1.80045,-1.76294 0.86271,-0.90022 1.80045,1.76294 0.90023,0.90022 -0.90023,0.86271 z m -3.56338,-3.48836 -1.05027,-1.01276 0,0 -1.65041,-1.57539 0.86272,-0.90022 1.68792,1.57539 1.01275,1.01275 -0.86271,0.90023 z m -3.6009,-3.45086 -1.16279,-1.08778 0.0375,0 -1.6129,-1.46286 0.86271,-0.93773 1.57539,1.50037 1.16279,1.08777 -0.86271,0.90023 z m -3.63841,-3.41335 -1.2003,-1.08778 0,0 -1.57539,-1.46286 0.86272,-0.90022 1.57539,1.42535 1.16279,1.08777 -0.82521,0.93774 z m -3.67591,-3.37585 -1.16279,-1.05026 0,0 -1.65042,-1.46286 0.86272,-0.93774 1.6129,1.46287 1.16279,1.05026 -0.8252,0.93773 z m -3.71343,-3.33833 -0.11253,-0.075 0.82521,-0.93773 0.11253,0.075 -0.82521,0.93773 z m -1.27532,3.07577 -3.07576,-7.80194 8.10202,2.21305 -5.02626,5.58889 z"
         id="path3213"
         style="fill:#000000;fill-opacity:1;fill-rule:nonzero;stroke:#000000;stroke-width:0.03750934px;stroke-linecap:butt;stroke-linejoin:round;stroke-opacity:1;stroke-dasharray:none" />
      <path
         d="m 783.12009,269.01702 2.36309,2.92573 -0.97524,0.75018 -2.36309,-2.92572 0.97524,-0.75019 z m 3.15079,3.90097 2.32558,2.88822 -0.97524,0.7877 -2.32558,-2.92573 0.97524,-0.75019 z m 3.11328,3.86346 2.36308,2.92573 -0.97524,0.7877 -2.36309,-2.92573 0.97525,-0.7877 z m 3.15078,3.90098 2.32558,2.92572 -0.97524,0.7877 -2.32558,-2.92573 0.97524,-0.78769 z m 3.11328,3.90097 2.36308,2.92573 -0.97524,0.78769 -2.36309,-2.92573 0.97525,-0.78769 z m 3.15078,3.90097 2.32558,2.92573 -0.97524,0.78769 -2.32558,-2.92573 0.97524,-0.78769 z m 3.11328,3.90097 2.36309,2.92573 -0.97525,0.7877 -2.36309,-2.92573 0.97525,-0.7877 z m 3.15078,3.90097 2.32558,2.92573 -0.97524,0.7877 -2.32558,-2.92573 0.97524,-0.7877 z m 3.11328,3.90097 2.36309,2.92573 -0.97525,0.7877 -2.36309,-2.92573 0.97525,-0.7877 z m 3.11327,3.90098 2.36309,2.92572 -0.97524,0.7877 -2.36309,-2.92573 0.97524,-0.78769 z m 3.15079,3.90097 2.36309,2.92573 -0.97525,0.78769 -2.36309,-2.92573 0.97525,-0.78769 z m 3.11327,3.90097 2.36309,2.92573 -0.97524,0.78769 -2.36309,-2.92572 0.97524,-0.7877 z m 3.15079,3.90097 2.32558,2.92573 -0.97525,0.7877 -2.32557,-2.92573 0.97524,-0.7877 z m 3.11327,3.90097 2.36309,2.92573 -0.97524,0.7877 -2.36309,-2.92573 0.97524,-0.7877 z m 3.15079,3.90098 2.32558,2.92572 -0.97525,0.7877 -2.32557,-2.92573 0.97524,-0.78769 z m 3.11327,3.90097 2.36309,2.92573 -0.97524,0.78769 -2.36309,-2.92573 0.97524,-0.78769 z m 3.15079,3.90097 2.32558,2.92573 -0.97524,0.78769 -2.32558,-2.92572 0.97524,-0.7877 z m 3.11327,3.90097 2.36309,2.92573 -0.97524,0.7877 -2.36309,-2.92573 0.97524,-0.7877 z m 3.15079,3.90097 2.32558,2.92573 -0.97524,0.7877 -2.32558,-2.92573 0.97524,-0.7877 z m 3.11328,3.90097 2.36308,2.92573 -0.97524,0.7877 -2.36309,-2.92573 0.97525,-0.7877 z m 3.15078,3.90098 2.32558,2.92573 -0.97524,0.78769 -2.32558,-2.92573 0.97524,-0.78769 z m 3.11328,3.90097 2.36308,2.92573 -0.97524,0.78769 -2.36309,-2.92573 0.97525,-0.78769 z m 3.15078,3.90097 2.32558,2.92573 -0.97524,0.78769 -2.32558,-2.92572 0.97524,-0.7877 z m 3.11328,3.90097 2.36309,2.92573 -0.97525,0.7877 -2.36309,-2.92573 0.97525,-0.7877 z m 3.15078,3.90097 2.32558,2.92573 -0.97524,0.7877 -2.32558,-2.92573 0.97524,-0.7877 z m 3.11328,3.90098 2.36309,2.92572 -0.97525,0.7877 -2.36309,-2.92573 0.97525,-0.78769 z m 3.11327,3.90097 2.36309,2.92573 -0.97524,0.78769 -2.36309,-2.92573 0.97524,-0.78769 z m 3.15079,3.90097 2.36309,2.92573 -0.97525,0.78769 -2.36309,-2.92572 0.97525,-0.7877 z m 3.11327,3.90097 2.36309,2.92573 -0.97524,0.7877 -2.36309,-2.92573 0.97524,-0.7877 z m 3.15079,3.90097 2.32558,2.92573 -0.97525,0.7877 -2.32558,-2.92573 0.97525,-0.7877 z m 3.11327,3.90097 2.36309,2.92573 -0.97524,0.7877 -2.36309,-2.92573 0.97524,-0.7877 z m 3.15079,3.90098 2.32558,2.92573 -0.97525,0.78769 -2.32557,-2.92573 0.97524,-0.78769 z m 3.11327,3.90097 2.36309,2.92573 -0.97524,0.75018 -2.36309,-2.88822 0.97524,-0.78769 z m 3.15079,3.90097 2.32558,2.92573 -0.97524,0.75019 -2.32558,-2.92573 0.97524,-0.75019 z m 3.11327,3.90097 1.12528,1.35034 1.23781,1.57539 -0.97524,0.75019 -1.23781,-1.53789 -1.12528,-1.38784 0.97524,-0.75019 z m 3.15079,3.90097 0.63766,0.7877 1.68792,2.13803 -0.97524,0.7877 -1.68792,-2.13803 -0.67517,-0.7877 1.01275,-0.7877 z m 3.11328,3.90098 0.11252,0.15003 2.21305,2.77569 -0.97524,0.7877 -2.21305,-2.77569 -0.11253,-0.15004 0.97525,-0.78769 z m 3.11327,3.90097 2.02551,2.58814 0.30007,0.3751 -0.97524,0.75018 -0.30008,-0.37509 -2.0255,-2.55064 0.97524,-0.78769 z m 3.11328,3.93848 1.35033,1.68792 0.97525,1.23781 -0.97525,0.78769 -1.01275,-1.2378 -1.31283,-1.72543 0.97525,-0.75019 z m 3.11327,3.90097 0.60015,0.7877 1.72543,2.17554 -0.97524,0.75019 -1.72543,-2.13804 -0.63766,-0.78769 1.01275,-0.7877 z m 3.07577,3.93848 2.13803,2.66316 0.18755,0.26257 -0.97525,0.7877 -0.22505,-0.30008 -2.10052,-2.66316 0.97524,-0.75019 z m 3.11327,3.90097 1.23781,1.5754 1.08777,1.38784 -0.97524,0.75019 -1.08777,-1.38785 -1.23781,-1.53788 0.97524,-0.7877 z m 3.11328,3.93848 0.30007,0.3751 2.02551,2.55063 -0.97524,0.7877 -2.02551,-2.55064 -0.30007,-0.4126 0.97524,-0.75019 z m 3.11327,3.90098 1.42536,1.83795 0.90022,1.12528 -1.01275,0.7877 -0.86271,-1.12528 -1.46287,-1.83796 1.01275,-0.78769 z m 3.07577,3.93848 2.32558,2.96324 -0.97524,0.75018 -2.32558,-2.92573 0.97524,-0.78769 z m 3.11328,3.93848 2.32558,2.92573 -1.01276,0.78769 -2.28807,-2.96323 0.97525,-0.75019 z m 3.07576,3.93848 0.18755,0.22506 2.13803,2.70067 -0.97524,0.78769 -2.13803,-2.73818 -0.18755,-0.22505 0.97524,-0.75019 z m 3.11328,3.90097 0.90022,1.16279 1.42536,1.80045 -1.01275,0.7877 -1.38785,-1.80045 -0.90022,-1.16279 0.97524,-0.7877 z m 3.07576,3.93848 1.53789,1.95049 0.78769,1.01275 -0.97524,0.75019 -0.8252,-1.01275 -1.50038,-1.91298 0.97524,-0.7877 z m 3.07577,3.93848 2.06302,2.58815 0.26256,0.37509 -0.97524,0.75019 -0.26257,-0.33759 -2.06301,-2.58814 0.97524,-0.7877 z m 3.11328,3.93849 2.32558,2.96323 -1.01276,0.75019 -2.28807,-2.92573 0.97525,-0.78769 z m 3.07576,3.93848 2.32558,2.96323 -1.01275,0.75019 -2.28807,-2.96324 0.97524,-0.75018 z m 3.07577,3.93848 2.32558,2.96324 -1.01275,0.75018 -2.28807,-2.92573 0.97524,-0.78769 z m 3.07577,3.93848 0.15003,0.15004 2.17554,2.8132 -0.97524,0.75018 -2.21305,-2.77569 -0.11253,-0.15004 0.97525,-0.78769 z m 4.76368,0.97524 1.65041,8.21455 -7.57688,-3.6009 5.92647,-4.61365 z"
         id="path3215"
         style="fill:#000000;fill-opacity:1;fill-rule:nonzero;stroke:#000000;stroke-width:0.03750934px;stroke-linecap:butt;stroke-linejoin:round;stroke-opacity:1;stroke-dasharray:none" />
      <path
         d="m 586.8712,457.53898 3.71343,0.52514 0.18755,-1.23781 -3.71343,-0.52513 -0.18755,1.2378 z m 4.95124,0.71268 3.71342,0.52513 0.18755,-1.23781 -3.71343,-0.52513 -0.18754,1.23781 z m 4.95123,0.67517 3.71343,0.52513 0.18754,-1.23781 -3.71342,-0.52513 -0.18755,1.23781 z m 4.95123,0.71268 3.71343,0.52513 0.18755,-1.23781 -3.71343,-0.52513 -0.18755,1.23781 z m 4.95124,0.67517 3.71342,0.52513 0.18755,-1.23781 -3.71343,-0.52513 -0.18754,1.23781 z m 4.95123,0.71267 3.71343,0.52513 0.18754,-1.2378 -3.71342,-0.52513 -0.18755,1.2378 z m 4.95124,0.67517 1.20029,0.18755 2.51313,0.33758 0.18755,-1.23781 -2.51313,-0.33758 -1.2003,-0.18755 -0.18754,1.23781 z m 4.95123,0.71268 3.71342,0.52513 0.18755,-1.23781 -3.71342,-0.52513 -0.18755,1.23781 z m 4.95123,0.71268 3.71343,0.52513 0.18754,-1.23781 -3.71342,-0.52513 -0.18755,1.23781 z m 4.95124,0.71267 1.76293,0.22506 0,0 1.95049,0.30008 0.18755,-1.23781 -1.95049,-0.30008 -1.76294,-0.22505 -0.18754,1.2378 z m 4.95123,0.71268 3.71342,0.56264 0.18755,-1.23781 -3.71342,-0.56264 -0.18755,1.23781 z m 4.95123,0.71268 3.71343,0.56264 0.18754,-1.23781 -3.71342,-0.56264 -0.18755,1.23781 z m 4.95124,0.75019 2.28807,0.33758 0,0 1.42535,0.22506 0.18755,-1.23781 -1.42536,-0.22506 -2.28807,-0.33758 -0.18754,1.23781 z m 4.95123,0.75018 3.71342,0.56264 0.18755,-1.23781 -3.71342,-0.56264 -0.18755,1.23781 z m 4.95123,0.75019 3.71343,0.56264 0.18754,-1.23781 -3.71342,-0.56264 -0.18755,1.23781 z m 4.91373,0.75019 2.8132,0.4126 0,0 0.90022,0.15004 0.18755,-1.23781 -0.90023,-0.15004 -2.77569,-0.4126 -0.22505,1.23781 z m 4.95123,0.75018 3.71343,0.60015 0.18754,-1.23781 -3.71342,-0.60014 -0.18755,1.2378 z m 4.95123,0.7877 3.71343,0.60015 0.18755,-1.23781 -3.71343,-0.60015 -0.18755,1.23781 z m 4.95124,0.7877 3.2258,0.52513 0,0 0.45011,0.075 0.22506,-1.23781 -0.48762,-0.075 -3.22581,-0.52513 -0.18754,1.23781 z m 4.91372,0.78769 3.71343,0.63766 0.18754,-1.23781 -3.71342,-0.63766 -0.18755,1.23781 z m 4.95124,0.82521 3.67591,0.63766 0.22506,-1.23781 -3.71343,-0.63766 -0.18754,1.23781 z m 4.91372,0.8252 3.63841,0.60015 0,0 0.075,0.0375 0.18755,-1.23781 -0.0375,0 -3.6384,-0.63765 -0.22506,1.2378 z m 4.91372,0.82521 3.71343,0.67517 0.22505,-1.23781 -3.71342,-0.63766 -0.22506,1.2003 z m 4.95124,0.90022 3.67591,0.63766 0.22506,-1.23781 -3.71343,-0.63765 -0.18754,1.2378 z m 4.91372,0.86272 3.67592,0.63766 0.22505,-1.23781 -3.67591,-0.63766 -0.22506,1.23781 z m 4.91373,0.86271 3.67591,0.67517 0.22506,-1.2003 -3.67592,-0.71267 -0.22505,1.2378 z m 4.91372,0.90023 3.67592,0.71268 0.26256,-1.23781 -3.71342,-0.67517 -0.22506,1.2003 z m 4.91372,0.93773 3.71343,0.67517 0.22505,-1.23781 -3.71342,-0.67517 -0.22506,1.23781 z m 4.91373,0.90023 3.67591,0.75018 0.26257,-1.23781 -3.67592,-0.71267 -0.26256,1.2003 z m 4.91372,0.97524 3.67592,0.71268 0.22505,-1.2003 -3.67591,-0.75019 -0.22506,1.23781 z m 4.91373,0.97524 3.67591,0.71268 0.22506,-1.23781 -3.67592,-0.71268 -0.22505,1.23781 z m 4.87621,0.97524 3.67592,0.75019 0.26256,-1.23781 -3.67591,-0.75018 -0.26257,1.2378 z m 4.91372,0.97525 3.67592,0.75018 0.26257,-1.20029 -3.67592,-0.75019 -0.26257,1.2003 z m 4.91373,1.01275 3.67591,0.75019 0.22506,-1.23781 -3.67592,-0.75019 -0.22505,1.23781 z m 4.87621,1.01275 3.67592,0.75019 0.26256,-1.2003 -3.67591,-0.7877 -0.26257,1.23781 z m 4.91373,1.01275 3.67591,0.7877 0.22506,-1.23781 -3.63841,-0.75018 -0.26256,1.20029 z m 4.87621,1.05027 3.67592,0.78769 0.26256,-1.23781 -3.67591,-0.78769 -0.26257,1.23781 z m 4.87622,1.01275 3.67591,0.8252 0.26257,-1.2378 -3.63841,-0.7877 -0.30007,1.2003 z m 4.91372,1.08777 3.67592,0.7877 0.26256,-1.23781 -3.67591,-0.7877 -0.26257,1.23781 z m 4.87622,1.05026 3.67591,0.7877 0.26257,-1.2003 -3.67592,-0.82521 -0.26256,1.23781 z m 4.87621,1.05026 0.075,0.0375 0,-0.0375 3.6009,0.82521 0.26256,-1.23781 -3.60089,-0.7877 -0.075,0 -0.26257,1.2003 z m 4.91373,1.08777 3.6384,0.82521 0.26257,-1.23781 -3.63841,-0.8252 -0.26256,1.2378 z m 4.87621,1.08777 3.63841,0.7877 0.30007,-1.2003 -3.67591,-0.8252 -0.26257,1.2378 z m 4.87621,1.08778 0.15004,0 3.48837,0.8252 0.30008,-1.23781 -3.52588,-0.78769 -0.15004,-0.0375 -0.26257,1.23781 z m 4.87622,1.08777 3.63841,0.8252 0.30007,-1.23781 -3.67592,-0.8252 -0.26256,1.23781 z m 4.87621,1.08777 3.67592,0.8252 0.26257,-1.23781 -3.67592,-0.78769 -0.26257,1.2003 z m 4.87622,1.08777 3.67591,0.8252 0.26257,-1.20029 -3.67592,-0.82521 -0.26256,1.2003 z m 4.87621,1.12528 3.67592,0.7877 0.26257,-1.2003 -3.63841,-0.82521 -0.30008,1.23781 z m 2.06302,3.63841 8.13953,-2.02551 -6.48912,-5.28882 -1.65041,7.31433 z"
         id="path3217"
         style="fill:#000000;fill-opacity:1;fill-rule:nonzero;stroke:#000000;stroke-width:0.03750934px;stroke-linecap:butt;stroke-linejoin:round;stroke-opacity:1;stroke-dasharray:none" />
      <text
         x="620.69214"
         y="485.10345"
         id="text3219"
         xml:space="preserve"
         style="font-size:13.80343914px;font-style:italic;font-weight:normal;text-align:start;text-anchor:start;fill:#000000;font-family:Verdana">Submit job</text>
      <text
         x="604.18805"
         y="501.60757"
         id="text3221"
         xml:space="preserve"
         style="font-size:13.80343914px;font-style:italic;font-weight:normal;text-align:start;text-anchor:start;fill:#000000;font-family:Verdana">(send dataflow)</text>
      <text
         x="731.01959"
         y="505.01871"
         id="text3223"
         xml:space="preserve"
         style="font-size:13.80343914px;font-style:italic;font-weight:normal;text-align:start;text-anchor:start;fill:#000000;font-family:Verdana">Cancel /</text>
      <text
         x="722.16742"
         y="521.52283"
         id="text3225"
         xml:space="preserve"
         style="font-size:13.80343914px;font-style:italic;font-weight:normal;text-align:start;text-anchor:start;fill:#000000;font-family:Verdana">update job</text>
      <path
         d="m 819.16657,486.83378 -3.03825,-2.25056 0.75018,-0.97524 3.00075,2.21305 -0.71268,1.01275 z m -4.051,-2.96324 -3.00075,-2.25056 0.71268,-1.01275 3.03825,2.25056 -0.75018,1.01275 z m -4.0135,-2.96323 -3.03826,-2.25056 0.75019,-1.01276 3.03825,2.25056 -0.75018,1.01276 z m -4.0135,-2.96324 -3.07577,-2.21305 0.75019,-1.01276 3.03825,2.21306 -0.71267,1.01275 z m -4.08852,-2.92573 -1.53789,-1.12528 0,0 -1.50037,-1.08777 0.75019,-1.01275 1.50037,1.08777 1.53788,1.12528 -0.75018,1.01275 z m -4.05101,-2.92573 -3.03826,-2.17554 0.71268,-1.01275 3.03826,2.17554 -0.71268,1.01275 z m -4.08852,-2.88822 -3.07577,-2.10052 0.71268,-1.05026 3.07577,2.13803 -0.71268,1.01275 z m -4.08852,-2.8132 -1.23781,-0.86272 0.0375,0.0375 -1.91297,-1.27531 0.71267,-1.05027 1.87547,1.27532 1.23781,0.82521 -0.71268,1.05026 z m -4.16354,-2.8132 -3.07576,-2.06302 0,0 -0.0375,0 0.67517,-1.05026 0.0375,0 3.11327,2.06302 -0.71268,1.05026 z m -4.16353,-2.73818 -3.15079,-2.02551 0.67517,-1.05026 3.15078,2.02551 -0.67516,1.05026 z m -4.20105,-2.70068 -0.82521,-0.48762 0.0375,0 -2.40059,-1.46286 0.63765,-1.05026 2.4006,1.42535 0.82521,0.52513 -0.67517,1.05026 z m -4.27607,-2.58814 -2.70067,-1.65041 0,0 -0.48762,-0.26257 0.63766,-1.08777 0.48762,0.26257 2.73818,1.65041 -0.67517,1.08777 z m -4.27606,-2.55064 -3.26331,-1.87546 0.63766,-1.05027 3.26331,1.83796 -0.63766,1.08777 z m -4.35108,-2.47561 -0.33759,-0.18755 0.0375,0 -2.96324,-1.57539 0.56264,-1.12528 3.00075,1.6129 0.33758,0.18755 -0.63765,1.08777 z m -4.3886,-2.36309 -2.28807,-1.2003 0.0375,0 -1.05026,-0.52513 0.56264,-1.12528 1.05026,0.52513 2.28807,1.23781 -0.60015,1.08777 z m -4.4261,-2.28807 -1.05026,-0.52513 0,0 -2.28807,-1.12528 0.52513,-1.12528 2.32558,1.12528 1.05026,0.52513 -0.56264,1.12528 z m -4.46361,-2.17554 -3.07577,-1.42536 0,0 -0.33758,-0.11253 0.48762,-1.16279 0.33758,0.15004 3.11328,1.42536 -0.52513,1.12528 z m -4.53863,-2.06302 -1.83796,-0.78769 0,0 -1.6129,-0.63766 0.48762,-1.16279 1.6129,0.67517 1.83796,0.78769 -0.48762,1.12528 z m -4.61365,-1.91297 -0.56264,-0.22506 0,0 -2.92573,-1.16279 0.45011,-1.16279 2.96324,1.16279 0.56264,0.22506 -0.48762,1.16279 z m -4.65116,-1.80045 -2.66316,-0.97525 0.0375,0 -0.86271,-0.30007 0.37509,-1.16279 0.90023,0.30007 2.66316,0.97525 -0.45011,1.16279 z m -4.68867,-1.65041 -1.38785,-0.48763 0,0 -2.17554,-0.67516 0.3751,-1.2003 2.21305,0.67517 1.38784,0.48762 -0.4126,1.2003 z m -4.76369,-1.53789 -0.075,-0.0375 0,0 -3.48837,-1.01275 0.33758,-1.2003 3.52588,1.01275 0.075,0.0375 -0.3751,1.2003 z m -4.76368,-1.35033 -2.36309,-0.63766 0,0 -1.27532,-0.30008 0.30008,-1.2003 1.27531,0.30008 2.36309,0.63766 -0.30007,1.2003 z m -4.83871,-1.2003 -1.08777,-0.26257 0,0 -2.55063,-0.56264 0.26256,-1.2003 2.55064,0.52513 1.12528,0.26257 -0.30008,1.23781 z m -4.87621,-1.05026 -3.52588,-0.67517 0.0375,0 -0.18755,-0.0375 0.22506,-1.2003 0.15003,0 3.56339,0.67517 -0.26256,1.23781 z m -4.87622,-0.90023 -2.32558,-0.37509 0,0 -1.38784,-0.18755 0.18754,-1.23781 1.38785,0.18755 2.32558,0.37509 -0.18755,1.23781 z m -4.95123,-0.75019 -1.12528,-0.15003 0,0 -2.58815,-0.30008 0.15004,-1.23781 2.62566,0.30008 1.12528,0.15004 -0.18755,1.2378 z m -4.95123,-0.60014 -3.71343,-0.3751 0.11253,-1.23781 3.75093,0.33759 -0.15003,1.27532 z m -4.95124,-0.48763 -2.66316,-0.22505 0,0 -1.05026,-0.075 0.075,-1.23781 1.08777,0.075 2.66316,0.22506 -0.11253,1.2378 z m -4.98874,-0.37509 -1.53788,-0.075 0,0 -2.17555,-0.11253 0.0375,-1.2378 2.21305,0.075 1.5754,0.11253 -0.11253,1.23781 z m -4.95123,-0.26257 -0.52514,0 0.0375,0 -3.26331,-0.11252 0.0375,-1.23781 3.26331,0.11253 0.48762,0 -0.0375,1.2378 z m -4.98875,-0.15003 -3.45086,-0.0375 0,0 -0.30007,0 0,-1.23781 0.33758,0 3.41335,0.0375 0,1.23781 z m -4.98874,-0.0375 -2.47562,0 0.0375,0 -1.31282,0 -0.0375,-1.23781 1.31282,-0.0375 2.47562,0 0,1.27532 z m -4.98874,0.0375 -3.75094,0.075 -0.0375,-1.27532 3.75094,-0.075 0.0375,1.27532 z m -5.02626,0.075 -0.52513,0 0,0 -3.18829,0.15003 -0.075,-1.2378 3.2258,-0.15004 0.56264,0 0,1.23781 z m -4.95123,0.18754 -3.75093,0.15004 0,0 0,0 -0.075,-1.23781 0,0 3.75093,-0.15004 0.075,1.23781 z m -4.98874,0.22506 -3.75094,0.26256 -0.075,-1.27531 3.75093,-0.22506 0.075,1.23781 z m -4.98874,0.33758 -2.06302,0.11253 0.0375,0 -1.72543,0.11253 -0.075,-1.23781 1.68792,-0.11253 2.06302,-0.15003 0.075,1.27531 z m -4.98875,0.33759 -3.75093,0.30007 -0.075,-1.27532 3.71342,-0.26256 0.11253,1.23781 z m -4.98874,0.37509 -0.4126,0.0375 0,0 -3.30083,0.30007 -0.11252,-1.2378 3.30082,-0.30008 0.4126,-0.0375 0.11253,1.23781 z m -4.98874,0.45011 -3.71343,0.3751 -0.11253,-1.27532 3.71343,-0.33759 0.11253,1.23781 z m -4.95124,0.48762 -3.75093,0.3751 -0.11253,-1.23781 3.71343,-0.37509 0.15003,1.2378 z m -4.98874,0.52514 -2.36309,0.26256 0,0 -1.35033,0.15004 -0.15004,-1.23781 1.38784,-0.18755 2.36309,-0.22505 0.11253,1.23781 z m -4.95123,0.52513 -3.71343,0.45011 -0.15003,-1.23781 3.71342,-0.45011 0.15004,1.23781 z m -4.98875,0.60015 -0.90022,0.11252 0,0 -2.8132,0.30008 -0.15004,-1.23781 2.8132,-0.33758 0.93774,-0.075 0.11252,1.23781 z m -4.95123,0.56264 -3.71342,0.45011 -0.15004,-1.23781 3.71342,-0.45011 0.15004,1.23781 z m -4.95123,0.63765 -3.71343,0.45012 -0.18754,-1.23781 3.75093,-0.48762 0.15004,1.27531 z m -4.95124,0.60015 -3.75093,0.48763 -0.15004,-1.23781 3.71343,-0.48762 0.18754,1.2378 z m -4.98874,0.63766 -0.56264,0.075 -0.15004,-1.23781 0.56264,-0.075 0.15004,1.23781 z m 1.08777,3.03826 -7.91447,-2.77569 6.97674,-4.68867 0.93773,7.46436 z"
         id="path3227"
         style="fill:#000000;fill-opacity:1;fill-rule:nonzero;stroke:#000000;stroke-width:0.03750934px;stroke-linecap:butt;stroke-linejoin:round;stroke-opacity:1;stroke-dasharray:none" />
      <text
         x="637.29187"
         y="402.23114"
         id="text3229"
         xml:space="preserve"
         style="font-size:13.80343914px;font-style:italic;font-weight:normal;text-align:start;text-anchor:start;fill:#000000;font-family:Verdana">Status</text>
      <text
         x="632.04059"
         y="418.73523"
         id="text3231"
         xml:space="preserve"
         style="font-size:13.80343914px;font-style:italic;font-weight:normal;text-align:start;text-anchor:start;fill:#000000;font-family:Verdana">updates</text>
      <text
         x="724.87628"
         y="415.9035"
         id="text3233"
         xml:space="preserve"
         style="font-size:13.80343914px;font-style:italic;font-weight:normal;text-align:start;text-anchor:start;fill:#000000;font-family:Verdana">Statistics &amp;</text>
      <text
         x="740.78027"
         y="432.40762"
         id="text3235"
         xml:space="preserve"
         style="font-size:13.80343914px;font-style:italic;font-weight:normal;text-align:start;text-anchor:start;fill:#000000;font-family:Verdana">results</text>
      <path
         d="m 421.75507,306.2638 116.27897,0 0,47.24302 c -58.13949,0 -58.13949,18.00448 -116.27897,7.78319 z"
         id="path3237"
         style="fill:#e6526e;fill-opacity:1;fill-rule:evenodd;stroke:none" />
      <path
         d="m 421.75507,306.2638 116.27897,0 0,47.24302 c -58.13949,0 -58.13949,18.00448 -116.27897,7.78319 z"
         id="path3239"
         style="fill:none;stroke:#8a3142;stroke-width:1.25656307px;stroke-linecap:butt;stroke-linejoin:miter;stroke-miterlimit:4;stroke-opacity:1;stroke-dasharray:none" />
      <text
         x="451.71744"
         y="327.26007"
         id="text3241"
         xml:space="preserve"
         style="font-size:13.20328903px;font-style:normal;font-weight:normal;text-align:start;text-anchor:start;fill:#000000;font-family:Verdana">Program</text>
      <text
         x="464.47064"
         y="343.01398"
         id="text3243"
         xml:space="preserve"
         style="font-size:13.20328903px;font-style:normal;font-weight:normal;text-align:start;text-anchor:start;fill:#000000;font-family:Verdana">code</text>
      <path
         d="m 904.23777,517.74148 0,32.48309 95.49879,0 0,-32.48309 -95.49879,0 z"
         id="path3245"
         style="fill:#b8bec6;fill-opacity:1;fill-rule:evenodd;stroke:none" />
      <path
         d="m 904.23777,517.74148 95.49879,0 0,32.48309 -95.49879,0 z"
         id="path3247"
         style="fill:none;stroke:#6e7277;stroke-width:1.23780835px;stroke-linecap:butt;stroke-linejoin:miter;stroke-miterlimit:4;stroke-opacity:1;stroke-dasharray:none" />
      <text
         x="919.12915"
         y="539.22919"
         id="text3249"
         xml:space="preserve"
         style="font-size:13.20328903px;font-style:normal;font-weight:normal;text-align:start;text-anchor:start;fill:#000000;font-family:Verdana">Scheduler</text>
      <path
         d="m 904.23777,553.82547 0,32.37057 95.49879,0 0,-32.37057 -95.49879,0 z"
         id="path3251"
         style="fill:#b8bec6;fill-opacity:1;fill-rule:evenodd;stroke:none" />
      <path
         d="m 904.23777,553.82547 95.49879,0 0,32.37057 -95.49879,0 z"
         id="path3253"
         style="fill:none;stroke:#6e7277;stroke-width:1.23780835px;stroke-linecap:butt;stroke-linejoin:miter;stroke-miterlimit:4;stroke-opacity:1;stroke-dasharray:none" />
      <text
         x="915.22498"
         y="567.3382"
         id="text3255"
         xml:space="preserve"
         style="font-size:13.20328903px;font-style:normal;font-weight:normal;text-align:start;text-anchor:start;fill:#000000;font-family:Verdana">Checkpoint</text>
      <text
         x="913.12445"
         y="583.0921"
         id="text3257"
         xml:space="preserve"
         style="font-size:13.20328903px;font-style:normal;font-weight:normal;text-align:start;text-anchor:start;fill:#000000;font-family:Verdana">Coordinator</text>
      <path
         d="m 352.98169,391.89763 0,43.30454 107.83936,0 0,-43.30454 -107.83936,0 z"
         id="path3259"
         style="fill:#e4eaf4;fill-opacity:1;fill-rule:evenodd;stroke:none" />
      <path
         d="m 352.98169,391.89763 107.83936,0 0,43.30454 -107.83936,0 z"
         id="path3261"
         style="fill:none;stroke:#898c92;stroke-width:1.25656307px;stroke-linecap:butt;stroke-linejoin:miter;stroke-miterlimit:4;stroke-opacity:1;stroke-dasharray:none" />
      <text
         x="367.77243"
         y="410.74432"
         id="text3263"
         xml:space="preserve"
         style="font-size:13.80343914px;font-style:normal;font-weight:normal;text-align:start;text-anchor:start;fill:#000000;font-family:Verdana">Optimizer /</text>
      <text
         x="359.37033"
         y="427.24844"
         id="text3265"
         xml:space="preserve"
         style="font-size:13.80343914px;font-style:normal;font-weight:normal;text-align:start;text-anchor:start;fill:#000000;font-family:Verdana">Graph Builder</text>
      <path
         d="m 400.61855,432.22018 -0.75018,1.36909 0.0187,0 -0.71268,1.36909 0,-0.0188 -0.28132,0.5814 -1.12528,-0.54389 0.28132,-0.58139 0.73144,-1.38785 0.75018,-1.38784 1.08777,0.60015 z m -2.2318,4.38859 -0.4126,1.01275 0.0188,-0.0375 -0.43136,1.31283 0.0188,-0.075 -0.28132,1.25656 -1.21906,-0.26256 0.28132,-1.29407 0.45012,-1.36909 0.43135,-1.01276 1.14404,0.46887 z m -1.16279,4.6324 0,0 0,-0.075 0.0375,0.60015 -0.0188,-0.0563 0.0938,0.5814 0,-0.0563 0.15003,0.56264 -0.0188,-0.0563 0.22506,0.56264 -0.0375,-0.075 0.30007,0.54388 -0.0375,-0.0563 0.37509,0.52513 -0.0375,-0.0563 0.0375,0.0563 -0.93773,0.82521 -0.075,-0.075 -0.39385,-0.5814 -0.33758,-0.6189 -0.26257,-0.6189 -0.16879,-0.63766 -0.11253,-0.65642 -0.0375,-0.67517 0,-0.0563 1.25656,0.0938 z m 1.89422,3.86347 0.0563,0.0375 -0.0375,-0.0375 0.6189,0.48762 -0.0563,-0.0375 0.71267,0.45011 -0.0375,-0.0188 0.80645,0.43135 -0.0563,-0.0188 0.90022,0.4126 -0.0375,-0.0188 0.16879,0.0563 -0.45011,1.18155 -0.1688,-0.075 -0.95649,-0.43136 -0.8252,-0.45011 -0.75019,-0.48762 -0.65641,-0.50638 -0.075,-0.075 0.84396,-0.90022 z m 4.18229,2.17554 0.7877,0.26256 -0.0375,0 1.21905,0.33759 -0.0187,0 1.31283,0.31883 -0.0188,-0.0188 0.30008,0.075 -0.26257,1.21906 -0.30007,-0.075 -1.33159,-0.31883 -1.25656,-0.33759 -0.80645,-0.28132 0.4126,-1.18154 z m 4.74493,1.21905 1.50038,0.24381 -0.0188,0 1.70668,0.22506 -0.0188,0 0.50638,0.075 -0.15004,1.23781 -0.50637,-0.0563 -1.72543,-0.24381 -1.50038,-0.26256 0.2063,-1.21906 z m 4.91373,0.67517 0.0563,0.0188 0,0 1.93173,0.18754 -0.0188,0 1.74418,0.13128 -0.0938,1.23781 -1.74418,-0.13128 -1.95049,-0.18755 -0.075,0 0.15004,-1.25656 z m 4.95123,0.4126 1.21906,0.0938 -0.0188,0 2.26932,0.11252 -0.0188,0 0.28132,0 -0.0563,1.25657 -0.28132,-0.0188 -2.25056,-0.11252 -1.21906,-0.075 0.075,-1.25657 z m 4.98874,0.26257 0.82521,0.0375 0,0 2.45686,0.075 0,0 0.45011,0 -0.0188,1.25656 -0.45011,-0.0188 -2.47562,-0.075 -0.84396,-0.0375 0.0563,-1.23781 z m 4.96999,0.13128 0.86272,0.0188 0,0 2.64441,0.0375 0,0 0.24381,0 0,1.25656 -0.26257,0 -2.64441,-0.0375 -0.86271,-0.0188 0.0188,-1.25656 z m 5.0075,0.0563 1.23781,0.0188 -0.0188,0 2.51313,-0.0188 0.0188,1.25656 -2.53188,0 -1.2378,0 0.0188,-1.25656 z m 4.98874,0 1.93173,-0.0188 0,0 1.81921,-0.0187 0.0188,1.25656 -1.8192,0.0188 -1.95049,0 0,-1.2378 z m 4.98875,-0.0563 2.94448,-0.0563 0.80645,-0.0188 0.0375,1.25657 -0.82521,0.0188 -2.94448,0.0563 -0.0188,-1.25656 z m 5.00749,-0.0938 1.03151,-0.0188 0,0 2.70067,-0.075 0.0375,1.23781 -2.70067,0.075 -1.05026,0.0188 -0.0188,-1.23781 z m 4.98875,-0.13128 2.4381,-0.075 0,0 1.31283,-0.0375 0.0375,1.23781 -1.31283,0.0563 -2.4381,0.075 -0.0375,-1.25656 z m 4.98874,-0.1688 3.75093,-0.11252 0.0563,1.2378 -3.75094,0.13129 -0.0563,-1.25657 z m 5.0075,-0.16879 3.75093,-0.15004 0.0375,1.25657 -3.75093,0.15003 -0.0375,-1.25656 z m 4.98874,-0.18755 0.86271,-0.0375 0,0 2.88822,-0.13129 0.0563,1.25657 -2.90698,0.13128 -0.84396,0.0375 -0.0563,-1.25657 z m 5.0075,-0.2063 2.8132,-0.13128 -0.0188,0 0.93774,-0.0375 0.0563,1.23781 -0.93773,0.0563 -2.8132,0.11253 -0.0375,-1.23781 z m 4.98874,-0.22505 3.75093,-0.18755 0.0563,1.25656 -3.75094,0.1688 -0.0563,-1.23781 z m 4.98874,-0.24381 3.75094,-0.1688 0.0563,1.23781 -3.75093,0.18755 -0.0563,-1.25656 z m 4.98875,-0.22506 2.08176,-0.11253 1.66917,-0.075 0.075,1.23781 -1.66917,0.0938 -2.08177,0.0938 -0.075,-1.23781 z m 5.00749,-0.26257 3.73218,-0.18754 0.075,1.25656 -3.75093,0.18755 -0.0563,-1.25657 z m 4.98875,-0.24381 0.35633,-0.0187 0.0563,1.23781 -0.35634,0.0188 -0.0563,-1.23781 z m -1.05027,-3.07576 7.67067,3.35708 -7.29557,4.12603 -0.3751,-7.48311 z"
         id="path3267"
         style="fill:#000000;fill-opacity:1;fill-rule:nonzero;stroke:#000000;stroke-width:0.01875467px;stroke-linecap:butt;stroke-linejoin:round;stroke-opacity:1;stroke-dasharray:none" />
      <text
         x="363.56607"
         y="467.15714"
         id="text3269"
         xml:space="preserve"
         style="font-size:13.80343914px;font-style:italic;font-weight:normal;text-align:start;text-anchor:start;fill:#000000;font-family:Verdana">Dataflow graph</text>
      <path
         d="m 442.44147,350.206 -3.00074,2.2318 -0.75019,-0.994 3.0195,-2.2318 0.73143,0.994 z m -4.0135,2.98199 -3.00074,2.25056 -0.75019,-0.994 3.00075,-2.25056 0.75018,0.994 z m -3.97599,3.00075 -2.96324,2.30682 -0.76894,-0.97524 2.96324,-2.30683 0.76894,0.97525 z m -3.91972,3.09452 -2.88822,2.38184 -0.7877,-0.95649 2.88822,-2.4006 0.7877,0.97525 z m -3.8072,3.20705 -0.80645,0.69392 0.0188,0 -1.63165,1.48162 0.0188,-0.0188 -0.35634,0.33759 -0.86271,-0.90023 0.35633,-0.33758 1.63166,-1.50038 0.80645,-0.71267 0.82521,0.95649 z m -3.65716,3.35708 -0.30008,0.30008 0,0 -1.48162,1.51912 0.0188,-0.0188 -0.80645,0.88147 -0.91898,-0.84396 0.80645,-0.88147 1.50037,-1.53788 0.31883,-0.31883 0.86272,0.90022 z m -3.3946,3.6009 -1.06902,1.25656 0.0188,-0.0188 -1.2003,1.57539 0.0188,-0.0375 -0.075,0.0938 -1.01276,-0.71267 0.075,-0.0938 1.21906,-1.59414 1.08777,-1.27532 0.93773,0.80645 z m -3.0195,3.90097 -0.31883,0.46887 0.0188,-0.0188 -1.01275,1.6129 0.0188,-0.0187 -0.61891,1.10653 -1.08777,-0.60015 0.61891,-1.12528 1.0315,-1.65042 0.33759,-0.48762 1.01275,0.71268 z m -2.45686,4.23856 -0.52513,1.05026 0.0188,-0.0188 -0.71268,1.66917 0.0188,-0.0375 -0.28132,0.71268 -1.16279,-0.43136 0.26256,-0.73143 0.73144,-1.68792 0.52513,-1.06902 1.12528,0.54389 z m -1.89423,4.53863 -0.48762,1.50037 0.0188,-0.0188 -0.48762,1.70667 0,-0.0187 -0.0938,0.37509 -1.21905,-0.30007 0.0938,-0.39385 0.50638,-1.72543 0.48762,-1.51913 1.18154,0.39385 z m -1.35033,4.76368 -0.0375,0.13129 0.0188,-0.0375 -0.69392,3.48837 0,-0.0188 0,0.0375 -1.23781,-0.16879 0,-0.075 0.69393,-3.50712 0.0375,-0.15004 1.21906,0.30007 z m -0.90023,4.83871 -0.43135,3.11328 -1.23781,-0.1688 0.43136,-3.11327 1.2378,0.16879 z m 2.83196,2.21305 -4.57614,7.033 -2.88822,-7.87696 7.46436,0.84396 z"
         id="path3271"
         style="fill:#000000;fill-opacity:1;fill-rule:nonzero;stroke:#000000;stroke-width:0.01875467px;stroke-linecap:butt;stroke-linejoin:round;stroke-opacity:1;stroke-dasharray:none" />
      <text
         x="347.75757"
         y="363.58319"
         id="text3273"
         xml:space="preserve"
         style="font-size:13.80343914px;font-style:italic;font-weight:normal;text-align:start;text-anchor:start;fill:#000000;font-family:Verdana">Program</text>
      <text
         x="346.85733"
         y="380.08731"
         id="text3275"
         xml:space="preserve"
         style="font-size:13.80343914px;font-style:italic;font-weight:normal;text-align:start;text-anchor:start;fill:#000000;font-family:Verdana">Dataflow</text>
    </g>
  </g>
</svg>
