<?xml version="1.0" encoding="UTF-8" standalone="no"?>
<!--
Licensed to the Apache Software Foundation (ASF) under one
or more contributor license agreements.  See the NOTICE file
distributed with this work for additional information
regarding copyright ownership.  The ASF licenses this file
to you under the Apache License, Version 2.0 (the
"License"); you may not use this file except in compliance
with the License.  You may obtain a copy of the License at

http://www.apache.org/licenses/LICENSE-2.0

Unless required by applicable law or agreed to in writing,
software distributed under the License is distributed on an
"AS IS" BASIS, WITHOUT WARRANTIES OR CONDITIONS OF ANY
KIND, either express or implied.  See the License for the
specific language governing permissions and limitations
under the License.
-->
<svg width="855" height="487" xmlns="http://www.w3.org/2000/svg" xmlns:xlink="http://www.w3.org/1999/xlink" overflow="hidden"><defs><clipPath id="clip0"><path d="M26 15 881 15 881 502 26 502Z" fill-rule="evenodd" clip-rule="evenodd"/></clipPath></defs><g clip-path="url(#clip0)" transform="translate(-26 -15)"><path d="M26 158.936C26 151.239 32.2394 145 39.936 145L326.064 145C333.761 145 340 151.239 340 158.936L340 298.064C340 305.761 333.761 312 326.064 312L39.936 312C32.2394 312 26 305.761 26 298.064Z" fill="#D9D9D9" fill-rule="evenodd"/><text font-family="Verdana,Verdana_MSFontService,sans-serif" font-weight="400" font-size="21" transform="translate(102.883 298)">Master Process<tspan font-style="italic" font-size="15" x="281.125" y="-218">request next</tspan><tspan font-style="italic" font-size="15" x="281.125" y="-201">split</tspan></text><path d="M534 27.3507C534 20.5296 539.53 15 546.351 15L867.649 15C874.47 15 880 20.5296 880 27.3507L880 150.649C880 157.47 874.47 163 867.649 163L546.351 163C539.53 163 534 157.47 534 150.649Z" fill="#D9D9D9" fill-rule="evenodd"/><text font-family="Verdana,Verdana_MSFontService,sans-serif" font-weight="400" font-size="21" transform="translate(633.721 45)">Task Manager</text><path d="M45 174.345C45 169.736 48.7361 166 53.3449 166L321.655 166C326.264 166 330 169.736 330 174.345L330 257.655C330 262.264 326.264 266 321.655 266L53.3449 266C48.7361 266 45 262.264 45 257.655Z" fill="#CAD9DF" fill-rule="evenodd"/><text font-family="Verdana,Verdana_MSFontService,sans-serif" font-weight="400" font-size="21" transform="translate(57.5228 211)">Job<tspan x="0" y="26">Manager</tspan></text><path d="M173 196.334C173 189.522 178.522 184 185.334 184L305.666 184C312.478 184 318 189.522 318 196.334L318 245.666C318 252.478 312.478 258 305.666 258L185.334 258C178.522 258 173 252.478 173 245.666Z" fill="#85B1B3" fill-rule="evenodd"/><text font-family="Verdana,Verdana_MSFontService,sans-serif" font-weight="400" font-size="19" transform="translate(224.577 218)">Split<tspan x="-34.2467" y="22">Enumerator</tspan></text><path d="M550 101.5C550 74.1619 571.938 52 599 52 626.062 52 648 74.1619 648 101.5 648 128.838 626.062 151 599 151 571.938 151 550 128.838 550 101.5Z" fill="#AECBCC" fill-rule="evenodd"/><text font-family="Verdana,Verdana_MSFontService,sans-serif" font-weight="400" font-size="15" transform="translate(573.994 82)">Source<tspan x="-0.5" y="17">Reader</tspan></text><path d="M814.25 88.5001C811.903 88.5001 810 96.1113 810 105.5 810 114.889 811.903 122.5 814.25 122.5L695.75 122.5C693.403 122.5 691.5 114.889 691.5 105.5 691.5 96.1113 693.403 88.5001 695.75 88.5001Z" fill="#CAD9DF" fill-rule="evenodd"/><path d="M814.25 88.5001C816.597 88.5001 818.5 96.1113 818.5 105.5 818.5 114.889 816.597 122.5 814.25 122.5 811.903 122.5 810 114.889 810 105.5 810 96.1113 811.903 88.5001 814.25 88.5001Z" fill="#DFE8EC" fill-rule="evenodd"/><path d="M814.25 122.5C811.903 122.5 810 114.889 810 105.5 810 96.1113 811.903 88.5001 814.25 88.5001 816.597 88.5001 818.5 96.1113 818.5 105.5 818.5 114.889 816.597 122.5 814.25 122.5ZM814.25 122.5 695.75 122.5C693.403 122.5 691.5 114.889 691.5 105.5 691.5 96.1113 693.403 88.5001 695.75 88.5001L814.25 88.5001" stroke="#000000" stroke-width="3" stroke-miterlimit="8" fill="none" fill-rule="evenodd"/><path d="M655 95.5 667.5 95.5 667.5 86 680 105 667.5 124 667.5 114.5 655 114.5Z" fill="#7C7C7C" fill-rule="evenodd"/><path d="M554.076 74.9971 546.1 75.6081 545.947 73.6139 553.924 73.0029ZM540.117 76.0663 539.389 76.1221 539.401 76.121 532.161 76.7681 531.983 74.776 539.23 74.1284 539.964 74.0721ZM526.185 77.3021 524.714 77.4335 524.739 77.431 518.258 78.1725 518.03 76.1855 524.524 75.4426 526.007 75.31ZM512.296 78.8545 509.989 79.1185 510.03 79.1129 504.421 79.9923 504.111 78.0164 509.741 77.1338 512.069 76.8675ZM498.494 80.9216 495.28 81.4254 495.327 81.417 490.677 82.3742 490.274 80.4153 494.947 79.4532 498.184 78.9457ZM484.8 83.5841 480.452 84.4795 480.516 84.4639 477.085 85.4116 476.552 83.4837 480.016 82.5272 484.397 81.6252ZM471.301 87.0087 465.579 88.5889 465.642 88.5693 463.693 89.2484 463.035 87.3599 465.015 86.6699 470.769 85.0808ZM458.027 91.2232 450.579 93.8193 450.638 93.7965 450.535 93.8401 449.758 91.9971 449.891 91.9412 457.369 89.3346ZM445.006 96.1705 443.076 96.984 443.105 96.9713 437.738 99.4349 436.903 97.6172 442.285 95.1471 444.229 94.3275ZM432.398 102.064 427.896 104.389 427.921 104.375 425.354 105.795 424.386 104.044 426.966 102.618 431.48 100.287ZM420.152 108.678 413.363 112.91 412.305 111.213 419.094 106.981ZM408.272 116.085 404.842 118.224 404.881 118.198 401.625 120.447 400.488 118.802 403.763 116.539 407.214 114.388ZM396.688 123.857 390.106 128.404 388.969 126.758 395.551 122.212ZM385.33 131.964 378.949 136.789 377.742 135.193 384.124 130.369ZM374.162 140.407 373.728 140.735 373.75 140.718 367.931 145.378 366.68 143.817 372.511 139.148 372.956 138.811ZM363.247 149.129 358.063 153.281 358.078 153.268 357.035 154.138 355.754 152.602 356.805 151.726 361.997 147.568ZM352.427 157.981 346.284 163.104 345.003 161.569 351.146 156.445ZM341.693 166.947 335.621 172.155 334.319 170.637 340.391 165.428ZM331.066 176.061 326.464 180.009 326.469 180.005 325.008 181.275 323.695 179.766 325.159 178.493 329.764 174.543ZM320.48 185.212 315.687 189.38 314.375 187.871 319.168 183.703ZM318.662 190.769 310 193 313.412 184.732Z" fill="#7F7F7F"/><path d="M309.528 202.118 316.583 198.346 317.526 200.109 310.472 203.882ZM321.874 195.516 328.929 191.744 329.872 193.507 322.817 197.28ZM334.217 188.913 341.267 185.131 342.212 186.893 335.163 190.675ZM346.554 182.294 353.603 178.511 354.549 180.273 347.499 184.056ZM358.904 175.689 365.975 171.947 366.911 173.715 359.84 177.456ZM371.279 169.141 378.35 165.4 379.285 167.168 372.214 170.909ZM383.679 162.627 390.777 158.936 391.7 160.711 384.602 164.402ZM396.1 156.168 400.417 153.924 403.215 152.495 404.125 154.276 401.33 155.703 401.336 155.7 397.023 157.943ZM408.559 149.767 415.684 146.129 416.594 147.911 409.469 151.548ZM421.028 143.401 421.235 143.296 428.179 139.802 429.078 141.588 422.137 145.081 422.142 145.078 421.938 145.183ZM433.561 137.125 440.744 133.604 441.624 135.4 434.441 138.921ZM446.161 131.005 450.011 129.158 453.406 127.582 454.248 129.396 450.859 130.97 450.87 130.964 447.026 132.808ZM458.861 125.051 466.162 121.781 466.98 123.607 459.678 126.876ZM471.666 119.368 475.046 117.892 479.045 116.232 479.812 118.079 475.821 119.736 475.838 119.729 472.466 121.201ZM484.638 113.983 489.336 112.189 492.134 111.157 492.826 113.033 490.034 114.063 490.044 114.059 485.351 115.851ZM497.82 109.138 501.884 107.797 505.459 106.697 506.048 108.609 502.482 109.706 502.501 109.7 498.447 111.037ZM511.235 105 512.875 104.531 519.058 103.104 519.508 105.053 513.35 106.474 513.4 106.462 511.785 106.923ZM524.985 101.871 531.422 100.759 532.941 100.591 533.162 102.578 531.673 102.744 531.733 102.735 525.325 103.842ZM538.904 99.9281 539.347 99.8789 546.922 99.3421 547.064 101.337 539.508 101.872 539.548 101.869 539.125 101.916ZM545.82 96.3825 554 100 546.198 104.374Z" fill="#7F7F7F"/><path d="M829 95.5 842 95.5 842 86 855 105 842 124 842 114.5 829 114.5Z" fill="#7C7C7C" fill-rule="evenodd"/><path d="M617.487 130.745C614.228 140.416 603.533 145.685 593.599 142.512 583.665 139.339 578.254 128.926 581.513 119.255 584.772 109.584 595.467 104.315 605.401 107.488 611.177 109.333 615.692 113.767 617.537 119.406L625.983 118.617 615.492 123.506 603.216 120.744 611.619 119.959C608.726 113.519 600.954 110.556 594.261 113.34 587.568 116.124 584.487 123.601 587.381 130.041 590.274 136.481 598.046 139.444 604.739 136.66 608.193 135.224 610.845 132.438 612.031 129.002Z" fill="#385723" fill-rule="evenodd"/><text font-family="Verdana,Verdana_MSFontService,sans-serif" font-style="italic" font-weight="400" font-size="15" transform="translate(436.976 150)">assign<tspan x="-10.8333" y="17">next split</tspan></text><path d="M461 114.5C461 112.567 462.567 111 464.5 111L478.5 111C480.433 111 482 112.567 482 114.5L482 130.5C482 132.433 480.433 134 478.5 134L464.5 134C462.567 134 461 132.433 461 130.5Z" fill="#7F6000" fill-rule="evenodd"/><path d="M534 196.351C534 189.53 539.53 184 546.351 184L867.649 184C874.47 184 880 189.53 880 196.351L880 319.649C880 326.47 874.47 332 867.649 332L546.351 332C539.53 332 534 326.47 534 319.649Z" fill="#D9D9D9" fill-rule="evenodd"/><text font-family="Verdana,Verdana_MSFontService,sans-serif" font-weight="400" font-size="21" transform="translate(633.721 214)">Task Manager</text><path d="M550 270.5C550 243.162 571.938 221 599 221 626.062 221 648 243.162 648 270.5 648 297.838 626.062 320 599 320 571.938 320 550 297.838 550 270.5Z" fill="#AECBCC" fill-rule="evenodd"/><text font-family="Verdana,Verdana_MSFontService,sans-serif" font-weight="400" font-size="15" transform="translate(573.994 251)">Source<tspan x="-0.5" y="17">Reader</tspan></text><path d="M814.25 257.5C811.903 257.5 810 265.111 810 274.5 810 283.889 811.903 291.5 814.25 291.5L695.75 291.5C693.403 291.5 691.5 283.889 691.5 274.5 691.5 265.111 693.403 257.5 695.75 257.5Z" fill="#CAD9DF" fill-rule="evenodd"/><path d="M814.25 257.5C816.597 257.5 818.5 265.111 818.5 274.5 818.5 283.889 816.597 291.5 814.25 291.5 811.903 291.5 810 283.889 810 274.5 810 265.111 811.903 257.5 814.25 257.5Z" fill="#DFE8EC" fill-rule="evenodd"/><path d="M814.25 291.5C811.903 291.5 810 283.889 810 274.5 810 265.111 811.903 257.5 814.25 257.5 816.597 257.5 818.5 265.111 818.5 274.5 818.5 283.889 816.597 291.5 814.25 291.5ZM814.25 291.5 695.75 291.5C693.403 291.5 691.5 283.889 691.5 274.5 691.5 265.111 693.403 257.5 695.75 257.5L814.25 257.5" stroke="#000000" stroke-width="3" stroke-miterlimit="8" fill="none" fill-rule="evenodd"/><path d="M655 264.5 667.5 264.5 667.5 255 680 274 667.5 293 667.5 283.5 655 283.5Z" fill="#7C7C7C" fill-rule="evenodd"/><path d="M829 264.5 842 264.5 842 255 855 274 842 293 842 283.5 829 283.5Z" fill="#7C7C7C" fill-rule="evenodd"/><path d="M617.487 299.745C614.228 309.416 603.533 314.685 593.599 311.512 583.665 308.339 578.254 297.926 581.513 288.255 584.772 278.584 595.467 273.315 605.401 276.488 611.177 278.333 615.692 282.767 617.537 288.406L625.983 287.617 615.492 292.506 603.216 289.744 611.619 288.959C608.726 282.519 600.954 279.556 594.261 282.34 587.568 285.124 584.487 292.601 587.381 299.041 590.274 305.481 598.046 308.444 604.739 305.66 608.193 304.224 610.845 301.438 612.031 298.002Z" fill="#385723" fill-rule="evenodd"/><path d="M534 365.351C534 358.53 539.53 353 546.351 353L867.649 353C874.47 353 880 358.53 880 365.351L880 488.649C880 495.47 874.47 501 867.649 501L546.351 501C539.53 501 534 495.47 534 488.649Z" fill="#D9D9D9" fill-rule="evenodd"/><text font-family="Verdana,Verdana_MSFontService,sans-serif" font-weight="400" font-size="21" transform="translate(633.721 382)">Task Manager</text><path d="M550 439C550 411.938 571.938 390 599 390 626.062 390 648 411.938 648 439 648 466.062 626.062 488 599 488 571.938 488 550 466.062 550 439Z" fill="#AECBCC" fill-rule="evenodd"/><text font-family="Verdana,Verdana_MSFontService,sans-serif" font-weight="400" font-size="15" transform="translate(573.994 419)">Source<tspan x="-0.5" y="17">Reader</tspan></text><path d="M814.25 426.5C811.903 426.5 810 434.111 810 443.5 810 452.889 811.903 460.5 814.25 460.5L695.75 460.5C693.403 460.5 691.5 452.889 691.5 443.5 691.5 434.111 693.403 426.5 695.75 426.5Z" fill="#CAD9DF" fill-rule="evenodd"/><path d="M814.25 426.5C816.597 426.5 818.5 434.111 818.5 443.5 818.5 452.889 816.597 460.5 814.25 460.5 811.903 460.5 810 452.889 810 443.5 810 434.111 811.903 426.5 814.25 426.5Z" fill="#DFE8EC" fill-rule="evenodd"/><path d="M814.25 460.5C811.903 460.5 810 452.889 810 443.5 810 434.111 811.903 426.5 814.25 426.5 816.597 426.5 818.5 434.111 818.5 443.5 818.5 452.889 816.597 460.5 814.25 460.5ZM814.25 460.5 695.75 460.5C693.403 460.5 691.5 452.889 691.5 443.5 691.5 434.111 693.403 426.5 695.75 426.5L814.25 426.5" stroke="#000000" stroke-width="3" stroke-miterlimit="8" fill="none" fill-rule="evenodd"/><path d="M655 433.5 667.5 433.5 667.5 424 680 443 667.5 462 667.5 452.5 655 452.5Z" fill="#7C7C7C" fill-rule="evenodd"/><path d="M829 433.5 842 433.5 842 424 855 443 842 462 842 452.5 829 452.5Z" fill="#7C7C7C" fill-rule="evenodd"/><path d="M617.487 468.745C614.228 478.416 603.533 483.685 593.599 480.512 583.665 477.339 578.254 466.926 581.513 457.255 584.772 447.584 595.467 442.315 605.401 445.488 611.177 447.333 615.692 451.767 617.537 457.406L625.983 456.617 615.492 461.506 603.216 458.744 611.619 457.959C608.726 451.519 600.954 448.556 594.261 451.34 587.568 454.124 584.487 461.601 587.381 468.041 590.274 474.481 598.046 477.444 604.739 474.66 608.193 473.224 610.845 470.438 612.031 467.002Z" fill="#385723" fill-rule="evenodd"/><path d="M312.013 214 320.012 214.105 319.986 216.105 311.987 216ZM326.012 214.184 334.011 214.29 333.985 216.289 325.986 216.184ZM340.016 214.392 348.014 214.541 347.977 216.54 339.979 216.391ZM354.013 214.652 359.269 214.75 362.015 214.81 361.971 216.809 359.231 216.75 353.976 216.652ZM368.014 214.94 376.012 215.114 375.968 217.114 367.97 216.94ZM382.01 215.245 382.275 215.25 390.013 215.468 389.957 217.467 382.222 217.25 382.228 217.25 381.967 217.244ZM396.011 215.636 404.008 215.861 403.952 217.86 395.955 217.635ZM410.016 216.103 418.009 216.434 417.927 218.432 409.934 218.101ZM424.004 216.682 425.673 216.751 432.007 217.103 431.896 219.1 425.57 218.748 425.584 218.749 423.922 218.68ZM438.005 217.454 445.631 217.94 445.998 217.967 445.852 219.961 445.489 219.935 445.499 219.935 437.878 219.45ZM451.982 218.406 455.016 218.628 459.967 219.044 459.8 221.037 454.854 220.621 454.864 220.622 451.836 220.4ZM465.961 219.584 472.488 220.256 473.937 220.436 473.69 222.421 472.252 222.242 472.273 222.245 465.757 221.574ZM479.891 221.175 480.569 221.259 487.831 222.287 487.55 224.268 480.297 223.24 480.314 223.242 479.645 223.159ZM493.774 223.28 495.18 223.516 501.657 224.799 501.269 226.761 494.806 225.481 494.834 225.486 493.442 225.252ZM507.538 226.102 508.042 226.214 513.817 227.658 515.341 228.078 514.81 230.006 513.297 229.589 513.32 229.595 507.57 228.158 507.596 228.164 507.104 228.054ZM521.144 229.774 528.748 232.261 528.126 234.162 520.523 231.675ZM534.399 234.44 538.261 235.952 541.821 237.541 541.006 239.367 537.468 237.788 537.51 237.806 533.669 236.302ZM547.316 240.026 554.072 243.293 554.536 243.533 553.617 245.309 553.166 245.076 553.19 245.088 546.445 241.826ZM555.73 240.773 561 248 552.057 247.88Z" fill="#7F7F7F"/><path d="M554.902 265.995 546.94 265.209 547.137 263.218 555.098 264.005ZM540.969 264.619 533.008 263.832 533.205 261.842 541.166 262.628ZM527.038 263.245 519.076 262.468 519.27 260.477 527.233 261.254ZM513.104 261.885 505.142 261.109 505.336 259.118 513.299 259.895ZM499.169 260.515 491.209 259.717 491.408 257.727 499.369 258.525ZM485.239 259.118 478.398 258.432 477.275 258.315 477.483 256.326 478.604 256.443 478.6 256.442 485.438 257.128ZM471.308 257.692 463.351 256.861 463.559 254.872 471.515 255.703ZM457.383 256.238 454.456 255.932 449.425 255.385 449.641 253.397 454.671 253.943 454.666 253.943 457.591 254.248ZM443.46 254.737 442.953 254.681 435.506 253.845 435.729 251.857 443.174 252.694 443.171 252.693 443.676 252.748ZM429.54 253.164 421.594 252.235 421.827 250.248 429.773 251.177ZM415.635 251.544 410.882 250.993 407.685 250.604 407.927 248.618 411.121 249.007 411.115 249.007 415.866 249.557ZM401.729 249.878 401.126 249.805 393.787 248.863 394.042 246.879 401.377 247.821 401.371 247.82 401.971 247.893ZM387.832 248.061 383.233 247.427 379.901 246.933 380.195 244.954 383.522 245.448 383.511 245.447 388.105 246.079ZM373.963 246.046 367.842 245.113 366.045 244.813 366.374 242.84 368.164 243.139 368.151 243.136 374.265 244.069ZM360.113 243.808 354.937 242.857 352.237 242.317 352.63 240.356 355.321 240.894 355.306 240.891 360.474 241.841ZM346.347 241.082 344.157 240.601 339.456 239.535 338.518 239.301 339.004 237.361 339.93 237.592 339.909 237.587 344.596 238.65 344.589 238.648 346.776 239.128ZM332.69 237.784 331.281 237.397 325.006 235.44 325.602 233.531 331.86 235.483 331.827 235.473 333.219 235.855ZM319.316 233.391 318.573 233.119 314.753 231.524 315.524 229.678 319.323 231.265 319.281 231.248 320.003 231.512ZM314.805 234.804 309 228 317.927 227.438Z" fill="#7F7F7F"/><path d="M311.475 241.12 318.515 244.92 317.565 246.68 310.525 242.88ZM323.795 247.77 330.835 251.57 329.885 253.33 322.845 249.53ZM336.115 254.42 343.154 258.22 342.204 259.98 335.164 256.18ZM348.44 261.087 355.431 264.976 354.458 266.724 347.467 262.835ZM360.674 267.893 367.665 271.783 366.692 273.53 359.701 269.641ZM372.908 274.7 379.899 278.589 378.926 280.337 371.936 276.447ZM385.137 281.549 392.06 285.559 391.058 287.289 384.135 283.28ZM397.252 288.566 400.509 290.452 404.152 292.648 403.119 294.361 399.484 292.169 399.499 292.178 396.25 290.296ZM409.29 295.746 416.141 299.877 415.109 301.59 408.258 297.459ZM421.251 303.059 428.019 307.325 426.953 309.017 420.185 304.751ZM433.095 310.524 434.107 311.161 439.787 314.955 438.676 316.618 433.007 312.832 433.029 312.846 432.029 312.216ZM444.776 318.288 450.13 321.864 451.427 322.785 450.269 324.415 448.984 323.503 449.007 323.519 443.665 319.951ZM456.319 326.258 458.336 327.689 462.801 330.975 461.616 332.586 457.157 329.305 457.171 329.315 455.161 327.889ZM467.641 334.548 474.009 339.39 472.799 340.982 466.43 336.141ZM478.766 343.074 485.054 348.02 483.817 349.592 477.529 344.645ZM489.736 351.793 495.957 356.823 494.699 358.378 488.478 353.348ZM500.622 360.596 504.571 363.789 506.829 365.663 505.552 367.202 503.299 365.332 503.309 365.34 499.365 362.151ZM511.446 369.495 513.765 371.419 517.591 374.625 516.306 376.158 512.483 372.954 512.486 372.957 510.169 371.034ZM522.189 378.479 522.644 378.86 528.306 383.641 527.016 385.169 521.355 380.389 521.358 380.391 520.905 380.012ZM532.885 387.527 538.839 392.617 538.97 392.73 537.662 394.242 537.533 394.131 537.538 394.135 531.586 389.047ZM543.508 396.655 545.779 398.619 549.558 401.891 548.248 403.403 544.471 400.131 542.2 398.167ZM554.088 405.831 556.783 408.184 558.664 409.832 557.346 411.337 555.467 409.691 552.773 407.337ZM559.656 406.704 563 415 554.357 412.698Z" fill="#7F7F7F"/><path d="M558.498 428.865 551.578 424.852 552.581 423.122 559.502 427.135ZM546.387 421.842 539.467 417.829 540.47 416.099 547.391 420.112ZM534.276 414.819 527.356 410.806 528.359 409.076 535.28 413.089ZM522.186 407.739 515.31 403.649 516.333 401.93 523.208 406.02ZM510.154 400.581 503.278 396.492 504.301 394.773 511.176 398.863ZM498.122 393.424 495.166 391.666 491.281 389.232 492.343 387.537 496.218 389.965 496.199 389.953 499.144 391.705ZM486.197 386.047 479.417 381.8 480.479 380.105 487.259 384.352ZM474.333 378.614 467.553 374.367 468.615 372.672 475.395 376.919ZM462.465 371.144 455.788 366.737 456.89 365.067 463.567 369.474ZM450.781 363.431 447.692 361.392 444.133 358.949 445.265 357.3 448.816 359.738 448.801 359.728 451.883 361.762ZM439.186 355.553 432.591 351.025 433.723 349.376 440.318 353.904ZM427.69 347.527 421.193 342.86 422.36 341.235 428.857 345.902ZM416.32 339.36 416.16 339.245 409.888 334.572 411.083 332.969 417.347 337.636 417.333 337.625 417.486 337.735ZM405.077 330.988 400.456 327.546 398.674 326.157 399.903 324.579 401.677 325.961 401.66 325.948 406.272 329.384ZM393.94 322.47 387.629 317.554 388.858 315.976 395.169 320.892ZM382.895 313.867 376.584 308.951 377.813 307.373 384.124 312.289ZM371.85 305.264 369.065 303.095 365.578 300.268 366.837 298.714 370.317 301.536 370.302 301.524 373.079 303.687ZM360.917 296.489 354.703 291.451 355.962 289.897 362.177 294.936ZM350.042 287.672 343.828 282.634 345.088 281.081 351.302 286.119ZM339.167 278.855 337.679 277.649 332.982 273.767 334.256 272.226 338.949 276.104 338.942 276.098 340.427 277.302ZM328.357 269.945 322.19 264.849 323.464 263.308 329.631 268.404ZM317.565 261.027 311.502 256.018 312.776 254.476 318.839 259.486ZM310.619 259.179 307 251 315.715 253.013Z" fill="#7F7F7F"/><rect x="700" y="98" width="15" height="15" fill="#597978"/><rect x="722" y="98" width="15" height="15" fill="#597978"/><rect x="743" y="98" width="15" height="15" fill="#597978"/><rect x="765" y="98" width="15" height="15" fill="#597978"/><rect x="700" y="267" width="15" height="15" fill="#597978"/><rect x="722" y="267" width="15" height="15" fill="#597978"/><rect x="743" y="267" width="15" height="15" fill="#597978"/><rect x="765" y="267" width="15" height="15" fill="#597978"/><rect x="700" y="436" width="15" height="15" fill="#597978"/><rect x="722" y="436" width="15" height="15" fill="#597978"/><rect x="743" y="436" width="15" height="15" fill="#597978"/><rect x="765" y="436" width="15" height="15" fill="#597978"/></g></svg>
