<?xml version="1.0" encoding="UTF-8" standalone="no"?>
<!--
Licensed to the Apache Software Foundation (ASF) under one
or more contributor license agreements.  See the NOTICE file
distributed with this work for additional information
regarding copyright ownership.  The ASF licenses this file
to you under the Apache License, Version 2.0 (the
"License"); you may not use this file except in compliance
with the License.  You may obtain a copy of the License at

http://www.apache.org/licenses/LICENSE-2.0

Unless required by applicable law or agreed to in writing,
software distributed under the License is distributed on an
"AS IS" BASIS, WITHOUT WARRANTIES OR CONDITIONS OF ANY
KIND, either express or implied.  See the License for the
specific language governing permissions and limitations
under the License.
-->
<svg width="1257" height="653" xmlns="http://www.w3.org/2000/svg" xmlns:xlink="http://www.w3.org/1999/xlink" overflow="hidden"><defs><clipPath id="clip0"><path d="M-11 41 1246 41 1246 694-11 694Z" fill-rule="evenodd" clip-rule="evenodd"/></clipPath><clipPath id="clip1"><path d="M1017 309 1130 309 1130 420 1017 420Z" fill-rule="evenodd" clip-rule="evenodd"/></clipPath><clipPath id="clip2"><path d="M1017 309 1130 309 1130 420 1017 420Z" fill-rule="evenodd" clip-rule="evenodd"/></clipPath><clipPath id="clip3"><path d="M1017 309 1130 309 1130 420 1017 420Z" fill-rule="evenodd" clip-rule="evenodd"/></clipPath></defs><g clip-path="url(#clip0)" transform="translate(11 -41)"><path d="M481 367.5C481 187.731 629.641 42 813 42 996.359 42 1145 187.731 1145 367.5 1145 547.269 996.359 693 813 693 629.641 693 481 547.269 481 367.5Z" fill="#AFCBCC" fill-rule="evenodd"/><path d="M567.5 204C567.5 179.423 587.647 159.5 612.5 159.5 637.353 159.5 657.5 179.423 657.5 204 657.5 228.577 637.353 248.5 612.5 248.5 587.647 248.5 567.5 228.577 567.5 204Z" stroke="#2F528F" stroke-width="1.33333" stroke-miterlimit="8" fill="#5A7978" fill-rule="evenodd"/><text font-family="Verdana,Verdana_MSFontService,sans-serif" font-weight="400" font-size="37" transform="translate(679.824 123)">Source<tspan x="142.667" y="0">Reader</tspan></text><path d="M756.5 332.001C756.5 322.888 763.888 315.5 773 315.5L990 315.5C999.113 315.5 1006.5 322.888 1006.5 332.001L1006.5 398C1006.5 407.113 999.113 414.5 990 414.5L773 414.5C763.888 414.5 756.5 407.113 756.5 398Z" stroke="#2F528F" stroke-width="1.33333" stroke-miterlimit="8" fill="#FFFFFF" fill-rule="evenodd"/><path d="M658.708 202.959 751.744 355.509 748.329 357.592 655.292 205.041ZM754.118 351.719 755.243 365.088 743.873 357.967Z" fill="#5A7978"/><path d="M1.7175-1.02479 94.8368 155.04 91.4018 157.089-1.7175 1.02479ZM97.247 151.273 98.2432 164.652 86.942 157.421Z" fill="#5A7978" transform="matrix(1 0 0 -1 657 529.652)"/><g clip-path="url(#clip1)"><g clip-path="url(#clip2)"><g clip-path="url(#clip3)"><path d="M92.5 39.3125 92.5 15.0313 84.7531 22.7781C77.0062 15.8406 66.7156 11.5625 55.5 11.5625 31.2188 11.5625 11.5625 31.2188 11.5625 55.5 11.5625 79.7813 31.2188 99.4375 55.5 99.4375 67.6406 99.4375 78.625 94.4656 86.6031 86.6031L76.775 76.775C71.3406 82.2094 63.825 85.5625 55.5 85.5625 38.9656 85.5625 25.4375 72.0344 25.4375 55.5 25.4375 38.9656 38.9656 25.4375 55.5 25.4375 62.9 25.4375 69.7219 28.0969 74.925 32.6063L68.2188 39.3125 92.5 39.3125Z" fill="#395726" transform="matrix(1.01802 0 -0 1 1017 309)"/></g></g></g><path d="M1155.5 324.5 1200 324.5 1200 286.5 1244.5 362.5 1200 438.5 1200 400.5 1155.5 400.5Z" stroke="#2F528F" stroke-width="1.33333" stroke-miterlimit="8" fill="#7C7C7C" fill-rule="evenodd"/><path d="M138 146C138 142.686 140.686 140 144 140L502 140C505.314 140 508 142.686 508 146L508 170C508 173.314 505.314 176 502 176L144 176C140.686 176 138 173.314 138 170Z" fill="#CAD8DE" fill-rule="evenodd"/><rect x="282.5" y="151.5" width="35" height="18" stroke="#2F528F" stroke-width="1.33333" stroke-miterlimit="8" fill="#5A7978"/><rect x="336.5" y="151.5" width="35" height="18" stroke="#2F528F" stroke-width="1.33333" stroke-miterlimit="8" fill="#5A7978"/><rect x="392.5" y="151.5" width="34" height="18" stroke="#2F528F" stroke-width="1.33333" stroke-miterlimit="8" fill="#5A7978"/><text font-family="Verdana,Verdana_MSFontService,sans-serif" font-weight="400" font-size="24" transform="translate(231.818 168)">…<tspan font-size="21" x="-182.554" y="-3">Split</tspan><tspan font-size="21" x="-127.054" y="-3">0</tspan><tspan x="458.757" y="35">Split</tspan><tspan x="521.424" y="35">Reader</tspan><tspan x="614.17" y="35">0</tspan><tspan x="458.93" y="373">Split</tspan><tspan x="521.596" y="373">Reader</tspan><tspan x="614.343" y="373">N</tspan>-<tspan x="643.176" y="373">1</tspan></text><path d="M567.5 530C567.5 505.423 587.647 485.5 612.5 485.5 637.353 485.5 657.5 505.423 657.5 530 657.5 554.577 637.353 574.5 612.5 574.5 587.647 574.5 567.5 554.577 567.5 530Z" stroke="#2F528F" stroke-width="1.33333" stroke-miterlimit="8" fill="#5A7978" fill-rule="evenodd"/><path d="M568.5 316C568.5 291.423 588.871 271.5 614 271.5 639.129 271.5 659.5 291.423 659.5 316 659.5 340.577 639.129 360.5 614 360.5 588.871 360.5 568.5 340.577 568.5 316Z" stroke="#2F528F" stroke-width="1.33333" stroke-miterlimit="8" fill="#5A7978" fill-rule="evenodd"/><text font-family="Verdana,Verdana_MSFontService,sans-serif" font-weight="400" font-size="24" transform="translate(594.851 417)">…</text><path d="M659.906 313.217 747.74 357.864 745.927 361.43 658.094 316.783ZM747.77 353.392 755.748 364.178 742.332 364.09Z" fill="#5A7978"/><rect x="879.5" y="348.5" width="40" height="30" stroke="#2F528F" stroke-width="1.33333" stroke-miterlimit="8" fill="#5A7978"/><rect x="933.5" y="348.5" width="40" height="30" stroke="#2F528F" stroke-width="1.33333" stroke-miterlimit="8" fill="#5A7978"/><text font-family="Verdana,Verdana_MSFontService,sans-serif" font-weight="400" font-size="24" transform="translate(826.384 359)">…</text><path d="M138 303.167C138 299.761 140.761 297 144.167 297L501.833 297C505.239 297 508 299.761 508 303.167L508 327.833C508 331.239 505.239 334 501.833 334L144.167 334C140.761 334 138 331.239 138 327.833Z" fill="#CAD8DE" fill-rule="evenodd"/><rect x="282.5" y="308.5" width="35" height="18" stroke="#2F528F" stroke-width="1.33333" stroke-miterlimit="8" fill="#5A7978"/><rect x="336.5" y="308.5" width="35" height="18" stroke="#2F528F" stroke-width="1.33333" stroke-miterlimit="8" fill="#5A7978"/><rect x="392.5" y="308.5" width="34" height="18" stroke="#2F528F" stroke-width="1.33333" stroke-miterlimit="8" fill="#5A7978"/><text font-family="Verdana,Verdana_MSFontService,sans-serif" font-weight="400" font-size="24" transform="translate(231.818 326)">…<tspan font-size="21" x="-182.554" y="-3">Split</tspan><tspan font-size="21" x="-127.054" y="-3">1</tspan></text><path d="M136 500.167C136 496.761 138.761 494 142.167 494L498.833 494C502.239 494 505 496.761 505 500.167L505 524.833C505 528.239 502.239 531 498.833 531L142.167 531C138.761 531 136 528.239 136 524.833Z" fill="#CAD8DE" fill-rule="evenodd"/><rect x="280.5" y="505.5" width="35" height="18" stroke="#2F528F" stroke-width="1.33333" stroke-miterlimit="8" fill="#5A7978"/><rect x="333.5" y="505.5" width="35" height="18" stroke="#2F528F" stroke-width="1.33333" stroke-miterlimit="8" fill="#5A7978"/><rect x="389.5" y="505.5" width="35" height="18" stroke="#2F528F" stroke-width="1.33333" stroke-miterlimit="8" fill="#5A7978"/><text font-family="Verdana,Verdana_MSFontService,sans-serif" font-weight="400" font-size="24" transform="translate(229.588 523)">…<tspan font-size="21" x="-208.279" y="-3">Split</tspan><tspan font-size="21" x="-152.779" y="-3">N</tspan><tspan font-size="21" x="-136.779" y="-3">-</tspan><tspan font-size="21" x="-127.112" y="-3">1</tspan></text><path d="M137 548C137 544.686 139.686 542 143 542L501 542C504.314 542 507 544.686 507 548L507 572C507 575.314 504.314 578 501 578L143 578C139.686 578 137 575.314 137 572Z" fill="#CAD8DE" fill-rule="evenodd"/><rect x="281.5" y="553.5" width="35" height="18" stroke="#2F528F" stroke-width="1.33333" stroke-miterlimit="8" fill="#5A7978"/><rect x="335.5" y="553.5" width="35" height="18" stroke="#2F528F" stroke-width="1.33333" stroke-miterlimit="8" fill="#5A7978"/><rect x="391.5" y="553.5" width="35" height="18" stroke="#2F528F" stroke-width="1.33333" stroke-miterlimit="8" fill="#5A7978"/><text font-family="Verdana,Verdana_MSFontService,sans-serif" font-weight="400" font-size="24" transform="translate(231.02 571)">…<tspan font-size="21" x="-221.786" y="-3">Split</tspan><tspan font-size="21" x="-166.286" y="-3">2N</tspan><tspan font-size="21" x="-136.786" y="-3">-</tspan><tspan font-size="21" x="-127.12" y="-3">1</tspan><tspan x="86.3692" y="-149">…</tspan></text><path d="M137 192C137 188.686 139.686 186 143 186L501 186C504.314 186 507 188.686 507 192L507 216C507 219.314 504.314 222 501 222L143 222C139.686 222 137 219.314 137 216Z" fill="#CAD8DE" fill-rule="evenodd"/><rect x="282.5" y="197.5" width="34" height="18" stroke="#2F528F" stroke-width="1.33333" stroke-miterlimit="8" fill="#5A7978"/><rect x="335.5" y="197.5" width="35" height="18" stroke="#2F528F" stroke-width="1.33333" stroke-miterlimit="8" fill="#5A7978"/><rect x="391.5" y="197.5" width="35" height="18" stroke="#2F528F" stroke-width="1.33333" stroke-miterlimit="8" fill="#5A7978"/><text font-family="Verdana,Verdana_MSFontService,sans-serif" font-weight="400" font-size="24" transform="translate(231.17 214)">…<tspan font-size="21" x="-185.04" y="-3">Split</tspan><tspan font-size="21" x="-129.54" y="-3">N</tspan></text><path d="M137 239C137 235.686 139.686 233 143 233L501 233C504.314 233 507 235.686 507 239L507 263C507 266.314 504.314 269 501 269L143 269C139.686 269 137 266.314 137 263Z" fill="#CAD8DE" fill-rule="evenodd"/><rect x="282.5" y="244.5" width="34" height="18" stroke="#2F528F" stroke-width="1.33333" stroke-miterlimit="8" fill="#5A7978"/><rect x="335.5" y="244.5" width="35" height="18" stroke="#2F528F" stroke-width="1.33333" stroke-miterlimit="8" fill="#5A7978"/><rect x="391.5" y="244.5" width="35" height="18" stroke="#2F528F" stroke-width="1.33333" stroke-miterlimit="8" fill="#5A7978"/><text font-family="Verdana,Verdana_MSFontService,sans-serif" font-weight="400" font-size="24" transform="translate(231.17 262)">…<tspan font-size="21" x="-198.54" y="-3">Split</tspan><tspan font-size="21" x="-143.04" y="-3">2N</tspan></text><path d="M509.228 156.421 560.16 196.028 557.705 199.186 506.772 159.579ZM561.037 191.643 566.826 203.746 553.67 201.116Z" fill="#5A7978"/><path d="M0.00687735-1.99999 49.4814-1.82986 49.4676 2.17012-0.00687735 1.99999ZM47.4951-5.83671 59.4744 0.204514 47.4539 6.16321Z" fill="#5A7978" transform="matrix(1 0 0 -1 507 204.205)"/><path d="M1.25172-1.55987 52.9269 39.9068 50.4235 43.0265-1.25172 1.55987ZM53.8705 35.5353 59.4745 47.7252 46.3601 44.8946Z" fill="#5A7978" transform="matrix(1 0 0 -1 507 251.725)"/><path d="M0.00383247-2 50.3254-1.90357 50.3177 2.09642-0.00383247 2ZM48.3331-5.90739 60.3216 0.115591 48.3101 6.09258Z" fill="#5A7978" transform="matrix(1 0 0 -1 508 315.116)"/><path d="M505.532 510.072 556.948 524.254 555.884 528.11 504.468 513.928ZM556.083 519.866 566.056 528.841 552.893 531.434Z" fill="#5A7978"/><path d="M0.912148-1.77988 51.6372 24.2155 49.8129 27.7753-0.912148 1.77988ZM51.6816 19.7436 59.6245 30.5561 46.2087 30.4229Z" fill="#5A7978" transform="matrix(1 0 0 -1 507 559.556)"/></g></svg>
