<?xml version="1.0" encoding="UTF-8" standalone="no"?>
<!--
Licensed to the Apache Software Foundation (ASF) under one
or more contributor license agreements.  See the NOTICE file
distributed with this work for additional information
regarding copyright ownership.  The ASF licenses this file
to you under the Apache License, Version 2.0 (the
"License"); you may not use this file except in compliance
with the License.  You may obtain a copy of the License at

  http://www.apache.org/licenses/LICENSE-2.0

Unless required by applicable law or agreed to in writing,
software distributed under the License is distributed on an
"AS IS" BASIS, WITHOUT WARRANTIES OR CONDITIONS OF ANY
KIND, either express or implied.  See the License for the
specific language governing permissions and limitations
under the License.
-->

<svg
   xmlns:dc="http://purl.org/dc/elements/1.1/"
   xmlns:cc="http://creativecommons.org/ns#"
   xmlns:rdf="http://www.w3.org/1999/02/22-rdf-syntax-ns#"
   xmlns:svg="http://www.w3.org/2000/svg"
   xmlns="http://www.w3.org/2000/svg"
   version="1.1"
   width="382.12958"
   height="347.69376"
   id="svg2">
  <defs
     id="defs4" />
  <metadata
     id="metadata7">
    <rdf:RDF>
      <cc:Work
         rdf:about="">
        <dc:format>image/svg+xml</dc:format>
        <dc:type
           rdf:resource="http://purl.org/dc/dcmitype/StillImage" />
        <dc:title></dc:title>
      </cc:Work>
    </rdf:RDF>
  </metadata>
  <g
     transform="translate(-274.89951,-401.36804)"
     id="layer1">
    <g
       transform="translate(247.46142,381.88679)"
       id="g2989">
      <text
         x="353.97946"
         y="196.46558"
         id="text2991"
         xml:space="preserve"
         style="font-size:11.2528038px;font-style:italic;font-weight:normal;text-align:start;text-anchor:start;fill:#000000;font-family:Verdana">key/value</text>
      <text
         x="367.48282"
         y="209.96893"
         id="text2993"
         xml:space="preserve"
         style="font-size:11.2528038px;font-style:italic;font-weight:normal;text-align:start;text-anchor:start;fill:#000000;font-family:Verdana">state</text>
      <path
         d="m 27.438086,116.36336 c 0,-21.577246 17.526241,-39.075356 39.150378,-39.075356 21.624137,0 39.150376,17.49811 39.150376,39.075356 0,21.57725 -17.526239,39.07536 -39.150376,39.07536 -21.624137,0 -39.150378,-17.49811 -39.150378,-39.07536"
         id="path2995"
         style="fill:#ffd966;fill-opacity:1;fill-rule:evenodd;stroke:none" />
      <text
         x="45.106564"
         y="113.87054"
         id="text2997"
         xml:space="preserve"
         style="font-size:12.45310211px;font-style:normal;font-weight:normal;text-align:start;text-anchor:start;fill:#000000;font-family:Verdana">Source</text>
      <text
         x="56.959515"
         y="128.87428"
         id="text2999"
         xml:space="preserve"
         style="font-size:12.45310211px;font-style:italic;font-weight:normal;text-align:start;text-anchor:start;fill:#000000;font-family:Verdana">[1]</text>
      <path
         d="m 114.95676,111.20583 107.99878,0 0,-5.15754 10.31507,10.31507 -10.31507,10.31507 0,-5.15753 -107.99878,0 z"
         id="path3001"
         style="fill:#bfbfbf;fill-opacity:1;fill-rule:evenodd;stroke:none" />
      <path
         d="m 240.45365,116.37274 c 0,-21.586626 17.49811,-39.084736 39.08474,-39.084736 21.56787,0 39.06598,17.49811 39.06598,39.084736 0,21.56787 -17.49811,39.06598 -39.06598,39.06598 -21.58663,0 -39.08474,-17.49811 -39.08474,-39.06598"
         id="path3003"
         style="fill:#ffd966;fill-opacity:1;fill-rule:evenodd;stroke:none" />
      <text
         x="255.03751"
         y="113.87054"
         id="text3005"
         xml:space="preserve"
         style="font-size:12.45310211px;font-style:normal;font-weight:normal;text-align:start;text-anchor:start;fill:#000000;font-family:Verdana">S</text>
      <text
         x="263.58963"
         y="113.87054"
         id="text3007"
         xml:space="preserve"
         style="font-size:12.45310211px;font-style:normal;font-weight:normal;text-align:start;text-anchor:start;fill:#000000;font-family:Verdana">tateful</text>
      <text
         x="269.8912"
         y="128.87428"
         id="text3009"
         xml:space="preserve"
         style="font-size:12.45310211px;font-style:italic;font-weight:normal;text-align:start;text-anchor:start;fill:#000000;font-family:Verdana">[1]</text>
      <path
         d="m 27.438086,273.7432 c 0,-21.56788 17.535618,-39.06599 39.159755,-39.06599 21.624137,0 39.140999,17.49811 39.140999,39.06599 0,21.58662 -17.516862,39.08473 -39.140999,39.08473 -21.624137,0 -39.159755,-17.49811 -39.159755,-39.08473"
         id="path3011"
         style="fill:#ffd966;fill-opacity:1;fill-rule:evenodd;stroke:none" />
      <text
         x="47.807236"
         y="271.23022"
         id="text3013"
         xml:space="preserve"
         style="font-size:12.45310211px;font-style:normal;font-weight:normal;text-align:start;text-anchor:start;fill:#000000;font-family:Verdana">Source</text>
      <text
         x="56.959515"
         y="286.23395"
         id="text3015"
         xml:space="preserve"
         style="font-size:12.45310211px;font-style:italic;font-weight:normal;text-align:start;text-anchor:start;fill:#000000;font-family:Verdana">[2]</text>
      <path
         d="m 114.95676,268.58566 107.99878,0 0,-5.15753 10.31507,10.31507 -10.31507,10.31507 0,-5.15754 -107.99878,0 z"
         id="path3017"
         style="fill:#bfbfbf;fill-opacity:1;fill-rule:evenodd;stroke:none" />
      <path
         d="m 240.45365,273.7432 c 0,-21.56788 17.49811,-39.06599 39.08474,-39.06599 21.56787,0 39.06598,17.49811 39.06598,39.06599 0,21.58662 -17.49811,39.08473 -39.06598,39.08473 -21.58663,0 -39.08474,-17.49811 -39.08474,-39.08473"
         id="path3019"
         style="fill:#ffd966;fill-opacity:1;fill-rule:evenodd;stroke:none" />
      <text
         x="255.03751"
         y="271.23022"
         id="text3021"
         xml:space="preserve"
         style="font-size:12.45310211px;font-style:normal;font-weight:normal;text-align:start;text-anchor:start;fill:#000000;font-family:Verdana">Stateful</text>
      <text
         x="269.8912"
         y="286.23395"
         id="text3023"
         xml:space="preserve"
         style="font-size:12.45310211px;font-style:italic;font-weight:normal;text-align:start;text-anchor:start;fill:#000000;font-family:Verdana">[2]</text>
      <path
         d="m 366.01618,180.92632 -34.93995,-104.407257 1.2003,-0.393848 34.93995,104.407265 -1.2003,0.39384 z m -36.30904,-102.625563 0.76894,-5.532629 3.97599,3.938482 -4.74493,1.594147 z"
         id="path3025"
         style="fill:#000000;fill-opacity:1;fill-rule:nonzero;stroke:#000000;stroke-width:0.01875467px;stroke-linecap:butt;stroke-linejoin:round;stroke-opacity:1;stroke-dasharray:none" />
      <path
         d="m 107.19233,139.07527 130.82322,94.5048 3.0195,-4.17292 2.3162,14.39421 -14.39421,2.3162 3.0195,-4.17291 -130.82322,-94.51417 z"
         id="path3027"
         style="fill:#bfbfbf;fill-opacity:1;fill-rule:evenodd;stroke:none" />
      <path
         d="m 107.19233,247.98365 130.82322,-94.51417 3.0195,4.17292 2.3162,-14.39421 -14.39421,-2.31621 3.0195,4.17292 -130.82322,94.51417 z"
         id="path3029"
         style="fill:#bfbfbf;fill-opacity:1;fill-rule:evenodd;stroke:none" />
      <text
         x="290.62192"
         y="329.87106"
         id="text3031"
         xml:space="preserve"
         style="font-size:13.20328903px;font-style:normal;font-weight:bold;text-align:start;text-anchor:start;fill:#000000;font-family:Courier New">D …</text>
      <text
         x="290.62192"
         y="345.62497"
         id="text3033"
         xml:space="preserve"
         style="font-size:13.20328903px;font-style:normal;font-weight:bold;text-align:start;text-anchor:start;fill:#000000;font-family:Courier New">E </text>
      <text
         x="306.2258"
         y="345.62497"
         id="text3035"
         xml:space="preserve"
         style="font-size:13.20328903px;font-style:normal;font-weight:bold;text-align:start;text-anchor:start;fill:#000000;font-family:Courier New">…</text>
      <text
         x="290.62192"
         y="361.37891"
         id="text3037"
         xml:space="preserve"
         style="font-size:13.20328903px;font-style:normal;font-weight:bold;text-align:start;text-anchor:start;fill:#000000;font-family:Courier New">Z </text>
      <text
         x="306.2258"
         y="361.37891"
         id="text3039"
         xml:space="preserve"
         style="font-size:13.20328903px;font-style:normal;font-weight:bold;text-align:start;text-anchor:start;fill:#000000;font-family:Courier New">…</text>
      <path
         d="m 284.69592,317.81668 36.87169,0 0,48.76214 -36.87169,0 z"
         id="path3041"
         style="fill:none;stroke:#000000;stroke-width:0.61890417px;stroke-linecap:butt;stroke-linejoin:miter;stroke-miterlimit:4;stroke-opacity:1;stroke-dasharray:none" />
      <path
         d="m 284.996,334.39581 36.57161,0"
         id="path3043"
         style="fill:none;stroke:#000000;stroke-width:0.61890417px;stroke-linecap:butt;stroke-linejoin:miter;stroke-miterlimit:4;stroke-opacity:1;stroke-dasharray:none" />
      <path
         d="m 284.996,349.86841 36.57161,0"
         id="path3045"
         style="fill:none;stroke:#000000;stroke-width:0.61890417px;stroke-linecap:butt;stroke-linejoin:miter;stroke-miterlimit:4;stroke-opacity:1;stroke-dasharray:none" />
      <text
         x="290.62192"
         y="32.140686"
         id="text3047"
         xml:space="preserve"
         style="font-size:13.20328903px;font-style:normal;font-weight:bold;text-align:start;text-anchor:start;fill:#000000;font-family:Courier New">A …</text>
      <text
         x="290.62192"
         y="47.894608"
         id="text3049"
         xml:space="preserve"
         style="font-size:13.20328903px;font-style:normal;font-weight:bold;text-align:start;text-anchor:start;fill:#000000;font-family:Courier New">B </text>
      <text
         x="306.2258"
         y="47.894608"
         id="text3051"
         xml:space="preserve"
         style="font-size:13.20328903px;font-style:normal;font-weight:bold;text-align:start;text-anchor:start;fill:#000000;font-family:Courier New">…</text>
      <text
         x="290.62192"
         y="63.648533"
         id="text3053"
         xml:space="preserve"
         style="font-size:13.20328903px;font-style:normal;font-weight:bold;text-align:start;text-anchor:start;fill:#000000;font-family:Courier New">Y </text>
      <text
         x="306.2258"
         y="63.648533"
         id="text3055"
         xml:space="preserve"
         style="font-size:13.20328903px;font-style:normal;font-weight:bold;text-align:start;text-anchor:start;fill:#000000;font-family:Courier New">…</text>
      <path
         d="m 284.69592,20.086254 36.87169,0 0,48.762148 -36.87169,0 z"
         id="path3057"
         style="fill:none;stroke:#000000;stroke-width:0.61890417px;stroke-linecap:butt;stroke-linejoin:miter;stroke-miterlimit:4;stroke-opacity:1;stroke-dasharray:none" />
      <path
         d="m 284.996,36.665384 36.57161,0"
         id="path3059"
         style="fill:none;stroke:#000000;stroke-width:0.61890417px;stroke-linecap:butt;stroke-linejoin:miter;stroke-miterlimit:4;stroke-opacity:1;stroke-dasharray:none" />
      <path
         d="m 284.996,52.137989 36.57161,0"
         id="path3061"
         style="fill:none;stroke:#000000;stroke-width:0.61890417px;stroke-linecap:butt;stroke-linejoin:miter;stroke-miterlimit:4;stroke-opacity:1;stroke-dasharray:none" />
      <path
         d="m 366.01618,216.93529 -37.45308,88.76587 1.14404,0.48762 37.45308,-88.76586 -1.14404,-0.48763 z m -38.70964,86.8904 0.35634,5.57014 4.25731,-3.61965 -4.61365,-1.95049 z"
         id="path3063"
         style="fill:#000000;fill-opacity:1;fill-rule:nonzero;stroke:#000000;stroke-width:0.01875467px;stroke-linecap:butt;stroke-linejoin:round;stroke-opacity:1;stroke-dasharray:none" />
      <text
         x="114.804"
         y="104.28868"
         id="text3065"
         xml:space="preserve"
         style="font-size:11.2528038px;font-style:normal;font-weight:normal;text-align:start;text-anchor:start;fill:#000000;font-family:Courier New">Keys(A,B,Y)</text>
      <path
         d="m 94.429775,235.02418 1.247186,1.64103 0.675168,-0.51575 c 0.09377,-0.0657 0.168792,-0.10315 0.234433,-0.0938 0.06564,0 0.112528,0.0281 0.159415,0.0844 0.03751,0.0563 0.05626,0.11253 0.03751,0.17817 -0.0094,0.0656 -0.05626,0.13128 -0.150037,0.19692 l -1.537883,1.17217 c -0.0844,0.0656 -0.168792,0.0938 -0.225056,0.0938 -0.06564,-0.009 -0.121906,-0.0375 -0.159415,-0.0938 -0.04689,-0.0563 -0.05626,-0.11253 -0.04689,-0.17817 0.0094,-0.0563 0.06564,-0.12191 0.150038,-0.18755 l 0.496998,-0.37509 -3.328954,-4.38859 -0.496999,0.37509 c -0.0844,0.0656 -0.159414,0.10315 -0.225056,0.0938 -0.06564,0 -0.121905,-0.0375 -0.159415,-0.0938 -0.04689,-0.0469 -0.05626,-0.11253 -0.04689,-0.16879 0.01875,-0.0656 0.06564,-0.13129 0.150037,-0.19693 l 1.537883,-1.17216 c 0.09377,-0.0657 0.168792,-0.0938 0.234434,-0.0938 0.06564,0.009 0.112528,0.0375 0.159414,0.0938 0.03751,0.0563 0.05626,0.11252 0.04689,0.17817 -0.01875,0.0563 -0.06564,0.1219 -0.159415,0.18754 l -0.675168,0.51576 1.716053,2.26931 0.825205,-4.19167 -0.403225,0.30008 c -0.09377,0.075 -0.168792,0.10315 -0.234434,0.10315 -0.06564,-0.009 -0.112528,-0.0375 -0.159414,-0.0938 -0.03751,-0.0563 -0.05626,-0.11252 -0.04689,-0.17817 0.01875,-0.0563 0.06564,-0.1219 0.159415,-0.19692 l 1.078393,-0.81583 c 0.0844,-0.0656 0.159415,-0.10315 0.225056,-0.0938 0.06564,0 0.121906,0.0375 0.159415,0.0844 0.04689,0.0563 0.05626,0.1219 0.04689,0.17816 -0.01875,0.0657 -0.06564,0.13129 -0.150038,0.19693 l -0.150037,0.11253 -0.647036,3.33833 c 0.393848,-0.10315 0.759564,-0.14066 1.097148,-0.10315 0.337584,0.0281 0.722055,0.15003 1.16279,0.34696 0.253188,0.11253 0.778319,0.40322 1.594147,0.89085 l 0.45949,-0.34697 c 0.09377,-0.0656 0.168792,-0.10315 0.234433,-0.0938 0.05626,0 0.112528,0.0375 0.159415,0.0938 0.03751,0.0469 0.04689,0.10316 0.03751,0.1688 -0.0094,0.0656 -0.06564,0.13128 -0.150037,0.19692 l -0.712678,0.54389 c -1.181544,-0.75957 -2.025505,-1.19093 -2.513126,-1.29408 -0.487621,-0.10315 -0.98462,-0.0656 -1.472242,0.11253 z m 8.711545,-6.30157 -3.741557,2.85071 c 0.42198,0.42198 0.909597,0.65641 1.462867,0.69392 0.55326,0.0375 1.07839,-0.13128 1.57539,-0.50638 0.27194,-0.21568 0.52513,-0.47824 0.75956,-0.79707 0.22506,-0.31883 0.38447,-0.61891 0.45949,-0.9096 0.0188,-0.0938 0.0563,-0.15004 0.0938,-0.17817 0.0469,-0.0375 0.10315,-0.0469 0.16879,-0.0375 0.0563,0.009 0.11253,0.0375 0.15004,0.0844 0.0375,0.0563 0.0469,0.12191 0.0375,0.19693 -0.0281,0.25319 -0.17817,0.58139 -0.43136,0.97524 -0.26257,0.40323 -0.5814,0.74081 -0.95649,1.03151 -0.63766,0.47824 -1.31283,0.66579 -2.05364,0.58139 -0.731429,-0.0938 -1.322201,-0.43135 -1.772313,-1.02213 -0.403226,-0.5345 -0.553263,-1.14403 -0.450112,-1.82858 0.112528,-0.67516 0.450112,-1.23781 1.031507,-1.68792 0.609528,-0.45011 1.247188,-0.62828 1.931728,-0.53451 0.68455,0.0938 1.26594,0.45949 1.73481,1.08778 z m -0.65641,-0.0844 c -0.3751,-0.35634 -0.82521,-0.53451 -1.32221,-0.55326 -0.50637,-0.0188 -0.97524,0.13128 -1.397221,0.45949 -0.431357,0.3282 -0.7033,0.73143 -0.825205,1.21905 -0.121906,0.48762 -0.05626,0.96587 0.178169,1.43473 z m 5.43885,-0.7033 -4.3042,-2.11928 -0.10315,0.0844 c -0.0938,0.0656 -0.16879,0.0938 -0.23443,0.0938 -0.0563,-0.009 -0.11253,-0.0375 -0.15004,-0.0938 -0.0281,-0.0375 -0.0469,-0.075 -0.0563,-0.12191 0,-0.0469 0.009,-0.0844 0.0281,-0.1219 0.0188,-0.0375 0.0656,-0.075 0.13128,-0.12191 l 1.00338,-0.76894 c 0.0844,-0.0656 0.15941,-0.0938 0.22505,-0.0938 0.0656,0.009 0.12191,0.0375 0.15942,0.0938 0.0469,0.0563 0.0563,0.11253 0.0469,0.17817 -0.009,0.0656 -0.0657,0.13128 -0.15004,0.19692 l -0.497,0.3751 3.79782,1.87546 -0.81583,-4.14478 -0.497,0.37509 c -0.0844,0.0657 -0.15941,0.10316 -0.22505,0.0938 -0.0656,-0.009 -0.12191,-0.0375 -0.15942,-0.0938 -0.0375,-0.0469 -0.0563,-0.11252 -0.0469,-0.16879 0.0187,-0.0656 0.0656,-0.13128 0.15003,-0.19692 l 1.00338,-0.75957 c 0.0938,-0.075 0.16879,-0.10315 0.23443,-0.0938 0.0656,0 0.11253,0.0281 0.15942,0.0844 0.0281,0.0375 0.0469,0.0844 0.0469,0.13128 0,0.0563 -0.009,0.0938 -0.0375,0.13128 -0.0187,0.0281 -0.0938,0.0938 -0.22505,0.19693 l 1.26594,6.50787 0.57202,-0.44074 c 0.0938,-0.0656 0.16879,-0.0938 0.22505,-0.0844 0.0656,0 0.12191,0.0281 0.15942,0.0844 0.0469,0.0563 0.0563,0.11253 0.0469,0.17817 -0.009,0.0656 -0.0656,0.13129 -0.15003,0.19693 l -2.11928,1.60352 c -0.0844,0.0656 -0.15942,0.10315 -0.22506,0.0938 -0.0656,0 -0.11253,-0.0375 -0.15941,-0.0938 -0.0375,-0.0469 -0.0563,-0.11253 -0.0469,-0.16879 0.0188,-0.0656 0.0656,-0.13128 0.15004,-0.19693 l 1.15341,-0.87209 z m 3.87284,-8.53338 c -0.0656,-0.0844 -0.0938,-0.15941 -0.0844,-0.22505 0,-0.0656 0.0281,-0.11253 0.0844,-0.15004 0.0563,-0.0469 0.11253,-0.0656 0.17817,-0.0469 0.0656,0.009 0.13128,0.0563 0.19692,0.15004 l 0.47825,0.62828 c 0.0656,0.0844 0.10315,0.16879 0.0938,0.22506 -0.009,0.0656 -0.0375,0.1219 -0.0938,0.15941 -0.0469,0.0375 -0.10315,0.0563 -0.15942,0.0469 -0.0563,0 -0.1219,-0.0375 -0.17817,-0.11253 -0.15003,-0.15941 -0.35633,-0.23443 -0.60014,-0.22505 -0.36572,0.0187 -0.74081,0.17816 -1.13466,0.47824 -0.41261,0.30945 -0.66579,0.63766 -0.76894,0.97524 -0.075,0.26257 -0.0563,0.45949 0.0563,0.61891 0.13128,0.17817 0.34696,0.24381 0.63766,0.2063 0.2063,-0.0281 0.51575,-0.16879 0.94711,-0.42198 0.54389,-0.32821 0.94711,-0.53451 1.2003,-0.61891 0.36572,-0.11252 0.68454,-0.13128 0.95649,-0.0563 0.27194,0.075 0.497,0.22506 0.65641,0.43136 0.23443,0.30945 0.2907,0.7033 0.17817,1.17216 -0.11253,0.47825 -0.45949,0.92836 -1.04088,1.3691 -0.5814,0.44073 -1.17217,0.65641 -1.76294,0.64703 0.075,0.0938 0.1219,0.16879 0.13128,0.2063 0.009,0.0375 0,0.075 -0.009,0.12191 -0.0187,0.0375 -0.0469,0.075 -0.0844,0.10315 -0.0469,0.0469 -0.10315,0.0563 -0.1688,0.0469 -0.0656,-0.009 -0.13128,-0.0563 -0.19692,-0.15004 l -0.57202,-0.75957 c -0.0656,-0.0844 -0.10315,-0.15941 -0.0938,-0.22505 0,-0.0563 0.0281,-0.11253 0.0844,-0.15942 0.0563,-0.0375 0.11252,-0.0469 0.17816,-0.0469 0.0657,0.009 0.12191,0.0469 0.1688,0.11252 0.10315,0.13129 0.21568,0.21568 0.35634,0.25319 0.2063,0.0656 0.45948,0.0563 0.75018,-0.0188 0.2907,-0.075 0.60015,-0.24381 0.92836,-0.48762 0.47824,-0.36572 0.75956,-0.72206 0.86271,-1.0784 0.0938,-0.35634 0.075,-0.62828 -0.0844,-0.8252 -0.16879,-0.23444 -0.42198,-0.31883 -0.76894,-0.28132 -0.33759,0.0469 -0.75957,0.21568 -1.24719,0.51575 -0.497,0.30008 -0.87209,0.48762 -1.12528,0.56264 -0.25319,0.075 -0.497,0.0844 -0.72206,0.009 -0.22505,-0.0656 -0.40322,-0.18755 -0.5345,-0.35634 -0.24381,-0.31883 -0.28132,-0.68455 -0.11253,-1.10653 0.16879,-0.42198 0.46887,-0.78769 0.90022,-1.1159 0.50638,-0.38447 1.01276,-0.58139 1.51913,-0.57202 z m 5.15754,-1.76294 c -0.25319,-0.3282 -0.47825,-0.72205 -0.67517,-1.16279 -0.19693,-0.44073 -0.36572,-1.00337 -0.48762,-1.68792 -0.13129,-0.68454 -0.1688,-1.1159 -0.14066,-1.30345 0.0187,-0.0563 0.0375,-0.10315 0.0844,-0.13128 0.0469,-0.0469 0.10315,-0.0563 0.16879,-0.0563 0.0657,0.009 0.11253,0.0375 0.15004,0.0844 0.0281,0.0375 0.0375,0.075 0.0469,0.12191 0.1219,0.83458 0.30007,1.53788 0.52513,2.12865 0.22506,0.5814 0.52513,1.10653 0.89085,1.58477 0.36571,0.48763 0.79707,0.90961 1.29407,1.2847 0.497,0.37509 1.13466,0.73143 1.9036,1.07839 0.0469,0.0188 0.075,0.0375 0.10315,0.075 0.0375,0.0469 0.0469,0.10315 0.0375,0.16879 -0.009,0.0656 -0.0375,0.11253 -0.0844,0.15004 -0.0469,0.0375 -0.0938,0.0469 -0.15004,0.0469 -0.18754,-0.0188 -0.58139,-0.17817 -1.19092,-0.46887 -0.6189,-0.30007 -1.10652,-0.60015 -1.48162,-0.90022 -0.37509,-0.30008 -0.7033,-0.63766 -0.99399,-1.01276 z m 6.98611,-4.56676 -2.41935,1.83796 0.53451,1.71605 0.7033,-0.53451 c 0.0844,-0.0656 0.15941,-0.0938 0.22505,-0.0938 0.0656,0.009 0.11253,0.0375 0.15942,0.0938 0.0375,0.0563 0.0469,0.11253 0.0375,0.17817 -0.009,0.0563 -0.0563,0.12191 -0.15004,0.18755 l -1.36909,1.05026 c -0.0844,0.0656 -0.16879,0.0938 -0.22506,0.0844 -0.0656,0 -0.1219,-0.0281 -0.15941,-0.0844 -0.0469,-0.0563 -0.0563,-0.11253 -0.0469,-0.17817 0.009,-0.0656 0.0656,-0.1219 0.15004,-0.18754 l 0.28132,-0.22506 -1.70668,-5.61702 -1.07839,0.8252 c -0.0938,0.0656 -0.16879,0.10315 -0.22506,0.0938 -0.0656,0 -0.1219,-0.0281 -0.15941,-0.0844 -0.0469,-0.0563 -0.0563,-0.12191 -0.0469,-0.17817 0.009,-0.0656 0.0656,-0.13128 0.15004,-0.19693 l 1.84734,-1.4066 5.41072,3.3946 0.28132,-0.21568 c 0.0844,-0.075 0.15941,-0.10315 0.22505,-0.0938 0.0657,0 0.11253,0.0281 0.15942,0.0844 0.0375,0.0563 0.0563,0.11253 0.0375,0.17817 -0.009,0.0656 -0.0563,0.13129 -0.14066,0.19693 l -1.36909,1.04088 c -0.0938,0.0656 -0.16879,0.0938 -0.23444,0.0938 -0.0656,-0.009 -0.1219,-0.0375 -0.15941,-0.0938 -0.0375,-0.0563 -0.0563,-0.11253 -0.0469,-0.17817 0.0188,-0.0563 0.0656,-0.1219 0.15942,-0.18754 l 0.69392,-0.53451 z m -0.42198,-0.26256 -3.04763,-1.89423 -0.13129,0.10315 1.05027,3.41336 z m 4.15416,-1.95987 1.2003,-0.90022 0.53451,3.39459 c 0.0281,0.20631 -0.009,0.35634 -0.12191,0.44074 -0.075,0.0563 -0.15003,0.075 -0.24381,0.0656 -0.0938,-0.0188 -0.15941,-0.0563 -0.21568,-0.13128 -0.0281,-0.0281 -0.0469,-0.0656 -0.0656,-0.10315 z m 5.13878,-2.4006 -3.32895,-4.37921 -0.48762,0.37509 c -0.0938,0.0656 -0.1688,0.0938 -0.23444,0.0938 -0.0563,-0.009 -0.11253,-0.0375 -0.15003,-0.0938 -0.0469,-0.0563 -0.0657,-0.11253 -0.0469,-0.17817 0.009,-0.0563 0.0563,-0.1219 0.15004,-0.18754 l 2.30682,-1.76294 c 0.45949,-0.34696 0.92836,-0.497 1.41598,-0.45012 0.48762,0.0469 0.87209,0.24382 1.14403,0.60015 0.33759,0.45012 0.3751,0.994 0.10315,1.64104 0.48763,-0.15004 0.90023,-0.18755 1.25657,-0.0938 0.34696,0.0938 0.62828,0.28132 0.83458,0.55327 0.18755,0.24381 0.30007,0.51575 0.33758,0.80645 0.0375,0.2907 -0.009,0.60015 -0.14066,0.91898 -0.13128,0.3282 -0.33758,0.60015 -0.62828,0.81583 l -2.74756,2.08176 c -0.0844,0.075 -0.15941,0.10316 -0.22505,0.0938 -0.0656,-0.009 -0.11253,-0.0375 -0.15942,-0.0844 -0.0375,-0.0563 -0.0563,-0.11253 -0.0375,-0.17817 0.009,-0.0656 0.0563,-0.13128 0.15004,-0.19692 z m -1.50975,-2.75693 1.30345,-0.98462 c 0.27194,-0.2063 0.48762,-0.45011 0.63766,-0.73143 0.1219,-0.21568 0.16879,-0.44074 0.15004,-0.6658 -0.0188,-0.23443 -0.0844,-0.43135 -0.2063,-0.59077 -0.17817,-0.22505 -0.45012,-0.35634 -0.81583,-0.38447 -0.35634,-0.0375 -0.71268,0.0844 -1.05964,0.34696 l -1.46287,1.10653 z m 1.88485,2.47561 1.85671,-1.4066 c 0.23443,-0.17817 0.40322,-0.39384 0.497,-0.62828 0.0938,-0.23443 0.13128,-0.46886 0.10315,-0.69392 -0.0281,-0.22506 -0.10315,-0.4126 -0.23444,-0.58139 -0.14066,-0.18755 -0.33758,-0.31883 -0.60015,-0.39385 -0.26256,-0.075 -0.54388,-0.075 -0.84396,0.009 -0.30007,0.0844 -0.65641,0.28132 -1.05964,0.59078 l -1.3222,1.00337 z m 5.12002,-5.39196 1.19092,-0.90961 0.54389,3.40398 c 0.0281,0.2063 -0.009,0.34696 -0.12191,0.43136 -0.075,0.0563 -0.15941,0.0844 -0.24381,0.0656 -0.0938,-0.009 -0.15941,-0.0563 -0.21568,-0.12191 -0.0281,-0.0375 -0.0469,-0.0656 -0.0656,-0.11253 z m 5.55138,-5.77644 1.47225,1.94111 0.95648,-0.72206 c 0.0844,-0.0656 0.15942,-0.0938 0.22506,-0.0938 0.0656,0.009 0.11253,0.0375 0.15941,0.0938 0.0375,0.0469 0.0563,0.11253 0.0375,0.16879 -0.009,0.0656 -0.0563,0.13129 -0.14066,0.19693 l -2.28807,1.7348 c -0.0844,0.0657 -0.15941,0.0938 -0.22505,0.0844 -0.0656,0 -0.11253,-0.0281 -0.15942,-0.0844 -0.0375,-0.0563 -0.0563,-0.11252 -0.0469,-0.17816 0.0187,-0.0563 0.0656,-0.12191 0.15941,-0.18755 l 0.94711,-0.73143 -1.47224,-1.94111 -3.46961,-1.20968 -0.21568,0.15942 c -0.0938,0.0656 -0.1688,0.10315 -0.22506,0.0938 -0.0656,0 -0.1219,-0.0281 -0.15941,-0.0844 -0.0469,-0.0563 -0.0563,-0.1219 -0.0469,-0.17817 0.009,-0.0656 0.0656,-0.13128 0.15004,-0.19692 l 1.01275,-0.76894 c 0.0844,-0.0656 0.15941,-0.0938 0.22506,-0.0938 0.0656,0.009 0.11252,0.0375 0.15941,0.0938 0.0375,0.0563 0.0563,0.11253 0.0469,0.17817 -0.0188,0.0656 -0.0656,0.1219 -0.15004,0.19692 l -0.36572,0.27194 2.94449,1.02213 -0.22506,-3.08514 -0.36572,0.27194 c -0.0844,0.0656 -0.16879,0.10315 -0.22505,0.0938 -0.0656,0 -0.12191,-0.0375 -0.15942,-0.0844 -0.0469,-0.0563 -0.0563,-0.1219 -0.0469,-0.17817 0.009,-0.0656 0.0656,-0.13128 0.15941,-0.19692 l 1.00338,-0.76894 c 0.0844,-0.0657 0.15941,-0.0938 0.22505,-0.0938 0.0656,0.009 0.11253,0.0375 0.15942,0.0938 0.0375,0.0563 0.0563,0.11252 0.0469,0.17816 -0.0187,0.0563 -0.0656,0.12191 -0.15003,0.18755 l -0.22506,0.16879 z m 5.39197,-3.88222 c 0.25319,0.33758 0.47825,0.72206 0.67517,1.16279 0.19692,0.44073 0.35634,1.00337 0.48762,1.68792 0.13128,0.68455 0.16879,1.1159 0.13128,1.30345 -0.009,0.0656 -0.0281,0.11253 -0.075,0.14066 -0.0469,0.0375 -0.10316,0.0563 -0.1688,0.0469 -0.0656,-0.009 -0.1219,-0.0375 -0.15941,-0.0844 -0.0188,-0.0375 -0.0281,-0.075 -0.0375,-0.1219 -0.12191,-0.83459 -0.30008,-1.53789 -0.52513,-2.11928 -0.22506,-0.5814 -0.52513,-1.11591 -0.89085,-1.59415 -0.36571,-0.47824 -0.79707,-0.9096 -1.29407,-1.28469 -0.497,-0.3751 -1.13466,-0.73144 -1.9036,-1.0784 -0.0469,-0.0187 -0.0844,-0.0469 -0.10315,-0.075 -0.0375,-0.0469 -0.0563,-0.10315 -0.0469,-0.16879 0.009,-0.0563 0.0469,-0.11253 0.0938,-0.15004 0.0469,-0.0281 0.0938,-0.0469 0.15003,-0.0375 0.18755,0.0188 0.5814,0.1688 1.19093,0.46887 0.6189,0.2907 1.10652,0.59077 1.48161,0.89085 0.3751,0.30007 0.7033,0.63766 0.994,1.01275 z"
         id="path3067"
         style="fill:#000000;fill-opacity:1;fill-rule:nonzero;stroke:none" />
      <path
         d="m 114.51603,133.51451 -1.23781,1.63166 0.67517,0.51575 c 0.0938,0.075 0.14066,0.14066 0.15941,0.19693 0.009,0.0656 -0.009,0.1219 -0.0469,0.17817 -0.0375,0.0563 -0.0938,0.0844 -0.15942,0.0844 -0.0656,0.009 -0.14066,-0.0188 -0.23443,-0.0844 l -1.53788,-1.17217 c -0.0938,-0.0656 -0.14066,-0.13128 -0.15004,-0.19693 -0.009,-0.0563 0,-0.1219 0.0375,-0.16879 0.0469,-0.0563 0.10315,-0.0844 0.15941,-0.0938 0.0656,0 0.14066,0.0281 0.23444,0.0938 l 0.48762,0.3751 3.31957,-4.3886 -0.48762,-0.37509 c -0.0938,-0.0656 -0.14066,-0.13128 -0.15003,-0.19693 -0.0188,-0.0656 0,-0.1219 0.0375,-0.17816 0.0469,-0.0563 0.0938,-0.0844 0.15942,-0.0844 0.0656,-0.009 0.14066,0.0188 0.22506,0.0844 l 1.54726,1.17216 c 0.0938,0.0656 0.14066,0.13129 0.15003,0.19693 0.0188,0.0563 0,0.1219 -0.0375,0.17817 -0.0469,0.0469 -0.0938,0.0844 -0.15941,0.0844 -0.0656,0.009 -0.14066,-0.0281 -0.23443,-0.0938 l -0.67517,-0.51576 -1.71606,2.26932 4.25732,-0.34696 -0.40323,-0.30008 c -0.0938,-0.075 -0.14066,-0.14066 -0.15941,-0.19692 -0.009,-0.0656 0.009,-0.12191 0.0469,-0.17817 0.0375,-0.0563 0.0938,-0.0844 0.15942,-0.0938 0.0656,0 0.14066,0.0281 0.22505,0.0938 l 1.08777,0.82521 c 0.0844,0.0656 0.14066,0.13128 0.15004,0.18754 0.009,0.0656 0,0.12191 -0.0469,0.17817 -0.0375,0.0563 -0.0938,0.0844 -0.15941,0.0938 -0.0563,0 -0.13128,-0.0281 -0.22506,-0.0938 l -0.15003,-0.11253 -3.3946,0.28132 c 0.21568,0.34697 0.34696,0.69393 0.40323,1.02213 0.0656,0.33759 0.0563,0.74081 -0.0188,1.21906 -0.0375,0.27194 -0.17817,0.86271 -0.43136,1.77231 l 0.45949,0.34697 c 0.0938,0.075 0.14066,0.14066 0.15942,0.19692 0.009,0.0656 -0.009,0.12191 -0.0469,0.17817 -0.0375,0.0563 -0.0938,0.0844 -0.15941,0.0938 -0.0656,0 -0.14066,-0.0281 -0.23444,-0.0938 l -0.7033,-0.54389 c 0.41261,-1.34096 0.60015,-2.26931 0.56264,-2.76631 -0.0281,-0.50638 -0.19692,-0.96587 -0.50637,-1.38785 z m 8.42085,6.67667 -3.75094,-2.84134 c -0.30007,0.52513 -0.38447,1.05964 -0.27194,1.60353 0.11253,0.54388 0.4126,1.00337 0.9096,1.37847 0.27194,0.2063 0.60015,0.38447 0.96587,0.51575 0.37509,0.14066 0.7033,0.2063 1.01275,0.19692 0.0844,0 0.15004,0.0188 0.18755,0.0469 0.0469,0.0375 0.075,0.0844 0.0844,0.15004 0.009,0.0563 -0.009,0.11252 -0.0469,0.16879 -0.0375,0.0469 -0.0938,0.075 -0.17817,0.0938 -0.25319,0.0375 -0.60015,-0.0187 -1.05964,-0.15941 -0.45012,-0.14066 -0.86272,-0.35634 -1.24719,-0.64704 -0.62828,-0.47824 -0.994,-1.07839 -1.10652,-1.80982 -0.11253,-0.73144 0.0563,-1.39723 0.50637,-1.97862 0.40323,-0.53451 0.94711,-0.84396 1.63166,-0.92836 0.68454,-0.0844 1.3222,0.0938 1.9036,0.53451 0.60015,0.45949 0.94711,1.03151 1.04088,1.71605 0.0938,0.68455 -0.10315,1.34096 -0.58139,1.95987 z m -0.0938,-0.65642 c 0.23444,-0.45949 0.2907,-0.93773 0.17817,-1.42535 -0.1219,-0.48762 -0.39385,-0.89085 -0.8252,-1.21906 -0.43136,-0.3282 -0.89085,-0.47824 -1.39723,-0.45949 -0.49699,0.0188 -0.93773,0.19693 -1.33158,0.55327 z m 2.13804,5.05439 0.88147,-4.7168 -0.11253,-0.0844 c -0.0844,-0.0656 -0.13129,-0.13128 -0.14066,-0.19692 -0.0188,-0.0656 0,-0.12191 0.0375,-0.1688 0.0281,-0.0375 0.0656,-0.0656 0.10315,-0.0844 0.0469,-0.0188 0.0844,-0.0188 0.13128,-0.009 0.0375,0.009 0.0938,0.0375 0.15004,0.0844 l 1.01275,0.76894 c 0.0844,0.0656 0.14066,0.13128 0.15004,0.18754 0.009,0.0657 -0.009,0.13129 -0.0469,0.17817 -0.0375,0.0563 -0.0938,0.0844 -0.15941,0.0938 -0.0656,0.009 -0.14066,-0.0281 -0.22506,-0.0938 l -0.497,-0.37509 -0.77832,4.16354 3.76031,-1.9036 -0.48762,-0.37509 c -0.0938,-0.0656 -0.14066,-0.13129 -0.15003,-0.19693 -0.0188,-0.0563 0,-0.1219 0.0469,-0.17817 0.0375,-0.0469 0.0844,-0.075 0.15004,-0.0844 0.0656,-0.009 0.14066,0.0188 0.23443,0.0844 l 1.00338,0.75957 c 0.0844,0.075 0.14066,0.14066 0.15003,0.2063 0.009,0.0563 -0.009,0.1219 -0.0469,0.17817 -0.0281,0.0375 -0.0656,0.0563 -0.11253,0.075 -0.0469,0.0188 -0.0938,0.0188 -0.13128,0 -0.0375,-0.009 -0.12191,-0.0657 -0.25319,-0.1688 l -5.92648,2.982 0.5814,0.44073 c 0.0844,0.0656 0.13128,0.13128 0.15004,0.18755 0.009,0.0656 -0.009,0.1219 -0.0469,0.17817 -0.0375,0.0563 -0.0938,0.0844 -0.15942,0.0844 -0.0656,0.009 -0.14066,-0.0187 -0.22505,-0.0844 l -2.11928,-1.60353 c -0.0938,-0.0656 -0.14066,-0.13128 -0.15004,-0.19692 -0.0187,-0.0563 0,-0.12191 0.0375,-0.17817 0.0469,-0.0563 0.10315,-0.0844 0.15942,-0.0844 0.0656,-0.009 0.14066,0.0188 0.22505,0.0938 l 1.15341,0.86271 z m 9.2648,1.41597 c 0.0657,-0.0844 0.13129,-0.13128 0.19693,-0.14066 0.0656,-0.009 0.1219,0 0.16879,0.0375 0.0563,0.0469 0.0938,0.0938 0.0938,0.15942 0.009,0.0656 -0.0188,0.14066 -0.0938,0.23443 l -0.47824,0.62828 c -0.0657,0.0938 -0.13129,0.14066 -0.18755,0.15004 -0.0656,0.0188 -0.13128,0 -0.17817,-0.0469 -0.0563,-0.0375 -0.0844,-0.0844 -0.0938,-0.14066 -0.009,-0.0563 0.009,-0.1219 0.0563,-0.19692 0.12191,-0.19692 0.14066,-0.40323 0.0656,-0.64704 -0.1219,-0.33758 -0.37509,-0.66579 -0.76894,-0.95649 -0.4126,-0.31882 -0.79707,-0.47824 -1.15341,-0.47824 -0.26257,-0.009 -0.45949,0.0656 -0.57202,0.22506 -0.13128,0.16879 -0.14066,0.39384 -0.0281,0.66579 0.0844,0.18754 0.30007,0.45011 0.65641,0.79707 0.46887,0.44074 0.77832,0.76894 0.91898,0.994 0.2063,0.30945 0.31883,0.6189 0.31883,0.90022 0,0.2907 -0.075,0.53451 -0.23443,0.74081 -0.24381,0.31883 -0.60015,0.47825 -1.08777,0.497 -0.48763,0.0188 -1.02213,-0.19692 -1.60353,-0.63766 -0.58139,-0.44073 -0.93773,-0.94711 -1.08777,-1.51913 -0.075,0.10315 -0.13128,0.15942 -0.16879,0.17817 -0.0281,0.0188 -0.0656,0.0281 -0.11253,0.0281 -0.0469,0 -0.0938,-0.0188 -0.13128,-0.0469 -0.0469,-0.0375 -0.0844,-0.0938 -0.0844,-0.15942 -0.009,-0.0656 0.0188,-0.14066 0.0844,-0.22505 l 0.57202,-0.75957 c 0.075,-0.0844 0.13128,-0.14066 0.19692,-0.15003 0.0656,-0.009 0.1219,0 0.17817,0.0469 0.0469,0.0375 0.0844,0.0844 0.0938,0.15004 0.009,0.0656 -0.009,0.13128 -0.0563,0.18755 -0.10315,0.14066 -0.15942,0.27194 -0.15942,0.42198 0,0.21568 0.075,0.45011 0.22506,0.71267 0.15941,0.26257 0.39385,0.51576 0.72205,0.75957 0.47825,0.36572 0.90023,0.54388 1.26594,0.54388 0.3751,0 0.62829,-0.10315 0.77832,-0.30007 0.17817,-0.23443 0.19693,-0.50638 0.0656,-0.81583 -0.14066,-0.31883 -0.42198,-0.67517 -0.84396,-1.06901 -0.42198,-0.39385 -0.7033,-0.70331 -0.84396,-0.92836 -0.14066,-0.22506 -0.2063,-0.45949 -0.2063,-0.69392 0.009,-0.23444 0.075,-0.44074 0.2063,-0.61891 0.24382,-0.30945 0.5814,-0.45011 1.03151,-0.39385 0.45011,0.0469 0.89085,0.23444 1.32221,0.55327 0.50637,0.38447 0.8252,0.8252 0.95648,1.31282 z m 3.09452,4.49175 c 0.25319,-0.33759 0.56265,-0.65642 0.93774,-0.96587 0.37509,-0.30945 0.87209,-0.6189 1.491,-0.92835 0.6189,-0.30008 1.0315,-0.45949 1.21905,-0.47825 0.0563,-0.009 0.11253,0.009 0.15004,0.0375 0.0563,0.0375 0.0844,0.0938 0.0938,0.15004 0.009,0.0656 0,0.1219 -0.0375,0.16879 -0.0281,0.0281 -0.0563,0.0563 -0.10315,0.075 -0.76894,0.34696 -1.4066,0.71268 -1.9036,1.08777 -0.497,0.37509 -0.92836,0.79707 -1.29407,1.27532 -0.36572,0.48762 -0.65642,1.01275 -0.88147,1.60352 -0.22506,0.5814 -0.40323,1.2847 -0.52513,2.11928 0,0.0469 -0.0188,0.0844 -0.0375,0.11253 -0.0375,0.0563 -0.0938,0.0844 -0.15942,0.0938 -0.0563,0.009 -0.1219,-0.009 -0.16879,-0.0469 -0.0469,-0.0281 -0.0656,-0.075 -0.0844,-0.14066 -0.0281,-0.17816 0.0187,-0.60014 0.13128,-1.26594 0.1219,-0.66579 0.27194,-1.22843 0.45949,-1.66916 0.18754,-0.44074 0.42198,-0.84396 0.71267,-1.22843 z m 2.6069,4.82933 3.31958,-4.3886 -0.30945,-0.23443 c -0.0844,-0.0656 -0.14066,-0.13128 -0.15004,-0.19693 -0.009,-0.0656 0,-0.1219 0.0469,-0.17816 0.0375,-0.0563 0.0938,-0.0844 0.15941,-0.0844 0.0563,-0.009 0.13129,0.0187 0.22506,0.0844 l 1.97862,1.50037 c 0.30945,0.23443 0.54388,0.51575 0.7033,0.83458 0.15941,0.31883 0.24381,0.61891 0.25319,0.88147 0.0187,0.45011 -0.0281,0.88147 -0.14066,1.27532 -0.0844,0.2907 -0.24382,0.59077 -0.47825,0.90022 l -0.38447,0.50638 c -0.28132,0.37509 -0.64704,0.67517 -1.07839,0.9096 -0.43136,0.22506 -0.94711,0.31883 -1.52851,0.2907 -0.44073,-0.0281 -0.84396,-0.17817 -1.22843,-0.46887 l -1.97862,-1.50037 c -0.0844,-0.0656 -0.13128,-0.13128 -0.15004,-0.19693 -0.009,-0.0563 0.009,-0.1219 0.0469,-0.16879 0.0375,-0.0563 0.0938,-0.0844 0.15942,-0.0938 0.0656,0 0.14066,0.0281 0.22505,0.0938 z m 0.36572,0.28132 1.34096,1.01275 c 0.30945,0.23443 0.67517,0.34696 1.09715,0.34696 0.42198,0.009 0.80645,-0.0844 1.16279,-0.26257 0.34696,-0.17817 0.6189,-0.40322 0.83458,-0.67516 l 0.497,-0.6658 c 0.17817,-0.23443 0.2907,-0.45948 0.35634,-0.69392 0.0938,-0.33758 0.13128,-0.7033 0.11253,-1.07839 -0.009,-0.2063 -0.075,-0.44074 -0.19693,-0.7033 -0.1219,-0.26257 -0.30945,-0.48762 -0.54388,-0.66579 l -1.33159,-1.01275 z m 6.46099,3.37584 1.19092,0.9096 -3.13203,1.43473 c -0.18755,0.0844 -0.33759,0.0844 -0.45012,0 -0.075,-0.0563 -0.11252,-0.13128 -0.1219,-0.21568 -0.0188,-0.0938 0.009,-0.16879 0.0563,-0.24381 0.0281,-0.0281 0.0563,-0.0563 0.0938,-0.0938 z m 5.66391,2.47561 -1.59415,2.1099 2.83195,2.13804 0.82521,-1.08777 c 0.0656,-0.0844 0.12191,-0.13129 0.18755,-0.15004 0.0656,-0.009 0.1219,0 0.17817,0.0469 0.0563,0.0375 0.0844,0.0938 0.0938,0.15941 0,0.0656 -0.0281,0.14066 -0.0938,0.22506 l -1.10653,1.45348 -4.06039,-3.07576 c -0.0844,-0.0656 -0.13128,-0.13129 -0.15003,-0.18755 -0.009,-0.0656 0.009,-0.12191 0.0469,-0.17817 0.0375,-0.0563 0.0938,-0.0844 0.15942,-0.0938 0.0656,0 0.14066,0.0281 0.22505,0.0938 l 0.497,0.37509 3.31958,-4.38859 -0.497,-0.37509 c -0.0844,-0.0656 -0.14066,-0.13129 -0.15004,-0.19693 -0.009,-0.0563 0,-0.1219 0.0469,-0.16879 0.0375,-0.0563 0.0938,-0.0938 0.15942,-0.0938 0.0563,-0.009 0.13128,0.0281 0.22505,0.0938 l 3.86346,2.92573 -0.95648,1.26594 c -0.0657,0.0844 -0.13129,0.14066 -0.18755,0.15004 -0.0656,0.009 -0.12191,0 -0.17817,-0.0469 -0.0563,-0.0375 -0.0844,-0.0938 -0.0938,-0.15941 0,-0.0563 0.0281,-0.13129 0.0938,-0.22506 l 0.68454,-0.90022 -2.6444,-1.988 -1.44411,1.91298 1.31282,0.99399 0.31883,-0.4126 c 0.0656,-0.0938 0.13129,-0.14066 0.19693,-0.15004 0.0656,-0.009 0.1219,0 0.17817,0.0469 0.0469,0.0375 0.0844,0.0938 0.0844,0.15942 0.009,0.0563 -0.0188,0.13128 -0.0844,0.22505 l -0.90961,1.2003 c -0.0656,0.0844 -0.13128,0.14066 -0.19692,0.15004 -0.0656,0.009 -0.1219,-0.009 -0.17817,-0.0469 -0.0469,-0.0375 -0.0844,-0.0938 -0.0844,-0.15941 -0.009,-0.0656 0.0188,-0.14066 0.0844,-0.22506 l 0.31883,-0.42198 z m 4.97936,5.57952 1.2003,0.9096 -3.13203,1.43473 c -0.18755,0.0844 -0.33758,0.0844 -0.45011,0 -0.075,-0.0563 -0.11253,-0.13128 -0.13128,-0.21568 -0.009,-0.0938 0.009,-0.16879 0.0656,-0.24381 0.0187,-0.0281 0.0563,-0.0563 0.0844,-0.0844 z m 6.90172,7.29557 -3.54463,-2.67254 0.40322,-0.53451 6.16091,-1.94111 0.0281,-0.0281 -2.45687,-1.85672 -0.81583,1.08777 c -0.0656,0.0938 -0.13128,0.14066 -0.19692,0.15004 -0.0656,0.009 -0.1219,0 -0.17817,-0.0469 -0.0563,-0.0375 -0.0844,-0.0844 -0.0938,-0.15004 0,-0.0656 0.0281,-0.14066 0.0938,-0.23444 l 1.09715,-1.45348 3.17892,2.4006 -0.39385,0.52513 -6.16091,1.94111 -0.0281,0.0375 2.8132,2.13804 0.97524,-1.2847 c 0.0656,-0.0938 0.13128,-0.15004 0.19692,-0.15941 0.0657,-0.009 0.12191,0 0.17817,0.0469 0.0563,0.0375 0.0844,0.0938 0.0844,0.15942 0.009,0.0563 -0.0188,0.14066 -0.0938,0.22505 z m 5.35446,0.62828 c -0.25319,0.33758 -0.56264,0.65641 -0.93773,0.96586 -0.3751,0.30946 -0.8721,0.61891 -1.491,0.92836 -0.62828,0.30945 -1.03151,0.46887 -1.21905,0.47824 -0.0657,0.009 -0.11253,0 -0.15004,-0.0281 -0.0563,-0.0469 -0.0844,-0.0938 -0.0938,-0.15941 -0.009,-0.0656 0,-0.12191 0.0375,-0.1688 0.0281,-0.0281 0.0563,-0.0563 0.10316,-0.075 0.76894,-0.34697 1.39722,-0.7033 1.90359,-1.0784 0.497,-0.37509 0.92836,-0.80645 1.29408,-1.28469 0.36571,-0.47825 0.65641,-1.01275 0.88147,-1.59415 0.22505,-0.58139 0.40322,-1.29407 0.52513,-2.12866 0.009,-0.0469 0.0188,-0.0844 0.0375,-0.11252 0.0375,-0.0563 0.0938,-0.0844 0.15941,-0.0844 0.0563,-0.009 0.11253,0 0.16879,0.0469 0.0375,0.0281 0.0656,0.075 0.075,0.13128 0.0375,0.17817 -0.009,0.60953 -0.1219,1.27532 -0.12191,0.66579 -0.28132,1.21905 -0.45949,1.65979 -0.18755,0.44073 -0.43136,0.85333 -0.71268,1.22843 z"
         id="path3069"
         style="fill:#000000;fill-opacity:1;fill-rule:nonzero;stroke:none" />
      <text
         x="114.804"
         y="265.14883"
         id="text3071"
         xml:space="preserve"
         style="font-size:11.2528038px;font-style:normal;font-weight:normal;text-align:start;text-anchor:start;fill:#000000;font-family:Courier New">Keys(D,E,Z)</text>
      <path
         d="m 260.93376,314.23453 c 0,3.35709 -2.1943,6.09527 -4.91373,6.09527 l -77.30676,0 c -2.70067,0 -4.91372,2.71943 -4.91372,6.09527 0,-3.37584 -2.1943,-6.09527 -4.91373,-6.09527 l -77.288001,0 c -2.719427,0 -4.932478,-2.73818 -4.932478,-6.09527"
         id="path3073"
         style="fill:none;stroke:#000000;stroke-width:1.25656307px;stroke-linecap:butt;stroke-linejoin:miter;stroke-miterlimit:4;stroke-opacity:1;stroke-dasharray:none" />
      <text
         x="137.67361"
         y="346.35568"
         id="text3075"
         xml:space="preserve"
         style="font-size:11.2528038px;font-style:italic;font-weight:normal;text-align:start;text-anchor:start;fill:#000000;font-family:Verdana">Redistribution</text>
      <text
         x="149.67661"
         y="359.85904"
         id="text3077"
         xml:space="preserve"
         style="font-size:11.2528038px;font-style:italic;font-weight:normal;text-align:start;text-anchor:start;fill:#000000;font-family:Verdana">[</text>
      <text
         x="154.77788"
         y="359.85904"
         id="text3079"
         xml:space="preserve"
         style="font-size:11.2528038px;font-style:italic;font-weight:normal;text-align:start;text-anchor:start;fill:#000000;font-family:Verdana">keyBy</text>
      <text
         x="188.9864"
         y="359.85904"
         id="text3081"
         xml:space="preserve"
         style="font-size:11.2528038px;font-style:italic;font-weight:normal;text-align:start;text-anchor:start;fill:#000000;font-family:Verdana">()]</text>
    </g>
  </g>
</svg>
