<?xml version="1.0" encoding="UTF-8" standalone="no"?>
<!--
Licensed to the Apache Software Foundation (ASF) under one
or more contributor license agreements.  See the NOTICE file
distributed with this work for additional information
regarding copyright ownership.  The ASF licenses this file
to you under the Apache License, Version 2.0 (the
"License"); you may not use this file except in compliance
with the License.  You may obtain a copy of the License at

http://www.apache.org/licenses/LICENSE-2.0

Unless required by applicable law or agreed to in writing,
software distributed under the License is distributed on an
"AS IS" BASIS, WITHOUT WARRANTIES OR CONDITIONS OF ANY
KIND, either express or implied.  See the License for the
specific language governing permissions and limitations
under the License.
-->

<!-- Created with Inkscape (http://www.inkscape.org/) -->

<svg
   width="664.92505"
   height="445.67966"
   id="svg2"
   version="1.1"
   inkscape:version="1.2.2 (b0a8486, 2022-12-01)"
   sodipodi:docname="state_machine.svg"
   inkscape:export-filename="state_machine.svg"
   inkscape:export-xdpi="96"
   inkscape:export-ydpi="96"
   xmlns:inkscape="http://www.inkscape.org/namespaces/inkscape"
   xmlns:sodipodi="http://sodipodi.sourceforge.net/DTD/sodipodi-0.dtd"
   xmlns="http://www.w3.org/2000/svg"
   xmlns:svg="http://www.w3.org/2000/svg"
   xmlns:rdf="http://www.w3.org/1999/02/22-rdf-syntax-ns#"
   xmlns:cc="http://creativecommons.org/ns#"
   xmlns:dc="http://purl.org/dc/elements/1.1/">
  <defs
     id="defs4" />
  <sodipodi:namedview
     id="base"
     pagecolor="#ffffff"
     bordercolor="#666666"
     borderopacity="1.0"
     inkscape:pageopacity="0.0"
     inkscape:pageshadow="2"
     inkscape:zoom="1.7115568"
     inkscape:cx="96.695593"
     inkscape:cy="230.49191"
     inkscape:document-units="px"
     inkscape:current-layer="g2989"
     showgrid="false"
     fit-margin-top="0"
     fit-margin-left="0"
     fit-margin-right="0"
     fit-margin-bottom="0"
     inkscape:window-width="2560"
     inkscape:window-height="1387"
     inkscape:window-x="0"
     inkscape:window-y="25"
     inkscape:window-maximized="0"
     inkscape:showpageshadow="2"
     inkscape:pagecheckerboard="0"
     inkscape:deskcolor="#d1d1d1" />
  <metadata
     id="metadata7">
    <rdf:RDF>
      <cc:Work
         rdf:about="">
        <dc:format>image/svg+xml</dc:format>
        <dc:type
           rdf:resource="http://purl.org/dc/dcmitype/StillImage" />
        <dc:title />
      </cc:Work>
    </rdf:RDF>
  </metadata>
  <g
     inkscape:label="Layer 1"
     inkscape:groupmode="layer"
     id="layer1"
     transform="translate(-42.537478,-309.52235)">
    <g
       id="g2989"
       transform="translate(-103.51453,206.80922)">
      <path
         id="path2991"
         d="m 163.10886,368.81708 c 0,-20.55512 16.69166,-37.20927 37.28429,-37.20927 20.59263,0 37.26553,16.65415 37.26553,37.20927 0,20.53637 -16.6729,37.19052 -37.26553,37.19052 -20.59263,0 -37.28429,-16.65415 -37.28429,-37.19052"
         style="fill:#5b9bd5;fill-opacity:1;fill-rule:evenodd;stroke:none"
         inkscape:connector-curvature="0" />
      <path
         id="path2993"
         d="m 163.10886,368.81708 c 0,-20.55512 16.69166,-37.20927 37.28429,-37.20927 20.59263,0 37.26553,16.65415 37.26553,37.20927 0,20.53637 -16.6729,37.19052 -37.26553,37.19052 -20.59263,0 -37.28429,-16.65415 -37.28429,-37.19052"
         style="fill:none;stroke:#41719c;stroke-width:1.25656px;stroke-linecap:butt;stroke-linejoin:miter;stroke-miterlimit:4;stroke-dasharray:none;stroke-opacity:1"
         inkscape:connector-curvature="0" />
      <text
         id="text2995"
         style="font-style:normal;font-weight:normal;font-size:15.0037px;line-height:0%;font-family:Arial;text-align:start;text-anchor:start;fill:#000000"
         y="374.42685"
         x="164.97911"
         xml:space="preserve">CREATED</text>
      <path
         id="path2997"
         d="m 277.99618,264.63165 c 0,-20.59263 16.69166,-37.28429 37.28429,-37.28429 20.59263,0 37.26553,16.69166 37.26553,37.28429 0,20.57388 -16.6729,37.26554 -37.26553,37.26554 -20.59263,0 -37.28429,-16.69166 -37.28429,-37.26554"
         style="fill:#5b9bd5;fill-opacity:1;fill-rule:evenodd;stroke:none"
         inkscape:connector-curvature="0" />
      <path
         id="path2999"
         d="m 277.99618,264.63165 c 0,-20.59263 16.69166,-37.28429 37.28429,-37.28429 20.59263,0 37.26553,16.69166 37.26553,37.28429 0,20.57388 -16.6729,37.26554 -37.26553,37.26554 -20.59263,0 -37.28429,-16.69166 -37.28429,-37.26554"
         style="fill:none;stroke:#41719c;stroke-width:1.25656px;stroke-linecap:butt;stroke-linejoin:miter;stroke-miterlimit:4;stroke-dasharray:none;stroke-opacity:1"
         inkscape:connector-curvature="0" />
      <text
         id="text3001"
         style="font-style:normal;font-weight:normal;font-size:15.0037px;line-height:0%;font-family:Arial;text-align:start;text-anchor:start;fill:#000000"
         y="261.18637"
         x="292.06204"
         xml:space="preserve">SCHE</text>
      <text
         id="text3003"
         style="font-style:normal;font-weight:normal;font-size:15.0037px;line-height:0%;font-family:Arial;text-align:start;text-anchor:start;fill:#000000"
         y="261.18637"
         x="333.77243"
         xml:space="preserve">-</text>
      <text
         id="text3005"
         style="font-style:normal;font-weight:normal;font-size:15.0037px;line-height:0%;font-family:Arial;text-align:start;text-anchor:start;fill:#000000"
         y="279.19086"
         x="289.96149"
         xml:space="preserve">DULED</text>
      <path
         id="path3007"
         d="m 267.37731,507.06524 c 0,-20.59263 16.69166,-37.28429 37.26553,-37.28429 20.59263,0 37.28429,16.69166 37.28429,37.28429 0,20.57387 -16.69166,37.26553 -37.28429,37.26553 -20.57387,0 -37.26553,-16.69166 -37.26553,-37.26553"
         style="fill:#5b9bd5;fill-opacity:1;fill-rule:evenodd;stroke:none"
         inkscape:connector-curvature="0" />
      <path
         id="path3009"
         d="m 265.53935,509.01572 -0.0375,-1.95048 0.0563,-2.02551 0.15003,-1.98799 0.24381,-1.95049 0.33759,-1.91298 0.4126,-1.78169 3.65716,0.82521 -0.39385,1.74418 0.0188,-0.0938 -0.33759,1.83795 0.0188,-0.11252 -0.22506,1.87546 v -0.0938 l -0.15004,1.89422 v -0.0938 l -0.0375,1.91298 v -0.075 l 0.0375,1.91297 -3.75093,0.075 z m 2.36309,-15.45385 0.67517,-1.74418 0.78769,-1.74419 0.86272,-1.66916 0.93773,-1.63166 1.01275,-1.59415 1.10653,-1.53788 0.28132,-0.37509 2.96324,2.30682 -0.26257,0.33759 0.0375,-0.075 -1.0315,1.46286 0.0563,-0.075 -0.97524,1.51913 0.0563,-0.0563 -0.90022,1.55664 0.0375,-0.0938 -0.82521,1.6129 0.0375,-0.0938 -0.75019,1.65041 0.0375,-0.0938 -0.65641,1.70667 -3.48837,-1.36909 z m 8.21455,-13.29706 0.84396,-0.88147 1.36909,-1.31283 1.42535,-1.21905 1.48162,-1.16279 1.51913,-1.08777 1.59415,-1.01275 1.01275,-0.5814 1.85671,3.24456 -0.95649,0.56264 0.075,-0.0563 -1.50037,0.97524 0.0563,-0.0375 -1.46286,1.03151 0.075,-0.0563 -1.4066,1.10653 0.075,-0.0563 -1.36909,1.16279 0.075,-0.0563 -1.29407,1.23781 0.0563,-0.075 -0.80645,0.86271 -2.71942,-2.58814 z m 12.73442,-9.021 0.56264,-0.26256 1.78169,-0.69393 1.81921,-0.6189 1.85671,-0.52513 1.89422,-0.43136 1.91298,-0.33758 1.53788,-0.2063 0.48762,3.71342 -1.50037,0.2063 0.0938,-0.0188 -1.8192,0.31883 0.075,-0.0188 -1.80045,0.41261 0.0938,-0.0188 -1.76294,0.50638 0.075,-0.0188 -1.72543,0.5814 0.0938,-0.0375 -1.68792,0.65641 0.075,-0.0375 -0.50637,0.24381 -1.55664,-3.41335 z m 15.30381,-3.31957 0.48762,-0.0188 2.02551,0.0563 1.98799,0.15004 1.95049,0.26257 1.93173,0.33758 1.89422,0.43136 1.38785,0.39385 -1.03151,3.60089 -1.35034,-0.37509 0.11253,0.0188 -1.80045,-0.41261 0.075,0.0188 -1.83796,-0.31883 0.0938,0.0188 -1.85672,-0.24381 0.0938,0.0188 -1.89422,-0.15004 h 0.11252 l -1.93173,-0.0563 h 0.0938 l -0.45012,0.0188 -0.0938,-3.75093 z m 15.37883,2.92572 0.35634,0.13129 1.72543,0.78769 1.70668,0.88147 1.63165,0.93774 1.57539,1.01275 1.53789,1.08777 1.48162,1.16279 0.11252,0.0938 -2.4381,2.85071 -0.0938,-0.075 0.075,0.0563 -1.4066,-1.10653 0.075,0.0563 -1.46286,-1.03151 0.0563,0.0375 -1.50037,-0.97524 0.075,0.0563 -1.55664,-0.90022 0.075,0.0375 -1.61291,-0.82521 0.0938,0.0375 -1.65041,-0.75019 0.075,0.0375 -0.31883,-0.11253 1.38784,-3.48837 z m 13.0345,8.75844 1.06902,1.12528 1.21905,1.42535 1.16279,1.48162 1.08777,1.53788 1.01275,1.59415 0.95649,1.63166 0.37509,0.71268 -3.33833,1.72543 -0.35634,-0.69393 0.0375,0.0938 -0.90022,-1.55664 0.0563,0.0563 -0.97524,-1.51913 0.0563,0.075 -1.05026,-1.46286 0.0563,0.075 -1.10653,-1.4066 0.0563,0.075 -1.16279,-1.35033 0.0563,0.0563 -1.03151,-1.08777 2.71943,-2.58814 z m 8.49587,13.09076 0.35633,0.90022 0.61891,1.81921 0.52513,1.85671 0.43136,1.91297 0.35634,1.91298 0.24381,1.95049 0.0938,1.12528 -3.75093,0.30007 -0.075,-1.08777 v 0.0938 l -0.22506,-1.87546 0.0188,0.11252 -0.33759,-1.83795 0.0188,0.0938 -0.41261,-1.8192 0.0188,0.11253 -0.50638,-1.76294 0.0375,0.075 -0.58139,-1.74418 0.0375,0.0938 -0.33759,-0.84396 3.46962,-1.38784 z m 2.71942,15.41634 -0.0375,0.97524 -0.15003,1.96924 -0.24381,1.95049 -0.35634,1.93173 -0.43136,1.89422 -0.52513,1.87547 -0.33759,0.994 -3.54463,-1.2003 0.31883,-0.95649 -0.0375,0.075 0.50638,-1.76294 -0.0188,0.0938 0.41261,-1.80045 -0.0188,0.0938 0.33759,-1.83796 -0.0188,0.0938 0.22506,-1.87547 v 0.0938 l 0.15003,-1.87547 -0.0188,0.0938 0.0375,-0.91898 3.75093,0.0938 z m -3.54463,15.24755 -0.30007,0.67516 -0.86272,1.68793 -0.95649,1.63165 -1.01275,1.59415 -1.08777,1.53788 -1.16279,1.48162 -1.05026,1.21905 -2.83196,-2.45686 1.01275,-1.18154 -0.0563,0.0563 1.10653,-1.4066 -0.0563,0.075 1.05026,-1.46286 -0.0563,0.075 0.97524,-1.50038 -0.0563,0.0563 0.90022,-1.55664 -0.0375,0.0938 0.82521,-1.6129 -0.0375,0.075 0.28132,-0.63766 3.41335,1.55664 z m -9.18979,12.62189 -0.075,0.0563 -1.42535,1.2378 -1.48162,1.16279 -1.53789,1.08777 -1.57539,1.01276 -1.65041,0.93773 -1.68792,0.88147 -0.43136,0.18755 -1.53788,-3.41335 0.39385,-0.18755 -0.0938,0.0563 1.61291,-0.8252 -0.075,0.0375 1.55664,-0.90023 -0.075,0.0375 1.51913,-0.95649 -0.0938,0.0375 1.46287,-1.0315 -0.0563,0.0563 1.4066,-1.10653 -0.075,0.0563 1.3691,-1.18155 -0.075,0.0563 0.0375,-0.0188 2.58814,2.71943 z m -13.50336,8.04576 -1.25657,0.4126 -1.85671,0.54388 -1.89422,0.43136 -1.93173,0.33759 -1.95049,0.24381 -1.98799,0.16879 -0.69393,0.0187 -0.0938,-3.75093 0.63766,-0.0188 h -0.0938 l 1.89422,-0.15003 -0.0938,0.0188 1.85672,-0.24381 -0.0938,0.0188 1.83796,-0.31882 h -0.075 l 1.80045,-0.41261 -0.11253,0.0375 1.7817,-0.50637 -0.075,0.0188 1.2003,-0.4126 1.2003,3.56339 z m -15.51012,2.08176 -1.38784,-0.11252 -1.95049,-0.24381 -1.93173,-0.33759 -1.89422,-0.43136 -1.85671,-0.54388 -1.81921,-0.60015 -0.65641,-0.26257 1.38784,-3.48837 0.60015,0.24382 -0.0938,-0.0375 1.72543,0.58139 -0.075,-0.0188 1.76294,0.50637 -0.0938,-0.0375 1.80045,0.41261 h -0.075 l 1.83796,0.31882 -0.11253,-0.0188 1.87546,0.24381 -0.0938,-0.0188 1.35034,0.11252 -0.30008,3.73218 z m -15.07875,-4.12602 -0.97525,-0.50638 -1.63165,-0.93773 -1.59415,-1.01276 -1.51913,-1.08777 -1.48162,-1.16279 -1.42535,-1.2378 -0.93774,-0.88147 2.58815,-2.71943 0.90022,0.84396 -0.075,-0.0563 1.36909,1.18155 -0.075,-0.0563 1.4066,1.10653 -0.075,-0.0563 1.46286,1.0315 -0.075,-0.0375 1.51913,0.95649 -0.075,-0.0375 1.55664,0.90023 -0.075,-0.0563 0.91898,0.48762 -1.70667,3.33834 z m -12.2468,-9.71492 -0.26257,-0.30008 -1.16279,-1.48162 -1.08777,-1.53788 -1.03151,-1.59415 -0.93773,-1.63165 -0.86272,-1.68793 -0.78769,-1.74418 -0.0563,-0.11253 3.50713,-1.36909 0.0188,0.075 -0.0375,-0.0938 0.75019,1.65041 -0.0375,-0.075 0.82521,1.59415 -0.0375,-0.0563 0.88147,1.55664 -0.0563,-0.0938 0.97524,1.51913 -0.0375,-0.075 1.0315,1.46286 -0.0375,-0.075 1.10653,1.4066 -0.0563,-0.0563 0.24382,0.28132 -2.85071,2.43811 z m -7.50187,-13.78469 -0.46887,-1.65041 -0.45011,-1.89422 -0.33759,-1.91298 -0.26256,-1.96924 -0.13128,-1.95048 3.73217,-0.26257 0.15004,1.89422 -0.0187,-0.11253 0.24381,1.87547 -0.0188,-0.0938 0.33759,1.83796 -0.0188,-0.0938 0.41261,1.80045 -0.0188,-0.0938 0.45011,1.59414 -3.60089,1.03151 z"
         style="fill:#000000;fill-opacity:1;fill-rule:nonzero;stroke:#000000;stroke-width:0.0187547px;stroke-linecap:butt;stroke-linejoin:round;stroke-dasharray:none;stroke-opacity:1"
         inkscape:connector-curvature="0" />
      <text
         id="text3011"
         style="font-style:normal;font-weight:normal;font-size:15.0037px;line-height:0%;font-family:Arial;text-align:start;text-anchor:start;fill:#000000"
         y="503.70511"
         x="271.88519"
         xml:space="preserve">CANCEL</text>
      <text
         id="text3013"
         style="font-style:normal;font-weight:normal;font-size:15.0037px;line-height:0%;font-family:Arial;text-align:start;text-anchor:start;fill:#000000"
         y="503.70511"
         x="332.80035"
         xml:space="preserve">-</text>
      <text
         id="text3015"
         style="font-style:normal;font-weight:normal;font-size:15.0037px;line-height:0%;font-family:Arial;text-align:start;text-anchor:start;fill:#000000"
         y="521.70959"
         x="294.24075"
         xml:space="preserve">ED</text>
      <path
         id="path3017"
         d="m 679.702,148.88746 c 0,-20.59263 16.65415,-37.28429 37.17177,-37.28429 20.55512,0 37.20926,16.69166 37.20926,37.28429 0,20.59263 -16.65414,37.28429 -37.20926,37.28429 -20.51762,0 -37.17177,-16.69166 -37.17177,-37.28429"
         style="fill:#5b9bd5;fill-opacity:1;fill-rule:evenodd;stroke:none"
         inkscape:connector-curvature="0" />
      <path
         id="path3019"
         d="m 677.86405,150.87545 -0.0375,-1.98799 0.0375,-2.02551 0.15003,-1.95048 0.26257,-1.988 0.33758,-1.91297 0.41261,-1.76294 3.6384,0.8252 -0.37509,1.72543 v -0.075 l -0.33758,1.83796 0.0375,-0.11253 -0.26256,1.87547 0.0375,-0.11253 -0.15004,1.91298 v -0.11253 l -0.0375,1.91298 v -0.075 l 0.0375,1.91298 -3.75093,0.11252 z m 2.32558,-15.41634 v -0.0375 l 0.71267,-1.76294 0.75019,-1.72543 0.86272,-1.68792 0.93773,-1.65041 1.05026,-1.57539 1.08777,-1.53788 0.30008,-0.3751 2.92573,2.32558 -0.26257,0.33759 0.0375,-0.075 -1.01275,1.46286 0.0375,-0.075 -0.97525,1.50038 0.075,-0.075 -0.90022,1.53788 0.0375,-0.075 -0.82521,1.61291 0.0375,-0.075 -0.75019,1.65041 0.0375,-0.075 -0.67516,1.68792 0.0375,-0.075 v 0 l -3.52587,-1.23781 z m 8.21454,-13.35332 0.86272,-0.90023 1.35033,-1.27532 1.42536,-1.2378 1.46286,-1.16279 1.53789,-1.08777 1.57539,-1.05027 1.01275,-0.56264 1.87547,3.26332 -0.97524,0.56264 0.075,-0.075 -1.50037,0.97524 0.075,-0.0375 -1.46287,1.05026 0.075,-0.075 -1.38784,1.12528 0.0375,-0.075 -1.35034,1.16279 0.075,-0.0375 -1.27532,1.2378 0.0375,-0.075 -0.7877,0.86271 -2.73818,-2.58814 z m 12.75318,-9.03976 0.52513,-0.26256 1.76294,-0.67517 1.83796,-0.63766 1.83796,-0.52513 1.87546,-0.4126 1.95049,-0.33759 1.53788,-0.22505 0.48762,3.71342 -1.50037,0.22506 0.075,-0.0375 -1.83796,0.33758 0.11253,-0.0375 -1.80045,0.41261 h 0.075 l -1.76294,0.48762 h 0.075 l -1.72543,0.56264 0.11253,-0.0375 -1.68792,0.67517 0.075,-0.0375 -0.48762,0.22505 -1.53788,-3.41335 z m 15.2663,-3.30082 0.45012,-0.0375 2.0255,0.075 1.98799,0.15004 1.95049,0.26256 1.91298,0.33759 1.91297,0.4126 1.42536,0.4126 -1.01275,3.6009 -1.42536,-0.37509 h 0.11253 l -1.80045,-0.41261 0.075,0.0375 -1.80045,-0.33758 0.075,0.0375 -1.83796,-0.26257 0.075,0.0375 -1.87547,-0.15003 h 0.075 l -1.91297,-0.075 h 0.11252 l -0.4126,0.0375 -0.11253,-3.75094 z m 15.37883,2.92573 0.30008,0.11253 1.72543,0.78769 1.68792,0.90023 1.65041,0.93773 1.57539,1.01276 1.53789,1.08777 1.46286,1.16279 0.18755,0.15003 -2.47562,2.85071 -0.15004,-0.15003 0.075,0.075 -1.38784,-1.12528 0.075,0.075 -1.46286,-1.05026 0.075,0.0375 -1.50037,-0.93773 0.075,0.0375 -1.57539,-0.90023 0.075,0.0375 -1.57539,-0.8252 0.075,0.0375 -1.65041,-0.75019 0.075,0.0375 -0.26256,-0.11253 1.38784,-3.48837 z m 13.01575,8.8147 1.01275,1.05026 1.2003,1.42535 1.16279,1.50038 1.08777,1.53788 1.01275,1.57539 0.93773,1.65041 0.45012,0.82521 -3.37584,1.68792 -0.3751,-0.7877 0.0375,0.075 -0.90022,-1.53788 0.0375,0.075 -0.93774,-1.50038 0.0375,0.075 -1.05026,-1.46286 0.075,0.075 -1.12528,-1.42536 0.0375,0.075 -1.16279,-1.38785 0.075,0.075 -0.97525,-1.01275 2.73819,-2.58814 z m 8.4396,13.12827 0.33758,0.78769 0.60015,1.83796 0.52513,1.83796 0.45012,1.91298 0.33758,1.91297 0.22506,1.95049 0.11252,1.23781 -3.75093,0.30007 -0.075,-1.2003 v 0.11253 l -0.22506,-1.87547 v 0.11253 l -0.33758,-1.83796 0.0375,0.075 -0.4126,-1.80045 0.0375,0.075 -0.52513,-1.76294 0.0375,0.11253 -0.60015,-1.72543 0.0375,0.075 -0.30007,-0.75019 3.48837,-1.38784 z m 2.66316,15.41634 v 0.86271 l -0.15003,1.988 -0.26257,1.95048 -0.33758,1.91298 -0.45012,1.91298 -0.52513,1.87546 -0.37509,1.08778 -3.56339,-1.2003 0.3751,-1.05027 -0.0375,0.075 0.52513,-1.76294 -0.0375,0.11253 0.4126,-1.83796 -0.0375,0.11253 0.33758,-1.83796 v 0.075 l 0.22506,-1.87546 v 0.11252 l 0.15004,-1.87546 v 0.075 -0.7877 l 3.75093,0.075 z m -3.56339,15.22879 -0.26256,0.60015 -0.86272,1.68792 -0.93773,1.6129 -1.01275,1.61291 -1.08777,1.53788 -1.16279,1.46286 -1.12528,1.31283 -2.85071,-2.43811 1.12528,-1.27532 -0.075,0.075 1.12528,-1.42535 -0.075,0.075 1.05026,-1.46287 -0.0375,0.075 0.93774,-1.50037 -0.0375,0.075 0.90022,-1.5754 -0.0375,0.075 0.82521,-1.6129 -0.0375,0.11253 0.22505,-0.56264 3.41335,1.53788 z m -9.30231,12.67816 -1.31283,1.16279 -1.46286,1.16279 -1.53789,1.08777 -1.57539,1.01275 -1.65041,0.93774 -1.68792,0.86271 -0.56264,0.26257 -1.53788,-3.41335 0.52513,-0.26257 -0.075,0.075 1.57539,-0.82521 -0.075,0.0375 1.57539,-0.90022 -0.075,0.0375 1.50037,-0.97524 -0.075,0.075 1.46286,-1.05026 -0.075,0.0375 1.38784,-1.08777 -0.075,0.0375 1.31283,-1.08777 2.43811,2.8132 z m -13.42835,7.95198 -1.12528,0.37509 -1.83796,0.52514 -1.91297,0.45011 -1.91298,0.33758 -1.95049,0.22506 -1.98799,0.18754 h -0.86272 l -0.075,-3.75093 h 0.78769 -0.11253 l 1.91298,-0.15004 h -0.11253 l 1.87547,-0.22505 h -0.075 l 1.80045,-0.30008 h -0.075 l 1.80045,-0.4126 -0.11253,0.0375 1.76294,-0.52513 -0.075,0.0375 1.08777,-0.3751 1.2003,3.56339 z m -15.52887,2.02551 -1.2003,-0.11253 -1.95048,-0.22506 -1.95049,-0.33758 -1.87546,-0.45011 -1.83796,-0.52514 -1.83796,-0.60015 -0.82521,-0.33758 1.38785,-3.48837 0.7877,0.30008 -0.11253,-0.0375 1.72543,0.60015 -0.075,-0.0375 1.76294,0.52513 -0.075,-0.0375 1.80045,0.4126 -0.11253,-0.0375 1.83796,0.33759 h -0.075 l 1.83796,0.22505 h -0.075 l 1.16279,0.075 -0.30008,3.75094 z m -15.04124,-4.20105 -0.7877,-0.4126 -1.65041,-0.93774 -1.57539,-1.01275 -1.53789,-1.08777 -1.46286,-1.16279 -1.42536,-1.23781 -1.08777,-1.05026 2.58815,-2.70067 1.05026,1.01275 -0.075,-0.075 1.35034,1.16279 -0.0375,-0.0375 1.38784,1.08777 -0.075,-0.0375 1.46287,1.01275 -0.075,-0.0375 1.50037,0.97524 -0.075,-0.0375 1.57539,0.90022 -0.075,-0.0375 0.71268,0.3751 -1.68792,3.33833 z m -12.19054,-9.78994 -0.11253,-0.15004 -1.16279,-1.46286 -1.12528,-1.53788 -1.01275,-1.61291 -0.90023,-1.6129 -0.90022,-1.68792 -0.75019,-1.72543 -0.15003,-0.33758 3.48837,-1.38785 0.11252,0.30008 -0.0375,-0.075 0.75019,1.65041 -0.0375,-0.11253 0.82521,1.6129 -0.0375,-0.075 0.90022,1.5754 -0.075,-0.075 0.97525,1.50037 -0.0375,-0.075 1.01275,1.46287 -0.0375,-0.075 1.12528,1.42535 -0.075,-0.075 0.11253,0.11253 -2.85071,2.43811 z m -7.42685,-13.84095 -0.37509,-1.42535 -0.45012,-1.87547 -0.33758,-1.95049 -0.26257,-1.95048 -0.15003,-1.95049 3.75093,-0.26256 0.15004,1.87546 -0.0375,-0.075 0.26256,1.83795 -0.0375,-0.075 0.33758,1.83796 -0.0375,-0.11253 0.45011,1.80045 -0.0375,-0.075 0.3751,1.35034 -3.6009,1.05026 z"
         style="fill:#000000;fill-opacity:1;fill-rule:nonzero;stroke:#000000;stroke-width:0.0375093px;stroke-linecap:butt;stroke-linejoin:round;stroke-dasharray:none;stroke-opacity:1"
         inkscape:connector-curvature="0" />
      <text
         id="text3021"
         style="font-style:normal;font-weight:normal;font-size:15.0037px;line-height:0%;font-family:Arial;text-align:start;text-anchor:start;fill:#000000"
         y="154.55629"
         x="690.95276"
         xml:space="preserve">FAILED</text>
      <path
         id="path3023"
         d="m 206.86489,326.87375 2.44316,-6.82707 2.50394,-6.75204 1.27628,-3.31976 1.3249,-3.26348 1.36135,-3.22599 1.40998,-3.11342 1.45861,-3.03844 1.51939,-2.94463 1.58014,-2.8321 1.66524,-2.70082 1.73817,-2.58829 1.83541,-2.41948 1.9205,-2.28819 2.01774,-2.10064 2.11497,-1.91307 2.21222,-1.76304 2.30946,-1.59422 2.38239,-1.42544 2.46747,-1.3129 2.51609,-1.16285 2.58902,-1.06907 2.64979,-0.93778 2.69842,-0.88153 2.73489,-0.76897 2.77134,-0.71273 2.80782,-0.67519 5.66425,-1.20036 4.52166,-0.86277 0.14586,1.85683 -4.50951,0.88149 v -0.0188 l -5.65209,1.20037 v 0 l -2.79566,0.65645 h 0.0121 l -2.75918,0.71271 h 0.0121 l -2.72272,0.78774 0.0121,-0.0188 -2.68627,0.86277 h 0.0122 l -2.62549,0.95654 0.0122,-0.0188 -2.5647,1.05031 h 0.0121 l -2.50394,1.16284 0.0243,-0.0187 -2.43099,1.29414 h 0.0243 l -2.35808,1.40668 0.0243,-0.0187 -2.28515,1.57548 0.0365,-0.0188 -2.18791,1.72553 0.0365,-0.0188 -2.09067,1.89432 0.0243,-0.0375 -1.98128,2.06312 0.0243,-0.0188 -1.88404,2.23193 0.0243,-0.0375 -1.79895,2.40072 0.0243,-0.0375 -1.72602,2.55075 0.0243,-0.0375 -1.64093,2.68207 0.0122,-0.0375 -1.56801,2.81335 0.0243,-0.0375 -1.50722,2.92589 0.0122,-0.0376 -1.44646,3.01966 0.0122,-0.0375 -1.39783,3.11344 v -0.0188 l -1.34921,3.18847 v -0.0188 l -1.31275,3.24474 h 0.0122 l -1.27629,3.301 v -0.0188 l -2.49178,6.73329 h 0.0122 l -2.44317,6.82706 z m 59.6326,-67.03277 6.13828,4.03247 -5.31175,6.24562 c -0.26741,0.31886 -0.6442,0.24383 -0.85084,-0.16879 -0.19449,-0.41262 -0.14587,-0.99405 0.12154,-1.3129 l 4.47306,-5.27035 0.13371,1.61299 -5.17805,-3.41353 c -0.31604,-0.20631 -0.44975,-0.76897 -0.32819,-1.23787 0.1337,-0.48764 0.49836,-0.69396 0.80224,-0.48764 z"
         style="fill:#000000;fill-opacity:1;fill-rule:nonzero;stroke:#000000;stroke-width:0.615;stroke-linecap:butt;stroke-linejoin:round;stroke-dasharray:none;stroke-opacity:1"
         inkscape:connector-curvature="0" />
      <path
         id="path3025"
         d="m 210.91093,410.62137 4.98014,4.89534 4.94644,4.8688 2.43399,2.42778 2.40034,2.41447 2.36668,2.41453 2.33303,2.37466 2.27694,2.37471 2.22086,2.34821 2.1648,2.33489 2.09747,2.29506 2.0302,2.28186 1.95165,2.24202 1.86195,2.21551 1.77219,2.18897 1.68248,2.14919 1.59273,2.12264 1.50299,2.08285 1.42454,2.05626 1.35719,2.02981 1.28989,2.0032 1.22258,1.99 1.16654,1.95016 1.12164,1.9502 1.07681,1.92362 1.04311,1.91036 1.00948,1.89711 1.95166,3.78096 1.32357,2.61348 -0.95341,0.67658 -1.33477,-2.61347 v 0.0132 l -1.94046,-3.76765 v 0 l -1.00948,-1.88384 v 0 l -1.03193,-1.8971 v 0 l -1.06555,-1.91038 v 0 l -1.11045,-1.93692 v 0.0133 l -1.16651,-1.95017 h 0.0112 l -1.22262,-1.9767 0.0111,0.0132 -1.27867,-1.98997 v 0.0133 l -1.346,-2.02976 v 0.0132 l -1.41326,-2.04305 v 0.0133 l -1.49181,-2.08284 0.0111,0.0132 -1.5815,-2.10938 v 0.0132 l -1.67125,-2.14917 0.0111,0.0133 -1.77223,-2.17573 0.0111,0.0132 -1.86196,-2.21549 0.0112,0.0133 -1.94046,-2.24205 v 0 l -2.01897,-2.26856 v 0 l -2.09747,-2.29511 h 0.0112 l -2.16477,-2.32163 v 0 l -2.22086,-2.33494 v 0 l -2.26573,-2.37467 v 0.0132 l -2.32181,-2.38795 v 0 l -2.3667,-2.40123 v 0.0132 l -2.40035,-2.4145 v 0 l -2.43398,-2.42776 v 0 l -4.9241,-4.86879 -4.98009,-4.89533 z m 54.61309,62.32596 0.0897,7.28327 -5.40634,-3.50233 c -0.26921,-0.17247 -0.37014,-0.58373 -0.2131,-0.90214 0.14581,-0.31837 0.48228,-0.43778 0.75149,-0.26532 l 4.56511,2.95844 -0.84124,0.58372 -0.0673,-6.14238 c 0,-0.35822 0.24678,-0.66335 0.56082,-0.66335 0.30287,-0.0132 0.56082,0.27861 0.56082,0.65009 z"
         style="fill:#000000;fill-opacity:1;fill-rule:nonzero;stroke:#000000;stroke-width:0.820388;stroke-linecap:butt;stroke-linejoin:round;stroke-dasharray:none;stroke-opacity:1"
         inkscape:connector-curvature="0" />
      <path
         id="path3027"
         d="m 407.87228,266.06023 c 0,-20.59263 16.69165,-37.28429 37.28428,-37.28429 20.59263,0 37.26554,16.69166 37.26554,37.28429 0,20.57388 -16.67291,37.26554 -37.26554,37.26554 -20.59263,0 -37.28428,-16.69166 -37.28428,-37.26554"
         style="fill:#5b9bd5;fill-opacity:1;fill-rule:evenodd;stroke:none"
         inkscape:connector-curvature="0" />
      <path
         id="path3029"
         d="m 407.87228,266.06023 c 0,-20.59263 16.69165,-37.28429 37.28428,-37.28429 20.59263,0 37.26554,16.69166 37.26554,37.28429 0,20.57388 -16.67291,37.26554 -37.26554,37.26554 -20.59263,0 -37.28428,-16.69166 -37.28428,-37.26554"
         style="fill:none;stroke:#41719c;stroke-width:1.25656px;stroke-linecap:butt;stroke-linejoin:miter;stroke-miterlimit:4;stroke-dasharray:none;stroke-opacity:1"
         inkscape:connector-curvature="0" />
      <text
         id="text3031"
         style="font-style:normal;font-weight:normal;font-size:15.0037px;line-height:0%;font-family:Arial;text-align:start;text-anchor:start;fill:#000000"
         y="262.61493"
         x="412.97534"
         xml:space="preserve">DEPLOY</text>
      <text
         id="text3033"
         style="font-style:normal;font-weight:normal;font-size:15.0037px;line-height:0%;font-family:Arial;text-align:start;text-anchor:start;fill:#000000"
         y="262.61493"
         x="472.54016"
         xml:space="preserve">-</text>
      <text
         id="text3035"
         style="font-style:normal;font-weight:normal;font-size:15.0037px;line-height:0%;font-family:Arial;text-align:start;text-anchor:start;fill:#000000"
         y="280.61942"
         x="431.88007"
         xml:space="preserve">ING</text>
      <path
         id="path3027-3"
         d="m 538.77709,263.43678 c 0,-20.59263 16.69165,-37.28429 37.28428,-37.28429 20.59263,0 37.26554,16.69166 37.26554,37.28429 0,20.57388 -16.67291,37.26554 -37.26554,37.26554 -20.59263,0 -37.28428,-16.69166 -37.28428,-37.26554"
         style="fill:#5b9bd5;fill-opacity:1;fill-rule:evenodd;stroke:none"
         inkscape:connector-curvature="0" />
      <path
         id="path3029-7"
         d="m 538.77709,263.43678 c 0,-20.59263 16.69165,-37.28429 37.28428,-37.28429 20.59263,0 37.26554,16.69166 37.26554,37.28429 0,20.57388 -16.67291,37.26554 -37.26554,37.26554 -20.59263,0 -37.28428,-16.69166 -37.28428,-37.26554"
         style="fill:none;stroke:#41719c;stroke-width:1.25656px;stroke-linecap:butt;stroke-linejoin:miter;stroke-miterlimit:4;stroke-dasharray:none;stroke-opacity:1"
         inkscape:connector-curvature="0" />
      <text
         id="text3031-9"
         style="font-style:normal;font-weight:normal;font-size:15.0037px;line-height:0%;font-family:Arial;text-align:start;text-anchor:start;fill:#000000"
         y="259.99152"
         x="543.88019"
         xml:space="preserve">INITIALIZ-</text>
      <text
         id="text3033-0"
         style="font-style:normal;font-weight:normal;font-size:15.0037px;line-height:0%;font-family:Arial;text-align:start;text-anchor:start;fill:#000000"
         y="458.56293"
         x="677.01642"
         xml:space="preserve" />
      <text
         id="text3035-2"
         style="font-style:normal;font-weight:normal;font-size:15.0037px;line-height:0%;font-family:Arial;text-align:start;text-anchor:start;fill:#000000"
         y="277.996"
         x="562.78491"
         xml:space="preserve">ING</text>
      <path
         id="path3037"
         d="m 658.22944,451.11211 c 0,-20.59263 16.65415,-37.28428 37.20927,-37.28428 20.51761,0 37.17176,16.69165 37.17176,37.28428 0,20.59263 -16.65415,37.28429 -37.17176,37.28429 -20.55512,0 -37.20927,-16.69166 -37.20927,-37.28429"
         style="fill:#5b9bd5;fill-opacity:1;fill-rule:evenodd;stroke:none"
         inkscape:connector-curvature="0" />
      <path
         id="path3039"
         d="m 656.39148,453.0626 -0.0375,-1.95049 0.0375,-1.98799 0.15004,-2.02551 0.26257,-1.95048 0.33758,-1.91298 0.4126,-1.76294 3.63841,0.82521 -0.37509,1.72543 v -0.075 l -0.30008,1.83796 v -0.11253 l -0.22505,1.87547 v -0.11253 l -0.15004,1.91298 v -0.11253 l -0.0375,1.91297 v -0.075 l 0.0375,1.91297 -3.75094,0.075 z m 2.36309,-15.45385 0.67517,-1.72543 0.7877,-1.72543 0.86271,-1.68792 0.93774,-1.65041 1.01275,-1.57539 1.08777,-1.5754 0.30007,-0.37509 2.92573,2.32558 -0.26256,0.33758 0.075,-0.075 -1.05027,1.46286 0.0375,-0.075 -0.93773,1.53788 0.0375,-0.075 -0.90023,1.53788 0.0375,-0.075 -0.8252,1.6129 0.0375,-0.075 -0.71268,1.65041 0.0375,-0.11252 -0.67517,1.72543 -3.48837,-1.38785 z m 8.21455,-13.27831 0.8252,-0.90022 1.35034,-1.31283 1.42536,-1.2003 1.46286,-1.16279 1.53788,-1.08777 1.5754,-1.05026 1.05026,-0.56264 1.83796,3.26331 -0.97525,0.56264 0.11253,-0.075 -1.53788,0.97525 0.075,-0.0375 -1.46287,1.05026 0.075,-0.075 -1.38785,1.08777 0.075,-0.0375 -1.35033,1.16279 0.075,-0.0375 -1.31283,1.23781 0.075,-0.075 -0.82521,0.86272 -2.70067,-2.58815 z m 12.71567,-9.03975 0.52513,-0.26257 1.80045,-0.67516 1.80044,-0.63766 1.83796,-0.52513 1.91298,-0.41261 1.91298,-0.33758 1.57539,-0.22506 0.48762,3.71343 -1.53788,0.22506 0.075,-0.0375 -1.83796,0.33758 0.11253,-0.0375 -1.80045,0.4126 h 0.11252 l -1.76293,0.48762 h 0.075 l -1.72543,0.56265 0.075,-0.0375 -1.68792,0.67516 0.075,-0.0375 -0.45011,0.22506 -1.57539,-3.41335 z m 15.30381,-3.30082 0.45011,-0.0375 1.988,0.075 1.98799,0.15003 1.95049,0.26257 1.95048,0.33758 1.87547,0.41261 1.46287,0.4126 -1.05027,3.63841 -1.38784,-0.41261 h 0.075 l -1.80045,-0.4126 0.11253,0.0375 -1.83796,-0.33758 0.075,0.0375 -1.83796,-0.26257 0.075,0.0375 -1.87547,-0.15004 h 0.075 l -1.91298,-0.075 h 0.11253 l -0.4126,0.0375 -0.075,-3.75093 z m 15.37883,2.92573 0.26257,0.11252 1.76294,0.7877 1.65041,0.90023 1.65041,0.90022 1.57539,1.05026 1.53788,1.08777 1.46287,1.16279 0.22505,0.15004 -2.47561,2.85071 -0.15004,-0.15004 0.0375,0.0375 -1.38785,-1.08777 0.075,0.075 -1.46286,-1.05026 0.075,0.0375 -1.50038,-0.97525 0.075,0.075 -1.53788,-0.90022 0.075,0.0375 -1.61291,-0.82521 0.075,0.0375 -1.65041,-0.75019 0.075,0.0375 -0.22506,-0.11252 1.38785,-3.48837 z m 12.97823,8.81469 1.01276,1.05026 1.2378,1.42536 1.16279,1.50037 1.05027,1.53789 1.05026,1.57539 0.93773,1.65041 0.4126,0.82521 -3.33833,1.68792 -0.4126,-0.7877 0.0375,0.075 -0.86272,-1.53788 0.0375,0.075 -0.97524,-1.53788 0.0375,0.075 -1.01275,-1.46286 0.0375,0.075 -1.08777,-1.38784 0.0375,0.075 -1.16278,-1.35034 0.0375,0.0375 -0.93773,-1.01275 2.70067,-2.58815 z m 8.47712,13.12827 0.30007,0.7877 0.60015,1.83796 0.56264,1.83796 0.4126,1.91297 0.33759,1.91298 0.26256,1.95048 0.11253,1.23781 -3.75093,0.30008 -0.11253,-1.2003 0.0375,0.11253 -0.26257,-1.87547 0.0375,0.11253 -0.33758,-1.83796 v 0.075 l -0.41261,-1.80045 0.0375,0.11253 -0.48762,-1.76294 v 0.075 l -0.56264,-1.76294 0.0375,0.11253 -0.30007,-0.75019 3.48837,-1.38785 z m 2.66316,15.41634 -0.0375,0.86272 -0.15004,1.98799 -0.26256,1.95049 -0.33759,1.91298 -0.4126,1.91297 -0.52513,1.87547 -0.37509,1.08777 -3.56339,-1.2003 0.37509,-1.05026 -0.0375,0.075 0.48762,-1.76294 -0.0375,0.075 0.41261,-1.80045 v 0.11253 l 0.33758,-1.83796 -0.0375,0.075 0.26257,-1.87547 v 0.11253 l 0.11253,-1.87547 v 0.075 l 0.0375,-0.78769 3.75094,0.075 z m -3.56339,15.2288 -0.26256,0.60015 -0.86272,1.68792 -0.93773,1.6129 -1.05026,1.6129 -1.05027,1.53788 -1.16279,1.46287 -1.16279,1.31283 -2.8132,-2.43811 1.08777,-1.27532 -0.0375,0.0375 1.08777,-1.38785 -0.0375,0.075 1.01275,-1.46286 -0.0375,0.075 0.97524,-1.53789 -0.0375,0.11253 0.86272,-1.57539 -0.0375,0.075 0.8252,-1.6129 -0.0375,0.075 0.22505,-0.52514 3.45086,1.53789 z m -9.30232,12.67816 -1.35033,1.16279 -1.46287,1.12528 -1.53788,1.12528 -1.57539,1.01275 -1.65041,0.93773 -1.68792,0.86272 -0.56264,0.26256 -1.53789,-3.41335 0.52513,-0.26256 -0.075,0.075 1.61291,-0.82521 -0.11253,0.0375 1.57539,-0.90022 -0.075,0.0375 1.50038,-0.97524 -0.075,0.075 1.46286,-1.05026 -0.075,0.0375 1.42536,-1.08777 -0.075,0.0375 1.27532,-1.12528 2.47561,2.85071 z m -13.46585,7.95198 -1.08777,0.37509 -1.87547,0.52513 -1.91298,0.45011 -1.91297,0.33759 -1.95049,0.22505 -1.98799,0.18755 h -0.86272 l -0.075,-3.75093 h 0.7877 -0.075 l 1.87547,-0.15004 h -0.075 l 1.83796,-0.22506 h -0.075 l 1.83796,-0.33758 -0.11253,0.0375 1.80045,-0.4126 -0.075,0.0375 1.76294,-0.52513 -0.075,0.0375 1.05026,-0.37509 1.2003,3.56339 z m -15.52887,2.0255 -1.2003,-0.11253 -1.95048,-0.22505 -1.91298,-0.33759 -1.91298,-0.45011 -1.83796,-0.52513 -1.80044,-0.60015 -0.86272,-0.33758 1.38785,-3.48837 0.78769,0.30007 -0.075,-0.0375 1.72543,0.60015 -0.11252,-0.0375 1.80044,0.52513 -0.11252,-0.0375 1.80045,0.4126 -0.11253,-0.0375 1.83796,0.33758 h -0.075 l 1.83795,0.22506 h -0.075 l 1.16279,0.075 -0.30008,3.75093 z m -15.04125,-4.20104 -0.78769,-0.41261 -1.65041,-0.93773 -1.5754,-1.01275 -1.53788,-1.12528 -1.46286,-1.16279 -1.42536,-1.2003 -1.08777,-1.05026 2.58814,-2.70068 1.05027,0.97525 -0.0375,-0.0375 1.35033,1.16279 -0.075,-0.0375 1.38785,1.08777 -0.075,-0.0375 1.46287,1.01275 -0.075,-0.0375 1.50037,0.97524 -0.075,-0.0375 1.5754,0.90022 -0.075,-0.0375 0.75018,0.37509 -1.72543,3.33834 z m -12.19053,-9.78994 -0.11253,-0.15004 -1.16279,-1.46287 -1.08777,-1.53788 -1.01275,-1.6129 -0.93774,-1.6129 -0.86271,-1.68792 -0.7877,-1.76294 -0.15004,-0.30008 3.48837,-1.38784 0.15004,0.30007 -0.0375,-0.11253 0.71268,1.65042 -0.0375,-0.075 0.8252,1.6129 -0.0375,-0.075 0.90023,1.57539 -0.0375,-0.075 0.93773,1.50038 -0.0375,-0.075 1.05027,1.46286 -0.075,-0.075 1.12528,1.38785 -0.075,-0.0375 0.11253,0.11253 -2.85071,2.43811 z m -7.42685,-13.84095 -0.3751,-1.42536 -0.45011,-1.87546 -0.33758,-1.95049 -0.26257,-1.95049 -0.15004,-1.95048 3.75094,-0.26257 0.15004,1.87547 v -0.11253 l 0.22505,1.87547 -0.0375,-0.075 0.33759,1.83796 v -0.11253 l 0.4126,1.80045 -0.0375,-0.075 0.4126,1.38785 -3.6384,1.01275 z"
         style="fill:#000000;fill-opacity:1;fill-rule:nonzero;stroke:#000000;stroke-width:0.0375093px;stroke-linecap:butt;stroke-linejoin:round;stroke-dasharray:none;stroke-opacity:1"
         inkscape:connector-curvature="0" />
      <text
         id="text3041"
         style="font-style:normal;font-weight:normal;font-size:15.0037px;line-height:0%;font-family:Arial;text-align:start;text-anchor:start;fill:#000000"
         y="456.67523"
         x="660.49451"
         xml:space="preserve">FINISHED</text>
      <path
         id="path3043"
         d="m 671.49611,262.50756 c 0,-20.59263 16.69166,-37.28429 37.28429,-37.28429 20.59263,0 37.24678,16.69166 37.24678,37.28429 0,20.55512 -16.65415,37.24678 -37.24678,37.24678 -20.59263,0 -37.28429,-16.69166 -37.28429,-37.24678"
         style="fill:#5b9bd5;fill-opacity:1;fill-rule:evenodd;stroke:none"
         inkscape:connector-curvature="0" />
      <path
         id="path3045"
         d="m 671.49611,262.50756 c 0,-20.59263 16.69166,-37.28429 37.28429,-37.28429 20.59263,0 37.24678,16.69166 37.24678,37.28429 0,20.55512 -16.65415,37.24678 -37.24678,37.24678 -20.59263,0 -37.28429,-16.69166 -37.28429,-37.24678"
         style="fill:none;stroke:#41719c;stroke-width:1.23781px;stroke-linecap:butt;stroke-linejoin:miter;stroke-miterlimit:4;stroke-dasharray:none;stroke-opacity:1"
         inkscape:connector-curvature="0" />
      <text
         id="text3047"
         style="font-style:normal;font-weight:normal;font-size:15.0037px;line-height:0%;font-family:Arial;text-align:start;text-anchor:start;fill:#000000"
         y="268.04575"
         x="673.87976"
         xml:space="preserve">RUNNING</text>
      <path
         id="path3049"
         d="m 359.5465,264.31448 h 39.77192 v 1.87541 H 359.5465 Z m 32.48947,-4.23844 9.20502,5.17614 -9.20502,5.19489 c -0.46608,0.26257 -1.0681,0.11254 -1.33997,-0.33757 -0.27188,-0.45009 -0.11652,-1.01271 0.34955,-1.27527 l 7.76796,-4.38848 v 1.63161 l -7.76796,-4.38848 c -0.44666,-0.26255 -0.62143,-0.82517 -0.34955,-1.27527 0.27187,-0.45011 0.87389,-0.60014 1.33997,-0.33757 z"
         style="fill:#000000;fill-opacity:1;fill-rule:nonzero;stroke:#000000;stroke-width:0;stroke-linecap:butt;stroke-linejoin:round;stroke-dasharray:none;stroke-opacity:1"
         inkscape:connector-curvature="0" />
      <path
         id="path3049-7"
         d="m 619.49047,262.48034 h 39.77192 v 1.87541 h -39.77192 z m 32.48947,-4.23844 9.20502,5.17614 -9.20502,5.19489 c -0.46608,0.26257 -1.0681,0.11254 -1.33997,-0.33757 -0.27188,-0.45009 -0.11652,-1.01271 0.34955,-1.27527 l 7.76796,-4.38848 v 1.63161 l -7.76796,-4.38848 c -0.44666,-0.26255 -0.62143,-0.82517 -0.34955,-1.27527 0.27187,-0.45011 0.87389,-0.60014 1.33997,-0.33757 z"
         style="fill:#000000;fill-opacity:1;fill-rule:nonzero;stroke:#000000;stroke-width:0.0190841px;stroke-linecap:butt;stroke-linejoin:round;stroke-dasharray:none;stroke-opacity:1"
         inkscape:connector-curvature="0" />
      <path
         id="path3049-2"
         d="m 489.4903,263.19459 h 38.40957 v 1.87546 H 489.4903 Z m 31.37657,-4.23856 8.88971,5.17629 -8.88971,5.19504 c -0.45011,0.26257 -1.03151,0.11253 -1.29407,-0.33758 -0.26257,-0.45011 -0.11253,-1.01275 0.33758,-1.27532 l 7.50187,-4.38859 v 1.63165 l -7.50187,-4.38859 c -0.43136,-0.26256 -0.60015,-0.8252 -0.33758,-1.27532 0.26256,-0.45011 0.84396,-0.60015 1.29407,-0.33758 z"
         style="fill:#000000;fill-opacity:1;fill-rule:nonzero;stroke:#000000;stroke-width:0.0187547px;stroke-linecap:butt;stroke-linejoin:round;stroke-dasharray:none;stroke-opacity:1"
         inkscape:connector-curvature="0" />
      <path
         id="path3055"
         d="m 316.03619,310.28481 -1.44819,10.64795 -1.42813,10.61662 -1.38815,10.5223 -1.36814,10.41244 -0.66326,5.15123 -0.62325,5.10412 -0.64327,5.05701 -0.60325,5.00989 -0.58325,4.93136 -0.56328,4.89995 -0.52326,4.80574 -0.52326,4.74293 -0.48328,4.66435 -0.46325,4.58586 -0.42327,4.52304 -0.42332,4.46025 -0.38162,4.39737 -0.36159,4.3346 -0.36165,4.30316 -0.3416,4.24032 -0.62326,8.40219 -0.60324,8.26083 -0.56327,8.19798 -0.44328,6.59612 2.01175,0.0786 0.44326,-6.59612 0.56327,-8.1823 0.58324,-8.27651 0.6433,-8.38649 v 0.0157 l 0.3416,-4.25605 0.34162,-4.28745 0.38162,-4.35027 0.3816,-4.38171 v 0 l 0.40161,-4.46022 0.44329,-4.50734 v 0 l 0.46329,-4.58588 0.48326,-4.66436 v 0 l 0.50326,-4.72718 0.54328,-4.82147 v 0 l 0.56323,-4.86852 0.5833,-4.94705 0.60325,-4.99423 v 0 l 0.62325,-5.05701 0.64325,-5.10411 v 0 l 0.66325,-5.15122 1.34815,-10.41242 1.40816,-10.52236 1.42814,-10.60088 1.42815,-10.64795 z m -19.99611,142.8055 5.04936,7.664 6.07522,-7.20856 c 0.30161,-0.36123 0.16665,-0.8481 -0.30166,-1.08366 -0.46326,-0.23559 -1.08651,-0.14136 -1.38813,0.21986 l -5.10967,6.07784 1.7301,0.0786 -4.26481,-6.47045 c -0.24162,-0.3926 -0.84488,-0.53396 -1.34816,-0.34548 -0.50325,0.20414 -0.68322,0.67528 -0.44326,1.06792 z"
         style="fill:#000000;fill-opacity:1;fill-rule:nonzero;stroke:#000000;stroke-width:0.218;stroke-linecap:butt;stroke-linejoin:round;stroke-dasharray:none;stroke-opacity:1"
         inkscape:connector-curvature="0" />
      <path
         id="path3057"
         d="m 419.5243,440.79375 c 0,-20.59263 16.69166,-37.28428 37.28429,-37.28428 20.59263,0 37.26553,16.69165 37.26553,37.28428 0,20.57388 -16.6729,37.26554 -37.26553,37.26554 -20.59263,0 -37.28429,-16.69166 -37.28429,-37.26554"
         style="fill:#5b9bd5;fill-opacity:1;fill-rule:evenodd;stroke:none"
         inkscape:connector-curvature="0" />
      <path
         id="path3059"
         d="m 419.5243,440.79375 c 0,-20.59263 16.69166,-37.28428 37.28429,-37.28428 20.59263,0 37.26553,16.69165 37.26553,37.28428 0,20.57388 -16.6729,37.26554 -37.26553,37.26554 -20.59263,0 -37.28429,-16.69166 -37.28429,-37.26554"
         style="fill:none;stroke:#41719c;stroke-width:1.25656px;stroke-linecap:butt;stroke-linejoin:miter;stroke-miterlimit:4;stroke-dasharray:none;stroke-opacity:1"
         inkscape:connector-curvature="0" />
      <text
         id="text3061"
         style="font-style:normal;font-weight:normal;font-size:15.0037px;line-height:0%;font-family:Arial;text-align:start;text-anchor:start;fill:#000000"
         y="437.33633"
         x="424.00601"
         xml:space="preserve">CANCEL</text>
      <text
         id="text3063"
         style="font-style:normal;font-weight:normal;font-size:15.0037px;line-height:0%;font-family:Arial;text-align:start;text-anchor:start;fill:#000000"
         y="437.33633"
         x="484.9212"
         xml:space="preserve">-</text>
      <text
         id="text3065"
         style="font-style:normal;font-weight:normal;font-size:15.0037px;line-height:0%;font-family:Arial;text-align:start;text-anchor:start;fill:#000000"
         y="455.34082"
         x="443.51086"
         xml:space="preserve">ING</text>
      <path
         id="path3067"
         d="m 412.08554,457.4251 -64.20823,35.06266 0.87911,1.36196 64.2082,-35.06266 z m -60.65737,28.93382 -4.58508,7.60166 9.46317,-0.0633 c 0.46541,0 0.86185,-0.36424 0.84463,-0.80768 0,-0.4276 -0.37922,-0.77599 -0.86187,-0.77599 l -7.98077,0.0633 0.75844,1.17191 3.87835,-6.4139 c 0.22407,-0.38007 0.0688,-0.87102 -0.34476,-1.0769 -0.41368,-0.20589 -0.9308,-0.0793 -1.17211,0.3009 z"
         style="fill:#000000;fill-opacity:1;fill-rule:nonzero;stroke:#000000;stroke-width:0.297879;stroke-linecap:butt;stroke-linejoin:round;stroke-dasharray:none;stroke-opacity:1"
         inkscape:connector-curvature="0" />
      <path
         id="path3069"
         d="m 704.28108,315.24185 -1.51635,12.50162 -0.75819,6.17639 -0.70201,6.13919 -0.702,6.00895 -0.64586,5.91595 -0.58969,5.78572 -0.56162,5.61828 -0.50545,5.43226 -0.4493,5.28342 -0.39312,5.13459 -0.36505,5.02295 -0.33696,4.92996 -0.30888,4.85554 -0.47738,7.77631 2.77998,0.0744 0.47738,-7.7577 0.30888,-4.87414 v 0 l 0.33697,-4.91134 0.36504,-5.02298 v 0 l 0.42122,-5.13459 v 0 l 0.44928,-5.26482 v 0 l 0.47737,-5.43224 v 0 l 0.5616,-5.5997 0.61779,-5.7671 0.64584,-5.91594 v 0 l 0.67395,-6.02757 0.7301,-6.12059 0.73009,-6.17638 1.51635,-12.50161 z m -14.26495,79.43735 7.21672,9.02274 8.31186,-8.61348 c 0.4212,-0.42786 0.22464,-1.00458 -0.4212,-1.28364 -0.64587,-0.27904 -1.51636,-0.14883 -1.93756,0.27906 l -7.02017,7.27401 2.44301,0.0559 -6.09349,-7.60888 c -0.36504,-0.44649 -1.20746,-0.63252 -1.90949,-0.39067 -0.67393,0.24184 -0.92665,0.79995 -0.58968,1.26505 z"
         style="fill:#000000;fill-opacity:1;fill-rule:nonzero;stroke:#000000;stroke-width:0.0228561px;stroke-linecap:butt;stroke-linejoin:round;stroke-dasharray:none;stroke-opacity:1"
         inkscape:connector-curvature="0" />
      <path
         id="path3069-0"
         d="m 712.67042,221.27008 0.65354,-4.11633 0.32679,-2.03369 0.30256,-2.0214 0.30256,-1.97853 0.27835,-1.9479 0.25415,-1.90504 0.24206,-1.84987 0.21785,-1.78867 0.19364,-1.73964 0.16944,-1.69063 0.15733,-1.65388 0.14524,-1.62324 0.13312,-1.59876 0.20575,-2.56046 -1.19816,-0.0245 -0.20573,2.55431 -0.13314,1.60489 v 0 l -0.14523,1.61714 -0.15733,1.65387 v 0 l -0.18154,1.69065 v 0 l -0.19365,1.73349 v 0 l -0.20575,1.78865 v 0 l -0.24204,1.84378 -0.26627,1.89891 -0.27835,1.9479 v 0 l -0.29046,1.98467 -0.31468,2.0153 -0.31467,2.03363 -0.65352,4.11636 z m 6.14813,-26.15585 -3.11037,-2.97088 -3.58238,2.83613 c -0.18152,0.14087 -0.0969,0.33076 0.18154,0.42263 0.27838,0.0919 0.65355,0.049 0.83508,-0.0919 l 3.02566,-2.39508 -1.05293,-0.0184 2.62626,2.50532 c 0.15733,0.14701 0.52041,0.20827 0.82299,0.12863 0.29046,-0.0797 0.39937,-0.26339 0.25415,-0.41655 z"
         style="fill:#000000;fill-opacity:1;fill-rule:nonzero;stroke:#000000;stroke-width:1.51816;stroke-linecap:butt;stroke-linejoin:round;stroke-dasharray:none;stroke-opacity:1"
         inkscape:connector-curvature="0" />
      <path
         id="path3069-8"
         d="m 450.8936,311.33905 1.25162,12.09816 0.6258,5.97708 0.57946,5.94107 0.57945,5.81503 0.53312,5.72502 0.48674,5.59901 0.46355,5.43698 0.41725,5.25695 0.37083,5.1129 0.32452,4.96888 0.30129,4.86087 0.27812,4.77086 0.25497,4.69884 0.39404,7.52535 -2.29466,0.072 -0.39403,-7.50734 -0.25495,-4.71684 v 0 l -0.27814,-4.75286 -0.30132,-4.86088 v 0 l -0.34767,-4.96887 v 0 l -0.37085,-5.09492 v 0 l -0.39405,-5.25695 v 0 l -0.46355,-5.41897 -0.50992,-5.58099 -0.53311,-5.72502 v 0 l -0.55628,-5.83304 -0.60265,-5.92308 -0.60262,-5.97706 -1.25164,-12.09815 z m 11.77457,76.87377 -5.95683,8.73155 -6.86078,-8.33548 c -0.34768,-0.41407 -0.18544,-0.97218 0.34766,-1.24222 0.53314,-0.27006 1.25163,-0.14405 1.59931,0.27004 l 5.79459,7.03925 -2.01651,0.054 5.02971,-7.36332 c 0.30131,-0.43211 0.99666,-0.61212 1.57613,-0.37808 0.55626,0.23404 0.76487,0.77415 0.48672,1.22424 z"
         style="fill:#000000;fill-opacity:1;fill-rule:nonzero;stroke:#000000;stroke-width:0.0204276px;stroke-linecap:butt;stroke-linejoin:round;stroke-dasharray:none;stroke-opacity:1"
         inkscape:connector-curvature="0" />
      <path
         id="path3071"
         d="m 679.22762,308.36939 -8.72337,8.51741 -8.72328,8.48087 -8.88492,8.33466 -4.52319,4.13076 -4.604,4.05768 -4.60398,4.02109 -4.76552,3.94799 -4.76549,3.91144 -4.92713,3.80178 -5.00783,3.69211 -5.08861,3.65556 -5.16936,3.50933 -5.41167,3.43622 -5.41171,3.32653 -5.65402,3.21689 -5.65399,3.10722 -5.81559,2.99756 -5.8963,2.92442 -5.9771,2.85133 -6.05784,2.7782 -6.13868,2.70512 -6.21941,2.632 -6.30019,2.59544 -12.60037,5.08122 -12.76189,4.93498 -9.77337,3.72866 -2.58469,-1.38909 9.69261,-3.72867 v 0 l 12.76187,-4.93499 v 0 l 12.60038,-5.04466 v 0 l 6.21942,-2.55889 v 0 l 6.13865,-2.63199 v 0 l 6.13864,-2.70513 h -0.0806 l 6.05791,-2.74164 v 0 l 5.8963,-2.81478 v 0 l 5.89632,-2.92443 -0.0804,0.0366 5.81555,-2.99755 h -0.0804 l 5.73474,-3.07067 h -0.0806 l 5.57326,-3.1803 v 0.0365 l 5.41168,-3.28999 v 0 l 5.33092,-3.39966 h -0.0804 l 5.16941,-3.50932 v 0.0366 l 5.08861,-3.61897 v 0 l 4.9271,-3.69209 v 0 l 4.84625,-3.76523 v 0 l 4.76555,-3.87486 v 0 l 4.68474,-3.91147 v 0 l 4.68477,-4.02109 -0.0805,0.0366 4.60396,-4.05762 v 0 l 4.52319,-4.13078 v 0.0366 l 8.88487,-8.37121 v 0.0366 l 8.72333,-8.48088 v 0 l 8.72333,-8.51743 z m -152.01217,105.13358 -21.80832,1.71811 7.43097,-9.43133 c 0.32312,-0.47521 1.53471,-0.73109 2.58471,-0.58486 1.05003,0.18276 1.61544,0.69455 1.21161,1.16977 l -6.30019,7.9691 -2.26163,-1.20636 18.49669,-1.42562 c 1.05003,-0.10971 2.10004,0.2193 2.34238,0.73111 0.1615,0.51178 -0.56539,0.95043 -1.69622,1.06008 z"
         style="fill:#000000;fill-opacity:1;fill-rule:nonzero;stroke:#000000;stroke-width:0;stroke-linecap:butt;stroke-linejoin:round;stroke-dasharray:none;stroke-opacity:1"
         inkscape:connector-curvature="0" />
      <path
         id="path3071-9"
         d="m 558.96953,306.08667 -3.67883,7.54449 -3.6788,7.51213 -3.74696,7.38263 -1.90751,3.65892 -1.94161,3.59419 -1.9416,3.56177 -2.00972,3.49703 -2.00971,3.46465 -2.07787,3.36751 -2.11191,3.27038 -2.14598,3.238 -2.18003,3.10848 -2.28221,3.04371 -2.28224,2.94655 -2.38441,2.84944 -2.38441,2.75229 -2.45256,2.65517 -2.4866,2.59037 -2.52067,2.52563 -2.55472,2.46086 -2.58881,2.39612 -2.62285,2.33135 -2.65693,2.29898 -5.31384,4.50082 -5.38196,4.37127 -4.12165,3.30275 -1.09001,-1.23043 4.08758,-3.30275 v 0 l 5.38195,-4.37129 v 0 l 5.31385,-4.46842 v 0 l 2.62286,-2.2666 v 0 l 2.5888,-2.33135 v 0 l 2.58879,-2.39613 h -0.034 l 2.55474,-2.42847 v 0 l 2.4866,-2.49327 v 0 l 2.4866,-2.59038 -0.0339,0.0324 2.45254,-2.65516 h -0.0339 l 2.41846,-2.71991 h -0.034 l 2.35037,-2.81703 v 0.0323 l 2.28222,-2.91418 v 0 l 2.24816,-3.01133 h -0.0339 l 2.18005,-3.10846 v 0.0324 l 2.14598,-3.20559 v 0 l 2.07786,-3.27036 v 0 l 2.04377,-3.33514 v 0 l 2.00973,-3.43225 v 0 l 1.97566,-3.46468 v 0 l 1.97566,-3.56177 -0.034,0.0324 1.94159,-3.59413 v 0 l 1.90751,-3.65893 v 0.0324 l 3.74694,-7.415 v 0.0324 l 3.67882,-7.51214 v 0 l 3.67881,-7.54451 z m -64.10676,93.12457 -9.19704,1.52185 3.1338,-8.35402 c 0.13627,-0.42092 0.64722,-0.64758 1.09003,-0.51806 0.44282,0.16189 0.68127,0.61522 0.51096,1.03616 l -2.65692,7.05881 -0.95378,-1.06856 7.80044,-1.26277 c 0.44283,-0.0972 0.88564,0.19425 0.98784,0.6476 0.0681,0.45332 -0.23843,0.84186 -0.71533,0.93899 z"
         style="fill:#000000;fill-opacity:1;fill-rule:nonzero;stroke:#000000;stroke-width:1.22339;stroke-linecap:butt;stroke-linejoin:round;stroke-dasharray:none;stroke-opacity:1"
         inkscape:connector-curvature="0" />
      <path
         id="path3073"
         d="m 608.19086,225.46146 4.23733,-4.25389 4.17845,-4.20913 4.23734,-4.07479 4.23728,-3.98526 4.2373,-3.80615 2.11869,-1.79112 2.1775,-1.74634 2.11866,-1.70155 2.1775,-1.61201 2.17751,-1.52246 2.17751,-1.47766 2.11866,-1.34336 2.23637,-1.25377 2.17752,-1.16425 2.17748,-1.11945 2.17753,-1.02991 2.23635,-0.98508 4.35503,-1.74636 4.41386,-1.56721 4.35501,-1.43288 4.41387,-1.34338 1.64786,-0.44778 1.00047,2.0598 -1.589,0.49254 v 0 l -4.35501,1.29857 h 0.0588 l -4.35502,1.43289 0.0588,-0.0449 -4.35502,1.56721 0.0588,-0.0449 -4.29615,1.74634 v 0 l -2.11869,0.94034 v -0.0449 l -2.11862,1.02992 v 0 l -2.11867,1.07467 v 0 l -2.11865,1.11946 h 0.059 l -2.1775,1.25378 0.059,-0.0449 -2.11867,1.34335 v -0.045 l -2.11866,1.4329 v 0 l -2.11865,1.47767 h 0.0588 l -2.17751,1.56724 h 0.059 l -2.11867,1.65676 v 0 l -2.11864,1.70157 h 0.0589 l -2.11865,1.79115 v 0 l -4.23734,3.76132 0.0589,-0.0449 -4.23732,3.98524 v 0 l -4.17847,4.07477 v 0 l -4.23732,4.16439 v 0 l -4.17846,4.25387 z m 53.67265,-45.36012 15.94878,1.97024 -10.12247,9.5825 c -0.52967,0.49254 -1.4713,0.58211 -2.0598,0.1791 -0.64737,-0.40299 -0.76506,-1.07467 -0.23542,-1.56722 l 8.53347,-8.10483 0.88282,1.8359 -13.41815,-1.70158 c -0.82395,-0.0895 -1.35364,-0.67165 -1.23591,-1.29857 0.17655,-0.5821 0.88276,-0.98508 1.70668,-0.89554 z"
         style="fill:#000000;fill-opacity:1;fill-rule:nonzero;stroke:#000000;stroke-width:0.0513347px;stroke-linecap:butt;stroke-linejoin:round;stroke-dasharray:none;stroke-opacity:1"
         inkscape:connector-curvature="0" />
      <path
         id="path3075"
         d="m 454.02544,216.53606 15.40114,-8.09789 7.70057,-4.0288 7.65473,-3.98852 7.65474,-3.90794 7.56305,-3.82736 7.56306,-3.74679 7.51722,-3.62592 7.42556,-3.54535 7.3797,-3.3439 7.33389,-3.22305 7.19635,-3.0216 7.15053,-2.86044 7.05886,-2.65902 6.92135,-2.41728 3.43775,-1.16835 3.39191,-1.04749 3.39193,-1.0072 3.34608,-0.92662 6.60048,-1.7324 6.46298,-1.49065 6.41715,-1.28922 6.27963,-1.08777 6.23379,-0.92663 6.14212,-0.76546 6.05046,-0.60432 6.0046,-0.48347 5.95878,-0.40288 5.91293,-0.28202 5.86711,-0.24172 5.82126,-0.12086 5.82126,-0.12087 9.25902,-0.0806 0.0458,2.01441 -9.25902,0.0806 v 0 l -5.82127,0.12087 v 0 l -5.82126,0.12087 h 0.0458 l -5.86711,0.24172 h 0.0458 l -5.91294,0.28202 h 0.0458 l -5.95877,0.36259 h 0.0458 l -6.00462,0.52374 h 0.0458 l -6.05045,0.60432 v 0 l -6.09628,0.76547 h 0.0458 l -6.18797,0.88635 h 0.0458 l -6.27963,1.08777 h 0.0458 l -6.37131,1.28922 h 0.0458 l -6.46297,1.49065 v -0.0403 l -6.55466,1.7324 h 0.0458 l -3.34608,0.92661 v 0 l -3.34609,0.96691 h 0.0458 l -3.39191,1.08779 v -0.0403 l -3.39192,1.12806 v 0 l -6.92134,2.41728 h 0.0458 l -7.01302,2.61873 v 0 l -7.10469,2.86044 h 0.0458 l -7.19637,3.02161 v 0 l -7.28804,3.18275 v 0 l -7.37972,3.38419 0.0458,-0.0403 -7.42555,3.50506 v 0 l -7.47138,3.62592 v 0 l -7.56307,3.74679 v 0 l -7.56305,3.82736 v 0 l -7.65474,3.90793 v 0 l -7.65473,3.98852 h 0.0458 l -7.70057,4.0288 -15.40114,8.0979 z m 205.30269,-70.54433 10.90914,5.43888 -10.77163,5.68062 c -0.55004,0.28201 -1.23759,0.16114 -1.55845,-0.32231 -0.32085,-0.48346 -0.18335,-1.08778 0.3667,-1.41009 v 0 l 9.12151,-4.79427 v 1.77267 l -9.21319,-4.63312 c -0.55004,-0.28202 -0.73339,-0.88634 -0.41254,-1.36979 0.27503,-0.48346 1.00842,-0.64461 1.55846,-0.36259 z"
         style="fill:#000000;fill-opacity:1;fill-rule:nonzero;stroke:#000000;stroke-width:0.143;stroke-linecap:butt;stroke-linejoin:round;stroke-dasharray:none;stroke-opacity:1"
         inkscape:connector-curvature="0" />
      <path
         id="path3077"
         d="m 324.22501,222.08791 25.36049,-14.04435 25.23738,-13.81093 12.5161,-6.73039 12.47507,-6.53587 12.39299,-6.34136 12.31092,-6.10793 12.18781,-5.8356 12.0647,-5.56328 11.94159,-5.17423 11.77744,-4.8241 11.6133,-4.43506 11.40812,-4.00712 11.24397,-3.50136 11.03879,-2.99561 5.45784,-1.32274 5.37577,-1.16712 5.33473,-1.0504 5.29369,-0.93371 5.21163,-0.81697 5.17058,-0.66137 5.17058,-0.58356 5.08852,-0.46685 5.04747,-0.38905 5.00644,-0.27232 4.96541,-0.19452 4.9654,-0.0778 4.88334,-0.0389 4.88333,0.0778 4.84229,0.15562 4.80125,0.23343 4.76023,0.27232 4.76022,0.35015 4.71919,0.42794 4.71918,0.42794 9.31526,1.08931 9.23319,1.24493 9.23319,1.40055 9.15112,1.47834 9.11008,1.51727 7.09929,1.24493 -0.36932,1.90629 -7.0993,-1.20602 v 0 l -9.11008,-1.55617 v 0 l -9.11008,-1.47834 v 0 l -9.19215,-1.36165 v 0 l -9.23319,-1.24493 v 0 l -9.27423,-1.08931 v 0 l -4.67814,-0.46684 v 0 l -4.71919,-0.38905 h 0.041 l -4.76022,-0.35013 h 0.041 l -4.76022,-0.27234 v 0 l -4.80126,-0.23341 h 0.041 l -4.84229,-0.15562 h 0.041 l -4.84229,-0.0778 v 0 l -4.88334,0.0389 v 0 l -4.88333,0.0778 v 0 l -4.9654,0.19453 h 0.041 l -5.00644,0.27232 h 0.041 l -5.04748,0.35014 h 0.041 l -5.08852,0.46685 v 0 l -5.08851,0.58356 v 0 l -5.17059,0.70027 h 0.041 l -5.21162,0.77807 h 0.041 l -5.2937,0.93371 h 0.041 l -5.29369,1.0504 v 0 l -5.37577,1.16712 0.041,-0.0389 -5.4168,1.32274 h 0.041 l -10.99776,2.99561 0.041,-0.0389 -11.24397,3.54027 0.041,-0.0389 -11.40812,4.00712 0.041,-0.0389 -11.57226,4.43507 v 0 l -11.73641,4.78519 v 0 l -11.90056,5.21314 0.041,-0.0389 -12.06469,5.56328 v 0 l -12.14678,5.8356 v -0.0389 l -12.26988,6.10793 v 0 l -12.393,6.34136 v 0 l -12.43402,6.53587 v 0 l -12.55714,6.6915 v 0 l -25.19634,13.81092 v 0 l -25.36049,14.04436 z m 340.43792,-93.60307 8.57661,6.96382 -10.62843,3.61807 c -0.53347,0.19452 -1.10798,-0.0778 -1.31316,-0.58356 -0.16414,-0.50575 0.12311,-1.05041 0.65658,-1.24493 l 8.9049,-3.07341 -0.32829,1.67287 -7.18137,-5.8745 c -0.4514,-0.35015 -0.49244,-0.97261 -0.12311,-1.36165 0.36933,-0.42794 1.02591,-0.46684 1.43627,-0.11671 z"
         style="fill:#000000;fill-opacity:1;fill-rule:nonzero;stroke:#000000;stroke-width:0.14;stroke-linecap:butt;stroke-linejoin:round;stroke-dasharray:none;stroke-opacity:1"
         inkscape:connector-curvature="0" />
    </g>
  </g>
</svg>
