<?xml version="1.0" encoding="UTF-8" standalone="no"?>
<!--
Licensed to the Apache Software Foundation (ASF) under one
or more contributor license agreements.  See the NOTICE file
distributed with this work for additional information
regarding copyright ownership.  The ASF licenses this file
to you under the Apache License, Version 2.0 (the
"License"); you may not use this file except in compliance
with the License.  You may obtain a copy of the License at

http://www.apache.org/licenses/LICENSE-2.0

Unless required by applicable law or agreed to in writing,
software distributed under the License is distributed on an
"AS IS" BASIS, WITHOUT WARRANTIES OR CONDITIONS OF ANY
KIND, either express or implied.  See the License for the
specific language governing permissions and limitations
under the License.
-->

<svg
   xmlns:dc="http://purl.org/dc/elements/1.1/"
   xmlns:cc="http://creativecommons.org/ns#"
   xmlns:rdf="http://www.w3.org/1999/02/22-rdf-syntax-ns#"
   xmlns:svg="http://www.w3.org/2000/svg"
   xmlns="http://www.w3.org/2000/svg"
   version="1.1"
   width="922.50159"
   height="293.81097"
   id="svg2">
  <defs
     id="defs4" />
  <metadata
     id="metadata7">
    <rdf:RDF>
      <cc:Work
         rdf:about="">
        <dc:format>image/svg+xml</dc:format>
        <dc:type
           rdf:resource="http://purl.org/dc/dcmitype/StillImage" />
        <dc:title></dc:title>
      </cc:Work>
    </rdf:RDF>
  </metadata>
  <g
     transform="translate(-110.17777,-296.88527)"
     id="layer1">
    <g
       transform="translate(84.824534,262.63367)"
       id="g3402">
      <path
         d="m 26.181522,98.086936 0,160.502484 450.749798,0 0,-160.502484 -450.749798,0 z"
         id="path3404"
         style="fill:#c5e0b4;fill-opacity:1;fill-rule:evenodd;stroke:none" />
      <path
         d="m 26.181522,98.086936 450.749798,0 0,160.502484 -450.749798,0 z"
         id="path3406"
         style="fill:none;stroke:#935f1c;stroke-width:1.25656307px;stroke-linecap:butt;stroke-linejoin:miter;stroke-miterlimit:4;stroke-opacity:1;stroke-dasharray:none" />
      <text
         x="194.22502"
         y="119.99486"
         id="text3408"
         xml:space="preserve"
         style="font-size:17.55437279px;font-style:normal;font-weight:normal;text-align:start;text-anchor:start;fill:#000000;font-family:Verdana">TaskManager</text>
      <path
         d="m 36.656007,137.46237 0,112.52803 136.440243,0 0,-112.52803 -136.440243,0 z"
         id="path3410"
         style="fill:#e4eaf4;fill-opacity:1;fill-rule:evenodd;stroke:none" />
      <path
         d="m 36.656007,137.46237 136.440243,0 0,112.52803 -136.440243,0 z"
         id="path3412"
         style="fill:none;stroke:#898c92;stroke-width:1.24718571px;stroke-linecap:butt;stroke-linejoin:miter;stroke-miterlimit:4;stroke-opacity:1;stroke-dasharray:none" />
      <text
         x="71.012276"
         y="156.82913"
         id="text3414"
         xml:space="preserve"
         style="font-size:15.00373745px;font-style:normal;font-weight:normal;text-align:start;text-anchor:start;fill:#000000;font-family:Verdana">Task Slot</text>
      <path
         d="m 183.57073,137.47175 0,112.52803 136.44024,0 0,-112.52803 -136.44024,0 z"
         id="path3416"
         style="fill:#e4eaf4;fill-opacity:1;fill-rule:evenodd;stroke:none" />
      <path
         d="m 183.57073,137.47175 136.44024,0 0,112.52803 -136.44024,0 z"
         id="path3418"
         style="fill:none;stroke:#898c92;stroke-width:1.25656307px;stroke-linecap:butt;stroke-linejoin:miter;stroke-miterlimit:4;stroke-opacity:1;stroke-dasharray:none" />
      <text
         x="217.92635"
         y="156.82913"
         id="text3420"
         xml:space="preserve"
         style="font-size:15.00373745px;font-style:normal;font-weight:normal;text-align:start;text-anchor:start;fill:#000000;font-family:Verdana">Task Slot</text>
      <path
         d="m 330.47608,137.30296 0,112.52803 136.44024,0 0,-112.52803 -136.44024,0 z"
         id="path3422"
         style="fill:#e4eaf4;fill-opacity:1;fill-rule:evenodd;stroke:none" />
      <path
         d="m 330.47608,137.30296 136.44024,0 0,112.52803 -136.44024,0 z"
         id="path3424"
         style="fill:none;stroke:#898c92;stroke-width:1.25656307px;stroke-linecap:butt;stroke-linejoin:miter;stroke-miterlimit:4;stroke-opacity:1;stroke-dasharray:none" />
      <text
         x="364.84039"
         y="156.76062"
         id="text3426"
         xml:space="preserve"
         style="font-size:15.00373745px;font-style:normal;font-weight:normal;text-align:start;text-anchor:start;fill:#000000;font-family:Verdana">Task Slot</text>
      <path
         d="m 47.749396,203.732 c 0,-17.69503 14.347324,-32.04235 32.042357,-32.04235 17.695033,0 32.042357,14.34732 32.042357,32.04235 0,17.69504 -14.347324,32.03298 -32.042357,32.03298 -17.695033,0 -32.042357,-14.33794 -32.042357,-32.03298"
         id="path3428"
         style="fill:#ffd966;fill-opacity:1;fill-rule:evenodd;stroke:none" />
      <path
         d="m 47.749396,203.732 c 0,-17.69503 14.347324,-32.04235 32.042357,-32.04235 17.695033,0 32.042357,14.34732 32.042357,32.04235 0,17.69504 -14.347324,32.03298 -32.042357,32.03298 -17.695033,0 -32.042357,-14.33794 -32.042357,-32.03298"
         id="path3430"
         style="fill:none;stroke:#000000;stroke-width:0.62828153px;stroke-linecap:butt;stroke-linejoin:miter;stroke-miterlimit:4;stroke-opacity:1;stroke-dasharray:none" />
      <text
         x="62.373657"
         y="201.69257"
         id="text3432"
         xml:space="preserve"
         style="font-size:10.05250454px;font-style:normal;font-weight:normal;text-align:start;text-anchor:start;fill:#000000;font-family:Verdana">Source</text>
      <text
         x="72.126091"
         y="213.69556"
         id="text3434"
         xml:space="preserve"
         style="font-size:10.05250454px;font-style:italic;font-weight:normal;text-align:start;text-anchor:start;fill:#000000;font-family:Verdana">[1]</text>
      <path
         d="m 97.449277,203.732 c 0,-17.69503 14.347323,-32.04235 32.042353,-32.04235 17.69504,0 32.04236,14.34732 32.04236,32.04235 0,17.69504 -14.34732,32.03298 -32.04236,32.03298 -17.69503,0 -32.042353,-14.33794 -32.042353,-32.03298"
         id="path3436"
         style="fill:#ffd966;fill-opacity:1;fill-rule:evenodd;stroke:none" />
      <path
         d="m 97.449277,203.732 c 0,-17.69503 14.347323,-32.04235 32.042353,-32.04235 17.69504,0 32.04236,14.34732 32.04236,32.04235 0,17.69504 -14.34732,32.03298 -32.04236,32.03298 -17.69503,0 -32.042353,-14.33794 -32.042353,-32.03298"
         id="path3438"
         style="fill:none;stroke:#000000;stroke-width:0.62828153px;stroke-linecap:butt;stroke-linejoin:miter;stroke-miterlimit:4;stroke-opacity:1;stroke-dasharray:none" />
      <text
         x="113.99941"
         y="201.69257"
         id="text3440"
         xml:space="preserve"
         style="font-size:10.05250454px;font-style:normal;font-weight:normal;text-align:start;text-anchor:start;fill:#000000;font-family:Verdana">map()</text>
      <text
         x="121.80136"
         y="213.69556"
         id="text3442"
         xml:space="preserve"
         style="font-size:10.05250454px;font-style:italic;font-weight:normal;text-align:start;text-anchor:start;fill:#000000;font-family:Verdana">[1]</text>
      <path
         d="m 219.82351,204.04146 c 0,-17.69504 14.34733,-32.04236 32.04236,-32.04236 17.69503,0 32.04236,14.34732 32.04236,32.04236 0,17.69503 -14.34733,32.04235 -32.04236,32.04235 -17.69503,0 -32.04236,-14.34732 -32.04236,-32.04235"
         id="path3444"
         style="fill:#ffd966;fill-opacity:1;fill-rule:evenodd;stroke:none" />
      <text
         x="229.63536"
         y="190.0311"
         id="text3446"
         xml:space="preserve"
         style="font-size:10.05250454px;font-style:normal;font-weight:normal;text-align:start;text-anchor:start;fill:#000000;font-family:Verdana">keyBy</text>
      <text
         x="260.54306"
         y="190.0311"
         id="text3448"
         xml:space="preserve"
         style="font-size:10.05250454px;font-style:normal;font-weight:normal;text-align:start;text-anchor:start;fill:#000000;font-family:Verdana">()/</text>
      <text
         x="226.18449"
         y="202.03407"
         id="text3450"
         xml:space="preserve"
         style="font-size:10.05250454px;font-style:normal;font-weight:normal;text-align:start;text-anchor:start;fill:#000000;font-family:Verdana">window()/</text>
      <text
         x="233.68637"
         y="214.03706"
         id="text3452"
         xml:space="preserve"
         style="font-size:10.05250454px;font-style:normal;font-weight:normal;text-align:start;text-anchor:start;fill:#000000;font-family:Verdana">apply()</text>
      <text
         x="244.18898"
         y="226.04005"
         id="text3454"
         xml:space="preserve"
         style="font-size:10.05250454px;font-style:italic;font-weight:normal;text-align:start;text-anchor:start;fill:#000000;font-family:Verdana">[1]</text>
      <path
         d="m 362.52781,202.64423 c 0,-17.70441 14.34733,-32.05173 32.03298,-32.05173 17.70442,0 32.03299,14.34732 32.03299,32.05173 0,17.68566 -14.32857,32.03298 -32.03299,32.03298 -17.68565,0 -32.03298,-14.34732 -32.03298,-32.03298"
         id="path3456"
         style="fill:#ffd966;fill-opacity:1;fill-rule:evenodd;stroke:none" />
      <text
         x="383.62009"
         y="200.63976"
         id="text3458"
         xml:space="preserve"
         style="font-size:10.05250454px;font-style:normal;font-weight:normal;text-align:start;text-anchor:start;fill:#000000;font-family:Verdana">Sink</text>
      <text
         x="386.9209"
         y="212.64275"
         id="text3460"
         xml:space="preserve"
         style="font-size:10.05250454px;font-style:italic;font-weight:normal;text-align:start;text-anchor:start;fill:#000000;font-family:Verdana">[1]</text>
      <path
         d="m 42.91069,228.62883 0,-1.24718 1.247186,0 0,1.24718 -1.247186,0 z m 0,-2.49437 0,-1.25656 1.247186,0 0,1.25656 -1.247186,0 z m 0,-2.50375 0,-1.24718 1.247186,0 0,1.24718 -1.247186,0 z m 0,-2.50375 0,-1.24718 1.247186,0 0,1.24718 -1.247186,0 z m 0,-2.49437 0,-1.25656 1.247186,0 0,1.25656 -1.247186,0 z m 0,-2.50375 0,-1.24718 1.247186,0 0,1.24718 -1.247186,0 z m 0,-2.50375 0,-1.24718 1.247186,0 0,1.24718 -1.247186,0 z m 0,-2.49437 0,-1.25656 1.247186,0 0,1.25656 -1.247186,0 z m 0,-2.50375 0,-1.24718 1.247186,0 0,1.24718 -1.247186,0 z m 0,-2.50374 0,-1.24719 1.247186,0 0,1.24719 -1.247186,0 z m 0,-2.49438 0,-1.25656 1.247186,0 0,1.25656 -1.247186,0 z m 0,-2.50374 0,-1.24719 1.247186,0 0,1.24719 -1.247186,0 z m 0,-2.50375 0,-1.24719 1.247186,0 0,1.24719 -1.247186,0 z m 0,-2.49437 0,-1.25657 1.247186,0 0,1.25657 -1.247186,0 z m 0,-2.50375 0,-1.24719 1.247186,0 0,1.24719 -1.247186,0 z m 0,-2.50375 0,-1.24719 1.247186,0 0,1.24719 -1.247186,0 z m 0,-2.49437 0,-1.25657 1.247186,0 0,1.25657 -1.247186,0 z m 0,-2.50375 0,-1.24719 1.247186,0 0,1.24719 -1.247186,0 z m 0,-2.50375 0,-1.24719 1.247186,0 0,1.24719 -1.247186,0 z m 0,-2.49437 0,-1.25657 1.247186,0 0,1.25657 -1.247186,0 z m 0.0094,-2.53188 0.05626,-1.09715 0.02813,-0.21568 1.237809,0.18755 -0.02813,0.17817 0.0094,-0.0563 -0.05626,1.06902 -1.247186,-0.0656 z m 0.309453,-2.6069 0.271942,-1.04089 0.07502,-0.21568 1.172167,0.42198 -0.06564,0.18755 0.01875,-0.0563 -0.262565,1.02213 -1.209676,-0.31883 z m 0.815828,-2.485 0.440735,-0.9096 0.159414,-0.26256 1.069017,0.65641 -0.150038,0.23443 0.03751,-0.0563 -0.431358,0.88147 -1.12528,-0.54389 z m 1.312827,-2.25993 0.534508,-0.73144 0.271943,-0.30007 0.928356,0.84396 -0.253188,0.27194 0.03751,-0.0469 -0.515753,0.7033 -1.003375,-0.7408 z m 1.72543,-1.96925 0.581395,-0.5345 0.42198,-0.30946 0.740809,1.00338 -0.393848,0.2907 0.04689,-0.0375 -0.553263,0.50637 -0.84396,-0.91898 z m 2.081768,-1.57539 0.581395,-0.36571 0.56264,-0.27195 0.543886,1.12528 -0.534508,0.25319 0.05626,-0.0281 -0.56264,0.34696 -0.647037,-1.05964 z m 2.353712,-1.14403 0.581395,-0.2063 0.66579,-0.17817 0.31883,1.20967 -0.647036,0.16879 0.05626,-0.0188 -0.553263,0.19692 -0.42198,-1.17216 z m 2.541258,-0.63766 0.590772,-0.0938 0.712678,-0.0375 0.06564,1.24718 -0.684546,0.0375 0.05626,-0.009 -0.553262,0.0844 -0.187547,-1.22843 z m 2.588145,-0.15942 1.247185,0 0,1.24719 -1.247185,0 0,-1.24719 z m 2.494371,0 1.256563,0 0,1.24719 -1.256563,0 0,-1.24719 z m 2.503749,0 1.247185,0 0,1.24719 -1.247185,0 0,-1.24719 z m 2.503748,0 1.247186,0 0,1.24719 -1.247186,0 0,-1.24719 z m 2.494372,0 1.256563,0 0,1.24719 -1.256563,0 0,-1.24719 z m 2.503749,0 1.247185,0 0,1.24719 -1.247185,0 0,-1.24719 z m 2.503748,0 1.247186,0 0,1.24719 -1.247186,0 0,-1.24719 z m 2.494372,0 1.256563,0 0,1.24719 -1.256563,0 0,-1.24719 z m 2.503749,0 1.247185,0 0,1.24719 -1.247185,0 0,-1.24719 z m 2.503748,0 1.247186,0 0,1.24719 -1.247186,0 0,-1.24719 z m 2.494372,0 1.256563,0 0,1.24719 -1.256563,0 0,-1.24719 z m 2.503748,0 1.247186,0 0,1.24719 -1.247186,0 0,-1.24719 z m 2.503749,0 1.247186,0 0,1.24719 -1.247186,0 0,-1.24719 z m 2.494372,0 1.256563,0 0,1.24719 -1.256563,0 0,-1.24719 z m 2.503748,0 1.247186,0 0,1.24719 -1.247186,0 0,-1.24719 z m 2.503749,0 1.247186,0 0,1.24719 -1.247186,0 0,-1.24719 z m 2.494371,0 1.256564,0 0,1.24719 -1.256564,0 0,-1.24719 z m 2.503749,0 1.247185,0 0,1.24719 -1.247185,0 0,-1.24719 z m 2.503745,0 1.24719,0 0,1.24719 -1.24719,0 0,-1.24719 z m 2.49437,0 1.25657,0 0,1.24719 -1.25657,0 0,-1.24719 z m 2.50375,0 1.24719,0 0,1.24719 -1.24719,0 0,-1.24719 z m 2.50375,0 1.24719,0 0,1.24719 -1.24719,0 0,-1.24719 z m 2.49437,0 1.25656,0 0,1.24719 -1.25656,0 0,-1.24719 z m 2.50375,0 1.24719,0 0,1.24719 -1.24719,0 0,-1.24719 z m 2.50375,0 1.24718,0 0,1.24719 -1.24718,0 0,-1.24719 z m 2.49437,0 1.25656,0 0,1.24719 -1.25656,0 0,-1.24719 z m 2.50375,0 1.24718,0 0,1.24719 -1.24718,0 0,-1.24719 z m 2.50375,0 1.24718,0 0,1.24719 -1.24718,0 0,-1.24719 z m 2.49437,0 1.25656,0 0,1.24719 -1.25656,0 0,-1.24719 z m 2.50375,0 1.24718,0 0,1.24719 -1.24718,0 0,-1.24719 z m 2.50375,0 1.24718,0 0,1.24719 -1.24718,0 0,-1.24719 z m 2.49437,0 1.25656,0 0,1.24719 -1.25656,0 0,-1.24719 z m 2.50375,0 1.24718,0 0,1.24719 -1.24718,0 0,-1.24719 z m 2.50375,0 1.24718,0 0,1.24719 -1.24718,0 0,-1.24719 z m 2.49437,0 1.25656,0 0,1.24719 -1.25656,0 0,-1.24719 z m 2.50375,0 1.24718,0 0,1.24719 -1.24718,0 0,-1.24719 z m 2.50374,0 1.24719,0 0,1.24719 -1.24719,0 0,-1.24719 z m 2.49438,0 1.25656,0 0,1.24719 -1.25656,0 0,-1.24719 z m 2.53188,0.0563 0.13128,0.009 1.17217,0.17817 -0.18755,1.23781 -1.14404,-0.17817 0.0657,0.009 -0.10315,-0.009 0.0656,-1.24718 z m 2.57876,0.50637 0.10315,0.0281 1.12529,0.40322 -0.42199,1.17217 -1.09714,-0.39385 0.0563,0.0188 -0.0844,-0.0188 0.31883,-1.20968 z m 2.41936,0.994 0.0281,0.0188 1.07839,0.65641 0.0563,0.0469 -0.74081,1.00337 -0.0375,-0.0281 0.0469,0.0281 -1.02213,-0.62828 0.0469,0.0281 0,0 0.54389,-1.12528 z m 2.21305,1.50975 0.83458,0.75957 0.11253,0.13128 -0.91898,0.84396 -0.10315,-0.11253 0.0375,0.0469 -0.80645,-0.75019 0.84396,-0.91898 z m 1.8192,1.88485 0.60953,0.81583 0.15004,0.24381 -1.06902,0.65641 -0.13128,-0.22506 0.0281,0.0469 -0.59077,-0.79707 1.00337,-0.74081 z m 1.41598,2.19429 0.40322,0.84396 0.13129,0.35634 -1.18155,0.42198 -0.11253,-0.3282 0.0188,0.0563 -0.38447,-0.80645 1.12528,-0.54389 z m 0.93773,2.43811 0.22506,0.85334 0.0656,0.43136 -1.23781,0.18754 -0.0563,-0.40322 0.009,0.0656 -0.21567,-0.81583 1.20967,-0.31883 z m 0.44074,2.58815 0.0469,0.89084 0,0.38447 -1.24718,0 0,-0.37509 0,0.0375 -0.0469,-0.87209 1.24719,-0.0656 z m 0.0469,2.53188 0,1.24718 -1.24718,0 0,-1.24718 1.24718,0 z m 0,2.49437 0,1.25656 -1.24718,0 0,-1.25656 1.24718,0 z m 0,2.50375 0,1.24718 -1.24718,0 0,-1.24718 1.24718,0 z m 0,2.50375 0,1.24718 -1.24718,0 0,-1.24718 1.24718,0 z m 0,2.49437 0,1.25656 -1.24718,0 0,-1.25656 1.24718,0 z m 0,2.50375 0,1.24718 -1.24718,0 0,-1.24718 1.24718,0 z m 0,2.50374 0,1.24719 -1.24718,0 0,-1.24719 1.24718,0 z m 0,2.49438 0,1.25656 -1.24718,0 0,-1.25656 1.24718,0 z m 0,2.50374 0,1.24719 -1.24718,0 0,-1.24719 1.24718,0 z m 0,2.50375 0,1.24719 -1.24718,0 0,-1.24719 1.24718,0 z m 0,2.49437 0,1.25657 -1.24718,0 0,-1.25657 1.24718,0 z m 0,2.50375 0,1.24719 -1.24718,0 0,-1.24719 1.24718,0 z m 0,2.50375 0,1.24719 -1.24718,0 0,-1.24719 1.24718,0 z m 0,2.49437 0,1.25657 -1.24718,0 0,-1.25657 1.24718,0 z m 0,2.50375 0,1.24719 -1.24718,0 0,-1.24719 1.24718,0 z m 0,2.50375 0,1.24719 -1.24718,0 0,-1.24719 1.24718,0 z m 0,2.49437 0,1.25657 -1.24718,0 0,-1.25657 1.24718,0 z m 0,2.50375 0,1.24719 -1.24718,0 0,-1.24719 1.24718,0 z m 0,2.50375 0,1.24719 -1.24718,0 0,-1.24719 1.24718,0 z m 0,2.49437 0,0.68455 -0.0281,0.60015 -1.24718,-0.0656 0.0281,-0.5814 0,0.0281 0,-0.66579 1.24718,0 z m -0.15941,2.58815 -0.10315,0.72205 -0.15004,0.57202 -1.20968,-0.31883 0.14066,-0.53451 -0.009,0.0563 0.10315,-0.68454 1.22843,0.18755 z m -0.63766,2.54125 -0.22506,0.62829 -0.28132,0.58139 -1.12528,-0.54388 0.26257,-0.55327 -0.0188,0.0656 0.21568,-0.60015 1.17217,0.42198 z m -1.13466,2.36309 -0.30007,0.497 -0.43136,0.5814 -1.00337,-0.75019 0.4126,-0.55326 -0.0281,0.0469 0.28132,-0.47824 1.06901,0.65641 z m -1.58477,2.08177 -0.30945,0.34696 -0.6189,0.56264 -0.84396,-0.92835 0.59077,-0.54389 -0.0375,0.0375 0.30007,-0.31883 0.91898,0.84396 z m -1.95986,1.72543 -0.2907,0.21568 -0.80645,0.48762 -0.64703,-1.05964 0.77831,-0.47824 -0.0469,0.0281 0.27194,-0.2063 0.74081,1.01275 z m -2.25994,1.30345 -0.25319,0.12191 -0.97524,0.35634 -0.42198,-1.18155 0.94711,-0.33758 -0.0656,0.0188 0.22506,-0.10315 0.54388,1.12528 z m -2.48499,0.82521 -0.21568,0.0563 -1.07839,0.15942 -0.18755,-1.23781 1.04088,-0.15004 -0.0563,0.009 0.17817,-0.0469 0.31883,1.20968 z m -2.6069,0.30945 -0.23444,0.009 -1.05026,0 0,-1.24719 1.03151,0 -0.0281,0 0.21568,-0.009 0.0656,1.24719 z m -2.53188,0.009 -1.24719,0 0,-1.24719 1.24719,0 0,1.24719 z m -2.50375,0 -1.24719,0 0,-1.24719 1.24719,0 0,1.24719 z m -2.49437,0 -1.25657,0 0,-1.24719 1.25657,0 0,1.24719 z m -2.50375,0 -1.24719,0 0,-1.24719 1.24719,0 0,1.24719 z m -2.50375,0 -1.24719,0 0,-1.24719 1.24719,0 0,1.24719 z m -2.49437,0 -1.25656,0 0,-1.24719 1.25656,0 0,1.24719 z m -2.50375,0 -1.24719,0 0,-1.24719 1.24719,0 0,1.24719 z m -2.50375,0 -1.24718,0 0,-1.24719 1.24718,0 0,1.24719 z m -2.49437,0 -1.25656,0 0,-1.24719 1.25656,0 0,1.24719 z m -2.50375,0 -1.24718,0 0,-1.24719 1.24718,0 0,1.24719 z m -2.50375,0 -1.24718,0 0,-1.24719 1.24718,0 0,1.24719 z m -2.49437,0 -1.25656,0 0,-1.24719 1.25656,0 0,1.24719 z m -2.50375,0 -1.24718,0 0,-1.24719 1.24718,0 0,1.24719 z m -2.50375,0 -1.24718,0 0,-1.24719 1.24718,0 0,1.24719 z m -2.49437,0 -1.25656,0 0,-1.24719 1.25656,0 0,1.24719 z m -2.50375,0 -1.24718,0 0,-1.24719 1.24718,0 0,1.24719 z m -2.50375,0 -1.24718,0 0,-1.24719 1.24718,0 0,1.24719 z m -2.49437,0 -1.25656,0 0,-1.24719 1.25656,0 0,1.24719 z m -2.50375,0 -1.24718,0 0,-1.24719 1.24718,0 0,1.24719 z m -2.50374,0 -1.247187,0 0,-1.24719 1.247187,0 0,1.24719 z m -2.494373,0 -1.256563,0 0,-1.24719 1.256563,0 0,1.24719 z m -2.503749,0 -1.247186,0 0,-1.24719 1.247186,0 0,1.24719 z m -2.503749,0 -1.247185,0 0,-1.24719 1.247185,0 0,1.24719 z m -2.494371,0 -1.256563,0 0,-1.24719 1.256563,0 0,1.24719 z m -2.503749,0 -1.247185,0 0,-1.24719 1.247185,0 0,1.24719 z m -2.503748,0 -1.247186,0 0,-1.24719 1.247186,0 0,1.24719 z m -2.494372,0 -1.256563,0 0,-1.24719 1.256563,0 0,1.24719 z m -2.503749,0 -1.247185,0 0,-1.24719 1.247185,0 0,1.24719 z m -2.503748,0 -1.247186,0 0,-1.24719 1.247186,0 0,1.24719 z m -2.494372,0 -1.256563,0 0,-1.24719 1.256563,0 0,1.24719 z m -2.503749,0 -1.247185,0 0,-1.24719 1.247185,0 0,1.24719 z m -2.503748,0 -1.247186,0 0,-1.24719 1.247186,0 0,1.24719 z m -2.494372,0 -1.256563,0 0,-1.24719 1.256563,0 0,1.24719 z m -2.503748,0 -1.247186,0 0,-1.24719 1.247186,0 0,1.24719 z m -2.503749,0 -1.247186,0 0,-1.24719 1.247186,0 0,1.24719 z m -2.494372,0 -1.256563,0 0,-1.24719 1.256563,0 0,1.24719 z m -2.503748,0 -1.247186,0 0,-1.24719 1.247186,0 0,1.24719 z m -2.531881,-0.0188 -1.003375,-0.0469 -0.300075,-0.0469 0.187547,-1.23781 0.262565,0.0469 -0.05626,-0.009 0.975243,0.0469 -0.06564,1.24718 z m -2.597522,-0.31883 -0.956488,-0.25319 -0.300075,-0.10315 0.42198,-1.18154 0.271943,0.10315 -0.05626,-0.0188 0.928356,0.24382 -0.309452,1.20967 z m -2.484994,-0.84396 -0.825206,-0.39385 -0.337584,-0.2063 0.656414,-1.06901 0.309452,0.19692 -0.05626,-0.0375 0.797073,0.38447 -0.543885,1.12528 z m -2.250561,-1.31283 -0.656413,-0.48762 -0.365717,-0.33758 0.843961,-0.92836 0.337584,0.31883 -0.04689,-0.0375 0.628282,0.45949 -0.74081,1.01275 z m -1.959863,-1.74418 -0.468867,-0.51575 -0.365716,-0.48762 1.003375,-0.75019 0.346961,0.46887 -0.03751,-0.0563 0.450112,0.497 -0.928356,0.84396 z m -1.566015,-2.09115 -0.309452,-0.51575 -0.309452,-0.63766 1.12528,-0.54388 0.300075,0.60952 -0.03751,-0.0469 0.300075,0.48762 -1.069016,0.64703 z m -1.115903,-2.36308 -0.17817,-0.497 -0.196924,-0.75957 1.209677,-0.30945 0.187546,0.73143 -0.01875,-0.0563 0.168792,0.45949 -1.172167,0.43136 z m -0.628282,-2.54126 -0.07502,-0.50638 -0.03751,-0.80645 1.247186,-0.0656 0.03751,0.77832 -0.0094,-0.0656 0.07502,0.47824 -1.237809,0.18755 z"
         id="path3462"
         style="fill:#000000;fill-opacity:1;fill-rule:nonzero;stroke:#000000;stroke-width:0.00937734px;stroke-linecap:butt;stroke-linejoin:round;stroke-opacity:1;stroke-dasharray:none" />
      <path
         d="m 215.7725,229.43528 0,-1.24718 1.24719,0 0,1.24718 -1.24719,0 z m 0,-2.49437 0,-1.25656 1.24719,0 0,1.25656 -1.24719,0 z m 0,-2.50375 0,-1.24718 1.24719,0 0,1.24718 -1.24719,0 z m 0,-2.50375 0,-1.24718 1.24719,0 0,1.24718 -1.24719,0 z m 0,-2.49437 0,-1.25656 1.24719,0 0,1.25656 -1.24719,0 z m 0,-2.50375 0,-1.24718 1.24719,0 0,1.24718 -1.24719,0 z m 0,-2.50374 0,-1.24719 1.24719,0 0,1.24719 -1.24719,0 z m 0,-2.49438 0,-1.25656 1.24719,0 0,1.25656 -1.24719,0 z m 0,-2.50374 0,-1.24719 1.24719,0 0,1.24719 -1.24719,0 z m 0,-2.50375 0,-1.24719 1.24719,0 0,1.24719 -1.24719,0 z m 0,-2.49438 0,-1.25656 1.24719,0 0,1.25656 -1.24719,0 z m 0,-2.50374 0,-1.24719 1.24719,0 0,1.24719 -1.24719,0 z m 0,-2.50375 0,-1.24719 1.24719,0 0,1.24719 -1.24719,0 z m 0,-2.49437 0,-1.25657 1.24719,0 0,1.25657 -1.24719,0 z m 0,-2.50375 0,-1.24719 1.24719,0 0,1.24719 -1.24719,0 z m 0,-2.50375 0,-1.24719 1.24719,0 0,1.24719 -1.24719,0 z m 0,-2.49437 0,-1.25657 1.24719,0 0,1.25657 -1.24719,0 z m 0,-2.50375 0,-1.24719 1.24719,0 0,1.24719 -1.24719,0 z m 0,-2.50375 0,-1.24719 1.24719,0 0,1.24719 -1.24719,0 z m 0,-2.49437 0,-1.25656 1.24719,0 0,1.25656 -1.24719,0 z m 0,-2.50375 0,-0.7877 0.0281,-0.497 1.24718,0.0656 -0.0281,0.47824 0,-0.0375 0,0.77832 -1.24719,0 z m 0.14066,-2.58815 0.11253,-0.72205 0.14066,-0.56264 1.21906,0.30945 -0.14066,0.53451 0.009,-0.0656 -0.10315,0.69392 -1.23781,-0.18755 z m 0.64704,-2.54125 0.19692,-0.54389 0.31883,-0.65641 1.12528,0.54388 -0.30007,0.62828 0.0187,-0.0563 -0.18754,0.51575 -1.17217,-0.43135 z m 1.15341,-2.34434 0.2063,-0.33758 0.54389,-0.73143 1.00337,0.75018 -0.52513,0.7033 0.0281,-0.0469 -0.18755,0.31883 -1.06902,-0.65642 z m 1.60353,-2.05363 0.13128,-0.15004 0.83458,-0.75019 0.83459,0.92836 -0.80645,0.73143 0.0469,-0.0469 -0.10315,0.12191 -0.93773,-0.83458 z m 2.06301,-1.71606 0.97524,-0.59077 0.15004,-0.075 0.54389,1.12528 -0.13129,0.0656 0.0563,-0.0375 -0.94711,0.5814 -0.64704,-1.06902 z m 2.3162,-1.20967 0.91898,-0.33759 0.32821,-0.0844 0.30945,1.20967 -0.30007,0.075 0.0563,-0.0187 -0.88147,0.3282 -0.43136,-1.17216 z m 2.52251,-0.7033 0.85333,-0.13129 0.45012,-0.0281 0.0656,1.25657 -0.42198,0.0187 0.0563,-0.009 -0.81583,0.12191 -0.18754,-1.22843 z m 2.58814,-0.19693 1.24719,0 0,1.24719 -1.24719,0 0,-1.24719 z m 2.50375,0 1.24719,0 0,1.24719 -1.24719,0 0,-1.24719 z m 2.49437,0 1.25656,0 0,1.24719 -1.25656,0 0,-1.24719 z m 2.50375,0 1.24719,0 0,1.24719 -1.24719,0 0,-1.24719 z m 2.50375,0 1.24718,0 0,1.24719 -1.24718,0 0,-1.24719 z m 2.49437,0 1.25656,0 0,1.24719 -1.25656,0 0,-1.24719 z m 2.50375,0 1.24719,0 0,1.24719 -1.24719,0 0,-1.24719 z m 2.50375,0 1.24718,0 0,1.24719 -1.24718,0 0,-1.24719 z m 2.49437,0 1.25656,0 0,1.24719 -1.25656,0 0,-1.24719 z m 2.50375,0 1.24718,0 0,1.24719 -1.24718,0 0,-1.24719 z m 2.50375,0 1.24718,0 0,1.24719 -1.24718,0 0,-1.24719 z m 2.49437,0 1.25656,0 0,1.24719 -1.25656,0 0,-1.24719 z m 2.50375,0 1.24718,0 0,1.24719 -1.24718,0 0,-1.24719 z m 2.50375,0 1.24718,0 0,1.24719 -1.24718,0 0,-1.24719 z m 2.49437,0 1.25656,0 0,1.24719 -1.25656,0 0,-1.24719 z m 2.50375,0 1.24718,0 0,1.24719 -1.24718,0 0,-1.24719 z m 2.50374,0 1.24719,0 0,1.24719 -1.24719,0 0,-1.24719 z m 2.49438,0 1.25656,0 0,1.24719 -1.25656,0 0,-1.24719 z m 2.50374,0 1.24719,0 0,1.24719 -1.24719,0 0,-1.24719 z m 2.53189,0.009 1.10652,0.0563 0.19693,0.0281 -0.17817,1.2378 -0.1688,-0.0281 0.0563,0.009 -1.0784,-0.0563 0.0657,-1.24719 z m 2.59752,0.30945 0.96586,0.24381 0.30008,0.10315 -0.43136,1.18155 -0.27194,-0.10315 0.0656,0.0187 -0.93773,-0.23443 0.30945,-1.20968 z m 2.48499,0.83459 0.74081,0.36571 0.4126,0.25319 -0.64703,1.06902 -0.38447,-0.24382 0.0563,0.0375 -0.72205,-0.34696 0.54388,-1.13465 z m 2.24119,1.34095 0.50637,0.3751 0.50638,0.45949 -0.84396,0.92835 -0.47825,-0.44073 0.0469,0.0375 -0.47824,-0.35634 0.74081,-1.00338 z m 1.93173,1.77232 0.28132,0.30945 0.5345,0.71268 -1.00337,0.75019 -0.51575,-0.69393 0.0375,0.0469 -0.26257,-0.2907 0.92836,-0.83458 z m 1.51912,2.11928 0.11253,0.19692 0.47825,0.97525 -1.13466,0.54388 -0.45949,-0.95649 0.0375,0.0563 -0.10315,-0.15942 1.06901,-0.65641 z m 1.05027,2.4006 0.0188,0.0563 0.30945,1.2003 0.009,0.075 -1.23781,0.18755 0,-0.0469 0.009,0.0656 -0.2907,-1.14404 0.0188,0.0563 -0.009,-0.0188 1.17217,-0.43135 z m 0.52513,2.63503 0.0563,1.14403 0,0.13129 -1.24718,0 0,-0.12191 0,0.0375 -0.0657,-1.12528 1.25657,-0.0656 z m 0.0563,2.53188 0,1.24718 -1.24718,0 0,-1.24718 1.24718,0 z m 0,2.49437 0,1.25656 -1.24718,0 0,-1.25656 1.24718,0 z m 0,2.50375 0,1.24718 -1.24718,0 0,-1.24718 1.24718,0 z m 0,2.50375 0,1.24718 -1.24718,0 0,-1.24718 1.24718,0 z m 0,2.49437 0,1.25656 -1.24718,0 0,-1.25656 1.24718,0 z m 0,2.50375 0,1.24718 -1.24718,0 0,-1.24718 1.24718,0 z m 0,2.50375 0,1.24718 -1.24718,0 0,-1.24718 1.24718,0 z m 0,2.49437 0,1.25656 -1.24718,0 0,-1.25656 1.24718,0 z m 0,2.50375 0,1.24718 -1.24718,0 0,-1.24718 1.24718,0 z m 0,2.50375 0,1.24718 -1.24718,0 0,-1.24718 1.24718,0 z m 0,2.49437 0,1.25656 -1.24718,0 0,-1.25656 1.24718,0 z m 0,2.50375 0,1.24718 -1.24718,0 0,-1.24718 1.24718,0 z m 0,2.50374 0,1.24719 -1.24718,0 0,-1.24719 1.24718,0 z m 0,2.49438 0,1.25656 -1.24718,0 0,-1.25656 1.24718,0 z m 0,2.50374 0,1.24719 -1.24718,0 0,-1.24719 1.24718,0 z m 0,2.50375 0,1.24719 -1.24718,0 0,-1.24719 1.24718,0 z m 0,2.49437 0,1.25657 -1.24718,0 0,-1.25657 1.24718,0 z m 0,2.50375 0,1.24719 -1.24718,0 0,-1.24719 1.24718,0 z m 0,2.50375 0,1.24719 -1.24718,0 0,-1.24719 1.24718,0 z m 0,2.49437 0,1.25657 -1.24718,0 0,-1.25657 1.24718,0 z m -0.0281,2.53188 -0.0375,0.65642 -0.0938,0.64703 -1.23781,-0.17817 0.0938,-0.6189 -0.009,0.0563 0.0281,-0.62828 1.25656,0.0656 z m -0.40323,2.58815 -0.13128,0.52513 -0.26256,0.73143 -1.17217,-0.43136 0.25319,-0.69392 -0.0188,0.0563 0.12191,-0.497 1.20967,0.30945 z m -0.92835,2.45686 -0.15942,0.32821 -0.48762,0.80645 -1.06901,-0.65641 0.47824,-0.76895 -0.0281,0.0469 0.15003,-0.30945 1.11591,0.55326 z m -1.4066,2.1943 -0.10315,0.14066 -0.76894,0.84396 -0.91898,-0.84396 0.74081,-0.81583 -0.0375,0.0469 0.0844,-0.11253 1.00338,0.74081 z m -1.88485,1.9036 -0.89084,0.66579 -0.1688,0.10315 -0.64703,-1.06902 0.14066,-0.0844 -0.0469,0.0281 0.86272,-0.64704 0.75018,1.00338 z m -2.19429,1.42535 -0.84396,0.40323 -0.34697,0.13128 -0.43135,-1.17217 0.31883,-0.1219 -0.0469,0.0187 0.80645,-0.38447 0.54389,1.12528 z m -2.44749,0.93774 -0.75019,0.19692 -0.52513,0.075 -0.18754,-1.23781 0.497,-0.0656 -0.0657,0.009 0.73144,-0.18755 0.30007,1.20968 z m -2.57877,0.4126 -0.69392,0.0375 -0.59077,0 0,-1.24719 0.57202,0 -0.0281,0 0.67517,-0.0375 0.0656,1.24719 z m -2.53188,0.0375 -1.25656,0 0,-1.24719 1.25656,0 0,1.24719 z m -2.50375,0 -1.24718,0 0,-1.24719 1.24718,0 0,1.24719 z m -2.50374,0 -1.24719,0 0,-1.24719 1.24719,0 0,1.24719 z m -2.49438,0 -1.25656,0 0,-1.24719 1.25656,0 0,1.24719 z m -2.50374,0 -1.24719,0 0,-1.24719 1.24719,0 0,1.24719 z m -2.50375,0 -1.24719,0 0,-1.24719 1.24719,0 0,1.24719 z m -2.49437,0 -1.25657,0 0,-1.24719 1.25657,0 0,1.24719 z m -2.50375,0 -1.24719,0 0,-1.24719 1.24719,0 0,1.24719 z m -2.50375,0 -1.24719,0 0,-1.24719 1.24719,0 0,1.24719 z m -2.49437,0 -1.25657,0 0,-1.24719 1.25657,0 0,1.24719 z m -2.50375,0 -1.24719,0 0,-1.24719 1.24719,0 0,1.24719 z m -2.50375,0 -1.24719,0 0,-1.24719 1.24719,0 0,1.24719 z m -2.49437,0 -1.25657,0 0,-1.24719 1.25657,0 0,1.24719 z m -2.50375,0 -1.24719,0 0,-1.24719 1.24719,0 0,1.24719 z m -2.50375,0 -1.24719,0 0,-1.24719 1.24719,0 0,1.24719 z m -2.49437,0 -1.25656,0 0,-1.24719 1.25656,0 0,1.24719 z m -2.50375,0 -1.24719,0 0,-1.24719 1.24719,0 0,1.24719 z m -2.50375,0 -1.24718,0 0,-1.24719 1.24718,0 0,1.24719 z m -2.49437,0 -1.00338,0 -0.28132,-0.009 0.0656,-1.25656 0.26256,0.0188 -0.0375,0 0.994,0 0,1.24719 z m -2.58815,-0.11253 -0.93773,-0.14066 -0.35634,-0.0938 0.30945,-1.20968 0.32821,0.0844 -0.0656,-0.009 0.9096,0.13128 -0.18755,1.23781 z m -2.55063,-0.60015 -0.75019,-0.27194 -0.46886,-0.22506 0.54388,-1.12528 0.44074,0.2063 -0.0563,-0.0187 0.72206,0.26256 -0.43136,1.17217 z m -2.36309,-1.1159 -0.52513,-0.31883 -0.56264,-0.42198 0.75019,-1.00338 0.5345,0.40323 -0.0469,-0.0281 0.497,0.30007 -0.64704,1.06902 z m -2.09115,-1.57539 -0.30007,-0.27195 -0.60953,-0.67517 0.92836,-0.84396 0.59077,0.65642 -0.0469,-0.0469 0.28132,0.25319 -0.84397,0.92836 z m -1.70667,-1.97862 -0.12191,-0.15942 -0.58139,-0.94711 1.06902,-0.65641 0.56264,0.92835 -0.0281,-0.0469 0.10315,0.13128 -1.00337,0.75019 z m -1.30345,-2.34434 -0.40323,-1.1159 -0.0375,-0.12191 1.21905,-0.30945 0.0187,0.0938 -0.0187,-0.0563 0.39385,1.0784 -1.17217,0.43135 z m -0.74081,-2.51312 -0.15941,-1.05026 -0.009,-0.24382 1.24718,-0.075 0.009,0.22505 -0.009,-0.0563 0.15942,1.01275 -1.23781,0.18755 z"
         id="path3464"
         style="fill:#000000;fill-opacity:1;fill-rule:nonzero;stroke:#000000;stroke-width:0.00937734px;stroke-linecap:butt;stroke-linejoin:round;stroke-opacity:1;stroke-dasharray:none" />
      <path
         d="m 359.24575,229.29462 0,-1.25656 1.25656,0 0,1.25656 -1.25656,0 z m 0,-2.49437 0,-1.25656 1.25656,0 0,1.25656 -1.25656,0 z m 0,-2.51312 0,-1.23781 1.25656,0 0,1.23781 -1.25656,0 z m 0,-2.49438 0,-1.25656 1.25656,0 0,1.25656 -1.25656,0 z m 0,-2.49437 0,-1.25656 1.25656,0 0,1.25656 -1.25656,0 z m 0,-2.51312 0,-1.23781 1.25656,0 0,1.23781 -1.25656,0 z m 0,-2.49437 0,-1.25657 1.25656,0 0,1.25657 -1.25656,0 z m 0,-2.49438 0,-1.25656 1.25656,0 0,1.25656 -1.25656,0 z m 0,-2.51312 0,-1.23781 1.25656,0 0,1.23781 -1.25656,0 z m 0,-2.49437 0,-1.25657 1.25656,0 0,1.25657 -1.25656,0 z m 0,-2.49438 0,-1.25656 1.25656,0 0,1.25656 -1.25656,0 z m 0,-2.51312 0,-1.23781 1.25656,0 0,1.23781 -1.25656,0 z m 0,-2.49437 0,-1.25657 1.25656,0 0,1.25657 -1.25656,0 z m 0,-2.49437 0,-1.25657 1.25656,0 0,1.25657 -1.25656,0 z m 0,-2.51313 0,-1.23781 1.25656,0 0,1.23781 -1.25656,0 z m 0,-2.49437 0,-1.25656 1.25656,0 0,1.25656 -1.25656,0 z m 0,-2.49437 0,-1.25657 1.25656,0 0,1.25657 -1.25656,0 z m 0,-2.51313 0,-1.23781 1.25656,0 0,1.23781 -1.25656,0 z m 0,-2.49437 0,-1.25656 1.25656,0 0,1.25656 -1.25656,0 z m 0,-2.49437 0,-1.25656 1.25656,0 0,1.25656 -1.25656,0 z m 0,-2.51313 0,-0.78769 0.0375,-0.48763 1.2378,0.0563 -0.0187,0.46887 0,-0.0375 0,0.78769 -1.25656,0 z m 0.15003,-2.58814 0.11253,-0.73143 0.13129,-0.54389 1.21905,0.30007 -0.13128,0.52514 0,-0.0563 -0.0938,0.69392 -1.23781,-0.18754 z m 0.63766,-2.53188 0.2063,-0.56264 0.30008,-0.63766 1.14403,0.54388 -0.31882,0.61891 0.0375,-0.0563 -0.2063,0.52513 -1.16279,-0.43135 z m 1.16279,-2.34434 0.2063,-0.35634 0.54389,-0.71267 0.994,0.73143 -0.52513,0.71268 0.0375,-0.0563 -0.20631,0.31883 -1.05026,-0.63766 z m 1.59415,-2.06301 0.13128,-0.15004 0.82521,-0.75019 0.84396,0.93774 -0.80645,0.71268 0.0563,-0.0375 -0.11253,0.13128 -0.93773,-0.84396 z m 2.06301,-1.70668 0.97525,-0.60015 0.15003,-0.075 0.54389,1.12528 -0.13128,0.0563 0.0563,-0.0375 -0.95649,0.5814 -0.63766,-1.05027 z m 2.30683,-1.21905 0.93773,-0.33758 0.31883,-0.0938 0.30008,1.21906 -0.28132,0.075 0.0563,-0.0187 -0.90022,0.31883 -0.43136,-1.16279 z m 2.53188,-0.71268 0.86271,-0.13128 0.43136,-0.0188 0.075,1.25657 -0.4126,0.0188 0.0563,-0.0188 -0.8252,0.13128 -0.18755,-1.23781 z m 2.58814,-0.18754 1.23781,0 0,1.2378 -1.23781,0 0,-1.2378 z m 2.49438,0 1.25656,0 0,1.2378 -1.25656,0 0,-1.2378 z m 2.49437,0 1.25656,0 0,1.2378 -1.25656,0 0,-1.2378 z m 2.51312,0 1.23781,0 0,1.2378 -1.23781,0 0,-1.2378 z m 2.49437,0 1.25657,0 0,1.2378 -1.25657,0 0,-1.2378 z m 2.49438,0 1.25656,0 0,1.2378 -1.25656,0 0,-1.2378 z m 2.51312,0 1.23781,0 0,1.2378 -1.23781,0 0,-1.2378 z m 2.49437,0 1.25657,0 0,1.2378 -1.25657,0 0,-1.2378 z m 2.49437,0 1.25657,0 0,1.2378 -1.25657,0 0,-1.2378 z m 2.51313,0 1.23781,0 0,1.2378 -1.23781,0 0,-1.2378 z m 2.49437,0 1.25657,0 0,1.2378 -1.25657,0 0,-1.2378 z m 2.49437,0 1.25657,0 0,1.2378 -1.25657,0 0,-1.2378 z m 2.51313,0 1.23781,0 0,1.2378 -1.23781,0 0,-1.2378 z m 2.49437,0 1.25656,0 0,1.2378 -1.25656,0 0,-1.2378 z m 2.49437,0 1.25657,0 0,1.2378 -1.25657,0 0,-1.2378 z m 2.51313,0 1.23781,0 0,1.2378 -1.23781,0 0,-1.2378 z m 2.49437,0 1.25656,0 0,1.2378 -1.25656,0 0,-1.2378 z m 2.49437,0 1.25656,0 0,1.2378 -1.25656,0 0,-1.2378 z m 2.51313,0 1.23781,0 0,1.2378 -1.23781,0 0,-1.2378 z m 2.53188,0 1.10652,0.0563 0.18755,0.0375 -0.16879,1.23781 -0.16879,-0.0375 0.0563,0.0188 -1.08777,-0.0563 0.075,-1.25656 z m 2.58814,0.30007 0.97525,0.26257 0.30007,0.0938 -0.43136,1.18154 -0.26256,-0.0938 0.0563,0.0187 -0.93773,-0.24381 0.30007,-1.21905 z m 2.49437,0.84396 0.75019,0.37509 0.39385,0.24381 -0.63766,1.06902 -0.37509,-0.24381 0.0375,0.0375 -0.71268,-0.35634 0.54388,-1.12528 z m 2.23181,1.33158 0.52513,0.39385 0.48762,0.45011 -0.84396,0.91898 -0.46886,-0.43136 0.0563,0.0375 -0.48762,-0.35634 0.73143,-1.01275 z m 1.93173,1.7817 0.30008,0.31883 0.52513,0.69392 -1.01275,0.75019 -0.50638,-0.67517 0.0375,0.0375 -0.26257,-0.28132 0.91898,-0.84396 z m 1.51913,2.11927 0.13128,0.20631 0.46887,0.95648 -1.12528,0.54389 -0.46887,-0.93773 0.0375,0.0563 -0.11253,-0.16879 1.06902,-0.65642 z m 1.06902,2.4006 0.0188,0.0563 0.30008,1.2003 0.0188,0.075 -1.23781,0.18755 -0.0188,-0.0375 0.0188,0.0563 -0.28132,-1.14404 0.0188,0.0563 -0.0188,-0.0187 1.18155,-0.43136 z m 0.50637,2.62566 0.075,1.16279 0,0.11252 -1.25656,0 0,-0.11252 0,0.0375 -0.0563,-1.12529 1.23781,-0.075 z m 0.075,2.53188 0,1.25656 -1.25656,0 0,-1.25656 1.25656,0 z m 0,2.49437 0,1.25656 -1.25656,0 0,-1.25656 1.25656,0 z m 0,2.51312 0,1.23781 -1.25656,0 0,-1.23781 1.25656,0 z m 0,2.49438 0,1.25656 -1.25656,0 0,-1.25656 1.25656,0 z m 0,2.49437 0,1.25656 -1.25656,0 0,-1.25656 1.25656,0 z m 0,2.51312 0,1.23781 -1.25656,0 0,-1.23781 1.25656,0 z m 0,2.49437 0,1.25657 -1.25656,0 0,-1.25657 1.25656,0 z m 0,2.49438 0,1.25656 -1.25656,0 0,-1.25656 1.25656,0 z m 0,2.51312 0,1.23781 -1.25656,0 0,-1.23781 1.25656,0 z m 0,2.49437 0,1.25657 -1.25656,0 0,-1.25657 1.25656,0 z m 0,2.49438 0,1.25656 -1.25656,0 0,-1.25656 1.25656,0 z m 0,2.51312 0,1.23781 -1.25656,0 0,-1.23781 1.25656,0 z m 0,2.49437 0,1.25657 -1.25656,0 0,-1.25657 1.25656,0 z m 0,2.49437 0,1.25657 -1.25656,0 0,-1.25657 1.25656,0 z m 0,2.51313 0,1.23781 -1.25656,0 0,-1.23781 1.25656,0 z m 0,2.49437 0,1.25656 -1.25656,0 0,-1.25656 1.25656,0 z m 0,2.49437 0,1.25657 -1.25656,0 0,-1.25657 1.25656,0 z m 0,2.51313 0,1.23781 -1.25656,0 0,-1.23781 1.25656,0 z m 0,2.49437 0,1.25656 -1.25656,0 0,-1.25656 1.25656,0 z m 0,2.49437 0,1.25656 -1.25656,0 0,-1.25656 1.25656,0 z m -0.0375,2.53188 -0.0375,0.67517 -0.0938,0.63766 -1.23781,-0.18755 0.0938,-0.60015 0,0.0563 0.0375,-0.63766 1.23781,0.0563 z m -0.39385,2.58815 -0.13128,0.54388 -0.26256,0.71268 -1.18155,-0.43136 0.26257,-0.67517 -0.0188,0.0563 0.13129,-0.50638 1.20029,0.30008 z m -0.91897,2.45686 -0.1688,0.35634 -0.48762,0.78769 -1.06901,-0.65641 0.46886,-0.75019 -0.0375,0.0375 0.16879,-0.31883 1.12529,0.54389 z m -1.40661,2.21305 -0.11252,0.15004 -0.76894,0.8252 -0.91898,-0.84396 0.73143,-0.80645 -0.0375,0.0563 0.0938,-0.13129 1.01275,0.75019 z m -1.89422,1.89422 -0.90022,0.67517 -0.15004,0.0938 -0.65641,-1.06901 0.13128,-0.075 -0.0375,0.0375 0.88147,-0.65642 0.73143,0.994 z m -2.17554,1.42536 -0.86271,0.4126 -0.33759,0.13128 -0.43136,-1.18154 0.30008,-0.11253 -0.0563,0.0188 0.84396,-0.39385 0.54388,1.12528 z m -2.45686,0.95649 -0.76894,0.18754 -0.50638,0.075 -0.18755,-1.23781 0.48763,-0.075 -0.075,0.0188 0.75018,-0.18755 0.30008,1.21906 z m -2.56939,0.4126 -0.71268,0.0375 -0.58139,0 0,-1.25656 0.56264,0 -0.0375,0 0.69392,-0.0375 0.075,1.25656 z m -2.53188,0.0375 -1.25657,0 0,-1.25656 1.25657,0 0,1.25656 z m -2.51313,0 -1.23781,0 0,-1.25656 1.23781,0 0,1.25656 z m -2.49437,0 -1.25656,0 0,-1.25656 1.25656,0 0,1.25656 z m -2.49437,0 -1.25656,0 0,-1.25656 1.25656,0 0,1.25656 z m -2.51313,0 -1.23781,0 0,-1.25656 1.23781,0 0,1.25656 z m -2.49437,0 -1.25656,0 0,-1.25656 1.25656,0 0,1.25656 z m -2.49437,0 -1.25656,0 0,-1.25656 1.25656,0 0,1.25656 z m -2.51313,0 -1.2378,0 0,-1.25656 1.2378,0 0,1.25656 z m -2.49437,0 -1.25656,0 0,-1.25656 1.25656,0 0,1.25656 z m -2.49437,0 -1.25656,0 0,-1.25656 1.25656,0 0,1.25656 z m -2.51312,0 -1.23781,0 0,-1.25656 1.23781,0 0,1.25656 z m -2.49438,0 -1.25656,0 0,-1.25656 1.25656,0 0,1.25656 z m -2.49437,0 -1.25656,0 0,-1.25656 1.25656,0 0,1.25656 z m -2.51312,0 -1.23781,0 0,-1.25656 1.23781,0 0,1.25656 z m -2.49438,0 -1.25656,0 0,-1.25656 1.25656,0 0,1.25656 z m -2.49437,0 -1.25656,0 0,-1.25656 1.25656,0 0,1.25656 z m -2.51312,0 -1.23781,0 0,-1.25656 1.23781,0 0,1.25656 z m -2.49437,0 -1.25657,0 0,-1.25656 1.25657,0 0,1.25656 z m -2.49438,0 -1.0315,0 -0.26257,-0.0188 0.075,-1.25656 0.24381,0.0188 -0.0375,0 1.01275,0 0,1.25656 z m -2.58814,-0.11253 -0.95649,-0.15004 -0.33758,-0.075 0.30007,-1.21905 0.31883,0.075 -0.075,-0.0188 0.91898,0.15004 -0.16879,1.23781 z m -2.56939,-0.60015 -0.75019,-0.28132 -0.45011,-0.2063 0.54389,-1.12528 0.4126,0.18755 -0.0563,-0.0188 0.73144,0.26257 -0.43136,1.18154 z m -2.36309,-1.12528 -0.52513,-0.31883 -0.54389,-0.4126 0.73144,-0.994 0.52513,0.39385 -0.0375,-0.0375 0.50637,0.31883 -0.65641,1.05026 z m -2.08177,-1.57539 -0.31883,-0.28132 -0.58139,-0.65642 0.91898,-0.84396 0.58139,0.63766 -0.0563,-0.0375 0.30007,0.26257 -0.84396,0.91898 z m -1.70667,-1.96924 -0.13129,-0.16879 -0.58139,-0.93774 1.06902,-0.63766 0.56264,0.90023 -0.0375,-0.0375 0.11252,0.13128 -0.99399,0.75019 z m -1.27532,-2.26932 -0.0188,-0.0375 -0.43135,-1.16279 -0.0188,-0.0938 1.2003,-0.31883 0.0188,0.075 -0.0188,-0.0563 0.4126,1.08778 -0.0375,-0.0563 0.0188,0.0188 -1.12528,0.54388 z m -0.7877,-2.56939 -0.15003,-1.08777 -0.0188,-0.22506 1.25656,-0.0563 0,0.18755 0,-0.0563 0.15004,1.05027 -1.23781,0.18754 z"
         id="path3466"
         style="fill:#000000;fill-opacity:1;fill-rule:nonzero;stroke:#000000;stroke-width:0.01875467px;stroke-linecap:butt;stroke-linejoin:round;stroke-opacity:1;stroke-dasharray:none" />
      <path
         d="m 521.99879,55.063718 57.20175,42.798162 -0.75018,1.012752 -57.20175,-42.798162 0.75018,-1.012752 z m 57.33304,40.547601 2.51312,5.007501 -5.51387,-0.994001 3.00075,-4.0135 z"
         id="path3468"
         style="fill:#000000;fill-opacity:1;fill-rule:nonzero;stroke:#000000;stroke-width:0.01875467px;stroke-linecap:butt;stroke-linejoin:round;stroke-opacity:1;stroke-dasharray:none" />
      <path
         d="m 496.32365,98.086936 0,160.502484 450.71228,0 0,-160.502484 -450.71228,0 z"
         id="path3470"
         style="fill:#c5e0b4;fill-opacity:1;fill-rule:evenodd;stroke:none" />
      <path
         d="m 496.32365,98.086936 450.71228,0 0,160.502484 -450.71228,0 z"
         id="path3472"
         style="fill:none;stroke:#935f1c;stroke-width:1.23780835px;stroke-linecap:butt;stroke-linejoin:miter;stroke-miterlimit:4;stroke-opacity:1;stroke-dasharray:none" />
      <text
         x="664.28186"
         y="119.99486"
         id="text3474"
         xml:space="preserve"
         style="font-size:17.55437279px;font-style:normal;font-weight:normal;text-align:start;text-anchor:start;fill:#000000;font-family:Verdana">TaskManager</text>
      <path
         d="m 506.78875,137.47175 0,112.52803 136.42149,0 0,-112.52803 -136.42149,0 z"
         id="path3476"
         style="fill:#e4eaf4;fill-opacity:1;fill-rule:evenodd;stroke:none" />
      <path
         d="m 506.78875,137.47175 136.42149,0 0,112.52803 -136.42149,0 z"
         id="path3478"
         style="fill:none;stroke:#898c92;stroke-width:1.23780835px;stroke-linecap:butt;stroke-linejoin:miter;stroke-miterlimit:4;stroke-opacity:1;stroke-dasharray:none" />
      <text
         x="541.06915"
         y="156.82913"
         id="text3480"
         xml:space="preserve"
         style="font-size:15.00373745px;font-style:normal;font-weight:normal;text-align:start;text-anchor:start;fill:#000000;font-family:Verdana">Task Slot</text>
      <path
         d="m 653.71286,137.47175 0,112.52803 136.42148,0 0,-112.52803 -136.42148,0 z"
         id="path3482"
         style="fill:#e4eaf4;fill-opacity:1;fill-rule:evenodd;stroke:none" />
      <path
         d="m 653.71286,137.47175 136.42148,0 0,112.52803 -136.42148,0 z"
         id="path3484"
         style="fill:none;stroke:#898c92;stroke-width:1.23780835px;stroke-linecap:butt;stroke-linejoin:miter;stroke-miterlimit:4;stroke-opacity:1;stroke-dasharray:none" />
      <text
         x="687.98322"
         y="156.82913"
         id="text3486"
         xml:space="preserve"
         style="font-size:15.00373745px;font-style:normal;font-weight:normal;text-align:start;text-anchor:start;fill:#000000;font-family:Verdana">Task Slot</text>
      <path
         d="m 800.59945,137.32171 0,112.52803 136.45899,0 0,-112.52803 -136.45899,0 z"
         id="path3488"
         style="fill:#e4eaf4;fill-opacity:1;fill-rule:evenodd;stroke:none" />
      <path
         d="m 800.59945,137.32171 136.45899,0 0,112.52803 -136.45899,0 z"
         id="path3490"
         style="fill:none;stroke:#898c92;stroke-width:1.23780835px;stroke-linecap:butt;stroke-linejoin:miter;stroke-miterlimit:4;stroke-opacity:1;stroke-dasharray:none" />
      <text
         x="834.89728"
         y="156.76062"
         id="text3492"
         xml:space="preserve"
         style="font-size:15.00373745px;font-style:normal;font-weight:normal;text-align:start;text-anchor:start;fill:#000000;font-family:Verdana">Task Slot</text>
      <path
         d="m 517.87277,203.732 c 0,-17.68565 14.30981,-32.03298 31.95796,-32.03298 17.64814,0 31.95796,14.34733 31.95796,32.03298 0,17.70442 -14.30982,32.03298 -31.95796,32.03298 -17.64815,0 -31.95796,-14.32856 -31.95796,-32.03298"
         id="path3494"
         style="fill:#ffd966;fill-opacity:1;fill-rule:evenodd;stroke:none" />
      <path
         d="m 517.87277,203.732 c 0,-17.68565 14.30981,-32.03298 31.95796,-32.03298 17.64814,0 31.95796,14.34733 31.95796,32.03298 0,17.70442 -14.30982,32.03298 -31.95796,32.03298 -17.64815,0 -31.95796,-14.32856 -31.95796,-32.03298"
         id="path3496"
         style="fill:none;stroke:#000000;stroke-width:0.61890417px;stroke-linecap:butt;stroke-linejoin:miter;stroke-miterlimit:4;stroke-opacity:1;stroke-dasharray:none" />
      <text
         x="532.43054"
         y="201.69257"
         id="text3498"
         xml:space="preserve"
         style="font-size:10.05250454px;font-style:normal;font-weight:normal;text-align:start;text-anchor:start;fill:#000000;font-family:Verdana">Source</text>
      <text
         x="542.18298"
         y="213.69556"
         id="text3500"
         xml:space="preserve"
         style="font-size:10.05250454px;font-style:italic;font-weight:normal;text-align:start;text-anchor:start;fill:#000000;font-family:Verdana">[2]</text>
      <path
         d="m 567.5914,203.75076 c 0,-17.70441 14.29106,-32.03298 31.95796,-32.03298 17.62939,0 31.95796,14.32857 31.95796,32.03298 0,17.70441 -14.32857,32.03298 -31.95796,32.03298 -17.6669,0 -31.95796,-14.32857 -31.95796,-32.03298"
         id="path3502"
         style="fill:#ffd966;fill-opacity:1;fill-rule:evenodd;stroke:none" />
      <path
         d="m 567.5914,203.75076 c 0,-17.70441 14.29106,-32.03298 31.95796,-32.03298 17.62939,0 31.95796,14.32857 31.95796,32.03298 0,17.70441 -14.32857,32.03298 -31.95796,32.03298 -17.6669,0 -31.95796,-14.32857 -31.95796,-32.03298"
         id="path3504"
         style="fill:none;stroke:#000000;stroke-width:0.63765883px;stroke-linecap:butt;stroke-linejoin:miter;stroke-miterlimit:4;stroke-opacity:1;stroke-dasharray:none" />
      <text
         x="584.05627"
         y="201.69257"
         id="text3506"
         xml:space="preserve"
         style="font-size:10.05250454px;font-style:normal;font-weight:normal;text-align:start;text-anchor:start;fill:#000000;font-family:Verdana">map()</text>
      <text
         x="591.85822"
         y="213.69556"
         id="text3508"
         xml:space="preserve"
         style="font-size:10.05250454px;font-style:italic;font-weight:normal;text-align:start;text-anchor:start;fill:#000000;font-family:Verdana">[2]</text>
      <path
         d="m 689.94688,204.05083 c 0,-17.70441 14.32857,-32.03298 31.95796,-32.03298 17.66691,0 31.95797,14.32857 31.95797,32.03298 0,17.70441 -14.29106,32.03298 -31.95797,32.03298 -17.62939,0 -31.95796,-14.32857 -31.95796,-32.03298"
         id="path3510"
         style="fill:#ffd966;fill-opacity:1;fill-rule:evenodd;stroke:none" />
      <text
         x="699.6922"
         y="190.0311"
         id="text3512"
         xml:space="preserve"
         style="font-size:10.05250454px;font-style:normal;font-weight:normal;text-align:start;text-anchor:start;fill:#000000;font-family:Verdana">keyBy</text>
      <text
         x="730.59991"
         y="190.0311"
         id="text3514"
         xml:space="preserve"
         style="font-size:10.05250454px;font-style:normal;font-weight:normal;text-align:start;text-anchor:start;fill:#000000;font-family:Verdana">()/</text>
      <text
         x="696.24133"
         y="202.03407"
         id="text3516"
         xml:space="preserve"
         style="font-size:10.05250454px;font-style:normal;font-weight:normal;text-align:start;text-anchor:start;fill:#000000;font-family:Verdana">window()/</text>
      <text
         x="703.74323"
         y="214.03706"
         id="text3518"
         xml:space="preserve"
         style="font-size:10.05250454px;font-style:normal;font-weight:normal;text-align:start;text-anchor:start;fill:#000000;font-family:Verdana">apply()</text>
      <text
         x="714.24585"
         y="226.04005"
         id="text3520"
         xml:space="preserve"
         style="font-size:10.05250454px;font-style:italic;font-weight:normal;text-align:start;text-anchor:start;fill:#000000;font-family:Verdana">[2]</text>
      <path
         d="m 513.05281,228.65696 0,-1.27531 1.23781,0 0,1.27531 -1.23781,0 z m 0,-2.51312 0,-1.23781 1.23781,0 0,1.23781 -1.23781,0 z m 0,-2.51313 0,-1.23781 1.23781,0 0,1.23781 -1.23781,0 z m 0,-2.47561 0,-1.27532 1.23781,0 0,1.27532 -1.23781,0 z m 0,-2.51313 0,-1.23781 1.23781,0 0,1.23781 -1.23781,0 z m 0,-2.51313 0,-1.23781 1.23781,0 0,1.23781 -1.23781,0 z m 0,-2.47561 0,-1.27532 1.23781,0 0,1.27532 -1.23781,0 z m 0,-2.51313 0,-1.23781 1.23781,0 0,1.23781 -1.23781,0 z m 0,-2.51313 0,-1.2378 1.23781,0 0,1.2378 -1.23781,0 z m 0,-2.47561 0,-1.27532 1.23781,0 0,1.27532 -1.23781,0 z m 0,-2.51313 0,-1.23781 1.23781,0 0,1.23781 -1.23781,0 z m 0,-2.51312 0,-1.23781 1.23781,0 0,1.23781 -1.23781,0 z m 0,-2.47562 0,-1.27532 1.23781,0 0,1.27532 -1.23781,0 z m 0,-2.51313 0,-1.23781 1.23781,0 0,1.23781 -1.23781,0 z m 0,-2.51312 0,-1.23781 1.23781,0 0,1.23781 -1.23781,0 z m 0,-2.47562 0,-1.27532 1.23781,0 0,1.27532 -1.23781,0 z m 0,-2.51313 0,-1.2378 1.23781,0 0,1.2378 -1.23781,0 z m 0,-2.51312 0,-1.23781 1.23781,0 0,1.23781 -1.23781,0 z m 0,-2.47562 0,-1.27532 1.23781,0 0,1.27532 -1.23781,0 z m 0,-2.51313 0,-1.2378 1.23781,0 0,1.2378 -1.23781,0 z m 0,-2.51312 0.075,-1.12528 0,-0.18755 1.23781,0.18755 0,0.15004 0,-0.0375 -0.075,1.05026 -1.23781,-0.0375 z m 0.30008,-2.62566 0.30007,-1.05026 0.075,-0.18754 1.16279,0.4126 -0.075,0.18755 0.0375,-0.075 -0.26256,1.01275 -1.23781,-0.30008 z m 0.8252,-2.47561 0.45012,-0.90023 0.15003,-0.26256 1.08778,0.63766 -0.15004,0.22505 0,-0.0375 -0.41261,0.86272 -1.12528,-0.52513 z m 1.31283,-2.25056 0.52513,-0.75019 0.30008,-0.30007 0.90022,0.86271 -0.22505,0.26257 0.0375,-0.0375 -0.52513,0.67516 -1.01275,-0.71267 z m 1.72543,-1.988 0.60015,-0.52513 0.4126,-0.30007 0.75019,0.97524 -0.4126,0.30007 0.0375,-0.0375 -0.56264,0.52514 -0.82521,-0.93774 z m 2.06302,-1.57539 0.60015,-0.37509 0.56264,-0.26257 0.56264,1.12528 -0.56264,0.26257 0.075,-0.0375 -0.56264,0.33758 -0.67516,-1.05026 z m 2.36308,-1.12528 0.60015,-0.22506 0.67517,-0.18754 0.30008,1.2378 -0.63766,0.15004 0.0375,0 -0.52513,0.18755 -0.45012,-1.16279 z m 2.55064,-0.67517 0.60015,-0.075 0.71268,-0.0375 0.075,1.23781 -0.71268,0.0375 0.075,0 -0.56264,0.075 -0.18755,-1.23781 z m 2.58814,-0.15004 1.23781,0 0,1.27532 -1.23781,0 0,-1.27532 z m 2.51313,0 1.23781,0 0,1.27532 -1.23781,0 0,-1.27532 z m 2.47562,0 1.27531,0 0,1.27532 -1.27531,0 0,-1.27532 z m 2.51312,0 1.23781,0 0,1.27532 -1.23781,0 0,-1.27532 z m 2.51313,0 1.23781,0 0,1.27532 -1.23781,0 0,-1.27532 z m 2.47562,0 1.27531,0 0,1.27532 -1.27531,0 0,-1.27532 z m 2.51312,0 1.23781,0 0,1.27532 -1.23781,0 0,-1.27532 z m 2.51313,0 1.23781,0 0,1.27532 -1.23781,0 0,-1.27532 z m 2.47562,0 1.27531,0 0,1.27532 -1.27531,0 0,-1.27532 z m 2.51312,0 1.23781,0 0,1.27532 -1.23781,0 0,-1.27532 z m 2.51313,0 1.23781,0 0,1.27532 -1.23781,0 0,-1.27532 z m 2.47561,0 1.27532,0 0,1.27532 -1.27532,0 0,-1.27532 z m 2.51313,0 1.23781,0 0,1.27532 -1.23781,0 0,-1.27532 z m 2.51313,0 1.2378,0 0,1.27532 -1.2378,0 0,-1.27532 z m 2.47561,0 1.27532,0 0,1.27532 -1.27532,0 0,-1.27532 z m 2.51313,0 1.23781,0 0,1.27532 -1.23781,0 0,-1.27532 z m 2.51313,0 1.2378,0 0,1.27532 -1.2378,0 0,-1.27532 z m 2.47561,0 1.27532,0 0,1.27532 -1.27532,0 0,-1.27532 z m 2.51313,0 1.23781,0 0,1.27532 -1.23781,0 0,-1.27532 z m 2.51312,0 1.23781,0 0,1.27532 -1.23781,0 0,-1.27532 z m 2.47562,0 1.27532,0 0,1.27532 -1.27532,0 0,-1.27532 z m 2.51313,0 1.23781,0 0,1.27532 -1.23781,0 0,-1.27532 z m 2.51312,0 1.23781,0 0,1.27532 -1.23781,0 0,-1.27532 z m 2.47562,0 1.27532,0 0,1.27532 -1.27532,0 0,-1.27532 z m 2.51313,0 1.2378,0 0,1.27532 -1.2378,0 0,-1.27532 z m 2.51312,0 1.23781,0 0,1.27532 -1.23781,0 0,-1.27532 z m 2.47562,0 1.27532,0 0,1.27532 -1.27532,0 0,-1.27532 z m 2.51312,0 1.23781,0 0,1.27532 -1.23781,0 0,-1.27532 z m 2.51313,0 1.23781,0 0,1.27532 -1.23781,0 0,-1.27532 z m 2.47562,0 1.27532,0 0,1.27532 -1.27532,0 0,-1.27532 z m 2.51312,0 1.23781,0 0,1.27532 -1.23781,0 0,-1.27532 z m 2.51313,0 1.23781,0 0,1.27532 -1.23781,0 0,-1.27532 z m 2.47562,0 1.27531,0 0,1.27532 -1.27531,0 0,-1.27532 z m 2.51312,0 1.23781,0 0,1.27532 -1.23781,0 0,-1.27532 z m 2.51313,0 1.23781,0 0,1.27532 -1.23781,0 0,-1.27532 z m 2.47562,0 1.27531,0 0,1.27532 -1.27531,0 0,-1.27532 z m 2.51312,0 1.23781,0 0,1.27532 -1.23781,0 0,-1.27532 z m 2.51313,0 1.23781,0 0,1.27532 -1.23781,0 0,-1.27532 z m 2.51312,0.075 0.11253,0 1.2003,0.18755 -0.18755,1.23781 -1.16279,-0.18755 0.075,0 -0.11253,0 0.075,-1.23781 z m 2.58815,0.48762 0.075,0.0375 1.16279,0.41261 -0.45012,1.16279 -1.08777,-0.3751 0.0375,0 -0.075,0 0.33759,-1.23781 z m 2.47561,1.05027 1.05027,0.63765 0.0375,0.0375 -0.75019,1.01276 -0.0375,-0.0375 0.075,0.0375 -1.05026,-0.63766 0.67516,-1.05026 z m 2.13804,1.46286 0.8252,0.75019 0.15004,0.15003 -0.93773,0.86272 -0.11253,-0.15004 0.0375,0.075 -0.7877,-0.75019 0.82521,-0.93773 z m 1.83796,1.87547 0.60014,0.8252 0.15004,0.26257 -1.08777,0.63766 -0.11253,-0.22506 0.0375,0.0375 -0.60015,-0.7877 1.01276,-0.75018 z m 1.38784,2.21305 0.4126,0.8252 0.15004,0.3751 -1.2003,0.4126 -0.11253,-0.33758 0.0375,0.075 -0.4126,-0.78769 1.12528,-0.56264 z m 0.93773,2.43811 0.22506,0.86271 0.075,0.4126 -1.23781,0.18755 -0.075,-0.4126 0.0375,0.075 -0.22505,-0.7877 1.20029,-0.33758 z m 0.45012,2.58814 0.0375,0.90022 0,0.3751 -1.23781,0 0,-0.3751 0,0.0375 -0.0375,-0.86271 1.23781,-0.075 z m 0.0375,2.55064 0,1.2378 -1.23781,0 0,-1.2378 1.23781,0 z m 0,2.47561 0,1.27532 -1.23781,0 0,-1.27532 1.23781,0 z m 0,2.51313 0,1.23781 -1.23781,0 0,-1.23781 1.23781,0 z m 0,2.51312 0,1.23781 -1.23781,0 0,-1.23781 1.23781,0 z m 0,2.47562 0,1.27532 -1.23781,0 0,-1.27532 1.23781,0 z m 0,2.51313 0,1.23781 -1.23781,0 0,-1.23781 1.23781,0 z m 0,2.51312 0,1.23781 -1.23781,0 0,-1.23781 1.23781,0 z m 0,2.47562 0,1.27532 -1.23781,0 0,-1.27532 1.23781,0 z m 0,2.51313 0,1.2378 -1.23781,0 0,-1.2378 1.23781,0 z m 0,2.51312 0,1.23781 -1.23781,0 0,-1.23781 1.23781,0 z m 0,2.47562 0,1.27532 -1.23781,0 0,-1.27532 1.23781,0 z m 0,2.51313 0,1.2378 -1.23781,0 0,-1.2378 1.23781,0 z m 0,2.51312 0,1.23781 -1.23781,0 0,-1.23781 1.23781,0 z m 0,2.47562 0,1.27532 -1.23781,0 0,-1.27532 1.23781,0 z m 0,2.51312 0,1.23781 -1.23781,0 0,-1.23781 1.23781,0 z m 0,2.51313 0,1.23781 -1.23781,0 0,-1.23781 1.23781,0 z m 0,2.47562 0,1.27531 -1.23781,0 0,-1.27531 1.23781,0 z m 0,2.51312 0,1.23781 -1.23781,0 0,-1.23781 1.23781,0 z m 0,2.51313 0,1.23781 -1.23781,0 0,-1.23781 1.23781,0 z m 0,2.47562 0,0.67516 0,0.60015 -1.27532,-0.0375 0.0375,-0.60015 0,0.0375 0,-0.67516 1.23781,0 z m -0.15004,2.58814 -0.11253,0.71268 -0.15004,0.56264 -1.2003,-0.30008 0.15004,-0.52513 -0.0375,0.0375 0.11253,-0.67517 1.23781,0.18755 z m -0.63766,2.55064 -0.22506,0.60015 -0.26256,0.60015 -1.12528,-0.52514 0.26256,-0.56264 -0.0375,0.0375 0.22506,-0.60015 1.16279,0.45012 z m -1.12528,2.36308 -0.30008,0.48763 -0.45011,0.56264 -1.01275,-0.71268 0.45011,-0.56264 -0.0375,0.0375 0.26257,-0.48762 1.08777,0.67516 z m -1.57539,2.06302 -0.33759,0.33758 -0.60015,0.56264 -0.86271,-0.90022 0.60015,-0.56264 -0.0375,0.0375 0.30007,-0.30008 0.93774,0.82521 z m -1.988,1.72543 -0.26256,0.22505 -0.82521,0.48763 -0.63766,-1.05027 0.7877,-0.48762 -0.0375,0.0375 0.22506,-0.22505 0.75018,1.01275 z m -2.25056,1.31283 -0.26256,0.11252 -0.97525,0.3751 -0.4126,-1.2003 0.93773,-0.33759 -0.0375,0.0375 0.18755,-0.11252 0.56264,1.12528 z m -2.47562,0.8252 -0.22505,0.0375 -1.08777,0.18755 -0.18755,-1.23781 1.05026,-0.18755 -0.0375,0.0375 0.15004,-0.0375 0.33758,1.2003 z m -2.62565,0.30008 -0.22506,0 -1.05026,0 0,-1.23781 1.05026,0 -0.0375,0 0.18754,0 0.075,1.23781 z m -2.51313,0 -1.27531,0 0,-1.23781 1.27531,0 0,1.23781 z m -2.51312,0 -1.23781,0 0,-1.23781 1.23781,0 0,1.23781 z m -2.51313,0 -1.23781,0 0,-1.23781 1.23781,0 0,1.23781 z m -2.47561,0 -1.27532,0 0,-1.23781 1.27532,0 0,1.23781 z m -2.51313,0 -1.23781,0 0,-1.23781 1.23781,0 0,1.23781 z m -2.51313,0 -1.23781,0 0,-1.23781 1.23781,0 0,1.23781 z m -2.47561,0 -1.27532,0 0,-1.23781 1.27532,0 0,1.23781 z m -2.51313,0 -1.23781,0 0,-1.23781 1.23781,0 0,1.23781 z m -2.51313,0 -1.2378,0 0,-1.23781 1.2378,0 0,1.23781 z m -2.47561,0 -1.27532,0 0,-1.23781 1.27532,0 0,1.23781 z m -2.51313,0 -1.23781,0 0,-1.23781 1.23781,0 0,1.23781 z m -2.51312,0 -1.23781,0 0,-1.23781 1.23781,0 0,1.23781 z m -2.47562,0 -1.27532,0 0,-1.23781 1.27532,0 0,1.23781 z m -2.51313,0 -1.23781,0 0,-1.23781 1.23781,0 0,1.23781 z m -2.51312,0 -1.23781,0 0,-1.23781 1.23781,0 0,1.23781 z m -2.47562,0 -1.27532,0 0,-1.23781 1.27532,0 0,1.23781 z m -2.51313,0 -1.2378,0 0,-1.23781 1.2378,0 0,1.23781 z m -2.51312,0 -1.23781,0 0,-1.23781 1.23781,0 0,1.23781 z m -2.47562,0 -1.27532,0 0,-1.23781 1.27532,0 0,1.23781 z m -2.51313,0 -1.2378,0 0,-1.23781 1.2378,0 0,1.23781 z m -2.51312,0 -1.23781,0 0,-1.23781 1.23781,0 0,1.23781 z m -2.47562,0 -1.27532,0 0,-1.23781 1.27532,0 0,1.23781 z m -2.51312,0 -1.23781,0 0,-1.23781 1.23781,0 0,1.23781 z m -2.51313,0 -1.23781,0 0,-1.23781 1.23781,0 0,1.23781 z m -2.47562,0 -1.27531,0 0,-1.23781 1.27531,0 0,1.23781 z m -2.51312,0 -1.23781,0 0,-1.23781 1.23781,0 0,1.23781 z m -2.51313,0 -1.23781,0 0,-1.23781 1.23781,0 0,1.23781 z m -2.47562,0 -1.27531,0 0,-1.23781 1.27531,0 0,1.23781 z m -2.51312,0 -1.23781,0 0,-1.23781 1.23781,0 0,1.23781 z m -2.51313,0 -1.23781,0 0,-1.23781 1.23781,0 0,1.23781 z m -2.47561,0 -1.27532,0 0,-1.23781 1.27532,0 0,1.23781 z m -2.51313,0 -1.23781,0 0,-1.23781 1.23781,0 0,1.23781 z m -2.51313,0 -1.23781,0 0,-1.23781 1.23781,0 0,1.23781 z m -2.47561,0 -1.27532,0 0,-1.23781 1.27532,0 0,1.23781 z m -2.51313,0 -1.23781,0 0,-1.23781 1.23781,0 0,1.23781 z m -2.51313,0 -1.2378,0 0,-1.23781 1.2378,0 0,1.23781 z m -2.47561,0 -1.27532,0 0,-1.23781 1.27532,0 0,1.23781 z m -2.55064,0 -0.97524,-0.0375 -0.33758,-0.075 0.18754,-1.23781 0.30008,0.0375 -0.075,0 0.97524,0.075 -0.075,1.23781 z m -2.58814,-0.33759 -0.93774,-0.22505 -0.33758,-0.11253 0.45011,-1.2003 0.26257,0.11253 -0.0375,0 0.90022,0.22505 -0.30007,1.2003 z m -2.47562,-0.8252 -0.8252,-0.41261 -0.33759,-0.18754 0.63766,-1.08777 0.33758,0.18754 -0.075,0 0.78769,0.3751 -0.52513,1.12528 z m -2.25056,-1.31283 -0.63766,-0.48762 -0.4126,-0.33759 0.86271,-0.93773 0.33759,0.33758 -0.0375,-0.0375 0.63766,0.45012 -0.75019,1.01275 z m -1.95049,-1.76294 -0.48762,-0.48762 -0.37509,-0.52513 1.01275,-0.75019 0.37509,0.48762 -0.0375,-0.0375 0.4126,0.48762 -0.90023,0.82521 z m -1.57539,-2.10052 -0.30007,-0.48762 -0.33759,-0.67517 1.12528,-0.52513 0.30008,0.63766 0,-0.075 0.26256,0.48762 -1.05026,0.63766 z m -1.12528,-2.36309 -0.15004,-0.48762 -0.22505,-0.75019 1.2003,-0.33758 0.22505,0.75018 -0.0375,-0.0375 0.15004,0.45012 -1.16279,0.4126 z m -0.60015,-2.55064 -0.075,-0.48762 -0.075,-0.8252 1.27532,-0.0375 0.0375,0.78769 0,-0.075 0.075,0.45012 -1.23781,0.18754 z"
         id="path3522"
         style="fill:#000000;fill-opacity:1;fill-rule:nonzero;stroke:#000000;stroke-width:0.03750934px;stroke-linecap:butt;stroke-linejoin:round;stroke-opacity:1;stroke-dasharray:none" />
      <path
         d="m 685.74584,229.44466 0,-1.27532 1.2378,0 0,1.27532 -1.2378,0 z m 0,-2.51313 0,-1.2378 1.2378,0 0,1.2378 -1.2378,0 z m 0,-2.51312 0,-1.23781 1.2378,0 0,1.23781 -1.2378,0 z m 0,-2.47562 0,-1.27532 1.2378,0 0,1.27532 -1.2378,0 z m 0,-2.51312 0,-1.23781 1.2378,0 0,1.23781 -1.2378,0 z m 0,-2.51313 0,-1.23781 1.2378,0 0,1.23781 -1.2378,0 z m 0,-2.47562 0,-1.27532 1.2378,0 0,1.27532 -1.2378,0 z m 0,-2.51312 0,-1.23781 1.2378,0 0,1.23781 -1.2378,0 z m 0,-2.51313 0,-1.23781 1.2378,0 0,1.23781 -1.2378,0 z m 0,-2.47562 0,-1.27531 1.2378,0 0,1.27531 -1.2378,0 z m 0,-2.51312 0,-1.23781 1.2378,0 0,1.23781 -1.2378,0 z m 0,-2.51313 0,-1.23781 1.2378,0 0,1.23781 -1.2378,0 z m 0,-2.47562 0,-1.27531 1.2378,0 0,1.27531 -1.2378,0 z m 0,-2.51312 0,-1.23781 1.2378,0 0,1.23781 -1.2378,0 z m 0,-2.51313 0,-1.23781 1.2378,0 0,1.23781 -1.2378,0 z m 0,-2.47561 0,-1.27532 1.2378,0 0,1.27532 -1.2378,0 z m 0,-2.51313 0,-1.23781 1.2378,0 0,1.23781 -1.2378,0 z m 0,-2.51313 0,-1.2378 1.2378,0 0,1.2378 -1.2378,0 z m 0,-2.47561 0,-1.27532 1.2378,0 0,1.27532 -1.2378,0 z m 0,-2.51313 0,-1.23781 1.2378,0 0,1.23781 -1.2378,0 z m 0,-2.51313 0,-0.71267 0.0375,-0.56264 1.2378,0.075 -0.0375,0.52513 0,-0.0375 0,0.71267 -1.2378,0 z m 0.15003,-2.58814 0.11253,-0.67517 0.15004,-0.60015 1.2003,0.33759 -0.15004,0.56264 0,-0.075 -0.075,0.63766 -1.23781,-0.18755 z m 0.63766,-2.51313 0.18755,-0.52513 0.33758,-0.67517 1.12528,0.52514 -0.30007,0.67516 0,-0.075 -0.15004,0.48762 -1.2003,-0.41261 z m 1.16279,-2.36308 0.18755,-0.30008 0.56264,-0.75019 1.01275,0.75019 -0.56264,0.71268 0.0375,-0.0375 -0.15004,0.26256 -1.08777,-0.63765 z m 1.6129,-2.02551 0.11253,-0.15004 0.86272,-0.75018 0.8252,0.90022 -0.8252,0.75019 0.075,-0.0375 -0.11253,0.11253 -0.93774,-0.82521 z m 2.06302,-1.72543 0.97524,-0.60015 0.15004,-0.075 0.56264,1.12528 -0.15004,0.075 0.0375,-0.0375 -0.93773,0.56264 -0.63766,-1.05026 z m 2.32558,-1.2003 0.90022,-0.33758 0.33759,-0.11253 0.30007,1.23781 -0.30007,0.075 0.075,-0.0375 -0.90022,0.33758 -0.4126,-1.16279 z m 2.51312,-0.71268 0.86272,-0.11252 0.45011,-0.0375 0.075,1.23781 -0.45011,0.0375 0.075,0 -0.82521,0.11253 -0.18755,-1.23781 z m 2.58815,-0.18754 1.23781,0 0,1.23781 -1.23781,0 0,-1.23781 z m 2.51312,0 1.23781,0 0,1.23781 -1.23781,0 0,-1.23781 z m 2.47562,0 1.27532,0 0,1.23781 -1.27532,0 0,-1.23781 z m 2.51313,0 1.23781,0 0,1.23781 -1.23781,0 0,-1.23781 z m 2.51312,0 1.23781,0 0,1.23781 -1.23781,0 0,-1.23781 z m 2.47562,0 1.27532,0 0,1.23781 -1.27532,0 0,-1.23781 z m 2.51313,0 1.2378,0 0,1.23781 -1.2378,0 0,-1.23781 z m 2.51312,0 1.23781,0 0,1.23781 -1.23781,0 0,-1.23781 z m 2.47562,0 1.27532,0 0,1.23781 -1.27532,0 0,-1.23781 z m 2.51313,0 1.2378,0 0,1.23781 -1.2378,0 0,-1.23781 z m 2.51312,0 1.23781,0 0,1.23781 -1.23781,0 0,-1.23781 z m 2.47562,0 1.27532,0 0,1.23781 -1.27532,0 0,-1.23781 z m 2.51312,0 1.23781,0 0,1.23781 -1.23781,0 0,-1.23781 z m 2.51313,0 1.23781,0 0,1.23781 -1.23781,0 0,-1.23781 z m 2.47562,0 1.27531,0 0,1.23781 -1.27531,0 0,-1.23781 z m 2.51312,0 1.23781,0 0,1.23781 -1.23781,0 0,-1.23781 z m 2.51313,0 1.23781,0 0,1.23781 -1.23781,0 0,-1.23781 z m 2.47562,0 1.27531,0 0,1.23781 -1.27531,0 0,-1.23781 z m 2.51312,0 1.23781,0 0,1.23781 -1.23781,0 0,-1.23781 z m 2.55064,0 1.2003,0.075 0.11252,0 -0.18754,1.2378 -0.075,0 0.075,0 -1.2003,-0.075 0.075,-1.23781 z m 2.58814,0.30007 1.08777,0.26257 0.18755,0.075 -0.45011,1.16279 -0.15004,-0.075 0.075,0.0375 -1.05026,-0.26257 0.30007,-1.2003 z m 2.51313,0.7877 0.8252,0.4126 0.30008,0.18755 -0.63766,1.08777 -0.30008,-0.18755 0.075,0.0375 -0.8252,-0.4126 0.56264,-1.12528 z m 2.25056,1.35033 0.60015,0.45012 0.4126,0.37509 -0.86271,0.90022 -0.3751,-0.33758 0.0375,0.0375 -0.56264,-0.45011 0.75019,-0.97525 z m 1.91298,1.72543 0.37509,0.41261 0.45011,0.60015 -0.97524,0.75018 -0.45011,-0.56264 0.0375,0.0375 -0.33759,-0.37509 0.90023,-0.86272 z m 1.53788,2.13804 0.18755,0.30007 0.4126,0.86272 -1.12528,0.52513 -0.3751,-0.82521 0,0.0375 -0.15003,-0.26256 1.05026,-0.63766 z m 1.08777,2.36309 0.075,0.18754 0.26256,1.08777 -1.2003,0.30008 -0.26256,-1.05026 0,0.075 -0.0375,-0.15004 1.16279,-0.45011 z m 0.56264,2.58814 0,0.075 0.075,1.2003 -1.23781,0.075 -0.075,-1.2003 0,0.075 0,-0.075 1.23781,-0.15004 z m 0.075,2.58815 0,1.2378 -1.23781,0 0,-1.2378 1.23781,0 z m 0,2.47561 0,1.27532 -1.23781,0 0,-1.27532 1.23781,0 z m 0,2.51313 0,1.23781 -1.23781,0 0,-1.23781 1.23781,0 z m 0,2.51312 0,1.23781 -1.23781,0 0,-1.23781 1.23781,0 z m 0,2.47562 0,1.27532 -1.23781,0 0,-1.27532 1.23781,0 z m 0,2.51313 0,1.23781 -1.23781,0 0,-1.23781 1.23781,0 z m 0,2.51312 0,1.23781 -1.23781,0 0,-1.23781 1.23781,0 z m 0,2.47562 0,1.27532 -1.23781,0 0,-1.27532 1.23781,0 z m 0,2.51313 0,1.2378 -1.23781,0 0,-1.2378 1.23781,0 z m 0,2.51312 0,1.23781 -1.23781,0 0,-1.23781 1.23781,0 z m 0,2.47562 0,1.27532 -1.23781,0 0,-1.27532 1.23781,0 z m 0,2.51313 0,1.2378 -1.23781,0 0,-1.2378 1.23781,0 z m 0,2.51312 0,1.23781 -1.23781,0 0,-1.23781 1.23781,0 z m 0,2.47562 0,1.27532 -1.23781,0 0,-1.27532 1.23781,0 z m 0,2.51312 0,1.23781 -1.23781,0 0,-1.23781 1.23781,0 z m 0,2.51313 0,1.23781 -1.23781,0 0,-1.23781 1.23781,0 z m 0,2.47562 0,1.27531 -1.23781,0 0,-1.27531 1.23781,0 z m 0,2.51312 0,1.23781 -1.23781,0 0,-1.23781 1.23781,0 z m 0,2.51313 0,1.23781 -1.23781,0 0,-1.23781 1.23781,0 z m 0,2.47562 0,1.27531 -1.23781,0 0,-1.27531 1.23781,0 z m -0.0375,2.55063 -0.0375,0.75019 -0.075,0.56264 -1.23781,-0.18755 0.075,-0.52513 0,0.075 0.0375,-0.75019 1.23781,0.075 z m -0.37509,2.58815 -0.15004,0.63765 -0.22506,0.60015 -1.16279,-0.4126 0.18755,-0.60015 0,0.075 0.15004,-0.60015 1.2003,0.30008 z m -0.90023,2.4381 -0.22505,0.45012 -0.41261,0.71267 -1.08777,-0.67517 0.4126,-0.67516 0,0.075 0.18755,-0.41261 1.12528,0.52513 z m -1.38784,2.21305 -0.18755,0.22506 -0.67517,0.7877 -0.93773,-0.86272 0.67517,-0.71268 -0.0375,0.0375 0.15003,-0.22505 1.01276,0.75018 z m -1.83796,1.87547 -0.0375,0.075 -0.97524,0.71268 -0.075,0.0375 -0.63766,-1.05026 0.0375,-0.0375 -0.075,0.0375 0.93773,-0.67517 -0.0375,0.0375 0.0375,-0.0375 0.82521,0.90022 z m -2.21305,1.50038 -0.93774,0.45011 -0.26256,0.11253 -0.41261,-1.2003 0.22506,-0.075 -0.075,0.0375 0.90023,-0.45011 0.56264,1.12528 z m -2.43811,0.97524 -0.86272,0.22505 -0.4126,0.0375 -0.18755,-1.2378 0.3751,-0.0375 -0.075,0 0.86271,-0.18755 0.30008,1.2003 z m -2.58815,0.4126 -0.8252,0.075 -0.45011,0 0,-1.27532 0.45011,0 -0.0375,0 0.7877,-0.0375 0.075,1.23781 z m -2.51312,0.075 -1.27532,0 0,-1.27532 1.27532,0 0,1.27532 z m -2.51313,0 -1.23781,0 0,-1.27532 1.23781,0 0,1.27532 z m -2.51312,0 -1.23781,0 0,-1.27532 1.23781,0 0,1.27532 z m -2.47562,0 -1.27532,0 0,-1.27532 1.27532,0 0,1.27532 z m -2.51313,0 -1.23781,0 0,-1.27532 1.23781,0 0,1.27532 z m -2.51312,0 -1.23781,0 0,-1.27532 1.23781,0 0,1.27532 z m -2.47562,0 -1.27532,0 0,-1.27532 1.27532,0 0,1.27532 z m -2.51313,0 -1.2378,0 0,-1.27532 1.2378,0 0,1.27532 z m -2.51312,0 -1.23781,0 0,-1.27532 1.23781,0 0,1.27532 z m -2.47562,0 -1.27532,0 0,-1.27532 1.27532,0 0,1.27532 z m -2.51312,0 -1.23781,0 0,-1.27532 1.23781,0 0,1.27532 z m -2.51313,0 -1.23781,0 0,-1.27532 1.23781,0 0,1.27532 z m -2.47562,0 -1.27532,0 0,-1.27532 1.27532,0 0,1.27532 z m -2.51312,0 -1.23781,0 0,-1.27532 1.23781,0 0,1.27532 z m -2.51313,0 -1.23781,0 0,-1.27532 1.23781,0 0,1.27532 z m -2.47562,0 -1.27531,0 0,-1.27532 1.27531,0 0,1.27532 z m -2.51312,0 -1.23781,0 0,-1.27532 1.23781,0 0,1.27532 z m -2.51313,0 -1.23781,0 0,-1.27532 1.23781,0 0,1.27532 z m -2.47562,0 -1.2378,0 -0.0375,0 0.0375,-1.27532 0.0375,0 -0.0375,0 1.2378,0 0,1.27532 z m -2.58814,-0.075 -1.2003,-0.18755 -0.11253,-0.0375 0.30008,-1.2003 0.11253,0 -0.075,0 1.16279,0.18754 -0.18755,1.23781 z m -2.58814,-0.56264 -0.97525,-0.37509 -0.22505,-0.11253 0.52513,-1.12528 0.22505,0.11253 -0.075,-0.0375 0.97525,0.37509 -0.45011,1.16279 z m -2.36309,-1.08777 -0.75019,-0.45011 -0.33758,-0.26257 0.71267,-1.01275 0.33759,0.26257 -0.0375,-0.0375 0.71268,0.45011 -0.63766,1.05026 z m -2.13804,-1.53788 -0.48762,-0.45011 -0.4126,-0.48763 0.90022,-0.8252 0.45012,0.45011 -0.075,-0.0375 0.48762,0.4126 -0.86272,0.93774 z m -1.72543,-1.91298 -0.30007,-0.37509 -0.45011,-0.75019 1.08777,-0.63766 0.4126,0.71268 -0.0375,-0.075 0.26257,0.33758 -0.97525,0.7877 z m -1.31282,-2.28807 -0.15004,-0.26256 -0.33758,-0.93774 1.16279,-0.45011 0.33758,0.93773 0,-0.0375 0.11253,0.22506 -1.12528,0.52513 z m -0.82521,-2.47562 -0.0375,-0.15003 -0.18754,-1.16279 1.2378,-0.18755 0.15004,1.12528 0,-0.0375 0.0375,0.11253 -1.2003,0.30007 z m -0.30007,-2.58814 0,-0.0375 1.2378,-0.075 0,0.0375 -1.2378,0.075 z"
         id="path3524"
         style="fill:#000000;fill-opacity:1;fill-rule:nonzero;stroke:#000000;stroke-width:0.03750934px;stroke-linecap:butt;stroke-linejoin:round;stroke-opacity:1;stroke-dasharray:none" />
      <text
         x="460.63281"
         y="47.214516"
         id="text3526"
         xml:space="preserve"
         style="font-size:17.55437279px;font-style:italic;font-weight:normal;text-align:start;text-anchor:start;fill:#000000;font-family:Verdana">Processes</text>
      <path
         d="m 480.15712,53.938437 -58.81465,35.990216 0.65641,1.050262 58.81465,-35.971461 -0.65641,-1.069017 z m -58.72088,33.720901 -2.96324,4.744932 5.57014,-0.468867 -2.6069,-4.276065 z"
         id="path3528"
         style="fill:#000000;fill-opacity:1;fill-rule:nonzero;stroke:#000000;stroke-width:0.01875467px;stroke-linecap:butt;stroke-linejoin:round;stroke-opacity:1;stroke-dasharray:none" />
      <text
         x="184.65176"
         y="327.59686"
         id="text3530"
         xml:space="preserve"
         style="font-size:17.55437279px;font-style:italic;font-weight:normal;text-align:start;text-anchor:start;fill:#000000;font-family:Verdana">Threads</text>
      <text
         x="638.97357"
         y="327.59686"
         id="text3532"
         xml:space="preserve"
         style="font-size:17.55437279px;font-style:italic;font-weight:normal;text-align:start;text-anchor:start;fill:#000000;font-family:Verdana">Threads</text>
      <path
         d="m 203.61948,305.94497 -50.07498,-68.96093 1.01275,-0.73143 50.07498,68.96093 -1.01275,0.73143 z m -50.86267,-66.84165 -0.91898,-5.51388 4.96998,2.56939 -4.051,2.94449 z"
         id="path3534"
         style="fill:#000000;fill-opacity:1;fill-rule:nonzero;stroke:#000000;stroke-width:0.01875467px;stroke-linecap:butt;stroke-linejoin:round;stroke-opacity:1;stroke-dasharray:none" />
      <path
         d="m 220.46117,305.73867 8.51462,-66.16649 -1.2378,-0.15003 -8.53338,66.14773 1.25656,0.16879 z m 10.2213,-64.68487 -1.83796,-5.28882 -3.11327,4.65116 4.95123,0.63766 z"
         id="path3536"
         style="fill:#000000;fill-opacity:1;fill-rule:nonzero;stroke:#000000;stroke-width:0.01875467px;stroke-linecap:butt;stroke-linejoin:round;stroke-opacity:1;stroke-dasharray:none" />
      <path
         d="m 244.22334,307.2578 121.69907,-72.76813 -0.63766,-1.08777 -121.69907,72.76812 0.63766,1.08778 z m 121.58654,-70.51757 3.0195,-4.72618 -5.58889,0.43136 2.56939,4.29482 z"
         id="path3538"
         style="fill:#000000;fill-opacity:1;fill-rule:nonzero;stroke:#000000;stroke-width:0.01875467px;stroke-linecap:butt;stroke-linejoin:round;stroke-opacity:1;stroke-dasharray:none" />
      <path
         d="m 674.7556,305.92621 28.80718,-66.46655 -1.16279,-0.48763 -28.80718,66.42905 1.16279,0.52513 z m 30.00747,-64.55358 -0.30007,-5.58889 -4.27607,3.6009 4.57614,1.98799 z"
         id="path3540"
         style="fill:#000000;fill-opacity:1;fill-rule:nonzero;stroke:#000000;stroke-width:0.03750934px;stroke-linecap:butt;stroke-linejoin:round;stroke-opacity:1;stroke-dasharray:none" />
      <path
         d="m 654.87565,304.46335 -30.94521,-65.94143 1.12528,-0.56264 30.94521,65.97894 -1.12528,0.52513 z m -32.108,-64.02845 0.15003,-5.58889 4.3886,3.45086 -4.53863,2.13803 z"
         id="path3542"
         style="fill:#000000;fill-opacity:1;fill-rule:nonzero;stroke:#000000;stroke-width:0.03750934px;stroke-linecap:butt;stroke-linejoin:round;stroke-opacity:1;stroke-dasharray:none" />
    </g>
  </g>
</svg>
