<?xml version="1.0" standalone="yes"?>
<!--
Licensed to the Apache Software Foundation (ASF) under one
or more contributor license agreements.  See the NOTICE file
distributed with this work for additional information
regarding copyright ownership.  The ASF licenses this file
to you under the Apache License, Version 2.0 (the
"License"); you may not use this file except in compliance
with the License.  You may obtain a copy of the License at

http://www.apache.org/licenses/LICENSE-2.0

Unless required by applicable law or agreed to in writing,
software distributed under the License is distributed on an
"AS IS" BASIS, WITHOUT WARRANTIES OR CONDITIONS OF ANY
KIND, either express or implied.  See the License for the
specific language governing permissions and limitations
under the License.
-->

<svg version="1.1" viewBox="0.0 0.0 328.8241469816273 252.5695538057743" fill="none" stroke="none"
     stroke-linecap="square" stroke-miterlimit="10" xmlns:xlink="http://www.w3.org/1999/xlink"
     xmlns="http://www.w3.org/2000/svg">
    <clipPath id="p.0">
        <path d="m0 0l328.82416 0l0 252.56955l-328.82416 0l0 -252.56955z" clip-rule="nonzero"/>
    </clipPath>
    <g clip-path="url(#p.0)">
        <path fill="#000000" fill-opacity="0.0" d="m0 0l328.82416 0l0 252.56955l-328.82416 0z"
              fill-rule="evenodd"/>
        <path fill="#cfe2f3"
              d="m0 69.703415l0 0c0 -25.091995 20.341078 -45.433075 45.43307 -45.433075l0 0c12.049599 0 23.605679 4.786684 32.126034 13.307039c8.520355 8.520351 13.307037 20.076431 13.307037 32.126034l0 0c0 25.091988 -20.34108 45.433067 -45.43307 45.433067l0 0c-25.091993 0 -45.43307 -20.34108 -45.43307 -45.433067z"
              fill-rule="evenodd"/>
        <path stroke="#000000" stroke-width="1.0" stroke-linejoin="round" stroke-linecap="butt"
              d="m0 69.703415l0 0c0 -25.091995 20.341078 -45.433075 45.43307 -45.433075l0 0c12.049599 0 23.605679 4.786684 32.126034 13.307039c8.520355 8.520351 13.307037 20.076431 13.307037 32.126034l0 0c0 25.091988 -20.34108 45.433067 -45.43307 45.433067l0 0c-25.091993 0 -45.43307 -20.34108 -45.43307 -45.433067z"
              fill-rule="evenodd"/>
        <path fill="#cfe2f3"
              d="m0 195.85039l0 0c0 -25.09198 20.341078 -45.43306 45.43307 -45.43306l0 0c12.049599 0 23.605679 4.786682 32.126034 13.307037c8.520355 8.520355 13.307037 20.076431 13.307037 32.126022l0 0c0 25.091995 -20.34108 45.433075 -45.43307 45.433075l0 0c-25.091993 0 -45.43307 -20.34108 -45.43307 -45.433075z"
              fill-rule="evenodd"/>
        <path stroke="#000000" stroke-width="1.0" stroke-linejoin="round" stroke-linecap="butt"
              d="m0 195.85039l0 0c0 -25.09198 20.341078 -45.43306 45.43307 -45.43306l0 0c12.049599 0 23.605679 4.786682 32.126034 13.307037c8.520355 8.520355 13.307037 20.076431 13.307037 32.126022l0 0c0 25.091995 -20.34108 45.433075 -45.43307 45.433075l0 0c-25.091993 0 -45.43307 -20.34108 -45.43307 -45.433075z"
              fill-rule="evenodd"/>
        <path fill="#cfe2f3"
              d="m228.51575 69.703415l0 0c0 -25.091995 20.34108 -45.433075 45.433075 -45.433075l0 0c12.049591 0 23.605682 4.786684 32.126038 13.307039c8.520355 8.520351 13.307037 20.076431 13.307037 32.126034l0 0c0 25.091988 -20.341095 45.433067 -45.433075 45.433067l0 0c-25.091995 0 -45.433075 -20.34108 -45.433075 -45.433067z"
              fill-rule="evenodd"/>
        <path stroke="#000000" stroke-width="1.0" stroke-linejoin="round" stroke-linecap="butt"
              d="m228.51575 69.703415l0 0c0 -25.091995 20.34108 -45.433075 45.433075 -45.433075l0 0c12.049591 0 23.605682 4.786684 32.126038 13.307039c8.520355 8.520351 13.307037 20.076431 13.307037 32.126034l0 0c0 25.091988 -20.341095 45.433067 -45.433075 45.433067l0 0c-25.091995 0 -45.433075 -20.34108 -45.433075 -45.433067z"
              fill-rule="evenodd"/>
        <path fill="#cfe2f3"
              d="m228.51575 195.85039l0 0c0 -25.09198 20.34108 -45.43306 45.433075 -45.43306l0 0c12.049591 0 23.605682 4.786682 32.126038 13.307037c8.520355 8.520355 13.307037 20.076431 13.307037 32.126022l0 0c0 25.091995 -20.341095 45.433075 -45.433075 45.433075l0 0c-25.091995 0 -45.433075 -20.34108 -45.433075 -45.433075z"
              fill-rule="evenodd"/>
        <path stroke="#000000" stroke-width="1.0" stroke-linejoin="round" stroke-linecap="butt"
              d="m228.51575 195.85039l0 0c0 -25.09198 20.34108 -45.43306 45.433075 -45.43306l0 0c12.049591 0 23.605682 4.786682 32.126038 13.307037c8.520355 8.520355 13.307037 20.076431 13.307037 32.126022l0 0c0 25.091995 -20.341095 45.433075 -45.433075 45.433075l0 0c-25.091995 0 -45.433075 -20.34108 -45.433075 -45.433075z"
              fill-rule="evenodd"/>
        <path fill="#cfe2f3"
              d="m123.215225 60.83727l60.692917 0l0 -8.866138l17.732285 17.732285l-17.732285 17.732277l0 -8.866135l-60.692917 0z"
              fill-rule="evenodd"/>
        <path stroke="#000000" stroke-width="1.0" stroke-linejoin="round" stroke-linecap="butt"
              d="m123.215225 60.83727l60.692917 0l0 -8.866138l17.732285 17.732285l-17.732285 17.732277l0 -8.866135l-60.692917 0z"
              fill-rule="evenodd"/>
        <path fill="#cfe2f3"
              d="m123.215225 186.98425l60.692917 0l0 -8.86615l17.732285 17.732285l-17.732285 17.732285l0 -8.866135l-60.692917 0z"
              fill-rule="evenodd"/>
        <path stroke="#000000" stroke-width="1.0" stroke-linejoin="round" stroke-linecap="butt"
              d="m123.215225 186.98425l60.692917 0l0 -8.86615l17.732285 17.732285l-17.732285 17.732285l0 -8.866135l-60.692917 0z"
              fill-rule="evenodd"/>
        <path fill="#cfe2f3"
              d="m133.37193 104.98999l52.043427 31.250443l4.5669403 -7.5984344l6.066803 24.324371l-24.334518 6.069336l4.566925 -7.598419l-52.043434 -31.250443z"
              fill-rule="evenodd"/>
        <path stroke="#000000" stroke-width="1.0" stroke-linejoin="round" stroke-linecap="butt"
              d="m133.37193 104.98999l52.043427 31.250443l4.5669403 -7.5984344l6.066803 24.324371l-24.334518 6.069336l4.566925 -7.598419l-52.043434 -31.250443z"
              fill-rule="evenodd"/>
        <path fill="#cfe2f3"
              d="m133.37193 156.82988l52.043427 -31.250427l4.5669403 7.598419l6.066803 -24.324364l-24.334518 -6.069336l4.566925 7.598427l-52.043434 31.250443z"
              fill-rule="evenodd"/>
        <path stroke="#000000" stroke-width="1.0" stroke-linejoin="round" stroke-linecap="butt"
              d="m133.37193 156.82988l52.043427 -31.250427l4.5669403 7.598419l6.066803 -24.324364l-24.334518 -6.069336l4.566925 7.598427l-52.043434 31.250443z"
              fill-rule="evenodd"/>
        <path fill="#000000" fill-opacity="0.0"
              d="m108.62991 0l102.83464 0l0 42.015747l-102.83464 0z" fill-rule="evenodd"/>
        <path fill="#000000"
              d="m121.81621 27.727875l-1.515625 0l0 -13.359375l1.640625 0l0 4.765625q1.046875 -1.296875 2.65625 -1.296875q0.890625 0 1.6875 0.359375q0.796875 0.359375 1.3125 1.015625q0.515625 0.640625 0.796875 1.5625q0.296875 0.921875 0.296875 1.96875q0 2.484375 -1.234375 3.84375q-1.21875 1.359375 -2.953125 1.359375q-1.703125 0 -2.6875 -1.4375l0 1.21875zm-0.015625 -4.90625q0 1.734375 0.484375 2.515625q0.765625 1.265625 2.09375 1.265625q1.078125 0 1.859375 -0.9375q0.78125 -0.9375 0.78125 -2.78125q0 -1.890625 -0.75 -2.796875q-0.75 -0.90625 -1.828125 -0.90625q-1.0625 0 -1.859375 0.9375q-0.78125 0.9375 -0.78125 2.703125zm8.875717 4.90625l0 -9.671875l1.46875 0l0 1.46875q0.5625 -1.03125 1.03125 -1.359375q0.484375 -0.328125 1.0625 -0.328125q0.828125 0 1.6875 0.53125l-0.5625 1.515625q-0.609375 -0.359375 -1.203125 -0.359375q-0.546875 0 -0.96875 0.328125q-0.421875 0.328125 -0.609375 0.890625q-0.28125 0.875 -0.28125 1.921875l0 5.0625l-1.625 0zm5.618927 -4.84375q0 -2.6875 1.484375 -3.96875q1.25 -1.078125 3.046875 -1.078125q2.0 0 3.265625 1.3125q1.265625 1.296875 1.265625 3.609375q0 1.859375 -0.5625 2.9375q-0.5625 1.0625 -1.640625 1.65625q-1.0625 0.59375 -2.328125 0.59375q-2.03125 0 -3.28125 -1.296875q-1.25 -1.3125 -1.25 -3.765625zm1.6875 0q0 1.859375 0.796875 2.796875q0.8125 0.921875 2.046875 0.921875q1.21875 0 2.03125 -0.921875q0.8125 -0.9375 0.8125 -2.84375q0 -1.796875 -0.8125 -2.71875q-0.8125 -0.921875 -2.03125 -0.921875q-1.234375 0 -2.046875 0.921875q-0.796875 0.90625 -0.796875 2.765625zm15.610092 3.65625q-0.921875 0.765625 -1.765625 1.09375q-0.828125 0.3125 -1.796875 0.3125q-1.59375 0 -2.453125 -0.78125q-0.859375 -0.78125 -0.859375 -1.984375q0 -0.71875 0.328125 -1.296875q0.328125 -0.59375 0.84375 -0.9375q0.53125 -0.359375 1.1875 -0.546875q0.46875 -0.125 1.453125 -0.25q1.984375 -0.234375 2.921875 -0.5625q0.015625 -0.34375 0.015625 -0.421875q0 -1.0 -0.46875 -1.421875q-0.625 -0.546875 -1.875 -0.546875q-1.15625 0 -1.703125 0.40625q-0.546875 0.40625 -0.8125 1.421875l-1.609375 -0.21875q0.21875 -1.015625 0.71875 -1.640625q0.5 -0.640625 1.453125 -0.984375q0.953125 -0.34375 2.1875 -0.34375q1.25 0 2.015625 0.296875q0.78125 0.28125 1.140625 0.734375q0.375 0.4375 0.515625 1.109375q0.078125 0.421875 0.078125 1.515625l0 2.1875q0 2.28125 0.109375 2.890625q0.109375 0.59375 0.40625 1.15625l-1.703125 0q-0.265625 -0.515625 -0.328125 -1.1875zm-0.140625 -3.671875q-0.890625 0.375 -2.671875 0.625q-1.015625 0.140625 -1.4375 0.328125q-0.421875 0.1875 -0.65625 0.53125q-0.21875 0.34375 -0.21875 0.78125q0 0.65625 0.5 1.09375q0.5 0.4375 1.453125 0.4375q0.9375 0 1.671875 -0.40625q0.75 -0.421875 1.09375 -1.140625q0.265625 -0.5625 0.265625 -1.640625l0 -0.609375zm10.469467 4.859375l0 -1.21875q-0.90625 1.4375 -2.703125 1.4375q-1.15625 0 -2.125 -0.640625q-0.96875 -0.640625 -1.5 -1.78125q-0.53125 -1.140625 -0.53125 -2.625q0 -1.453125 0.484375 -2.625q0.484375 -1.1875 1.4375 -1.8125q0.96875 -0.625 2.171875 -0.625q0.875 0 1.546875 0.375q0.6875 0.359375 1.109375 0.953125l0 -4.796875l1.640625 0l0 13.359375l-1.53125 0zm-5.171875 -4.828125q0 1.859375 0.78125 2.78125q0.78125 0.921875 1.84375 0.921875q1.078125 0 1.828125 -0.875q0.75 -0.890625 0.75 -2.6875q0 -1.984375 -0.765625 -2.90625q-0.765625 -0.9375 -1.890625 -0.9375q-1.078125 0 -1.8125 0.890625q-0.734375 0.890625 -0.734375 2.8125zm15.594467 1.28125l1.609375 0.21875q-0.265625 1.65625 -1.359375 2.609375q-1.078125 0.9375 -2.671875 0.9375q-1.984375 0 -3.1875 -1.296875q-1.203125 -1.296875 -1.203125 -3.71875q0 -1.578125 0.515625 -2.75q0.515625 -1.171875 1.578125 -1.75q1.0625 -0.59375 2.3125 -0.59375q1.578125 0 2.578125 0.796875q1.0 0.796875 1.28125 2.265625l-1.59375 0.234375q-0.234375 -0.96875 -0.8125 -1.453125q-0.578125 -0.5 -1.390625 -0.5q-1.234375 0 -2.015625 0.890625q-0.78125 0.890625 -0.78125 2.8125q0 1.953125 0.75 2.84375q0.75 0.875 1.953125 0.875q0.96875 0 1.609375 -0.59375q0.65625 -0.59375 0.828125 -1.828125zm9.328125 2.359375q-0.921875 0.765625 -1.765625 1.09375q-0.828125 0.3125 -1.796875 0.3125q-1.59375 0 -2.453125 -0.78125q-0.859375 -0.78125 -0.859375 -1.984375q0 -0.71875 0.328125 -1.296875q0.328125 -0.59375 0.84375 -0.9375q0.53125 -0.359375 1.1875 -0.546875q0.46875 -0.125 1.453125 -0.25q1.984375 -0.234375 2.921875 -0.5625q0.015625 -0.34375 0.015625 -0.421875q0 -1.0 -0.46875 -1.421875q-0.625 -0.546875 -1.875 -0.546875q-1.15625 0 -1.703125 0.40625q-0.546875 0.40625 -0.8125 1.421875l-1.609375 -0.21875q0.21875 -1.015625 0.71875 -1.640625q0.5 -0.640625 1.453125 -0.984375q0.953125 -0.34375 2.1875 -0.34375q1.25 0 2.015625 0.296875q0.78125 0.28125 1.140625 0.734375q0.375 0.4375 0.515625 1.109375q0.078125 0.421875 0.078125 1.515625l0 2.1875q0 2.28125 0.109375 2.890625q0.109375 0.59375 0.40625 1.15625l-1.703125 0q-0.265625 -0.515625 -0.328125 -1.1875zm-0.140625 -3.671875q-0.890625 0.375 -2.671875 0.625q-1.015625 0.140625 -1.4375 0.328125q-0.421875 0.1875 -0.65625 0.53125q-0.21875 0.34375 -0.21875 0.78125q0 0.65625 0.5 1.09375q0.5 0.4375 1.453125 0.4375q0.9375 0 1.671875 -0.40625q0.75 -0.421875 1.09375 -1.140625q0.265625 -0.5625 0.265625 -1.640625l0 -0.609375zm3.5475922 1.96875l1.625 -0.25q0.125 0.96875 0.75 1.5q0.625 0.515625 1.75 0.515625q1.125 0 1.671875 -0.453125q0.546875 -0.46875 0.546875 -1.09375q0 -0.546875 -0.484375 -0.875q-0.328125 -0.21875 -1.671875 -0.546875q-1.8125 -0.46875 -2.515625 -0.796875q-0.6875 -0.328125 -1.046875 -0.90625q-0.359375 -0.59375 -0.359375 -1.3125q0 -0.640625 0.296875 -1.1875q0.296875 -0.5625 0.8125 -0.921875q0.375 -0.28125 1.03125 -0.46875q0.671875 -0.203125 1.421875 -0.203125q1.140625 0 2.0 0.328125q0.859375 0.328125 1.265625 0.890625q0.421875 0.5625 0.578125 1.5l-1.609375 0.21875q-0.109375 -0.75 -0.640625 -1.171875q-0.515625 -0.421875 -1.46875 -0.421875q-1.140625 0 -1.625 0.375q-0.46875 0.375 -0.46875 0.875q0 0.3125 0.1875 0.578125q0.203125 0.265625 0.640625 0.4375q0.234375 0.09375 1.4375 0.421875q1.75 0.453125 2.4375 0.75q0.6875 0.296875 1.078125 0.859375q0.390625 0.5625 0.390625 1.40625q0 0.828125 -0.484375 1.546875q-0.46875 0.71875 -1.375 1.125q-0.90625 0.390625 -2.046875 0.390625q-1.875 0 -2.875 -0.78125q-0.984375 -0.78125 -1.25 -2.328125zm13.5625 1.421875l0.234375 1.453125q-0.6875 0.140625 -1.234375 0.140625q-0.890625 0 -1.390625 -0.28125q-0.484375 -0.28125 -0.6875 -0.734375q-0.203125 -0.46875 -0.203125 -1.9375l0 -5.578125l-1.203125 0l0 -1.265625l1.203125 0l0 -2.390625l1.625 -0.984375l0 3.375l1.65625 0l0 1.265625l-1.65625 0l0 5.671875q0 0.6875 0.078125 0.890625q0.09375 0.203125 0.28125 0.328125q0.203125 0.109375 0.578125 0.109375q0.265625 0 0.71875 -0.0625z"
              fill-rule="nonzero"/>
        <path fill="#cc0000"
              d="m176.01837 195.85039l0 0c0 -2.7135773 2.1997986 -4.913376 4.913391 -4.913376l0 0c1.3031006 0 2.5528412 0.5176544 3.474289 1.4390869c0.9214325 0.92144775 1.4390869 2.1711884 1.4390869 3.474289l0 0c0 2.7135925 -2.1997986 4.913391 -4.913376 4.913391l0 0c-2.7135925 0 -4.913391 -2.1997986 -4.913391 -4.913391z"
              fill-rule="evenodd"/>
        <path stroke="#cc0000" stroke-width="1.0" stroke-linejoin="round" stroke-linecap="butt"
              d="m176.01837 195.85039l0 0c0 -2.7135773 2.1997986 -4.913376 4.913391 -4.913376l0 0c1.3031006 0 2.5528412 0.5176544 3.474289 1.4390869c0.9214325 0.92144775 1.4390869 2.1711884 1.4390869 3.474289l0 0c0 2.7135925 -2.1997986 4.913391 -4.913376 4.913391l0 0c-2.7135925 0 -4.913391 -2.1997986 -4.913391 -4.913391z"
              fill-rule="evenodd"/>
        <path fill="#0000ff"
              d="m159.49869 195.85039l0 0c0 -2.7135773 2.1997986 -4.913376 4.913391 -4.913376l0 0c1.3031006 0 2.5528412 0.5176544 3.474289 1.4390869c0.9214325 0.92144775 1.4390869 2.1711884 1.4390869 3.474289l0 0c0 2.7135925 -2.1997986 4.913391 -4.913376 4.913391l0 0c-2.7135925 0 -4.913391 -2.1997986 -4.913391 -4.913391z"
              fill-rule="evenodd"/>
        <path stroke="#0000ff" stroke-width="1.0" stroke-linejoin="round" stroke-linecap="butt"
              d="m159.49869 195.85039l0 0c0 -2.7135773 2.1997986 -4.913376 4.913391 -4.913376l0 0c1.3031006 0 2.5528412 0.5176544 3.474289 1.4390869c0.9214325 0.92144775 1.4390869 2.1711884 1.4390869 3.474289l0 0c0 2.7135925 -2.1997986 4.913391 -4.913376 4.913391l0 0c-2.7135925 0 -4.913391 -2.1997986 -4.913391 -4.913391z"
              fill-rule="evenodd"/>
        <path fill="#0000ff"
              d="m159.49869 127.808395l0 0c0 -2.713585 2.1997986 -4.9133835 4.913391 -4.9133835l0 0c1.3031006 0 2.5528412 0.51766205 3.474289 1.4391022c0.9214325 0.9214325 1.4390869 2.171173 1.4390869 3.4742813l0 0c0 2.7135925 -2.1997986 4.913391 -4.913376 4.913391l0 0c-2.7135925 0 -4.913391 -2.1997986 -4.913391 -4.913391z"
              fill-rule="evenodd"/>
        <path stroke="#0000ff" stroke-width="1.0" stroke-linejoin="round" stroke-linecap="butt"
              d="m159.49869 127.808395l0 0c0 -2.713585 2.1997986 -4.9133835 4.913391 -4.9133835l0 0c1.3031006 0 2.5528412 0.51766205 3.474289 1.4391022c0.9214325 0.9214325 1.4390869 2.171173 1.4390869 3.4742813l0 0c0 2.7135925 -2.1997986 4.913391 -4.913376 4.913391l0 0c-2.7135925 0 -4.913391 -2.1997986 -4.913391 -4.913391z"
              fill-rule="evenodd"/>
        <path fill="#cc0000"
              d="m225.72179 90.86264l0 0c0 -2.6812134 9.5295105 -4.854767 21.284775 -4.854767c11.755249 0 21.28479 2.1735535 21.28479 4.854767l0 19.419075c0 2.6812134 -9.529541 4.854767 -21.28479 4.854767c-11.755264 0 -21.284775 -2.1735535 -21.284775 -4.854767z"
              fill-rule="evenodd"/>
        <path fill="#000000" fill-opacity="0.0"
              d="m268.29135 90.86264l0 0c0 2.6812134 -9.529541 4.854767 -21.28479 4.854767c-11.755264 0 -21.284775 -2.1735535 -21.284775 -4.854767"
              fill-rule="evenodd"/>
        <path fill="#000000" fill-opacity="0.0"
              d="m225.72179 90.86264l0 0c0 -2.6812134 9.5295105 -4.854767 21.284775 -4.854767c11.755249 0 21.28479 2.1735535 21.28479 4.854767l0 19.419075c0 2.6812134 -9.529541 4.854767 -21.28479 4.854767c-11.755264 0 -21.284775 -2.1735535 -21.284775 -4.854767z"
              fill-rule="evenodd"/>
        <path stroke="#000000" stroke-width="1.0" stroke-linejoin="round" stroke-linecap="butt"
              d="m268.29135 90.86264l0 0c0 2.6812134 -9.529541 4.854767 -21.28479 4.854767c-11.755264 0 -21.284775 -2.1735535 -21.284775 -4.854767"
              fill-rule="evenodd"/>
        <path stroke="#000000" stroke-width="1.0" stroke-linejoin="round" stroke-linecap="butt"
              d="m225.72179 90.86264l0 0c0 -2.6812134 9.5295105 -4.854767 21.284775 -4.854767c11.755249 0 21.28479 2.1735535 21.28479 4.854767l0 19.419075c0 2.6812134 -9.529541 4.854767 -21.28479 4.854767c-11.755264 0 -21.284775 -2.1735535 -21.284775 -4.854767z"
              fill-rule="evenodd"/>
        <path fill="#f1c232"
              d="m225.72179 218.86264l0 0c0 -2.6812134 9.5295105 -4.854767 21.284775 -4.854767c11.755249 0 21.28479 2.1735535 21.28479 4.854767l0 19.419067c0 2.6812286 -9.529541 4.854782 -21.28479 4.854782c-11.755264 0 -21.284775 -2.1735535 -21.284775 -4.854782z"
              fill-rule="evenodd"/>
        <path fill="#000000" fill-opacity="0.0"
              d="m268.29135 218.86264l0 0c0 2.6812134 -9.529541 4.854767 -21.28479 4.854767c-11.755264 0 -21.284775 -2.1735535 -21.284775 -4.854767"
              fill-rule="evenodd"/>
        <path fill="#000000" fill-opacity="0.0"
              d="m225.72179 218.86264l0 0c0 -2.6812134 9.5295105 -4.854767 21.284775 -4.854767c11.755249 0 21.28479 2.1735535 21.28479 4.854767l0 19.419067c0 2.6812286 -9.529541 4.854782 -21.28479 4.854782c-11.755264 0 -21.284775 -2.1735535 -21.284775 -4.854782z"
              fill-rule="evenodd"/>
        <path stroke="#000000" stroke-width="1.0" stroke-linejoin="round" stroke-linecap="butt"
              d="m268.29135 218.86264l0 0c0 2.6812134 -9.529541 4.854767 -21.28479 4.854767c-11.755264 0 -21.284775 -2.1735535 -21.284775 -4.854767"
              fill-rule="evenodd"/>
        <path stroke="#000000" stroke-width="1.0" stroke-linejoin="round" stroke-linecap="butt"
              d="m225.72179 218.86264l0 0c0 -2.6812134 9.5295105 -4.854767 21.284775 -4.854767c11.755249 0 21.28479 2.1735535 21.28479 4.854767l0 19.419067c0 2.6812286 -9.529541 4.854782 -21.28479 4.854782c-11.755264 0 -21.284775 -2.1735535 -21.284775 -4.854782z"
              fill-rule="evenodd"/>
    </g>
</svg>
