<?xml version="1.0" standalone="yes"?>
<!--
Licensed to the Apache Software Foundation (ASF) under one
or more contributor license agreements.  See the NOTICE file
distributed with this work for additional information
regarding copyright ownership.  The ASF licenses this file
to you under the Apache License, Version 2.0 (the
"License"); you may not use this file except in compliance
with the License.  You may obtain a copy of the License at

http://www.apache.org/licenses/LICENSE-2.0

Unless required by applicable law or agreed to in writing,
software distributed under the License is distributed on an
"AS IS" BASIS, WITHOUT WARRANTIES OR CONDITIONS OF ANY
KIND, either express or implied.  See the License for the
specific language governing permissions and limitations
under the License.
-->

<svg version="1.1" viewBox="0.0 0.0 561.3228346456693 252.6535433070866" fill="none" stroke="none"
     stroke-linecap="square" stroke-miterlimit="10" xmlns:xlink="http://www.w3.org/1999/xlink"
     xmlns="http://www.w3.org/2000/svg">
    <clipPath id="p.0">
        <path d="m0 0l561.3228 0l0 252.65355l-561.3228 0l0 -252.65355z" clip-rule="nonzero"/>
    </clipPath>
    <g clip-path="url(#p.0)">
        <path fill="#000000" fill-opacity="0.0" d="m0 0l561.3228 0l0 252.65355l-561.3228 0z"
              fill-rule="evenodd"/>
        <path fill="#cfe2f3"
              d="m0 69.703415l0 0c0 -25.091995 20.341078 -45.433075 45.43307 -45.433075l0 0c12.049599 0 23.605679 4.786684 32.126034 13.307039c8.520355 8.520351 13.307037 20.076431 13.307037 32.126034l0 0c0 25.091988 -20.34108 45.433067 -45.43307 45.433067l0 0c-25.091993 0 -45.43307 -20.34108 -45.43307 -45.433067z"
              fill-rule="evenodd"/>
        <path stroke="#000000" stroke-width="1.0" stroke-linejoin="round" stroke-linecap="butt"
              d="m0 69.703415l0 0c0 -25.091995 20.341078 -45.433075 45.43307 -45.433075l0 0c12.049599 0 23.605679 4.786684 32.126034 13.307039c8.520355 8.520351 13.307037 20.076431 13.307037 32.126034l0 0c0 25.091988 -20.34108 45.433067 -45.43307 45.433067l0 0c-25.091993 0 -45.43307 -20.34108 -45.43307 -45.433067z"
              fill-rule="evenodd"/>
        <path fill="#cfe2f3"
              d="m0 195.85039l0 0c0 -25.09198 20.341078 -45.43306 45.43307 -45.43306l0 0c12.049599 0 23.605679 4.786682 32.126034 13.307037c8.520355 8.520355 13.307037 20.076431 13.307037 32.126022l0 0c0 25.091995 -20.34108 45.433075 -45.43307 45.433075l0 0c-25.091993 0 -45.43307 -20.34108 -45.43307 -45.433075z"
              fill-rule="evenodd"/>
        <path stroke="#000000" stroke-width="1.0" stroke-linejoin="round" stroke-linecap="butt"
              d="m0 195.85039l0 0c0 -25.09198 20.341078 -45.43306 45.43307 -45.43306l0 0c12.049599 0 23.605679 4.786682 32.126034 13.307037c8.520355 8.520355 13.307037 20.076431 13.307037 32.126022l0 0c0 25.091995 -20.34108 45.433075 -45.43307 45.433075l0 0c-25.091993 0 -45.43307 -20.34108 -45.43307 -45.433075z"
              fill-rule="evenodd"/>
        <path fill="#cfe2f3"
              d="m228.51575 69.703415l0 0c0 -25.091995 20.34108 -45.433075 45.433075 -45.433075l0 0c12.049591 0 23.605682 4.786684 32.126038 13.307039c8.520355 8.520351 13.307037 20.076431 13.307037 32.126034l0 0c0 25.091988 -20.341095 45.433067 -45.433075 45.433067l0 0c-25.091995 0 -45.433075 -20.34108 -45.433075 -45.433067z"
              fill-rule="evenodd"/>
        <path stroke="#000000" stroke-width="1.0" stroke-linejoin="round" stroke-linecap="butt"
              d="m228.51575 69.703415l0 0c0 -25.091995 20.34108 -45.433075 45.433075 -45.433075l0 0c12.049591 0 23.605682 4.786684 32.126038 13.307039c8.520355 8.520351 13.307037 20.076431 13.307037 32.126034l0 0c0 25.091988 -20.341095 45.433067 -45.433075 45.433067l0 0c-25.091995 0 -45.433075 -20.34108 -45.433075 -45.433067z"
              fill-rule="evenodd"/>
        <path fill="#cfe2f3"
              d="m228.51575 195.85039l0 0c0 -25.09198 20.34108 -45.43306 45.433075 -45.43306l0 0c12.049591 0 23.605682 4.786682 32.126038 13.307037c8.520355 8.520355 13.307037 20.076431 13.307037 32.126022l0 0c0 25.091995 -20.341095 45.433075 -45.433075 45.433075l0 0c-25.091995 0 -45.433075 -20.34108 -45.433075 -45.433075z"
              fill-rule="evenodd"/>
        <path stroke="#000000" stroke-width="1.0" stroke-linejoin="round" stroke-linecap="butt"
              d="m228.51575 195.85039l0 0c0 -25.09198 20.34108 -45.43306 45.433075 -45.43306l0 0c12.049591 0 23.605682 4.786682 32.126038 13.307037c8.520355 8.520355 13.307037 20.076431 13.307037 32.126022l0 0c0 25.091995 -20.341095 45.433075 -45.433075 45.433075l0 0c-25.091995 0 -45.433075 -20.34108 -45.433075 -45.433075z"
              fill-rule="evenodd"/>
        <path fill="#cfe2f3"
              d="m457.0315 69.703415l0 0c0 -25.091995 20.341095 -45.433075 45.433075 -45.433075l0 0c12.049591 0 23.605682 4.786684 32.126007 13.307039c8.520386 8.520351 13.307068 20.076431 13.307068 32.126034l0 0c0 25.091988 -20.341064 45.433067 -45.433075 45.433067l0 0c-25.09198 0 -45.433075 -20.34108 -45.433075 -45.433067z"
              fill-rule="evenodd"/>
        <path stroke="#000000" stroke-width="1.0" stroke-linejoin="round" stroke-linecap="butt"
              d="m457.0315 69.703415l0 0c0 -25.091995 20.341095 -45.433075 45.433075 -45.433075l0 0c12.049591 0 23.605682 4.786684 32.126007 13.307039c8.520386 8.520351 13.307068 20.076431 13.307068 32.126034l0 0c0 25.091988 -20.341064 45.433067 -45.433075 45.433067l0 0c-25.09198 0 -45.433075 -20.34108 -45.433075 -45.433067z"
              fill-rule="evenodd"/>
        <path fill="#cfe2f3"
              d="m457.0315 195.85039l0 0c0 -25.09198 20.341095 -45.43306 45.433075 -45.43306l0 0c12.049591 0 23.605682 4.786682 32.126007 13.307037c8.520386 8.520355 13.307068 20.076431 13.307068 32.126022l0 0c0 25.091995 -20.341064 45.433075 -45.433075 45.433075l0 0c-25.09198 0 -45.433075 -20.34108 -45.433075 -45.433075z"
              fill-rule="evenodd"/>
        <path stroke="#000000" stroke-width="1.0" stroke-linejoin="round" stroke-linecap="butt"
              d="m457.0315 195.85039l0 0c0 -25.09198 20.341095 -45.43306 45.433075 -45.43306l0 0c12.049591 0 23.605682 4.786682 32.126007 13.307037c8.520386 8.520355 13.307068 20.076431 13.307068 32.126022l0 0c0 25.091995 -20.341064 45.433075 -45.433075 45.433075l0 0c-25.09198 0 -45.433075 -20.34108 -45.433075 -45.433075z"
              fill-rule="evenodd"/>
        <path fill="#cfe2f3"
              d="m123.215225 60.83727l60.692917 0l0 -8.866138l17.732285 17.732285l-17.732285 17.732277l0 -8.866135l-60.692917 0z"
              fill-rule="evenodd"/>
        <path stroke="#000000" stroke-width="1.0" stroke-linejoin="round" stroke-linecap="butt"
              d="m123.215225 60.83727l60.692917 0l0 -8.866138l17.732285 17.732285l-17.732285 17.732277l0 -8.866135l-60.692917 0z"
              fill-rule="evenodd"/>
        <path fill="#cfe2f3"
              d="m123.215225 186.98425l60.692917 0l0 -8.86615l17.732285 17.732285l-17.732285 17.732285l0 -8.866135l-60.692917 0z"
              fill-rule="evenodd"/>
        <path stroke="#000000" stroke-width="1.0" stroke-linejoin="round" stroke-linecap="butt"
              d="m123.215225 186.98425l60.692917 0l0 -8.86615l17.732285 17.732285l-17.732285 17.732285l0 -8.866135l-60.692917 0z"
              fill-rule="evenodd"/>
        <path fill="#cfe2f3"
              d="m348.99475 60.83727l60.6929 0l0 -8.866138l17.7323 17.732285l-17.7323 17.732277l0 -8.866135l-60.6929 0z"
              fill-rule="evenodd"/>
        <path stroke="#000000" stroke-width="1.0" stroke-linejoin="round" stroke-linecap="butt"
              d="m348.99475 60.83727l60.6929 0l0 -8.866138l17.7323 17.732285l-17.7323 17.732277l0 -8.866135l-60.6929 0z"
              fill-rule="evenodd"/>
        <path fill="#cfe2f3"
              d="m348.99475 186.98425l60.6929 0l0 -8.86615l17.7323 17.732285l-17.7323 17.732285l0 -8.866135l-60.6929 0z"
              fill-rule="evenodd"/>
        <path stroke="#000000" stroke-width="1.0" stroke-linejoin="round" stroke-linecap="butt"
              d="m348.99475 186.98425l60.6929 0l0 -8.86615l17.7323 17.732285l-17.7323 17.732285l0 -8.866135l-60.6929 0z"
              fill-rule="evenodd"/>
        <path fill="#cfe2f3"
              d="m133.37193 104.98999l52.043427 31.250443l4.5669403 -7.5984344l6.066803 24.324371l-24.334518 6.069336l4.566925 -7.598419l-52.043434 -31.250443z"
              fill-rule="evenodd"/>
        <path stroke="#000000" stroke-width="1.0" stroke-linejoin="round" stroke-linecap="butt"
              d="m133.37193 104.98999l52.043427 31.250443l4.5669403 -7.5984344l6.066803 24.324371l-24.334518 6.069336l4.566925 -7.598419l-52.043434 -31.250443z"
              fill-rule="evenodd"/>
        <path fill="#cfe2f3"
              d="m133.37193 156.82988l52.043427 -31.250427l4.5669403 7.598419l6.066803 -24.324364l-24.334518 -6.069336l4.566925 7.598427l-52.043434 31.250443z"
              fill-rule="evenodd"/>
        <path stroke="#000000" stroke-width="1.0" stroke-linejoin="round" stroke-linecap="butt"
              d="m133.37193 156.82988l52.043427 -31.250427l4.5669403 7.598419l6.066803 -24.324364l-24.334518 -6.069336l4.566925 7.598427l-52.043434 31.250443z"
              fill-rule="evenodd"/>
        <path fill="#000000" fill-opacity="0.0" d="m342.7743 0l90.86612 0l0 42.015747l-90.86612 0z"
              fill-rule="evenodd"/>
        <path fill="#000000"
              d="m358.72797 27.727875l0 -8.40625l-1.453125 0l0 -1.265625l1.453125 0l0 -1.03125q0 -0.96875 0.171875 -1.453125q0.234375 -0.640625 0.828125 -1.03125q0.59375 -0.390625 1.671875 -0.390625q0.6875 0 1.53125 0.15625l-0.25 1.4375q-0.5 -0.09375 -0.953125 -0.09375q-0.75 0 -1.0625 0.328125q-0.3125 0.3125 -0.3125 1.1875l0 0.890625l1.890625 0l0 1.265625l-1.890625 0l0 8.40625l-1.625 0zm4.183319 -4.84375q0 -2.6875 1.484375 -3.96875q1.25 -1.078125 3.046875 -1.078125q2.0 0 3.265625 1.3125q1.265625 1.296875 1.265625 3.609375q0 1.859375 -0.5625 2.9375q-0.5625 1.0625 -1.640625 1.65625q-1.0625 0.59375 -2.328125 0.59375q-2.03125 0 -3.28125 -1.296875q-1.25 -1.3125 -1.25 -3.765625zm1.6875 0q0 1.859375 0.796875 2.796875q0.8125 0.921875 2.046875 0.921875q1.21875 0 2.03125 -0.921875q0.8125 -0.9375 0.8125 -2.84375q0 -1.796875 -0.8125 -2.71875q-0.8125 -0.921875 -2.03125 -0.921875q-1.234375 0 -2.046875 0.921875q-0.796875 0.90625 -0.796875 2.765625zm9.281952 4.84375l0 -9.671875l1.46875 0l0 1.46875q0.5625 -1.03125 1.03125 -1.359375q0.484375 -0.328125 1.0625 -0.328125q0.828125 0 1.6875 0.53125l-0.5625 1.515625q-0.609375 -0.359375 -1.203125 -0.359375q-0.546875 0 -0.96875 0.328125q-0.421875 0.328125 -0.609375 0.890625q-0.28125 0.875 -0.28125 1.921875l0 5.0625l-1.625 0zm8.009552 0l-2.96875 -9.671875l1.703125 0l1.53125 5.578125l0.578125 2.078125q0.046875 -0.15625 0.5 -2.0l1.546875 -5.65625l1.6875 0l1.4375 5.609375l0.484375 1.84375l0.5625 -1.859375l1.65625 -5.59375l1.59375 0l-3.03125 9.671875l-1.703125 0l-1.53125 -5.796875l-0.375 -1.640625l-1.953125 7.4375l-1.71875 0zm18.004211 -1.1875q-0.921875 0.765625 -1.765625 1.09375q-0.828125 0.3125 -1.796875 0.3125q-1.59375 0 -2.453125 -0.78125q-0.859375 -0.78125 -0.859375 -1.984375q0 -0.71875 0.328125 -1.296875q0.328125 -0.59375 0.84375 -0.9375q0.53125 -0.359375 1.1875 -0.546875q0.46875 -0.125 1.453125 -0.25q1.984375 -0.234375 2.921875 -0.5625q0.015625 -0.34375 0.015625 -0.421875q0 -1.0 -0.46875 -1.421875q-0.625 -0.546875 -1.875 -0.546875q-1.15625 0 -1.703125 0.40625q-0.546875 0.40625 -0.8125 1.421875l-1.609375 -0.21875q0.21875 -1.015625 0.71875 -1.640625q0.5 -0.640625 1.453125 -0.984375q0.953125 -0.34375 2.1875 -0.34375q1.25 0 2.015625 0.296875q0.78125 0.28125 1.140625 0.734375q0.375 0.4375 0.515625 1.109375q0.078125 0.421875 0.078125 1.515625l0 2.1875q0 2.28125 0.109375 2.890625q0.109375 0.59375 0.40625 1.15625l-1.703125 0q-0.265625 -0.515625 -0.328125 -1.1875zm-0.140625 -3.671875q-0.890625 0.375 -2.671875 0.625q-1.015625 0.140625 -1.4375 0.328125q-0.421875 0.1875 -0.65625 0.53125q-0.21875 0.34375 -0.21875 0.78125q0 0.65625 0.5 1.09375q0.5 0.4375 1.453125 0.4375q0.9375 0 1.671875 -0.40625q0.75 -0.421875 1.09375 -1.140625q0.265625 -0.5625 0.265625 -1.640625l0 -0.609375zm4.188202 4.859375l0 -9.671875l1.46875 0l0 1.46875q0.5625 -1.03125 1.03125 -1.359375q0.484375 -0.328125 1.0625 -0.328125q0.828125 0 1.6875 0.53125l-0.5625 1.515625q-0.609375 -0.359375 -1.203125 -0.359375q-0.546875 0 -0.96875 0.328125q-0.421875 0.328125 -0.609375 0.890625q-0.28125 0.875 -0.28125 1.921875l0 5.0625l-1.625 0zm12.493927 0l0 -1.21875q-0.90625 1.4375 -2.703125 1.4375q-1.15625 0 -2.125 -0.640625q-0.96875 -0.640625 -1.5 -1.78125q-0.53125 -1.140625 -0.53125 -2.625q0 -1.453125 0.484375 -2.625q0.484375 -1.1875 1.4375 -1.8125q0.96875 -0.625 2.171875 -0.625q0.875 0 1.546875 0.375q0.6875 0.359375 1.109375 0.953125l0 -4.796875l1.640625 0l0 13.359375l-1.53125 0zm-5.171875 -4.828125q0 1.859375 0.78125 2.78125q0.78125 0.921875 1.84375 0.921875q1.078125 0 1.828125 -0.875q0.75 -0.890625 0.75 -2.6875q0 -1.984375 -0.765625 -2.90625q-0.765625 -0.9375 -1.890625 -0.9375q-1.078125 0 -1.8125 0.890625q-0.734375 0.890625 -0.734375 2.8125z"
              fill-rule="nonzero"/>
        <path fill="#000000" fill-opacity="0.0"
              d="m114.25853 0l90.866135 0l0 42.015747l-90.866135 0z" fill-rule="evenodd"/>
        <path fill="#000000"
              d="m135.52414 27.727875l0 -13.359375l1.640625 0l0 7.625l3.890625 -3.9375l2.109375 0l-3.6875 3.59375l4.0625 6.078125l-2.015625 0l-3.203125 -4.953125l-1.15625 1.125l0 3.828125l-1.640625 0zm15.953125 -3.109375l1.6875 0.203125q-0.40625 1.484375 -1.484375 2.3125q-1.078125 0.8125 -2.765625 0.8125q-2.125 0 -3.375 -1.296875q-1.234375 -1.3125 -1.234375 -3.671875q0 -2.453125 1.25 -3.796875q1.265625 -1.34375 3.265625 -1.34375q1.9375 0 3.15625 1.328125q1.234375 1.3125 1.234375 3.703125q0 0.15625 0 0.4375l-7.21875 0q0.09375 1.59375 0.90625 2.453125q0.8125 0.84375 2.015625 0.84375q0.90625 0 1.546875 -0.46875q0.640625 -0.484375 1.015625 -1.515625zm-5.390625 -2.65625l5.40625 0q-0.109375 -1.21875 -0.625 -1.828125q-0.78125 -0.953125 -2.03125 -0.953125q-1.125 0 -1.90625 0.765625q-0.765625 0.75 -0.84375 2.015625zm9.063217 9.484375l-0.1875 -1.53125q0.546875 0.140625 0.9375 0.140625q0.546875 0 0.875 -0.1875q0.328125 -0.171875 0.546875 -0.5q0.15625 -0.25 0.5 -1.21875q0.046875 -0.140625 0.140625 -0.40625l-3.671875 -9.6875l1.765625 0l2.015625 5.59375q0.390625 1.078125 0.703125 2.25q0.28125 -1.125 0.671875 -2.203125l2.078125 -5.640625l1.640625 0l-3.6875 9.828125q-0.59375 1.609375 -0.921875 2.203125q-0.4375 0.8125 -1.0 1.1875q-0.5625 0.375 -1.34375 0.375q-0.484375 0 -1.0625 -0.203125zm9.53125 -3.71875l0 -13.359375l5.015625 0q1.53125 0 2.453125 0.40625q0.921875 0.40625 1.4375 1.25q0.53125 0.84375 0.53125 1.765625q0 0.859375 -0.46875 1.625q-0.453125 0.75 -1.390625 1.203125q1.203125 0.359375 1.859375 1.21875q0.65625 0.859375 0.65625 2.015625q0 0.9375 -0.40625 1.75q-0.390625 0.796875 -0.984375 1.234375q-0.578125 0.4375 -1.453125 0.671875q-0.875 0.21875 -2.15625 0.21875l-5.09375 0zm1.78125 -7.75l2.875 0q1.1875 0 1.6875 -0.140625q0.671875 -0.203125 1.015625 -0.671875q0.34375 -0.46875 0.34375 -1.171875q0 -0.65625 -0.328125 -1.15625q-0.3125 -0.515625 -0.90625 -0.703125q-0.59375 -0.1875 -2.03125 -0.1875l-2.65625 0l0 4.03125zm0 6.171875l3.3125 0q0.859375 0 1.203125 -0.0625q0.609375 -0.109375 1.015625 -0.359375q0.421875 -0.265625 0.6875 -0.75q0.265625 -0.484375 0.265625 -1.125q0 -0.75 -0.390625 -1.296875q-0.375 -0.546875 -1.0625 -0.765625q-0.671875 -0.234375 -1.953125 -0.234375l-3.078125 0l0 4.59375zm10.459198 5.296875l-0.1875 -1.53125q0.546875 0.140625 0.9375 0.140625q0.546875 0 0.875 -0.1875q0.328125 -0.171875 0.546875 -0.5q0.15625 -0.25 0.5 -1.21875q0.046875 -0.140625 0.140625 -0.40625l-3.671875 -9.6875l1.765625 0l2.015625 5.59375q0.390625 1.078125 0.703125 2.25q0.28125 -1.125 0.671875 -2.203125l2.078125 -5.640625l1.640625 0l-3.6875 9.828125q-0.59375 1.609375 -0.921875 2.203125q-0.4375 0.8125 -1.0 1.1875q-0.5625 0.375 -1.34375 0.375q-0.484375 0 -1.0625 -0.203125z"
              fill-rule="nonzero"/>
    </g>
</svg>
