<?xml version="1.0" encoding="UTF-8" standalone="no"?>
<svg
   xmlns:dc="http://purl.org/dc/elements/1.1/"
   xmlns:cc="http://creativecommons.org/ns#"
   xmlns:rdf="http://www.w3.org/1999/02/22-rdf-syntax-ns#"
   xmlns:svg="http://www.w3.org/2000/svg"
   xmlns="http://www.w3.org/2000/svg"
   xmlns:sodipodi="http://sodipodi.sourceforge.net/DTD/sodipodi-0.dtd"
   xmlns:inkscape="http://www.inkscape.org/namespaces/inkscape"
   version="1.0"
   width="218.96001mm"
   height="145.58mm"
   id="svg2"
   inkscape:version="0.48.4 r9939"
   sodipodi:docname="ClientJmTm.emf">
  <metadata
     id="metadata92">
    <rdf:RDF>
      <cc:Work
         rdf:about="">
        <dc:format>image/svg+xml</dc:format>
        <dc:type
           rdf:resource="http://purl.org/dc/dcmitype/StillImage" />
        <dc:title></dc:title>
      </cc:Work>
    </rdf:RDF>
  </metadata>
  <sodipodi:namedview
     pagecolor="#ffffff"
     bordercolor="#666666"
     borderopacity="1"
     objecttolerance="10"
     gridtolerance="10"
     guidetolerance="10"
     inkscape:pageopacity="0"
     inkscape:pageshadow="2"
     inkscape:window-width="1600"
     inkscape:window-height="838"
     id="namedview90"
     showgrid="false"
     inkscape:zoom="0.44467787"
     inkscape:cx="387.92126"
     inkscape:cy="257.91733"
     inkscape:window-x="-8"
     inkscape:window-y="-8"
     inkscape:window-maximized="1"
     inkscape:current-layer="svg2" />
  <defs
     id="defs4" />
  <g
     id="g6">
    <path
       style="fill:#f2dcdb;fill-rule:evenodd;fill-opacity:1;stroke:none;"
       d="  M 400.41225 121.04265   L 400.41225 245.42364   L 648.53657 245.42364   L 648.53657 121.04265   L 400.41225 121.04265  z "
       id="path8" />
    <path
       style="fill:none;stroke:#000000;stroke-width:2.5131261px;stroke-linecap:butt;stroke-linejoin:round;stroke-dasharray:none;stroke-opacity:1;"
       d="  M 400.41225 121.04265   L 648.53657 121.04265   L 648.53657 245.42364   L 400.41225 245.42364  z "
       id="path10" />
    <text
       xml:space="preserve"
       x="447.93557"
       y="162.6102"
       style="font-size:22.505608px;fill:#000000;font-style:normal;font-weight:bold;text-align:start;text-anchor:start;font-family:Verdana;"
       id="text12">JobManager</text>
    <path
       style="fill:#b9cde5;fill-rule:evenodd;fill-opacity:1;stroke:none;"
       d="  M 40.416319 137.80933   L 204.50095 137.80933   L 204.50095 175.58124   L 367.92916 175.58124   L 367.92916 162.99686   L 393.11669 188.16563   L 367.92916 213.35315   L 367.92916 200.76877   L 204.50095 200.76877   L 204.50095 238.54068   L 40.416319 238.54068  z "
       id="path14" />
    <path
       style="fill:none;stroke:#000000;stroke-width:2.4943714px;stroke-linecap:butt;stroke-linejoin:round;stroke-dasharray:none;stroke-opacity:1;"
       d="  M 40.416319 137.80933   L 204.50095 137.80933   L 204.50095 175.58124   L 367.92916 175.58124   L 367.92916 162.99686   L 393.11669 188.16563   L 367.92916 213.35315   L 367.92916 200.76877   L 204.50095 200.76877   L 204.50095 238.54068   L 40.416319 238.54068  z "
       id="path16" />
    <path
       style="fill:#b9cde5;fill-rule:evenodd;fill-opacity:1;stroke:none;"
       d="  M 55.307528 144.91735   L 55.307528 181.27328   L 187.74365 181.27328   L 187.74365 144.91735   L 55.307528 144.91735  z "
       id="path18" />
    <text
       xml:space="preserve"
       x="85.103927"
       y="171.84123"
       style="font-size:22.505608px;fill:#000000;font-style:normal;font-weight:bold;text-align:start;text-anchor:start;font-family:Verdana;"
       id="text20">Client</text>
    <path
       style="fill:#ffffff;fill-rule:evenodd;fill-opacity:1;stroke:none;"
       d="  M 24.46547 120.22683   L 67.001067 120.22683   L 67.001067 162.76242   L 59.911801 169.85169   L 24.46547 169.85169  z "
       id="path22" />
    <path
       style="fill:#cdcdcd;fill-rule:evenodd;fill-opacity:1;stroke:none;"
       d="  M 59.911801 169.85169   L 61.327778 164.1784   L 67.001067 162.76242  z "
       id="path24" />
    <path
       style="fill:none;stroke:#000000;stroke-width:1.2471857px;stroke-linecap:butt;stroke-linejoin:round;stroke-dasharray:none;stroke-opacity:1;"
       d="  M 59.911801 169.85169   L 61.327778 164.1784   L 67.001067 162.76242   L 59.911801 169.85169   L 24.46547 169.85169   L 24.46547 120.22683   L 67.001067 120.22683   L 67.001067 162.76242  "
       id="path26" />
    <path
       style="fill:none;stroke:#000000;stroke-width:1.8754672px;stroke-linecap:butt;stroke-linejoin:round;stroke-dasharray:none;stroke-opacity:1;"
       d="  M 29.78242 124.73733   L 56.367167 124.73733  "
       id="path28" />
    <path
       style="fill:none;stroke:#000000;stroke-width:1.8754672px;stroke-linecap:butt;stroke-linejoin:round;stroke-dasharray:none;stroke-opacity:1;"
       d="  M 29.78242 129.24782   L 61.684117 129.24782  "
       id="path30" />
    <path
       style="fill:none;stroke:#000000;stroke-width:1.8754672px;stroke-linecap:butt;stroke-linejoin:round;stroke-dasharray:none;stroke-opacity:1;"
       d="  M 29.78242 133.75832   L 51.050218 133.75832  "
       id="path32" />
    <path
       style="fill:none;stroke:#000000;stroke-width:1.8754672px;stroke-linecap:butt;stroke-linejoin:round;stroke-dasharray:none;stroke-opacity:1;"
       d="  M 29.78242 138.26882   L 61.684117 138.26882  "
       id="path34" />
    <path
       style="fill:none;stroke:#000000;stroke-width:1.8754672px;stroke-linecap:butt;stroke-linejoin:round;stroke-dasharray:none;stroke-opacity:1;"
       d="  M 29.78242 142.7887   L 61.684117 142.7887  "
       id="path36" />
    <path
       style="fill:none;stroke:#000000;stroke-width:1.8754672px;stroke-linecap:butt;stroke-linejoin:round;stroke-dasharray:none;stroke-opacity:1;"
       d="  M 29.78242 147.2992   L 43.079482 147.2992  "
       id="path38" />
    <path
       style="fill:none;stroke:#000000;stroke-width:1.8754672px;stroke-linecap:butt;stroke-linejoin:round;stroke-dasharray:none;stroke-opacity:1;"
       d="  M 29.810552 151.80969   L 56.367167 151.80969  "
       id="path40" />
    <text
       xml:space="preserve"
       x="13.316211"
       y="111.90327"
       style="font-size:17.554373px;fill:#000000;font-style:italic;font-weight:normal;text-align:start;text-anchor:start;font-family:Verdana;"
       id="text42">Program</text>
    <text
       xml:space="preserve"
       x="239.19236"
       y="229.55897"
       style="font-size:17.554373px;fill:#000000;font-style:italic;font-weight:normal;text-align:start;text-anchor:start;font-family:Verdana;"
       id="text44">Submit Job</text>
    <text
       xml:space="preserve"
       x="78.35225"
       y="206.73724"
       style="font-size:17.554373px;fill:#000000;font-style:italic;font-weight:normal;text-align:start;text-anchor:start;font-family:Verdana;"
       id="text46">Compiler/</text>
    <text
       xml:space="preserve"
       x="78.802362"
       y="227.74247"
       style="font-size:17.554373px;fill:#000000;font-style:italic;font-weight:normal;text-align:start;text-anchor:start;font-family:Verdana;"
       id="text48">Optimizer</text>
    <text
       xml:space="preserve"
       x="473.13199"
       y="206.94733"
       style="font-size:17.554373px;fill:#000000;font-style:italic;font-weight:normal;text-align:start;text-anchor:start;font-family:Verdana;"
       id="text50">Scheduling,</text>
    <text
       xml:space="preserve"
       x="424.21981"
       y="227.95257"
       style="font-size:17.554373px;fill:#000000;font-style:italic;font-weight:normal;text-align:start;text-anchor:start;font-family:Verdana;"
       id="text52">Resource Management</text>
    <path
       style="fill:#d7e4bd;fill-rule:evenodd;fill-opacity:1;stroke:none;"
       d="  M 524.49316 387.13394   L 524.49316 511.51493   L 772.61748 511.51493   L 772.61748 387.13394   L 524.49316 387.13394  z "
       id="path54" />
    <path
       style="fill:none;stroke:#000000;stroke-width:2.5131261px;stroke-linecap:butt;stroke-linejoin:round;stroke-dasharray:none;stroke-opacity:1;"
       d="  M 524.49316 387.13394   L 772.61748 387.13394   L 772.61748 511.51493   L 524.49316 511.51493  z "
       id="path56" />
    <path
       style="fill:#d7e4bd;fill-rule:evenodd;fill-opacity:1;stroke:none;"
       d="  M 554.53815 401.8001   L 554.53815 438.14665   L 742.53498 438.14665   L 742.53498 401.8001   L 554.53815 401.8001  z "
       id="path58" />
    <text
       xml:space="preserve"
       x="564.55047"
       y="428.70836"
       style="font-size:22.505608px;fill:#000000;font-style:normal;font-weight:bold;text-align:start;text-anchor:start;font-family:Verdana;"
       id="text60">TaskManager</text>
    <path
       style="fill:#d7e4bd;fill-rule:evenodd;fill-opacity:1;stroke:none;"
       d="  M 218.04182 387.13394   L 218.04182 511.53369   L 466.16613 511.53369   L 466.16613 387.13394   L 218.04182 387.13394  z "
       id="path62" />
    <path
       style="fill:none;stroke:#000000;stroke-width:2.4943714px;stroke-linecap:butt;stroke-linejoin:round;stroke-dasharray:none;stroke-opacity:1;"
       d="  M 218.04182 387.13394   L 466.16613 387.13394   L 466.16613 511.53369   L 218.04182 511.53369  z "
       id="path64" />
    <path
       style="fill:#d7e4bd;fill-rule:evenodd;fill-opacity:1;stroke:none;"
       d="  M 248.10556 401.78134   L 248.10556 438.14665   L 436.08364 438.14665   L 436.08364 401.78134   L 248.10556 401.78134  z "
       id="path66" />
    <text
       xml:space="preserve"
       x="258.10565"
       y="428.70836"
       style="font-size:22.505608px;fill:#000000;font-style:normal;font-weight:bold;text-align:start;text-anchor:start;font-family:Verdana;"
       id="text68">TaskManager</text>
    <path
       style="fill:#000000;fill-rule:nonzero;fill-opacity:1;stroke:#000000;stroke-width:0.018754672px;stroke-linecap:butt;stroke-linejoin:round;stroke-dasharray:none;stroke-opacity:1;"
       d="  M 409.2457 257.38912   L 296.51137 353.03795   L 300.14977 357.33277   L 412.90286 261.68394   z  M 302.17528 335.82116   L 294.07326 358.79563   L 318.06049 354.53832   C 319.59837 354.27576 320.61112 352.81289 320.34856 351.27501   C 320.06724 349.75588 318.60437 348.72438 317.08524 349.0057   L 297.84295 352.41905   L 300.99374 356.11372   L 307.48285 337.69663   C 308.00798 336.23376 307.23904 334.62086 305.77618 334.09573   C 304.31331 333.58936 302.70041 334.3583 302.17528 335.82116   z"
       id="path70" />
    <path
       style="fill:#000000;fill-rule:nonzero;fill-opacity:1;stroke:#000000;stroke-width:0.037509345px;stroke-linecap:butt;stroke-linejoin:round;stroke-dasharray:none;stroke-opacity:1;"
       d="  M 612.82767 257.46414   L 724.34295 360.0522   L 720.517 364.17823   L 609.00172 261.62768   z  M 719.35421 342.61035   L 726.556 365.90366   L 702.73757 360.68986   C 701.2372 360.35227 700.26195 358.8519 700.59954 357.31402   C 700.93712 355.81364 702.43749 354.8384 703.93787 355.17598   L 723.03012 359.37703   L 719.7293 362.94042   L 713.99037 344.26076   C 713.54026 342.7979 714.36547 341.22251 715.82833 340.73489   C 717.3287 340.28477 718.9041 341.10998 719.35421 342.61035   z"
       id="path72" />
    <path
       style="fill:#000000;fill-rule:nonzero;fill-opacity:1;stroke:#000000;stroke-width:0.018754672px;stroke-linecap:butt;stroke-linejoin:round;stroke-dasharray:none;stroke-opacity:1;"
       d="  M 366.84139 350.71237   L 454.83831 272.43037   L 451.10613 268.22932   L 363.10921 346.51132   z  M 449.587 289.77844   L 457.14514 266.61642   L 433.27044 271.43637   C 431.73256 271.73645 430.75731 273.21807 431.05739 274.75595   C 431.37622 276.27508 432.85784 277.25032 434.37696 276.95025   L 453.52548 273.08678   L 450.29968 269.44838   L 444.24192 288.03426   C 443.7543 289.51588 444.56075 291.09127 446.04237 291.57889   C 447.50523 292.06651 449.09938 291.26006 449.587 289.77844   z"
       id="path74" />
    <path
       style="fill:#000000;fill-rule:nonzero;fill-opacity:1;stroke:#000000;stroke-width:0.037509345px;stroke-linecap:butt;stroke-linejoin:round;stroke-dasharray:none;stroke-opacity:1;"
       d="  M 674.90564 367.85414   L 572.50513 265.49114   L 576.48112 261.47764   L 678.88163 363.87815   z  M 576.74368 283.08302   L 570.55464 259.52715   L 594.11051 265.75371   C 595.61088 266.1288 596.51111 267.66668 596.13601 269.16706   C 595.72341 270.66743 594.18553 271.56765 592.68515 271.19256   L 573.78044 266.20382   L 577.2313 262.75296   L 582.22005 281.65767   C 582.59514 283.15804 581.69491 284.69592 580.19454 285.10853   C 578.69417 285.48362 577.15628 284.5834 576.74368 283.08302   z"
       id="path76" />
    <path
       style="fill:#000000;fill-rule:nonzero;fill-opacity:1;stroke:none;"
       d="  M 303.80694 316.33506   C 304.68841 317.40407 305.2698 318.64188 305.53237 320.04848   C 305.77618 321.45508 305.64489 322.82417 305.13852 324.137   C 304.81969 324.9247 304.40709 325.61862 303.90071 326.23752   C 303.37558 326.85643 302.73792 327.47533 301.96898 328.11299   L 299.32457 330.32604   L 293.39809 318.64188   L 295.66741 316.74766   C 296.38009 316.14751 297.07401 315.65989 297.74918 315.26604   C 298.40559 314.87219 299.11827 314.64714 299.88721 314.55336   C 300.59989 314.47834 301.29381 314.59087 301.96898 314.89095   C 302.62539 315.19102 303.2443 315.65989 303.80694 316.33506   z  M 302.51286 317.59162   C 302.10026 317.08524 301.65015 316.72891 301.16253 316.5226   C 300.69366 316.3163 300.16853 316.22253 299.60589 316.29755   C 299.062 316.35381 298.53687 316.50385 298.06801 316.76641   C 297.59914 317.02898 297.05525 317.40407 296.43635 317.9292   L 295.34858 318.82943   L 299.96223 327.96295   L 301.33132 326.81892   C 301.95022 326.29379 302.47535 325.78741 302.88796 325.26228   C 303.28181 324.7559 303.60063 324.19326 303.84445 323.57436   C 304.20078 322.58036 304.25705 321.54886 303.99448 320.47984   C 303.73192 319.41082 303.22554 318.45433 302.51286 317.59162   z  M 311.79643 312.3028   C 311.70265 312.15277 311.62763 312.04024 311.57137 311.94646   C 311.49635 311.85269 311.42133 311.75892 311.34631 311.64639   C 310.95247 311.17752 310.50235 310.91496 310.03349 310.87745   C 309.56462 310.82118 309.03949 311.02748 308.47685 311.49635   C 307.85795 312.02148 307.4641 312.6779 307.2953 313.46559   C 307.14527 314.25329 307.23904 315.04098 307.59538 315.80993   z  M 313.20303 319.01698   C 312.19027 319.86094 311.19628 320.29229 310.22103 320.29229   C 309.22704 320.29229 308.36432 319.84218 307.59538 318.9232   C 306.4701 317.57287 305.92621 316.07249 305.96372 314.40333   C 306.01999 312.71541 306.65765 311.36507 307.91421 310.31481   C 308.75817 309.62088 309.56462 309.30205 310.35232 309.33956   C 311.14001 309.37707 311.85269 309.77092 312.47159 310.52111   C 312.58412 310.65239 312.73416 310.87745 312.94046 311.19628   C 313.14676 311.51511 313.35306 311.8902 313.59687 312.34031   L 308.17677 316.87894   C 308.25179 317.01023 308.34557 317.16026 308.43934 317.29155   C 308.53311 317.42283 308.60813 317.53536 308.70191 317.64788   C 309.22704 318.26679 309.80843 318.58562 310.4836 318.62313   C 311.15877 318.66064 311.83394 318.39807 312.52786 317.81668   C 313.01548 317.42283 313.42808 316.8977 313.78442 316.29755   C 314.14076 315.67864 314.38457 315.09725 314.53461 314.57212   L 314.60963 314.51585   L 315.45359 316.07249   C 315.30355 316.33506 315.17227 316.57887 315.04098 316.78517   C 314.92846 317.01023 314.75966 317.25404 314.53461 317.55411   C 314.32831 317.83543 314.12201 318.098 313.95321 318.3043   C 313.76567 318.5106 313.52186 318.75441 313.20303 319.01698   z  M 320.9112 303.75067   C 321.51135 304.4821 321.98021 305.25105 322.28029 306.07625   C 322.59912 306.90146 322.74915 307.70791 322.74915 308.45809   C 322.74915 309.24579 322.61787 309.95847 322.33655 310.65239   C 322.07399 311.32756 321.64263 311.90895 321.07999 312.37782   C 320.68614 312.71541 320.29229 312.97797 319.87969 313.16552   C 319.46709 313.35306 319.05448 313.46559 318.64188 313.52186   L 320.51735 317.21653   L 319.27954 318.24803   L 313.20303 306.24504   L 314.44084 305.21354   L 314.89095 306.13252   C 315.05974 305.51361 315.26604 304.93222 315.50985 304.42584   C 315.75366 303.91946 316.11 303.4506 316.59762 303.05675   C 317.3103 302.4566 318.04173 302.23154 318.79192 302.36283   C 319.52335 302.49411 320.23603 302.94422 320.9112 303.75067   z  M 319.80467 305.0635   C 319.37331 304.53837 318.9232 304.23829 318.45433 304.14452   C 317.98547 304.05075 317.5166 304.21954 317.01023 304.63214   C 316.65389 304.93222 316.35381 305.34482 316.11 305.8512   C 315.86619 306.35757 315.67864 306.86395 315.52861 307.37032   L 318.04173 312.34031   C 318.45433 312.24654 318.82943 312.13401 319.14826 312.00273   C 319.46709 311.85269 319.80467 311.62763 320.17976 311.32756   C 320.62988 310.95247 320.94871 310.50235 321.1175 309.97722   C 321.30505 309.45209 321.36131 308.92696 321.30505 308.36432   C 321.24878 307.80168 321.09874 307.22029 320.83618 306.6764   C 320.59237 306.11376 320.23603 305.58863 319.80467 305.0635   z  M 321.09874 294.72967   L 327.28779 306.93897   L 326.04998 307.97047   L 319.86094 295.76118   z  M 332.97045 294.12953   C 333.53309 294.78594 333.94569 295.49862 334.26452 296.26756   C 334.5646 297.0365 334.71464 297.80544 334.71464 298.55563   C 334.73339 299.34332 334.60211 300.07476 334.32079 300.74992   C 334.03947 301.42509 333.55185 302.044 332.89543 302.60664   C 332.01396 303.33807 331.13249 303.6569 330.23227 303.56313   C 329.31329 303.48811 328.50684 303.00049 327.77541 302.11902   C 327.21277 301.4626 326.80016 300.74992 326.50009 299.98098   C 326.20001 299.2308 326.03122 298.46185 326.03122 297.67416   C 326.01247 296.92397 326.16251 296.19254 326.46258 295.47986   C 326.78141 294.76718 327.23152 294.16703 327.86918 293.6419   C 328.71314 292.92923 329.59461 292.6104 330.49483 292.66666   C 331.39506 292.74168 332.22026 293.21055 332.97045 294.12953   z  M 333.28928 298.57438   C 333.23302 298.0305 333.06422 297.46786 332.82041 296.90522   C 332.55785 296.34258 332.20151 295.79869 331.77015 295.29231   C 331.26378 294.67341 330.73865 294.33583 330.17601 294.26081   C 329.61336 294.20454 329.06948 294.39209 328.52559 294.82345   C 328.11299 295.17979 327.81292 295.61114 327.64412 296.09877   C 327.47533 296.58639 327.41907 297.11152 327.47533 297.6554   C 327.5316 298.19929 327.68163 298.76193 327.9442 299.34332   C 328.20676 299.90596 328.54435 300.44985 328.95695 300.93747   C 329.46333 301.55638 330.00721 301.89396 330.56985 301.96898   C 331.13249 302.044 331.67638 301.85645 332.22026 301.40634   C 332.65162 301.05 332.93294 300.6374 333.12049 300.14977   C 333.28928 299.66215 333.34554 299.13702 333.28928 298.57438   z  M 341.48507 299.66215   L 340.13474 300.80619   L 339.64711 295.87371   L 332.53909 290.07852   L 333.81441 289.0095   L 339.42206 293.62315   L 338.35304 285.2023   L 339.70338 284.07702   z  M 352.26901 271.30509   L 348.78064 274.21206   L 354.03195 284.5834   L 352.71912 285.67117   L 347.46781 275.31859   L 343.97944 278.24432   L 343.30428 276.91274   L 351.59384 269.99226   z  M 360.8774 272.28033   C 360.22099 272.88048 359.65835 273.42437 359.20824 273.93074   C 358.73937 274.45587 358.40179 274.92474 358.17673 275.3561   C 357.95167 275.80621 357.83915 276.21881 357.8579 276.63142   C 357.89541 277.02526 358.0642 277.40036 358.36428 277.77545   C 358.62684 278.09428 358.92692 278.24432 359.28326 278.22556   C 359.6396 278.22556 360.0522 278.01926 360.50231 277.64417   C 360.89616 277.30658 361.23374 276.87523 361.49631 276.36885   C 361.75887 275.84372 361.96517 275.29983 362.11521 274.75595   z  M 362.73412 275.975   C 362.67785 276.14379 362.60283 276.36885 362.50906 276.66893   C 362.41529 276.969 362.30276 277.25032 362.17148 277.53164   C 362.02144 277.81296 361.85265 278.11303 361.62759 278.41311   C 361.40253 278.71318 361.12121 279.01326 360.76488 279.31333   C 360.18348 279.80096 359.56458 280.02601 358.90816 279.9885   C 358.2705 279.95099 357.70786 279.65092 357.25775 279.10703   C 356.77013 278.52564 356.48881 277.92549 356.39504 277.30658   C 356.32002 276.68768 356.43255 276.05002 356.71387 275.37485   C 357.01394 274.71844 357.4453 274.02452 358.0642 273.33059   C 358.66435 272.63667 359.39578 271.90524 360.27725 271.1363   C 360.20224 270.98626 360.12722 270.85498 360.07095 270.74245   C 360.01469 270.64868 359.95842 270.5549 359.86465 270.44237   C 359.69586 270.23607 359.50831 270.10479 359.32077 270.04853   C 359.13322 269.97351 358.92692 269.97351 358.70186 270.02977   C 358.47681 270.06728 358.25175 270.16105 358.02669 270.31109   C 357.80164 270.44237 357.55783 270.62992 357.31402 270.83622   C 356.93892 271.1363 356.56383 271.56765 356.18874 272.07403   C 355.81364 272.59916 355.53232 273.04927 355.32602 273.40561   L 355.26976 273.46188   L 354.46331 272.01777   C 354.66961 271.7552 354.96968 271.38011 355.38228 270.89249   C 355.79489 270.40486 356.22624 269.97351 356.6576 269.59841   C 357.57658 268.82947 358.38303 268.41687 359.07696 268.30434   C 359.77088 268.21057 360.37103 268.47313 360.89616 269.09204   C 360.98993 269.20457 361.08371 269.3546 361.17748 269.50464   C 361.27125 269.65468 361.34627 269.78596 361.42129 269.936   L 364.44079 275.88123   L 363.22174 276.89398   z  M 369.24199 272.1678   C 368.67935 272.63667 368.13546 272.97425 367.59158 273.19931   C 367.04769 273.42437 366.56007 273.5744 366.14747 273.66818   L 365.32226 272.11154   L 365.37852 272.05528   C 365.54732 272.05528 365.73486 272.05528 365.97867 272.03652   C 366.20373 272.01777 366.48505 271.9615 366.80388 271.88648   C 367.0852 271.81147 367.40403 271.69894 367.72286 271.5489   C 368.06044 271.39886 368.36052 271.21132 368.66059 270.94875   C 369.2795 270.42362 369.67334 269.91724 369.84214 269.39211   C 369.99217 268.86698 369.8984 268.39811 369.52331 267.948   C 369.31701 267.72295 369.09195 267.61042 368.81063 267.62917   C 368.51056 267.66668 368.17297 267.77921 367.77912 267.98551   C 367.57282 268.07929 367.32901 268.21057 367.04769 268.36061   C 366.76637 268.51064 366.48505 268.66068 366.18498 268.79196   C 365.54732 269.07328 364.98468 269.18581 364.51581 269.12955   C 364.04694 269.05453 363.63434 268.82947 363.31551 268.41687   C 363.01544 268.07929 362.82789 267.70419 362.73412 267.27283   C 362.62159 266.86023 362.62159 266.39136 362.69661 265.90374   C 362.79038 265.43488 362.97793 264.94726 363.29676 264.42212   C 363.61559 263.91575 364.02819 263.44688 364.55332 262.99677   C 365.00343 262.64043 365.4723 262.3216 366.01618 262.05904   C 366.54131 261.81522 367.01018 261.64643 367.42278 261.59017   L 368.21048 263.07179   L 368.13546 263.12805   C 368.02293 263.12805 367.85414 263.12805 367.62909 263.14681   C 367.40403 263.18432 367.14146 263.24058 366.84139 263.3156   C 366.57882 263.39062 366.2975 263.50315 365.99743 263.65318   C 365.69735 263.80322 365.41603 263.99077 365.13471 264.21582   C 364.59083 264.66593 364.23449 265.15356 364.08445 265.67869   C 363.93442 266.18506 364.02819 266.65393 364.36577 267.04778   C 364.55332 267.27283 364.77838 267.38536 365.07845 267.38536   C 365.35977 267.40412 365.71611 267.29159 366.12871 267.10404   C 366.39128 266.97276 366.65384 266.82272 366.91641 266.67268   C 367.19773 266.52265 367.46029 266.39136 367.72286 266.26008   C 368.34176 265.96001 368.88565 265.84748 369.37327 265.88499   C 369.86089 265.94125 370.25474 266.16631 370.59232 266.57891   C 370.87364 266.9165 371.07995 267.31034 371.19247 267.76046   C 371.28625 268.22932 371.305 268.69819 371.19247 269.18581   C 371.0987 269.69219 370.87364 270.19856 370.55481 270.72369   C 370.21723 271.23007 369.78587 271.71769 369.24199 272.1678   z  M 380.55105 262.39662   L 379.06944 263.65318   L 374.00567 262.39662   L 373.66809 264.1408   L 375.1122 266.954   L 373.85564 268.00427   L 367.66659 255.79497   L 368.92316 254.74471   L 372.88039 262.58417   L 374.1182 255.30735   L 375.7311 253.95702   L 374.45579 260.93376   z"
       id="path78" />
    <path
       style="fill:#000000;fill-rule:nonzero;fill-opacity:1;stroke:none;"
       d="  M 399.77459 360.70861   C 399.13694 361.2525 398.48052 361.68385 397.7866 362.04019   C 397.11143 362.37778 396.38 362.64034 395.5923 362.82789   L 394.65457 361.08371   L 394.74834 360.98993   C 395.49853 361.0462 396.26747 360.91491 397.05517 360.61484   C 397.84286 360.31476 398.53679 359.93967 399.09943 359.45205   C 400.03716 358.68311 400.5998 357.89541 400.78735 357.10771   C 400.97489 356.32002 400.82486 355.64485 400.33723 355.06346   C 400.09342 354.76338 399.79335 354.59459 399.45576 354.53832   C 399.09943 354.48206 398.72433 354.53832 398.29297 354.74463   C 397.93664 354.89466 397.54279 355.10096 397.09268 355.36353   C 396.64256 355.60734 396.19245 355.85115 395.77985 356.05745   C 394.95464 356.48881 394.20446 356.67636 393.51053 356.60134   C 392.81661 356.54507 392.25397 356.245 391.7851 355.70111   C 391.01616 354.76338 390.7536 353.65685 391.03492 352.36278   C 391.29748 351.08746 392.06642 349.92468 393.32299 348.87441   C 393.99815 348.31177 394.67332 347.86166 395.36725 347.52408   C 396.04241 347.20525 396.66132 346.98019 397.22396 346.83015   L 398.10543 348.48057   L 398.01165 348.55558   C 397.44901 348.53683 396.81136 348.64936 396.06117 348.93068   C 395.31098 349.212 394.61706 349.60585 393.9794 350.14973   C 393.1917 350.80614 392.68533 351.51882 392.51654 352.26901   C 392.32899 353.0192 392.46027 353.65685 392.91038 354.20074   C 393.15419 354.48206 393.45427 354.66961 393.81061 354.74463   C 394.16695 354.81964 394.5983 354.72587 395.14219 354.48206   C 395.46102 354.31327 395.91113 354.06946 396.45502 353.76938   C 396.9989 353.48806 397.46777 353.24425 397.84286 353.05671   C 398.6118 352.71912 399.30573 352.56908 399.90588 352.6441   C 400.50603 352.71912 401.03116 353.00044 401.44376 353.50682   C 401.81885 353.93817 402.06266 354.46331 402.2127 355.06346   C 402.34398 355.6636 402.36274 356.26375 402.23146 356.88266   C 402.10017 357.55783 401.85636 358.19549 401.46251 358.83314   C 401.06867 359.4708 400.50603 360.10846 399.77459 360.70861   z  M 407.55778 346.30502   C 407.48276 346.15499 407.40775 346.04246 407.33273 345.94868   C 407.27646 345.85491 407.20144 345.74238 407.10767 345.64861   C 406.71382 345.17974 406.28247 344.91718 405.8136 344.86091   C 405.32598 344.8234 404.80085 345.02971 404.23821 345.49857   C 403.6193 346.0237 403.22545 346.68012 403.07542 347.46781   C 402.90662 348.25551 403.0004 349.04321 403.35674 349.81215   z  M 408.96438 353.0192   C 407.95163 353.86316 406.95763 354.29451 405.98239 354.29451   C 405.00715 354.29451 404.12568 353.8444 403.35674 352.92542   C 402.23146 351.57509 401.68757 350.07471 401.74383 348.38679   C 401.78134 346.71763 402.43776 345.36729 403.69432 344.31703   C 404.51953 343.62311 405.32598 343.28552 406.11367 343.34179   C 406.90137 343.37929 407.61405 343.77314 408.25171 344.52333   C 408.34548 344.65461 408.51427 344.87967 408.70182 345.1985   C 408.90812 345.51733 409.13318 345.89242 409.35823 346.34253   L 403.93813 350.86241   C 404.0319 351.01245 404.10692 351.16248 404.2007 351.29377   C 404.29447 351.42505 404.38824 351.53758 404.48202 351.6501   C 404.98839 352.26901 405.58854 352.58784 406.26371 352.62535   C 406.92012 352.66286 407.61405 352.40029 408.30797 351.8189   C 408.79559 351.40629 409.20819 350.89992 409.56453 350.29977   C 409.90212 349.68086 410.16468 349.09947 410.31472 348.57434   L 410.38974 348.51807   L 411.2337 350.07471   C 411.08366 350.33728 410.93362 350.58109 410.8211 350.78739   C 410.68981 350.99369 410.52102 351.25626 410.31472 351.53758   C 410.08966 351.83765 409.90212 352.08146 409.71457 352.30652   C 409.54578 352.51282 409.28321 352.75663 408.96438 353.0192   z  M 416.03489 337.19025   C 416.10991 337.30278 416.22244 337.45282 416.35372 337.64036   C 416.48501 337.84667 416.59753 338.01546 416.67255 338.18425   L 419.56077 343.86692   L 418.32296 344.89842   L 415.79108 339.90968   C 415.64105 339.64711 415.52852 339.4033 415.39724 339.21576   C 415.28471 339.00946 415.15343 338.82191 415.02214 338.65312   C 414.70331 338.27802 414.38448 338.09048 414.0469 338.05297   C 413.70932 338.01546 413.29671 338.203 412.82785 338.59685   C 412.49026 338.87817 412.20894 339.27202 411.94638 339.79715   C 411.70257 340.32228 411.49626 340.86617 411.32747 341.42881   L 414.64705 347.97419   L 413.40924 349.0057   L 408.96438 340.24726   L 410.20219 339.21576   L 410.68981 340.191   C 410.89611 339.45957 411.12117 338.84066 411.38374 338.33429   C 411.6463 337.80916 412.00264 337.3778 412.434 337.00271   C 413.07166 336.47758 413.70932 336.21501 414.32822 336.23376   C 414.94712 336.27127 415.52852 336.5901 416.03489 337.19025   z  M 421.69881 324.69964   L 427.88785 336.90893   L 426.65004 337.94044   L 426.18117 337.02146   C 425.95612 337.86542 425.71231 338.50308 425.48725 338.91568   C 425.26219 339.34704 424.94336 339.72213 424.54952 340.04096   C 423.85559 340.62236 423.12416 340.86617 422.35522 340.77239   C 421.58628 340.65987 420.83609 340.191 420.14217 339.36579   C 419.54202 338.65312 419.11066 337.90293 418.79183 337.07772   C 418.49176 336.27127 418.32296 335.46482 418.30421 334.67713   C 418.28546 333.90818 418.41674 333.158 418.69806 332.46408   C 418.97938 331.77015 419.39198 331.17 419.97338 330.70114   C 420.36722 330.38231 420.76107 330.11974 421.15492 329.93219   C 421.54877 329.72589 421.96137 329.59461 422.39273 329.53835   L 420.461 325.73115   z  M 423.01163 330.7574   C 422.58028 330.85117 422.20518 330.98246 421.8676 331.13249   C 421.51126 331.30129 421.19243 331.52634 420.8736 331.78891   C 420.40473 332.164 420.0859 332.61411 419.91711 333.13924   C 419.74832 333.64562 419.69206 334.20826 419.74832 334.80841   C 419.82334 335.33354 419.99213 335.91493 420.27345 336.49633   C 420.55477 337.09648 420.8736 337.62161 421.26745 338.07172   C 421.69881 338.59685 422.16767 338.91568 422.63654 339.00946   C 423.10541 339.10323 423.59303 338.93444 424.0994 338.50308   C 424.4745 338.18425 424.77457 337.77165 424.99963 337.28403   C 425.22468 336.77765 425.41223 336.27127 425.56227 335.78365   z  M 438.55926 328.28178   C 437.9216 328.80691 437.26518 329.25703 436.59002 329.59461   C 435.89609 329.95095 435.16466 330.21351 434.37696 330.40106   L 433.43923 328.63812   L 433.533 328.5631   C 434.28319 328.61937 435.07089 328.48808 435.85858 328.18801   C 436.64628 327.88794 437.32145 327.49409 437.88409 327.02522   C 438.82182 326.23752 439.38446 325.46858 439.57201 324.68089   C 439.75956 323.89319 439.60952 323.19927 439.14065 322.63663   C 438.87809 322.33655 438.57801 322.14901 438.24043 322.09274   C 437.88409 322.03648 437.50899 322.1115 437.07764 322.29904   C 436.74005 322.46783 436.32745 322.67414 435.87734 322.91795   C 435.42723 323.18051 434.97711 323.42432 434.56451 323.63062   C 433.73931 324.04323 432.98912 324.23077 432.2952 324.17451   C 431.62003 324.11825 431.03863 323.81817 430.56977 323.25553   C 429.80082 322.33655 429.53826 321.21127 429.81958 319.93595   C 430.08214 318.66064 430.85109 317.49785 432.10765 316.44759   C 432.78282 315.86619 433.47674 315.41608 434.15191 315.09725   C 434.82708 314.77842 435.44598 314.53461 436.00862 314.40333   L 436.89009 316.03498   L 436.79632 316.11   C 436.25243 316.09125 435.59602 316.22253 434.84583 316.50385   C 434.09564 316.76641 433.40172 317.17902 432.76406 317.70415   C 431.97637 318.37932 431.48874 319.07324 431.3012 319.82343   C 431.11365 320.57361 431.24493 321.23003 431.69505 321.75516   C 431.93886 322.05523 432.23893 322.24278 432.59527 322.3178   C 432.95161 322.39282 433.40172 322.29904 433.92685 322.03648   C 434.26444 321.86769 434.69579 321.64263 435.23968 321.34255   C 435.78356 321.04248 436.25243 320.81742 436.62752 320.62988   C 437.39647 320.27354 438.09039 320.14226 438.69054 320.21727   C 439.29069 320.27354 439.81582 320.57361 440.24718 321.07999   C 440.60352 321.51135 440.84733 322.01772 440.99736 322.63663   C 441.1474 323.23678 441.1474 323.83693 441.03487 324.45583   C 440.90359 325.11224 440.64102 325.76866 440.24718 326.40632   C 439.85333 327.04397 439.29069 327.66288 438.55926 328.28178   z  M 443.51049 311.36507   L 444.12939 312.54661   L 441.57876 314.68465   L 443.62302 318.73566   C 443.71679 318.94196 443.84807 319.16701 443.99811 319.41082   C 444.14815 319.67339 444.27943 319.86094 444.39196 319.99222   C 444.65452 320.31105 444.93584 320.47984 445.23592 320.49859   C 445.51724 320.51735 445.89233 320.34856 446.32369 319.99222   C 446.51124 319.84218 446.69878 319.61712 446.88633 319.35456   C 447.07388 319.09199 447.20516 318.90445 447.26142 318.79192   L 447.33644 318.73566   L 447.99286 319.99222   C 447.78655 320.25478 447.58025 320.51735 447.33644 320.79867   C 447.09263 321.06123 446.84882 321.28629 446.64252 321.47384   C 446.04237 321.98021 445.46098 322.24278 444.89834 322.24278   C 444.35445 322.26153 443.82932 321.98021 443.36045 321.39882   C 443.22917 321.26754 443.1354 321.1175 443.04162 320.96746   C 442.92909 320.81742 442.83532 320.62988 442.72279 320.42358   L 440.34095 315.71615   L 439.49699 316.41008   L 438.89684 315.22853   L 439.7408 314.51585   L 438.46548 312.00273   L 439.70329 310.97122   L 440.97861 313.48435   z  M 451.575 310.52111   C 450.91859 311.1025 450.3747 311.66514 449.90583 312.17152   C 449.45572 312.69665 449.11814 313.16552 448.89308 313.59687   C 448.64927 314.02823 448.5555 314.45959 448.57425 314.85344   C 448.59301 315.26604 448.7618 315.64113 449.06187 316.01623   C 449.32444 316.33506 449.64327 316.48509 449.99961 316.46634   C 450.35594 316.44759 450.74979 316.26004 451.19991 315.88494   C 451.59375 315.54736 451.93134 315.116 452.1939 314.59087   C 452.45647 314.06574 452.68152 313.54061 452.83156 312.97797   z  M 453.45047 314.19702   C 453.3942 314.38457 453.31918 314.60963 453.20666 314.9097   C 453.11288 315.20978 453.00035 315.4911 452.86907 315.75366   C 452.73779 316.05374 452.55024 316.33506 452.32519 316.63513   C 452.11888 316.93521 451.81881 317.23528 451.46247 317.53536   C 450.88108 318.02298 450.26217 318.24803 449.62451 318.21052   C 448.9681 318.19177 448.42421 317.89169 447.95535 317.34781   C 447.46773 316.76641 447.18641 316.16626 447.11139 315.54736   C 447.03637 314.92846 447.13014 314.2908 447.43022 313.61563   C 447.71154 312.94046 448.16165 312.26529 448.7618 311.57137   C 449.3807 310.87745 450.11213 310.12726 450.97485 309.35832   C 450.89983 309.20828 450.84357 309.09575 450.7873 308.98323   C 450.73104 308.88945 450.65602 308.77692 450.581 308.68315   C 450.41221 308.47685 450.22466 308.34557 450.01836 308.27055   C 449.83081 308.21428 449.62451 308.21428 449.39946 308.25179   C 449.19316 308.30806 448.9681 308.40183 448.74304 308.55187   C 448.49923 308.68315 448.27418 308.85194 448.03037 309.05824   C 447.65527 309.37707 447.28018 309.78968 446.90509 310.31481   C 446.52999 310.83994 446.22992 311.2713 446.04237 311.64639   L 445.96735 311.70265   L 445.17966 310.25854   C 445.3672 309.99598 445.66728 309.60213 446.07988 309.11451   C 446.49248 308.62689 446.92384 308.19553 447.37395 307.83919   C 448.27418 307.07025 449.08063 306.63889 449.77455 306.54512   C 450.46847 306.45134 451.08738 306.71391 451.59375 307.33281   C 451.68753 307.44534 451.80005 307.57663 451.87507 307.72666   C 451.96885 307.8767 452.06262 308.02674 452.13764 308.17677   L 455.15714 314.10325   L 453.91933 315.13476   z  M 456.86382 300.20604   L 457.48272 301.38758   L 454.93208 303.52562   L 456.97634 307.55787   C 457.07012 307.78293 457.2014 308.00798 457.35144 308.25179   C 457.50148 308.51436 457.63276 308.70191 457.74529 308.83319   C 458.00785 309.15202 458.28917 309.32081 458.57049 309.33956   C 458.87057 309.35832 459.24566 309.18953 459.67702 308.81443   C 459.84581 308.6644 460.03336 308.45809 460.23966 308.19553   C 460.4272 307.93296 460.55849 307.72666 460.61475 307.63289   L 460.68977 307.57663   L 461.34618 308.83319   C 461.13988 309.09575 460.93358 309.35832 460.68977 309.63964   C 460.4272 309.9022 460.20215 310.12726 459.99585 310.31481   C 459.3957 310.82118 458.8143 311.06499 458.25166 311.08375   C 457.70778 311.1025 457.18265 310.82118 456.71378 310.23979   C 456.5825 310.10851 456.48872 309.95847 456.39495 309.80843   C 456.28242 309.63964 456.18865 309.47085 456.07612 309.26455   L 453.69428 304.55712   L 452.85032 305.25105   L 452.25017 304.0695   L 453.09413 303.35682   L 451.80005 300.8437   L 453.05662 299.79344   L 454.33194 302.32532   z  M 464.42195 293.88571   L 468.88556 302.62539   L 467.64775 303.6569   L 467.16013 302.70041   C 466.95383 303.41309 466.72877 304.01324 466.46621 304.53837   C 466.20364 305.0635 465.86606 305.51361 465.39719 305.8887   C 464.77829 306.41384 464.14063 306.65765 463.52172 306.63889   C 462.90282 306.62014 462.34018 306.30131 461.8338 305.70116   C 461.70252 305.55112 461.58999 305.40108 461.49622 305.23229   C 461.40245 305.08225 461.28992 304.89471 461.17739 304.68841   L 458.28917 299.00574   L 459.52698 297.97423   L 462.05886 302.96298   C 462.17139 303.16928 462.28392 303.39433 462.43395 303.63814   C 462.58399 303.88195 462.71527 304.0695 462.8278 304.20078   C 463.12788 304.57588 463.46546 304.78218 463.8218 304.81969   C 464.15938 304.83844 464.57199 304.66965 465.0221 304.2758   C 465.34093 304.01324 465.641 303.60063 465.90357 303.0755   C 466.16613 302.53162 466.37244 301.98773 466.52247 301.44385   L 463.18414 294.91722   z  M 473.74302 298.8557   C 473.19914 299.32457 472.65525 299.66215 472.11136 299.88721   C 471.56748 300.11227 471.07986 300.2623 470.66726 300.35608   L 469.84205 298.79944   L 469.89831 298.74317   C 470.04835 298.74317 470.25465 298.74317 470.49846 298.72442   C 470.72352 298.70567 471.00484 298.6494 471.32367 298.57438   C 471.60499 298.49936 471.92382 298.38684 472.24265 298.2368   C 472.56148 298.08676 472.88031 297.88046 473.18038 297.63665   C 473.79929 297.11152 474.19313 296.60514 474.36193 296.08001   C 474.51196 295.55488 474.39943 295.06726 474.0431 294.6359   C 473.83679 294.39209 473.61174 294.29832 473.31166 294.31707   C 473.03034 294.35458 472.69276 294.46711 472.28016 294.67341   C 472.09261 294.76718 471.8488 294.89847 471.56748 295.0485   C 471.28616 295.19854 470.98608 295.34858 470.68601 295.47986   C 470.06711 295.76118 469.50447 295.87371 469.0356 295.79869   C 468.54798 295.74243 468.15413 295.49862 467.81654 295.10477   C 467.53522 294.76718 467.34768 294.39209 467.2539 293.96073   C 467.14138 293.54813 467.14138 293.07926 467.2164 292.59164   C 467.31017 292.12278 467.49772 291.6164 467.81654 291.11002   C 468.11662 290.60365 468.54798 290.13478 469.07311 289.68467   C 469.52322 289.32833 469.99209 289.0095 470.51722 288.74693   C 471.0611 288.50312 471.52997 288.33433 471.94257 288.25931   L 472.73027 289.74093   L 472.65525 289.7972   C 472.54272 289.81595 472.37393 289.81595 472.14887 289.83471   C 471.92382 289.87221 471.66125 289.90972 471.36118 290.0035   C 471.09861 290.07852 470.81729 290.19104 470.51722 290.34108   C 470.21714 290.49112 469.93582 290.67867 469.6545 290.90372   C 469.11062 291.35383 468.75428 291.84146 468.60424 292.36659   C 468.4542 292.87296 468.54798 293.34183 468.88556 293.73568   C 469.07311 293.96073 469.29816 294.07326 469.59824 294.07326   C 469.87956 294.07326 470.2359 293.97949 470.6485 293.77319   C 470.91107 293.66066 471.17363 293.51062 471.4362 293.36058   C 471.71752 293.21055 471.98008 293.07926 472.24265 292.94798   C 472.86155 292.64791 473.40544 292.51662 473.89306 292.57289   C 474.36193 292.62915 474.77453 292.85421 475.11211 293.26681   C 475.39343 293.60439 475.59973 293.99824 475.71226 294.44835   C 475.80604 294.89847 475.80604 295.38609 475.71226 295.87371   C 475.59973 296.38009 475.39343 296.88646 475.0746 297.39284   C 474.73702 297.91797 474.30566 298.40559 473.74302 298.8557   z"
       id="path80" />
    <text
       xml:space="preserve"
       x="274.33542"
       y="471.74854"
       style="font-size:17.554373px;fill:#000000;font-style:italic;font-weight:normal;text-align:start;text-anchor:start;font-family:Verdana;"
       id="text82">Task Execution,</text>
    <text
       xml:space="preserve"
       x="277.63624"
       y="492.75378"
       style="font-size:17.554373px;fill:#000000;font-style:italic;font-weight:normal;text-align:start;text-anchor:start;font-family:Verdana;"
       id="text84">Data Exchange</text>
    <text
       xml:space="preserve"
       x="579.16963"
       y="471.74854"
       style="font-size:17.554373px;fill:#000000;font-style:italic;font-weight:normal;text-align:start;text-anchor:start;font-family:Verdana;"
       id="text86">Task Execution,</text>
    <text
       xml:space="preserve"
       x="582.47045"
       y="492.75378"
       style="font-size:17.554373px;fill:#000000;font-style:italic;font-weight:normal;text-align:start;text-anchor:start;font-family:Verdana;"
       id="text88">Data Exchange</text>
  </g>
</svg>
