<?xml version="1.0" encoding="UTF-8" standalone="no"?>
<!--
Licensed to the Apache Software Foundation (ASF) under one
or more contributor license agreements.  See the NOTICE file
distributed with this work for additional information
regarding copyright ownership.  The ASF licenses this file
to you under the Apache License, Version 2.0 (the
"License"); you may not use this file except in compliance
with the License.  You may obtain a copy of the License at

http://www.apache.org/licenses/LICENSE-2.0

Unless required by applicable law or agreed to in writing,
software distributed under the License is distributed on an
"AS IS" BASIS, WITHOUT WARRANTIES OR CONDITIONS OF ANY
KIND, either express or implied.  See the License for the
specific language governing permissions and limitations
under the License.
-->

<!-- Created with Inkscape (http://www.inkscape.org/) -->

<svg
   xmlns:dc="http://purl.org/dc/elements/1.1/"
   xmlns:cc="http://creativecommons.org/ns#"
   xmlns:rdf="http://www.w3.org/1999/02/22-rdf-syntax-ns#"
   xmlns:svg="http://www.w3.org/2000/svg"
   xmlns="http://www.w3.org/2000/svg"
   xmlns:sodipodi="http://sodipodi.sourceforge.net/DTD/sodipodi-0.dtd"
   xmlns:inkscape="http://www.inkscape.org/namespaces/inkscape"
   width="817.49274"
   height="463.47787"
   id="svg2"
   version="1.1"
   inkscape:version="0.48.5 r10040">
  <defs
     id="defs4" />
  <sodipodi:namedview
     id="base"
     pagecolor="#ffffff"
     bordercolor="#666666"
     borderopacity="1.0"
     inkscape:pageopacity="0.0"
     inkscape:pageshadow="2"
     inkscape:zoom="0.7"
     inkscape:cx="118.68649"
     inkscape:cy="265.49231"
     inkscape:document-units="px"
     inkscape:current-layer="layer1"
     showgrid="false"
     fit-margin-top="0"
     fit-margin-left="0"
     fit-margin-right="0"
     fit-margin-bottom="0"
     inkscape:window-width="1600"
     inkscape:window-height="838"
     inkscape:window-x="1912"
     inkscape:window-y="-8"
     inkscape:window-maximized="1" />
  <metadata
     id="metadata7">
    <rdf:RDF>
      <cc:Work
         rdf:about="">
        <dc:format>image/svg+xml</dc:format>
        <dc:type
           rdf:resource="http://purl.org/dc/dcmitype/StillImage" />
        <dc:title></dc:title>
      </cc:Work>
    </rdf:RDF>
  </metadata>
  <g
     inkscape:label="Layer 1"
     inkscape:groupmode="layer"
     id="layer1"
     transform="translate(0.17493185,-2.7660971)">
    <g
       id="g2989"
       transform="translate(-24.016809,-116.88402)">
      <path
         id="path2991"
         d="m 400.33723,121.08016 0,124.38099 248.19934,0 0,-124.38099 -248.19934,0 z"
         style="fill:#f2dcdb;fill-opacity:1;fill-rule:evenodd;stroke:none"
         inkscape:connector-curvature="0" />
      <path
         id="path2993"
         d="m 400.33723,121.08016 248.19934,0 0,124.38099 -248.19934,0 z"
         style="fill:none;stroke:#000000;stroke-width:2.51312613px;stroke-linecap:butt;stroke-linejoin:round;stroke-opacity:1;stroke-dasharray:none"
         inkscape:connector-curvature="0" />
      <text
         id="text2995"
         style="font-size:22.5056076px;font-style:normal;font-weight:bold;text-align:start;text-anchor:start;fill:#000000;font-family:Verdana"
         y="162.61018"
         x="447.93558"
         xml:space="preserve">JobManager</text>
      <path
         id="path2997"
         d="m 40.510092,137.88435 164.103378,0 0,37.75316 163.46573,0 0,-12.58439 25.16877,25.16877 -25.16877,25.16877 0,-12.58438 -163.46573,0 0,37.75315 -164.103378,0 z"
         style="fill:#b9cde5;fill-opacity:1;fill-rule:evenodd;stroke:none"
         inkscape:connector-curvature="0" />
      <path
         id="path2999"
         d="m 40.510092,137.88435 164.103378,0 0,37.75316 163.46573,0 0,-12.58439 25.16877,25.16877 -25.16877,25.16877 0,-12.58438 -163.46573,0 0,37.75315 -164.103378,0 z"
         style="fill:none;stroke:#000000;stroke-width:2.55063534px;stroke-linecap:butt;stroke-linejoin:round;stroke-opacity:1;stroke-dasharray:none"
         inkscape:connector-curvature="0" />
      <path
         id="path3001"
         d="m 55.288774,144.86109 0,36.45908 132.483006,0 0,-36.45908 -132.483006,0 z"
         style="fill:#b9cde5;fill-opacity:1;fill-rule:evenodd;stroke:none"
         inkscape:connector-curvature="0" />
      <text
         id="text3003"
         style="font-size:22.5056076px;font-style:normal;font-weight:bold;text-align:start;text-anchor:start;fill:#000000;font-family:Verdana"
         y="171.84125"
         x="85.103935"
         xml:space="preserve">Client</text>
      <path
         id="path3005"
         d="m 24.46547,120.27371 42.507465,0 0,42.46058 -7.079889,7.07989 -35.427576,0 z"
         style="fill:#ffffff;fill-opacity:1;fill-rule:evenodd;stroke:none"
         inkscape:connector-curvature="0" />
      <path
         id="path3007"
         d="m 59.893046,169.81418 1.415978,-5.66391 5.663911,-1.41598 z"
         style="fill:#cdcdcd;fill-opacity:1;fill-rule:evenodd;stroke:none"
         inkscape:connector-curvature="0" />
      <path
         id="path3009"
         d="m 59.893046,169.81418 1.415978,-5.66391 5.663911,-1.41598 -7.079889,7.07989 -35.427576,0 0,-49.54047 42.507465,0 0,42.46058"
         style="fill:none;stroke:#000000;stroke-width:1.24718571px;stroke-linecap:butt;stroke-linejoin:round;stroke-opacity:1;stroke-dasharray:none"
         inkscape:connector-curvature="0" />
      <path
         id="path3011"
         d="m 29.78242,124.80297 26.584747,0"
         style="fill:none;stroke:#000000;stroke-width:1.87546718px;stroke-linecap:butt;stroke-linejoin:round;stroke-opacity:1;stroke-dasharray:none"
         inkscape:connector-curvature="0" />
      <path
         id="path3013"
         d="m 29.78242,129.18218 31.901697,0"
         style="fill:none;stroke:#000000;stroke-width:1.87546718px;stroke-linecap:butt;stroke-linejoin:round;stroke-opacity:1;stroke-dasharray:none"
         inkscape:connector-curvature="0" />
      <path
         id="path3015"
         d="m 29.78242,133.71144 21.267798,0"
         style="fill:none;stroke:#000000;stroke-width:1.87546718px;stroke-linecap:butt;stroke-linejoin:round;stroke-opacity:1;stroke-dasharray:none"
         inkscape:connector-curvature="0" />
      <path
         id="path3017"
         d="m 29.78242,138.24069 31.901697,0"
         style="fill:none;stroke:#000000;stroke-width:1.87546718px;stroke-linecap:butt;stroke-linejoin:round;stroke-opacity:1;stroke-dasharray:none"
         inkscape:connector-curvature="0" />
      <path
         id="path3019"
         d="m 29.78242,142.77932 31.901697,0"
         style="fill:none;stroke:#000000;stroke-width:1.87546718px;stroke-linecap:butt;stroke-linejoin:round;stroke-opacity:1;stroke-dasharray:none"
         inkscape:connector-curvature="0" />
      <path
         id="path3021"
         d="m 29.78242,147.30857 13.287685,0"
         style="fill:none;stroke:#000000;stroke-width:1.87546718px;stroke-linecap:butt;stroke-linejoin:round;stroke-opacity:1;stroke-dasharray:none"
         inkscape:connector-curvature="0" />
      <path
         id="path3023"
         d="m 29.78242,151.83783 26.556615,0"
         style="fill:none;stroke:#000000;stroke-width:1.87546718px;stroke-linecap:butt;stroke-linejoin:round;stroke-opacity:1;stroke-dasharray:none"
         inkscape:connector-curvature="0" />
      <text
         id="text3025"
         style="font-size:17.55437279px;font-style:italic;font-weight:normal;text-align:start;text-anchor:start;fill:#000000;font-family:Verdana"
         y="229.55898"
         x="239.21106"
         xml:space="preserve">Submit Job</text>
      <text
         id="text3027"
         style="font-size:17.55437279px;font-style:italic;font-weight:normal;text-align:start;text-anchor:start;fill:#000000;font-family:Verdana"
         y="206.73724"
         x="78.214714"
         xml:space="preserve">Compiler/</text>
      <text
         id="text3029"
         style="font-size:17.55437279px;font-style:italic;font-weight:normal;text-align:start;text-anchor:start;fill:#000000;font-family:Verdana"
         y="227.74248"
         x="78.814865"
         xml:space="preserve">Optimizer</text>
      <text
         id="text3031"
         style="font-size:17.55437279px;font-style:italic;font-weight:normal;text-align:start;text-anchor:start;fill:#000000;font-family:Verdana"
         y="206.94733"
         x="473.13199"
         xml:space="preserve">Scheduling,</text>
      <text
         id="text3033"
         style="font-size:17.55437279px;font-style:italic;font-weight:normal;text-align:start;text-anchor:start;fill:#000000;font-family:Verdana"
         y="227.95258"
         x="424.21982"
         xml:space="preserve">Resource Management</text>
      <path
         id="path3035"
         d="m 591.89746,422.65529 0,124.38099 248.16182,0 0,-124.38099 -248.16182,0 z"
         style="fill:#d7e4bd;fill-opacity:1;fill-rule:evenodd;stroke:none"
         inkscape:connector-curvature="0" />
      <path
         id="path3037"
         d="m 591.89746,422.65529 248.16182,0 0,124.38099 -248.16182,0 z"
         style="fill:none;stroke:#000000;stroke-width:2.55063534px;stroke-linecap:butt;stroke-linejoin:round;stroke-opacity:1;stroke-dasharray:none"
         inkscape:connector-curvature="0" />
      <path
         id="path3039"
         d="m 621.82991,437.28394 0,36.30904 187.99684,0 0,-36.30904 -187.99684,0 z"
         style="fill:#d7e4bd;fill-opacity:1;fill-rule:evenodd;stroke:none"
         inkscape:connector-curvature="0" />
      <text
         id="text3041"
         style="font-size:22.5056076px;font-style:normal;font-weight:bold;text-align:start;text-anchor:start;fill:#000000;font-family:Verdana"
         y="464.15421"
         x="631.76624"
         xml:space="preserve">TaskManager</text>
      <path
         id="path3043"
         d="m 177.34418,422.65529 0,124.38099 248.16182,0 0,-124.38099 -248.16182,0 z"
         style="fill:#d7e4bd;fill-opacity:1;fill-rule:evenodd;stroke:none"
         inkscape:connector-curvature="0" />
      <path
         id="path3045"
         d="m 177.34418,422.65529 248.16182,0 0,124.38099 -248.16182,0 z"
         style="fill:none;stroke:#000000;stroke-width:2.55063534px;stroke-linecap:butt;stroke-linejoin:round;stroke-opacity:1;stroke-dasharray:none"
         inkscape:connector-curvature="0" />
      <path
         id="path3047"
         d="m 207.42668,437.28394 0,36.30904 187.84679,0 0,-36.30904 -187.84679,0 z"
         style="fill:#d7e4bd;fill-opacity:1;fill-rule:evenodd;stroke:none"
         inkscape:connector-curvature="0" />
      <text
         id="text3049"
         style="font-size:22.5056076px;font-style:normal;font-weight:bold;text-align:start;text-anchor:start;fill:#000000;font-family:Verdana"
         y="464.15421"
         x="217.23552"
         xml:space="preserve">TaskManager</text>
      <path
         id="path3051"
         d="m 416.89761,258.47689 -147.58052,146.38022 3.95724,3.99475 147.58052,-146.38022 z m -143.26694,128.76958 -6.30157,23.53712 23.59338,-6.11403 c 1.50037,-0.37509 2.40059,-1.91297 2.0255,-3.41335 -0.39385,-1.51913 -1.93173,-2.41935 -3.4321,-2.0255 l -18.92347,4.89497 3.43211,3.45086 5.045,-18.8672 c 0.39385,-1.51913 -0.48762,-3.05701 -1.98799,-3.45086 -1.50038,-0.41261 -3.05701,0.48762 -3.45086,1.98799 z"
         style="fill:#000000;fill-opacity:1;fill-rule:nonzero;stroke:#000000;stroke-width:0.01875467px;stroke-linecap:butt;stroke-linejoin:round;stroke-opacity:1;stroke-dasharray:none"
         inkscape:connector-curvature="0" />
      <path
         id="path3053"
         d="m 612.90269,257.57667 140.0974,144.26094 -4.05101,3.93848 -140.0974,-144.26094 z m 136.12141,126.59404 5.85146,23.63088 -23.48085,-6.52662 c -1.50038,-0.45011 -2.36309,-1.988 -1.95049,-3.48837 0.41261,-1.50038 1.95049,-2.36309 3.45086,-1.95049 l 18.82969,5.25131 -3.48837,3.37584 -4.68866,-18.94222 c -0.3751,-1.53788 0.56264,-3.03825 2.06301,-3.41335 1.50037,-0.37509 3.03826,0.52513 3.41335,2.06302 z"
         style="fill:#000000;fill-opacity:1;fill-rule:nonzero;stroke:#000000;stroke-width:0.03750934px;stroke-linecap:butt;stroke-linejoin:round;stroke-opacity:1;stroke-dasharray:none"
         inkscape:connector-curvature="0" />
      <path
         id="path3055"
         d="m 320.29229,409.69582 134.95862,-137.19043 -4.0135,-3.93848 -134.93986,137.19042 z m 130.85135,-119.52353 6.0015,-23.61213 -23.49961,6.39534 c -1.50037,0.39385 -2.38184,1.95049 -1.96924,3.45086 0.39385,1.50037 1.95049,2.38184 3.45086,1.96924 l 18.84845,-5.12003 -3.46962,-3.41335 -4.80119,18.94222 c -0.39385,1.50038 0.52513,3.03826 2.0255,3.41335 1.50037,0.3751 3.03826,-0.52513 3.41335,-2.0255 z"
         style="fill:#000000;fill-opacity:1;fill-rule:nonzero;stroke:#000000;stroke-width:0.01875467px;stroke-linecap:butt;stroke-linejoin:round;stroke-opacity:1;stroke-dasharray:none"
         inkscape:connector-curvature="0" />
      <path
         id="path3057"
         d="m 713.84034,414.29071 -141.48525,-148.76206 4.08852,-3.90097 141.48524,148.79957 z m -137.69681,-131.05765 -5.58889,-23.70591 23.40583,6.7892 c 1.46286,0.45011 2.32558,1.98799 1.91298,3.48837 -0.45012,1.50037 -1.988,2.36308 -3.48837,1.91297 l -18.79218,-5.43885 3.52587,-3.33833 4.50113,19.01723 c 0.37509,1.50038 -0.56264,3.00075 -2.10053,3.37584 -1.50037,0.33759 -3.00074,-0.60015 -3.37584,-2.10052 z"
         style="fill:#000000;fill-opacity:1;fill-rule:nonzero;stroke:#000000;stroke-width:0.03750934px;stroke-linecap:butt;stroke-linejoin:round;stroke-opacity:1;stroke-dasharray:none"
         inkscape:connector-curvature="0" />
      <path
         id="path3059"
         d="m 294.48586,342.57284 c 0.95649,1.01276 1.61291,2.21305 1.95049,3.6009 0.35634,1.38785 0.31883,2.75694 -0.11253,4.08852 -0.26256,0.8252 -0.63766,1.53788 -1.10652,2.1943 -0.48763,0.63765 -1.08777,1.29407 -1.80045,1.98799 l -2.49437,2.38184 -6.67667,-11.27155 2.15679,-2.04426 c 0.67517,-0.63766 1.33158,-1.18155 1.96924,-1.6129 0.63766,-0.43136 1.33158,-0.71268 2.08177,-0.84396 0.73143,-0.13129 1.42535,-0.0563 2.10052,0.18754 0.69393,0.26257 1.33158,0.69392 1.93173,1.33158 z m -1.2003,1.33159 c -0.45011,-0.46887 -0.91897,-0.7877 -1.4066,-0.97525 -0.50637,-0.18754 -1.01275,-0.22505 -1.57539,-0.13128 -0.54388,0.0938 -1.05026,0.28132 -1.50037,0.58139 -0.46887,0.28132 -0.97524,0.69393 -1.55664,1.25657 l -1.03151,0.97524 5.19505,8.8147 1.29407,-1.21906 c 0.58139,-0.56264 1.06902,-1.12528 1.44411,-1.66916 0.37509,-0.52513 0.65641,-1.12528 0.84396,-1.74419 0.30007,-1.01275 0.28132,-2.04426 -0.0563,-3.09452 -0.33759,-1.05026 -0.88147,-1.98799 -1.65042,-2.79444 z m 8.90847,-5.87022 c -0.0938,-0.13128 -0.16879,-0.24381 -0.24381,-0.33758 -0.0563,-0.0938 -0.15003,-0.18755 -0.24381,-0.28132 -0.4126,-0.45011 -0.86271,-0.67517 -1.35033,-0.69392 -0.46887,-0.0188 -0.97525,0.22505 -1.51913,0.73143 -0.5814,0.56264 -0.93774,1.23781 -1.05026,2.04426 -0.0938,0.78769 0.0563,1.55664 0.45011,2.30682 z m 1.85672,6.60165 c -0.97525,0.91898 -1.93173,1.4066 -2.90698,1.48162 -0.97524,0.075 -1.87546,-0.33759 -2.70067,-1.2003 -1.21905,-1.27532 -1.85671,-2.73818 -1.91298,-4.42611 -0.0563,-1.66916 0.50638,-3.05701 1.68792,-4.18229 0.7877,-0.75018 1.5754,-1.12528 2.36309,-1.14403 0.7877,0 1.51913,0.35634 2.1943,1.06901 0.11253,0.11253 0.28132,0.33759 0.50638,0.63766 0.22505,0.30008 0.45011,0.65642 0.71267,1.08777 l -5.10127,4.87622 c 0.0938,0.13128 0.18755,0.26256 0.28132,0.39385 0.0938,0.13128 0.18755,0.24381 0.28132,0.33758 0.56264,0.5814 1.18155,0.88147 1.85671,0.86272 0.67517,0 1.33159,-0.31883 1.988,-0.93774 0.45011,-0.43136 0.84396,-0.95649 1.14403,-1.59414 0.31883,-0.63766 0.52514,-1.23781 0.63766,-1.76294 l 0.075,-0.075 0.95649,1.51913 c -0.15004,0.26256 -0.26256,0.50637 -0.37509,0.73143 -0.11253,0.22505 -0.26257,0.48762 -0.45011,0.78769 -0.20631,0.30008 -0.3751,0.56264 -0.54389,0.7877 -0.16879,0.22506 -0.4126,0.46887 -0.69392,0.75019 z m 6.69541,-15.71642 c 0.65642,0.67517 1.16279,1.42536 1.51913,2.23181 0.3751,0.80645 0.5814,1.59415 0.61891,2.34433 0.0563,0.7877 -0.0188,1.51913 -0.26257,2.21305 -0.22505,0.71268 -0.6189,1.31283 -1.14403,1.81921 -0.3751,0.35634 -0.75019,0.63766 -1.14404,0.84396 -0.39385,0.2063 -0.80645,0.35634 -1.21905,0.45011 l 2.11928,3.56339 -1.18155,1.10652 -6.8267,-11.59039 1.16279,-1.10652 0.52513,0.88147 c 0.13128,-0.63766 0.30008,-1.21905 0.50638,-1.74419 0.2063,-0.52513 0.54388,-0.99399 0.994,-1.42535 0.67516,-0.63766 1.38784,-0.91898 2.13803,-0.84396 0.75018,0.075 1.48162,0.50638 2.19429,1.25656 z m -1.01275,1.38785 c -0.46886,-0.48762 -0.93773,-0.76894 -1.4066,-0.84396 -0.46886,-0.0563 -0.93773,0.13128 -1.4066,0.58139 -0.33758,0.33759 -0.6189,0.75019 -0.8252,1.27532 -0.20631,0.52513 -0.35634,1.03151 -0.48763,1.55664 l 2.83196,4.80119 c 0.4126,-0.11252 0.76894,-0.24381 1.08777,-0.4126 0.30008,-0.16879 0.63766,-0.4126 0.994,-0.73143 0.4126,-0.4126 0.71268,-0.88147 0.84396,-1.4066 0.15004,-0.54389 0.16879,-1.06902 0.075,-1.6129 -0.0938,-0.5814 -0.28132,-1.14404 -0.56264,-1.66917 -0.30008,-0.54388 -0.67517,-1.05026 -1.14404,-1.53788 z m 0.63766,-10.39009 6.95798,11.77793 -1.16279,1.10653 -6.95798,-11.77793 z m 11.81544,-1.38785 c 0.5814,0.63766 1.05027,1.31283 1.40661,2.06302 0.35633,0.75018 0.56264,1.51913 0.6189,2.26931 0.0563,0.76894 -0.0375,1.51913 -0.28132,2.21305 -0.22506,0.69393 -0.65641,1.33159 -1.29407,1.93174 -0.82521,0.78769 -1.68792,1.16279 -2.58815,1.14403 -0.91898,-0.0375 -1.76294,-0.46887 -2.55063,-1.29407 -0.60015,-0.61891 -1.06902,-1.31283 -1.4066,-2.04426 -0.35634,-0.75019 -0.56264,-1.50037 -0.61891,-2.28807 -0.0563,-0.75019 0.0375,-1.48162 0.30008,-2.21305 0.26256,-0.73143 0.69392,-1.36909 1.27531,-1.93173 0.80646,-0.76895 1.65042,-1.14404 2.56939,-1.12528 0.90023,0 1.76294,0.43135 2.56939,1.27531 z m 0.5814,4.44486 c -0.075,-0.54388 -0.28132,-1.10652 -0.5814,-1.65041 -0.28132,-0.54389 -0.65641,-1.05026 -1.12528,-1.53788 -0.54388,-0.5814 -1.10652,-0.88147 -1.66916,-0.91898 -0.56264,-0.0375 -1.08777,0.18754 -1.59415,0.65641 -0.4126,0.39385 -0.67517,0.82521 -0.80645,1.33158 -0.13128,0.48762 -0.16879,1.01276 -0.075,1.5754 0.0938,0.54388 0.28132,1.08777 0.5814,1.63165 0.30007,0.56264 0.65641,1.06902 1.10652,1.53789 0.54389,0.58139 1.10653,0.88146 1.66917,0.91897 0.58139,0.0563 1.10652,-0.16879 1.63165,-0.65641 0.39385,-0.37509 0.65642,-0.82521 0.80646,-1.31283 0.13128,-0.50637 0.15003,-1.0315 0.0563,-1.57539 z m 8.27081,0.56264 -1.29407,1.21905 -0.80645,-4.89496 -7.46436,-5.32633 1.2003,-1.14404 5.90772,4.23856 -1.59415,-8.32708 1.25656,-1.21905 z m 8.92722,-29.01348 -3.28206,3.13203 5.90772,10.015 -1.23781,1.18154 -5.92648,-10.01499 -3.28206,3.15078 -0.76895,-1.27531 7.83946,-7.46436 z m 8.66466,0.43136 c -0.6189,0.63766 -1.14403,1.21905 -1.57539,1.76294 -0.4126,0.54389 -0.73143,1.03151 -0.91898,1.48162 -0.2063,0.45011 -0.28132,0.88147 -0.24381,1.27532 0.0563,0.4126 0.24381,0.78769 0.5814,1.12528 0.28132,0.30007 0.60014,0.43135 0.95648,0.39385 0.33759,-0.0375 0.73144,-0.26257 1.16279,-0.65642 0.3751,-0.35634 0.67517,-0.80645 0.91898,-1.35033 0.22506,-0.54389 0.39385,-1.08778 0.50638,-1.65042 z m 2.10053,3.56339 c -0.0563,0.16879 -0.11253,0.4126 -0.18755,0.71268 -0.075,0.31883 -0.18755,0.60015 -0.30008,0.88147 -0.11252,0.30007 -0.28132,0.60015 -0.46886,0.90022 -0.2063,0.31883 -0.46887,0.63766 -0.82521,0.95649 -0.54388,0.52513 -1.14403,0.78769 -1.78169,0.80645 -0.65642,0 -1.23781,-0.26257 -1.72543,-0.76894 -0.52513,-0.56264 -0.84396,-1.14404 -0.95649,-1.74419 -0.11253,-0.60015 -0.0563,-1.25656 0.18755,-1.95048 0.24381,-0.67517 0.65641,-1.38785 1.2003,-2.11928 0.56264,-0.73143 1.25656,-1.51913 2.08176,-2.34434 -0.0938,-0.15003 -0.16879,-0.26256 -0.22505,-0.37509 -0.0563,-0.0938 -0.13128,-0.18755 -0.22506,-0.28132 -0.18754,-0.2063 -0.37509,-0.31883 -0.58139,-0.37509 -0.18755,-0.0375 -0.39385,-0.0375 -0.61891,0.0187 -0.2063,0.075 -0.43135,0.18755 -0.65641,0.33759 -0.2063,0.15003 -0.43136,0.33758 -0.67517,0.56264 -0.33758,0.33758 -0.69392,0.76894 -1.03151,1.31282 -0.33758,0.54389 -0.60014,1.01276 -0.78769,1.38785 l -0.0563,0.0563 -0.88147,-1.38784 c 0.1688,-0.28132 0.45012,-0.67517 0.84396,-1.18155 0.3751,-0.52513 0.76895,-0.97524 1.2003,-1.36909 0.84396,-0.8252 1.63166,-1.29407 2.30683,-1.44411 0.69392,-0.13128 1.31283,0.075 1.87547,0.65642 0.0938,0.11252 0.2063,0.24381 0.30007,0.39384 0.11253,0.15004 0.2063,0.28132 0.28132,0.41261 l 3.3946,5.73893 -1.16279,1.10652 z m 6.22655,-4.20105 c -0.50638,0.48762 -1.03151,0.86272 -1.5754,1.12528 -0.52513,0.26257 -0.99399,0.45011 -1.4066,0.56264 l -0.93773,-1.50037 0.075,-0.0563 c 0.15004,-0.0188 0.35634,-0.0375 0.58139,-0.0563 0.24381,-0.0375 0.50638,-0.11253 0.82521,-0.2063 0.28132,-0.0938 0.58139,-0.22506 0.90022,-0.39385 0.31883,-0.16879 0.61891,-0.39385 0.90023,-0.65641 0.58139,-0.56264 0.93773,-1.10653 1.06901,-1.63166 0.11253,-0.52513 -0.0188,-1.01275 -0.4126,-1.42535 -0.2063,-0.22506 -0.45011,-0.30008 -0.73143,-0.26257 -0.28132,0.0375 -0.6189,0.16879 -1.01275,0.4126 -0.2063,0.11253 -0.43136,0.24381 -0.69393,0.41261 -0.28132,0.16879 -0.56264,0.33758 -0.84396,0.50637 -0.6189,0.31883 -1.16279,0.46887 -1.63165,0.43136 -0.48762,-0.0563 -0.90023,-0.24381 -1.25657,-0.6189 -0.30007,-0.33759 -0.52513,-0.69393 -0.65641,-1.10653 -0.13128,-0.43136 -0.16879,-0.88147 -0.11253,-1.38785 0.0563,-0.46886 0.22506,-0.97524 0.50638,-1.50037 0.26256,-0.52513 0.65641,-1.03151 1.16279,-1.50037 0.4126,-0.39385 0.88147,-0.73144 1.38784,-1.03151 0.50638,-0.28132 0.97525,-0.46887 1.3691,-0.5814 l 0.88147,1.44411 -0.0563,0.0563 c -0.11253,0 -0.28132,0.0375 -0.50637,0.0563 -0.22506,0.0375 -0.48763,0.11253 -0.76895,0.22506 -0.26256,0.075 -0.52513,0.2063 -0.8252,0.37509 -0.30008,0.16879 -0.56264,0.3751 -0.82521,0.61891 -0.52513,0.50637 -0.84396,1.01275 -0.95649,1.53788 -0.11252,0.52513 0.0188,0.97524 0.3751,1.35034 0.18754,0.2063 0.43136,0.30007 0.73143,0.28132 0.28132,0 0.6189,-0.13129 1.01275,-0.35634 0.26257,-0.13129 0.50638,-0.30008 0.76894,-0.46887 0.28132,-0.15004 0.52513,-0.31883 0.7877,-0.46887 0.60015,-0.33758 1.12528,-0.48762 1.6129,-0.46886 0.48762,0.0187 0.90023,0.22505 1.27532,0.60015 0.30007,0.31883 0.50638,0.71267 0.65641,1.16279 0.13129,0.45011 0.16879,0.91897 0.0938,1.4066 -0.075,0.52513 -0.24381,1.0315 -0.54389,1.57539 -0.28132,0.52513 -0.69392,1.03151 -1.21905,1.53788 z m 10.67141,-10.48386 -1.4066,1.35034 -5.12003,-0.93774 -0.22506,1.76294 1.61291,2.71943 -1.18155,1.12528 -6.95798,-11.77793 1.18154,-1.12528 4.46361,7.55813 0.75019,-7.33308 1.53788,-1.46286 -0.84396,7.05175 z"
         style="fill:#000000;fill-opacity:1;fill-rule:nonzero;stroke:none"
         inkscape:connector-curvature="0" />
      <path
         id="path3061"
         d="m 383.62682,392.9854 c -0.58139,0.60015 -1.2003,1.08777 -1.83796,1.50038 -0.65641,0.4126 -1.35033,0.75018 -2.11927,1.01275 l -1.10653,-1.65041 0.0938,-0.0938 c 0.75019,-0.0188 1.50038,-0.22505 2.26932,-0.60015 0.75019,-0.37509 1.38784,-0.8252 1.91297,-1.35033 0.84397,-0.88147 1.33159,-1.70668 1.44411,-2.51313 0.0938,-0.80645 -0.11252,-1.46286 -0.63765,-1.98799 -0.28132,-0.28132 -0.60015,-0.41261 -0.95649,-0.43136 -0.35634,-0.0188 -0.73143,0.075 -1.12528,0.30007 -0.33759,0.20631 -0.71268,0.45012 -1.14404,0.75019 -0.4126,0.30008 -0.8252,0.5814 -1.23781,0.82521 -0.76894,0.50637 -1.50037,0.75018 -2.19429,0.76894 -0.69393,0.0188 -1.29408,-0.22506 -1.80045,-0.73143 -0.86272,-0.86272 -1.23781,-1.93174 -1.08777,-3.24456 0.15003,-1.29407 0.78769,-2.53188 1.93173,-3.69467 0.6189,-0.63766 1.25656,-1.16279 1.89422,-1.53789 0.65641,-0.39384 1.23781,-0.69392 1.80045,-0.90022 l 1.03151,1.55664 -0.0938,0.0938 c -0.54388,0.0188 -1.18154,0.22506 -1.89422,0.56264 -0.71268,0.35634 -1.36909,0.82521 -1.95048,1.4066 -0.73144,0.75019 -1.14404,1.50038 -1.25657,2.26932 -0.11253,0.75018 0.0938,1.38784 0.60015,1.87546 0.26257,0.26257 0.5814,0.41261 0.93774,0.46887 0.35633,0.0375 0.78769,-0.0938 1.29407,-0.4126 0.31883,-0.2063 0.73143,-0.46887 1.23781,-0.82521 0.52513,-0.33758 0.95648,-0.6189 1.31282,-0.84396 0.73144,-0.4126 1.4066,-0.6189 2.00675,-0.6189 0.61891,0 1.16279,0.24381 1.63166,0.71268 0.39385,0.39384 0.71268,0.88147 0.90022,1.46286 0.20631,0.58139 0.28132,1.2003 0.22506,1.8192 -0.075,0.67517 -0.26257,1.35034 -0.5814,2.00675 -0.33758,0.67517 -0.8252,1.35034 -1.50037,2.04426 z m 6.32033,-15.11626 c -0.0938,-0.13129 -0.1688,-0.24381 -0.24382,-0.33759 -0.075,-0.075 -0.16879,-0.16879 -0.26256,-0.26256 -0.43136,-0.43136 -0.90022,-0.65642 -1.36909,-0.65642 -0.48762,0 -0.97524,0.26257 -1.50038,0.7877 -0.56264,0.58139 -0.90022,1.27532 -0.97524,2.08177 -0.075,0.78769 0.0938,1.55664 0.52513,2.30682 z m 2.08176,6.54538 c -0.93773,0.93773 -1.87546,1.46286 -2.85071,1.57539 -0.97524,0.0938 -1.89422,-0.28132 -2.75693,-1.10653 -1.23781,-1.2378 -1.93173,-2.68191 -2.04426,-4.35108 -0.13128,-1.66917 0.37509,-3.09452 1.51913,-4.25731 0.76894,-0.76894 1.53788,-1.18154 2.32558,-1.21905 0.78769,-0.0188 1.53788,0.30007 2.2318,0.97524 0.13128,0.13128 0.30008,0.33758 0.52513,0.63766 0.24381,0.28132 0.48762,0.63766 0.76894,1.06901 l -4.93247,5.04501 c 0.0938,0.13128 0.18754,0.26257 0.28132,0.39385 0.11252,0.11253 0.2063,0.22505 0.31882,0.31883 0.56265,0.56264 1.2003,0.8252 1.85672,0.80645 0.67517,-0.0375 1.33158,-0.37509 1.96924,-1.01275 0.43136,-0.45012 0.80645,-0.994 1.08777,-1.65041 0.30007,-0.63766 0.48762,-1.23781 0.58139,-1.7817 l 0.075,-0.0563 0.994,1.46286 c -0.13128,0.28132 -0.24381,0.52513 -0.33758,0.75019 -0.0938,0.22506 -0.24381,0.48762 -0.43136,0.80645 -0.18755,0.31883 -0.35634,0.58139 -0.52513,0.80645 -0.15004,0.22506 -0.3751,0.48762 -0.65642,0.7877 z m 5.45761,-16.44785 c 0.0938,0.0938 0.22506,0.24381 0.3751,0.4126 0.13128,0.18755 0.26256,0.35634 0.35634,0.50638 l 3.4321,5.38259 -1.12528,1.14403 -3.0195,-4.70742 c -0.16879,-0.26256 -0.31883,-0.48762 -0.45011,-0.67517 -0.13129,-0.16879 -0.28132,-0.33758 -0.45012,-0.50637 -0.33758,-0.33759 -0.67516,-0.50638 -1.01275,-0.50638 -0.33758,0 -0.73143,0.22506 -1.16279,0.67517 -0.30007,0.30007 -0.54388,0.73143 -0.75018,1.27532 -0.18755,0.54388 -0.33759,1.10652 -0.45012,1.68792 l 3.93848,6.18904 -1.12528,1.14403 -5.28881,-8.28956 1.12528,-1.14404 0.58139,0.91898 c 0.13128,-0.73143 0.30008,-1.36909 0.50638,-1.91297 0.2063,-0.54389 0.50637,-1.01276 0.91898,-1.42536 0.58139,-0.58139 1.18154,-0.90022 1.80045,-0.93773 0.63765,-0.0375 1.2378,0.2063 1.80044,0.76894 z m 4.40735,-12.99699 7.35183,11.55288 -1.12528,1.14403 -0.54388,-0.86271 c -0.15004,0.86271 -0.33759,1.51913 -0.50638,1.95049 -0.18755,0.43135 -0.46887,0.84396 -0.8252,1.21905 -0.63766,0.63766 -1.35034,0.95649 -2.11928,0.93773 -0.7877,-0.0375 -1.55664,-0.43135 -2.34434,-1.18154 -0.65641,-0.65641 -1.18154,-1.36909 -1.55663,-2.13803 -0.39385,-0.7877 -0.63766,-1.55664 -0.73144,-2.34434 -0.0938,-0.76894 -0.0375,-1.51913 0.1688,-2.25056 0.2063,-0.71268 0.58139,-1.35033 1.10652,-1.87547 0.35634,-0.35633 0.71268,-0.65641 1.08777,-0.88147 0.3751,-0.24381 0.76894,-0.4126 1.2003,-0.52513 l -2.30682,-3.58214 z m 1.89422,5.90772 c -0.4126,0.13129 -0.78769,0.30008 -1.10652,0.48763 -0.31883,0.2063 -0.63766,0.45011 -0.91898,0.75018 -0.4126,0.4126 -0.69392,0.90023 -0.80645,1.42536 -0.13128,0.54388 -0.13128,1.10652 0,1.68792 0.11253,0.52513 0.33758,1.06901 0.67517,1.63165 0.33758,0.56264 0.71267,1.05027 1.14403,1.46287 0.48762,0.48762 0.97524,0.75019 1.46287,0.80645 0.46886,0.0375 0.93773,-0.18755 1.4066,-0.65641 0.33758,-0.35634 0.60015,-0.7877 0.76894,-1.31283 0.18754,-0.52513 0.31883,-1.03151 0.4126,-1.53788 z m 15.2288,-3.99474 c -0.5814,0.58139 -1.18155,1.08777 -1.83796,1.50037 -0.63766,0.4126 -1.35034,0.75019 -2.11928,1.01275 l -1.08777,-1.65041 0.075,-0.0938 c 0.75019,-0.0187 1.51913,-0.22506 2.26931,-0.60015 0.75019,-0.37509 1.38785,-0.82521 1.91298,-1.35034 0.86272,-0.88147 1.33158,-1.70667 1.44411,-2.51312 0.11253,-0.80645 -0.11253,-1.46287 -0.63766,-1.988 -0.28132,-0.28132 -0.60015,-0.43135 -0.95649,-0.45011 -0.33758,-0.0188 -0.71267,0.0938 -1.12528,0.31883 -0.31883,0.2063 -0.71267,0.45011 -1.12528,0.75019 -0.43135,0.30007 -0.84396,0.56264 -1.23781,0.8252 -0.78769,0.50638 -1.51912,0.75019 -2.19429,0.76894 -0.69392,0 -1.29407,-0.24381 -1.8192,-0.75018 -0.86272,-0.84396 -1.21906,-1.91298 -1.08778,-3.22581 0.15004,-1.29407 0.7877,-2.53188 1.93174,-3.69467 0.63765,-0.63766 1.25656,-1.16279 1.91297,-1.55663 0.63766,-0.3751 1.23781,-0.67517 1.7817,-0.88147 l 1.0315,1.55663 -0.075,0.0938 c -0.56264,0.0187 -1.20029,0.2063 -1.91297,0.56264 -0.71268,0.35634 -1.36909,0.8252 -1.95049,1.4066 -0.71268,0.75018 -1.14403,1.50037 -1.23781,2.26931 -0.11252,0.75019 0.075,1.38785 0.5814,1.87547 0.26256,0.26257 0.58139,0.4126 0.93773,0.45011 0.3751,0.0375 0.80645,-0.0938 1.29407,-0.39385 0.31883,-0.2063 0.73144,-0.46886 1.25657,-0.8252 0.50637,-0.33759 0.93773,-0.61891 1.31282,-0.84396 0.73144,-0.43136 1.38785,-0.63766 2.00675,-0.61891 0.60015,0 1.14404,0.24381 1.61291,0.71268 0.4126,0.39385 0.71267,0.88147 0.91897,1.46287 0.20631,0.58139 0.26257,1.18154 0.20631,1.8192 -0.0563,0.67517 -0.26257,1.33158 -0.5814,2.00675 -0.31883,0.67517 -0.8252,1.35034 -1.50037,2.04426 z m 3.26331,-17.32932 0.73143,1.12528 -2.34433,2.36309 2.43811,3.82595 c 0.13128,0.2063 0.28132,0.41261 0.45011,0.65642 0.16879,0.22505 0.31883,0.4126 0.45011,0.52513 0.30008,0.30007 0.5814,0.43136 0.88147,0.43136 0.30007,-0.0188 0.63766,-0.22506 1.03151,-0.61891 0.16879,-0.16879 0.33758,-0.39385 0.50637,-0.69392 0.1688,-0.28132 0.28132,-0.48762 0.31883,-0.60015 l 0.0563,-0.0563 0.78769,1.18155 c -0.16879,0.28132 -0.35634,0.58139 -0.58139,0.86271 -0.2063,0.30008 -0.43136,0.54389 -0.61891,0.75019 -0.54388,0.56264 -1.10652,0.88147 -1.65041,0.93773 -0.54388,0.075 -1.08777,-0.15003 -1.63165,-0.67516 -0.13129,-0.13129 -0.24381,-0.26257 -0.35634,-0.41261 -0.11253,-0.15003 -0.22506,-0.31883 -0.35634,-0.50637 l -2.85071,-4.44486 -0.75019,0.76894 -0.73143,-1.12528 0.76894,-0.76894 -1.51913,-2.38184 1.12528,-1.16279 1.51913,2.38184 z m 7.95198,-1.63166 c -0.60015,0.63766 -1.10652,1.25657 -1.50037,1.80045 -0.4126,0.56264 -0.71268,1.06902 -0.88147,1.51913 -0.18755,0.46887 -0.26257,0.90023 -0.18755,1.29407 0.0563,0.39385 0.26257,0.75019 0.60015,1.08778 0.30008,0.30007 0.61891,0.4126 0.97524,0.37509 0.33759,-0.0563 0.73144,-0.28132 1.14404,-0.71268 0.35634,-0.37509 0.65641,-0.8252 0.86271,-1.36909 0.20631,-0.54389 0.35634,-1.10653 0.45012,-1.66917 z m 2.21305,3.48837 c -0.0375,0.1688 -0.0938,0.41261 -0.16879,0.71268 -0.0563,0.30008 -0.15004,0.60015 -0.24381,0.88147 -0.11253,0.30008 -0.26257,0.61891 -0.45011,0.93773 -0.18755,0.31883 -0.45011,0.63766 -0.7877,0.97525 -0.52513,0.54388 -1.12528,0.8252 -1.76294,0.86271 -0.65641,0.0188 -1.23781,-0.2063 -1.74418,-0.71268 -0.54389,-0.54388 -0.88147,-1.10652 -1.01275,-1.70667 -0.15004,-0.60015 -0.0938,-1.25656 0.11252,-1.96924 0.22506,-0.67517 0.60015,-1.4066 1.14404,-2.15679 0.52513,-0.75019 1.18154,-1.55664 1.98799,-2.41935 -0.0938,-0.13128 -0.16879,-0.24381 -0.24381,-0.33758 -0.0563,-0.11253 -0.13128,-0.20631 -0.22505,-0.28133 -0.2063,-0.2063 -0.39385,-0.31882 -0.60015,-0.35633 -0.18755,-0.0375 -0.39385,-0.0375 -0.61891,0.0375 -0.2063,0.075 -0.43135,0.18754 -0.63766,0.35633 -0.2063,0.1688 -0.43135,0.35634 -0.65641,0.5814 -0.33758,0.35634 -0.67517,0.80645 -0.994,1.35034 -0.31883,0.56264 -0.56264,1.0315 -0.73143,1.42535 l -0.0563,0.0563 -0.93774,-1.35033 c 0.1688,-0.30008 0.43136,-0.71268 0.80645,-1.23781 0.35634,-0.52513 0.73144,-0.994 1.14404,-1.4066 0.82521,-0.84396 1.59415,-1.35034 2.26931,-1.51913 0.67517,-0.15004 1.31283,0.0375 1.89423,0.60015 0.0938,0.11253 0.2063,0.24381 0.31883,0.37509 0.11252,0.15004 0.2063,0.28132 0.28132,0.41261 l 3.60089,5.6264 -1.12528,1.12528 z m 2.02551,-14.29106 0.71268,1.12528 -2.32558,2.38185 2.4381,3.82595 c 0.13129,0.18755 0.26257,0.4126 0.45012,0.63766 0.16879,0.24381 0.31882,0.4126 0.43135,0.54388 0.30008,0.28132 0.60015,0.43136 0.90023,0.41261 0.28132,0 0.63766,-0.2063 1.0315,-0.61891 0.1688,-0.16879 0.33759,-0.39384 0.50638,-0.67516 0.16879,-0.30008 0.26257,-0.48763 0.31883,-0.60015 l 0.0563,-0.075 0.7877,1.18154 c -0.16879,0.30008 -0.37509,0.5814 -0.5814,0.88147 -0.22505,0.28132 -0.43135,0.54389 -0.6189,0.73143 -0.56264,0.56264 -1.10652,0.88147 -1.65041,0.95649 -0.56264,0.0563 -1.10653,-0.16879 -1.63166,-0.69392 -0.13128,-0.13128 -0.24381,-0.26257 -0.35634,-0.4126 -0.11252,-0.13129 -0.24381,-0.30008 -0.37509,-0.50638 l -2.83195,-4.44486 -0.76895,0.76894 -0.71267,-1.10652 0.76894,-0.7877 -1.51913,-2.38184 1.12528,-1.16279 1.51913,2.38184 z m 6.88296,-7.033 5.30757,8.27081 -1.12528,1.14404 -0.60015,-0.90023 c -0.13128,0.71268 -0.28132,1.35034 -0.48762,1.89422 -0.2063,0.54389 -0.50637,1.03151 -0.91898,1.44411 -0.58139,0.5814 -1.18154,0.90023 -1.80044,0.93774 -0.61891,0.0375 -1.21906,-0.22506 -1.7817,-0.76894 -0.13128,-0.13129 -0.26256,-0.28132 -0.37509,-0.43136 -0.11253,-0.15004 -0.24381,-0.31883 -0.3751,-0.50638 l -3.4321,-5.38259 1.12528,-1.14403 3.0195,4.70742 c 0.11253,0.2063 0.26257,0.4126 0.43136,0.63766 0.18755,0.24381 0.31883,0.4126 0.45011,0.52513 0.33759,0.35634 0.69392,0.52513 1.05026,0.50638 0.33759,0 0.73144,-0.20631 1.14404,-0.63766 0.30007,-0.30008 0.54388,-0.73144 0.75019,-1.29408 0.2063,-0.56264 0.35633,-1.12528 0.45011,-1.66916 l -3.95724,-6.18904 z m 9.78994,4.03226 c -0.50637,0.50637 -1.01275,0.90022 -1.53788,1.18154 -0.52513,0.28132 -0.994,0.48762 -1.4066,0.6189 l -0.97525,-1.46286 0.0563,-0.075 c 0.16879,0 0.35634,-0.0375 0.60015,-0.075 0.22505,-0.0375 0.50637,-0.11253 0.80645,-0.22505 0.28132,-0.11253 0.58139,-0.24381 0.88147,-0.43136 0.31883,-0.16879 0.60015,-0.4126 0.88147,-0.69392 0.56264,-0.56264 0.90022,-1.12528 1.01275,-1.65041 0.11253,-0.54389 -0.0563,-1.01276 -0.46887,-1.42536 -0.2063,-0.2063 -0.45011,-0.28132 -0.73143,-0.22506 -0.28132,0.0563 -0.6189,0.18755 -0.994,0.43136 -0.18754,0.13128 -0.43135,0.28132 -0.69392,0.46887 -0.26256,0.16879 -0.52513,0.33758 -0.80645,0.50637 -0.6189,0.35634 -1.14403,0.50638 -1.63166,0.48763 -0.48762,-0.0188 -0.90022,-0.20631 -1.27531,-0.56264 -0.31883,-0.31883 -0.54389,-0.67517 -0.67517,-1.08778 -0.15004,-0.4126 -0.2063,-0.86271 -0.16879,-1.36909 0.0375,-0.48762 0.18754,-0.99399 0.45011,-1.51912 0.24381,-0.54389 0.6189,-1.06902 1.10652,-1.55664 0.39385,-0.41261 0.84396,-0.76894 1.35034,-1.06902 0.50638,-0.30007 0.95649,-0.50638 1.35034,-0.6189 l 0.93773,1.38784 -0.0563,0.075 c -0.11253,0 -0.28132,0.0375 -0.50638,0.075 -0.22506,0.0563 -0.46887,0.13128 -0.76894,0.24381 -0.24381,0.0938 -0.52513,0.22506 -0.80645,0.4126 -0.28132,0.18755 -0.56264,0.39385 -0.80645,0.65642 -0.48763,0.50637 -0.7877,1.01275 -0.90023,1.55663 -0.0938,0.52514 0.0375,0.97525 0.4126,1.33159 0.20631,0.2063 0.45012,0.28132 0.75019,0.26256 0.28132,-0.0188 0.61891,-0.15004 1.01275,-0.39385 0.24381,-0.15003 0.48763,-0.31883 0.75019,-0.48762 0.26257,-0.16879 0.50638,-0.33758 0.76894,-0.50637 0.5814,-0.35634 1.10653,-0.52513 1.59415,-0.52513 0.48762,0 0.90022,0.18754 1.27532,0.56264 0.31883,0.30007 0.56264,0.69392 0.71267,1.12528 0.15004,0.45011 0.20631,0.91897 0.15004,1.4066 -0.0563,0.52513 -0.22505,1.05026 -0.48762,1.59414 -0.28132,0.54389 -0.67517,1.06902 -1.16279,1.5754 z"
         style="fill:#000000;fill-opacity:1;fill-rule:nonzero;stroke:none"
         inkscape:connector-curvature="0" />
      <text
         id="text3063"
         style="font-size:17.55437279px;font-style:italic;font-weight:normal;text-align:start;text-anchor:start;fill:#000000;font-family:Verdana"
         y="507.19437"
         x="233.59662"
         xml:space="preserve">Task Execution,</text>
      <text
         id="text3065"
         style="font-size:17.55437279px;font-style:italic;font-weight:normal;text-align:start;text-anchor:start;fill:#000000;font-family:Verdana"
         y="528.19958"
         x="236.89745"
         xml:space="preserve">Data Exchange</text>
      <text
         id="text3067"
         style="font-size:17.55437279px;font-style:italic;font-weight:normal;text-align:start;text-anchor:start;fill:#000000;font-family:Verdana"
         y="507.19437"
         x="646.51672"
         xml:space="preserve">Task Execution,</text>
      <text
         id="text3069"
         style="font-size:17.55437279px;font-style:italic;font-weight:normal;text-align:start;text-anchor:start;fill:#000000;font-family:Verdana"
         y="528.19958"
         x="649.8175"
         xml:space="preserve">Data Exchange</text>
      <path
         id="path3071"
         d="m 564.90948,478.2629 -122.78684,1.87546 0.0938,5.62641 122.76808,-1.87547 z m -15.24755,15.32256 20.8552,-12.60314 -21.23029,-11.94672 c -1.35034,-0.76894 -3.05701,-0.28132 -3.82595,1.06901 -0.75019,1.35034 -0.28132,3.07577 1.06901,3.84471 l 17.02925,9.58364 -0.075,-4.85746 -16.72917,10.09001 c -1.33158,0.80645 -1.74418,2.53188 -0.93773,3.86347 0.78769,1.33158 2.53188,1.76294 3.8447,0.95648 z m -92.21672,-23.14326 -20.85519,12.60314 21.23028,11.94672 c 1.35034,0.76895 3.07577,0.28133 3.82596,-1.06901 0.76894,-1.35034 0.28132,-3.07577 -1.06902,-3.82595 l 0,0 -17.02924,-9.6024 0.075,4.87622 16.72917,-10.10877 c 1.33158,-0.80645 1.76293,-2.53188 0.95648,-3.86346 -0.80645,-1.33158 -2.53188,-1.76294 -3.86346,-0.95649 z"
         style="fill:#000000;fill-opacity:1;fill-rule:nonzero;stroke:#000000;stroke-width:0.01875467px;stroke-linecap:butt;stroke-linejoin:round;stroke-opacity:1;stroke-dasharray:none"
         inkscape:connector-curvature="0" />
      <text
         id="text3073"
         style="font-size:17.55437279px;font-style:italic;font-weight:normal;text-align:start;text-anchor:start;fill:#000000;font-family:Verdana"
         y="516.58087"
         x="466.24557"
         xml:space="preserve">Exchange </text>
      <text
         id="text3075"
         style="font-size:17.55437279px;font-style:italic;font-weight:normal;text-align:start;text-anchor:start;fill:#000000;font-family:Verdana"
         y="537.58606"
         x="451.39188"
         xml:space="preserve">Intermediate</text>
      <text
         id="text3077"
         style="font-size:17.55437279px;font-style:italic;font-weight:normal;text-align:start;text-anchor:start;fill:#000000;font-family:Verdana"
         y="558.59131"
         x="476.7482"
         xml:space="preserve">Results</text>
      <text
         id="text3079"
         style="font-size:17.55437279px;font-style:italic;font-weight:normal;text-align:start;text-anchor:start;fill:#000000;font-family:Verdana"
         y="579.59656"
         x="418.08359"
         xml:space="preserve">(</text>
      <text
         id="text3081"
         style="font-size:17.55437279px;font-style:italic;font-weight:normal;text-align:start;text-anchor:start;fill:#000000;font-family:Verdana"
         y="579.59656"
         x="426.03558"
         xml:space="preserve">shuffle</text>
      <text
         id="text3083"
         style="font-size:17.55437279px;font-style:italic;font-weight:normal;text-align:start;text-anchor:start;fill:#000000;font-family:Verdana"
         y="579.59656"
         x="490.85172"
         xml:space="preserve">/ </text>
      <text
         id="text3085"
         style="font-size:17.55437279px;font-style:italic;font-weight:normal;text-align:start;text-anchor:start;fill:#000000;font-family:Verdana"
         y="579.59656"
         x="504.95523"
         xml:space="preserve">broadcast</text>
      <text
         id="text3087"
         style="font-size:17.55437279px;font-style:italic;font-weight:normal;text-align:start;text-anchor:start;fill:#000000;font-family:Verdana"
         y="579.59656"
         x="591.22675"
         xml:space="preserve">) </text>
    </g>
  </g>
</svg>
