<?xml version="1.0" encoding="UTF-8"?>
<!--
Licensed to the Apache Software Foundation (ASF) under one
or more contributor license agreements.  See the NOTICE file
distributed with this work for additional information
regarding copyright ownership.  The ASF licenses this file
to you under the Apache License, Version 2.0 (the
"License"); you may not use this file except in compliance
with the License.  You may obtain a copy of the License at

http://www.apache.org/licenses/LICENSE-2.0

Unless required by applicable law or agreed to in writing,
software distributed under the License is distributed on an
"AS IS" BASIS, WITHOUT WARRANTIES OR CONDITIONS OF ANY
KIND, either express or implied.  See the License for the
specific language governing permissions and limitations
under the License.
-->

<svg xmlns="http://www.w3.org/2000/svg" xmlns:xlink="http://www.w3.org/1999/xlink" fill-opacity="1" color-rendering="auto" color-interpolation="auto" stroke="black" text-rendering="auto" stroke-linecap="square" width="877" stroke-miterlimit="10" stroke-opacity="1" shape-rendering="auto" fill="black" stroke-dasharray="none" font-weight="normal" stroke-width="1" height="397" font-family="'Dialog'" font-style="normal" stroke-linejoin="miter" font-size="12" stroke-dashoffset="0" image-rendering="auto">
  <!--Generated by ySVG 2.5-->
  <defs id="genericDefs"/>
  <g>
    <defs id="defs1">
      <linearGradient x1="336.5" gradientUnits="userSpaceOnUse" x2="506.5" y1="386.5" y2="426.5" id="linearGradient1" spreadMethod="reflect">
        <stop stop-opacity="1" stop-color="rgb(232,238,247)" offset="0%"/>
        <stop stop-opacity="1" stop-color="rgb(183,201,227)" offset="100%"/>
      </linearGradient>
      <clipPath clipPathUnits="userSpaceOnUse" id="clipPath1">
        <path d="M0 0 L877 0 L877 397 L0 397 L0 0 Z"/>
      </clipPath>
      <clipPath clipPathUnits="userSpaceOnUse" id="clipPath2">
        <path d="M77 45 L954 45 L954 442 L77 442 L77 45 Z"/>
      </clipPath>
    </defs>
    <g fill="white" text-rendering="geometricPrecision" shape-rendering="geometricPrecision" transform="translate(-77,-45)" stroke="white">
      <rect x="77" width="877" height="397" y="45" clip-path="url(#clipPath2)" stroke="none"/>
    </g>
    <g fill="rgb(0,153,153)" text-rendering="geometricPrecision" shape-rendering="geometricPrecision" transform="matrix(1,0,0,1,-77,-45)" stroke="rgb(0,153,153)">
      <rect x="92" y="209" clip-path="url(#clipPath2)" width="119" rx="4" ry="4" height="117" stroke="none"/>
    </g>
    <g text-rendering="geometricPrecision" stroke-miterlimit="1.45" shape-rendering="geometricPrecision" font-family="sans-serif" transform="matrix(1,0,0,1,-77,-45)" stroke-linecap="butt">
      <text x="107.9238" xml:space="preserve" y="226.1387" clip-path="url(#clipPath2)" stroke="none">"Master" Node</text>
      <rect x="92" y="209" clip-path="url(#clipPath2)" fill="none" width="119" rx="4" ry="4" height="117"/>
    </g>
    <g fill="rgb(0,153,153)" text-rendering="geometricPrecision" shape-rendering="geometricPrecision" transform="matrix(1,0,0,1,-77,-45)" stroke="rgb(0,153,153)">
      <rect x="369" y="60" clip-path="url(#clipPath2)" width="105" rx="4" ry="4" height="117" stroke="none"/>
    </g>
    <g text-rendering="geometricPrecision" stroke-miterlimit="1.45" shape-rendering="geometricPrecision" font-family="sans-serif" transform="matrix(1,0,0,1,-77,-45)" stroke-linecap="butt">
      <text x="375.498" xml:space="preserve" y="115.6699" clip-path="url(#clipPath2)" stroke="none">YARN Resource</text>
      <text x="395.4492" xml:space="preserve" y="129.6387" clip-path="url(#clipPath2)" stroke="none">Manager</text>
      <rect x="369" y="60" clip-path="url(#clipPath2)" fill="none" width="105" rx="4" ry="4" height="117"/>
    </g>
    <g fill="rgb(0,153,153)" text-rendering="geometricPrecision" shape-rendering="geometricPrecision" transform="matrix(1,0,0,1,-77,-45)" stroke="rgb(0,153,153)">
      <rect x="369" y="212" clip-path="url(#clipPath2)" width="105" rx="4" ry="4" height="117" stroke="none"/>
    </g>
    <g text-rendering="geometricPrecision" stroke-miterlimit="1.45" shape-rendering="geometricPrecision" font-family="sans-serif" transform="matrix(1,0,0,1,-77,-45)" stroke-linecap="butt">
      <text x="373.8457" xml:space="preserve" y="229.1387" clip-path="url(#clipPath2)" stroke="none">YARN Container</text>
      <rect x="369" y="212" clip-path="url(#clipPath2)" fill="none" width="105" rx="4" ry="4" height="117"/>
    </g>
    <g fill="rgb(0,153,153)" text-rendering="geometricPrecision" shape-rendering="geometricPrecision" transform="matrix(1,0,0,1,-77,-45)" stroke="rgb(0,153,153)">
      <rect x="614" y="212" clip-path="url(#clipPath2)" width="105" rx="4" ry="4" height="117" stroke="none"/>
    </g>
    <g text-rendering="geometricPrecision" stroke-miterlimit="1.45" shape-rendering="geometricPrecision" font-family="sans-serif" transform="matrix(1,0,0,1,-77,-45)" stroke-linecap="butt">
      <text x="618.8457" xml:space="preserve" y="229.1387" clip-path="url(#clipPath2)" stroke="none">YARN Container</text>
      <rect x="614" y="212" clip-path="url(#clipPath2)" fill="none" width="105" rx="4" ry="4" height="117"/>
    </g>
    <g fill="url(#linearGradient1)" text-rendering="geometricPrecision" shape-rendering="geometricPrecision" transform="matrix(1,0,0,1,-77,-45)" stroke="url(#linearGradient1)">
      <path d="M336.5 394.5 C341.6 386.5 501.4 386.5 506.5 394.5 L506.5 418.5 C501.4 426.5 341.6 426.5 336.5 418.5 Z" clip-path="url(#clipPath2)" stroke="none"/>
    </g>
    <g text-rendering="geometricPrecision" stroke-miterlimit="1.45" shape-rendering="geometricPrecision" transform="matrix(1,0,0,1,-77,-45)" stroke-linecap="butt">
      <path fill="none" d="M336.5 394.5 C341.6 386.5 501.4 386.5 506.5 394.5 L506.5 418.5 C501.4 426.5 341.6 426.5 336.5 418.5 Z" clip-path="url(#clipPath2)"/>
      <path fill="none" d="M506.5 394.5 C501.4 402.5 341.6 402.5 336.5 394.5" clip-path="url(#clipPath2)"/>
      <text x="405.1084" xml:space="preserve" y="410.6543" font-family="sans-serif" clip-path="url(#clipPath2)" stroke="none">HDFS</text>
    </g>
    <g fill="rgb(0,153,153)" text-rendering="geometricPrecision" shape-rendering="geometricPrecision" transform="matrix(1,0,0,1,-77,-45)" stroke="rgb(0,153,153)">
      <rect x="791" y="212" clip-path="url(#clipPath2)" width="105" rx="4" ry="4" height="117" stroke="none"/>
    </g>
    <g text-rendering="geometricPrecision" stroke-miterlimit="1.45" shape-rendering="geometricPrecision" font-family="sans-serif" transform="matrix(1,0,0,1,-77,-45)" stroke-linecap="butt">
      <text x="795.8457" xml:space="preserve" y="229.1387" clip-path="url(#clipPath2)" stroke="none">YARN Container</text>
      <rect x="791" y="212" clip-path="url(#clipPath2)" fill="none" width="105" rx="4" ry="4" height="117"/>
    </g>
    <g fill="rgb(51,153,102)" text-rendering="geometricPrecision" shape-rendering="geometricPrecision" transform="matrix(1,0,0,1,-77,-45)" stroke="rgb(51,153,102)">
      <rect x="99" width="105" height="30" y="242.5" clip-path="url(#clipPath2)" stroke="none"/>
    </g>
    <g text-rendering="geometricPrecision" stroke-miterlimit="1.45" shape-rendering="geometricPrecision" font-family="sans-serif" transform="matrix(1,0,0,1,-77,-45)" stroke-linecap="butt">
      <text x="137.4375" xml:space="preserve" y="254.6699" clip-path="url(#clipPath2)" stroke="none">Flink</text>
      <text x="115.7959" xml:space="preserve" y="268.6387" clip-path="url(#clipPath2)" stroke="none">YARN Client</text>
      <rect fill="none" x="99" width="105" height="30" y="242.5" clip-path="url(#clipPath2)"/>
    </g>
    <g fill="rgb(51,153,102)" text-rendering="geometricPrecision" shape-rendering="geometricPrecision" transform="matrix(1,0,0,1,-77,-45)" stroke="rgb(51,153,102)">
      <rect x="375" width="93" height="30" y="252.5" clip-path="url(#clipPath2)" stroke="none"/>
    </g>
    <g text-rendering="geometricPrecision" stroke-miterlimit="1.45" shape-rendering="geometricPrecision" font-family="sans-serif" transform="matrix(1,0,0,1,-77,-45)" stroke-linecap="butt">
      <text x="407.4375" xml:space="preserve" y="264.6699" clip-path="url(#clipPath2)" stroke="none">Flink</text>
      <text x="385.9512" xml:space="preserve" y="278.6387" clip-path="url(#clipPath2)" stroke="none">JobManager</text>
      <rect fill="none" x="375" width="93" height="30" y="252.5" clip-path="url(#clipPath2)"/>
    </g>
    <g fill="rgb(51,153,102)" text-rendering="geometricPrecision" shape-rendering="geometricPrecision" transform="matrix(1,0,0,1,-77,-45)" stroke="rgb(51,153,102)">
      <rect x="375" width="93" height="30" y="282.5" clip-path="url(#clipPath2)" stroke="none"/>
    </g>
    <g text-rendering="geometricPrecision" stroke-miterlimit="1.45" shape-rendering="geometricPrecision" font-family="sans-serif" transform="matrix(1,0,0,1,-77,-45)" stroke-linecap="butt">
      <text x="389.5371" xml:space="preserve" y="294.6699" clip-path="url(#clipPath2)" stroke="none">YARN App.</text>
      <text x="401.0098" xml:space="preserve" y="308.6387" clip-path="url(#clipPath2)" stroke="none">Master</text>
      <rect fill="none" x="375" width="93" height="30" y="282.5" clip-path="url(#clipPath2)"/>
    </g>
    <g fill="rgb(51,153,102)" text-rendering="geometricPrecision" shape-rendering="geometricPrecision" transform="matrix(1,0,0,1,-77,-45)" stroke="rgb(51,153,102)">
      <rect x="620" width="93" height="30" y="255.5" clip-path="url(#clipPath2)" stroke="none"/>
    </g>
    <g text-rendering="geometricPrecision" stroke-miterlimit="1.45" shape-rendering="geometricPrecision" font-family="sans-serif" transform="matrix(1,0,0,1,-77,-45)" stroke-linecap="butt">
      <text x="652.4375" xml:space="preserve" y="267.6699" clip-path="url(#clipPath2)" stroke="none">Flink</text>
      <text x="626.2578" xml:space="preserve" y="281.6387" clip-path="url(#clipPath2)" stroke="none">TaskManager</text>
      <rect fill="none" x="620" width="93" height="30" y="255.5" clip-path="url(#clipPath2)"/>
    </g>
    <g fill="rgb(51,153,102)" text-rendering="geometricPrecision" shape-rendering="geometricPrecision" transform="matrix(1,0,0,1,-77,-45)" stroke="rgb(51,153,102)">
      <rect x="797" width="93" height="30" y="255.5" clip-path="url(#clipPath2)" stroke="none"/>
    </g>
    <g text-rendering="geometricPrecision" stroke-miterlimit="1.45" shape-rendering="geometricPrecision" font-family="sans-serif" transform="matrix(1,0,0,1,-77,-45)" stroke-linecap="butt">
      <text x="829.4375" xml:space="preserve" y="267.6699" clip-path="url(#clipPath2)" stroke="none">Flink</text>
      <text x="803.2578" xml:space="preserve" y="281.6387" clip-path="url(#clipPath2)" stroke="none">TaskManager</text>
      <rect fill="none" x="797" width="93" height="30" y="255.5" clip-path="url(#clipPath2)"/>
      <text x="917.1621" xml:space="preserve" y="274.6543" font-weight="bold" clip-path="url(#clipPath2)" stroke="none">...</text>
      <path fill="none" d="M210.991 234.6698 L361.997 151.3369" clip-path="url(#clipPath2)"/>
      <path d="M369.0012 147.4715 L356.079 148.8919 L361.1215 151.82 L360.9107 157.6472 Z" clip-path="url(#clipPath2)" stroke="none"/>
      <text x="157.7557" xml:space="preserve" y="141.7122" font-weight="bold" clip-path="url(#clipPath2)" stroke="none">2. Register resources </text>
      <text x="150.4286" xml:space="preserve" y="155.681" font-weight="bold" clip-path="url(#clipPath2)" stroke="none">and request AppMaster </text>
      <text x="199.911" xml:space="preserve" y="169.6497" font-weight="bold" clip-path="url(#clipPath2)" stroke="none">container</text>
      <path fill="none" d="M421.5 177.0215 L421.5 204.0303" clip-path="url(#clipPath2)"/>
      <path d="M421.5 212.0303 L426.5 200.0303 L421.5 203.0303 L416.5 200.0303 Z" clip-path="url(#clipPath2)" stroke="none"/>
      <text x="452.5664" xml:space="preserve" y="198.6543" font-weight="bold" clip-path="url(#clipPath2)" stroke="none">3. Allocate AppMaster Container</text>
      <path fill="none" d="M473.9872 270.5 L606.0008 270.5" clip-path="url(#clipPath2)"/>
      <path d="M614.0008 270.5 L602.0008 265.5 L605.0008 270.5 L602.0008 275.5 Z" clip-path="url(#clipPath2)" stroke="none"/>
      <text x="481.2285" xml:space="preserve" y="304.6543" font-weight="bold" clip-path="url(#clipPath2)" stroke="none">4. Allocate Worker</text>
      <path fill="none" d="M210.991 298.1268 L380.3388 385.3096" clip-path="url(#clipPath2)"/>
      <path d="M387.4516 388.9714 L379.071 379.0333 L379.4497 384.8519 L374.4938 387.9242 Z" clip-path="url(#clipPath2)" stroke="none"/>
      <text x="207.4763" xml:space="preserve" y="355.1486" font-weight="bold" clip-path="url(#clipPath2)" stroke="none">1. Store Uberjar</text>
      <text x="201.4939" xml:space="preserve" y="369.1174" font-weight="bold" clip-path="url(#clipPath2)" stroke="none">and configuration</text>
      <path fill="none" d="M421.5 388.4707 L421.5 336.9957" clip-path="url(#clipPath2)" stroke="gray"/>
      <path fill="gray" d="M421.5 328.9957 L416.5 340.9957 L421.5 337.9957 L426.5 340.9957 Z" clip-path="url(#clipPath2)" stroke="none"/>
      <path fill="none" d="M453.1718 388.9189 L606.9806 303.5393" clip-path="url(#clipPath2)" stroke="gray"/>
      <path fill="gray" d="M613.9752 299.6566 L601.0566 301.109 L606.1063 304.0247 L605.91 309.8523 Z" clip-path="url(#clipPath2)" stroke="none"/>
      <path fill="none" d="M719.0037 270.5 L783.0085 270.5" clip-path="url(#clipPath2)"/>
      <path d="M791.0085 270.5 L779.0085 265.5 L782.0085 270.5 L779.0085 275.5 Z" clip-path="url(#clipPath2)" stroke="none"/>
      <path fill="none" d="M473.6061 389.7075 L783.3726 289.8775" clip-path="url(#clipPath2)" stroke="gray"/>
      <path fill="gray" d="M790.987 287.4236 L778.0318 286.3455 L782.4208 290.1843 L781.0992 295.8634 Z" clip-path="url(#clipPath2)" stroke="none"/>
      <text x="542.0724" xml:space="preserve" y="392.1359" font-weight="bold" clip-path="url(#clipPath2)" stroke="none">Always Bootstrap containers with</text>
      <text x="593.1105" xml:space="preserve" y="406.1046" font-weight="bold" clip-path="url(#clipPath2)" stroke="none">Uberjar and config</text>
    </g>
  </g>
</svg>
