<?xml version="1.0" encoding="UTF-8" standalone="no"?>
<svg
   xmlns:dc="http://purl.org/dc/elements/1.1/"
   xmlns:cc="http://creativecommons.org/ns#"
   xmlns:rdf="http://www.w3.org/1999/02/22-rdf-syntax-ns#"
   xmlns:svg="http://www.w3.org/2000/svg"
   xmlns="http://www.w3.org/2000/svg"
   xmlns:sodipodi="http://sodipodi.sourceforge.net/DTD/sodipodi-0.dtd"
   xmlns:inkscape="http://www.inkscape.org/namespaces/inkscape"
   version="1.0"
   width="347.85999mm"
   height="218.48mm"
   id="svg2985"
   inkscape:version="0.48.4 r9939"
   sodipodi:docname="JobManagerComponents.emf">
  <metadata
     id="metadata3049">
    <rdf:RDF>
      <cc:Work
         rdf:about="">
        <dc:format>image/svg+xml</dc:format>
        <dc:type
           rdf:resource="http://purl.org/dc/dcmitype/StillImage" />
        <dc:title></dc:title>
      </cc:Work>
    </rdf:RDF>
  </metadata>
  <sodipodi:namedview
     pagecolor="#ffffff"
     bordercolor="#666666"
     borderopacity="1"
     objecttolerance="10"
     gridtolerance="10"
     guidetolerance="10"
     inkscape:pageopacity="0"
     inkscape:pageshadow="2"
     inkscape:window-width="640"
     inkscape:window-height="480"
     id="namedview3047"
     showgrid="false"
     inkscape:zoom="0.2799019"
     inkscape:cx="616.28735"
     inkscape:cy="387.07086"
     inkscape:window-x="0"
     inkscape:window-y="0"
     inkscape:window-maximized="0"
     inkscape:current-layer="svg2985" />
  <defs
     id="defs2987" />
  <g
     id="g2989">
    <path
       style="fill:none;stroke:#85888d;stroke-width:2.5131261px;stroke-linecap:butt;stroke-linejoin:miter;stroke-miterlimit:4;stroke-dasharray:none;stroke-opacity:1;"
       d="  M 171.86782 222.43041   C 171.86782 204.61347 186.34642 190.17238 204.16336 190.17238   L 1058.4387 190.17238   C 1076.2556 190.17238 1090.7342 204.61347 1090.7342 222.43041   L 1090.7342 417.36648   C 1090.7342 435.18342 1076.2556 449.62451 1058.4387 449.62451   L 204.16336 449.62451   C 186.34642 449.62451 171.86782 435.18342 171.86782 417.36648   z"
       id="path2991" />
    <text
       xml:space="preserve"
       x="541.19354"
       y="229.53858"
       style="font-size:30.007475px;fill:#000000;font-style:normal;font-weight:normal;text-align:start;text-anchor:start;font-family:Verdana;"
       id="text2993">JobManager</text>
    <path
       style="fill:none;stroke:#85888d;stroke-width:2.4943714px;stroke-linecap:butt;stroke-linejoin:miter;stroke-miterlimit:4;stroke-dasharray:none;stroke-opacity:1;"
       d="  M 451.19991 302.98173   C 451.19991 292.57289 459.63951 284.13328 470.04835 284.13328   L 580.92597 284.13328   C 591.33482 284.13328 599.77442 292.57289 599.77442 302.98173   L 599.77442 390.9599   C 599.77442 401.36874 591.33482 409.80834 580.92597 409.80834   L 470.04835 409.80834   C 459.63951 409.80834 451.19991 401.36874 451.19991 390.9599   z"
       id="path2995" />
    <text
       xml:space="preserve"
       x="463.50568"
       y="341.79134"
       style="font-size:25.056242px;fill:#000000;font-style:normal;font-weight:normal;text-align:start;text-anchor:start;font-family:Verdana;"
       id="text2997">InputSplit</text>
    <text
       xml:space="preserve"
       x="471.45766"
       y="371.79881"
       style="font-size:25.056242px;fill:#000000;font-style:normal;font-weight:normal;text-align:start;text-anchor:start;font-family:Verdana;"
       id="text2999">Manager</text>
    <path
       style="fill:none;stroke:#85888d;stroke-width:2.4943714px;stroke-linecap:butt;stroke-linejoin:miter;stroke-miterlimit:4;stroke-dasharray:none;stroke-opacity:1;"
       d="  M 261.85273 303.20679   C 261.85273 292.85421 270.25483 284.45211 280.60741 284.45211   L 406.90137 284.45211   C 417.25395 284.45211 425.65604 292.85421 425.65604 303.20679   L 425.65604 390.73484   C 425.65604 401.08742 417.25395 409.48951 406.90137 409.48951   L 280.60741 409.48951   C 270.25483 409.48951 261.85273 401.08742 261.85273 390.73484   z"
       id="path3001" />
    <text
       xml:space="preserve"
       x="281.46181"
       y="356.79504"
       style="font-size:25.056242px;fill:#000000;font-style:normal;font-weight:normal;text-align:start;text-anchor:start;font-family:Verdana;"
       id="text3003">Scheduler</text>
    <path
       style="fill:none;stroke:#85888d;stroke-width:2.5131261px;stroke-linecap:butt;stroke-linejoin:miter;stroke-miterlimit:4;stroke-dasharray:none;stroke-opacity:1;"
       d="  M 799.47417 302.88796   C 799.47417 292.53538 807.87626 284.13328 818.22884 284.13328   L 981.99464 284.13328   C 992.34722 284.13328 1000.7493 292.53538 1000.7493 302.88796   L 1000.7493 391.07243   C 1000.7493 401.42501 992.34722 409.8271 981.99464 409.8271   L 818.22884 409.8271   C 807.87626 409.8271 799.47417 401.42501 799.47417 391.07243   z"
       id="path3005" />
    <text
       xml:space="preserve"
       x="821.75091"
       y="341.79134"
       style="font-size:25.056242px;fill:#000000;font-style:normal;font-weight:normal;text-align:start;text-anchor:start;font-family:Verdana;"
       id="text3007">Accumulator</text>
    <text
       xml:space="preserve"
       x="846.05697"
       y="371.79881"
       style="font-size:25.056242px;fill:#000000;font-style:normal;font-weight:normal;text-align:start;text-anchor:start;font-family:Verdana;"
       id="text3009">Manager</text>
    <path
       style="fill:none;stroke:#85888d;stroke-width:2.5131261px;stroke-linecap:butt;stroke-linejoin:miter;stroke-miterlimit:4;stroke-dasharray:none;stroke-opacity:1;"
       d="  M 625.35579 303.22554   C 625.35579 292.87296 633.72038 284.47087 644.11046 284.47087   L 755.17563 284.47087   C 765.52821 284.47087 773.93031 292.87296 773.93031 303.22554   L 773.93031 390.73484   C 773.93031 401.08742 765.52821 409.48951 755.17563 409.48951   L 644.11046 409.48951   C 633.72038 409.48951 625.35579 401.08742 625.35579 390.73484   z"
       id="path3011" />
    <text
       xml:space="preserve"
       x="645.526"
       y="341.7913"
       style="font-size:25.056242px;fill:#000000;font-style:normal;font-weight:normal;text-align:start;text-anchor:start;font-family:Verdana;"
       id="text3013">Instance</text>
    <text
       xml:space="preserve"
       x="645.526"
       y="371.79878"
       style="font-size:25.056242px;fill:#000000;font-style:normal;font-weight:normal;text-align:start;text-anchor:start;font-family:Verdana;"
       id="text3015">Manager</text>
    <path
       style="fill:none;stroke:#85888d;stroke-width:2.5131261px;stroke-linecap:butt;stroke-linejoin:miter;stroke-miterlimit:4;stroke-dasharray:none;stroke-opacity:1;"
       d="  M 50.525087 641.14723   C 50.525087 620.92969 66.916671 604.53811 87.134207 604.53811   L 264.25333 604.53811   C 284.47087 604.53811 300.86245 620.92969 300.86245 641.14723   L 300.86245 733.34519   C 300.86245 753.56273 284.47087 769.95431 264.25333 769.95431   L 87.134207 769.95431   C 66.916671 769.95431 50.525087 753.56273 50.525087 733.34519   z"
       id="path3017" />
    <text
       xml:space="preserve"
       x="75.950859"
       y="699.16363"
       style="font-size:30.007475px;fill:#000000;font-style:normal;font-weight:normal;text-align:start;text-anchor:start;font-family:Verdana;"
       id="text3019">TaskManager</text>
    <path
       style="fill:none;stroke:#85888d;stroke-width:2.5131261px;stroke-linecap:butt;stroke-linejoin:miter;stroke-miterlimit:4;stroke-dasharray:none;stroke-opacity:1;"
       d="  M 360.31476 641.14723   C 360.31476 620.92969 376.70635 604.53811 396.92388 604.53811   L 573.78044 604.53811   C 593.99798 604.53811 610.38956 620.92969 610.38956 641.14723   L 610.38956 733.34519   C 610.38956 753.56273 593.99798 769.95431 573.78044 769.95431   L 396.92388 769.95431   C 376.70635 769.95431 360.31476 753.56273 360.31476 733.34519   z"
       id="path3021" />
    <text
       xml:space="preserve"
       x="385.60929"
       y="699.16363"
       style="font-size:30.007475px;fill:#000000;font-style:normal;font-weight:normal;text-align:start;text-anchor:start;font-family:Verdana;"
       id="text3023">TaskManager</text>
    <path
       style="fill:none;stroke:#85888d;stroke-width:2.5131261px;stroke-linecap:butt;stroke-linejoin:miter;stroke-miterlimit:4;stroke-dasharray:none;stroke-opacity:1;"
       d="  M 669.9544 641.14723   C 669.9544 620.92969 686.34599 604.53811 706.56352 604.53811   L 883.42008 604.53811   C 903.63762 604.53811 920.0292 620.92969 920.0292 641.14723   L 920.0292 733.34519   C 920.0292 753.56273 903.63762 769.95431 883.42008 769.95431   L 706.56352 769.95431   C 686.34599 769.95431 669.9544 753.56273 669.9544 733.34519   z"
       id="path3025" />
    <text
       xml:space="preserve"
       x="695.26142"
       y="699.16363"
       style="font-size:30.007475px;fill:#000000;font-style:normal;font-weight:normal;text-align:start;text-anchor:start;font-family:Verdana;"
       id="text3027">TaskManager</text>
    <path
       style="fill:none;stroke:#85888d;stroke-width:2.4756167px;stroke-linecap:butt;stroke-linejoin:miter;stroke-miterlimit:4;stroke-dasharray:none;stroke-opacity:1;"
       d="  M 979.66906 641.18474   C 979.66906 620.92969 996.02313 604.57561 1016.2032 604.57561   L 1193.0972 604.57561   C 1213.2773 604.57561 1229.7064 620.92969 1229.7064 641.18474   L 1229.7064 733.3827   C 1229.7064 753.56273 1213.2773 769.99182 1193.0972 769.99182   L 1016.2032 769.99182   C 996.02313 769.99182 979.66906 753.56273 979.66906 733.3827   z"
       id="path3029" />
    <text
       xml:space="preserve"
       x="1004.9137"
       y="699.16363"
       style="font-size:30.007475px;fill:#000000;font-style:normal;font-weight:normal;text-align:start;text-anchor:start;font-family:Verdana;"
       id="text3031">TaskManager</text>
    <path
       style="fill:#000000;fill-rule:nonzero;fill-opacity:1;stroke:#000000;stroke-width:0.037509345px;stroke-linecap:butt;stroke-linejoin:round;stroke-dasharray:none;stroke-opacity:1;"
       d="  M 234.28337 596.51111   L 238.93452 590.54712   L 247.56167 579.85696   L 256.33886 569.35434   L 265.19107 559.00176   L 274.23082 548.83673   L 283.42061 538.85924   L 292.72292 529.0318   L 302.17528 519.35438   L 311.77767 509.90203   L 321.49259 500.59971   L 331.35755 491.44743   L 341.37254 482.4827   L 351.50007 473.70551   L 361.81514 465.11587   L 372.24273 456.67627   L 377.90665 452.21266   L 381.77011 457.16389   L 376.1062 461.55248   L 376.14371 461.51497   L 365.75362 469.95458   L 365.79113 469.91707   L 355.55108 478.50671   L 355.58859 478.4692   L 345.49857 487.20888   L 345.53608 487.17137   L 335.5586 496.09859   L 335.59611 496.06108   L 325.76866 505.17585   L 325.80617 505.13834   L 316.09125 514.40315   L 316.12876 514.36564   L 306.60138 523.818   L 306.63889 523.74298   L 297.22405 533.38288   L 297.22405 533.34537   L 287.95924 543.13531   L 287.99675 543.0978   L 278.88198 553.03778   L 278.91949 553.00027   L 269.91724 563.12779   L 269.91724 563.09028   L 261.06504 573.40535   L 261.10255 573.36784   L 252.40038 583.83295   L 252.43789 583.79544   L 243.84825 594.44809   L 243.84825 594.41058   L 239.2346 600.33706   z  M 258.1018 593.2853   L 232.93303 603.33781   L 236.57144 576.48112   C 236.79649 574.7932 238.37188 573.5929 240.09731 573.81795   C 241.78523 574.04301 242.98553 575.6184 242.76048 577.34383   L 239.87226 598.83669   L 235.59619 595.53586   L 255.77622 587.47135   C 257.35161 586.83369 259.18957 587.62139 259.82723 589.19678   C 260.46489 590.80969 259.67719 592.61013 258.1018 593.2853   z  M 357.87666 454.53824   L 384.73335 450.86232   L 374.71835 476.03109   C 374.08069 477.60648 372.24273 478.39418 370.62983 477.75652   C 369.05444 477.11886 368.26674 475.31841 368.9044 473.70551   L 376.9314 453.52548   L 380.26973 457.76404   L 358.73937 460.72728   L 358.73937 460.72728   C 357.01394 460.95233 355.43855 459.75204 355.21349 458.06412   C 354.98844 456.33869 356.18874 454.76329 357.87666 454.53824   z"
       id="path3033" />
    <path
       style="fill:#000000;fill-rule:nonzero;fill-opacity:1;stroke:#000000;stroke-width:0.037509345px;stroke-linecap:butt;stroke-linejoin:round;stroke-dasharray:none;stroke-opacity:1;"
       d="  M 480.15712 596.8862   L 480.4947 592.79768   L 480.98232 587.6589   L 481.50746 582.55763   L 482.10761 577.49387   L 482.74526 572.43011   L 483.49545 567.40385   L 484.24564 562.3776   L 485.10835 557.38886   L 486.00858 552.43763   L 486.98382 547.5239   L 487.99657 542.57267   L 489.08434 537.69645   L 490.20962 532.85775   L 491.40992 528.01904   L 492.72275 523.18034   L 494.03558 518.37914   L 495.42342 513.61545   L 496.88629 508.88928   L 498.38666 504.1631   L 499.96205 499.47443   L 501.61246 494.78576   L 503.30038 490.17211   L 505.06332 485.52096   L 506.90128 480.94482   L 508.77675 476.36868   L 510.72723 471.79254   L 512.71523 467.29141   L 514.77824 462.79029   L 516.91628 458.32668   L 518.52918 455.02586   L 524.15558 457.76404   L 522.54268 461.06486   L 522.54268 461.02735   L 520.44216 465.45346   L 520.44216 465.41595   L 518.41665 469.87956   L 518.41665 469.84205   L 516.42866 474.34317   L 516.46616 474.26815   L 514.51568 478.80678   L 514.55319 478.76927   L 512.67772 483.3079   L 512.67772 483.27039   L 510.87727 487.80903   L 510.91478 487.77152   L 509.15184 492.34766   L 509.15184 492.31015   L 507.46392 496.9238   L 507.50143 496.88629   L 505.88853 501.53745   L 505.88853 501.46243   L 504.31314 506.11359   L 504.35065 506.11359   L 502.85027 510.76474   L 502.85027 510.72723   L 501.42492 515.45341   L 501.42492 515.4159   L 500.03707 520.14208   L 500.07458 520.10457   L 498.72424 524.83075   L 498.76175 524.79324   L 497.48644 529.59444   L 497.48644 529.51942   L 496.28614 534.32061   L 496.32365 534.2831   L 495.16086 539.12181   L 495.16086 539.0843   L 494.1106 543.923   L 494.1106 543.8855   L 493.09784 548.76171   L 493.09784 548.7242   L 492.16011 553.60042   L 492.16011 553.56291   L 491.25989 558.51414   L 491.25989 558.47663   L 490.43468 563.39035   L 490.43468 563.35285   L 489.64698 568.34159   L 489.64698 568.30408   L 488.93431 573.29282   L 488.97182 573.25531   L 488.29665 578.24406   L 488.29665 578.20655   L 487.73401 583.27031   L 487.73401 583.2328   L 487.20888 588.29656   L 487.20888 588.25905   L 486.72125 593.36032   L 486.72125 593.32281   L 486.42118 597.37382   z  M 498.08659 580.94473   L 482.85779 603.33781   L 470.89231 579.03175   C 470.10461 577.49387 470.74227 575.6184 472.28016 574.86821   C 473.85555 574.08052 475.73102 574.71818 476.4812 576.29357   L 476.4812 576.29357   L 486.0836 595.76092   L 480.71976 595.38583   L 492.9103 577.41885   C 493.88554 575.99349 495.83603 575.6184 497.26138 576.59364   C 498.68674 577.56889 499.06183 579.51937 498.08659 580.94473   z  M 501.42492 465.56598   L 524.11807 450.86232   L 525.76848 477.86905   C 525.88101 479.59448 524.56818 481.09485 522.84275 481.16987   C 521.11732 481.2824 519.65446 479.96957 519.54193 478.24414   L 518.2291 456.60125   L 523.0303 459.00185   L 504.80076 470.81729   C 503.3754 471.75503 501.42492 471.34242 500.48718 469.91707   C 499.54945 468.4542 499.96205 466.54123 501.42492 465.56598   z"
       id="path3035" />
    <path
       style="fill:#000000;fill-rule:nonzero;fill-opacity:1;stroke:#000000;stroke-width:0.037509345px;stroke-linecap:butt;stroke-linejoin:round;stroke-dasharray:none;stroke-opacity:1;"
       d="  M 780.19437 598.12401   L 779.40667 595.23579   L 779.40667 595.2733   L 778.16886 590.80969   L 778.20637 590.84719   L 776.89354 586.38358   L 776.89354 586.38358   L 775.54321 581.88246   L 775.58072 581.91997   L 774.15536 577.38134   L 774.15536 577.41885   L 772.6925 572.88022   L 772.6925 572.91773   L 771.15461 568.34159   L 771.19212 568.34159   L 769.57922 563.76545   L 769.61673 563.80296   L 767.96632 559.1518   L 767.96632 559.18931   L 766.2784 554.53815   L 766.2784 554.57566   L 764.51546 549.9245   L 764.51546 549.9245   L 762.71501 545.23583   L 762.71501 545.27334   L 760.83954 540.58467   L 760.83954 540.58467   L 758.92657 535.8585   L 758.92657 535.89601   L 756.93857 531.13232   L 756.93857 531.16983   L 754.91307 526.40614   L 754.91307 526.40614   L 752.81254 521.60494   L 752.81254 521.64245   L 750.637 516.84126   L 750.637 516.84126   L 748.42395 512.00255   L 748.42395 512.04006   L 746.17339 507.16385   L 746.17339 507.20136   L 743.84781 502.32514   L 743.84781 502.32514   L 741.44721 497.41142   L 741.44721 497.44893   L 739.00911 492.49769   L 739.00911 492.5352   L 736.49598 487.58397   L 736.49598 487.62148   L 733.94534 482.63274   L 733.94534 482.63274   L 731.31969 477.64399   L 731.31969 477.6815   L 728.65653 472.65525   L 728.65653 472.65525   L 725.91834 467.629   L 725.91834 467.629   L 723.10514 462.56524   L 723.14265 462.60275   L 720.40447 457.80155   L 725.84333 454.72578   L 728.58151 459.52698   L 731.39471 464.62825   L 734.13289 469.69201   L 736.83356 474.71826   L 739.49673 479.74452   L 742.08487 484.73326   L 744.598 489.722   L 747.07361 494.67324   L 749.47421 499.58696   L 751.8373 504.50068   L 754.12537 509.3769   L 756.33842 514.25311   L 758.51396 519.09182   L 760.652 523.93052   L 762.71501 528.73172   L 764.70301 533.49541   L 766.65349 538.25909   L 768.52896 542.98527   L 770.36692 547.71145   L 772.12986 552.40012   L 773.85529 557.05128   L 775.5057 561.70243   L 777.08109 566.31608   L 778.61897 570.92973   L 780.11935 575.50587   L 781.5447 580.08201   L 782.89504 584.62064   L 784.20787 589.12177   L 785.44567 593.62289   L 786.23337 596.51111   z  M 792.12234 577.26881   L 784.733 603.33781   L 765.71576 584.09551   C 764.47795 582.8577 764.51546 580.86971 765.71576 579.66941   C 766.95357 578.4316 768.94156 578.46911 770.14186 579.66941   L 785.40816 595.12326   L 780.19437 596.4736   L 786.12084 575.58089   C 786.57095 573.89297 788.29638 572.95524 789.9468 573.40535   C 791.63472 573.89297 792.57245 575.6184 792.12234 577.26881   z  M 719.80432 477.94407   L 720.06689 450.86232   L 743.51023 464.40319   L 743.51023 464.40319   C 744.97309 465.26591 745.49822 467.17889 744.63551 468.67926   C 743.77279 470.17963 741.85982 470.70476 740.35944 469.84205   L 721.56726 458.96434   L 726.25593 456.26367   L 726.03087 477.98158   C 726.03087 479.70701 724.60552 481.09485 722.88009 481.09485   C 721.15466 481.05734 719.76681 479.6695 719.80432 477.94407   z"
       id="path3037" />
    <path
       style="fill:#000000;fill-rule:nonzero;fill-opacity:1;stroke:#000000;stroke-width:0.037509345px;stroke-linecap:butt;stroke-linejoin:round;stroke-dasharray:none;stroke-opacity:1;"
       d="  M 1027.4185 601.16226   L 1022.4672 596.21103   L 1022.5047 596.24854   L 1012.8648 586.8712   L 1012.9023 586.90871   L 1002.9249 577.53138   L 1002.9624 577.56889   L 992.64729 568.15404   L 992.6848 568.19155   L 982.10717 558.7392   L 982.14468 558.77671   L 971.22946 549.32435   L 971.22946 549.36186   L 960.01416 539.872   L 960.05167 539.9095   L 948.49879 530.38213   L 948.5363 530.38213   L 936.64584 520.85476   L 936.68335 520.89227   L 924.49281 511.32738   L 924.53032 511.32738   L 912.03971 501.72499   L 912.07722 501.7625   L 899.24903 492.1226   L 899.28653 492.16011   L 886.15826 482.52021   L 886.15826 482.52021   L 872.72992 472.8428   L 872.72992 472.88031   L 858.96399 463.16539   L 859.0015 463.16539   L 849.99926 456.97634   L 853.56264 451.80005   L 862.56489 458.02661   L 876.36833 467.77904   L 889.83418 477.45645   L 902.99996 487.13386   L 915.82816 496.77376   L 928.35628 506.37615   L 940.58432 515.97854   L 952.47479 525.54343   L 964.02766 535.0708   L 975.28047 544.59817   L 986.2332 554.08804   L 996.88585 563.54039   L 1007.2009 572.95524   L 1017.1784 582.37008   L 1026.8558 591.74742   L 1031.8446 596.73616   z  M 1027.1184 577.15628   L 1034.0201 603.3003   L 1007.8386 596.43609   C 1006.1507 595.98598 1005.1754 594.29805 1005.6255 592.61013   C 1006.0381 590.95972 1007.7636 589.94697 1009.414 590.39708   L 1030.4192 595.91096   L 1026.5933 599.73691   L 1021.0794 578.73168   C 1020.6293 577.08127 1021.642 575.35584 1023.2924 574.90572   C 1024.9803 574.49312 1026.6683 575.46836 1027.1184 577.15628   z  M 858.17629 475.39343   L 846.69843 450.86232   L 873.66765 452.92534   L 873.66765 452.92534   C 875.39308 453.07537 876.6684 454.57575 876.55587 456.30118   C 876.40583 458.02661 874.90546 459.30192 873.18003 459.15189   L 851.53714 457.50148   L 854.61291 453.07537   L 863.8402 472.73027   C 864.55288 474.30566 863.87771 476.14362 862.33983 476.89381   C 860.76444 477.60648 858.88897 476.93132 858.17629 475.39343   z"
       id="path3039" />
    <path
       style="fill:#000000;fill-rule:nonzero;fill-opacity:1;stroke:#000000;stroke-width:0.037509345px;stroke-linecap:butt;stroke-linejoin:round;stroke-dasharray:none;stroke-opacity:1;"
       d="  M 308.55187 688.59655   L 357.46405 688.59655   L 357.46405 693.58529   L 308.55187 693.58529   z  M 322.28029 702.02489   L 303.60063 691.10967   L 322.28029 680.19445   C 323.48059 679.48178 325.01847 679.89438 325.69364 681.09468   C 326.40632 682.29498 325.99371 683.79535 324.79341 684.50803   L 309.78968 693.24771   L 309.78968 688.93413   L 324.79341 697.67381   C 325.99371 698.38649 326.40632 699.92437 325.69364 701.12467   C 325.01847 702.28746 323.48059 702.70006 322.28029 702.02489   z  M 343.73563 680.19445   L 362.4528 691.10967   L 343.73563 702.02489   C 342.53533 702.70006 340.99745 702.28746 340.32228 701.12467   C 339.60961 699.92437 340.02221 698.38649 341.22251 697.67381   L 356.22624 688.93413   L 356.22624 693.24771   L 341.22251 684.50803   C 340.02221 683.79535 339.60961 682.29498 340.32228 681.09468   C 340.99745 679.89438 342.53533 679.48178 343.73563 680.19445   z"
       id="path3041" />
    <path
       style="fill:#000000;fill-rule:nonzero;fill-opacity:1;stroke:#000000;stroke-width:0.037509345px;stroke-linecap:butt;stroke-linejoin:round;stroke-dasharray:none;stroke-opacity:1;"
       d="  M 617.40381 688.59655   L 666.316 688.59655   L 666.316 693.58529   L 617.40381 693.58529   z  M 631.13223 702.02489   L 612.45258 691.10967   L 631.13223 680.19445   C 632.33253 679.48178 633.87041 679.89438 634.54558 681.09468   C 635.25826 682.29498 634.84566 683.79535 633.64536 684.50803   L 618.64162 693.24771   L 618.64162 688.93413   L 633.64536 697.67381   C 634.84566 698.38649 635.25826 699.92437 634.54558 701.12467   C 633.87041 702.28746 632.33253 702.70006 631.13223 702.02489   z  M 652.58758 680.19445   L 671.26723 691.10967   L 652.58758 702.02489   C 651.38728 702.70006 649.84939 702.28746 649.17423 701.12467   C 648.46155 699.92437 648.87415 698.38649 650.07445 697.67381   L 665.07819 688.93413   L 665.07819 693.24771   L 650.07445 684.50803   C 648.87415 683.79535 648.46155 682.29498 649.17423 681.09468   C 649.84939 679.89438 651.38728 679.48178 652.58758 680.19445   z"
       id="path3043" />
    <path
       style="fill:#000000;fill-rule:nonzero;fill-opacity:1;stroke:#000000;stroke-width:0.037509345px;stroke-linecap:butt;stroke-linejoin:round;stroke-dasharray:none;stroke-opacity:1;"
       d="  M 926.25575 688.59655   L 975.16794 688.59655   L 975.16794 693.58529   L 926.25575 693.58529   z  M 939.98417 702.02489   L 921.26701 691.10967   L 939.98417 680.19445   C 941.18447 679.48178 942.72236 679.89438 943.39752 681.09468   C 944.1102 682.29498 943.6976 683.79535 942.4973 684.50803   L 927.49356 693.24771   L 927.49356 688.93413   L 942.4973 697.67381   C 943.6976 698.38649 944.1102 699.92437 943.39752 701.12467   C 942.72236 702.28746 941.18447 702.70006 939.98417 702.02489   z  M 961.43952 680.19445   L 980.11917 691.10967   L 961.43952 702.02489   C 960.23922 702.70006 958.70134 702.28746 957.98866 701.12467   C 957.31349 699.92437 957.72609 698.38649 958.88888 697.67381   L 973.89262 688.93413   L 973.89262 693.24771   L 958.88888 684.50803   C 957.72609 683.79535 957.31349 682.29498 957.98866 681.09468   C 958.70134 679.89438 960.23922 679.48178 961.43952 680.19445   z"
       id="path3045" />
  </g>
</svg>
