<?xml version="1.0" encoding="UTF-8" standalone="no"?>
<!-- Created with Inkscape (http://www.inkscape.org/) -->

<svg
   xmlns:dc="http://purl.org/dc/elements/1.1/"
   xmlns:cc="http://creativecommons.org/ns#"
   xmlns:rdf="http://www.w3.org/1999/02/22-rdf-syntax-ns#"
   xmlns:svg="http://www.w3.org/2000/svg"
   xmlns="http://www.w3.org/2000/svg"
   version="1.0"
   width="230.41mm"
   height="154.87mm"
   id="svg2985">
  <metadata
     id="metadata3079">
    <rdf:RDF>
      <cc:Work
         rdf:about="">
        <dc:format>image/svg+xml</dc:format>
        <dc:type
           rdf:resource="http://purl.org/dc/dcmitype/StillImage" />
        <dc:title></dc:title>
      </cc:Work>
    </rdf:RDF>
  </metadata>
  <defs
     id="defs2987" />
  <g
     id="g2989">
    <path
       d="m 146.66237,340.91829 c 0,-20.55261 16.68962,-37.20472 37.27974,-37.20472 20.59011,0 37.26098,16.65211 37.26098,37.20472 0,20.53386 -16.67087,37.18597 -37.26098,37.18597 -20.59012,0 -37.27974,-16.65211 -37.27974,-37.18597"
       id="path2991"
       style="fill:#5b9bd5;fill-opacity:1;fill-rule:evenodd;stroke:none" />
    <path
       d="m 146.66237,340.91829 c 0,-20.55261 16.68962,-37.20472 37.27974,-37.20472 20.59011,0 37.26098,16.65211 37.26098,37.20472 0,20.53386 -16.67087,37.18597 -37.26098,37.18597 -20.59012,0 -37.27974,-16.65211 -37.27974,-37.18597"
       id="path2993"
       style="fill:none;stroke:#41719c;stroke-width:1.25640953px;stroke-linecap:butt;stroke-linejoin:miter;stroke-miterlimit:4;stroke-opacity:1;stroke-dasharray:none" />
    <text
       x="148.53239"
       y="346.52737"
       id="text2995"
       xml:space="preserve"
       style="font-size:15.00190544px;font-style:normal;font-weight:normal;text-align:start;text-anchor:start;fill:#000000;font-family:Arial">CREATED</text>
    <path
       d="m 321.52833,238.17399 c 0,-20.59011 16.68962,-37.27973 37.27973,-37.27973 20.59012,0 37.26098,16.68962 37.26098,37.27973 0,20.57137 -16.67086,37.26099 -37.26098,37.26099 -20.59011,0 -37.27973,-16.68962 -37.27973,-37.26099"
       id="path2997"
       style="fill:#5b9bd5;fill-opacity:1;fill-rule:evenodd;stroke:none" />
    <path
       d="m 321.52833,238.17399 c 0,-20.59011 16.68962,-37.27973 37.27973,-37.27973 20.59012,0 37.26098,16.68962 37.26098,37.27973 0,20.57137 -16.67086,37.26099 -37.26098,37.26099 -20.59011,0 -37.27973,-16.68962 -37.27973,-37.26099"
       id="path2999"
       style="fill:none;stroke:#41719c;stroke-width:1.25640953px;stroke-linecap:butt;stroke-linejoin:miter;stroke-miterlimit:4;stroke-opacity:1;stroke-dasharray:none" />
    <text
       x="335.59247"
       y="234.72913"
       id="text3001"
       xml:space="preserve"
       style="font-size:15.00190544px;font-style:normal;font-weight:normal;text-align:start;text-anchor:start;fill:#000000;font-family:Arial">SCHE</text>
    <text
       x="377.29776"
       y="234.72913"
       id="text3003"
       xml:space="preserve"
       style="font-size:15.00190544px;font-style:normal;font-weight:normal;text-align:start;text-anchor:start;fill:#000000;font-family:Arial">-</text>
    <text
       x="333.49219"
       y="252.73141"
       id="text3005"
       xml:space="preserve"
       style="font-size:15.00190544px;font-style:normal;font-weight:normal;text-align:start;text-anchor:start;fill:#000000;font-family:Arial">DULED</text>
    <path
       d="m 295.91258,509.1459 c 0,-20.59011 16.68961,-37.27973 37.26098,-37.27973 20.59011,0 37.27973,16.68962 37.27973,37.27973 0,20.57136 -16.68962,37.26098 -37.27973,37.26098 -20.57137,0 -37.26098,-16.68962 -37.26098,-37.26098"
       id="path3007"
       style="fill:#5b9bd5;fill-opacity:1;fill-rule:evenodd;stroke:none" />
    <path
       d="m 294.07484,511.09615 -0.0375,-1.95025 0.0563,-2.02526 0.15002,-1.98775 0.24378,-1.95025 0.33755,-1.91274 0.41255,-1.78147 3.65671,0.8251 -0.3938,1.74397 0.0188,-0.0938 -0.33755,1.83773 0.0188,-0.11251 -0.22503,1.87524 0,-0.0938 -0.15002,1.89399 0,-0.0938 -0.0375,1.91275 0,-0.075 0.0375,1.91274 -3.75048,0.075 z m 2.3628,-15.45196 0.67509,-1.74397 0.7876,-1.74398 0.86261,-1.66896 0.93762,-1.63145 1.01263,-1.59396 1.10639,-1.53769 0.28128,-0.37505 2.96288,2.30654 -0.26254,0.33755 0.0375,-0.075 -1.03138,1.46268 0.0563,-0.075 -0.97513,1.51895 0.0563,-0.0563 -0.90012,1.55645 0.0375,-0.0938 -0.82511,1.61271 0.0375,-0.0938 -0.7501,1.65021 0.0375,-0.0938 -0.65633,1.70647 -3.48795,-1.36892 z m 8.21355,-13.29544 0.84385,-0.88136 1.36893,-1.31267 1.42518,-1.2189 1.48144,-1.16265 1.51894,-1.08764 1.59395,-1.01263 1.01263,-0.58132 1.85648,3.24416 -0.95637,0.56257 0.075,-0.0563 -1.50019,0.97513 0.0563,-0.0375 -1.46269,1.03138 0.075,-0.0563 -1.40643,1.10639 0.075,-0.0563 -1.36892,1.16265 0.075,-0.0563 -1.29391,1.23766 0.0562,-0.075 -0.80635,0.86261 -2.71909,-2.58783 z m 12.73286,-9.0199 0.56257,-0.26253 1.78148,-0.69384 1.81898,-0.61883 1.85649,-0.52506 1.89399,-0.43131 1.91274,-0.33754 1.53769,-0.20628 0.48757,3.71297 -1.50019,0.20628 0.0938,-0.0188 -1.81898,0.31879 0.075,-0.0188 -1.80023,0.41255 0.0938,-0.0188 -1.76272,0.50631 0.075,-0.0188 -1.72522,0.58132 0.0938,-0.0375 -1.68772,0.65633 0.075,-0.0375 -0.50631,0.24378 -1.55645,-3.41294 z m 15.30194,-3.31917 0.48757,-0.0188 2.02525,0.0563 1.98776,0.15002 1.95024,0.26253 1.9315,0.33754 1.89399,0.43131 1.38768,0.3938 -1.03138,3.60045 -1.35018,-0.37504 0.11252,0.0188 -1.80023,-0.41255 0.075,0.0188 -1.83773,-0.31879 0.0938,0.0188 -1.85649,-0.24378 0.0938,0.0188 -1.89399,-0.15002 0.11252,0 -1.9315,-0.0563 0.0938,0 -0.45005,0.0188 -0.0938,-3.75048 z m 15.37696,2.92537 0.35629,0.13127 1.72522,0.7876 1.70647,0.88136 1.63146,0.93762 1.5752,1.01263 1.53769,1.08764 1.48144,1.16265 0.11251,0.0938 -2.43781,2.85036 -0.0938,-0.075 0.075,0.0563 -1.40643,-1.10639 0.075,0.0563 -1.46268,-1.03138 0.0562,0.0375 -1.50019,-0.97513 0.075,0.0563 -1.55644,-0.90011 0.075,0.0375 -1.6127,-0.8251 0.0938,0.0375 -1.65021,-0.75009 0.075,0.0375 -0.31879,-0.11251 1.38768,-3.48795 z m 13.0329,8.75737 1.06889,1.12514 1.2189,1.42518 1.16265,1.48144 1.08764,1.53769 1.01263,1.59396 0.95637,1.63145 0.37505,0.71259 -3.33793,1.72522 -0.35629,-0.69384 0.0375,0.0938 -0.90011,-1.55645 0.0562,0.0563 -0.97512,-1.51895 0.0563,0.075 -1.05014,-1.46268 0.0563,0.075 -1.10639,-1.40643 0.0563,0.075 -1.16265,-1.35017 0.0563,0.0563 -1.03138,-1.08764 2.71909,-2.58782 z m 8.49483,13.08916 0.3563,0.90011 0.61883,1.81898 0.52506,1.85649 0.43131,1.91274 0.35629,1.91274 0.24378,1.95025 0.0938,1.12515 -3.75047,0.30003 -0.075,-1.08763 0,0.0938 -0.22503,-1.87524 0.0188,0.11251 -0.33754,-1.83773 0.0188,0.0938 -0.41255,-1.81898 0.0188,0.11252 -0.50631,-1.76273 0.0375,0.075 -0.58132,-1.74397 0.0375,0.0938 -0.33754,-0.84386 3.46919,-1.38767 z m 2.7191,15.41446 -0.0375,0.97512 -0.15002,1.969 -0.24378,1.95025 -0.35629,1.93149 -0.43131,1.89399 -0.52506,1.87524 -0.33755,0.99388 -3.5442,-1.20016 0.31879,-0.95637 -0.0375,0.075 0.50631,-1.76272 -0.0188,0.0938 0.41255,-1.80023 -0.0188,0.0938 0.33754,-1.83773 -0.0188,0.0938 0.22503,-1.87524 0,0.0938 0.15002,-1.87524 -0.0188,0.0938 0.0375,-0.91887 3.75048,0.0938 z m -3.5442,15.24568 -0.30004,0.67509 -0.86261,1.68771 -0.95637,1.63146 -1.01263,1.59395 -1.08764,1.5377 -1.16265,1.48143 -1.05013,1.21891 -2.83161,-2.45656 1.01263,-1.1814 -0.0563,0.0562 1.10639,-1.40642 -0.0563,0.075 1.05014,-1.46269 -0.0563,0.075 0.97512,-1.50019 -0.0562,0.0563 0.90011,-1.55645 -0.0375,0.0938 0.8251,-1.6127 -0.0375,0.075 0.28128,-0.63758 3.41294,1.55645 z m -9.18867,12.62035 -0.075,0.0563 -1.42518,1.23766 -1.48144,1.16265 -1.53769,1.08763 -1.5752,1.01263 -1.65021,0.93762 -1.68772,0.88136 -0.4313,0.18753 -1.5377,-3.41294 0.3938,-0.18752 -0.0938,0.0563 1.6127,-0.82511 -0.075,0.0375 1.55644,-0.90012 -0.075,0.0375 1.51895,-0.95637 -0.0938,0.0375 1.46269,-1.03138 -0.0563,0.0563 1.40643,-1.10639 -0.075,0.0562 1.36893,-1.1814 -0.075,0.0563 0.0375,-0.0187 2.58783,2.71909 z m -13.50171,8.04478 -1.25641,0.41255 -1.85649,0.54382 -1.89399,0.4313 -1.9315,0.33754 -1.95024,0.24379 -1.98776,0.16877 -0.69383,0.0187 -0.0938,-3.75048 0.63758,-0.0187 -0.0938,0 1.89399,-0.15002 -0.0938,0.0188 1.85649,-0.24378 -0.0938,0.0188 1.83773,-0.3188 -0.075,0 1.80023,-0.41255 -0.11252,0.0375 1.78148,-0.50632 -0.075,0.0188 1.20015,-0.41256 1.20016,3.56296 z m -15.50822,2.08151 -1.38768,-0.11251 -1.95025,-0.24379 -1.93149,-0.33754 -1.89399,-0.4313 -1.85649,-0.54382 -1.81898,-0.60008 -0.65633,-0.26253 1.38767,-3.48794 0.60008,0.24378 -0.0938,-0.0375 1.72522,0.58133 -0.075,-0.0188 1.76272,0.50632 -0.0938,-0.0375 1.80023,0.41255 -0.075,0 1.83773,0.3188 -0.11251,-0.0188 1.87523,0.24378 -0.0938,-0.0188 1.35017,0.11252 -0.30003,3.73172 z m -15.07692,-4.12552 -0.97512,-0.50632 -1.63146,-0.93762 -1.59395,-1.01263 -1.51894,-1.08763 -1.48144,-1.16265 -1.42518,-1.23766 -0.93762,-0.88136 2.58783,-2.7191 0.90011,0.84386 -0.075,-0.0563 1.36892,1.1814 -0.075,-0.0562 1.40643,1.10639 -0.075,-0.0563 1.46269,1.03138 -0.075,-0.0375 1.51894,0.95637 -0.075,-0.0375 1.55645,0.90012 -0.075,-0.0563 0.91887,0.48756 -1.70647,3.33793 z m -12.2453,-9.71374 -0.26254,-0.30004 -1.16264,-1.48143 -1.08764,-1.5377 -1.03138,-1.59395 -0.93762,-1.63146 -0.86261,-1.68771 -0.7876,-1.74397 -0.0563,-0.11252 3.5067,-1.36892 0.0188,0.075 -0.0375,-0.0938 0.7501,1.6502 -0.0375,-0.075 0.82511,1.59395 -0.0375,-0.0563 0.88137,1.55645 -0.0563,-0.0938 0.97512,1.51894 -0.0375,-0.075 1.03138,1.46269 -0.0375,-0.075 1.10639,1.40642 -0.0563,-0.0562 0.24378,0.28128 -2.85036,2.43781 z m -7.50096,-13.783 -0.46881,-1.65021 -0.45005,-1.89399 -0.33755,-1.91274 -0.26253,-1.969 -0.13127,-1.95025 3.73173,-0.26253 0.15002,1.89399 -0.0188,-0.11252 0.24379,1.87524 -0.0188,-0.0938 0.33755,1.83773 -0.0188,-0.0938 0.41256,1.80023 -0.0188,-0.0938 0.45006,1.59395 -3.60046,1.03138 z"
       id="path3009"
       style="fill:#000000;fill-opacity:1;fill-rule:nonzero;stroke:#000000;stroke-width:0.01875238px;stroke-linecap:butt;stroke-linejoin:round;stroke-opacity:1;stroke-dasharray:none" />
    <text
       x="300.41989"
       y="505.78619"
       id="text3011"
       xml:space="preserve"
       style="font-size:15.00190544px;font-style:normal;font-weight:normal;text-align:start;text-anchor:start;fill:#000000;font-family:Arial">CANCEL</text>
    <text
       x="361.32761"
       y="505.78619"
       id="text3013"
       xml:space="preserve"
       style="font-size:15.00190544px;font-style:normal;font-weight:normal;text-align:start;text-anchor:start;fill:#000000;font-family:Arial">-</text>
    <text
       x="322.77271"
       y="523.78845"
       id="text3015"
       xml:space="preserve"
       style="font-size:15.00190544px;font-style:normal;font-weight:normal;text-align:start;text-anchor:start;fill:#000000;font-family:Arial">ED</text>
    <path
       d="m 681.76157,143.15568 c 0,-20.59012 16.65212,-37.27974 37.16722,-37.27974 20.55261,0 37.20472,16.68962 37.20472,37.27974 0,20.59011 -16.65211,37.27973 -37.20472,37.27973 -20.5151,0 -37.16722,-16.68962 -37.16722,-37.27973"
       id="path3017"
       style="fill:#5b9bd5;fill-opacity:1;fill-rule:evenodd;stroke:none" />
    <path
       d="m 679.92384,145.14343 -0.0375,-1.98775 0.0375,-2.02526 0.15002,-1.95025 0.26253,-1.98775 0.33754,-1.91274 0.41256,-1.76273 3.63796,0.82511 -0.37505,1.72522 0,-0.075 -0.33754,1.83773 0.0375,-0.11251 -0.26253,1.87524 0.0375,-0.11252 -0.15002,1.91274 0,-0.11251 -0.0375,1.91274 0,-0.075 0.0375,1.91275 -3.75047,0.11251 z m 2.32529,-15.41446 0,-0.0375 0.71259,-1.76273 0.7501,-1.72521 0.86261,-1.68772 0.93762,-1.65021 1.05013,-1.5752 1.08764,-1.53769 0.30004,-0.37505 2.92537,2.32529 -0.26253,0.33755 0.0375,-0.075 -1.01263,1.46268 0.0375,-0.075 -0.97513,1.50019 0.075,-0.075 -0.90011,1.5377 0.0375,-0.075 -0.8251,1.61271 0.0375,-0.075 -0.75009,1.65021 0.0375,-0.075 -0.67508,1.68771 0.0375,-0.075 0,0 -3.52545,-1.23766 z m 8.21355,-13.35169 0.86261,-0.90012 1.35017,-1.27516 1.42518,-1.23766 1.46268,-1.16264 1.5377,-1.08764 1.5752,-1.05013 1.01263,-0.56258 1.87524,3.26292 -0.97513,0.56257 0.075,-0.075 -1.50019,0.97512 0.075,-0.0375 -1.46269,1.05013 0.075,-0.075 -1.38767,1.12515 0.0375,-0.075 -1.35017,1.16264 0.075,-0.0375 -1.27516,1.23766 0.0375,-0.075 -0.7876,0.86261 -2.73784,-2.58783 z m 12.75162,-9.03865 0.52506,-0.26253 1.76273,-0.67509 1.83773,-0.63758 1.83773,-0.52507 1.87524,-0.41255 1.95025,-0.33754 1.53769,-0.22503 0.48757,3.71297 -1.5002,0.22503 0.075,-0.0375 -1.83773,0.33755 0.11252,-0.0375 -1.80023,0.41256 0.075,0 -1.76273,0.48756 0.075,0 -1.72522,0.56257 0.11252,-0.0375 -1.68772,0.67509 0.075,-0.0375 -0.48756,0.22503 -1.53769,-3.41293 z m 15.26443,-3.30042 0.45006,-0.0375 2.02526,0.075 1.98775,0.15001 1.95025,0.26254 1.91274,0.33754 1.91274,0.41255 1.42518,0.41256 -1.01262,3.60045 -1.42518,-0.37504 0.11251,0 -1.80023,-0.41256 0.075,0.0375 -1.80023,-0.33755 0.075,0.0375 -1.83773,-0.26253 0.075,0.0375 -1.87524,-0.15002 0.075,0 -1.91274,-0.075 0.11251,0 -0.41255,0.0375 -0.11252,-3.75048 z m 15.37696,2.92537 0.30003,0.11252 1.72522,0.7876 1.68772,0.90011 1.65021,0.93762 1.5752,1.01263 1.53769,1.08764 1.46269,1.16264 0.18752,0.15002 -2.47531,2.85037 -0.15002,-0.15002 0.075,0.075 -1.38768,-1.12515 0.075,0.075 -1.46268,-1.05013 0.075,0.0375 -1.5002,-0.93762 0.075,0.0375 -1.5752,-0.90011 0.075,0.0375 -1.5752,-0.8251 0.075,0.0375 -1.65021,-0.7501 0.075,0.0375 -0.26253,-0.11251 1.38768,-3.48795 z m 13.01415,8.81362 1.01263,1.05013 1.20015,1.42519 1.16265,1.50019 1.08764,1.53769 1.01262,1.5752 0.93762,1.65021 0.45006,0.82511 -3.37543,1.68771 -0.37505,-0.7876 0.0375,0.075 -0.90012,-1.5377 0.0375,0.075 -0.93762,-1.50019 0.0375,0.075 -1.05013,-1.46268 0.075,0.075 -1.12514,-1.42518 0.0375,0.075 -1.16264,-1.38768 0.075,0.075 -0.97512,-1.01263 2.73785,-2.58783 z m 8.43857,13.12667 0.33754,0.7876 0.60008,1.83773 0.52507,1.83774 0.45005,1.91274 0.33755,1.91274 0.22502,1.95025 0.11252,1.23766 -3.75048,0.30003 -0.075,-1.20015 0,0.11252 -0.22503,-1.87524 0,0.11251 -0.33754,-1.83773 0.0375,0.075 -0.41256,-1.80023 0.0375,0.075 -0.52507,-1.76272 0.0375,0.11251 -0.60008,-1.72522 0.0375,0.075 -0.30004,-0.7501 3.48794,-1.38767 z m 2.66284,15.41446 0,0.86261 -0.15002,1.98775 -0.26253,1.95025 -0.33755,1.91274 -0.45005,1.91274 -0.52507,1.87524 -0.37505,1.08764 -3.56295,-1.20016 0.37505,-1.05013 -0.0375,0.075 0.52507,-1.76272 -0.0375,0.11251 0.41256,-1.83773 -0.0375,0.11251 0.33754,-1.83773 0,0.075 0.22503,-1.87524 0,0.11251 0.15002,-1.87523 0,0.075 0,-0.7876 3.75048,0.075 z m -3.56295,15.22693 -0.26254,0.60008 -0.86261,1.68771 -0.93762,1.6127 -1.01262,1.61271 -1.08764,1.53769 -1.16265,1.46269 -1.12514,1.31267 -2.85037,-2.43781 1.12515,-1.27516 -0.075,0.075 1.12514,-1.42519 -0.075,0.075 1.05013,-1.46268 -0.0375,0.075 0.93762,-1.50019 -0.0375,0.075 0.90012,-1.5752 -0.0375,0.075 0.82511,-1.61271 -0.0375,0.11252 0.22503,-0.56258 3.41294,1.5377 z m -9.30119,12.67661 -1.31266,1.16265 -1.46269,1.16264 -1.53769,1.08764 -1.5752,1.01263 -1.65021,0.93762 -1.68772,0.86261 -0.56257,0.26253 -1.53769,-3.41293 0.52506,-0.26253 -0.075,0.075 1.5752,-0.82511 -0.075,0.0375 1.5752,-0.90012 -0.075,0.0375 1.5002,-0.97513 -0.075,0.075 1.46268,-1.05013 -0.075,0.0375 1.38768,-1.08763 -0.075,0.0375 1.31267,-1.08764 2.4378,2.81286 z m -13.4267,7.95101 -1.12514,0.37505 -1.83774,0.52506 -1.91274,0.45006 -1.91274,0.33754 -1.95025,0.22503 -1.98775,0.18753 -0.86261,0 -0.075,-3.75048 0.7876,0 -0.11252,0 1.91275,-0.15002 -0.11252,0 1.87524,-0.22503 -0.075,0 1.80023,-0.30004 -0.075,0 1.80023,-0.41255 -0.11251,0.0375 1.76272,-0.52507 -0.075,0.0375 1.08764,-0.37504 1.20015,3.56295 z m -15.52697,2.02526 -1.20015,-0.11252 -1.95025,-0.22503 -1.95025,-0.33754 -1.87524,-0.45006 -1.83773,-0.52506 -1.83773,-0.60008 -0.82511,-0.33754 1.38768,-3.48795 0.7876,0.30004 -0.11252,-0.0375 1.72522,0.60007 -0.075,-0.0375 1.76273,0.52507 -0.075,-0.0375 1.80023,0.41255 -0.11252,-0.0375 1.83773,0.33754 -0.075,0 1.83774,0.22503 -0.075,0 1.16265,0.075 -0.30004,3.75048 z m -15.03941,-4.20054 -0.7876,-0.41255 -1.65021,-0.93762 -1.5752,-1.01263 -1.5377,-1.08764 -1.46268,-1.16264 -1.42518,-1.23766 -1.08764,-1.05013 2.58783,-2.70035 1.05013,1.01263 -0.075,-0.075 1.35017,1.16265 -0.0375,-0.0375 1.38767,1.08763 -0.075,-0.0375 1.46269,1.01263 -0.075,-0.0375 1.50019,0.97513 -0.075,-0.0375 1.5752,0.90012 -0.075,-0.0375 0.71259,0.37505 -1.68771,3.33792 z m -12.18905,-9.78874 -0.11251,-0.15002 -1.16265,-1.46269 -1.12514,-1.53769 -1.01263,-1.61271 -0.90012,-1.6127 -0.90011,-1.68771 -0.7501,-1.72522 -0.15002,-0.33755 3.48795,-1.38767 0.11251,0.30004 -0.0375,-0.075 0.75009,1.65021 -0.0375,-0.11252 0.8251,1.61271 -0.0375,-0.075 0.90011,1.5752 -0.075,-0.075 0.97513,1.50019 -0.0375,-0.075 1.01263,1.46268 -0.0375,-0.075 1.12514,1.42519 -0.075,-0.075 0.11251,0.11251 -2.85036,2.43781 z m -7.42594,-13.83926 -0.37505,-1.42518 -0.45006,-1.87524 -0.33754,-1.95024 -0.26253,-1.95025 -0.15002,-1.95025 3.75047,-0.26253 0.15002,1.87523 -0.0375,-0.075 0.26253,1.83773 -0.0375,-0.075 0.33754,1.83773 -0.0375,-0.11251 0.45006,1.80023 -0.0375,-0.075 0.37504,1.35017 -3.60045,1.05013 z"
       id="path3019"
       style="fill:#000000;fill-opacity:1;fill-rule:nonzero;stroke:#000000;stroke-width:0.03750476px;stroke-linecap:butt;stroke-linejoin:round;stroke-opacity:1;stroke-dasharray:none" />
    <text
       x="693.01093"
       y="148.82382"
       id="text3021"
       xml:space="preserve"
       style="font-size:15.00190544px;font-style:normal;font-weight:normal;text-align:start;text-anchor:start;fill:#000000;font-family:Arial">FAILED</text>
    <path
       d="m 213.98342,303.26351 3.76923,-6.82587 3.86299,-6.75086 1.969,-3.31917 2.04401,-3.26291 2.10027,-3.22541 2.17527,-3.1129 2.25029,-3.03788 2.34405,-2.94413 2.43781,-2.8316 2.56907,-2.70035 2.68159,-2.58783 2.83161,-2.41905 2.96288,-2.28779 3.11289,-2.10027 3.26292,-1.91274 3.41293,-1.76273 3.56295,-1.59395 3.67547,-1.42518 3.80673,-1.31267 3.88175,-1.16265 3.99425,-1.06888 4.08802,-0.93762 4.16303,-0.88136 4.21929,-0.76885 4.27554,-0.71259 4.3318,-0.67509 8.73861,-1.20015 6.97589,-0.86261 0.22503,1.85649 -6.95714,0.88136 0,-0.0188 -8.71986,1.20015 0,0 -4.31304,0.65633 0.0188,0 -4.25679,0.71259 0.0188,0 -4.20053,0.7876 0.0188,-0.0188 -4.14428,0.86261 0.0188,0 -4.05052,0.95637 0.0188,-0.0188 -3.95675,1.05013 0.0188,0 -3.86299,1.16265 0.0375,-0.0188 -3.75048,1.29391 0.0375,0 -3.63797,1.40643 0.0375,-0.0188 -3.52545,1.5752 0.0563,-0.0187 -3.37543,1.72522 0.0563,-0.0188 -3.22541,1.89399 0.0375,-0.0375 -3.05664,2.06276 0.0375,-0.0188 -2.90662,2.23153 0.0375,-0.0375 -2.77536,2.4003 0.0375,-0.0375 -2.66284,2.55032 0.0375,-0.0375 -2.53157,2.68159 0.0188,-0.0375 -2.41906,2.81286 0.0375,-0.0375 -2.32529,2.92538 0.0188,-0.0375 -2.23153,3.01913 0.0188,-0.0375 -2.15652,3.1129 0,-0.0188 -2.08152,3.18791 0,-0.0187 -2.02526,3.24416 0.0188,0 -1.969,3.30042 0,-0.0188 -3.84424,6.73211 0.0188,0 -3.76923,6.82587 z m 91.99918,-67.02101 9.46996,4.03176 -8.19479,6.24454 c -0.41256,0.31879 -0.99388,0.24378 -1.31267,-0.16877 -0.30004,-0.41255 -0.22503,-0.99387 0.18752,-1.31266 l 6.90088,-5.26942 0.20628,1.6127 -7.98852,-3.41293 c -0.48756,-0.20628 -0.69384,-0.76885 -0.50631,-1.23766 0.20627,-0.48756 0.76884,-0.69384 1.23765,-0.48756 z"
       id="path3023"
       style="fill:#000000;fill-opacity:1;fill-rule:nonzero;stroke:#000000;stroke-width:0.01875238px;stroke-linecap:butt;stroke-linejoin:round;stroke-opacity:1;stroke-dasharray:none" />
    <path
       d="m 217.90267,373.6412 8.32606,6.91962 8.2698,6.88213 4.06926,3.43168 4.01301,3.41294 3.95676,3.41293 3.90049,3.35668 3.80673,3.35667 3.71298,3.31917 3.61921,3.30042 3.50669,3.24417 3.39418,3.22541 3.26292,3.16915 3.11289,3.13165 2.96288,3.09414 2.81285,3.03788 2.66284,3.00038 2.51282,2.94413 2.38155,2.90662 2.26904,2.86911 2.15653,2.83161 2.04401,2.81286 1.95024,2.7566 1.87524,2.7566 1.80023,2.71909 1.74397,2.70035 1.68772,2.68159 3.26291,5.34443 2.21278,3.69422 -1.59395,0.95637 -2.23153,-3.69422 0,0.0188 -3.24417,-5.32568 0,0 -1.68771,-2.66283 0,0 -1.72522,-2.68159 0,0 -1.78148,-2.70035 0,0 -1.85648,-2.73785 0,0.0188 -1.95025,-2.7566 0.0188,0 -2.04401,-2.79411 0.0188,0.0187 -2.13778,-2.81285 0,0.0188 -2.25028,-2.86911 0,0.0188 -2.3628,-2.88787 0,0.0188 -2.49407,-2.94412 0.0188,0.0188 -2.64408,-2.98163 0,0.0188 -2.79411,-3.03789 0.0188,0.0188 -2.96288,-3.07539 0.0187,0.0187 -3.11289,-3.13164 0.0188,0.0188 -3.24416,-3.16915 0,0 -3.37543,-3.20666 0,0 -3.5067,-3.24416 0.0188,0 -3.61921,-3.28167 0,0 -3.71298,-3.30042 0,0 -3.78798,-3.35667 0,0.0188 -3.88174,-3.37543 0,0 -3.95675,-3.39418 0,0.0187 -4.01301,-3.41293 0,0 -4.06927,-3.43169 0,0 -8.23229,-6.88212 -8.32606,-6.91963 z m 91.30534,88.09868 0.15002,10.29506 -9.03864,-4.95063 c -0.45006,-0.24378 -0.61883,-0.8251 -0.3563,-1.27516 0.24378,-0.45006 0.80635,-0.61883 1.25641,-0.37505 l 7.63222,4.18178 -1.40643,0.82511 -0.11251,-8.68236 c 0,-0.50631 0.41255,-0.93761 0.93761,-0.93761 0.50632,-0.0188 0.93762,0.3938 0.93762,0.91886 z"
       id="path3025"
       style="fill:#000000;fill-opacity:1;fill-rule:nonzero;stroke:#000000;stroke-width:0.01875238px;stroke-linecap:butt;stroke-linejoin:round;stroke-opacity:1;stroke-dasharray:none" />
    <path
       d="m 451.38857,238.17399 c 0,-20.59011 16.68962,-37.27973 37.27973,-37.27973 20.59012,0 37.26098,16.68962 37.26098,37.27973 0,20.57137 -16.67086,37.26099 -37.26098,37.26099 -20.59011,0 -37.27973,-16.68962 -37.27973,-37.26099"
       id="path3027"
       style="fill:#5b9bd5;fill-opacity:1;fill-rule:evenodd;stroke:none" />
    <path
       d="m 451.38857,238.17399 c 0,-20.59011 16.68962,-37.27973 37.27973,-37.27973 20.59012,0 37.26098,16.68962 37.26098,37.27973 0,20.57137 -16.67086,37.26099 -37.26098,37.26099 -20.59011,0 -37.27973,-16.68962 -37.27973,-37.26099"
       id="path3029"
       style="fill:none;stroke:#41719c;stroke-width:1.25640953px;stroke-linecap:butt;stroke-linejoin:miter;stroke-miterlimit:4;stroke-opacity:1;stroke-dasharray:none" />
    <text
       x="456.49106"
       y="234.72913"
       id="text3031"
       xml:space="preserve"
       style="font-size:15.00190544px;font-style:normal;font-weight:normal;text-align:start;text-anchor:start;fill:#000000;font-family:Arial">DEPLOY</text>
    <text
       x="516.04858"
       y="234.72913"
       id="text3033"
       xml:space="preserve"
       style="font-size:15.00190544px;font-style:normal;font-weight:normal;text-align:start;text-anchor:start;fill:#000000;font-family:Arial">-</text>
    <text
       x="475.39346"
       y="252.73141"
       id="text3035"
       xml:space="preserve"
       style="font-size:15.00190544px;font-style:normal;font-weight:normal;text-align:start;text-anchor:start;fill:#000000;font-family:Arial">ING</text>
    <path
       d="m 734.56828,356.7828 c 0,-20.59011 16.65211,-37.27973 37.20472,-37.27973 20.51511,0 37.16722,16.68962 37.16722,37.27973 0,20.59012 -16.65211,37.27974 -37.16722,37.27974 -20.55261,0 -37.20472,-16.68962 -37.20472,-37.27974"
       id="path3037"
       style="fill:#5b9bd5;fill-opacity:1;fill-rule:evenodd;stroke:none" />
    <path
       d="m 732.73054,358.73305 -0.0375,-1.95025 0.0375,-1.98775 0.15002,-2.02525 0.26254,-1.95025 0.33754,-1.91275 0.41255,-1.76272 3.63796,0.82511 -0.37504,1.72521 0,-0.075 -0.30004,1.83773 0,-0.11252 -0.22503,1.87524 0,-0.11251 -0.15002,1.91274 0,-0.11251 -0.0375,1.91274 0,-0.075 0.0375,1.91274 -3.75048,0.075 z m 2.3628,-15.45196 0.67509,-1.72522 0.7876,-1.72522 0.86261,-1.68771 0.93762,-1.65021 1.01263,-1.5752 1.08763,-1.5752 0.30004,-0.37505 2.92537,2.3253 -0.26253,0.33754 0.075,-0.075 -1.05013,1.46269 0.0375,-0.075 -0.93762,1.53769 0.0375,-0.075 -0.90012,1.5377 0.0375,-0.075 -0.82511,1.6127 0.0375,-0.075 -0.71259,1.65021 0.0375,-0.11251 -0.67508,1.72522 -3.48795,-1.38768 z m 8.21355,-13.27669 0.8251,-0.90011 1.35017,-1.31267 1.42518,-1.20015 1.46269,-1.16265 1.53769,-1.08763 1.5752,-1.05014 1.05014,-0.56257 1.83773,3.26291 -0.97512,0.56258 0.11251,-0.075 -1.53769,0.97512 0.075,-0.0375 -1.46269,1.05013 0.075,-0.075 -1.38768,1.08764 0.075,-0.0375 -1.35017,1.16265 0.075,-0.0375 -1.31267,1.23765 0.075,-0.075 -0.8251,0.86261 -2.70034,-2.58783 z m 12.71411,-9.03864 0.52507,-0.26254 1.80023,-0.67508 1.80022,-0.63758 1.83774,-0.52507 1.91274,-0.41255 1.91274,-0.33755 1.5752,-0.22502 0.48757,3.71297 -1.5377,0.22503 0.075,-0.0375 -1.83773,0.33754 0.11251,-0.0375 -1.80023,0.41255 0.11252,0 -1.76273,0.48756 0.075,0 -1.72522,0.56258 0.075,-0.0375 -1.68771,0.67509 0.075,-0.0375 -0.45006,0.22503 -1.5752,-3.41293 z m 15.30194,-3.30042 0.45006,-0.0375 1.98775,0.075 1.98776,0.15002 1.95024,0.26253 1.95025,0.33755 1.87524,0.41255 1.46268,0.41255 -1.05013,3.63796 -1.38767,-0.41255 0.075,0 -1.80022,-0.41255 0.11251,0.0375 -1.83773,-0.33754 0.075,0.0375 -1.83774,-0.26254 0.075,0.0375 -1.87524,-0.15002 0.075,0 -1.91274,-0.075 0.11252,0 -0.41256,0.0375 -0.075,-3.75047 z m 15.37696,2.92537 0.26253,0.11251 1.76272,0.7876 1.65021,0.90012 1.65021,0.90011 1.5752,1.05014 1.5377,1.08763 1.46268,1.16265 0.22503,0.15002 -2.47531,2.85036 -0.15002,-0.15002 0.0375,0.0375 -1.38767,-1.08764 0.075,0.075 -1.46269,-1.05013 0.075,0.0375 -1.50019,-0.97512 0.075,0.075 -1.5377,-0.90012 0.075,0.0375 -1.6127,-0.82511 0.075,0.0375 -1.65021,-0.7501 0.075,0.0375 -0.22503,-0.11252 1.38768,-3.48794 z m 12.97664,8.81362 1.01263,1.05013 1.23766,1.42518 1.16265,1.50019 1.05013,1.5377 1.05013,1.5752 0.93762,1.65021 0.41256,0.8251 -3.33793,1.68772 -0.41255,-0.7876 0.0375,0.075 -0.86261,-1.5377 0.0375,0.075 -0.97512,-1.53769 0.0375,0.075 -1.01263,-1.46269 0.0375,0.075 -1.08764,-1.38768 0.0375,0.075 -1.16264,-1.35017 0.0375,0.0375 -0.93762,-1.01263 2.70034,-2.58783 z m 8.47608,13.12667 0.30004,0.7876 0.60007,1.83773 0.56258,1.83773 0.41255,1.91274 0.33754,1.91275 0.26253,1.95025 0.11252,1.23765 -3.75048,0.30004 -0.11251,-1.20015 0.0375,0.11251 -0.26253,-1.87524 0.0375,0.11252 -0.33754,-1.83773 0,0.075 -0.41255,-1.80022 0.0375,0.11251 -0.48756,-1.76272 0,0.075 -0.56257,-1.76273 0.0375,0.11252 -0.30004,-0.7501 3.48794,-1.38767 z m 2.66284,15.41445 -0.0375,0.86261 -0.15002,1.98775 -0.26253,1.95025 -0.33754,1.91274 -0.41255,1.91275 -0.52507,1.87524 -0.37505,1.08763 -3.56295,-1.20015 0.37505,-1.05013 -0.0375,0.075 0.48756,-1.76273 -0.0375,0.075 0.41255,-1.80023 0,0.11252 0.33754,-1.83773 -0.0375,0.075 0.26253,-1.87524 0,0.11251 0.11252,-1.87524 0,0.075 0.0375,-0.7876 3.75048,0.075 z m -3.56295,15.22694 -0.26254,0.60007 -0.86261,1.68772 -0.93762,1.6127 -1.05013,1.61271 -1.05013,1.53769 -1.16265,1.46269 -1.16265,1.31266 -2.81285,-2.43781 1.08763,-1.27516 -0.0375,0.0375 1.08764,-1.38768 -0.0375,0.075 1.01263,-1.46269 -0.0375,0.075 0.97512,-1.53769 -0.0375,0.11251 0.86261,-1.5752 -0.0375,0.075 0.8251,-1.6127 -0.0375,0.075 0.22503,-0.52507 3.45044,1.5377 z m -9.30118,12.67661 -1.35018,1.16264 -1.46268,1.12515 -1.5377,1.12514 -1.5752,1.01263 -1.65021,0.93762 -1.68771,0.86261 -0.56257,0.26253 -1.5377,-3.41293 0.52507,-0.26254 -0.075,0.075 1.6127,-0.8251 -0.11251,0.0375 1.5752,-0.90011 -0.075,0.0375 1.50019,-0.97512 -0.075,0.075 1.46269,-1.05013 -0.075,0.0375 1.42518,-1.08764 -0.075,0.0375 1.27516,-1.12515 2.47532,2.85037 z m -13.46421,7.95101 -1.08764,0.37504 -1.87524,0.52507 -1.91274,0.45006 -1.91275,0.33754 -1.95024,0.22503 -1.98776,0.18752 -0.86261,0 -0.075,-3.75047 0.7876,0 -0.075,0 1.87524,-0.15002 -0.075,0 1.83774,-0.22503 -0.075,0 1.83773,-0.33754 -0.11251,0.0375 1.80022,-0.41255 -0.075,0.0375 1.76272,-0.52506 -0.075,0.0375 1.05013,-0.37505 1.20016,3.56296 z m -15.52698,2.02525 -1.20015,-0.11251 -1.95025,-0.22503 -1.91274,-0.33754 -1.91274,-0.45006 -1.83774,-0.52507 -1.80022,-0.60007 -0.86261,-0.33755 1.38767,-3.48794 0.7876,0.30004 -0.075,-0.0375 1.72522,0.60008 -0.11251,-0.0375 1.80023,0.52506 -0.11252,-0.0375 1.80023,0.41255 -0.11251,-0.0375 1.83773,0.33754 -0.075,0 1.83773,0.22503 -0.075,0 1.16265,0.075 -0.30004,3.75047 z m -15.03941,-4.20053 -0.7876,-0.41255 -1.65021,-0.93762 -1.5752,-1.01263 -1.53769,-1.12514 -1.46269,-1.16265 -1.42518,-1.20015 -1.08764,-1.05014 2.58783,-2.70034 1.05014,0.97512 -0.0375,-0.0375 1.35017,1.16265 -0.075,-0.0375 1.38768,1.08764 -0.075,-0.0375 1.46269,1.01262 -0.075,-0.0375 1.50019,0.97512 -0.075,-0.0375 1.5752,0.90011 -0.075,-0.0375 0.75009,0.37505 -1.72522,3.33792 z m -12.18904,-9.78874 -0.11252,-0.15002 -1.16265,-1.46269 -1.08763,-1.53769 -1.01263,-1.61271 -0.93762,-1.6127 -0.86261,-1.68772 -0.7876,-1.76272 -0.15002,-0.30004 3.48794,-1.38768 0.15002,0.30004 -0.0375,-0.11251 0.71259,1.65021 -0.0375,-0.075 0.82511,1.6127 -0.0375,-0.075 0.90012,1.5752 -0.0375,-0.075 0.93762,1.50019 -0.0375,-0.075 1.05013,1.46269 -0.075,-0.075 1.12514,1.38768 -0.075,-0.0375 0.11252,0.11252 -2.85036,2.43781 z m -7.42595,-13.83926 -0.37504,-1.42518 -0.45006,-1.87524 -0.33754,-1.95025 -0.26254,-1.95025 -0.15002,-1.95024 3.75048,-0.26254 0.15002,1.87524 0,-0.11251 0.22503,1.87524 -0.0375,-0.075 0.33755,1.83773 0,-0.11252 0.41255,1.80023 -0.0375,-0.075 0.41256,1.38768 -3.63797,1.01263 z"
       id="path3039"
       style="fill:#000000;fill-opacity:1;fill-rule:nonzero;stroke:#000000;stroke-width:0.03750476px;stroke-linecap:butt;stroke-linejoin:round;stroke-opacity:1;stroke-dasharray:none" />
    <text
       x="736.83307"
       y="362.34521"
       id="text3041"
       xml:space="preserve"
       style="font-size:15.00190544px;font-style:normal;font-weight:normal;text-align:start;text-anchor:start;fill:#000000;font-family:Arial">FINISHED</text>
    <path
       d="m 586.42447,238.19275 c 0,-20.59012 16.68961,-37.27974 37.27973,-37.27974 20.59011,0 37.24223,16.68962 37.24223,37.27974 0,20.55261 -16.65212,37.24223 -37.24223,37.24223 -20.59012,0 -37.27973,-16.68962 -37.27973,-37.24223"
       id="path3043"
       style="fill:#5b9bd5;fill-opacity:1;fill-rule:evenodd;stroke:none" />
    <path
       d="m 586.42447,238.19275 c 0,-20.59012 16.68961,-37.27974 37.27973,-37.27974 20.59011,0 37.24223,16.68962 37.24223,37.27974 0,20.55261 -16.65212,37.24223 -37.24223,37.24223 -20.59012,0 -37.27973,-16.68962 -37.27973,-37.24223"
       id="path3045"
       style="fill:none;stroke:#41719c;stroke-width:1.23765719px;stroke-linecap:butt;stroke-linejoin:miter;stroke-miterlimit:4;stroke-opacity:1;stroke-dasharray:none" />
    <text
       x="588.8078"
       y="243.73027"
       id="text3047"
       xml:space="preserve"
       style="font-size:15.00190544px;font-style:normal;font-weight:normal;text-align:start;text-anchor:start;fill:#000000;font-family:Arial">RUNNING</text>
    <path
       d="m 400.92591,237.14261 38.40488,0 0,1.87524 -38.40488,0 z m 31.37273,-4.23804 8.88863,5.17566 -8.88863,5.19441 c -0.45005,0.26253 -1.03138,0.11252 -1.29391,-0.33754 -0.26253,-0.45006 -0.11251,-1.01263 0.33754,-1.27516 l 7.50095,-4.38806 0,1.63146 -7.50095,-4.38806 c -0.4313,-0.26253 -0.60007,-0.82511 -0.33754,-1.27516 0.26253,-0.45006 0.84386,-0.60008 1.29391,-0.33755 z"
       id="path3049"
       style="fill:#000000;fill-opacity:1;fill-rule:nonzero;stroke:#000000;stroke-width:0.01875238px;stroke-linecap:butt;stroke-linejoin:round;stroke-opacity:1;stroke-dasharray:none" />
    <path
       d="m 535.47425,237.14261 38.40487,0 0,1.87524 -38.40487,0 z m 31.37273,-4.23804 8.88863,5.17566 -8.88863,5.19441 c -0.45006,0.26253 -1.03138,0.11252 -1.29392,-0.33754 -0.26253,-0.45006 -0.0938,-1.01263 0.33755,-1.27516 l 7.50095,-4.38806 0,1.63146 -7.50095,-4.38806 c -0.43131,-0.26253 -0.60008,-0.82511 -0.33755,-1.27516 0.26254,-0.45006 0.84386,-0.60008 1.29392,-0.33755 z"
       id="path3051"
       style="fill:#000000;fill-opacity:1;fill-rule:nonzero;stroke:#000000;stroke-width:0.01875238px;stroke-linecap:butt;stroke-linejoin:round;stroke-opacity:1;stroke-dasharray:none" />
    <path
       d="m 672.49789,252.8196 6.60084,5.21317 6.52583,5.17565 6.41332,5.10065 3.1504,2.55032 3.07539,2.51282 3.03788,2.47532 2.96288,2.47531 2.88787,2.43781 2.81285,2.40031 2.70035,2.3628 2.58782,2.28779 2.51282,2.28779 2.40031,2.21278 2.25028,2.17527 2.17528,2.13778 2.02526,2.10026 1.95024,2.02526 1.87524,2.02526 1.76273,1.95024 1.68771,1.95025 1.61271,1.91275 1.5752,1.87523 1.50019,1.87524 2.85036,3.63796 2.77535,3.63797 1.5752,2.06276 -1.50019,1.12514 -1.5752,-2.06276 0,0 -2.73785,-3.60046 0,0 -2.85036,-3.63796 0,0 -1.50019,-1.83773 0,0 -1.5377,-1.87524 0,0 -1.6127,-1.87524 0,0 -1.68771,-1.95025 0.0375,0.0375 -1.76272,-1.98776 0,0.0375 -1.83774,-2.02526 0,0.0375 -1.95024,-2.06277 0.0375,0.0375 -2.06276,-2.10027 0.0375,0.0375 -2.17527,-2.13777 0.0375,0 -2.28779,-2.13778 0.0375,0 -2.40031,-2.21278 0,0 -2.47531,-2.28779 0,0.0375 -2.58783,-2.3253 0,0 -2.70034,-2.32529 0,0 -2.81286,-2.40031 0.0375,0 -2.88786,-2.43781 0,0 -2.96288,-2.43781 0,0 -3.00038,-2.47531 0,0 -3.1129,-2.51282 -3.1504,-2.55032 0.0375,0 -6.41332,-5.10065 0,0 -6.52582,-5.17566 -6.60084,-5.17566 z m 72.45921,60.68271 1.20015,10.2388 -9.48871,-3.97551 c -0.48756,-0.22502 -0.71259,-0.7876 -0.52506,-1.23765 0.22503,-0.48756 0.75009,-0.71259 1.23765,-0.52507 l 7.98852,3.37543 -1.27516,0.97512 -1.01263,-8.62609 c -0.0375,-0.48756 0.30004,-0.97513 0.8251,-1.01263 0.52507,-0.075 0.97513,0.30004 1.05014,0.7876 z"
       id="path3053"
       style="fill:#000000;fill-opacity:1;fill-rule:nonzero;stroke:#000000;stroke-width:0.03750476px;stroke-linecap:butt;stroke-linejoin:round;stroke-opacity:1;stroke-dasharray:none" />
    <path
       d="m 350.93206,285.18621 -1.35017,12.71412 -1.33142,12.67661 -1.29391,12.56409 -1.27516,12.43283 -0.61883,6.15078 -0.58133,6.09453 -0.60007,6.03826 -0.56257,5.98201 -0.54382,5.88825 -0.52507,5.85074 -0.48756,5.73823 -0.48756,5.66322 -0.45006,5.56946 -0.43131,5.47569 -0.3938,5.40069 -0.3938,5.32568 -0.35629,5.25066 -0.33754,5.17566 -0.33755,5.13815 -0.31879,5.06315 -0.58132,10.03252 -0.56257,9.86375 -0.52507,9.78874 -0.41255,7.876 1.87524,0.0938 0.41255,-7.876 0.52507,-9.76999 0.54381,-9.88251 0.60008,-10.01377 0,0.0188 0.31879,-5.08189 0.31879,-5.1194 0.3563,-5.19441 0.35629,-5.23192 0,0 0.37505,-5.32567 0.41255,-5.38194 0,0 0.43131,-5.47569 0.45005,-5.56946 0,0 0.46881,-5.64447 0.50632,-5.75698 0,0 0.52506,-5.81324 0.54382,-5.907 0.56257,-5.96325 0,0 0.58133,-6.03827 0.60007,-6.09452 0,0 0.61883,-6.15078 1.25641,-12.43283 1.31267,-12.5641 1.33142,-12.65786 1.33142,-12.71411 z m -18.63987,170.51541 4.70685,9.15116 5.66322,-8.60735 c 0.28129,-0.4313 0.15002,-1.01262 -0.28128,-1.29391 -0.43131,-0.28129 -1.01263,-0.16877 -1.29392,0.26253 l -4.7631,7.25718 1.6127,0.0938 -3.9755,-7.72598 c -0.22503,-0.46881 -0.7876,-0.63758 -1.25641,-0.41256 -0.46881,0.24378 -0.63758,0.80636 -0.41256,1.27517 z"
       id="path3055"
       style="fill:#000000;fill-opacity:1;fill-rule:nonzero;stroke:#000000;stroke-width:0.01875238px;stroke-linecap:butt;stroke-linejoin:round;stroke-opacity:1;stroke-dasharray:none" />
    <path
       d="m 452.32619,422.88495 c 0,-20.59012 16.68962,-37.27974 37.27973,-37.27974 20.59012,0 37.26098,16.68962 37.26098,37.27974 0,20.57136 -16.67086,37.26098 -37.26098,37.26098 -20.59011,0 -37.27973,-16.68962 -37.27973,-37.26098"
       id="path3057"
       style="fill:#5b9bd5;fill-opacity:1;fill-rule:evenodd;stroke:none" />
    <path
       d="m 452.32619,422.88495 c 0,-20.59012 16.68962,-37.27974 37.27973,-37.27974 20.59012,0 37.26098,16.68962 37.26098,37.27974 0,20.57136 -16.67086,37.26098 -37.26098,37.26098 -20.59011,0 -37.27973,-16.68962 -37.27973,-37.26098"
       id="path3059"
       style="fill:none;stroke:#41719c;stroke-width:1.25640953px;stroke-linecap:butt;stroke-linejoin:miter;stroke-miterlimit:4;stroke-opacity:1;stroke-dasharray:none" />
    <text
       x="456.80737"
       y="419.42795"
       id="text3061"
       xml:space="preserve"
       style="font-size:15.00190544px;font-style:normal;font-weight:normal;text-align:start;text-anchor:start;fill:#000000;font-family:Arial">CANCEL</text>
    <text
       x="517.71515"
       y="419.42795"
       id="text3063"
       xml:space="preserve"
       style="font-size:15.00190544px;font-style:normal;font-weight:normal;text-align:start;text-anchor:start;fill:#000000;font-family:Arial">-</text>
    <text
       x="476.30984"
       y="437.43024"
       id="text3065"
       xml:space="preserve"
       style="font-size:15.00190544px;font-style:normal;font-weight:normal;text-align:start;text-anchor:start;fill:#000000;font-family:Arial">ING</text>
    <path
       d="m 440.64345,443.55007 -69.85262,41.51777 0.95638,1.61271 69.85262,-41.51777 z m -65.98963,34.2606 -4.98813,9.00115 10.29506,-0.075 c 0.50631,0 0.93762,-0.43131 0.91886,-0.95637 0,-0.50632 -0.41255,-0.91887 -0.93761,-0.91887 l -8.68236,0.075 0.82511,1.38767 4.21928,-7.59471 c 0.24378,-0.45006 0.075,-1.03138 -0.37504,-1.27516 -0.45006,-0.24378 -1.01263,-0.0938 -1.27517,0.35629 z"
       id="path3067"
       style="fill:#000000;fill-opacity:1;fill-rule:nonzero;stroke:#000000;stroke-width:0.01875238px;stroke-linecap:butt;stroke-linejoin:round;stroke-opacity:1;stroke-dasharray:none" />
    <path
       d="m 491.57492,285.20497 -1.01263,12.6016 -0.50631,6.22579 -0.46881,6.18828 -0.46881,6.05702 -0.43131,5.96326 -0.3938,5.83199 -0.37504,5.66322 -0.33755,5.47569 -0.30003,5.32568 -0.26254,5.17566 -0.24378,5.06314 -0.22503,4.96938 -0.20627,4.89437 -0.31879,7.8385 1.85648,0.075 0.31879,-7.81975 0.20628,-4.91312 0,0 0.22503,-4.95063 0.24378,-5.06314 0,0 0.28128,-5.17566 0,0 0.30004,-5.30692 0,0 0.31879,-5.4757 0,0 0.37505,-5.64446 0.41255,-5.81324 0.43131,-5.96326 0,0 0.45005,-6.07577 0.48757,-6.16953 0.48756,-6.2258 1.01263,-12.6016 z m -9.52621,80.07266 4.81936,9.09491 5.55071,-8.68235 c 0.28128,-0.43131 0.15002,-1.01263 -0.28129,-1.29392 -0.4313,-0.28128 -1.01263,-0.15002 -1.29391,0.28129 l -4.6881,7.33218 1.63146,0.0563 -4.06927,-7.66973 c -0.24378,-0.45006 -0.80635,-0.63758 -1.27516,-0.3938 -0.45006,0.24378 -0.61883,0.80635 -0.3938,1.27516 z"
       id="path3069"
       style="fill:#000000;fill-opacity:1;fill-rule:nonzero;stroke:#000000;stroke-width:0.01875238px;stroke-linecap:butt;stroke-linejoin:round;stroke-opacity:1;stroke-dasharray:none" />
    <path
       d="m 609.93995,278.0228 -4.05051,8.73861 -4.05052,8.70111 -4.12552,8.55108 -2.10027,4.23804 -2.13777,4.16303 -2.13777,4.12552 -2.21278,4.05052 -2.21278,4.01301 -2.28779,3.90049 -2.3253,3.78798 -2.3628,3.75048 -2.4003,3.60046 -2.51282,3.52545 -2.51282,3.41293 -2.62534,3.30042 -2.62533,3.1879 -2.70034,3.07539 -2.73785,3.00038 -2.77535,2.92538 -2.81286,2.85036 -2.85036,2.77535 -2.88787,2.70034 -2.92537,2.66284 -5.85074,5.21316 -5.92575,5.06315 -4.53808,3.82548 -1.20015,-1.42518 4.50057,-3.82548 0,0 5.92575,-5.06315 0,0 5.85074,-5.17565 0,0 2.88787,-2.62534 0,0 2.85036,-2.70034 0,0 2.85036,-2.77535 -0.0375,0 2.81286,-2.81286 0,0 2.73784,-2.88787 0,0 2.73785,-3.00038 -0.0375,0.0375 2.70034,-3.07539 -0.0375,0 2.66283,-3.1504 -0.0375,0 2.58783,-3.26292 0,0.0375 2.51282,-3.37543 0,0 2.47531,-3.48794 -0.0375,0 2.4003,-3.60046 0,0.0375 2.3628,-3.71297 0,0 2.28779,-3.78798 0,0 2.25029,-3.86299 0,0 2.21278,-3.97551 0,0 2.17527,-4.013 0,0 2.17528,-4.12553 -0.0375,0.0375 2.13777,-4.16303 0,0 2.10026,-4.23804 0,0.0375 4.12553,-8.58859 0,0.0375 4.05051,-8.70111 0,0 4.05052,-8.73861 z m -70.58396,107.8637 -10.12629,1.76272 3.45044,-9.67622 c 0.15002,-0.48757 0.71259,-0.7501 1.20015,-0.60008 0.48756,0.18752 0.7501,0.71259 0.56257,1.20015 l -2.92537,8.17604 -1.05013,-1.23766 8.58859,-1.46268 c 0.48756,-0.11252 0.97512,0.22503 1.08764,0.75009 0.075,0.52507 -0.26254,0.97513 -0.7876,1.08764 z"
       id="path3071"
       style="fill:#000000;fill-opacity:1;fill-rule:nonzero;stroke:#000000;stroke-width:0.03750476px;stroke-linecap:butt;stroke-linejoin:round;stroke-opacity:1;stroke-dasharray:none" />
    <path
       d="m 637.39344,198.32518 2.70034,-3.56295 2.66284,-3.52545 2.70034,-3.41293 2.70034,-3.33792 2.70035,-3.18791 1.35017,-1.50019 1.38767,-1.46268 1.35018,-1.42519 1.38767,-1.35017 1.38768,-1.27516 1.38767,-1.23766 1.35018,-1.12514 1.42518,-1.05013 1.38767,-0.97513 1.38768,-0.93762 1.38768,-0.8626 1.42518,-0.82511 2.77535,-1.46269 2.81286,-1.31266 2.77535,-1.20015 2.81286,-1.12515 1.05013,-0.37504 0.63758,1.72521 -1.01263,0.41256 0,0 -2.77535,1.08763 0.0375,0 -2.77535,1.20016 0.0375,-0.0375 -2.77536,1.31267 0.0375,-0.0375 -2.73785,1.46269 0,0 -1.35017,0.7876 0,-0.0375 -1.35017,0.8626 0,0 -1.35017,0.90012 0,0 -1.35017,0.93762 0.0375,0 -1.38768,1.05013 0.0375,-0.0375 -1.35017,1.12514 0,-0.0375 -1.35017,1.20016 0,0 -1.35018,1.23765 0.0375,0 -1.38768,1.31267 0.0375,0 -1.35017,1.38768 0,0 -1.35018,1.42518 0.0375,0 -1.35017,1.50019 0,0 -2.70035,3.1504 0.0375,-0.0375 -2.70034,3.33793 0,0 -2.66284,3.41293 0,0 -2.70034,3.48794 0,0 -2.66284,3.56296 z m 34.20434,-37.99232 10.16379,1.65021 -6.45082,8.02602 c -0.33754,0.41255 -0.93762,0.48756 -1.31266,0.15002 -0.41256,-0.33755 -0.48757,-0.90012 -0.15002,-1.31267 l 5.43819,-6.78836 0.56257,1.53769 -8.55109,-1.42518 c -0.52506,-0.075 -0.86261,-0.56257 -0.7876,-1.08764 0.11252,-0.48756 0.56257,-0.8251 1.08764,-0.75009 z"
       id="path3073"
       style="fill:#000000;fill-opacity:1;fill-rule:nonzero;stroke:#000000;stroke-width:0.03750476px;stroke-linecap:butt;stroke-linejoin:round;stroke-opacity:1;stroke-dasharray:none" />
    <path
       d="m 499.67595,198.06265 12.6016,-7.53846 6.3008,-3.75047 6.2633,-3.71297 6.26329,-3.63797 6.18829,-3.56295 6.18828,-3.48794 6.15078,-3.37543 6.07577,-3.30042 6.03827,-3.11289 6.00076,-3.00039 5.88825,-2.81285 5.85074,-2.66284 5.77574,-2.47532 5.66322,-2.25028 2.81285,-1.08764 2.77536,-0.97512 2.77535,-0.93762 2.73785,-0.86261 5.40068,-1.61271 5.28817,-1.38767 5.25067,-1.20016 5.13815,-1.01262 5.10065,-0.86261 5.02564,-0.71259 4.95063,-0.56258 4.91312,-0.45005 4.87562,-0.37505 4.83811,-0.26253 4.80061,-0.22503 4.76311,-0.11252 4.7631,-0.11251 7.57597,-0.075 0.0375,1.87524 -7.57596,0.075 0,0 -4.76311,0.11251 0,0 -4.7631,0.11252 0.0375,0 -4.80061,0.22502 0.0375,0 -4.83812,0.26254 0.0375,0 -4.87562,0.33754 0.0375,0 -4.91312,0.48756 0.0375,0 -4.95063,0.56257 0,0 -4.98814,0.71259 0.0375,0 -5.06314,0.82511 0.0375,0 -5.13815,1.01263 0.0375,0 -5.21316,1.20015 0.0375,0 -5.28818,1.38768 0,-0.0375 -5.36318,1.61271 0.0375,0 -2.73785,0.86261 0,0 -2.73785,0.90011 0.0375,0 -2.77536,1.01263 0,-0.0375 -2.77535,1.05014 0,0 -5.66322,2.25028 0.0375,0 -5.73823,2.43781 0,0 -5.81324,2.66284 0.0375,0 -5.88825,2.81286 0,0 -5.96326,2.96287 0,0 -6.03827,3.1504 0.0375,-0.0375 -6.07577,3.26291 0,0 -6.11328,3.37543 0,0 -6.18828,3.48795 0,0 -6.18829,3.56295 0,0 -6.2633,3.63796 0,0 -6.26329,3.71297 0.0375,0 -6.3008,3.75048 -12.6016,7.53846 z m 167.98383,-65.67084 8.92613,5.06314 -8.81362,5.28818 c -0.45005,0.26253 -1.01262,0.15001 -1.27516,-0.30004 -0.26253,-0.45006 -0.15002,-1.01263 0.30004,-1.31267 l 0,0 7.46345,-4.46307 0,1.65021 -7.53846,-4.31304 c -0.45006,-0.26254 -0.60007,-0.82511 -0.33754,-1.27517 0.22503,-0.45005 0.8251,-0.60007 1.27516,-0.33754 z"
       id="path3075"
       style="fill:#000000;fill-opacity:1;fill-rule:nonzero;stroke:#000000;stroke-width:0.03750476px;stroke-linecap:butt;stroke-linejoin:round;stroke-opacity:1;stroke-dasharray:none" />
  </g>
</svg>
