<?xml version="1.0" encoding="UTF-8" standalone="no"?>
<!--
Licensed to the Apache Software Foundation (ASF) under one
or more contributor license agreements.  See the NOTICE file
distributed with this work for additional information
regarding copyright ownership.  The ASF licenses this file
to you under the Apache License, Version 2.0 (the
"License"); you may not use this file except in compliance
with the License.  You may obtain a copy of the License at

  http://www.apache.org/licenses/LICENSE-2.0

Unless required by applicable law or agreed to in writing,
software distributed under the License is distributed on an
"AS IS" BASIS, WITHOUT WARRANTIES OR CONDITIONS OF ANY
KIND, either express or implied.  See the License for the
specific language governing permissions and limitations
under the License.
-->

<svg
   xmlns:dc="http://purl.org/dc/elements/1.1/"
   xmlns:cc="http://creativecommons.org/ns#"
   xmlns:rdf="http://www.w3.org/1999/02/22-rdf-syntax-ns#"
   xmlns:svg="http://www.w3.org/2000/svg"
   xmlns="http://www.w3.org/2000/svg"
   version="1.1"
   width="752.5"
   height="367"
   id="svg2">
  <defs
     id="defs4" />
  <metadata
     id="metadata7">
    <rdf:RDF>
      <cc:Work
         rdf:about="">
        <dc:format>image/svg+xml</dc:format>
        <dc:type
           rdf:resource="http://purl.org/dc/dcmitype/StillImage" />
        <dc:title></dc:title>
      </cc:Work>
    </rdf:RDF>
  </metadata>
  <g
     transform="translate(-223.74633,-451.71128)"
     id="layer1">
    <g
       transform="translate(215.21508,326.89878)"
       id="g2989">
      <path
         d="m 9.1522801,353.76938 0,51.89418 159.5647499,0 0,-51.89418 -159.5647499,0 z"
         id="path2991"
         style="fill:#f5a030;fill-opacity:1;fill-rule:evenodd;stroke:none" />
      <path
         d="m 9.1522801,353.76938 159.5647499,0 0,51.89418 -159.5647499,0 z"
         id="path2993"
         style="fill:none;stroke:#935f1c;stroke-width:1.25656307px;stroke-linecap:butt;stroke-linejoin:miter;stroke-miterlimit:4;stroke-opacity:1;stroke-dasharray:none" />
      <text
         x="18.229837"
         y="375.79153"
         id="text2995"
         xml:space="preserve"
         style="font-size:17.55437279px;font-style:normal;font-weight:normal;text-align:start;text-anchor:start;fill:#000000;font-family:Verdana">JobManager</text>
      <path
         d="m 316.27879,125.43125 0,306.33881 444.14815,0 0,-306.33881 -444.14815,0 z"
         id="path2997"
         style="fill:#f5a030;fill-opacity:1;fill-rule:evenodd;stroke:none" />
      <path
         d="m 316.27879,125.43125 444.14815,0 0,306.33881 -444.14815,0 z"
         id="path2999"
         style="fill:none;stroke:#935f1c;stroke-width:1.23780835px;stroke-linecap:butt;stroke-linejoin:miter;stroke-miterlimit:4;stroke-opacity:1;stroke-dasharray:none" />
      <text
         x="325.26529"
         y="147.46312"
         id="text3001"
         xml:space="preserve"
         style="font-size:17.55437279px;font-style:normal;font-weight:normal;text-align:start;text-anchor:start;fill:#000000;font-family:Verdana">TaskManager</text>
      <path
         d="m 325.48734,174.51223 0,157.83932 124.08091,0 0,-157.83932 -124.08091,0 z"
         id="path3003"
         style="fill:#e4eaf4;fill-opacity:1;fill-rule:evenodd;stroke:none" />
      <path
         d="m 325.48734,174.51223 124.08091,0 0,157.83932 -124.08091,0 z"
         id="path3005"
         style="fill:none;stroke:#898c92;stroke-width:1.25656307px;stroke-linecap:butt;stroke-linejoin:miter;stroke-miterlimit:4;stroke-opacity:1;stroke-dasharray:none" />
      <text
         x="353.62866"
         y="193.9996"
         id="text3007"
         xml:space="preserve"
         style="font-size:15.00373745px;font-style:normal;font-weight:normal;text-align:start;text-anchor:start;fill:#000000;font-family:Verdana">Task Slot</text>
      <path
         d="m 342.66662,275.39361 c 0,-21.88671 18.22954,-39.62863 40.71639,-39.62863 22.48685,0 40.71639,17.74192 40.71639,39.62863 0,21.8867 -18.22954,39.60987 -40.71639,39.60987 -22.48685,0 -40.71639,-17.72317 -40.71639,-39.60987"
         id="path3009"
         style="fill:#be73f1;fill-opacity:1;fill-rule:evenodd;stroke:none" />
      <path
         d="m 342.66662,275.39361 c 0,-21.88671 18.22954,-39.62863 40.71639,-39.62863 22.48685,0 40.71639,17.74192 40.71639,39.62863 0,21.8867 -18.22954,39.60987 -40.71639,39.60987 -22.48685,0 -40.71639,-17.72317 -40.71639,-39.60987"
         id="path3011"
         style="fill:none;stroke:#724591;stroke-width:1.25656307px;stroke-linecap:butt;stroke-linejoin:miter;stroke-miterlimit:4;stroke-opacity:1;stroke-dasharray:none" />
      <text
         x="370.40225"
         y="279.82492"
         id="text3013"
         xml:space="preserve"
         style="font-size:11.2528038px;font-style:normal;font-weight:normal;text-align:start;text-anchor:start;fill:#000000;font-family:Verdana">Task</text>
      <path
         d="m 325.01847,341.10998 0,80.19498 424.15567,0 0,-80.19498 -424.15567,0 z"
         id="path3015"
         style="fill:#b8bec6;fill-opacity:1;fill-rule:evenodd;stroke:none" />
      <path
         d="m 325.01847,341.10998 424.15567,0 0,80.19498 -424.15567,0 z"
         id="path3017"
         style="fill:none;stroke:#6e7277;stroke-width:1.23780835px;stroke-linecap:butt;stroke-linejoin:miter;stroke-miterlimit:4;stroke-opacity:1;stroke-dasharray:none" />
      <text
         x="652.52838"
         y="378.55875"
         id="text3019"
         xml:space="preserve"
         style="font-size:13.20328903px;font-style:normal;font-weight:normal;text-align:start;text-anchor:start;fill:#000000;font-family:Verdana">TaskManager</text>
      <text
         x="705.34155"
         y="394.31265"
         id="text3021"
         xml:space="preserve"
         style="font-size:13.20328903px;font-style:normal;font-weight:normal;text-align:start;text-anchor:start;fill:#000000;font-family:Verdana">Actor</text>
      <path
         d="m 605.10075,175.46871 0,33.75841 144.07339,0 0,-33.75841 -144.07339,0 z"
         id="path3023"
         style="fill:#b8bec6;fill-opacity:1;fill-rule:evenodd;stroke:none" />
      <path
         d="m 605.10075,175.46871 144.07339,0 0,33.75841 -144.07339,0 z"
         id="path3025"
         style="fill:none;stroke:#6e7277;stroke-width:1.23780835px;stroke-linecap:butt;stroke-linejoin:miter;stroke-miterlimit:4;stroke-opacity:1;stroke-dasharray:none" />
      <text
         x="619.7691"
         y="197.58919"
         id="text3027"
         xml:space="preserve"
         style="font-size:13.20328903px;font-style:normal;font-weight:normal;text-align:start;text-anchor:start;fill:#000000;font-family:Verdana">Memory </text>
      <text
         x="677.53351"
         y="197.58919"
         id="text3029"
         xml:space="preserve"
         style="font-size:13.20328903px;font-style:normal;font-weight:normal;text-align:start;text-anchor:start;fill:#000000;font-family:Verdana">Manager</text>
      <path
         d="m 605.10075,216.87903 0,33.60837 144.07339,0 0,-33.60837 -144.07339,0 z"
         id="path3031"
         style="fill:#b8bec6;fill-opacity:1;fill-rule:evenodd;stroke:none" />
      <path
         d="m 605.10075,216.87903 144.07339,0 0,33.60837 -144.07339,0 z"
         id="path3033"
         style="fill:none;stroke:#6e7277;stroke-width:1.23780835px;stroke-linecap:butt;stroke-linejoin:miter;stroke-miterlimit:4;stroke-opacity:1;stroke-dasharray:none" />
      <text
         x="635.52618"
         y="238.92084"
         id="text3035"
         xml:space="preserve"
         style="font-size:13.20328903px;font-style:normal;font-weight:normal;text-align:start;text-anchor:start;fill:#000000;font-family:Verdana">I/O Manager</text>
      <path
         d="m 605.10075,299.69966 0,33.60838 144.07339,0 0,-33.60838 -144.07339,0 z"
         id="path3037"
         style="fill:#b8bec6;fill-opacity:1;fill-rule:evenodd;stroke:none" />
      <path
         d="m 605.10075,299.69966 144.07339,0 0,33.60838 -144.07339,0 z"
         id="path3039"
         style="fill:none;stroke:#6e7277;stroke-width:1.23780835px;stroke-linecap:butt;stroke-linejoin:miter;stroke-miterlimit:4;stroke-opacity:1;stroke-dasharray:none" />
      <text
         x="631.77209"
         y="321.72003"
         id="text3041"
         xml:space="preserve"
         style="font-size:13.20328903px;font-style:normal;font-weight:normal;text-align:start;text-anchor:start;fill:#000000;font-family:Verdana">Library Cache</text>
      <path
         d="m 605.10075,258.13931 0,33.75841 144.07339,0 0,-33.75841 -144.07339,0 z"
         id="path3043"
         style="fill:#b8bec6;fill-opacity:1;fill-rule:evenodd;stroke:none" />
      <path
         d="m 605.10075,258.13931 144.07339,0 0,33.75841 -144.07339,0 z"
         id="path3045"
         style="fill:none;stroke:#6e7277;stroke-width:1.23780835px;stroke-linecap:butt;stroke-linejoin:miter;stroke-miterlimit:4;stroke-opacity:1;stroke-dasharray:none" />
      <text
         x="649.6297"
         y="272.37552"
         id="text3047"
         xml:space="preserve"
         style="font-size:13.20328903px;font-style:normal;font-weight:normal;text-align:start;text-anchor:start;fill:#000000;font-family:Verdana">Network </text>
      <text
         x="635.07605"
         y="288.12946"
         id="text3049"
         xml:space="preserve"
         style="font-size:13.20328903px;font-style:normal;font-weight:normal;text-align:start;text-anchor:start;fill:#000000;font-family:Verdana">Environment</text>
      <path
         d="m 148.19942,392.89163 3.43211,1.48162 -0.48763,1.14403 -3.45086,-1.46286 z m 4.59489,1.96924 3.45086,1.48162 -0.50637,1.14403 -3.43211,-1.48162 z m 4.5949,1.96924 3.45086,1.46286 -0.48762,1.16279 -3.45086,-1.48161 z m 4.59489,1.95049 3.46962,1.46286 -0.48762,1.14404 -3.46962,-1.44411 z m 4.61365,1.93173 1.03151,0.45011 0,0 2.43811,0.994 -0.48762,1.16279 -2.41936,-1.01276 -1.05026,-0.43135 z m 4.61365,1.91297 2.90698,1.2003 0,0 0.56264,0.22506 -0.46887,1.16279 -0.56264,-0.22506 -2.90697,-1.2003 z m 4.63241,1.89423 3.48837,1.38784 -0.46887,1.16279 -3.48837,-1.38784 z m 4.65116,1.85671 0.11252,0.0375 -0.0188,0 3.39459,1.29407 -0.45011,1.16279 -3.39459,-1.29407 -0.11253,-0.0563 z m 4.65115,1.78169 1.93174,0.75019 0,0 1.57539,0.58139 -0.43136,1.16279 -1.57539,-0.58139 -1.95049,-0.75019 z m 4.66992,1.76294 3.52588,1.29407 -0.43136,1.16279 -3.52588,-1.29407 z m 4.68867,1.68792 3.54463,1.23781 -0.39385,1.18154 -3.54463,-1.2378 z m 4.72617,1.65041 0.84396,0.28132 -0.0187,0 2.73818,0.88147 -0.39385,1.18155 -2.73818,-0.88147 -0.8252,-0.28132 z m 4.74494,1.53789 2.58814,0.84396 -0.0188,-0.0188 0.99399,0.30008 -0.35634,1.2003 -0.99399,-0.30008 -2.58815,-0.8252 z m 4.76368,1.48162 3.6009,1.06901 -0.35634,1.2003 -3.6009,-1.06902 z m 4.78244,1.4066 3.61966,0.97524 -0.31883,1.2003 -3.61966,-0.97525 z m 4.83871,1.29407 1.21905,0.31883 -0.0188,0 2.41935,0.60015 -0.30007,1.2003 -2.41936,-0.5814 -1.2378,-0.33758 z m 4.81995,1.2003 2.88822,0.65641 0,0 0.76894,0.15004 -0.26256,1.23781 -0.76895,-0.1688 -2.90697,-0.65641 z m 4.87621,1.06901 1.27532,0.26257 -0.0188,0 2.41935,0.45011 -0.24381,1.23781 -2.41935,-0.46887 -1.27532,-0.26256 z m 4.89497,0.93774 2.90698,0.50637 -0.0188,0 0.7877,0.13129 -0.18755,1.21905 -0.78769,-0.11253 -2.92573,-0.50637 z m 4.91373,0.8252 1.25656,0.18755 -0.0188,0 2.47561,0.31883 -0.16879,1.23781 -2.47562,-0.31883 -1.25656,-0.18755 z m 4.93248,0.65642 2.85071,0.31883 -0.0188,0 0.88147,0.075 -0.11253,1.25657 -0.88147,-0.075 -2.85071,-0.31883 z m 4.96999,0.50637 1.14403,0.11253 0,0 2.56939,0.16879 -0.075,1.25657 -2.58814,-0.18755 -1.16279,-0.0938 z m 4.95123,0.35634 2.73818,0.13128 0,0 0.994,0.0188 -0.0188,1.23781 -1.01275,-0.0188 -2.75694,-0.11253 z m 4.98874,0.16879 1.03151,0.0188 0,0 2.70067,0.0188 0,1.23781 -2.71943,0 -1.05026,-0.0188 z m 4.96999,0.0188 2.62565,-0.0563 -0.0188,0 1.12528,-0.0375 0.0563,1.23781 -1.14403,0.0563 -2.62566,0.0563 z m 4.98874,-0.15004 0.91898,-0.0375 -0.0188,0 2.83195,-0.16879 0.075,1.25656 -2.83195,0.16879 -0.91898,0.0375 z m 4.96999,-0.30007 2.53188,-0.18755 0,0 1.2003,-0.11253 0.11253,1.23781 -1.2003,0.11253 -2.55064,0.2063 z m 4.96999,-0.41261 0.86271,-0.0938 -0.0188,0 2.86946,-0.31883 0.15004,1.23781 -2.88822,0.33758 -0.86271,0.075 z m 4.95123,-0.56264 2.51313,-0.31883 -0.0188,0 1.2003,-0.18754 0.18755,1.23781 -1.2003,0.18754 -2.53188,0.31883 z m 4.93248,-0.69392 3.71343,-0.56264 0.18754,1.23781 -3.71342,0.56264 z m 4.93248,-0.76894 3.69467,-0.65642 0.2063,1.21906 -3.67591,0.67517 z m 4.91372,-0.88147 0.95649,-0.16879 -0.0188,0 2.73818,-0.56264 0.24381,1.21905 -2.73818,0.56264 -0.95649,0.16879 z m 4.89497,-0.97524 2.68192,-0.56264 0,0 0.97524,-0.20631 0.28132,1.21906 -0.99399,0.22505 -2.70068,0.54389 z m 4.87622,-1.05027 3.65716,-0.84396 0.28132,1.21906 -3.65716,0.84396 z m 4.85746,-1.12528 3.6384,-0.90022 0.30008,1.2003 -3.63841,0.91898 z m 4.85746,-1.2003 1.36909,-0.33758 -0.0188,0 2.26932,-0.60015 0.31883,1.2003 -2.26932,0.60015 -1.36909,0.33758 z m 4.8387,-1.25656 3.16954,-0.84396 0,0 0.43136,-0.11253 0.33759,1.2003 -0.43136,0.13129 -3.1883,0.8252 z m 4.81995,-1.29407 3.6009,-1.01275 0.33759,1.2003 -3.6009,1.01275 z m 4.81996,-1.35034 0.18754,-0.0563 0,0 3.3946,-0.97524 0.35634,1.2003 -3.41335,0.99399 -0.20631,0.0375 z m 4.78244,-1.38784 2.06301,-0.60015 -0.0188,0.0188 1.55663,-0.46886 0.35634,1.20029 -1.55664,0.45012 -2.04425,0.60015 z m 4.80119,-1.4066 3.58215,-1.06902 0.37509,1.18154 -3.6009,1.08778 z m 4.78244,-1.44411 3.58215,-1.08777 0.37509,1.2003 -3.58214,1.08777 z m 4.78245,-1.44411 3.60089,-1.10653 0.35634,1.2003 -3.58214,1.08777 z m 4.78244,-1.46287 1.70667,-0.52513 0.3751,1.2003 -1.70668,0.52513 z m -6.4141,-2.53188 9.48986,2.25056 -6.6204,7.16429 c -0.24381,0.24381 -0.63765,0.26256 -0.90022,0.0187 -0.24381,-0.22505 -0.26257,-0.6189 -0.0188,-0.88147 l 5.88896,-6.35783 0.31883,1.03151 -8.4396,-2.00675 c -0.33758,-0.075 -0.54389,-0.41261 -0.46887,-0.75019 0.075,-0.33759 0.41261,-0.54389 0.75019,-0.46887 z"
         id="path3051"
         style="fill:#000000;fill-opacity:1;fill-rule:nonzero;stroke:#000000;stroke-width:0.01875467px;stroke-linecap:butt;stroke-linejoin:round;stroke-opacity:1;stroke-dasharray:none" />
      <text
         x="198.01729"
         y="435.99365"
         id="text3053"
         xml:space="preserve"
         style="font-size:11.2528038px;font-style:normal;font-weight:normal;text-align:start;text-anchor:start;fill:#000000;font-family:Verdana">1) Submit Task</text>
      <path
         d="m 372.9179,366.41003 -1.10652,-3.58214 -1.2003,0.37509 1.12528,3.56339 z m -1.48162,-4.78244 -1.08777,-3.58214 -1.2003,0.35634 1.08778,3.60089 z m -1.42535,-4.76369 -0.994,-3.61965 -1.2003,0.31883 0.994,3.61965 z m -1.29407,-4.81995 -0.26257,-1.06901 0.0188,0.0188 -0.48763,-2.15679 0,0.0188 -0.075,-0.45011 -1.23781,0.24381 0.0938,0.45011 0.48762,2.17554 0.26257,1.06902 z m -1.05027,-4.85746 -0.0938,-0.46886 0,0.0188 -0.33758,-2.10052 0.0188,0.0188 -0.15004,-1.14403 -1.2378,0.16879 0.13128,1.14403 0.35634,2.11928 0.0938,0.48762 z m -0.71267,-4.87621 -0.13129,-1.76294 0,0.0375 -0.075,-1.988 -1.23781,0.0375 0.0563,2.00675 0.15004,1.76294 z m -0.18755,-4.93248 0.0188,-0.76894 0,0.0563 0.15003,-1.95048 -0.0188,0.0375 0.15004,-1.03151 -1.23781,-0.18755 -0.15004,1.06902 -0.15004,1.96924 0,0.78769 z m 0.50638,-4.85746 0.31883,-1.48162 -0.0188,0.0563 0.52513,-1.8192 -0.0188,0.0375 0.13128,-0.33758 -1.18154,-0.41261 -0.13129,0.35634 -0.52513,1.83796 -0.31883,1.50037 z m 1.35033,-4.72618 0.0938,-0.24381 -0.0188,0.0375 0.75019,-1.74418 -0.0188,0.0375 0.69393,-1.44411 -1.12528,-0.54389 -0.69393,1.44411 -0.76894,1.76294 -0.0938,0.28132 z m 2.08177,-4.4261 0.46887,-0.84396 -0.0188,0.0188 1.01276,-1.63165 -0.0188,0.0188 0.48762,-0.71268 -1.05026,-0.69392 -0.48762,0.73143 -1.01275,1.65041 -0.46887,0.86272 z m 2.6069,-4.18229 1.05026,-1.46287 0,0.0188 1.16279,-1.55664 -0.99399,-0.75019 -1.18155,1.55664 -1.05026,1.48162 z m 3.00075,-3.93848 1.76294,-2.17555 0,0.0188 0.6189,-0.71268 -0.93773,-0.8252 -0.63766,0.71267 -1.78169,2.17555 z m 3.20705,-3.82596 1.21905,-1.4066 0,0.0188 1.25656,-1.4066 -0.93773,-0.84396 -1.25656,1.4066 -1.23781,1.42535 z m 1.50037,4.70743 1.988,-9.56489 -9.30232,3.00075 c -0.31883,0.0938 -0.50638,0.45011 -0.39385,0.76894 0.0938,0.33759 0.45011,0.52513 0.7877,0.4126 l 8.27081,-2.66316 -0.80645,-0.71268 -1.76294,8.49587 c -0.075,0.33758 0.15004,0.67517 0.48762,0.75019 0.33758,0.0563 0.67517,-0.15004 0.73143,-0.48762 z"
         id="path3055"
         style="fill:#000000;fill-opacity:1;fill-rule:nonzero;stroke:#000000;stroke-width:0.01875467px;stroke-linecap:butt;stroke-linejoin:round;stroke-opacity:1;stroke-dasharray:none" />
      <text
         x="363.29001"
         y="376.82861"
         id="text3057"
         xml:space="preserve"
         style="font-size:11.2528038px;font-style:normal;font-weight:normal;text-align:start;text-anchor:start;fill:#000000;font-family:Verdana">2) Spawn</text>
      <text
         x="363.29001"
         y="390.33197"
         id="text3059"
         xml:space="preserve"
         style="font-size:11.2528038px;font-style:normal;font-weight:normal;text-align:start;text-anchor:start;fill:#000000;font-family:Verdana">Task</text>
      <text
         x="466.0697"
         y="317.28958"
         id="text3061"
         xml:space="preserve"
         style="font-size:11.2528038px;font-style:normal;font-weight:normal;text-align:start;text-anchor:start;fill:#000000;font-family:Verdana">3) Register JARs &amp;</text>
      <text
         x="466.81989"
         y="330.79294"
         id="text3063"
         xml:space="preserve"
         style="font-size:11.2528038px;font-style:normal;font-weight:normal;text-align:start;text-anchor:start;fill:#000000;font-family:Verdana">create </text>
      <text
         x="505.97964"
         y="330.79294"
         id="text3065"
         xml:space="preserve"
         style="font-size:11.2528038px;font-style:normal;font-weight:normal;text-align:start;text-anchor:start;fill:#000000;font-family:Verdana">Classloader</text>
      <path
         d="m 413.35298,291.37259 3.75093,0.37509 -0.11253,1.23781 -3.75093,-0.37509 z m 4.98874,0.48762 3.75093,0.33758 -0.11252,1.23781 -3.75094,-0.33758 z m 4.98874,0.45011 3.71343,0.3751 -0.11253,1.2378 -3.71343,-0.37509 z m 4.98875,0.48762 3.71342,0.33759 -0.11253,1.23781 -3.75093,-0.33759 z m 4.95123,0.45012 3.75093,0.37509 -0.11253,1.23781 -3.75093,-0.33759 z m 4.98874,0.48762 3.75094,0.33758 -0.11253,1.23781 -3.75094,-0.33758 z m 4.98874,0.45011 3.71343,0.37509 -0.11253,1.23781 -3.71342,-0.33758 z m 4.98875,0.48762 3.71342,0.33758 -0.11253,1.23781 -3.75093,-0.33758 z m 4.95123,0.45011 3.75093,0.3751 -0.11252,1.2378 -3.75094,-0.33758 z m 4.98874,0.48762 3.75094,0.33759 -0.11253,1.23781 -3.75093,-0.33759 z m 4.98875,0.45012 3.71342,0.37509 -0.11253,1.23781 -3.71342,-0.33759 z m 4.98874,0.48762 3.71342,0.33758 -0.11252,1.23781 -3.75094,-0.33758 z m 4.95123,0.45011 3.75094,0.37509 -0.11253,1.23781 -3.75094,-0.33758 z m 4.98875,0.48762 3.75093,0.33759 -0.11253,1.2378 -3.75093,-0.33758 z m 4.98874,0.45011 3.71342,0.3751 -0.11252,1.23781 -3.71343,-0.33759 z m 4.98874,0.48762 3.71343,0.33759 -0.11253,1.23781 -3.75094,-0.33759 z m 4.95123,0.45012 3.75094,0.37509 -0.11253,1.23781 -3.75093,-0.33759 z m 4.98875,0.48762 3.75093,0.33758 -0.15004,1.23781 -3.71342,-0.33758 z m 4.98874,0.45011 3.71343,0.37509 -0.11253,1.23781 -3.71343,-0.33758 z m 4.98874,0.48762 3.71343,0.33759 -0.11253,1.2378 -3.75093,-0.33758 z m 4.95124,0.45011 3.75093,0.3751 -0.11253,1.23781 -3.75093,-0.33759 z m 4.98874,0.48763 3.75093,0.33758 -0.15003,1.23781 -3.71343,-0.33759 z m 4.98874,0.45011 3.71343,0.37509 -0.11253,1.23781 -3.71343,-0.33758 z m 4.98874,0.48762 3.71343,0.33758 -0.11253,1.23781 -3.75093,-0.33758 z m 4.95124,0.45011 3.75093,0.3751 -0.11253,1.2378 -3.75093,-0.33758 z m 4.98874,0.48762 3.75094,0.33759 -0.15004,1.23781 -3.71343,-0.33759 z m 4.98874,0.45012 3.71343,0.37509 -0.11253,1.23781 -3.71342,-0.33759 z m 4.98875,0.48762 3.71342,0.33758 -0.11253,1.27532 -3.75093,-0.37509 z m 4.95123,0.45011 3.75093,0.37509 -0.11252,1.23781 -3.75094,-0.33758 z m 4.98874,0.48762 3.75094,0.33758 -0.15004,1.27532 -3.71343,-0.37509 z m 4.98875,0.45011 3.71342,0.3751 -0.11253,1.2378 -3.71342,-0.33758 z m 4.95123,0.48762 3.75093,0.33759 -0.11252,1.27532 -3.75094,-0.3751 z m 4.98874,0.45012 3.75094,0.37509 -0.11253,1.23781 -3.75094,-0.33759 z m 4.98874,0.48762 3.75094,0.33758 -0.15004,1.27532 -3.71342,-0.37509 z m 4.98875,0.45011 3.71342,0.37509 -0.11253,1.23781 -3.71342,-0.33758 z m 4.95123,0.48762 3.75094,0.33759 -0.11253,1.27531 -3.75094,-0.37509 z m 4.98874,0.45011 3.75094,0.3751 -0.11253,1.23781 -3.75093,-0.33759 z m 4.98875,0.48762 3.75093,0.33759 -0.15004,1.27532 -3.71342,-0.3751 z m 4.98874,0.45012 3.71342,0.37509 -0.11252,1.23781 -3.71343,-0.33759 z m 4.95123,0.48762 3.75094,0.33758 -0.11253,1.27532 -3.75093,-0.37509 z m 4.98875,0.48762 3.75093,0.33758 -0.11253,1.23781 -3.75093,-0.33758 z m -192.53547,-12.60314 -7.91447,-5.66391 8.8522,-4.12603 c 0.30008,-0.11253 0.67517,0 0.82521,0.30008 0.15004,0.33758 0,0.71267 -0.30007,0.86271 l -7.87697,3.63841 0.11253,-1.08777 7.05176,5.06376 c 0.26256,0.22505 0.33758,0.60015 0.15003,0.90022 -0.22505,0.26257 -0.60014,0.33759 -0.90022,0.11253 z m 189.8723,8.027 7.91447,5.66391 -8.8522,4.12603 c -0.30008,0.15004 -0.67517,0 -0.82521,-0.30008 -0.15003,-0.33758 0,-0.71267 0.30008,-0.8252 l 7.87696,-3.67592 -0.075,1.08777 -7.08926,-5.06376 c -0.26257,-0.18754 -0.33759,-0.60015 -0.11253,-0.86271 0.18754,-0.30008 0.56264,-0.33759 0.86271,-0.15004 z"
         id="path3067"
         style="fill:#000000;fill-opacity:1;fill-rule:nonzero;stroke:#000000;stroke-width:0.03750934px;stroke-linecap:butt;stroke-linejoin:round;stroke-opacity:1;stroke-dasharray:none" />
      <text
         x="471.6203"
         y="259.23071"
         id="text3069"
         xml:space="preserve"
         style="font-size:11.2528038px;font-style:normal;font-weight:normal;text-align:start;text-anchor:start;fill:#000000;font-family:Verdana">4) Reserve network</text>
      <text
         x="499.97736"
         y="272.7341"
         id="text3071"
         xml:space="preserve"
         style="font-size:11.2528038px;font-style:normal;font-weight:normal;text-align:start;text-anchor:start;fill:#000000;font-family:Verdana">resources</text>
      <path
         d="m 413.31547,277.04402 3.75093,0 0,1.27532 -3.75093,-0.0375 z m 4.98874,0 3.75093,0.0375 0,1.23781 -3.75093,0 z m 5.02625,0.0375 3.75094,0 0,1.23781 -3.75094,0 z m 4.98875,0 3.75093,0 0,1.27532 -3.75093,-0.0375 z m 4.98874,0 3.75093,0.0375 0,1.23781 -3.75093,0 z m 5.02625,0.0375 3.75093,0 0,1.23781 -3.75093,0 z m 4.98874,0 3.75094,0 0,1.27532 -3.75094,0 z m 4.98875,0.0375 3.75093,0 0,1.23781 -3.75093,0 z m 5.02625,0 3.75093,0 0,1.27531 -3.75093,-0.0375 z m 4.98874,0 3.75094,0.0375 0,1.2378 -3.75094,0 z m 4.98874,0.0375 3.75094,0 0,1.2378 -3.75094,0 z m 5.02626,0 3.75093,0 0,1.27531 -3.75093,-0.0375 z m 4.98874,0 3.75093,0.0375 0,1.2378 -3.75093,0 z m 4.98874,0.0375 3.75094,0 0,1.2378 -3.75094,0 z m 5.02625,0 3.75094,0 0,1.27531 -3.75094,-0.0375 z m 4.98875,0 3.75093,0.0375 0,1.23781 -3.75093,0 z m 4.98874,0.0375 3.75093,0 0,1.23781 -3.75093,0 z m 5.02625,0 3.75094,0 0,1.27532 -3.75094,0 z m 4.98874,0.0375 3.75094,0 0,1.23781 -3.75094,0 z m 4.98875,0 3.75093,0 0,1.27532 -3.75093,-0.0375 z m 5.02625,0 3.75093,0.0375 0,1.23781 -3.75093,0 z m 4.98874,0.0375 3.75094,0 0,1.23781 -3.75094,0 z m 4.98874,0 3.75094,0 0,1.27532 -3.75094,-0.0375 z m 5.02626,0 3.75093,0.0375 0,1.23781 -3.75093,0 z m 4.98874,0.0375 3.75093,0 0,1.23781 -3.75093,0 z m 4.98874,0 3.75094,0 0,1.27532 -3.75094,-0.0375 z m 5.02625,0 3.75094,0.0375 0,1.23781 -3.75094,0 z m 4.98875,0.0375 3.75093,0 0,1.23781 -3.75093,0 z m 4.98874,0 3.75093,0 0,1.27532 -3.75093,-0.0375 z m 5.02625,0.0375 3.75094,0 0,1.23781 -3.75094,0 z m 4.98875,0 3.75093,0 0,1.23781 -3.75093,0 z m 4.98874,0 3.75093,0.0375 0,1.23781 -3.75093,0 z m 5.02625,0.0375 3.75093,0 0,1.23781 -3.75093,0 z m 4.98874,0 3.75094,0 0,1.27532 -3.75094,-0.0375 z m 4.98875,0 3.75093,0.0375 0,1.23781 -3.75093,0 z m 5.02625,0.0375 3.75093,0 0,1.23781 -3.75093,0 z m 4.98874,0 3.75094,0 0,1.27532 -3.75094,-0.0375 z m 4.98874,0 3.75094,0.0375 0,1.23781 -3.75094,0 z m 5.02626,0.0375 3.75093,0 0,1.23781 -3.75093,0 z m 4.98874,0 3.75093,0 0,1.27532 -3.75093,-0.0375 z m 4.98874,0 3.75094,0.0375 0,1.23781 -3.75094,0 z m 5.02625,0.0375 2.70068,0 0,1.23781 -2.70068,0 z m -197.8993,4.98874 -8.40209,-4.91372 8.4396,-4.91373 c 0.30008,-0.15003 0.67517,-0.075 0.86272,0.22506 0.15003,0.30007 0.075,0.67517 -0.22506,0.86271 l 0,0 -7.53938,4.35109 0,-1.08777 7.50187,4.4261 c 0.30008,0.15004 0.4126,0.52513 0.22506,0.82521 -0.18755,0.30007 -0.56264,0.4126 -0.86272,0.22505 z m 193.43569,-9.30232 8.40209,4.95124 -8.4396,4.87621 c -0.30007,0.18755 -0.67517,0.075 -0.86271,-0.22505 -0.15004,-0.30008 -0.0375,-0.67517 0.26256,-0.86272 l 0,0 7.50187,-4.35108 0,1.08777 -7.50187,-4.38859 c -0.30007,-0.18755 -0.37509,-0.56265 -0.22505,-0.86272 0.18754,-0.30007 0.56264,-0.4126 0.86271,-0.22506 z"
         id="path3073"
         style="fill:#000000;fill-opacity:1;fill-rule:nonzero;stroke:#000000;stroke-width:0.03750934px;stroke-linecap:butt;stroke-linejoin:round;stroke-opacity:1;stroke-dasharray:none" />
      <text
         x="342.75513"
         y="228.67596"
         id="text3075"
         xml:space="preserve"
         style="font-size:11.2528038px;font-style:normal;font-weight:normal;text-align:start;text-anchor:start;fill:#000000;font-family:Verdana">7) Execute Code</text>
      <path
         d="m 337.47157,395.02966 -3.73218,-0.26256 0.075,-1.23781 3.75094,0.26256 z m -4.98874,-0.33758 -3.73218,-0.26257 0.075,-1.23781 3.75093,0.24381 z m -4.98874,-0.33759 -3.73218,-0.26256 0.075,-1.25656 3.75093,0.26256 z m -4.98875,-0.35634 -3.73218,-0.26256 0.075,-1.23781 3.75094,0.26257 z m -4.98874,-0.33758 -3.75093,-0.26256 0.0938,-1.23781 3.75093,0.24381 z m -4.98874,-0.33758 -3.75094,-0.26257 0.0938,-1.25656 3.75093,0.26256 z m -4.98874,-0.35634 -3.75094,-0.26257 0.0938,-1.23781 3.75094,0.26257 z m -4.98875,-0.33759 -3.75093,-0.26256 0.0938,-1.23781 3.73218,0.24381 z m -4.98874,-0.33758 -3.75093,-0.26257 0.0938,-1.25656 3.73218,0.26257 z m -4.98874,-0.35634 -3.75094,-0.26256 0.0938,-1.23781 3.73218,0.26256 z m -4.98875,-0.33758 -3.75093,-0.26257 0.0938,-1.23781 3.73218,0.24381 z m -4.98874,-0.33759 -3.75093,-0.26256 0.0938,-1.25657 3.73218,0.26257 z m -4.98874,-0.35634 -3.75094,-0.26256 0.0938,-1.23781 3.73218,0.26257 z m -4.98874,-0.33758 -3.75094,-0.26257 0.0938,-1.2378 3.73218,0.24381 z m -4.98875,-0.33758 -3.75093,-0.26257 0.0938,-1.25656 3.73218,0.26256 z m -4.98874,-0.35634 -3.75093,-0.26257 0.0938,-1.23781 3.73218,0.26257 z m -4.98874,-0.33759 -3.75094,-0.26256 0.0938,-1.23781 3.73218,0.24381 z m -4.98875,-0.33758 -3.75093,-0.26257 0.0938,-1.25656 3.73218,0.26257 z m -4.98874,-0.35634 -3.75093,-0.26257 0.0938,-1.2378 3.73218,0.26256 z m -5.0075,-0.33758 -3.73218,-0.26257 0.0938,-1.23781 3.73218,0.24381 z m -4.98874,-0.33759 -3.73218,-0.26256 0.0938,-1.25657 3.73217,0.26257 z m -4.98874,-0.35634 -3.73218,-0.26256 0.075,-1.23781 3.75093,0.26256 z m -4.98874,-0.33758 -3.73218,-0.26257 0.075,-1.2378 3.75094,0.24381 z m -4.98875,-0.33759 -3.73218,-0.26256 0.075,-1.25656 3.75094,0.26256 z m -4.98874,-0.35633 -1.63166,-0.11253 0,0 -2.10052,-0.11253 0.075,-1.23781 2.10052,0.11253 1.65041,0.11253 z m -4.96999,-0.30008 -2.08177,-0.11253 0,0 -1.66916,-0.075 0.0563,-1.25656 1.68792,0.0938 2.06302,0.11253 z m -5.0075,-0.26256 -2.15678,-0.11253 -1.5754,-0.075 0.0563,-1.25656 1.59415,0.0938 2.15678,0.11253 z m -4.98874,-0.24381 -1.91297,-0.0938 -1.83796,-0.075 0.075,-1.25656 1.8192,0.0938 1.91298,0.075 z m -4.98874,-0.22506 -1.36909,-0.075 0,0 -2.11928,-0.075 -0.26257,-0.0188 0.0563,-1.23781 0.26256,0 2.11928,0.0938 1.36909,0.0563 z m -4.98874,-0.22506 -0.54389,-0.0188 0,0 -1.98799,-0.0563 -1.21906,-0.0563 0.0375,-1.23781 1.21905,0.0375 0,0 1.988,0.075 0.54389,0.0188 z m -5.0075,-0.16879 -1.33158,-0.0375 -1.80045,-0.0563 -0.60015,-0.0188 0.0375,-1.25656 0.60015,0.0188 1.80045,0.0563 1.33158,0.0375 z m -4.98874,-0.15004 -1.63166,-0.0563 0.0188,0 -2.13803,-0.0375 0.0375,-1.25656 2.11928,0.0563 1.63166,0.0375 z m -4.98875,-0.13128 -3.03825,-0.0563 -0.71268,0 0.0187,-1.25657 0.71268,0.0188 3.03826,0.0563 z m -5.00749,-0.075 -1.03151,-0.0187 -2.71943,-0.0375 0.0188,-1.25656 2.71942,0.0375 1.03151,0.0188 z m -4.98875,-0.075 -1.68792,0 -2.06301,-0.0188 0,-1.25656 2.08177,0.0188 1.66916,0.0188 z m -5.00749,-0.0188 -3.45086,-0.0188 0,-1.25656 3.46961,0.0188 z m 3.71342,4.29482 -8.40209,-4.95123 8.4396,-4.87622 c 0.30007,-0.16879 0.67517,-0.075 0.86271,0.22506 0.1688,0.30007 0.0563,0.67516 -0.24381,0.86271 l -7.50187,4.35109 0,-1.08778 7.48312,4.40735 c 0.30007,0.16879 0.39385,0.54389 0.22506,0.84396 -0.1688,0.30008 -0.56264,0.41261 -0.86272,0.22506 z"
         id="path3077"
         style="fill:#000000;fill-opacity:1;fill-rule:nonzero;stroke:#000000;stroke-width:0.01875467px;stroke-linecap:butt;stroke-linejoin:round;stroke-opacity:1;stroke-dasharray:none" />
      <text
         x="176.70174"
         y="473.80713"
         id="text3079"
         xml:space="preserve"
         style="font-size:11.2528038px;font-style:normal;font-weight:normal;text-align:start;text-anchor:start;fill:#000000;font-family:Verdana">10) Report Final Status</text>
      <path
         d="m 393.7731,303.31931 0.8252,3.65717 -1.21905,0.26256 -0.8252,-3.65716 z m 1.08777,4.87622 0.18755,0.8252 0,0 0.65641,2.83196 -1.21905,0.28132 -0.65642,-2.83196 -0.18754,-0.84396 z m 1.12528,4.87621 0.37509,1.61291 0,0 0.50638,2.00675 -1.2003,0.31883 -0.52513,-2.02551 -0.37509,-1.63166 z m 1.2003,4.83871 0.60015,2.34433 -0.0188,-0.0187 0.3751,1.27532 -1.2003,0.33758 -0.3751,-1.27532 -0.60014,-2.36309 z m 1.31283,4.8012 0.84396,2.94448 0,-0.0188 0.2063,0.65642 -1.2003,0.37509 -0.2063,-0.65641 -0.84396,-2.96324 z m 1.42535,4.76368 0.26257,0.80645 0,-0.0188 0.90022,2.6069 0,-0.0188 0.0563,0.15004 -1.16278,0.43136 -0.0563,-0.15004 -0.91898,-2.6069 -0.26256,-0.80645 z m 1.66917,4.68867 0.46886,1.21905 0,-0.0188 0.93774,2.25056 -1.14404,0.48762 -0.95649,-2.26931 -0.46886,-1.21906 z m 1.93173,4.55739 0.69392,1.48161 -0.0188,-0.0187 0.95648,1.89422 -1.10652,0.56264 -0.95649,-1.89422 -0.71268,-1.48162 z m 2.2318,4.4261 0.90023,1.57539 0,-0.0187 1.03151,1.6129 -1.05027,0.67517 -1.05026,-1.63166 -0.91898,-1.59415 z m 2.6069,4.18229 1.12528,1.55664 -0.0188,-0.0188 1.12528,1.42536 -0.97524,0.78769 -1.14404,-1.44411 -1.12528,-1.57539 z m 3.01951,3.90097 1.27531,1.46287 0,-0.0188 1.23781,1.29407 -0.90022,0.88147 -1.25657,-1.31282 -1.29407,-1.48162 z m 3.37584,3.61965 1.42535,1.35034 -0.0188,0 1.33158,1.18154 -0.84396,0.93774 -1.33158,-1.2003 -1.42536,-1.36909 z m 3.65716,3.33834 1.53788,1.27531 -0.0187,0 1.38784,1.06902 -0.76894,0.994 -1.38785,-1.08777 -1.53788,-1.29408 z m 3.88222,3.09452 3.03825,2.19429 -0.73143,1.01276 -3.03826,-2.1943 z m 4.051,2.88822 3.11328,2.08176 -0.69392,1.05027 -3.11328,-2.08177 z m 4.14479,2.75693 3.16954,2.00675 -0.65642,1.05026 -3.16954,-1.98799 z m 4.23855,2.66317 3.1883,1.95048 -0.65642,1.06902 -3.18829,-1.95049 z m -0.56264,-5.36384 4.63241,8.58964 -9.77119,-0.2063 c -0.33758,0 -0.6189,-0.30008 -0.60015,-0.63766 0,-0.33758 0.28132,-0.6189 0.63766,-0.6189 l 8.68342,0.18754 -0.56264,0.91898 -4.12603,-7.65191 c -0.16879,-0.30007 -0.0563,-0.67516 0.26256,-0.84396 0.30008,-0.16879 0.67517,-0.0563 0.84396,0.26257 z"
         id="path3081"
         style="fill:#000000;fill-opacity:1;fill-rule:nonzero;stroke:#000000;stroke-width:0.01875467px;stroke-linecap:butt;stroke-linejoin:round;stroke-opacity:1;stroke-dasharray:none" />
      <path
         d="m 374.73711,409.63955 -2.36309,2.92573 -0.97525,-0.7877 2.36309,-2.92572 z m -3.15079,3.88222 -2.13803,2.66316 -0.2063,0.26257 -0.97525,-0.7877 0.22506,-0.26256 0,0 2.13803,-2.64441 z m -3.13203,3.90097 -2.36309,2.90697 -0.97524,-0.78769 2.36309,-2.90698 z m -3.15078,3.88222 -1.14404,1.38784 -1.23781,1.51913 -0.97524,-0.80645 1.25656,-1.50037 0,0 1.12528,-1.38785 z m -3.1883,3.86346 -2.38184,2.88822 -0.97524,-0.7877 2.40059,-2.88822 z m -3.18829,3.86346 -0.075,0.0938 -2.34434,2.77569 -0.95648,-0.80645 2.32558,-2.77569 0,0.0188 0.0938,-0.11253 z m -3.22581,3.82596 -2.21305,2.6069 -0.22505,0.26256 -0.93774,-0.8252 0.22506,-0.24382 -0.0188,0 2.21306,-2.6069 z m -3.26331,3.80719 -2.45686,2.81321 -0.93773,-0.80646 2.45686,-2.83195 z m -3.28207,3.76969 -1.06901,1.21906 -1.44411,1.57539 -0.91898,-0.84396 1.42535,-1.57539 0,0.0188 1.06902,-1.21905 z m -3.35708,3.71343 -2.53188,2.77569 -0.91898,-0.84396 2.53188,-2.77569 z m -3.3946,3.69467 -2.56939,2.71943 -0.0188,0.0188 -0.90023,-0.88147 0.0188,-0.0187 0,0 2.56939,-2.70068 z m -3.45086,3.61965 -1.89422,1.95049 -0.75019,0.73143 -0.88147,-0.88147 0.73144,-0.73143 0,0 1.89422,-1.93173 z m -3.52588,3.56339 -1.18154,1.18154 -1.51913,1.44411 -0.86271,-0.90022 1.50037,-1.44411 0,0 1.18154,-1.16279 z m -3.60089,3.50712 -0.41261,0.39385 -2.34433,2.15679 -0.84396,-0.91898 2.32558,-2.15679 0,0.0188 0.4126,-0.39385 z m -3.69467,3.3946 -2.47562,2.21305 -0.33758,0.28132 -0.80646,-0.93773 0.31883,-0.28132 0,0 2.47562,-2.1943 z m -3.76969,3.31957 -1.61291,1.38785 -1.27531,1.01275 -0.7877,-0.97524 1.25656,-1.01275 0,0.0188 1.61291,-1.38784 z m -3.86347,3.1883 -0.71267,0.58139 -2.25056,1.74419 -0.76895,-0.994 2.25057,-1.72543 -0.0188,0 0.71268,-0.58139 z m -3.97599,3.09452 -2.71942,1.988 -0.31883,0.22505 -0.71268,-1.03151 0.31883,-0.22505 -0.0188,0.0187 2.71943,-1.98799 z m -4.06976,2.92573 -1.70668,1.16279 -1.42535,0.91898 -0.67517,-1.03151 1.4066,-0.93773 0,0.0187 1.68792,-1.16279 z m -4.18229,2.77569 -0.60015,0.39385 -2.62566,1.55664 -0.63765,-1.06902 2.60689,-1.55664 -0.0188,0 0.60015,-0.37509 z m -4.31358,2.58815 -2.58814,1.4441 -0.73143,0.3751 -0.56264,-1.12528 0.71267,-0.35634 -0.0187,0 2.56939,-1.42536 z m -4.4261,2.38184 -1.36909,0.69392 -2.02551,0.95649 -0.54388,-1.14404 2.0255,-0.93773 -0.0188,0.0188 1.35034,-0.69393 z m -4.53863,2.17554 -0.0938,0.0375 -3.30083,1.38785 -0.11252,0.0375 -0.43136,-1.16278 0.0938,-0.0375 -0.0188,0 3.28207,-1.3691 -0.0375,0.0188 0.0938,-0.0375 z m -4.66991,1.89422 -2.06302,0.76894 -1.50037,0.48763 -0.39385,-1.18155 1.50037,-0.48762 -0.0375,0.0188 2.06301,-0.76894 z m -4.74494,1.65041 -0.71267,0.22506 -2.92573,0.82521 -0.33759,-1.2003 2.90698,-0.82521 -0.0188,0.0188 0.69393,-0.22506 z m -4.87621,1.35034 -2.8132,0.65641 -0.88147,0.15004 -0.22506,-1.23781 0.86272,-0.15003 -0.0188,0 2.79445,-0.63766 z m -4.93248,1.03151 -1.53788,0.28132 -2.1943,0.28132 -0.16879,-1.23781 2.17554,-0.28132 -0.0188,0 1.51912,-0.28132 z m -4.96999,0.73143 -0.33758,0.0563 -3.41335,0.31883 -0.13128,-1.23781 3.41335,-0.33758 -0.0188,0 0.31883,-0.0375 z m -5.02625,0.46887 -3.15078,0.16879 -0.61891,0.0188 -0.0188,-1.25656 0.60015,0 -0.0188,0 3.13203,-0.18755 z m -5.0075,0.22505 -2.19429,0.0375 -1.5754,0 0,-1.25656 1.5754,0.0188 -0.0188,0 2.17554,-0.0563 z m -5.02625,0.0188 -1.29407,0 -2.47562,-0.0938 0.0375,-1.23781 2.47562,0.075 -0.0188,0 1.27532,0.0188 z m -5.02625,-0.13129 -0.45011,-0.0188 -3.30083,-0.2063 0.075,-1.23781 3.30083,0.2063 -0.0188,0 0.45011,0 z m -5.0075,-0.30007 -3.75093,-0.31883 0.11252,-1.25656 3.73218,0.31883 z m -5.0075,-0.45011 -3.30082,-0.3751 -0.43136,-0.0563 0.15004,-1.23781 0.43136,0.0563 0,0 3.30082,0.35633 z m -4.96998,-0.60015 -2.70068,-0.35634 -1.0315,-0.15004 0.18754,-1.23781 1.03151,0.1688 -0.0188,-0.0188 2.68192,0.35634 z m -4.96999,-0.69393 -2.10053,-0.31882 -1.6129,-0.28132 0.2063,-1.23781 1.61291,0.28132 -0.0188,0 2.10052,0.31883 z m -4.95124,-0.80645 -1.55663,-0.26256 -2.13804,-0.4126 0.22506,-1.21906 2.13803,0.39385 0,0 1.53789,0.26257 z m -4.93247,-0.90022 -1.01276,-0.2063 -2.66316,-0.54389 0.24381,-1.23781 2.66316,0.56264 0,0 1.01276,0.18755 z m -4.89497,-1.01275 -0.50638,-0.0938 -3.16954,-0.71267 0.26257,-1.21906 3.16953,0.69393 0,0 0.48763,0.11252 z m -4.91373,-1.08777 -3.6384,-0.88147 0.28132,-1.21906 3.65716,0.88147 z m -4.85746,-1.18155 -3.6384,-0.93773 0.31882,-1.21906 3.61966,0.93774 z m -4.85746,-1.27532 -3.18829,-0.86271 -0.43136,-0.13128 0.33758,-1.2003 0.43136,0.11253 0,0 3.1883,0.88147 z m -4.81995,-1.35033 -2.58814,-0.73143 -1.03151,-0.31883 0.37509,-1.2003 1.03151,0.31883 -0.0188,0 2.56939,0.73143 z m -4.8012,-1.4066 -1.93173,-0.60015 -1.66916,-0.52513 0.39385,-1.18155 1.65041,0.52513 -0.0188,0 1.93173,0.5814 z m -4.78244,-1.50038 -1.23781,-0.39384 -2.34433,-0.7877 0.39385,-1.18155 2.34433,0.76895 0,0 1.21906,0.39384 z m -4.76368,-1.57539 -0.48763,-0.15004 -3.05701,-1.06901 0.41261,-1.18155 3.05701,1.05026 -0.0188,0 0.48762,0.1688 z m -4.74494,-1.65041 -3.46961,-1.25656 -0.0563,-0.0375 0.45011,-1.16279 0.0563,0.0188 -0.0188,0 3.46961,1.27532 z m -4.68866,-1.72543 -2.49438,-0.93773 -1.01275,-0.41261 0.45011,-1.16279 1.03151,0.39385 -0.0188,0 2.47561,0.93774 z m -4.66992,-1.8192 -1.4066,-0.56264 -2.08177,-0.84396 0.46887,-1.16279 2.08177,0.86271 0,-0.0188 1.38784,0.56264 z m -4.65116,-1.89423 -0.22505,-0.0938 -3.22581,-1.38784 0.48763,-1.14404 3.2258,1.38785 0,0 0.22506,0.0938 z m -4.59489,-1.98799 -2.13803,-0.97524 -1.29408,-0.60015 0.54389,-1.12528 1.27532,0.60015 -0.0188,0 2.13804,0.95648 z m -4.55739,-2.10052 -0.6189,-0.30008 -2.75694,-1.36909 0.56264,-1.10653 2.73819,1.3691 0,-0.0188 0.60014,0.30008 z m -4.50112,-2.26932 -1.83796,-0.994 -1.4441,-0.84396 0.6189,-1.06901 1.44411,0.8252 -0.0188,0 1.83796,0.994 z m -4.36984,-2.45686 -0.2063,-0.11253 -2.64441,-1.63166 -0.37509,-0.26256 0.69392,-1.03151 0.3751,0.24381 -0.0188,-0.0188 2.62566,1.63165 -0.0188,-0.0187 0.2063,0.11253 z m -4.25731,-2.70067 -1.12528,-0.75019 -1.96924,-1.38785 0.71268,-1.0315 1.96924,1.38784 -0.0188,0 1.12528,0.75019 z m -4.12602,-2.88822 -1.87547,-1.42536 -1.10653,-0.88147 0.7877,-0.97524 1.10652,0.88147 -0.0188,-0.0188 1.85671,1.4066 z m -3.95724,-3.09452 -0.22506,-0.18755 -2.2318,-1.89422 -0.41261,-0.3751 0.82521,-0.93773 0.4126,0.37509 -0.0187,-0.0187 2.2318,1.89422 -0.0188,-0.0188 0.22506,0.18754 z m -3.8072,-3.30083 -0.8252,-0.75018 -1.93174,-1.81921 0.86272,-0.90022 1.91298,1.8192 0,-0.0188 0.8252,0.75018 z m -3.65716,-3.45086 -1.31283,-1.33158 -1.31282,-1.36909 0.91897,-0.86271 1.29408,1.36909 0,-0.0188 1.31282,1.33158 z m -3.48837,-3.61965 -1.72543,-1.91297 -0.76894,-0.91898 0.95649,-0.80645 0.76894,0.91897 -0.0188,-0.0188 1.72543,1.89422 z m -3.30082,-3.78844 -2.08177,-2.45686 -0.33758,-0.43136 0.97524,-0.76894 0.33758,0.43135 -0.0187,-0.0187 2.08177,2.43811 z m -3.1883,-3.88222 -2.30682,-2.96324 0.97524,-0.76894 2.30683,2.96324 z m -3.05701,-3.99474 -2.19429,-3.03826 1.01275,-0.73143 2.1943,3.03825 z m -2.92573,-4.06977 -2.10052,-3.11327 1.05026,-0.69393 2.10053,3.09452 z m -2.79444,-4.14478 -0.0563,-0.0938 -1.96924,-3.09452 1.05026,-0.67517 1.96925,3.09452 0,-0.0188 0.0375,0.075 z m -2.70067,-4.23856 -0.3751,-0.60015 -1.59415,-2.6069 1.06902,-0.65641 1.57539,2.6069 0,-0.0187 0.39385,0.60015 z m -2.6069,-4.27606 -0.71268,-1.14404 -1.219056,-2.08177 1.087776,-0.63765 1.21905,2.08176 -0.0188,-0.0188 0.71268,1.14403 z m -2.569394,-4.31358 -0.993998,-1.70667 -0.88147,-1.53788 1.087771,-0.61891 0.88147,1.53788 0,0 0.994001,1.68792 z m -2.494372,-4.33233 -1.856712,-3.26331 1.087771,-0.6189 1.856712,3.26331 z m -2.475617,-4.35108 -0.993997,-1.74418 1.087771,-0.61891 0.993997,1.74419 z m -1.162789,6.63915 0.09377,-9.77118 8.439602,4.89497 c 0.30008,0.16879 0.41261,0.54388 0.24381,0.84396 -0.18754,0.30007 -0.56264,0.4126 -0.86271,0.22506 l -7.520627,-4.33233 0.937733,-0.54389 -0.07502,8.68341 c 0,0.35634 -0.300075,0.61891 -0.637659,0.61891 -0.337584,0 -0.618904,-0.28132 -0.618904,-0.61891 z"
         id="path3083"
         style="fill:#000000;fill-opacity:1;fill-rule:nonzero;stroke:#000000;stroke-width:0.01875467px;stroke-linecap:butt;stroke-linejoin:round;stroke-opacity:1;stroke-dasharray:none" />
      <path
         d="m 333.64562,364.70336 -3.37584,-1.63166 0.54388,-1.12528 3.37584,1.63166 z m -4.50112,-2.17555 -3.37584,-1.63165 0.54388,-1.12528 3.37584,1.63165 z m -4.50112,-2.17554 -3.37584,-1.63165 0.54388,-1.12528 3.37584,1.63165 z m -4.50112,-2.17554 -3.37585,-1.6129 0.54389,-1.12528 3.37584,1.6129 z m -4.50113,-2.13803 -0.56264,-0.26257 0,0 -2.83195,-1.33158 0.52513,-1.12528 2.85071,1.31283 0.54388,0.26256 z m -4.53863,-2.11928 -2.19429,-1.01275 0,0 -1.2003,-0.54389 0.50637,-1.14403 1.21906,0.54388 2.19429,1.03151 z m -4.53863,-2.06301 -3.41335,-1.53789 0.50638,-1.14403 3.41335,1.53788 z m -4.55738,-2.04426 -3.45086,-1.48162 0.50637,-1.14404 3.43211,1.48162 z m -4.5949,-1.988 -0.78769,-0.33758 0,0 -2.66317,-1.08777 0.46887,-1.16279 2.68192,1.10652 0.80645,0.33759 z m -4.61365,-1.89422 -2.28807,-0.93773 0.0188,0 -1.2003,-0.45012 0.45011,-1.18154 1.2003,0.46887 2.30682,0.93773 z m -4.6324,-1.83796 -3.50712,-1.35033 0.45011,-1.16279 3.50712,1.35033 z m -4.66991,-1.76294 -3.52588,-1.25656 0.4126,-1.18154 3.54463,1.25656 z m -4.70743,-1.66916 -0.39384,-0.15004 0.0188,0.0187 -3.0195,-0.99399 0.0187,0 -0.16879,-0.0375 0.37509,-1.2003 0.1688,0.0563 3.0195,0.97525 0.39385,0.15003 z m -4.72617,-1.53789 -1.66917,-0.52513 0.0188,0 -1.93173,-0.56264 0.33759,-1.2003 1.95048,0.5814 1.66917,0.50637 z m -4.78245,-1.42535 -2.85071,-0.76894 0.0188,0 -0.76894,-0.18755 0.30007,-1.21905 0.76894,0.18754 2.86947,0.7877 z m -4.81995,-1.27532 -0.99399,-0.24381 0.0188,0 -2.66316,-0.60015 0.28132,-1.21905 2.66316,0.6189 0.994,0.24381 z m -4.8387,-1.08777 -2.04426,-0.4126 0.0188,0 -1.65041,-0.30008 0.22506,-1.23781 1.65041,0.30008 2.04426,0.4126 z m -4.91373,-0.93773 -0.0563,0 0.0188,0 -2.92572,-0.45012 0.0188,0 -0.73143,-0.0938 0.15004,-1.23781 0.75018,0.0938 2.92573,0.45011 0.075,0.0188 z m -4.91372,-0.69393 -0.95649,-0.11252 0.0188,0 -2.7757,-0.28132 0.11253,-1.23781 2.79445,0.26256 0.95649,0.13129 z m -4.93248,-0.46886 -1.76294,-0.13129 0.0188,0 -1.988,-0.075 0.0375,-1.23781 2.00675,0.075 1.76294,0.11252 z m -4.96999,-0.22506 -2.49437,-0.0188 0.0188,0 -1.25657,0.0375 -0.0375,-1.23781 1.27532,-0.0375 2.51313,0 z m -4.96999,0.0563 -0.33758,0.0188 0.0188,0 -2.83196,0.16879 0.0188,0 -0.58139,0.0563 -0.11253,-1.23781 0.5814,-0.0563 2.85071,-0.18754 0.35634,0 z m -4.95123,0.3751 -0.994,0.0938 0.0188,0 -2.71943,0.35634 -0.16879,-1.25656 2.73818,-0.35634 1.01275,-0.0938 z m -4.91372,0.63766 -1.6129,0.24381 0.0187,0 -2.08177,0.39385 -0.24381,-1.21906 2.10052,-0.39385 1.61291,-0.26256 z m -4.89497,0.88147 -2.21305,0.48762 0,0 -1.42536,0.35634 -0.30007,-1.21906 1.44411,-0.35634 2.2318,-0.48762 z m -4.85746,1.12528 -0.0938,0.0375 0.0188,0 -2.73818,0.75018 0.0187,-0.0188 -0.76894,0.24381 -0.37509,-1.2003 0.78769,-0.24381 2.75694,-0.75019 0.11253,-0.0188 z m -4.76369,1.36909 -0.75019,0.22505 0,0 -2.70067,0.88147 0.0188,0 -0.11253,0.0375 -0.41261,-1.18154 0.11253,-0.0375 2.71943,-0.88147 0.75019,-0.24381 z m -4.72618,1.55664 -1.4066,0.50637 0,0 -2.10052,0.7877 -0.45011,-1.16279 2.11928,-0.80645 1.42535,-0.50638 z m -4.66991,1.74418 -2.10052,0.82521 0.0188,0 -1.36909,0.58139 -0.48762,-1.14403 1.36909,-0.60015 2.11928,-0.82521 z m -4.59489,1.89422 -2.83196,1.21906 0.0188,0 -0.60015,0.28132 -0.54388,-1.12528 0.6189,-0.30008 2.83196,-1.21905 z m -4.55739,2.02551 -3.3946,1.59414 -0.52513,-1.12528 3.3946,-1.59414 z m -4.50112,2.15678 -3.33833,1.66917 -0.56264,-1.10653 3.33833,-1.68792 z m -4.44486,2.23181 -3.31958,1.76294 -0.58139,-1.10653 3.30082,-1.76294 z m -4.40735,2.36309 -0.71267,0.37509 0,0 -2.56939,1.42536 -0.60015,-1.08777 2.56939,-1.44411 0.71267,-0.3751 z m -4.36984,2.41935 -1.57539,0.88147 0,-0.0188 -1.68792,0.97524 -0.6189,-1.08777 1.68792,-0.97524 1.57539,-0.88147 z m -4.33232,2.47562 -2.45687,1.4066 0,0 -0.78769,0.46887 -0.63766,-1.06902 0.78769,-0.46887 2.45687,-1.42535 z m -4.31358,2.51312 -3.2258,1.91298 -0.63766,-1.06902 3.2258,-1.91297 z m -4.29482,2.55064 -3.20705,1.95049 -0.65641,-1.06902 3.2258,-1.95049 z m -4.27606,2.58814 -3.20705,1.95049 -0.65642,-1.06902 3.20705,-1.95048 z m 4.23855,2.45687 -9.75243,0.16879 4.65116,-8.57089 c 0.16879,-0.31883 0.56264,-0.43135 0.86272,-0.26256 0.30007,0.16879 0.4126,0.54388 0.24381,0.84396 l -4.14479,7.63315 -0.56264,-0.91898 8.68342,-0.15004 c 0.33758,0 0.6189,0.28132 0.63766,0.61891 0,0.35634 -0.28132,0.63766 -0.61891,0.63766 z"
         id="path3085"
         style="fill:#000000;fill-opacity:1;fill-rule:nonzero;stroke:#000000;stroke-width:0.01875467px;stroke-linecap:butt;stroke-linejoin:round;stroke-opacity:1;stroke-dasharray:none" />
      <text
         x="185.18915"
         y="378.70007"
         id="text3087"
         xml:space="preserve"
         style="font-size:11.2528038px;font-style:normal;font-weight:normal;text-align:start;text-anchor:start;fill:#000000;font-family:Verdana">6) Report RUNNING</text>
      <text
         x="427.65692"
         y="384.4632"
         id="text3089"
         xml:space="preserve"
         style="font-size:11.2528038px;font-style:normal;font-weight:normal;text-align:start;text-anchor:start;fill:#000000;font-family:Verdana">5) Report </text>
      <text
         x="429.30734"
         y="397.96655"
         id="text3091"
         xml:space="preserve"
         style="font-size:11.2528038px;font-style:normal;font-weight:normal;text-align:start;text-anchor:start;fill:#000000;font-family:Verdana">RUNNING</text>
      <text
         x="544.18958"
         y="384.4632"
         id="text3093"
         xml:space="preserve"
         style="font-size:11.2528038px;font-style:normal;font-weight:normal;text-align:start;text-anchor:start;fill:#000000;font-family:Verdana">9) Report </text>
      <text
         x="514.18207"
         y="397.96655"
         id="text3095"
         xml:space="preserve"
         style="font-size:11.2528038px;font-style:normal;font-weight:normal;text-align:start;text-anchor:start;fill:#000000;font-family:Verdana">FINISHED / FAILED,</text>
      <text
         x="521.53394"
         y="411.46994"
         id="text3097"
         xml:space="preserve"
         style="font-size:11.2528038px;font-style:normal;font-weight:normal;text-align:start;text-anchor:start;fill:#000000;font-family:Verdana">release resources</text>
      <text
         x="154.61417"
         y="324.84464"
         id="text3099"
         xml:space="preserve"
         style="font-size:11.2528038px;font-style:normal;font-weight:normal;text-align:start;text-anchor:start;fill:#000000;font-family:Verdana">8) Report periodic statistics</text>
      <path
         d="m 404.91337,301.6689 2.25056,3.00075 -0.99399,0.75019 -2.25056,-3.00075 z m 3.00075,3.99475 2.26932,3.00075 -1.01276,0.75018 -2.25056,-3.00074 z m 3.0195,3.99474 2.28807,2.96324 -0.99399,0.76894 -2.28807,-2.98199 z m 3.05702,3.95724 2.28807,2.96324 -0.994,0.76894 -2.28807,-2.98199 z m 3.05701,3.93848 2.25056,2.8132 0,0 0.0938,0.11253 -0.97524,0.7877 -0.0938,-0.11253 -2.25056,-2.83196 z m 3.13203,3.88222 2.08177,2.55063 0,0 0.28132,0.33759 -0.93774,0.80645 -0.30007,-0.33759 -2.10053,-2.55063 z m 3.18829,3.84471 1.91298,2.25056 0,0 0.52513,0.58139 -0.93773,0.82521 -0.52514,-0.5814 -1.93173,-2.26931 z m 3.26331,3.76968 1.74419,1.96925 -0.0188,-0.0188 0.76895,0.82521 -0.91898,0.84396 -0.76894,-0.82521 -1.74419,-1.96924 z m 3.35709,3.69468 1.53788,1.65041 -0.0188,0 1.05026,1.05026 -0.90022,0.88147 -1.05026,-1.06902 -1.53789,-1.66916 z m 3.45086,3.60089 1.31283,1.35034 0,-0.0188 1.33158,1.27532 -0.86272,0.91898 -1.35033,-1.29407 -1.33158,-1.36909 z m 3.54463,3.48837 1.10653,1.03151 -0.0188,0 1.66917,1.48162 -0.84396,0.93773 -1.66917,-1.50037 -1.10652,-1.05026 z m 3.67592,3.35709 0.8252,0.73143 -0.0188,-0.0188 2.04426,1.68792 -0.80645,0.97524 -2.04426,-1.70668 -0.82521,-0.75018 z m 3.8072,3.20705 0.54388,0.45011 -0.0187,0 2.41935,1.83796 -0.76894,0.99399 -2.41935,-1.85671 -0.56264,-0.46887 z m 3.91972,3.05701 0.26257,0.18754 -0.0188,-0.0188 2.8132,1.96924 -0.73144,1.03151 -2.8132,-1.988 -0.26256,-0.18754 z m 4.05101,2.85071 3.16954,2.00675 -0.67517,1.05026 -3.16953,-2.00675 z m 4.20105,2.64441 3.26331,1.85671 -0.6189,1.08777 -3.26331,-1.85671 z m 4.33233,2.4381 3.33833,1.72543 -0.56264,1.10653 -3.33833,-1.72543 z m 4.44486,2.25057 3.35708,1.55663 -0.0375,-0.0188 0.0563,0.0375 -0.48762,1.14403 -0.0563,-0.0375 -3.35708,-1.55663 z m 4.53863,2.04425 3.20705,1.3691 -0.0188,-0.0188 0.24381,0.0938 -0.45011,1.18155 -0.24381,-0.11253 -3.2258,-1.35034 z m 4.59489,1.89423 3.13203,1.18154 -0.0188,0 0.39385,0.13128 -0.41261,1.18155 -0.39385,-0.13128 -3.13203,-1.2003 z m 4.68867,1.72543 3.03826,1.08777 0,-0.0188 0.48762,0.16879 -0.37509,1.18155 -0.50638,-0.15004 -3.05701,-1.08777 z m 4.70742,1.6129 3.03826,0.95649 -0.0187,0 0.54388,0.15003 -0.33758,1.2003 -0.56264,-0.15003 -3.03826,-0.97525 z m 4.76369,1.46286 3.05701,0.90023 0,0 0.54389,0.15003 -0.33759,1.2003 -0.54388,-0.15003 -3.05701,-0.90023 z m 4.8012,1.36909 3.11327,0.84396 0,0 0.50638,0.13129 -0.31883,1.21905 -0.50638,-0.13128 -3.11327,-0.84396 z m 4.81995,1.27532 3.2258,0.82521 -0.0188,0 0.43135,0.0938 -0.30007,1.21905 -0.4126,-0.11252 -3.22581,-0.80646 z m 4.85746,1.2003 3.33833,0.80645 -0.0188,-0.0188 0.31883,0.075 -0.28132,1.21905 -0.31883,-0.075 -3.33833,-0.7877 z m 4.85746,1.14404 3.50712,0.76894 -0.0188,0 0.16879,0.0375 -0.26257,1.21905 -0.16879,-0.0188 -3.50712,-0.7877 z m 4.87621,1.06901 3.67592,0.76894 -0.26257,1.21906 -3.67591,-0.76894 z m 4.89497,1.03151 3.67592,0.76894 -0.26257,1.21905 -3.67591,-0.76894 z m 4.89497,1.01275 3.67592,0.73143 -0.24381,1.23781 -3.67592,-0.75019 z m 4.89497,0.97524 3.09452,0.61891 -0.24381,1.23781 -3.09452,-0.61891 z m -3.11328,-4.98874 7.29557,6.47036 -9.2273,3.16954 c -0.31883,0.11253 -0.67517,-0.0563 -0.78769,-0.39385 -0.11253,-0.31882 0.0563,-0.67516 0.37509,-0.78769 l 8.21455,-2.83196 -0.2063,1.06902 -6.48912,-5.75769 c -0.26257,-0.24381 -0.28132,-0.63765 -0.0563,-0.88146 0.22506,-0.26257 0.61891,-0.28133 0.88147,-0.0563 z"
         id="path3101"
         style="fill:#000000;fill-opacity:1;fill-rule:nonzero;stroke:#000000;stroke-width:0.01875467px;stroke-linecap:butt;stroke-linejoin:round;stroke-opacity:1;stroke-dasharray:none" />
    </g>
  </g>
</svg>
