<?xml version="1.0" encoding="utf-8"?>
<!-- Generator: Adobe Illustrator 24.1.2, SVG Export Plug-In . SVG Version: 6.00 Build 0)  -->
<svg version="1.1" id="图层_1" xmlns="http://www.w3.org/2000/svg" xmlns:xlink="http://www.w3.org/1999/xlink" x="0px" y="0px"
	 viewBox="0 0 359.5 710.6" style="enable-background:new 0 0 359.5 710.6;" xml:space="preserve">
<style type="text/css">
	.st0{clip-path:url(#SVGID_2_);}
	.st1{fill-rule:evenodd;clip-rule:evenodd;fill:#FAFAFA;}
	.st2{fill:none;stroke:#000000;stroke-linejoin:round;stroke-miterlimit:10;}
	.st3{fill-rule:evenodd;clip-rule:evenodd;fill:#CFE2F3;}
	.st4{fill-rule:evenodd;clip-rule:evenodd;fill:#FFF2CC;}
	.st5{fill-rule:evenodd;clip-rule:evenodd;fill-opacity:0;}
	.st6{fill:none;stroke:#000000;stroke-linejoin:round;stroke-miterlimit:10;stroke-dasharray:4,3;}
	.st7{fill-rule:evenodd;clip-rule:evenodd;fill:#B7B7B7;}
	.st8{fill:#FFFFFF;}
	.st9{fill-rule:evenodd;clip-rule:evenodd;fill:#D9EAD3;}
	.st10{fill-rule:evenodd;clip-rule:evenodd;fill:#FFE599;}
	.st11{fill-rule:evenodd;clip-rule:evenodd;fill:#FCE5CD;}
	.st12{fill-rule:evenodd;clip-rule:evenodd;fill:#B6D7A8;}
	.st13{fill-rule:evenodd;clip-rule:evenodd;fill:#EFEFEF;}
	.st14{fill-rule:evenodd;clip-rule:evenodd;fill:#F3F3F3;}
</style>
<g>
	<g>
		<defs>
			<rect id="SVGID_1_" x="4.1" y="5" width="351" height="790.7"/>
		</defs>
		<clipPath id="SVGID_2_">
			<use xlink:href="#SVGID_1_"  style="overflow:visible;"/>
		</clipPath>
		<g class="st0">
			<path class="st1" d="M4.1,5h350.2v701.4H4.1V5z"/>
			<path class="st2" d="M4.1,5h350.2v701.4H4.1V5z"/>
			<path d="M91.8,31.9V20.1h-4.4v-1.6H98v1.6h-4.4v11.8C93.6,31.9,91.8,31.9,91.8,31.9z M96.9,27c0-1.8,0.5-3.1,1.5-4
				c0.8-0.7,1.8-1.1,3-1.1c1.3,0,2.4,0.4,3.3,1.3c0.8,0.9,1.3,2.1,1.3,3.6c0,1.2-0.2,2.2-0.6,2.9c-0.4,0.7-0.9,1.3-1.6,1.7
				c-0.7,0.4-1.5,0.6-2.3,0.6c-1.4,0-2.4-0.4-3.3-1.3C97.3,29.9,96.9,28.7,96.9,27z M98.6,27c0,1.2,0.3,2.2,0.8,2.8
				c0.5,0.6,1.2,0.9,2,0.9s1.5-0.3,2-0.9s0.8-1.6,0.8-2.8c0-1.2-0.3-2.1-0.8-2.7s-1.2-0.9-2-0.9s-1.5,0.3-2,0.9
				C98.8,24.9,98.6,25.8,98.6,27z M111.4,30.4l0.2,1.5c-0.5,0.1-0.9,0.1-1.2,0.1c-0.6,0-1.1-0.1-1.4-0.3c-0.3-0.2-0.6-0.4-0.7-0.7
				c-0.1-0.3-0.2-1-0.2-1.9v-5.6H107v-1.3h1.2v-2.4l1.6-1v3.4h1.7v1.3h-1.7v5.7c0,0.5,0,0.8,0.1,0.9s0.2,0.2,0.3,0.3
				c0.1,0.1,0.3,0.1,0.6,0.1C110.9,30.5,111.1,30.5,111.4,30.4z M119.4,30.7c-0.6,0.5-1.2,0.9-1.8,1.1c-0.6,0.2-1.2,0.3-1.8,0.3
				c-1.1,0-1.9-0.3-2.5-0.8s-0.9-1.2-0.9-2c0-0.5,0.1-0.9,0.3-1.3c0.2-0.4,0.5-0.7,0.8-0.9c0.4-0.2,0.8-0.4,1.2-0.5
				c0.3-0.1,0.8-0.2,1.5-0.2c1.3-0.2,2.3-0.3,2.9-0.6c0-0.2,0-0.4,0-0.4c0-0.7-0.2-1.1-0.5-1.4c-0.4-0.4-1-0.5-1.9-0.5
				c-0.8,0-1.3,0.1-1.7,0.4c-0.4,0.3-0.6,0.7-0.8,1.4l-1.6-0.2c0.1-0.7,0.4-1.2,0.7-1.6c0.3-0.4,0.8-0.8,1.5-1
				c0.6-0.2,1.4-0.3,2.2-0.3c0.8,0,1.5,0.1,2,0.3c0.5,0.2,0.9,0.4,1.1,0.7c0.3,0.3,0.4,0.7,0.5,1.1c0.1,0.3,0.1,0.8,0.1,1.5V28
				c0,1.5,0,2.5,0.1,2.9s0.2,0.8,0.4,1.2h-1.7C119.5,31.5,119.4,31.1,119.4,30.7z M119.2,27c-0.6,0.2-1.5,0.5-2.7,0.6
				c-0.7,0.1-1.2,0.2-1.4,0.3c-0.3,0.1-0.5,0.3-0.7,0.5c-0.1,0.2-0.2,0.5-0.2,0.8c0,0.4,0.2,0.8,0.5,1.1c0.3,0.3,0.8,0.4,1.5,0.4
				c0.6,0,1.2-0.1,1.7-0.4s0.9-0.7,1.1-1.1s0.3-0.9,0.3-1.6V27H119.2z M123.4,31.9V18.5h1.6v13.4H123.4z M133,31.9V18.5h5
				c0.9,0,1.6,0,2,0.1c0.6,0.1,1.2,0.3,1.6,0.6c0.4,0.3,0.8,0.7,1.1,1.3c0.3,0.6,0.4,1.2,0.4,1.8c0,1.1-0.4,2.1-1.1,2.9
				c-0.7,0.8-2,1.2-3.9,1.2h-3.4v5.4H133V31.9z M134.7,24.9h3.5c1.1,0,2-0.2,2.4-0.6s0.7-1,0.7-1.8c0-0.6-0.1-1-0.4-1.4
				c-0.3-0.4-0.7-0.7-1.1-0.8c-0.3-0.1-0.8-0.1-1.6-0.1h-3.4L134.7,24.9L134.7,24.9z M145.2,31.9v-9.7h1.5v1.5
				c0.4-0.7,0.7-1.1,1-1.4c0.3-0.2,0.7-0.3,1.1-0.3c0.6,0,1.1,0.2,1.7,0.5l-0.6,1.5c-0.4-0.2-0.8-0.4-1.2-0.4s-0.7,0.1-1,0.3
				s-0.5,0.5-0.6,0.9c-0.2,0.6-0.3,1.2-0.3,1.9v5.1L145.2,31.9L145.2,31.9z M150.8,27c0-1.8,0.5-3.1,1.5-4c0.8-0.7,1.8-1.1,3-1.1
				c1.3,0,2.4,0.4,3.3,1.3c0.8,0.9,1.3,2.1,1.3,3.6c0,1.2-0.2,2.2-0.6,2.9c-0.4,0.7-0.9,1.3-1.6,1.7c-0.7,0.4-1.5,0.6-2.3,0.6
				c-1.4,0-2.4-0.4-3.3-1.3C151.2,29.9,150.8,28.7,150.8,27z M152.5,27c0,1.2,0.3,2.2,0.8,2.8c0.5,0.6,1.2,0.9,2,0.9s1.5-0.3,2-0.9
				s0.8-1.6,0.8-2.8c0-1.2-0.3-2.1-0.8-2.7s-1.2-0.9-2-0.9s-1.5,0.3-2,0.9S152.5,25.8,152.5,27z M168.1,28.3l1.6,0.2
				c-0.2,1.1-0.6,2-1.4,2.6c-0.7,0.6-1.6,0.9-2.7,0.9c-1.3,0-2.4-0.4-3.2-1.3s-1.2-2.1-1.2-3.7c0-1.1,0.2-2,0.5-2.8s0.9-1.4,1.6-1.8
				c0.7-0.4,1.5-0.6,2.3-0.6c1.1,0,1.9,0.3,2.6,0.8c0.7,0.5,1.1,1.3,1.3,2.3l-1.6,0.2c-0.2-0.6-0.4-1.1-0.8-1.5
				c-0.4-0.3-0.8-0.5-1.4-0.5c-0.8,0-1.5,0.3-2,0.9s-0.8,1.5-0.8,2.8s0.2,2.2,0.8,2.8c0.5,0.6,1.2,0.9,2,0.9c0.6,0,1.2-0.2,1.6-0.6
				C167.7,29.8,168,29.2,168.1,28.3z M177.7,28.8l1.7,0.2c-0.3,1-0.8,1.8-1.5,2.3s-1.6,0.8-2.8,0.8c-1.4,0-2.5-0.4-3.4-1.3
				c-0.8-0.9-1.2-2.1-1.2-3.7s0.4-2.9,1.2-3.8s1.9-1.3,3.3-1.3c1.3,0,2.3,0.4,3.2,1.3c0.8,0.9,1.2,2.1,1.2,3.7c0,0.1,0,0.2,0,0.4
				h-7.2c0.1,1.1,0.4,1.9,0.9,2.5s1.2,0.8,2,0.8c0.6,0,1.1-0.2,1.5-0.5C177.2,30,177.5,29.5,177.7,28.8z M172.4,26.1h5.4
				c-0.1-0.8-0.3-1.4-0.6-1.8c-0.5-0.6-1.2-1-2-1s-1.4,0.3-1.9,0.8C172.7,24.6,172.4,25.3,172.4,26.1z M180.8,29l1.6-0.2
				c0.1,0.6,0.3,1.1,0.8,1.5c0.4,0.3,1,0.5,1.8,0.5s1.3-0.2,1.7-0.5s0.5-0.7,0.5-1.1s-0.2-0.7-0.5-0.9c-0.2-0.1-0.8-0.3-1.7-0.5
				c-1.2-0.3-2-0.6-2.5-0.8c-0.5-0.2-0.8-0.5-1-0.9s-0.4-0.8-0.4-1.3c0-0.4,0.1-0.8,0.3-1.2c0.2-0.4,0.5-0.7,0.8-0.9
				c0.3-0.2,0.6-0.3,1-0.5c0.4-0.1,0.9-0.2,1.4-0.2c0.8,0,1.4,0.1,2,0.3c0.6,0.2,1,0.5,1.3,0.9s0.5,0.9,0.6,1.5l-1.6,0.2
				c-0.1-0.5-0.3-0.9-0.6-1.2c-0.3-0.3-0.8-0.4-1.5-0.4c-0.8,0-1.3,0.1-1.6,0.4c-0.3,0.2-0.5,0.5-0.5,0.9c0,0.2,0.1,0.4,0.2,0.6
				c0.1,0.2,0.3,0.3,0.6,0.4c0.2,0.1,0.6,0.2,1.4,0.4c1.2,0.3,2,0.6,2.4,0.8c0.5,0.2,0.8,0.5,1.1,0.9s0.4,0.8,0.4,1.4
				s-0.2,1.1-0.5,1.5c-0.3,0.5-0.8,0.9-1.4,1.1c-0.6,0.3-1.3,0.4-2,0.4c-1.2,0-2.2-0.3-2.9-0.8C181.4,30.8,181,30,180.8,29z
				 M190.2,29l1.6-0.2c0.1,0.6,0.3,1.1,0.8,1.5c0.4,0.3,1,0.5,1.8,0.5s1.3-0.2,1.7-0.5s0.5-0.7,0.5-1.1s-0.2-0.7-0.5-0.9
				c-0.2-0.1-0.8-0.3-1.7-0.5c-1.2-0.3-2-0.6-2.5-0.8c-0.5-0.2-0.8-0.5-1-0.9s-0.4-0.8-0.4-1.3c0-0.4,0.1-0.8,0.3-1.2
				c0.2-0.4,0.5-0.7,0.8-0.9c0.3-0.2,0.6-0.3,1-0.5c0.4-0.1,0.9-0.2,1.4-0.2c0.8,0,1.4,0.1,2,0.3c0.6,0.2,1,0.5,1.3,0.9
				s0.5,0.9,0.6,1.5l-1.6,0.2c-0.1-0.5-0.3-0.9-0.6-1.2c-0.3-0.3-0.8-0.4-1.5-0.4c-0.8,0-1.3,0.1-1.6,0.4c-0.3,0.2-0.5,0.5-0.5,0.9
				c0,0.2,0.1,0.4,0.2,0.6c0.1,0.2,0.3,0.3,0.6,0.4c0.2,0.1,0.6,0.2,1.4,0.4c1.2,0.3,2,0.6,2.4,0.8c0.5,0.2,0.8,0.5,1.1,0.9
				s0.4,0.8,0.4,1.4s-0.2,1.1-0.5,1.5c-0.3,0.5-0.8,0.9-1.4,1.1c-0.6,0.3-1.3,0.4-2,0.4c-1.2,0-2.2-0.3-2.9-0.8
				C190.8,30.8,190.3,30,190.2,29z M205.5,31.9V18.5h2.7l3.2,9.5c0.3,0.9,0.5,1.5,0.6,2c0.2-0.5,0.4-1.2,0.7-2.1l3.2-9.3h2.4V32
				h-1.7V20.7l-3.9,11.2h-1.6l-3.9-11.4v11.4C207.2,31.9,205.5,31.9,205.5,31.9z M227.5,28.8l1.7,0.2c-0.3,1-0.8,1.8-1.5,2.3
				s-1.6,0.8-2.8,0.8c-1.4,0-2.5-0.4-3.4-1.3c-0.8-0.9-1.2-2.1-1.2-3.7s0.4-2.9,1.2-3.8s1.9-1.3,3.3-1.3c1.3,0,2.3,0.4,3.2,1.3
				c0.8,0.9,1.2,2.1,1.2,3.7c0,0.1,0,0.2,0,0.4H222c0.1,1.1,0.4,1.9,0.9,2.5s1.2,0.8,2,0.8c0.6,0,1.1-0.2,1.5-0.5
				C226.9,30,227.3,29.5,227.5,28.8z M222.1,26.1h5.4c-0.1-0.8-0.3-1.4-0.6-1.8c-0.5-0.6-1.2-1-2-1s-1.4,0.3-1.9,0.8
				C222.4,24.6,222.2,25.3,222.1,26.1z M231.3,31.9v-9.7h1.5v1.4c0.3-0.5,0.7-0.9,1.2-1.1c0.5-0.3,1.1-0.4,1.7-0.4
				c0.7,0,1.3,0.2,1.8,0.5s0.8,0.7,1,1.2c0.8-1.1,1.8-1.7,3-1.7c1,0,1.7,0.3,2.2,0.8s0.8,1.3,0.8,2.5V32h-1.6v-6.1
				c0-0.7-0.1-1.1-0.2-1.4c-0.1-0.3-0.3-0.5-0.6-0.7s-0.6-0.3-1-0.3c-0.7,0-1.2,0.2-1.7,0.7c-0.4,0.4-0.7,1.2-0.7,2.2V32H237v-6.3
				c0-0.7-0.1-1.3-0.4-1.6s-0.7-0.5-1.3-0.5c-0.5,0-0.9,0.1-1.3,0.4s-0.7,0.6-0.9,1.1s-0.2,1.1-0.2,2v5h-1.6V31.9z M246.2,27
				c0-1.8,0.5-3.1,1.5-4c0.8-0.7,1.8-1.1,3-1.1c1.3,0,2.4,0.4,3.3,1.3c0.8,0.9,1.3,2.1,1.3,3.6c0,1.2-0.2,2.2-0.6,2.9
				c-0.4,0.7-0.9,1.3-1.6,1.7c-0.7,0.4-1.5,0.6-2.3,0.6c-1.4,0-2.4-0.4-3.3-1.3C246.6,29.9,246.2,28.7,246.2,27z M247.9,27
				c0,1.2,0.3,2.2,0.8,2.8c0.5,0.6,1.2,0.9,2,0.9s1.5-0.3,2-0.9s0.8-1.6,0.8-2.8c0-1.2-0.3-2.1-0.8-2.7s-1.2-0.9-2-0.9
				s-1.5,0.3-2,0.9C248.1,24.9,247.9,25.8,247.9,27z M257.2,31.9v-9.7h1.5v1.5c0.4-0.7,0.7-1.1,1-1.4c0.3-0.2,0.7-0.3,1.1-0.3
				c0.6,0,1.1,0.2,1.7,0.5l-0.6,1.5c-0.4-0.2-0.8-0.4-1.2-0.4c-0.4,0-0.7,0.1-1,0.3s-0.5,0.5-0.6,0.9c-0.2,0.6-0.3,1.2-0.3,1.9v5.1
				L257.2,31.9L257.2,31.9z M263.3,35.6l-0.2-1.5c0.4,0.1,0.7,0.1,0.9,0.1c0.4,0,0.7-0.1,0.9-0.2c0.2-0.1,0.4-0.3,0.5-0.5
				s0.3-0.6,0.5-1.2c0-0.1,0.1-0.2,0.1-0.4l-3.7-9.7h1.8l2,5.6c0.3,0.7,0.5,1.5,0.7,2.2c0.2-0.8,0.4-1.5,0.7-2.2l2.1-5.6h1.6
				l-3.7,9.8c-0.4,1.1-0.7,1.8-0.9,2.2c-0.3,0.5-0.6,0.9-1,1.2s-0.8,0.4-1.3,0.4C264,35.8,263.7,35.7,263.3,35.6z"/>
			<path class="st3" d="M45.8,91.9h270.8V233H45.8V91.9z"/>
			<path class="st2" d="M45.8,91.9h270.8V233H45.8V91.9z"/>
			<path d="M138.2,115.1l1.6-0.2c0.1,1,0.2,1.7,0.6,2.1c0.3,0.4,0.8,0.6,1.4,0.6c0.4,0,0.8-0.1,1.1-0.3c0.3-0.2,0.5-0.5,0.7-0.8
				c0.1-0.4,0.2-0.9,0.2-1.7v-9.2h1.8v9.1c0,1.1-0.1,2-0.4,2.6c-0.3,0.6-0.7,1.1-1.3,1.4s-1.3,0.5-2.1,0.5c-1.2,0-2.1-0.3-2.7-1
				C138.5,117.4,138.2,116.4,138.2,115.1z M152.3,118.9l-5.2-13.4h1.9l3.5,9.7c0.3,0.8,0.5,1.5,0.7,2.2c0.2-0.7,0.4-1.5,0.7-2.2
				l3.6-9.7h1.8l-5.2,13.4H152.3z M160.9,118.9v-13.4h2.7l3.2,9.5c0.3,0.9,0.5,1.5,0.6,2c0.2-0.5,0.4-1.2,0.7-2.1l3.2-9.3h2.4V119
				H172v-11.2l-3.9,11.2h-1.6l-3.9-11.4V119L160.9,118.9L160.9,118.9z M181.7,118.9v-13.4h1.8v5.5h6.9v-5.5h1.8v13.4h-1.8v-6.3h-6.9
				v6.3H181.7z M201.5,115.7l1.7,0.2c-0.3,1-0.8,1.8-1.5,2.3s-1.6,0.8-2.8,0.8c-1.4,0-2.5-0.4-3.4-1.3c-0.8-0.9-1.2-2.1-1.2-3.7
				s0.4-2.9,1.2-3.8s1.9-1.3,3.3-1.3c1.3,0,2.3,0.4,3.2,1.3c0.8,0.9,1.2,2.1,1.2,3.7c0,0.1,0,0.3,0,0.4H196c0.1,1.1,0.4,1.9,0.9,2.5
				s1.2,0.8,2,0.8c0.6,0,1.1-0.2,1.5-0.5C200.9,116.9,201.3,116.4,201.5,115.7z M196.1,113.1h5.4c-0.1-0.8-0.3-1.4-0.6-1.8
				c-0.5-0.6-1.2-1-2-1s-1.4,0.3-1.9,0.8S196.2,112.2,196.1,113.1z M211.6,117.7c-0.6,0.5-1.2,0.9-1.8,1.1s-1.2,0.3-1.8,0.3
				c-1.1,0-1.9-0.3-2.5-0.8s-0.9-1.2-0.9-2c0-0.5,0.1-0.9,0.3-1.3s0.5-0.7,0.8-0.9c0.4-0.2,0.8-0.4,1.2-0.5c0.3-0.1,0.8-0.2,1.5-0.2
				c1.3-0.2,2.3-0.3,2.9-0.6c0-0.2,0-0.4,0-0.4c0-0.7-0.2-1.1-0.5-1.4c-0.4-0.4-1-0.5-1.9-0.5c-0.8,0-1.3,0.1-1.7,0.4
				s-0.6,0.7-0.8,1.4l-1.6-0.2c0.1-0.7,0.4-1.2,0.7-1.6s0.8-0.8,1.5-1c0.6-0.2,1.4-0.3,2.2-0.3s1.5,0.1,2,0.3
				c0.5,0.2,0.9,0.4,1.1,0.7c0.2,0.3,0.4,0.7,0.5,1.1c0.1,0.3,0.1,0.8,0.1,1.5v2.2c0,1.5,0,2.5,0.1,2.9s0.2,0.8,0.4,1.2h-1.7
				C211.7,118.5,211.6,118.1,211.6,117.7z M211.4,114c-0.6,0.3-1.5,0.5-2.7,0.6c-0.7,0.1-1.2,0.2-1.4,0.3c-0.3,0.1-0.5,0.3-0.7,0.5
				c-0.1,0.2-0.2,0.5-0.2,0.8c0,0.4,0.2,0.8,0.5,1.1c0.3,0.3,0.8,0.4,1.5,0.4c0.6,0,1.2-0.1,1.7-0.4s0.9-0.7,1.1-1.1
				c0.2-0.4,0.3-0.9,0.3-1.6V114H211.4z M215.6,122.6v-13.4h1.5v1.2c0.4-0.5,0.8-0.9,1.2-1.1s1-0.4,1.6-0.4c0.8,0,1.5,0.2,2.2,0.6
				c0.6,0.4,1.1,1,1.4,1.8c0.3,0.8,0.5,1.6,0.5,2.5c0,1-0.2,1.9-0.5,2.7c-0.4,0.8-0.9,1.4-1.5,1.8c-0.7,0.4-1.4,0.6-2.1,0.6
				c-0.5,0-1-0.1-1.5-0.3c-0.4-0.2-0.8-0.5-1.1-0.9v4.7h-1.7V122.6z M217.1,114.1c0,1.2,0.2,2.2,0.8,2.8c0.5,0.6,1.1,0.9,1.8,0.9
				s1.4-0.3,1.9-0.9s0.8-1.6,0.8-2.9c0-1.2-0.3-2.2-0.8-2.8c-0.5-0.6-1.1-0.9-1.8-0.9s-1.3,0.3-1.9,1
				C217.4,111.9,217.1,112.8,217.1,114.1z"/>
			<path class="st4" d="M45.8,248.4h270.8v422.3H45.8V248.4z"/>
			<path class="st2" d="M45.8,248.4h270.8v422.3H45.8V248.4z"/>
			<path d="M108.2,268.8c0-2.2,0.6-4,1.8-5.2c1.2-1.3,2.7-1.9,4.6-1.9c1.2,0,2.3,0.3,3.3,0.9s1.7,1.4,2.3,2.5
				c0.5,1.1,0.8,2.2,0.8,3.6s-0.3,2.6-0.8,3.6c-0.5,1.1-1.3,1.9-2.3,2.4c-1,0.6-2.1,0.8-3.2,0.8c-1.2,0-2.4-0.3-3.4-0.9
				s-1.7-1.4-2.2-2.5C108.4,271.1,108.2,270,108.2,268.8z M110,268.8c0,1.6,0.4,2.9,1.3,3.8s2,1.4,3.3,1.4s2.4-0.5,3.3-1.4
				s1.3-2.3,1.3-4c0-1.1-0.2-2-0.5-2.8s-0.9-1.4-1.6-1.9c-0.7-0.4-1.5-0.7-2.4-0.7c-1.3,0-2.3,0.4-3.2,1.3
				C110.5,265.4,110,266.8,110,268.8z M123.4,275.3v-8.4H122v-1.3h1.5v-1c0-0.6,0.1-1.1,0.2-1.5c0.2-0.4,0.4-0.8,0.8-1
				c0.4-0.3,1-0.4,1.7-0.4c0.5,0,1,0.1,1.5,0.2l-0.2,1.4c-0.3-0.1-0.7-0.1-1-0.1c-0.5,0-0.9,0.1-1.1,0.3c-0.2,0.2-0.3,0.6-0.3,1.2
				v0.9h1.9v1.3h-2v8.4H123.4z M128.3,275.3v-8.4h-1.5v-1.3h1.5v-1c0-0.6,0.1-1.1,0.2-1.5c0.2-0.4,0.4-0.8,0.8-1
				c0.4-0.3,1-0.4,1.7-0.4c0.5,0,1,0.1,1.5,0.2l-0.2,1.4c-0.3-0.1-0.7-0.1-1-0.1c-0.5,0-0.9,0.1-1.1,0.3c-0.2,0.2-0.3,0.6-0.3,1.2
				v0.9h1.9v1.3h-1.9v8.4H128.3z M132.4,271.3v-1.6h5v1.6H132.4z M139.5,275.3V262h1.8v5.5h6.9V262h1.8v13.4h-1.8V269h-6.9v6.3
				H139.5z M159.4,272.2l1.7,0.2c-0.3,1-0.8,1.8-1.5,2.3s-1.6,0.8-2.8,0.8c-1.4,0-2.5-0.4-3.4-1.3c-0.8-0.9-1.2-2.1-1.2-3.7
				s0.4-2.9,1.2-3.8s1.9-1.3,3.3-1.3c1.3,0,2.3,0.4,3.2,1.3c0.8,0.9,1.2,2.1,1.2,3.7c0,0.1,0,0.2,0,0.4h-7.2
				c0.1,1.1,0.4,1.9,0.9,2.5s1.2,0.8,2,0.8c0.6,0,1.1-0.2,1.5-0.5C158.8,273.4,159.1,272.9,159.4,272.2z M154,269.6h5.4
				c-0.1-0.8-0.3-1.4-0.6-1.8c-0.5-0.6-1.2-1-2-1s-1.4,0.3-1.9,0.8C154.3,268,154,268.7,154,269.6z M169.4,274.1
				c-0.6,0.5-1.2,0.9-1.8,1.1s-1.2,0.3-1.8,0.3c-1.1,0-1.9-0.3-2.5-0.8s-0.9-1.2-0.9-2c0-0.5,0.1-0.9,0.3-1.3s0.5-0.7,0.8-0.9
				c0.4-0.2,0.8-0.4,1.2-0.5c0.3-0.1,0.8-0.2,1.5-0.2c1.3-0.2,2.3-0.3,2.9-0.6c0-0.2,0-0.4,0-0.4c0-0.7-0.2-1.1-0.5-1.4
				c-0.4-0.4-1-0.5-1.9-0.5c-0.8,0-1.3,0.1-1.7,0.4s-0.6,0.7-0.8,1.4l-1.6-0.2c0.1-0.7,0.4-1.2,0.7-1.6s0.8-0.8,1.5-1
				c0.6-0.2,1.4-0.3,2.2-0.3s1.5,0.1,2,0.3c0.5,0.2,0.9,0.4,1.1,0.7c0.2,0.3,0.4,0.7,0.5,1.1c0.1,0.3,0.1,0.8,0.1,1.5v2.2
				c0,1.5,0,2.5,0.1,2.9s0.2,0.8,0.4,1.2h-1.7C169.6,275,169.5,274.6,169.4,274.1z M169.3,270.5c-0.6,0.2-1.5,0.5-2.7,0.6
				c-0.7,0.1-1.2,0.2-1.4,0.3s-0.5,0.3-0.7,0.5c-0.1,0.2-0.2,0.5-0.2,0.8c0,0.4,0.2,0.8,0.5,1.1c0.3,0.3,0.8,0.4,1.5,0.4
				c0.6,0,1.2-0.1,1.7-0.4s0.9-0.7,1.1-1.1c0.2-0.4,0.3-0.9,0.3-1.6v-0.6H169.3z M173.5,279v-13.4h1.5v1.2c0.4-0.5,0.8-0.9,1.2-1.1
				s1-0.4,1.6-0.4c0.8,0,1.5,0.2,2.2,0.6c0.6,0.4,1.1,1,1.4,1.8c0.3,0.8,0.5,1.6,0.5,2.5c0,1-0.2,1.9-0.5,2.7
				c-0.4,0.8-0.9,1.4-1.5,1.8c-0.7,0.4-1.4,0.6-2.1,0.6c-0.5,0-1-0.1-1.5-0.3c-0.4-0.2-0.8-0.5-1.1-0.9v4.7h-1.7V279z M175,270.5
				c0,1.2,0.2,2.2,0.8,2.8c0.5,0.6,1.1,0.9,1.8,0.9s1.4-0.3,1.9-0.9s0.8-1.6,0.8-2.9c0-1.2-0.3-2.2-0.8-2.8
				c-0.5-0.6-1.1-0.9-1.8-0.9s-1.3,0.3-1.9,1C175.2,268.4,175,269.3,175,270.5z M189.2,275.3V262h2.7l3.2,9.5c0.3,0.9,0.5,1.5,0.6,2
				c0.2-0.5,0.4-1.2,0.7-2.1l3.2-9.3h2.4v13.4h-1.7v-11.2l-3.9,11.2h-1.6l-3.9-11.4v11.4h-1.7V275.3z M211.2,272.2l1.7,0.2
				c-0.3,1-0.8,1.8-1.5,2.3s-1.6,0.8-2.8,0.8c-1.4,0-2.5-0.4-3.4-1.3c-0.8-0.9-1.2-2.1-1.2-3.7s0.4-2.9,1.2-3.8s1.9-1.3,3.3-1.3
				c1.3,0,2.3,0.4,3.2,1.3c0.8,0.9,1.2,2.1,1.2,3.7c0,0.1,0,0.2,0,0.4h-7.2c0.1,1.1,0.4,1.9,0.9,2.5s1.2,0.8,2,0.8
				c0.6,0,1.1-0.2,1.5-0.5C210.6,273.4,211,272.9,211.2,272.2z M205.8,269.6h5.4c-0.1-0.8-0.3-1.4-0.6-1.8c-0.5-0.6-1.2-1-2-1
				s-1.4,0.3-1.9,0.8C206.2,268,205.9,268.7,205.8,269.6z M215,275.3v-9.7h1.5v1.4c0.3-0.5,0.7-0.9,1.2-1.1c0.5-0.3,1.1-0.4,1.7-0.4
				c0.7,0,1.3,0.2,1.8,0.5s0.8,0.7,1,1.2c0.8-1.1,1.8-1.7,3-1.7c1,0,1.7,0.3,2.2,0.8s0.8,1.3,0.8,2.5v6.6h-1.6v-6.1
				c0-0.7-0.1-1.1-0.2-1.4c-0.1-0.3-0.3-0.5-0.6-0.7s-0.6-0.3-1-0.3c-0.7,0-1.2,0.2-1.7,0.7c-0.4,0.4-0.7,1.2-0.7,2.2v5.6h-1.6V269
				c0-0.7-0.1-1.3-0.4-1.6c-0.3-0.4-0.7-0.5-1.3-0.5c-0.5,0-0.9,0.1-1.3,0.4c-0.4,0.2-0.7,0.6-0.9,1.1s-0.2,1.1-0.2,2v5H215V275.3z
				 M229.9,270.5c0-1.8,0.5-3.1,1.5-4c0.8-0.7,1.8-1.1,3-1.1c1.3,0,2.4,0.4,3.3,1.3c0.8,0.9,1.3,2.1,1.3,3.6c0,1.2-0.2,2.2-0.6,2.9
				c-0.4,0.7-0.9,1.3-1.6,1.7c-0.7,0.4-1.5,0.6-2.3,0.6c-1.4,0-2.4-0.4-3.3-1.3C230.3,273.4,229.9,272.1,229.9,270.5z M231.6,270.5
				c0,1.2,0.3,2.2,0.8,2.8c0.5,0.6,1.2,0.9,2,0.9s1.5-0.3,2-0.9s0.8-1.6,0.8-2.8c0-1.2-0.3-2.1-0.8-2.7s-1.2-0.9-2-0.9
				s-1.5,0.3-2,0.9C231.9,268.3,231.6,269.2,231.6,270.5z M240.9,275.3v-9.7h1.5v1.5c0.4-0.7,0.7-1.1,1-1.4c0.3-0.2,0.7-0.3,1.1-0.3
				c0.6,0,1.1,0.2,1.7,0.5l-0.6,1.5c-0.4-0.2-0.8-0.4-1.2-0.4s-0.7,0.1-1,0.3s-0.5,0.5-0.6,0.9c-0.2,0.6-0.3,1.2-0.3,1.9v5.1h-1.6
				V275.3z M247,279l-0.2-1.5c0.4,0.1,0.7,0.1,0.9,0.1c0.4,0,0.7-0.1,0.9-0.2s0.4-0.3,0.5-0.5s0.3-0.6,0.5-1.2
				c0-0.1,0.1-0.2,0.1-0.4l-3.7-9.7h1.8l2,5.6c0.3,0.7,0.5,1.5,0.7,2.2c0.2-0.8,0.4-1.5,0.7-2.2l2.1-5.6h1.6l-3.7,9.8
				c-0.4,1.1-0.7,1.8-0.9,2.2c-0.3,0.5-0.6,0.9-1,1.2s-0.8,0.4-1.3,0.4C247.8,279.3,247.4,279.2,247,279z"/>
			<path class="st5" d="M23.4,47.7H335v506H23.4V47.7z"/>
			<path class="st6" d="M23.4,47.7H335v506H23.4V47.7z"/>
			<path d="M105.8,74.6V62.9h-4.4v-1.6H112v1.6h-4.4v11.8h-1.8V74.6z M110.9,69.8c0-1.8,0.5-3.1,1.5-4c0.8-0.7,1.8-1.1,3-1.1
				c1.3,0,2.4,0.4,3.3,1.3c0.8,0.9,1.3,2.1,1.3,3.6c0,1.2-0.2,2.2-0.6,2.9c-0.4,0.7-0.9,1.3-1.6,1.7c-0.7,0.4-1.5,0.6-2.3,0.6
				c-1.4,0-2.4-0.4-3.3-1.3C111.3,72.7,110.9,71.4,110.9,69.8z M112.6,69.8c0,1.2,0.3,2.2,0.8,2.8c0.5,0.6,1.2,0.9,2,0.9
				s1.5-0.3,2-0.9s0.8-1.6,0.8-2.8c0-1.2-0.3-2.1-0.8-2.7s-1.2-0.9-2-0.9s-1.5,0.3-2,0.9C112.8,67.6,112.6,68.6,112.6,69.8z
				 M125.5,73.2l0.2,1.5c-0.5,0.1-0.9,0.1-1.2,0.1c-0.6,0-1.1-0.1-1.4-0.3c-0.3-0.2-0.6-0.4-0.7-0.7c-0.1-0.3-0.2-1-0.2-1.9v-5.6
				H121V65h1.2v-2.4l1.6-1V65h1.7v1.3h-1.7V72c0,0.5,0,0.8,0.1,0.9s0.2,0.2,0.3,0.3c0.1,0.1,0.3,0.1,0.6,0.1
				C124.9,73.2,125.2,73.2,125.5,73.2z M133.4,73.4c-0.6,0.5-1.2,0.9-1.8,1.1s-1.2,0.3-1.8,0.3c-1.1,0-1.9-0.3-2.5-0.8
				s-0.9-1.2-0.9-2c0-0.5,0.1-0.9,0.3-1.3c0.2-0.4,0.5-0.7,0.8-0.9c0.4-0.2,0.7-0.4,1.2-0.5c0.3-0.1,0.8-0.2,1.5-0.2
				c1.3-0.2,2.3-0.3,2.9-0.6c0-0.2,0-0.4,0-0.4c0-0.7-0.2-1.1-0.5-1.4c-0.4-0.4-1-0.5-1.9-0.5c-0.8,0-1.3,0.1-1.7,0.4
				s-0.6,0.7-0.8,1.4l-1.6-0.2c0.1-0.7,0.4-1.2,0.7-1.6c0.3-0.4,0.8-0.8,1.5-1c0.6-0.2,1.4-0.3,2.2-0.3s1.5,0.1,2,0.3
				c0.5,0.2,0.9,0.4,1.1,0.7c0.2,0.3,0.4,0.7,0.5,1.1c0.1,0.3,0.1,0.8,0.1,1.5v2.2c0,1.5,0,2.5,0.1,2.9s0.2,0.8,0.4,1.2h-1.7
				C133.5,74.3,133.4,73.9,133.4,73.4z M133.2,69.8c-0.6,0.2-1.5,0.5-2.7,0.6c-0.7,0.1-1.2,0.2-1.4,0.3s-0.5,0.3-0.7,0.5
				c-0.1,0.2-0.2,0.5-0.2,0.8c0,0.4,0.2,0.8,0.5,1.1c0.3,0.3,0.8,0.4,1.5,0.4c0.6,0,1.2-0.1,1.7-0.4s0.9-0.7,1.1-1.1
				c0.2-0.4,0.3-0.9,0.3-1.6v-0.6H133.2z M137.4,74.6V61.3h1.6v13.4L137.4,74.6L137.4,74.6z M147.1,74.6V61.3h9v1.6h-7.2V67h6.3v1.6
				h-6.3v6.1L147.1,74.6L147.1,74.6z M158.1,74.6V61.3h1.6v13.4L158.1,74.6L158.1,74.6z M162.3,63.2v-1.9h1.6v1.9H162.3z
				 M162.3,74.6V65h1.6v9.7L162.3,74.6L162.3,74.6z M166.4,74.6V65h1.5v1.4c0.7-1.1,1.7-1.6,3.1-1.6c0.6,0,1.1,0.1,1.6,0.3
				c0.5,0.2,0.9,0.5,1.1,0.8c0.2,0.3,0.4,0.7,0.5,1.2c0.1,0.3,0.1,0.8,0.1,1.6v6h-1.6v-5.9c0-0.7-0.1-1.2-0.2-1.5
				c-0.1-0.3-0.3-0.6-0.7-0.8c-0.3-0.2-0.7-0.3-1.1-0.3c-0.7,0-1.3,0.2-1.8,0.7c-0.5,0.4-0.8,1.3-0.8,2.5v5.3L166.4,74.6L166.4,74.6
				z M176.8,74.6V61.3h1.6v7.6l3.9-3.9h2.1l-3.7,3.6l4.1,6.1h-2l-3.2-5l-1.2,1.1v3.8H176.8z M191.5,74.6V61.3h2.7l3.2,9.5
				c0.3,0.9,0.5,1.5,0.6,2c0.2-0.5,0.4-1.2,0.7-2.1l3.2-9.3h2.4v13.4h-1.7V63.5l-3.9,11.2h-1.6l-3.9-11.4v11.4L191.5,74.6
				L191.5,74.6z M213.5,71.5l1.7,0.2c-0.3,1-0.8,1.8-1.5,2.3s-1.6,0.8-2.8,0.8c-1.4,0-2.5-0.4-3.4-1.3c-0.8-0.9-1.2-2.1-1.2-3.7
				s0.4-2.9,1.2-3.8s1.9-1.3,3.3-1.3c1.3,0,2.3,0.4,3.2,1.3c0.8,0.9,1.2,2.1,1.2,3.7c0,0.1,0,0.2,0,0.4H208c0.1,1.1,0.4,1.9,0.9,2.5
				s1.2,0.8,2,0.8c0.6,0,1.1-0.2,1.5-0.5C212.9,72.7,213.3,72.2,213.5,71.5z M208.1,68.9h5.4c-0.1-0.8-0.3-1.4-0.6-1.8
				c-0.5-0.6-1.2-1-2-1s-1.4,0.3-1.9,0.8C208.4,67.4,208.2,68,208.1,68.9z M217.3,74.6V65h1.5v1.4c0.3-0.5,0.7-0.9,1.2-1.1
				c0.5-0.3,1.1-0.4,1.7-0.4c0.7,0,1.3,0.2,1.8,0.5s0.8,0.7,1,1.2c0.8-1.1,1.8-1.7,3-1.7c1,0,1.7,0.3,2.2,0.8s0.8,1.3,0.8,2.5v6.6
				h-1.6v-6.1c0-0.7-0.1-1.1-0.2-1.4c-0.1-0.3-0.3-0.5-0.6-0.7s-0.6-0.3-1-0.3c-0.7,0-1.2,0.2-1.7,0.7c-0.4,0.4-0.7,1.2-0.7,2.2v5.6
				H223v-6.3c0-0.7-0.1-1.3-0.4-1.6c-0.3-0.4-0.7-0.5-1.3-0.5c-0.5,0-0.9,0.1-1.3,0.4c-0.4,0.2-0.7,0.6-0.9,1.1s-0.2,1.1-0.2,2v5
				h-1.6V74.6z M232.2,69.8c0-1.8,0.5-3.1,1.5-4c0.8-0.7,1.8-1.1,3-1.1c1.3,0,2.4,0.4,3.3,1.3c0.8,0.9,1.3,2.1,1.3,3.6
				c0,1.2-0.2,2.2-0.6,2.9c-0.4,0.7-0.9,1.3-1.6,1.7c-0.7,0.4-1.5,0.6-2.3,0.6c-1.4,0-2.4-0.4-3.3-1.3
				C232.6,72.7,232.2,71.4,232.2,69.8z M233.9,69.8c0,1.2,0.3,2.2,0.8,2.8c0.5,0.6,1.2,0.9,2,0.9s1.5-0.3,2-0.9s0.8-1.6,0.8-2.8
				c0-1.2-0.3-2.1-0.8-2.7s-1.2-0.9-2-0.9s-1.5,0.3-2,0.9C234.1,67.6,233.9,68.6,233.9,69.8z M243.2,74.6V65h1.5v1.5
				c0.4-0.7,0.7-1.1,1-1.4c0.3-0.2,0.7-0.3,1.1-0.3c0.6,0,1.1,0.2,1.7,0.5l-0.6,1.5c-0.4-0.2-0.8-0.4-1.2-0.4s-0.7,0.1-1,0.3
				s-0.5,0.5-0.6,0.9c-0.2,0.6-0.3,1.2-0.3,1.9v5.1H243.2z M249.3,78.4l-0.2-1.5c0.4,0.1,0.7,0.1,0.9,0.1c0.4,0,0.7-0.1,0.9-0.2
				s0.4-0.3,0.5-0.5s0.3-0.6,0.5-1.2c0-0.1,0.1-0.2,0.1-0.4l-3.7-9.7h1.8l2,5.6c0.3,0.7,0.5,1.5,0.7,2.2c0.2-0.8,0.4-1.5,0.7-2.2
				l2.1-5.6h1.6l-3.7,9.8c-0.4,1.1-0.7,1.8-0.9,2.2c-0.3,0.5-0.6,0.9-1,1.2c-0.4,0.2-0.8,0.4-1.3,0.4
				C250,78.6,249.7,78.5,249.3,78.4z"/>
			<path class="st7" d="M80.5,134.4H284v39.1H80.5V134.4z"/>
			<path class="st2" d="M80.5,134.4H284v39.1H80.5V134.4z"/>
			<path class="st8" d="M112.2,160.9v-13.4h9v1.6H114v4.1h6.3v1.6H114v6.1L112.2,160.9L112.2,160.9z M123.3,160.9v-9.7h1.5v1.5
				c0.4-0.7,0.7-1.1,1-1.4c0.3-0.2,0.7-0.3,1.1-0.3c0.6,0,1.1,0.2,1.7,0.5L128,153c-0.4-0.2-0.8-0.4-1.2-0.4c-0.4,0-0.7,0.1-1,0.3
				s-0.5,0.5-0.6,0.9c-0.2,0.6-0.3,1.2-0.3,1.9v5.1L123.3,160.9L123.3,160.9z M135.9,159.7c-0.6,0.5-1.2,0.9-1.8,1.1
				c-0.6,0.2-1.2,0.3-1.8,0.3c-1.1,0-1.9-0.3-2.5-0.8s-0.9-1.2-0.9-2c0-0.5,0.1-0.9,0.3-1.3c0.2-0.4,0.5-0.7,0.8-0.9
				c0.4-0.2,0.8-0.4,1.2-0.5c0.3-0.1,0.8-0.2,1.5-0.2c1.3-0.2,2.3-0.3,2.9-0.6c0-0.2,0-0.4,0-0.4c0-0.7-0.2-1.1-0.5-1.4
				c-0.4-0.4-1-0.5-1.9-0.5c-0.8,0-1.3,0.1-1.7,0.4c-0.4,0.3-0.6,0.7-0.8,1.4l-1.6-0.2c0.1-0.7,0.4-1.2,0.7-1.6
				c0.3-0.4,0.8-0.8,1.5-1c0.6-0.2,1.4-0.3,2.2-0.3s1.5,0.1,2,0.3s0.9,0.4,1.1,0.7c0.2,0.3,0.4,0.7,0.5,1.1c0.1,0.3,0.1,0.8,0.1,1.5
				v2.2c0,1.5,0,2.5,0.1,2.9s0.2,0.8,0.4,1.2H136C136,160.5,135.9,160.1,135.9,159.7z M135.7,156c-0.6,0.2-1.5,0.5-2.7,0.6
				c-0.7,0.1-1.2,0.2-1.4,0.3s-0.5,0.3-0.7,0.5c-0.1,0.2-0.2,0.5-0.2,0.8c0,0.4,0.2,0.8,0.5,1.1s0.8,0.4,1.5,0.4
				c0.6,0,1.2-0.1,1.7-0.4c0.5-0.3,0.9-0.7,1.1-1.1c0.2-0.4,0.3-0.9,0.3-1.6V156H135.7z M139.9,160.9v-9.7h1.5v1.4
				c0.3-0.5,0.7-0.9,1.2-1.1c0.5-0.3,1.1-0.4,1.7-0.4c0.7,0,1.3,0.2,1.8,0.5s0.8,0.7,1,1.2c0.8-1.1,1.8-1.7,3-1.7
				c1,0,1.7,0.3,2.2,0.8s0.8,1.3,0.8,2.5v6.6h-1.6v-6.1c0-0.7-0.1-1.1-0.2-1.4c-0.1-0.3-0.3-0.5-0.6-0.7s-0.6-0.3-1-0.3
				c-0.7,0-1.2,0.2-1.7,0.7c-0.4,0.4-0.7,1.2-0.7,2.2v5.6h-1.6v-6.3c0-0.7-0.1-1.3-0.4-1.6c-0.3-0.4-0.7-0.5-1.3-0.5
				c-0.5,0-0.9,0.1-1.3,0.4c-0.4,0.2-0.7,0.6-0.9,1.1s-0.2,1.1-0.2,2v5h-1.7V160.9z M162.1,157.7l1.7,0.2c-0.3,1-0.8,1.8-1.5,2.3
				s-1.6,0.8-2.8,0.8c-1.4,0-2.5-0.4-3.4-1.3c-0.8-0.9-1.2-2.1-1.2-3.7c0-1.6,0.4-2.9,1.2-3.8c0.8-0.9,1.9-1.3,3.3-1.3
				c1.3,0,2.3,0.4,3.2,1.3c0.8,0.9,1.2,2.1,1.2,3.7c0,0.1,0,0.2,0,0.4h-7.2c0.1,1.1,0.4,1.9,0.9,2.5s1.2,0.8,2,0.8
				c0.6,0,1.1-0.2,1.5-0.5C161.5,158.9,161.8,158.4,162.1,157.7z M156.7,155.1h5.4c-0.1-0.8-0.3-1.4-0.6-1.8c-0.5-0.6-1.2-1-2-1
				s-1.4,0.3-1.9,0.8C157,153.6,156.8,154.2,156.7,155.1z M167.6,160.9l-3-9.7h1.7l1.5,5.6l0.6,2.1c0-0.1,0.2-0.8,0.5-2l1.5-5.7h1.7
				l1.4,5.6l0.5,1.8l0.6-1.9l1.7-5.6h1.6l-3,9.7h-1.7l-1.5-5.8l-0.4-1.6l-2,7.4L167.6,160.9L167.6,160.9z M178.7,156
				c0-1.8,0.5-3.1,1.5-4c0.8-0.7,1.8-1.1,3-1.1c1.3,0,2.4,0.4,3.3,1.3c0.8,0.9,1.3,2.1,1.3,3.6c0,1.2-0.2,2.2-0.6,2.9
				c-0.4,0.7-0.9,1.3-1.6,1.7c-0.7,0.4-1.5,0.6-2.3,0.6c-1.4,0-2.4-0.4-3.3-1.3C179.1,158.9,178.7,157.6,178.7,156z M180.4,156
				c0,1.2,0.3,2.2,0.8,2.8s1.2,0.9,2,0.9s1.5-0.3,2-0.9c0.5-0.6,0.8-1.6,0.8-2.8s-0.3-2.1-0.8-2.7c-0.5-0.6-1.2-0.9-2-0.9
				s-1.5,0.3-2,0.9C180.7,153.8,180.4,154.8,180.4,156z M189.7,160.9v-9.7h1.5v1.5c0.4-0.7,0.7-1.1,1-1.4c0.3-0.2,0.7-0.3,1.1-0.3
				c0.6,0,1.1,0.2,1.7,0.5l-0.6,1.5c-0.4-0.2-0.8-0.4-1.2-0.4s-0.7,0.1-1,0.3s-0.5,0.5-0.6,0.9c-0.2,0.6-0.3,1.2-0.3,1.9v5.1
				L189.7,160.9L189.7,160.9z M195.9,160.9v-13.4h1.6v7.6l3.9-3.9h2.1l-3.7,3.6l4.1,6.1h-2l-3.2-5l-1.2,1.1v3.8L195.9,160.9
				L195.9,160.9z M210.7,160.9v-13.4h1.8v5.5h6.9v-5.5h1.8v13.4h-1.8v-6.3h-6.9v6.3H210.7z M230.5,157.7l1.7,0.2
				c-0.3,1-0.8,1.8-1.5,2.3s-1.6,0.8-2.8,0.8c-1.4,0-2.5-0.4-3.4-1.3c-0.8-0.9-1.2-2.1-1.2-3.7c0-1.6,0.4-2.9,1.2-3.8
				c0.8-0.9,1.9-1.3,3.3-1.3c1.3,0,2.3,0.4,3.2,1.3c0.8,0.9,1.2,2.1,1.2,3.7c0,0.1,0,0.2,0,0.4H225c0.1,1.1,0.4,1.9,0.9,2.5
				s1.2,0.8,2,0.8c0.6,0,1.1-0.2,1.5-0.5C229.9,158.9,230.3,158.4,230.5,157.7z M225.1,155.1h5.4c-0.1-0.8-0.3-1.4-0.6-1.8
				c-0.5-0.6-1.2-1-2-1s-1.4,0.3-1.9,0.8S225.2,154.2,225.1,155.1z M240.6,159.7c-0.6,0.5-1.2,0.9-1.8,1.1c-0.6,0.2-1.2,0.3-1.8,0.3
				c-1.1,0-1.9-0.3-2.5-0.8s-0.9-1.2-0.9-2c0-0.5,0.1-0.9,0.3-1.3c0.2-0.4,0.5-0.7,0.8-0.9c0.4-0.2,0.8-0.4,1.2-0.5
				c0.3-0.1,0.8-0.2,1.5-0.2c1.3-0.2,2.3-0.3,2.9-0.6c0-0.2,0-0.4,0-0.4c0-0.7-0.2-1.1-0.5-1.4c-0.4-0.4-1-0.5-1.9-0.5
				c-0.8,0-1.3,0.1-1.7,0.4c-0.4,0.3-0.6,0.7-0.8,1.4l-1.6-0.2c0.1-0.7,0.4-1.2,0.7-1.6c0.3-0.4,0.8-0.8,1.5-1
				c0.6-0.2,1.4-0.3,2.2-0.3s1.5,0.1,2,0.3s0.9,0.4,1.1,0.7c0.2,0.3,0.4,0.7,0.5,1.1c0.1,0.3,0.1,0.8,0.1,1.5v2.2
				c0,1.5,0,2.5,0.1,2.9s0.2,0.8,0.4,1.2h-1.7C240.7,160.5,240.6,160.1,240.6,159.7z M240.4,156c-0.6,0.2-1.5,0.5-2.7,0.6
				c-0.7,0.1-1.2,0.2-1.4,0.3s-0.5,0.3-0.7,0.5c-0.1,0.2-0.2,0.5-0.2,0.8c0,0.4,0.2,0.8,0.5,1.1s0.8,0.4,1.5,0.4
				c0.6,0,1.2-0.1,1.7-0.4c0.5-0.3,0.9-0.7,1.1-1.1c0.2-0.4,0.3-0.9,0.3-1.6V156H240.4z M244.6,164.6v-13.4h1.5v1.2
				c0.4-0.5,0.8-0.9,1.2-1.1c0.4-0.2,1-0.4,1.6-0.4c0.8,0,1.5,0.2,2.2,0.6c0.6,0.4,1.1,1,1.4,1.8c0.3,0.8,0.5,1.6,0.5,2.5
				c0,1-0.2,1.9-0.5,2.7c-0.4,0.8-0.9,1.4-1.5,1.8c-0.7,0.4-1.4,0.6-2.1,0.6c-0.5,0-1-0.1-1.5-0.3c-0.4-0.2-0.8-0.5-1.1-0.9v4.7
				h-1.7V164.6z M246.1,156.1c0,1.2,0.3,2.2,0.8,2.8s1.1,0.9,1.8,0.9s1.4-0.3,1.9-0.9c0.5-0.6,0.8-1.6,0.8-2.9
				c0-1.2-0.3-2.2-0.8-2.8s-1.1-0.9-1.8-0.9s-1.3,0.3-1.9,1C246.4,153.9,246.1,154.8,246.1,156.1z"/>
			<path class="st9" d="M80.5,191.6H284v31.7H80.5V191.6z"/>
			<path class="st2" d="M80.5,191.6H284v31.7H80.5V191.6z"/>
			<path d="M143,214.3v-11.8h-4.4V201h10.6v1.6h-4.4v11.8H143V214.3z M155.1,213.1c-0.6,0.5-1.2,0.9-1.8,1.1
				c-0.6,0.2-1.2,0.3-1.8,0.3c-1.1,0-1.9-0.3-2.5-0.8s-0.9-1.2-0.9-2c0-0.5,0.1-0.9,0.3-1.3c0.2-0.4,0.5-0.7,0.8-0.9
				c0.4-0.2,0.8-0.4,1.2-0.5c0.3-0.1,0.8-0.2,1.5-0.2c1.3-0.2,2.3-0.3,2.9-0.6c0-0.2,0-0.4,0-0.4c0-0.7-0.2-1.1-0.5-1.4
				c-0.4-0.4-1-0.5-1.9-0.5c-0.8,0-1.3,0.1-1.7,0.4c-0.4,0.3-0.6,0.7-0.8,1.4l-1.6-0.2c0.1-0.7,0.4-1.2,0.7-1.6
				c0.3-0.4,0.8-0.8,1.5-1c0.6-0.2,1.4-0.3,2.2-0.3s1.5,0.1,2,0.3s0.9,0.4,1.1,0.7c0.2,0.3,0.4,0.7,0.5,1.1c0.1,0.3,0.1,0.8,0.1,1.5
				v2.2c0,1.5,0,2.5,0.1,2.9s0.2,0.8,0.4,1.2h-1.7C155.2,214,155.1,213.6,155.1,213.1z M154.9,209.5c-0.6,0.2-1.5,0.5-2.7,0.6
				c-0.7,0.1-1.2,0.2-1.4,0.3s-0.5,0.3-0.7,0.5c-0.1,0.2-0.2,0.5-0.2,0.8c0,0.4,0.2,0.8,0.5,1.1s0.8,0.4,1.5,0.4
				c0.6,0,1.2-0.1,1.7-0.4c0.5-0.3,0.9-0.7,1.1-1.1c0.2-0.4,0.3-0.9,0.3-1.6v-0.6H154.9z M158.5,211.4l1.6-0.2
				c0.1,0.6,0.3,1.1,0.8,1.5c0.4,0.3,1,0.5,1.8,0.5s1.3-0.2,1.7-0.5s0.5-0.7,0.5-1.1c0-0.4-0.2-0.7-0.5-0.9
				c-0.2-0.1-0.8-0.3-1.7-0.5c-1.2-0.3-2-0.6-2.5-0.8s-0.8-0.5-1-0.9s-0.4-0.8-0.4-1.3c0-0.4,0.1-0.8,0.3-1.2s0.5-0.7,0.8-0.9
				c0.2-0.2,0.6-0.3,1-0.5c0.4-0.1,0.9-0.2,1.4-0.2c0.8,0,1.4,0.1,2,0.3s1,0.5,1.3,0.9s0.5,0.9,0.6,1.5l-1.6,0.2
				c-0.1-0.5-0.3-0.9-0.6-1.2s-0.8-0.4-1.5-0.4c-0.8,0-1.3,0.1-1.6,0.4c-0.3,0.2-0.5,0.5-0.5,0.9c0,0.2,0.1,0.4,0.2,0.6
				c0.1,0.2,0.3,0.3,0.6,0.4c0.2,0.1,0.6,0.2,1.4,0.4c1.2,0.3,2,0.6,2.4,0.8c0.5,0.2,0.8,0.5,1.1,0.9s0.4,0.8,0.4,1.4
				c0,0.6-0.2,1.1-0.5,1.5c-0.3,0.5-0.8,0.9-1.4,1.1c-0.6,0.3-1.3,0.4-2,0.4c-1.2,0-2.2-0.3-2.9-0.8
				C159.1,213.2,158.6,212.5,158.5,211.4z M168.4,214.3V201h1.6v7.6l3.9-3.9h2.1l-3.7,3.6l4.1,6.1h-2l-3.2-5l-1.2,1.1v3.8
				L168.4,214.3L168.4,214.3z M183.2,214.3V201h1.8v5.5h6.9V201h1.8v13.4h-1.8V208H185v6.3H183.2z M203.1,211.2l1.7,0.2
				c-0.3,1-0.8,1.8-1.5,2.3s-1.6,0.8-2.8,0.8c-1.4,0-2.5-0.4-3.4-1.3c-0.8-0.9-1.2-2.1-1.2-3.7c0-1.6,0.4-2.9,1.2-3.8
				c0.8-0.9,1.9-1.3,3.3-1.3c1.3,0,2.3,0.4,3.2,1.3c0.8,0.9,1.2,2.1,1.2,3.7c0,0.1,0,0.2,0,0.4h-7.2c0.1,1.1,0.4,1.9,0.9,2.5
				s1.2,0.8,2,0.8c0.6,0,1.1-0.2,1.5-0.5C202.5,212.4,202.8,211.9,203.1,211.2z M197.7,208.6h5.4c-0.1-0.8-0.3-1.4-0.6-1.8
				c-0.5-0.6-1.2-1-2-1s-1.4,0.3-1.9,0.8C198,207,197.7,207.7,197.7,208.6z M213.1,213.1c-0.6,0.5-1.2,0.9-1.8,1.1
				c-0.6,0.2-1.2,0.3-1.8,0.3c-1.1,0-1.9-0.3-2.5-0.8s-0.9-1.2-0.9-2c0-0.5,0.1-0.9,0.3-1.3c0.2-0.4,0.5-0.7,0.8-0.9
				c0.4-0.2,0.8-0.4,1.2-0.5c0.3-0.1,0.8-0.2,1.5-0.2c1.3-0.2,2.3-0.3,2.9-0.6c0-0.2,0-0.4,0-0.4c0-0.7-0.2-1.1-0.5-1.4
				c-0.4-0.4-1-0.5-1.9-0.5c-0.8,0-1.3,0.1-1.7,0.4c-0.4,0.3-0.6,0.7-0.8,1.4l-1.6-0.2c0.1-0.7,0.4-1.2,0.7-1.6
				c0.3-0.4,0.8-0.8,1.5-1c0.6-0.2,1.4-0.3,2.2-0.3s1.5,0.1,2,0.3s0.9,0.4,1.1,0.7c0.3,0.3,0.4,0.7,0.5,1.1c0.1,0.3,0.1,0.8,0.1,1.5
				v2.2c0,1.5,0,2.5,0.1,2.9s0.2,0.8,0.4,1.2h-1.7C213.3,214,213.2,213.6,213.1,213.1z M213,209.5c-0.6,0.2-1.5,0.5-2.7,0.6
				c-0.7,0.1-1.2,0.2-1.4,0.3c-0.3,0.1-0.5,0.3-0.7,0.5c-0.1,0.2-0.2,0.5-0.2,0.8c0,0.4,0.2,0.8,0.5,1.1s0.8,0.4,1.5,0.4
				c0.6,0,1.2-0.1,1.7-0.4c0.5-0.3,0.9-0.7,1.1-1.1c0.2-0.4,0.3-0.9,0.3-1.6v-0.6H213z M217.2,218v-13.4h1.5v1.2
				c0.4-0.5,0.8-0.9,1.2-1.1c0.4-0.2,1-0.4,1.6-0.4c0.8,0,1.5,0.2,2.2,0.6c0.6,0.4,1.1,1,1.4,1.8c0.3,0.8,0.5,1.6,0.5,2.5
				c0,1-0.2,1.9-0.5,2.7c-0.4,0.8-0.9,1.4-1.5,1.8c-0.7,0.4-1.4,0.6-2.1,0.6c-0.5,0-1-0.1-1.5-0.3c-0.4-0.2-0.8-0.5-1.1-0.9v4.7
				h-1.7V218z M218.7,209.5c0,1.2,0.2,2.2,0.8,2.8c0.5,0.6,1.1,0.9,1.8,0.9s1.4-0.3,1.9-0.9c0.5-0.6,0.8-1.6,0.8-2.9
				c0-1.2-0.3-2.2-0.8-2.8s-1.1-0.9-1.8-0.9s-1.3,0.3-1.9,1C218.9,207.3,218.7,208.3,218.7,209.5z"/>
			<path class="st10" d="M62.1,344.8h240.3v198.7H62.1V344.8z"/>
			<path class="st2" d="M62.1,344.8h240.3v198.7H62.1V344.8z"/>
			<path d="M122.3,371.8v-13.4h4.6c1,0,1.8,0.1,2.4,0.2c0.8,0.2,1.4,0.5,2,1c0.7,0.6,1.2,1.4,1.6,2.3c0.4,0.9,0.5,2,0.5,3.2
				c0,1-0.1,1.9-0.4,2.7c-0.2,0.8-0.5,1.4-0.9,1.9s-0.8,0.9-1.2,1.2c-0.4,0.3-1,0.5-1.6,0.7c-0.6,0.1-1.3,0.2-2.1,0.2L122.3,371.8
				L122.3,371.8z M124,370.2h2.9c0.9,0,1.6-0.1,2.1-0.2c0.5-0.2,0.9-0.4,1.2-0.7c0.4-0.4,0.7-1,1-1.7c0.2-0.7,0.4-1.6,0.4-2.6
				c0-1.4-0.2-2.5-0.7-3.2c-0.5-0.8-1-1.3-1.7-1.5c-0.5-0.2-1.2-0.3-2.3-0.3H124V370.2z M135.5,360.3v-1.9h1.6v1.9H135.5z
				 M135.5,371.8v-9.7h1.6v9.7H135.5z M139.7,371.8v-9.7h1.5v1.5c0.4-0.7,0.7-1.1,1-1.4c0.3-0.2,0.7-0.3,1.1-0.3
				c0.6,0,1.1,0.2,1.7,0.5l-0.6,1.5c-0.4-0.2-0.8-0.4-1.2-0.4s-0.7,0.1-1,0.3c-0.3,0.2-0.5,0.5-0.6,0.9c-0.2,0.6-0.3,1.2-0.3,1.9
				v5.1h-1.6V371.8z M152.5,368.7l1.7,0.2c-0.3,1-0.8,1.8-1.5,2.3s-1.6,0.8-2.8,0.8c-1.4,0-2.5-0.4-3.4-1.3
				c-0.8-0.9-1.2-2.1-1.2-3.7s0.4-2.9,1.2-3.8s1.9-1.3,3.3-1.3c1.3,0,2.3,0.4,3.2,1.3c0.8,0.9,1.2,2.1,1.2,3.7c0,0.1,0,0.2,0,0.4
				H147c0.1,1.1,0.4,1.9,0.9,2.5s1.2,0.8,2,0.8c0.6,0,1.1-0.2,1.5-0.5C151.9,369.8,152.3,369.3,152.5,368.7z M147.1,366h5.4
				c-0.1-0.8-0.3-1.4-0.6-1.8c-0.5-0.6-1.2-1-2-1s-1.4,0.3-1.9,0.8S147.2,365.2,147.1,366z M162.6,368.2l1.6,0.2
				c-0.2,1.1-0.6,2-1.4,2.6c-0.7,0.6-1.6,0.9-2.7,0.9c-1.3,0-2.4-0.4-3.2-1.3s-1.2-2.1-1.2-3.7c0-1.1,0.2-2,0.5-2.8s0.9-1.4,1.6-1.8
				c0.7-0.4,1.5-0.6,2.3-0.6c1.1,0,1.9,0.3,2.6,0.8c0.7,0.5,1.1,1.3,1.3,2.3l-1.6,0.2c-0.2-0.6-0.4-1.1-0.8-1.5
				c-0.4-0.3-0.8-0.5-1.4-0.5c-0.8,0-1.5,0.3-2,0.9s-0.8,1.5-0.8,2.8s0.2,2.2,0.8,2.8c0.5,0.6,1.2,0.9,2,0.9c0.6,0,1.2-0.2,1.6-0.6
				C162.2,369.6,162.5,369,162.6,368.2z M169.2,370.3l0.2,1.5c-0.5,0.1-0.9,0.1-1.2,0.1c-0.6,0-1.1-0.1-1.4-0.3
				c-0.3-0.2-0.6-0.4-0.7-0.7c-0.1-0.3-0.2-1-0.2-1.9v-5.6h-1.2v-1.3h1.2v-2.4l1.6-1v3.4h1.7v1.3h-1.7v5.7c0,0.5,0,0.8,0.1,0.9
				s0.2,0.2,0.3,0.3c0.1,0.1,0.3,0.1,0.6,0.1C168.6,370.4,168.9,370.3,169.2,370.3z M176.1,371.8v-13.4h2.7l3.2,9.5
				c0.3,0.9,0.5,1.5,0.6,2c0.2-0.5,0.4-1.2,0.7-2.1l3.2-9.3h2.4v13.4h-1.7v-11.2l-3.9,11.2h-1.6l-3.9-11.4v11.4h-1.7V371.8z
				 M198.1,368.7l1.7,0.2c-0.3,1-0.8,1.8-1.5,2.3s-1.6,0.8-2.8,0.8c-1.4,0-2.5-0.4-3.4-1.3c-0.8-0.9-1.2-2.1-1.2-3.7
				s0.4-2.9,1.2-3.8s1.9-1.3,3.3-1.3c1.3,0,2.3,0.4,3.2,1.3c0.8,0.9,1.2,2.1,1.2,3.7c0,0.1,0,0.2,0,0.4h-7.2
				c0.1,1.1,0.4,1.9,0.9,2.5s1.2,0.8,2,0.8c0.6,0,1.1-0.2,1.5-0.5C197.6,369.8,197.9,369.3,198.1,368.7z M192.7,366h5.4
				c-0.1-0.8-0.3-1.4-0.6-1.8c-0.5-0.6-1.2-1-2-1s-1.4,0.3-1.9,0.8C193.1,364.5,192.8,365.2,192.7,366z M201.9,371.8v-9.7h1.5v1.4
				c0.3-0.5,0.7-0.9,1.2-1.1c0.5-0.3,1.1-0.4,1.7-0.4c0.7,0,1.3,0.2,1.8,0.5s0.8,0.7,1,1.2c0.8-1.1,1.8-1.7,3-1.7
				c1,0,1.7,0.3,2.2,0.8s0.8,1.3,0.8,2.5v6.6h-1.6v-6.1c0-0.7-0.1-1.1-0.2-1.4c-0.1-0.3-0.3-0.5-0.6-0.7s-0.6-0.3-1-0.3
				c-0.7,0-1.2,0.2-1.7,0.7c-0.4,0.4-0.7,1.2-0.7,2.2v5.6h-1.6v-6.3c0-0.7-0.1-1.3-0.4-1.6c-0.3-0.4-0.7-0.5-1.3-0.5
				c-0.5,0-0.9,0.1-1.3,0.4c-0.4,0.2-0.7,0.6-0.9,1.1s-0.2,1.1-0.2,2v5h-1.7V371.8z M216.8,366.9c0-1.8,0.5-3.1,1.5-4
				c0.8-0.7,1.8-1.1,3-1.1c1.3,0,2.4,0.4,3.3,1.3c0.8,0.9,1.3,2.1,1.3,3.6c0,1.2-0.2,2.2-0.6,2.9c-0.4,0.7-0.9,1.3-1.6,1.7
				c-0.7,0.4-1.5,0.6-2.3,0.6c-1.4,0-2.4-0.4-3.3-1.3C217.2,369.8,216.8,368.6,216.8,366.9z M218.5,366.9c0,1.2,0.3,2.2,0.8,2.8
				c0.5,0.6,1.2,0.9,2,0.9s1.5-0.3,2-0.9s0.8-1.6,0.8-2.8c0-1.2-0.3-2.1-0.8-2.7s-1.2-0.9-2-0.9s-1.5,0.3-2,0.9
				S218.5,365.7,218.5,366.9z M227.8,371.8v-9.7h1.5v1.5c0.4-0.7,0.7-1.1,1-1.4c0.3-0.2,0.7-0.3,1.1-0.3c0.6,0,1.1,0.2,1.7,0.5
				l-0.6,1.5c-0.4-0.2-0.8-0.4-1.2-0.4s-0.7,0.1-1,0.3c-0.3,0.2-0.5,0.5-0.6,0.9c-0.2,0.6-0.3,1.2-0.3,1.9v5.1h-1.6V371.8z
				 M233.9,375.5l-0.2-1.5c0.4,0.1,0.7,0.1,0.9,0.1c0.4,0,0.7-0.1,0.9-0.2s0.4-0.3,0.5-0.5s0.3-0.6,0.5-1.2c0-0.1,0.1-0.2,0.1-0.4
				l-3.7-9.7h1.8l2,5.6c0.3,0.7,0.5,1.5,0.7,2.2c0.2-0.8,0.4-1.5,0.7-2.2l2.1-5.6h1.6l-3.7,9.8c-0.4,1.1-0.7,1.8-0.9,2.2
				c-0.3,0.5-0.6,0.9-1,1.2c-0.4,0.2-0.8,0.4-1.3,0.4C234.7,375.7,234.3,375.6,233.9,375.5z"/>
			<path class="st7" d="M80.4,384.2H284v39.1H80.4V384.2z"/>
			<path class="st2" d="M80.4,384.2H284v39.1H80.4V384.2z"/>
			<path class="st8" d="M96.9,410.6v-13.4h9v1.6h-7.2v4.1h6.3v1.6h-6.3v6.1L96.9,410.6L96.9,410.6z M107.9,410.6V401h1.5v1.5
				c0.4-0.7,0.7-1.1,1-1.4c0.3-0.2,0.7-0.3,1.1-0.3c0.6,0,1.1,0.2,1.7,0.5l-0.6,1.5c-0.4-0.2-0.8-0.4-1.2-0.4c-0.4,0-0.7,0.1-1,0.3
				s-0.5,0.5-0.6,0.9c-0.2,0.6-0.3,1.2-0.3,1.9v5.1H107.9z M120.5,409.5c-0.6,0.5-1.2,0.9-1.8,1.1c-0.6,0.2-1.2,0.3-1.8,0.3
				c-1.1,0-1.9-0.3-2.5-0.8s-0.9-1.2-0.9-2c0-0.5,0.1-0.9,0.3-1.3c0.2-0.4,0.5-0.7,0.8-0.9c0.4-0.2,0.8-0.4,1.2-0.5
				c0.3-0.1,0.8-0.2,1.5-0.2c1.3-0.2,2.3-0.3,2.9-0.6c0-0.2,0-0.4,0-0.4c0-0.7-0.2-1.1-0.5-1.4c-0.4-0.4-1-0.5-1.9-0.5
				c-0.8,0-1.3,0.1-1.7,0.4c-0.4,0.3-0.6,0.7-0.8,1.4l-1.6-0.2c0.1-0.7,0.4-1.2,0.7-1.6c0.3-0.4,0.8-0.8,1.5-1
				c0.6-0.2,1.4-0.3,2.2-0.3c0.8,0,1.5,0.1,2,0.3c0.5,0.2,0.9,0.4,1.1,0.7c0.2,0.3,0.4,0.7,0.5,1.1c0.1,0.3,0.1,0.8,0.1,1.5v2.2
				c0,1.5,0,2.5,0.1,2.9s0.2,0.8,0.4,1.2h-1.7C120.6,410.3,120.5,409.9,120.5,409.5z M120.3,405.8c-0.6,0.2-1.5,0.5-2.7,0.6
				c-0.7,0.1-1.2,0.2-1.4,0.3s-0.5,0.3-0.7,0.5c-0.1,0.2-0.2,0.5-0.2,0.8c0,0.4,0.2,0.8,0.5,1.1c0.3,0.3,0.8,0.4,1.5,0.4
				c0.6,0,1.2-0.1,1.7-0.4s0.9-0.7,1.1-1.1s0.3-0.9,0.3-1.6v-0.6H120.3z M124.5,410.6V401h1.5v1.4c0.3-0.5,0.7-0.9,1.2-1.1
				c0.5-0.3,1.1-0.4,1.7-0.4c0.7,0,1.3,0.2,1.8,0.5s0.8,0.7,1,1.2c0.8-1.1,1.8-1.7,3-1.7c1,0,1.7,0.3,2.2,0.8s0.8,1.3,0.8,2.5v6.6
				H136v-6.1c0-0.7-0.1-1.1-0.2-1.4c-0.1-0.3-0.3-0.5-0.6-0.7s-0.6-0.3-1-0.3c-0.7,0-1.2,0.2-1.7,0.7c-0.4,0.4-0.7,1.2-0.7,2.2v5.6
				h-1.6v-6.3c0-0.7-0.1-1.3-0.4-1.6s-0.7-0.5-1.3-0.5c-0.5,0-0.9,0.1-1.3,0.4c-0.4,0.2-0.7,0.6-0.9,1.1c-0.2,0.5-0.2,1.1-0.2,2v5
				h-1.6V410.6z M146.7,407.5l1.7,0.2c-0.3,1-0.8,1.8-1.5,2.3s-1.6,0.8-2.8,0.8c-1.4,0-2.5-0.4-3.4-1.3c-0.8-0.9-1.2-2.1-1.2-3.7
				s0.4-2.9,1.2-3.8s1.9-1.3,3.3-1.3c1.3,0,2.3,0.4,3.2,1.3c0.8,0.9,1.2,2.1,1.2,3.7c0,0.1,0,0.2,0,0.4h-7.2
				c0.1,1.1,0.4,1.9,0.9,2.5s1.2,0.8,2,0.8c0.6,0,1.1-0.2,1.5-0.5C146.1,408.7,146.5,408.2,146.7,407.5z M141.3,404.9h5.4
				c-0.1-0.8-0.3-1.4-0.6-1.8c-0.5-0.6-1.2-1-2-1s-1.4,0.3-1.9,0.8S141.4,404,141.3,404.9z M152.2,410.6l-3-9.7h1.7l1.5,5.6l0.6,2.1
				c0-0.1,0.2-0.8,0.5-2l1.5-5.7h1.7l1.4,5.6l0.5,1.8l0.6-1.9l1.7-5.6h1.6l-3,9.7h-1.7l-1.5-5.8l-0.4-1.6l-2,7.4h-1.7V410.6z
				 M163.3,405.8c0-1.8,0.5-3.1,1.5-4c0.8-0.7,1.8-1.1,3-1.1c1.3,0,2.4,0.4,3.3,1.3c0.8,0.9,1.3,2.1,1.3,3.6c0,1.2-0.2,2.2-0.6,2.9
				c-0.4,0.7-0.9,1.3-1.6,1.7c-0.7,0.4-1.5,0.6-2.3,0.6c-1.4,0-2.4-0.4-3.3-1.3C163.7,408.7,163.3,407.4,163.3,405.8z M165,405.8
				c0,1.2,0.3,2.2,0.8,2.8c0.5,0.6,1.2,0.9,2,0.9s1.5-0.3,2-0.9s0.8-1.6,0.8-2.8c0-1.2-0.3-2.1-0.8-2.7s-1.2-0.9-2-0.9
				s-1.5,0.3-2,0.9C165.3,403.6,165,404.6,165,405.8z M174.3,410.6V401h1.5v1.5c0.4-0.7,0.7-1.1,1-1.4c0.3-0.2,0.7-0.3,1.1-0.3
				c0.6,0,1.1,0.2,1.7,0.5l-0.6,1.5c-0.4-0.2-0.8-0.4-1.2-0.4s-0.7,0.1-1,0.3s-0.5,0.5-0.6,0.9c-0.2,0.6-0.3,1.2-0.3,1.9v5.1H174.3z
				 M180.5,410.6v-13.4h1.6v7.6l3.9-3.9h2.1l-3.7,3.6l4.1,6.1h-2l-3.2-5l-1.2,1.1v3.8L180.5,410.6L180.5,410.6z M194.7,404.1
				c0-2.2,0.6-4,1.8-5.2c1.2-1.3,2.7-1.9,4.6-1.9c1.2,0,2.3,0.3,3.3,0.9s1.7,1.4,2.3,2.5c0.5,1.1,0.8,2.2,0.8,3.6s-0.3,2.6-0.8,3.6
				c-0.5,1.1-1.3,1.9-2.3,2.4s-2.1,0.8-3.2,0.8c-1.2,0-2.4-0.3-3.4-0.9s-1.7-1.4-2.2-2.5C195,406.4,194.7,405.3,194.7,404.1z
				 M196.5,404.2c0,1.6,0.4,2.9,1.3,3.8c0.9,0.9,2,1.4,3.3,1.4s2.4-0.5,3.3-1.4c0.9-0.9,1.3-2.3,1.3-4c0-1.1-0.2-2-0.5-2.8
				c-0.4-0.8-0.9-1.4-1.6-1.9c-0.7-0.4-1.5-0.7-2.4-0.7c-1.3,0-2.3,0.4-3.2,1.3C197,400.7,196.5,402.2,196.5,404.2z M209.9,410.6
				v-8.4h-1.5V401h1.5v-1c0-0.6,0.1-1.1,0.2-1.5c0.2-0.4,0.4-0.8,0.8-1s1-0.4,1.7-0.4c0.5,0,1,0.1,1.5,0.2l-0.2,1.4
				c-0.3-0.1-0.7-0.1-1-0.1c-0.5,0-0.9,0.1-1.1,0.3c-0.2,0.2-0.3,0.6-0.3,1.2v0.9h1.9v1.3h-1.9v8.4L209.9,410.6L209.9,410.6z
				 M214.8,410.6v-8.4h-1.5V401h1.5v-1c0-0.6,0.1-1.1,0.2-1.5c0.2-0.4,0.4-0.8,0.8-1s1-0.4,1.7-0.4c0.5,0,1,0.1,1.5,0.2l-0.2,1.4
				c-0.3-0.1-0.7-0.1-1-0.1c-0.5,0-0.9,0.1-1.1,0.3c-0.2,0.2-0.3,0.6-0.3,1.2v0.9h1.9v1.3h-1.9v8.4L214.8,410.6L214.8,410.6z
				 M218.9,406.6V405h5v1.6H218.9z M226.1,410.6v-13.4h1.8v5.5h6.9v-5.5h1.8v13.4h-1.8v-6.3h-6.9v6.3H226.1z M245.9,407.5l1.7,0.2
				c-0.3,1-0.8,1.8-1.5,2.3s-1.6,0.8-2.8,0.8c-1.4,0-2.5-0.4-3.4-1.3c-0.8-0.9-1.2-2.1-1.2-3.7s0.4-2.9,1.2-3.8s1.9-1.3,3.3-1.3
				c1.3,0,2.3,0.4,3.2,1.3c0.8,0.9,1.2,2.1,1.2,3.7c0,0.1,0,0.2,0,0.4h-7.2c0.1,1.1,0.4,1.9,0.9,2.5s1.2,0.8,2,0.8
				c0.6,0,1.1-0.2,1.5-0.5C245.3,408.7,245.6,408.2,245.9,407.5z M240.5,404.9h5.4c-0.1-0.8-0.3-1.4-0.6-1.8c-0.5-0.6-1.2-1-2-1
				s-1.4,0.3-1.9,0.8C240.8,403.4,240.5,404,240.5,404.9z M255.9,409.5c-0.6,0.5-1.2,0.9-1.8,1.1s-1.2,0.3-1.8,0.3
				c-1.1,0-1.9-0.3-2.5-0.8s-0.9-1.2-0.9-2c0-0.5,0.1-0.9,0.3-1.3s0.5-0.7,0.8-0.9c0.4-0.2,0.8-0.4,1.2-0.5c0.3-0.1,0.8-0.2,1.5-0.2
				c1.3-0.2,2.3-0.3,2.9-0.6c0-0.2,0-0.4,0-0.4c0-0.7-0.2-1.1-0.5-1.4c-0.4-0.4-1-0.5-1.9-0.5c-0.8,0-1.3,0.1-1.7,0.4
				s-0.6,0.7-0.8,1.4l-1.6-0.2c0.1-0.7,0.4-1.2,0.7-1.6s0.8-0.8,1.5-1c0.6-0.2,1.4-0.3,2.2-0.3s1.5,0.1,2,0.3
				c0.5,0.2,0.9,0.4,1.1,0.7c0.2,0.3,0.4,0.7,0.5,1.1c0.1,0.3,0.1,0.8,0.1,1.5v2.2c0,1.5,0,2.5,0.1,2.9s0.2,0.8,0.4,1.2H256
				C256.1,410.3,256,409.9,255.9,409.5z M255.8,405.8c-0.6,0.2-1.5,0.5-2.7,0.6c-0.7,0.1-1.2,0.2-1.4,0.3s-0.5,0.3-0.7,0.5
				c-0.1,0.2-0.2,0.5-0.2,0.8c0,0.4,0.2,0.8,0.5,1.1c0.3,0.3,0.8,0.4,1.5,0.4c0.6,0,1.2-0.1,1.7-0.4s0.9-0.7,1.1-1.1
				c0.2-0.4,0.3-0.9,0.3-1.6v-0.6H255.8z M260,414.3V401h1.5v1.2c0.4-0.5,0.8-0.9,1.2-1.1c0.4-0.2,1-0.4,1.6-0.4
				c0.8,0,1.5,0.2,2.2,0.6c0.6,0.4,1.1,1,1.4,1.8s0.5,1.6,0.5,2.5c0,1-0.2,1.9-0.5,2.7s-0.9,1.4-1.5,1.8c-0.7,0.4-1.4,0.6-2.1,0.6
				c-0.5,0-1-0.1-1.5-0.3s-0.8-0.5-1.1-0.9v4.7L260,414.3L260,414.3z M261.5,405.9c0,1.2,0.2,2.2,0.8,2.8c0.5,0.6,1.1,0.9,1.8,0.9
				c0.7,0,1.4-0.3,1.9-0.9s0.8-1.6,0.8-2.9c0-1.2-0.3-2.2-0.8-2.8c-0.5-0.6-1.1-0.9-1.8-0.9c-0.7,0-1.3,0.3-1.9,1
				C261.8,403.7,261.5,404.6,261.5,405.9z"/>
			<path class="st9" d="M80.4,440.1H284v39.1H80.4V440.1z"/>
			<path class="st2" d="M80.4,440.1H284v39.1H80.4V440.1z"/>
			<path d="M127.6,466.6v-11.8h-4.4v-1.6h10.6v1.6h-4.4v11.8H127.6z M139.7,465.4c-0.6,0.5-1.2,0.9-1.8,1.1s-1.2,0.3-1.8,0.3
				c-1.1,0-1.9-0.3-2.5-0.8s-0.9-1.2-0.9-2c0-0.5,0.1-0.9,0.3-1.3s0.5-0.7,0.8-0.9c0.4-0.2,0.8-0.4,1.2-0.5c0.3-0.1,0.8-0.2,1.5-0.2
				c1.3-0.2,2.3-0.3,2.9-0.6c0-0.2,0-0.4,0-0.4c0-0.7-0.2-1.1-0.5-1.4c-0.4-0.4-1-0.5-1.9-0.5c-0.8,0-1.3,0.1-1.7,0.4
				s-0.6,0.7-0.8,1.4l-1.6-0.2c0.1-0.7,0.4-1.2,0.7-1.6s0.8-0.8,1.5-1c0.6-0.2,1.4-0.3,2.2-0.3s1.5,0.1,2,0.3
				c0.5,0.2,0.9,0.4,1.1,0.7c0.2,0.3,0.4,0.7,0.5,1.1c0.1,0.3,0.1,0.8,0.1,1.5v2.2c0,1.5,0,2.5,0.1,2.9s0.2,0.8,0.4,1.2H140
				C139.8,466.2,139.7,465.8,139.7,465.4z M139.5,461.7c-0.6,0.2-1.5,0.5-2.7,0.6c-0.7,0.1-1.2,0.2-1.4,0.3
				c-0.3,0.1-0.5,0.3-0.7,0.5c-0.1,0.2-0.2,0.5-0.2,0.8c0,0.4,0.2,0.8,0.5,1.1c0.3,0.3,0.8,0.4,1.5,0.4c0.6,0,1.2-0.1,1.7-0.4
				s0.9-0.7,1.1-1.1c0.2-0.4,0.3-0.9,0.3-1.6v-0.6H139.5z M143.1,463.7l1.6-0.2c0.1,0.6,0.3,1.1,0.8,1.5c0.4,0.3,1,0.5,1.8,0.5
				s1.3-0.2,1.7-0.5s0.5-0.7,0.5-1.1s-0.2-0.7-0.5-0.9c-0.2-0.1-0.8-0.3-1.7-0.5c-1.2-0.3-2-0.6-2.5-0.8c-0.5-0.2-0.8-0.5-1-0.9
				s-0.4-0.8-0.4-1.3c0-0.4,0.1-0.8,0.3-1.2c0.2-0.4,0.5-0.7,0.8-0.9c0.2-0.2,0.6-0.3,1-0.5c0.4-0.1,0.9-0.2,1.4-0.2
				c0.8,0,1.4,0.1,2,0.3c0.6,0.2,1,0.5,1.3,0.9s0.5,0.9,0.6,1.5l-1.6,0.2c-0.1-0.5-0.3-0.9-0.6-1.2c-0.3-0.3-0.8-0.4-1.5-0.4
				c-0.8,0-1.3,0.1-1.6,0.4c-0.3,0.2-0.5,0.5-0.5,0.9c0,0.2,0.1,0.4,0.2,0.6c0.1,0.2,0.3,0.3,0.6,0.4c0.2,0.1,0.6,0.2,1.4,0.4
				c1.2,0.3,2,0.6,2.4,0.8c0.5,0.2,0.8,0.5,1.1,0.9s0.4,0.8,0.4,1.4s-0.2,1.1-0.5,1.5c-0.3,0.5-0.8,0.9-1.4,1.1
				c-0.6,0.3-1.3,0.4-2,0.4c-1.2,0-2.2-0.3-2.9-0.8C143.7,465.5,143.2,464.7,143.1,463.7z M153.1,466.6v-13.4h1.6v7.6l3.9-3.9h2.1
				l-3.7,3.6l4.1,6.1h-2l-3.2-5l-1.2,1.1v3.8L153.1,466.6L153.1,466.6z M167.2,460.1c0-2.2,0.6-4,1.8-5.2c1.2-1.3,2.7-1.9,4.6-1.9
				c1.2,0,2.3,0.3,3.3,0.9s1.7,1.4,2.3,2.5c0.5,1.1,0.8,2.2,0.8,3.6s-0.3,2.6-0.8,3.6c-0.5,1.1-1.3,1.9-2.3,2.4
				c-1,0.6-2.1,0.8-3.2,0.8c-1.2,0-2.4-0.3-3.4-0.9s-1.7-1.4-2.2-2.5C167.5,462.3,167.2,461.2,167.2,460.1z M169.1,460.1
				c0,1.6,0.4,2.9,1.3,3.8c0.9,0.9,2,1.4,3.3,1.4s2.4-0.5,3.3-1.4c0.9-0.9,1.3-2.3,1.3-4c0-1.1-0.2-2-0.5-2.8
				c-0.4-0.8-0.9-1.4-1.6-1.9c-0.7-0.4-1.5-0.7-2.4-0.7c-1.3,0-2.3,0.4-3.2,1.3C169.5,456.7,169.1,458.1,169.1,460.1z M182.5,466.6
				v-8.4H181v-1.3h1.5v-1c0-0.6,0.1-1.1,0.2-1.5c0.2-0.4,0.4-0.8,0.8-1c0.4-0.3,1-0.4,1.7-0.4c0.5,0,1,0.1,1.5,0.2l-0.2,1.4
				c-0.3-0.1-0.7-0.1-1-0.1c-0.5,0-0.9,0.1-1.1,0.3c-0.2,0.2-0.3,0.6-0.3,1.2v0.9h1.9v1.3h-1.9v8.4H182.5z M187.3,466.6v-8.4h-1.5
				v-1.3h1.5v-1c0-0.6,0.1-1.1,0.2-1.5c0.2-0.4,0.4-0.8,0.8-1c0.4-0.3,1-0.4,1.7-0.4c0.5,0,1,0.1,1.5,0.2l-0.2,1.4
				c-0.3-0.1-0.7-0.1-1-0.1c-0.5,0-0.9,0.1-1.1,0.3c-0.2,0.2-0.3,0.6-0.3,1.2v0.9h1.9v1.3h-1.9v8.4H187.3z M191.5,462.6V461h5v1.6
				H191.5z M198.6,466.6v-13.4h1.8v5.5h6.9v-5.5h1.8v13.4h-1.8v-6.3h-6.9v6.3H198.6z M218.4,463.5l1.7,0.2c-0.3,1-0.8,1.8-1.5,2.3
				s-1.6,0.8-2.8,0.8c-1.4,0-2.5-0.4-3.4-1.3c-0.8-0.9-1.2-2.1-1.2-3.7s0.4-2.9,1.2-3.8s1.9-1.3,3.3-1.3c1.3,0,2.3,0.4,3.2,1.3
				c0.8,0.9,1.2,2.1,1.2,3.7c0,0.1,0,0.2,0,0.4h-7.2c0.1,1.1,0.4,1.9,0.9,2.5s1.2,0.8,2,0.8c0.6,0,1.1-0.2,1.5-0.5
				C217.8,464.7,218.2,464.1,218.4,463.5z M213,460.8h5.4c-0.1-0.8-0.3-1.4-0.6-1.8c-0.5-0.6-1.2-1-2-1s-1.4,0.3-1.9,0.8
				S213.1,460,213,460.8z M228.5,465.4c-0.6,0.5-1.2,0.9-1.8,1.1s-1.2,0.3-1.8,0.3c-1.1,0-1.9-0.3-2.5-0.8s-0.9-1.2-0.9-2
				c0-0.5,0.1-0.9,0.3-1.3s0.5-0.7,0.8-0.9c0.4-0.2,0.8-0.4,1.2-0.5c0.3-0.1,0.8-0.2,1.5-0.2c1.3-0.2,2.3-0.3,2.9-0.6
				c0-0.2,0-0.4,0-0.4c0-0.7-0.2-1.1-0.5-1.4c-0.4-0.4-1-0.5-1.9-0.5c-0.8,0-1.3,0.1-1.7,0.4s-0.6,0.7-0.8,1.4l-1.6-0.2
				c0.1-0.7,0.4-1.2,0.7-1.6s0.8-0.8,1.5-1c0.6-0.2,1.4-0.3,2.2-0.3s1.5,0.1,2,0.3c0.5,0.2,0.9,0.4,1.1,0.7c0.2,0.3,0.4,0.7,0.5,1.1
				c0.1,0.3,0.1,0.8,0.1,1.5v2.2c0,1.5,0,2.5,0.1,2.9s0.2,0.8,0.4,1.2h-1.7C228.6,466.2,228.5,465.8,228.5,465.4z M228.3,461.7
				c-0.6,0.2-1.5,0.5-2.7,0.6c-0.7,0.1-1.2,0.2-1.4,0.3c-0.3,0.1-0.5,0.3-0.7,0.5c-0.1,0.2-0.2,0.5-0.2,0.8c0,0.4,0.2,0.8,0.5,1.1
				c0.3,0.3,0.8,0.4,1.5,0.4c0.6,0,1.2-0.1,1.7-0.4s0.9-0.7,1.1-1.1c0.2-0.4,0.3-0.9,0.3-1.6v-0.6H228.3z M232.5,470.3v-13.4h1.5
				v1.2c0.4-0.5,0.8-0.9,1.2-1.1c0.4-0.3,1-0.4,1.6-0.4c0.8,0,1.5,0.2,2.2,0.6c0.6,0.4,1.1,1,1.4,1.8c0.3,0.8,0.5,1.6,0.5,2.5
				c0,1-0.2,1.9-0.5,2.7c-0.4,0.8-0.9,1.4-1.5,1.8c-0.7,0.4-1.4,0.6-2.1,0.6c-0.5,0-1-0.1-1.5-0.3c-0.4-0.2-0.8-0.5-1.1-0.9v4.7
				h-1.7V470.3z M234,461.8c0,1.2,0.2,2.2,0.8,2.8c0.5,0.6,1.1,0.9,1.8,0.9s1.4-0.3,1.9-0.9s0.8-1.6,0.8-2.9c0-1.2-0.3-2.2-0.8-2.8
				c-0.5-0.6-1.1-0.9-1.8-0.9s-1.3,0.3-1.9,1C234.3,459.6,234,460.5,234,461.8z"/>
			<path class="st11" d="M80.4,494H284v39.1H80.4V494z"/>
			<path class="st2" d="M80.4,494H284v39.1H80.4V494z"/>
			<path d="M149.4,520.4V507h1.8l7,10.5V507h1.7v13.4h-1.8l-7-10.5v10.5H149.4z M169.4,517.3l1.7,0.2c-0.3,1-0.8,1.8-1.5,2.3
				s-1.6,0.8-2.8,0.8c-1.4,0-2.5-0.4-3.4-1.3c-0.8-0.9-1.2-2.1-1.2-3.7c0-1.6,0.4-2.9,1.2-3.8c0.8-0.9,1.9-1.3,3.3-1.3
				c1.3,0,2.3,0.4,3.2,1.3c0.8,0.9,1.2,2.1,1.2,3.7c0,0.1,0,0.2,0,0.4h-7.2c0.1,1.1,0.4,1.9,0.9,2.5s1.2,0.8,2,0.8
				c0.6,0,1.1-0.2,1.5-0.5C168.8,518.5,169.1,518,169.4,517.3z M164,514.7h5.4c-0.1-0.8-0.3-1.4-0.6-1.8c-0.5-0.6-1.2-1-2-1
				s-1.4,0.3-1.9,0.8C164.3,513.2,164,513.8,164,514.7z M176.7,519l0.2,1.5c-0.5,0.1-0.9,0.1-1.2,0.1c-0.6,0-1.1-0.1-1.4-0.3
				c-0.3-0.2-0.6-0.4-0.7-0.7c-0.1-0.3-0.2-1-0.2-1.9V512h-1.2v-1.3h1.2v-2.4l1.6-1v3.4h1.7v1.3H175v5.7c0,0.5,0,0.8,0.1,0.9
				c0.1,0.1,0.2,0.2,0.3,0.3s0.3,0.1,0.6,0.1C176.1,519,176.4,519,176.7,519z M180.1,520.4l-3-9.7h1.7l1.5,5.6l0.6,2.1
				c0-0.1,0.2-0.8,0.5-2l1.5-5.7h1.7l1.4,5.6l0.5,1.8l0.6-1.9l1.7-5.6h1.6l-3,9.7h-1.7l-1.5-5.8l-0.4-1.6l-2,7.4h-1.7V520.4z
				 M191.2,515.6c0-1.8,0.5-3.1,1.5-4c0.8-0.7,1.8-1.1,3-1.1c1.3,0,2.4,0.4,3.3,1.3c0.8,0.9,1.3,2.1,1.3,3.6c0,1.2-0.2,2.2-0.6,2.9
				c-0.4,0.7-0.9,1.3-1.6,1.7c-0.7,0.4-1.5,0.6-2.3,0.6c-1.4,0-2.4-0.4-3.3-1.3C191.6,518.5,191.2,517.2,191.2,515.6z M192.8,515.6
				c0,1.2,0.3,2.2,0.8,2.8s1.2,0.9,2,0.9s1.5-0.3,2-0.9c0.5-0.6,0.8-1.6,0.8-2.8s-0.3-2.1-0.8-2.7c-0.5-0.6-1.2-0.9-2-0.9
				s-1.5,0.3-2,0.9C193.1,513.4,192.8,514.4,192.8,515.6z M202.1,520.4v-9.7h1.5v1.5c0.4-0.7,0.7-1.1,1-1.4c0.3-0.2,0.7-0.3,1.1-0.3
				c0.6,0,1.1,0.2,1.7,0.5l-0.6,1.5c-0.4-0.2-0.8-0.4-1.2-0.4s-0.7,0.1-1,0.3s-0.5,0.5-0.6,0.9c-0.2,0.6-0.3,1.2-0.3,1.9v5.1h-1.6
				V520.4z M208.4,520.4V507h1.6v7.6l3.9-3.9h2.1l-3.7,3.6l4.1,6.1h-2l-3.2-5l-1.2,1.1v3.8h-1.6V520.4z"/>
			<path class="st12" d="M80.4,289H284v39H80.4V289z"/>
			<path class="st2" d="M80.4,289H284v39H80.4V289z"/>
			<path class="st8" d="M108.5,315.4V302h2.7l3.2,9.5c0.3,0.9,0.5,1.5,0.6,2c0.2-0.5,0.4-1.2,0.7-2.1l3.2-9.3h2.4v13.4h-1.7v-11.2
				l-3.9,11.2H114l-3.9-11.4v11.4h-1.6V315.4z M130.1,314.2c-0.6,0.5-1.2,0.9-1.8,1.1c-0.6,0.2-1.2,0.3-1.8,0.3
				c-1.1,0-1.9-0.3-2.5-0.8s-0.9-1.2-0.9-2c0-0.5,0.1-0.9,0.3-1.3c0.2-0.4,0.5-0.7,0.8-0.9c0.4-0.2,0.8-0.4,1.2-0.5
				c0.3-0.1,0.8-0.2,1.5-0.2c1.3-0.2,2.3-0.3,2.9-0.6c0-0.2,0-0.4,0-0.4c0-0.7-0.2-1.1-0.5-1.4c-0.4-0.4-1-0.5-1.9-0.5
				c-0.8,0-1.3,0.1-1.7,0.4s-0.6,0.7-0.8,1.4l-1.6-0.2c0.1-0.7,0.4-1.2,0.7-1.6c0.3-0.4,0.8-0.8,1.5-1s1.4-0.3,2.2-0.3
				c0.8,0,1.5,0.1,2,0.3c0.5,0.2,0.9,0.4,1.1,0.7c0.2,0.3,0.4,0.7,0.5,1.1c0.1,0.3,0.1,0.8,0.1,1.5v2.2c0,1.5,0,2.5,0.1,2.9
				s0.2,0.8,0.4,1.2h-1.7C130.3,315.1,130.2,314.7,130.1,314.2z M130,310.6c-0.6,0.2-1.5,0.5-2.7,0.6c-0.7,0.1-1.2,0.2-1.4,0.3
				s-0.5,0.3-0.7,0.5c-0.1,0.2-0.2,0.5-0.2,0.8c0,0.4,0.2,0.8,0.5,1.1s0.8,0.4,1.5,0.4c0.6,0,1.2-0.1,1.7-0.4s0.9-0.7,1.1-1.1
				c0.2-0.4,0.3-0.9,0.3-1.6v-0.6H130z M134.2,315.4v-9.7h1.5v1.4c0.7-1.1,1.7-1.6,3.1-1.6c0.6,0,1.1,0.1,1.6,0.3
				c0.5,0.2,0.9,0.5,1.1,0.8c0.2,0.3,0.4,0.7,0.5,1.2c0.1,0.3,0.1,0.8,0.1,1.6v6h-1.6v-5.9c0-0.7-0.1-1.2-0.2-1.5
				c-0.1-0.3-0.3-0.6-0.7-0.8c-0.3-0.2-0.7-0.3-1.1-0.3c-0.7,0-1.3,0.2-1.8,0.7c-0.5,0.4-0.8,1.3-0.8,2.5v5.3H134.2z M150.9,314.2
				c-0.6,0.5-1.2,0.9-1.8,1.1s-1.2,0.3-1.8,0.3c-1.1,0-1.9-0.3-2.5-0.8s-0.9-1.2-0.9-2c0-0.5,0.1-0.9,0.3-1.3s0.5-0.7,0.8-0.9
				c0.4-0.2,0.8-0.4,1.2-0.5c0.3-0.1,0.8-0.2,1.5-0.2c1.3-0.2,2.3-0.3,2.9-0.6c0-0.2,0-0.4,0-0.4c0-0.7-0.2-1.1-0.5-1.4
				c-0.4-0.4-1-0.5-1.9-0.5c-0.8,0-1.3,0.1-1.7,0.4s-0.6,0.7-0.8,1.4l-1.6-0.2c0.1-0.7,0.4-1.2,0.7-1.6s0.8-0.8,1.5-1
				s1.4-0.3,2.2-0.3s1.5,0.1,2,0.3c0.5,0.2,0.9,0.4,1.1,0.7c0.2,0.3,0.4,0.7,0.5,1.1c0.1,0.3,0.1,0.8,0.1,1.5v2.2
				c0,1.5,0,2.5,0.1,2.9s0.2,0.8,0.4,1.2H151C151.1,315.1,150.9,314.7,150.9,314.2z M150.8,310.6c-0.6,0.2-1.5,0.5-2.7,0.6
				c-0.7,0.1-1.2,0.2-1.4,0.3s-0.5,0.3-0.7,0.5c-0.1,0.2-0.2,0.5-0.2,0.8c0,0.4,0.2,0.8,0.5,1.1s0.8,0.4,1.5,0.4
				c0.6,0,1.2-0.1,1.7-0.4s0.9-0.7,1.1-1.1c0.2-0.4,0.3-0.9,0.3-1.6v-0.6H150.8z M154.7,316.2l1.6,0.2c0.1,0.5,0.3,0.9,0.6,1.1
				c0.4,0.3,1,0.5,1.7,0.5c0.8,0,1.3-0.2,1.8-0.5c0.4-0.3,0.7-0.7,0.8-1.3c0.1-0.3,0.1-1,0.1-2.1c-0.7,0.8-1.6,1.3-2.7,1.3
				c-1.3,0-2.4-0.5-3.1-1.4c-0.7-1-1.1-2.1-1.1-3.5c0-0.9,0.2-1.8,0.5-2.6c0.3-0.8,0.8-1.4,1.5-1.8c0.6-0.4,1.4-0.6,2.2-0.6
				c1.1,0,2.1,0.5,2.8,1.4v-1.2h1.5v8.4c0,1.5-0.2,2.6-0.5,3.2s-0.8,1.1-1.5,1.5s-1.5,0.5-2.5,0.5c-1.1,0-2.1-0.3-2.8-0.8
				C155,318,154.6,317.3,154.7,316.2z M156,310.4c0,1.3,0.2,2.2,0.8,2.8c0.5,0.6,1.1,0.9,1.9,0.9c0.8,0,1.4-0.3,1.9-0.9
				s0.8-1.5,0.8-2.7s-0.3-2.1-0.8-2.7s-1.2-0.9-1.9-0.9s-1.3,0.3-1.9,0.9C156.3,308.4,156,309.2,156,310.4z M172,312.3l1.7,0.2
				c-0.3,1-0.8,1.8-1.5,2.3s-1.6,0.8-2.8,0.8c-1.4,0-2.5-0.4-3.4-1.3c-0.8-0.9-1.2-2.1-1.2-3.7s0.4-2.9,1.2-3.8s1.9-1.3,3.3-1.3
				c1.3,0,2.3,0.4,3.2,1.3c0.8,0.9,1.2,2.1,1.2,3.7c0,0.1,0,0.2,0,0.4h-7.2c0.1,1.1,0.4,1.9,0.9,2.5s1.2,0.8,2,0.8
				c0.6,0,1.1-0.2,1.5-0.5C171.4,313.5,171.7,313,172,312.3z M166.6,309.6h5.4c-0.1-0.8-0.3-1.4-0.6-1.8c-0.5-0.6-1.2-1-2-1
				s-1.4,0.3-1.9,0.8C166.9,308.1,166.6,308.8,166.6,309.6z M182,315.4v-1.2c-0.6,1-1.5,1.4-2.7,1.4c-0.8,0-1.5-0.2-2.1-0.6
				s-1.1-1-1.5-1.8s-0.5-1.6-0.5-2.6s0.2-1.8,0.5-2.6c0.3-0.8,0.8-1.4,1.4-1.8c0.6-0.4,1.4-0.6,2.2-0.6c0.6,0,1.1,0.1,1.5,0.4
				c0.5,0.2,0.8,0.6,1.1,1v-4.8h1.6v13.4H182V315.4z M176.8,310.6c0,1.2,0.3,2.2,0.8,2.8c0.5,0.6,1.1,0.9,1.8,0.9s1.3-0.3,1.8-0.9
				s0.8-1.5,0.8-2.7c0-1.3-0.3-2.3-0.8-2.9s-1.1-0.9-1.9-0.9c-0.7,0-1.3,0.3-1.8,0.9C177.1,308.4,176.8,309.3,176.8,310.6z
				 M191.4,315.4V302h2.7l3.2,9.5c0.3,0.9,0.5,1.5,0.6,2c0.2-0.5,0.4-1.2,0.7-2.1l3.2-9.3h2.4v13.4h-1.7v-11.2l-3.9,11.2H197
				l-3.9-11.4v11.4h-1.7V315.4z M213.4,312.3l1.7,0.2c-0.3,1-0.8,1.8-1.5,2.3s-1.6,0.8-2.8,0.8c-1.4,0-2.5-0.4-3.4-1.3
				c-0.8-0.9-1.2-2.1-1.2-3.7s0.4-2.9,1.2-3.8s1.9-1.3,3.3-1.3c1.3,0,2.3,0.4,3.2,1.3c0.8,0.9,1.2,2.1,1.2,3.7c0,0.1,0,0.2,0,0.4
				H208c0.1,1.1,0.4,1.9,0.9,2.5s1.2,0.8,2,0.8c0.6,0,1.1-0.2,1.5-0.5C212.9,313.5,213.2,313,213.4,312.3z M208.1,309.6h5.4
				c-0.1-0.8-0.3-1.4-0.6-1.8c-0.5-0.6-1.2-1-2-1s-1.4,0.3-1.9,0.8C208.4,308.1,208.1,308.8,208.1,309.6z M217.2,315.4v-9.7h1.5v1.4
				c0.3-0.5,0.7-0.9,1.2-1.1c0.5-0.3,1.1-0.4,1.7-0.4c0.7,0,1.3,0.2,1.8,0.5s0.8,0.7,1,1.2c0.8-1.1,1.8-1.7,3-1.7
				c1,0,1.7,0.3,2.2,0.8s0.8,1.3,0.8,2.5v6.6h-1.6v-6.1c0-0.7-0.1-1.1-0.2-1.4c-0.1-0.3-0.3-0.5-0.6-0.7s-0.6-0.3-1-0.3
				c-0.7,0-1.2,0.2-1.7,0.7c-0.4,0.4-0.7,1.2-0.7,2.2v5.6H223v-6.3c0-0.7-0.1-1.3-0.4-1.6c-0.3-0.4-0.7-0.5-1.3-0.5
				c-0.5,0-0.9,0.1-1.3,0.4c-0.4,0.2-0.7,0.6-0.9,1.1s-0.2,1.1-0.2,2v5h-1.7V315.4z M232.1,310.6c0-1.8,0.5-3.1,1.5-4
				c0.8-0.7,1.8-1.1,3-1.1c1.3,0,2.4,0.4,3.3,1.3c0.8,0.9,1.3,2.1,1.3,3.6c0,1.2-0.2,2.2-0.6,2.9c-0.4,0.7-0.9,1.3-1.6,1.7
				c-0.7,0.4-1.5,0.6-2.3,0.6c-1.4,0-2.4-0.4-3.3-1.3C232.5,313.5,232.1,312.2,232.1,310.6z M233.8,310.6c0,1.2,0.3,2.2,0.8,2.8
				c0.5,0.6,1.2,0.9,2,0.9s1.5-0.3,2-0.9s0.8-1.6,0.8-2.8c0-1.2-0.3-2.1-0.8-2.7s-1.2-0.9-2-0.9s-1.5,0.3-2,0.9
				C234.1,308.4,233.8,309.3,233.8,310.6z M243.1,315.4v-9.7h1.5v1.5c0.4-0.7,0.7-1.1,1-1.4c0.3-0.2,0.7-0.3,1.1-0.3
				c0.6,0,1.1,0.2,1.7,0.5l-0.6,1.5c-0.4-0.2-0.8-0.4-1.2-0.4s-0.7,0.1-1,0.3s-0.5,0.5-0.6,0.9c-0.2,0.6-0.3,1.2-0.3,1.9v5.1h-1.6
				V315.4z M249.2,319.1l-0.2-1.5c0.4,0.1,0.7,0.1,0.9,0.1c0.4,0,0.7-0.1,0.9-0.2s0.4-0.3,0.5-0.5s0.3-0.6,0.5-1.2
				c0-0.1,0.1-0.2,0.1-0.4l-3.7-9.7h1.8l2,5.6c0.3,0.7,0.5,1.5,0.7,2.2c0.2-0.8,0.4-1.5,0.7-2.2l2.1-5.6h1.6l-3.7,9.8
				c-0.4,1.1-0.7,1.8-0.9,2.2c-0.3,0.5-0.6,0.9-1,1.2s-0.8,0.4-1.3,0.4C250,319.3,249.6,319.3,249.2,319.1z"/>
			<path class="st13" d="M80.5,561.5H284v39.1H80.5V561.5z"/>
			<path class="st2" d="M80.5,561.5H284v39.1H80.5V561.5z"/>
			<path d="M115.9,584.1l1.6-0.2c0.1,1,0.2,1.7,0.6,2.1c0.3,0.4,0.8,0.6,1.4,0.6c0.4,0,0.8-0.1,1.1-0.3c0.3-0.2,0.5-0.5,0.7-0.8
				c0.1-0.4,0.2-0.9,0.2-1.7v-9.2h1.8v9.1c0,1.1-0.1,2-0.4,2.6s-0.7,1.1-1.3,1.4c-0.6,0.3-1.3,0.5-2.1,0.5c-1.2,0-2.1-0.3-2.7-1
				C116.2,586.5,115.9,585.4,115.9,584.1z M129.9,587.9l-5.2-13.4h1.9l3.5,9.7c0.3,0.8,0.5,1.5,0.7,2.2c0.2-0.7,0.4-1.5,0.7-2.2
				l3.6-9.7h1.8l-5.2,13.4H129.9z M138.5,587.9v-13.4h2.7l3.2,9.5c0.3,0.9,0.5,1.5,0.6,2c0.2-0.5,0.4-1.2,0.7-2.1l3.2-9.3h2.4V588
				h-1.7v-11.2l-3.9,11.2h-1.6l-3.9-11.4V588h-1.7V587.9z M159.3,587.9v-13.4h2.7l3.2,9.5c0.3,0.9,0.5,1.5,0.6,2
				c0.2-0.5,0.4-1.2,0.7-2.1l3.2-9.3h2.4V588h-1.7v-11.2l-3.9,11.2h-1.6l-3.9-11.4V588h-1.7V587.9z M181.3,584.8l1.7,0.2
				c-0.3,1-0.8,1.8-1.5,2.3s-1.6,0.8-2.8,0.8c-1.4,0-2.5-0.4-3.4-1.3c-0.8-0.9-1.2-2.1-1.2-3.7c0-1.6,0.4-2.9,1.2-3.8
				c0.8-0.9,1.9-1.3,3.3-1.3c1.3,0,2.3,0.4,3.2,1.3c0.8,0.9,1.2,2.1,1.2,3.7c0,0.1,0,0.2,0,0.4h-7.2c0.1,1.1,0.4,1.9,0.9,2.5
				s1.2,0.8,2,0.8c0.6,0,1.1-0.2,1.5-0.5C180.7,586,181,585.5,181.3,584.8z M175.9,582.1h5.4c-0.1-0.8-0.3-1.4-0.6-1.8
				c-0.5-0.6-1.2-1-2-1s-1.4,0.3-1.9,0.8C176.2,580.6,175.9,581.3,175.9,582.1z M188.6,586.4l0.2,1.5c-0.5,0.1-0.9,0.1-1.2,0.1
				c-0.6,0-1.1-0.1-1.4-0.3c-0.3-0.2-0.6-0.4-0.7-0.7c-0.1-0.3-0.2-1-0.2-1.9v-5.6h-1.2v-1.3h1.2v-2.4l1.6-1v3.4h1.7v1.3h-1.7v5.7
				c0,0.5,0,0.8,0.1,0.9c0.1,0.1,0.2,0.2,0.3,0.3s0.3,0.1,0.6,0.1C188.1,586.5,188.3,586.5,188.6,586.4z M196.5,586.7
				c-0.6,0.5-1.2,0.9-1.8,1.1c-0.6,0.2-1.2,0.3-1.8,0.3c-1.1,0-1.9-0.3-2.5-0.8s-0.9-1.2-0.9-2c0-0.5,0.1-0.9,0.3-1.3
				c0.2-0.4,0.5-0.7,0.8-0.9c0.4-0.2,0.8-0.4,1.2-0.5c0.3-0.1,0.8-0.2,1.5-0.2c1.3-0.2,2.3-0.3,2.9-0.6c0-0.2,0-0.4,0-0.4
				c0-0.7-0.2-1.1-0.5-1.4c-0.4-0.4-1-0.5-1.9-0.5c-0.8,0-1.3,0.1-1.7,0.4c-0.4,0.3-0.6,0.7-0.8,1.4l-1.6-0.2
				c0.1-0.7,0.4-1.2,0.7-1.6c0.3-0.4,0.8-0.8,1.5-1c0.6-0.2,1.4-0.3,2.2-0.3s1.5,0.1,2,0.3s0.9,0.4,1.1,0.7c0.2,0.3,0.4,0.7,0.5,1.1
				c0.1,0.3,0.1,0.8,0.1,1.5v2.2c0,1.5,0,2.5,0.1,2.9s0.2,0.8,0.4,1.2h-1.7C196.7,587.6,196.6,587.2,196.5,586.7z M196.4,583.1
				c-0.6,0.2-1.5,0.5-2.7,0.6c-0.7,0.1-1.2,0.2-1.4,0.3s-0.5,0.3-0.7,0.5c-0.1,0.2-0.2,0.5-0.2,0.8c0,0.4,0.2,0.8,0.5,1.1
				s0.8,0.4,1.5,0.4c0.6,0,1.2-0.1,1.7-0.4c0.5-0.3,0.9-0.7,1.1-1.1c0.2-0.4,0.3-0.9,0.3-1.6v-0.6H196.4z M199.9,585l1.6-0.2
				c0.1,0.6,0.3,1.1,0.8,1.5c0.4,0.3,1,0.5,1.8,0.5s1.3-0.2,1.7-0.5s0.5-0.7,0.5-1.1c0-0.4-0.2-0.7-0.5-0.9
				c-0.2-0.1-0.8-0.3-1.7-0.5c-1.2-0.3-2-0.6-2.5-0.8s-0.8-0.5-1-0.9s-0.4-0.8-0.4-1.3c0-0.4,0.1-0.8,0.3-1.2s0.5-0.7,0.8-0.9
				c0.2-0.2,0.6-0.3,1-0.5c0.4-0.1,0.9-0.2,1.4-0.2c0.8,0,1.4,0.1,2,0.3s1,0.5,1.3,0.9s0.5,0.9,0.6,1.5L206,581
				c-0.1-0.5-0.3-0.9-0.6-1.2s-0.8-0.4-1.5-0.4c-0.8,0-1.3,0.1-1.6,0.4c-0.3,0.2-0.5,0.5-0.5,0.9c0,0.2,0.1,0.4,0.2,0.6
				c0.1,0.2,0.3,0.3,0.6,0.4c0.2,0.1,0.6,0.2,1.4,0.4c1.2,0.3,2,0.6,2.4,0.8c0.5,0.2,0.8,0.5,1.1,0.9s0.4,0.8,0.4,1.4
				c0,0.6-0.2,1.1-0.5,1.5c-0.3,0.5-0.8,0.9-1.4,1.1c-0.6,0.3-1.3,0.4-2,0.4c-1.2,0-2.2-0.3-2.9-0.8
				C200.5,586.8,200.1,586.1,199.9,585z M209.9,591.6v-13.4h1.5v1.2c0.4-0.5,0.8-0.9,1.2-1.1c0.4-0.2,1-0.4,1.6-0.4
				c0.8,0,1.5,0.2,2.2,0.6c0.6,0.4,1.1,1,1.4,1.8c0.3,0.8,0.5,1.6,0.5,2.5c0,1-0.2,1.9-0.5,2.7c-0.4,0.8-0.9,1.4-1.5,1.8
				c-0.7,0.4-1.4,0.6-2.1,0.6c-0.5,0-1-0.1-1.5-0.3c-0.4-0.2-0.8-0.5-1.1-0.9v4.7h-1.7V591.6z M211.4,583.1c0,1.2,0.2,2.2,0.8,2.8
				c0.5,0.6,1.1,0.9,1.8,0.9s1.4-0.3,1.9-0.9c0.5-0.6,0.8-1.6,0.8-2.9c0-1.2-0.3-2.2-0.8-2.8s-1.1-0.9-1.8-0.9s-1.3,0.3-1.9,1
				C211.7,580.9,211.4,581.9,211.4,583.1z M226.6,586.7c-0.6,0.5-1.2,0.9-1.8,1.1c-0.6,0.2-1.2,0.3-1.8,0.3c-1.1,0-1.9-0.3-2.5-0.8
				s-0.9-1.2-0.9-2c0-0.5,0.1-0.9,0.3-1.3c0.2-0.4,0.5-0.7,0.8-0.9c0.4-0.2,0.8-0.4,1.2-0.5c0.3-0.1,0.8-0.2,1.5-0.2
				c1.3-0.2,2.3-0.3,2.9-0.6c0-0.2,0-0.4,0-0.4c0-0.7-0.2-1.1-0.5-1.4c-0.4-0.4-1-0.5-1.9-0.5c-0.8,0-1.3,0.1-1.7,0.4
				c-0.4,0.3-0.6,0.7-0.8,1.4L220,581c0.1-0.7,0.4-1.2,0.7-1.6c0.3-0.4,0.8-0.8,1.5-1c0.6-0.2,1.4-0.3,2.2-0.3s1.5,0.1,2,0.3
				s0.9,0.4,1.1,0.7c0.2,0.3,0.4,0.7,0.5,1.1c0.1,0.3,0.1,0.8,0.1,1.5v2.2c0,1.5,0,2.5,0.1,2.9s0.2,0.8,0.4,1.2h-1.7
				C226.7,587.6,226.6,587.2,226.6,586.7z M226.5,583.1c-0.6,0.2-1.5,0.5-2.7,0.6c-0.7,0.1-1.2,0.2-1.4,0.3s-0.5,0.3-0.7,0.5
				c-0.1,0.2-0.2,0.5-0.2,0.8c0,0.4,0.2,0.8,0.5,1.1s0.8,0.4,1.5,0.4c0.6,0,1.2-0.1,1.7-0.4c0.5-0.3,0.9-0.7,1.1-1.1
				c0.2-0.4,0.3-0.9,0.3-1.6v-0.6H226.5z M237,584.4l1.6,0.2c-0.2,1.1-0.6,2-1.4,2.6c-0.7,0.6-1.6,0.9-2.7,0.9
				c-1.3,0-2.4-0.4-3.2-1.3c-0.8-0.9-1.2-2.1-1.2-3.7c0-1.1,0.2-2,0.5-2.8s0.9-1.4,1.6-1.8c0.7-0.4,1.5-0.6,2.3-0.6
				c1.1,0,1.9,0.3,2.6,0.8c0.7,0.5,1.1,1.3,1.3,2.3l-1.6,0.2c-0.2-0.6-0.4-1.1-0.8-1.5c-0.4-0.3-0.8-0.5-1.4-0.5
				c-0.8,0-1.5,0.3-2,0.9c-0.5,0.6-0.8,1.5-0.8,2.8s0.2,2.2,0.8,2.8c0.5,0.6,1.2,0.9,2,0.9c0.6,0,1.2-0.2,1.6-0.6
				C236.6,585.8,236.9,585.2,237,584.4z M246.6,584.8l1.7,0.2c-0.3,1-0.8,1.8-1.5,2.3s-1.6,0.8-2.8,0.8c-1.4,0-2.5-0.4-3.4-1.3
				c-0.8-0.9-1.2-2.1-1.2-3.7c0-1.6,0.4-2.9,1.2-3.8c0.8-0.9,1.9-1.3,3.3-1.3c1.3,0,2.3,0.4,3.2,1.3c0.8,0.9,1.2,2.1,1.2,3.7
				c0,0.1,0,0.2,0,0.4h-7.2c0.1,1.1,0.4,1.9,0.9,2.5s1.2,0.8,2,0.8c0.6,0,1.1-0.2,1.5-0.5C246,586,246.4,585.5,246.6,584.8z
				 M241.2,582.1h5.4c-0.1-0.8-0.3-1.4-0.6-1.8c-0.5-0.6-1.2-1-2-1s-1.4,0.3-1.9,0.8C241.6,580.6,241.3,581.3,241.2,582.1z"/>
			<path class="st14" d="M80.4,618H284v39H80.4V618z"/>
			<path class="st2" d="M80.4,618H284v39H80.4V618z"/>
			<path d="M120.6,640.6l1.6-0.2c0.1,1,0.2,1.7,0.6,2.1c0.3,0.4,0.8,0.6,1.4,0.6c0.4,0,0.8-0.1,1.1-0.3c0.3-0.2,0.5-0.5,0.7-0.8
				c0.1-0.4,0.2-0.9,0.2-1.7v-9.2h1.8v9.1c0,1.1-0.1,2-0.4,2.6s-0.7,1.1-1.3,1.4c-0.6,0.3-1.3,0.5-2.1,0.5c-1.2,0-2.1-0.3-2.7-1
				C120.8,643,120.5,642,120.6,640.6z M134.6,644.4l-5.2-13.4h1.9l3.5,9.7c0.3,0.8,0.5,1.5,0.7,2.2c0.2-0.7,0.4-1.5,0.7-2.2l3.6-9.7
				h1.8l-5.2,13.4H134.6z M143.2,644.4V631h2.7l3.2,9.5c0.3,0.9,0.5,1.5,0.6,2c0.2-0.5,0.4-1.2,0.7-2.1l3.2-9.3h2.4v13.4h-1.7v-11.2
				l-3.9,11.2h-1.6l-3.9-11.4v11.4h-1.7V644.4z M163.4,637.9c0-2.2,0.6-4,1.8-5.2c1.2-1.3,2.7-1.9,4.6-1.9c1.2,0,2.3,0.3,3.3,0.9
				c1,0.6,1.7,1.4,2.3,2.5c0.5,1.1,0.8,2.2,0.8,3.6c0,1.4-0.3,2.6-0.8,3.6c-0.5,1.1-1.3,1.9-2.3,2.4c-1,0.6-2.1,0.8-3.2,0.8
				c-1.2,0-2.4-0.3-3.4-0.9c-1-0.6-1.7-1.4-2.2-2.5C163.7,640.2,163.4,639.1,163.4,637.9z M165.2,637.9c0,1.6,0.4,2.9,1.3,3.8
				c0.9,0.9,2,1.4,3.3,1.4s2.4-0.5,3.3-1.4s1.3-2.3,1.3-4c0-1.1-0.2-2-0.5-2.8s-0.9-1.4-1.6-1.9c-0.7-0.4-1.5-0.7-2.4-0.7
				c-1.3,0-2.3,0.4-3.2,1.3C165.7,634.5,165.2,635.9,165.2,637.9z M181,644.4l-3.7-9.7h1.7l2.1,5.8c0.2,0.6,0.4,1.3,0.6,1.9
				c0.1-0.5,0.3-1.1,0.6-1.8l2.1-5.9h1.7l-3.7,9.7H181z M194.2,641.3l1.7,0.2c-0.3,1-0.8,1.8-1.5,2.3s-1.6,0.8-2.8,0.8
				c-1.4,0-2.5-0.4-3.4-1.3c-0.8-0.9-1.2-2.1-1.2-3.7c0-1.6,0.4-2.9,1.2-3.8c0.8-0.9,1.9-1.3,3.3-1.3c1.3,0,2.3,0.4,3.2,1.3
				c0.8,0.9,1.2,2.1,1.2,3.7c0,0.1,0,0.2,0,0.4h-7.2c0.1,1.1,0.4,1.9,0.9,2.5s1.2,0.8,2,0.8c0.6,0,1.1-0.2,1.5-0.5
				C193.6,642.5,194,642,194.2,641.3z M188.8,638.6h5.4c-0.1-0.8-0.3-1.4-0.6-1.8c-0.5-0.6-1.2-1-2-1s-1.4,0.3-1.9,0.8
				S188.9,637.8,188.8,638.6z M198,644.4v-9.7h1.5v1.5c0.4-0.7,0.7-1.1,1-1.4c0.3-0.2,0.7-0.3,1.1-0.3c0.6,0,1.1,0.2,1.7,0.5
				l-0.6,1.5c-0.4-0.2-0.8-0.4-1.2-0.4s-0.7,0.1-1,0.3s-0.5,0.5-0.6,0.9c-0.2,0.6-0.3,1.2-0.3,1.9v5.1H198V644.4z M204.2,644.4V631
				h1.6v4.8c0.8-0.9,1.7-1.3,2.9-1.3c0.7,0,1.3,0.1,1.9,0.4c0.5,0.3,0.9,0.7,1.1,1.2c0.2,0.5,0.3,1.2,0.3,2.2v6.1h-1.6v-6.1
				c0-0.8-0.2-1.4-0.5-1.8c-0.4-0.4-0.9-0.6-1.5-0.6c-0.5,0-0.9,0.1-1.4,0.4c-0.4,0.2-0.7,0.6-0.9,1s-0.3,1-0.3,1.8v5.3L204.2,644.4
				L204.2,644.4z M221.2,641.3l1.7,0.2c-0.3,1-0.8,1.8-1.5,2.3s-1.6,0.8-2.8,0.8c-1.4,0-2.5-0.4-3.4-1.3c-0.8-0.9-1.2-2.1-1.2-3.7
				c0-1.6,0.4-2.9,1.2-3.8c0.8-0.9,1.9-1.3,3.3-1.3c1.3,0,2.3,0.4,3.2,1.3c0.8,0.9,1.2,2.1,1.2,3.7c0,0.1,0,0.2,0,0.4h-7.2
				c0.1,1.1,0.4,1.9,0.9,2.5s1.2,0.8,2,0.8c0.6,0,1.1-0.2,1.5-0.5C220.6,642.5,220.9,642,221.2,641.3z M215.8,638.6h5.4
				c-0.1-0.8-0.3-1.4-0.6-1.8c-0.5-0.6-1.2-1-2-1s-1.4,0.3-1.9,0.8C216.1,637.1,215.8,637.8,215.8,638.6z M231.2,643.2
				c-0.6,0.5-1.2,0.9-1.8,1.1c-0.6,0.2-1.2,0.3-1.8,0.3c-1.1,0-1.9-0.3-2.5-0.8s-0.9-1.2-0.9-2c0-0.5,0.1-0.9,0.3-1.3
				c0.2-0.4,0.5-0.7,0.8-0.9c0.4-0.2,0.8-0.4,1.2-0.5c0.3-0.1,0.8-0.2,1.5-0.2c1.3-0.2,2.3-0.3,2.9-0.6c0-0.2,0-0.4,0-0.4
				c0-0.7-0.2-1.1-0.5-1.4c-0.4-0.4-1-0.5-1.9-0.5c-0.8,0-1.3,0.1-1.7,0.4c-0.4,0.3-0.6,0.7-0.8,1.4l-1.6-0.2
				c0.1-0.7,0.4-1.2,0.7-1.6c0.3-0.4,0.8-0.8,1.5-1c0.6-0.2,1.4-0.3,2.2-0.3s1.5,0.1,2,0.3s0.9,0.4,1.1,0.7c0.2,0.3,0.4,0.7,0.5,1.1
				c0.1,0.3,0.1,0.8,0.1,1.5v2.2c0,1.5,0,2.5,0.1,2.9s0.2,0.8,0.4,1.2h-1.7C231.4,644.1,231.3,643.7,231.2,643.2z M231.1,639.6
				c-0.6,0.2-1.5,0.5-2.7,0.6c-0.7,0.1-1.2,0.2-1.4,0.3s-0.5,0.3-0.7,0.5c-0.1,0.2-0.2,0.5-0.2,0.8c0,0.4,0.2,0.8,0.5,1.1
				s0.8,0.4,1.5,0.4c0.6,0,1.2-0.1,1.7-0.4c0.5-0.3,0.9-0.7,1.1-1.1c0.2-0.4,0.3-0.9,0.3-1.6v-0.6H231.1z M241.6,644.4v-1.2
				c-0.6,1-1.5,1.4-2.7,1.4c-0.8,0-1.5-0.2-2.1-0.6c-0.6-0.4-1.1-1-1.5-1.8s-0.5-1.6-0.5-2.6s0.2-1.8,0.5-2.6s0.8-1.4,1.4-1.8
				c0.6-0.4,1.4-0.6,2.2-0.6c0.6,0,1.1,0.1,1.5,0.4c0.5,0.2,0.8,0.6,1.1,1v-4.8h1.6v13.4h-1.5V644.4z M236.4,639.6
				c0,1.2,0.3,2.2,0.8,2.8s1.1,0.9,1.8,0.9s1.3-0.3,1.8-0.9c0.5-0.6,0.8-1.5,0.8-2.7c0-1.3-0.3-2.3-0.8-2.9
				c-0.5-0.6-1.1-0.9-1.9-0.9c-0.7,0-1.3,0.3-1.8,0.9C236.6,637.4,236.4,638.3,236.4,639.6z"/>
		</g>
	</g>
</g>
</svg>
